# https://github.com/mikedh/trimesh
mtllib material.mtl
usemtl material_0
v -1.80000000 0.30000000 0.55453739
v 1.80000000 0.30000000 0.49546241
v -1.80000000 0.30000000 0.49546241
v 1.80000000 0.30000000 0.55453739
v 1.80000000 -0.30000000 0.49546241
v 1.80000000 0.30000000 0.49546241
v 1.80000000 -0.30000000 0.55453739
v -1.80000000 -0.30000000 0.49546241
v 1.80000000 -0.30000000 0.49546241
v -1.80000000 -0.30000000 0.55453739
v -1.80000000 0.30000000 0.49546241
v -1.80000000 -0.30000000 0.49546241
v 1.80000000 -0.30000000 0.49546241
v -1.80000000 0.30000000 0.49546241
v 1.80000000 0.30000000 0.49546241
v 1.80000000 0.30000000 0.55453739
v -1.80000000 -0.30000000 0.55453739
v 1.80000000 -0.30000000 0.55453739
v -1.80000000 0.30000000 0.07581408
v 1.80000000 0.30000000 0.01673910
v -1.80000000 0.30000000 0.01673910
v 1.80000000 0.30000000 0.07581408
v 1.80000000 -0.30000000 0.01673910
v 1.80000000 0.30000000 0.01673910
v 1.80000000 -0.30000000 0.07581408
v -1.80000000 -0.30000000 0.01673910
v 1.80000000 -0.30000000 0.01673910
v -1.80000000 -0.30000000 0.07581408
v -1.80000000 0.30000000 0.01673910
v -1.80000000 -0.30000000 0.01673910
v 1.80000000 -0.30000000 0.01673910
v -1.80000000 0.30000000 0.01673910
v 1.80000000 0.30000000 0.01673910
v 1.80000000 0.30000000 0.07581408
v -1.80000000 -0.30000000 0.07581408
v 1.80000000 -0.30000000 0.07581408
v -1.80000000 0.30000000 1.43580197
v 1.80000000 0.30000000 1.37672700
v -1.80000000 0.30000000 1.37672700
v 1.80000000 0.30000000 1.43580197
v 1.80000000 -0.30000000 1.37672700
v 1.80000000 0.30000000 1.37672700
v 1.80000000 -0.30000000 1.43580197
v -1.80000000 -0.30000000 1.37672700
v 1.80000000 -0.30000000 1.37672700
v -1.80000000 -0.30000000 1.43580197
v -1.80000000 0.30000000 1.37672700
v -1.80000000 -0.30000000 1.37672700
v 1.80000000 -0.30000000 1.37672700
v -1.80000000 0.30000000 1.37672700
v 1.80000000 0.30000000 1.37672700
v 1.80000000 0.30000000 1.43580197
v -1.80000000 -0.30000000 1.43580197
v 1.80000000 -0.30000000 1.43580197
v 1.80000000 0.30000000 0.55453739
v 1.80000000 -0.30000000 0.55453739
v -1.80000000 -0.30000000 0.55453739
v -1.80000000 0.30000000 0.55453739
v -1.80000000 -0.30000000 0.49546241
v -1.80000000 0.30000000 0.55453739
v 1.80000000 0.30000000 0.07581408
v 1.80000000 -0.30000000 0.07581408
v -1.80000000 -0.30000000 0.07581408
v -1.80000000 0.30000000 0.07581408
v -1.80000000 -0.30000000 0.01673910
v -1.80000000 0.30000000 0.07581408
v 1.80000000 0.30000000 1.43580197
v 1.80000000 -0.30000000 1.43580197
v -1.80000000 -0.30000000 1.43580197
v -1.80000000 0.30000000 1.43580197
v -1.80000000 -0.30000000 1.37672700
v -1.80000000 0.30000000 1.43580197
vt 0.62500000 0.00000000
vt 0.37500000 0.25000000
vt 0.37500000 0.00000000
vt 0.62500000 0.25000000
vt 0.37500000 0.50000000
vt 0.37500000 0.25000000
vt 0.62500000 0.50000000
vt 0.37500000 0.75000000
vt 0.37500000 0.50000000
vt 0.62500000 0.75000000
vt 0.37500000 1.00000000
vt 0.37500000 0.75000000
vt 0.37500000 0.50000000
vt 0.12500000 0.75000000
vt 0.12500000 0.50000000
vt 0.87500000 0.50000000
vt 0.62500000 0.75000000
vt 0.62500000 0.50000000
vt 0.62500000 0.00000000
vt 0.37500000 0.25000000
vt 0.37500000 0.00000000
vt 0.62500000 0.25000000
vt 0.37500000 0.50000000
vt 0.37500000 0.25000000
vt 0.62500000 0.50000000
vt 0.37500000 0.75000000
vt 0.37500000 0.50000000
vt 0.62500000 0.75000000
vt 0.37500000 1.00000000
vt 0.37500000 0.75000000
vt 0.37500000 0.50000000
vt 0.12500000 0.75000000
vt 0.12500000 0.50000000
vt 0.87500000 0.50000000
vt 0.62500000 0.75000000
vt 0.62500000 0.50000000
vt 0.62500000 0.00000000
vt 0.37500000 0.25000000
vt 0.37500000 0.00000000
vt 0.62500000 0.25000000
vt 0.37500000 0.50000000
vt 0.37500000 0.25000000
vt 0.62500000 0.50000000
vt 0.37500000 0.75000000
vt 0.37500000 0.50000000
vt 0.62500000 0.75000000
vt 0.37500000 1.00000000
vt 0.37500000 0.75000000
vt 0.37500000 0.50000000
vt 0.12500000 0.75000000
vt 0.12500000 0.50000000
vt 0.87500000 0.50000000
vt 0.62500000 0.75000000
vt 0.62500000 0.50000000
vt 0.62500000 0.25000000
vt 0.62500000 0.50000000
vt 0.62500000 0.75000000
vt 0.62500000 1.00000000
vt 0.37500000 0.75000000
vt 0.87500000 0.75000000
vt 0.62500000 0.25000000
vt 0.62500000 0.50000000
vt 0.62500000 0.75000000
vt 0.62500000 1.00000000
vt 0.37500000 0.75000000
vt 0.87500000 0.75000000
vt 0.62500000 0.25000000
vt 0.62500000 0.50000000
vt 0.62500000 0.75000000
vt 0.62500000 1.00000000
vt 0.37500000 0.75000000
vt 0.87500000 0.75000000
f 1/1 2/2 3/3
f 4/4 5/5 6/6
f 7/7 8/8 9/9
f 10/10 11/11 12/12
f 13/13 14/14 15/15
f 16/16 17/17 18/18
f 19/19 20/20 21/21
f 22/22 23/23 24/24
f 25/25 26/26 27/27
f 28/28 29/29 30/30
f 31/31 32/32 33/33
f 34/34 35/35 36/36
f 37/37 38/38 39/39
f 40/40 41/41 42/42
f 43/43 44/44 45/45
f 46/46 47/47 48/48
f 49/49 50/50 51/51
f 52/52 53/53 54/54
f 1/1 55/55 2/2
f 4/4 56/56 5/5
f 7/7 57/57 8/8
f 10/10 58/58 11/11
f 13/13 59/59 14/14
f 16/16 60/60 17/17
f 19/19 61/61 20/20
f 22/22 62/62 23/23
f 25/25 63/63 26/26
f 28/28 64/64 29/29
f 31/31 65/65 32/32
f 34/34 66/66 35/35
f 37/37 67/67 38/38
f 40/40 68/68 41/41
f 43/43 69/69 44/44
f 46/46 70/70 47/47
f 49/49 71/71 50/50
f 52/52 72/72 53/53

