# https://github.com/mikedh/trimesh
mtllib material.mtl
usemtl Material.002
v 0.12463679 -0.10941430 0.37971982
v -0.10941627 -0.10941434 0.37371585
v 0.12463679 -0.10941430 0.37371585
v -0.10941627 -0.10941434 0.37971982
v 0.12463679 -0.10341033 0.38898018
v -0.10941627 -0.10941434 0.38898019
v 0.12463679 -0.10941430 0.38898019
v -0.10941627 -0.10590354 0.38898019
v -0.10941627 -0.10341036 0.38898018
v 0.12463678 -0.09414997 0.37371585
v 0.12463678 -0.10015394 0.37534405
v 0.12463678 -0.10015394 0.37371585
v 0.12463678 -0.09766076 0.37534405
v 0.12463678 -0.09577816 0.37722665
v 0.12463678 -0.09414997 0.37971982
v 0.12463678 -0.09766076 0.37615118
v 0.12463678 -0.09577816 0.37971982
v 0.12463678 -0.09414996 0.38898018
v 0.12463678 -0.09577816 0.38297621
v 0.12463678 -0.09414997 0.38297621
v 0.12463678 -0.09577816 0.38546939
v 0.12463678 -0.09658530 0.38546939
v 0.12463678 -0.09766076 0.38662069
v 0.12463678 -0.09766076 0.38735199
v 0.12463678 -0.10015393 0.38735199
v 0.12463678 -0.10015393 0.38898018
v 0.12463679 -0.10341033 0.37864623
v 0.12463679 -0.10697897 0.37722665
v 0.12463679 -0.10590350 0.37607534
v 0.12463679 -0.10448392 0.37972170
v 0.12463678 -0.09908035 0.37971982
v 0.12463678 -0.09908035 0.38297434
v 0.12463679 -0.10448392 0.38297621
v 0.12463678 -0.10015394 0.38404980
v 0.12463679 -0.10340845 0.38404980
v 0.12463679 -0.10705481 0.38546939
v 0.12463679 -0.10590350 0.38654485
v 0.12463679 -0.10778610 0.38546939
v 0.12463679 -0.10341033 0.38898018
v 0.12463679 -0.10590350 0.38735199
v 0.12463679 -0.10341033 0.38735199
v 0.12463679 -0.10941430 0.38297622
v 0.12463679 -0.10778610 0.38297622
v 0.12463679 -0.10941430 0.38898019
v 0.12463678 -0.09650946 0.37722665
v 0.12463678 -0.10015581 0.37864623
v 0.12463679 -0.10341033 0.37534405
v 0.12463679 -0.10941430 0.37371585
v 0.12463679 -0.10341033 0.37371585
v 0.12463679 -0.10590350 0.37534405
v 0.12463679 -0.10778610 0.37722665
v 0.12463679 -0.10941430 0.37971982
v 0.12463679 -0.10778610 0.37971982
v 0.12463678 -0.09414997 0.38297621
v -0.10941627 -0.09415000 0.38898018
v 0.12463678 -0.09414996 0.38898018
v -0.10941627 -0.09415000 0.38297621
v -0.10941627 -0.10015398 0.37371585
v 0.12463678 -0.09414997 0.37371585
v 0.12463678 -0.10015394 0.37371585
v -0.10941627 -0.09415001 0.37371585
v -0.10941627 -0.10941434 0.37371585
v -0.10941627 -0.10590354 0.37534405
v -0.10941627 -0.10341037 0.37371585
v -0.10941627 -0.10778614 0.37722665
v -0.10941627 -0.10941434 0.37971982
v -0.10941627 -0.10590354 0.37607534
v -0.10941627 -0.10778614 0.37971982
v -0.10941627 -0.10341036 0.38898018
v -0.10941627 -0.10341037 0.38735199
v -0.10941627 -0.10590354 0.38898019
v -0.10941627 -0.10941434 0.38898019
v -0.10941627 -0.10778614 0.38297622
v -0.10941627 -0.10941434 0.38297622
v -0.10941627 -0.10778614 0.38546939
v -0.10941627 -0.10705485 0.38546939
v -0.10941627 -0.10590354 0.38654485
v -0.10941627 -0.10590354 0.38735199
v -0.10941627 -0.10340849 0.38404980
v -0.10941627 -0.10448396 0.38297621
v -0.10941627 -0.10697901 0.37722665
v -0.10941627 -0.10341037 0.37864623
v -0.10941627 -0.10448396 0.37972170
v -0.10941627 -0.10015585 0.37864623
v -0.10941627 -0.09908039 0.37971982
v -0.10941627 -0.09908038 0.38297434
v -0.10941627 -0.10015398 0.38404980
v -0.10941627 -0.09658534 0.38546939
v -0.10941627 -0.09766080 0.38662069
v -0.10941627 -0.09577820 0.38546939
v -0.10941627 -0.10015397 0.38898018
v -0.10941627 -0.09766080 0.38735199
v -0.10941627 -0.10015397 0.38735199
v -0.10941627 -0.09415000 0.38297621
v -0.10941627 -0.09577820 0.38297621
v -0.10941627 -0.09415000 0.38898018
v -0.10941627 -0.09766080 0.38898018
v -0.10941627 -0.09650950 0.37722665
v -0.10941627 -0.09766080 0.37615118
v -0.10941627 -0.10015398 0.37534405
v -0.10941627 -0.09415001 0.37371585
v -0.10941627 -0.10015398 0.37371585
v -0.10941627 -0.09766080 0.37534405
v -0.10941627 -0.09577820 0.37722665
v -0.10941627 -0.09415001 0.37971982
v -0.10941627 -0.09577820 0.37971982
v -0.10941627 -0.10341037 0.37534405
v -0.10941627 -0.10941434 0.38297622
v 0.12463679 -0.10778610 0.38297622
v 0.12463679 -0.10941430 0.38297622
v -0.10941627 -0.10778614 0.38297622
v -0.10941627 -0.10778614 0.38297622
v 0.12463679 -0.10778610 0.38546939
v 0.12463679 -0.10778610 0.38297622
v -0.10941627 -0.10778614 0.38546939
v -0.10941627 -0.10778614 0.38546939
v 0.12463679 -0.10705481 0.38546939
v 0.12463679 -0.10778610 0.38546939
v -0.10941627 -0.10705485 0.38546939
v -0.10941627 -0.10705485 0.38546939
v 0.12463679 -0.10448392 0.38297621
v 0.12463679 -0.10705481 0.38546939
v -0.10941627 -0.10448396 0.38297621
v -0.10941627 -0.10448396 0.38297621
v 0.12463679 -0.10448392 0.37972170
v 0.12463679 -0.10448392 0.38297621
v -0.10941627 -0.10448396 0.37972170
v -0.10941627 -0.10448396 0.37972170
v 0.12463679 -0.10697897 0.37722665
v 0.12463679 -0.10448392 0.37972170
v -0.10941627 -0.10697901 0.37722665
v 0.12463679 -0.10697897 0.37722665
v -0.10941627 -0.10778614 0.37722665
v 0.12463679 -0.10778610 0.37722665
v -0.10941627 -0.10697901 0.37722665
v -0.10941627 -0.10778614 0.37722665
v 0.12463679 -0.10778610 0.37971982
v 0.12463679 -0.10778610 0.37722665
v -0.10941627 -0.10778614 0.37971982
v 0.12463679 -0.10778610 0.37971982
v -0.10941627 -0.10941434 0.37971982
v 0.12463679 -0.10941430 0.37971982
v -0.10941627 -0.10778614 0.37971982
v -0.10941627 -0.10941434 0.38898019
v 0.12463679 -0.10941430 0.38297622
v 0.12463679 -0.10941430 0.38898019
v -0.10941627 -0.10941434 0.38297622
v -0.10941627 -0.10015397 0.38898018
v 0.12463678 -0.10015393 0.38735199
v 0.12463678 -0.10015393 0.38898018
v -0.10941627 -0.10015397 0.38735199
v -0.10941627 -0.09766080 0.38735199
v 0.12463678 -0.10015393 0.38735199
v -0.10941627 -0.10015397 0.38735199
v 0.12463678 -0.09766076 0.38735199
v -0.10941627 -0.09766080 0.38735199
v 0.12463678 -0.09766076 0.38662069
v 0.12463678 -0.09766076 0.38735199
v -0.10941627 -0.09766080 0.38662069
v -0.10941627 -0.09766080 0.38662069
v 0.12463678 -0.10015394 0.38404980
v 0.12463678 -0.09766076 0.38662069
v -0.10941627 -0.10015398 0.38404980
v 0.12463679 -0.10340845 0.38404980
v -0.10941627 -0.10015398 0.38404980
v -0.10941627 -0.10340849 0.38404980
v 0.12463678 -0.10015394 0.38404980
v 0.12463679 -0.10590350 0.38654485
v -0.10941627 -0.10340849 0.38404980
v -0.10941627 -0.10590354 0.38654485
v 0.12463679 -0.10340845 0.38404980
v -0.10941627 -0.10590354 0.38654485
v 0.12463679 -0.10590350 0.38735199
v 0.12463679 -0.10590350 0.38654485
v -0.10941627 -0.10590354 0.38735199
v -0.10941627 -0.10341037 0.38735199
v 0.12463679 -0.10590350 0.38735199
v -0.10941627 -0.10590354 0.38735199
v 0.12463679 -0.10341033 0.38735199
v -0.10941627 -0.10341037 0.38735199
v 0.12463679 -0.10341033 0.38898018
v 0.12463679 -0.10341033 0.38735199
v -0.10941627 -0.10341036 0.38898018
v 0.12463678 -0.10015393 0.38898018
v -0.10941627 -0.09766080 0.38898018
v -0.10941627 -0.10015397 0.38898018
v 0.12463678 -0.09414996 0.38898018
v -0.10941627 -0.09415000 0.38898018
v 0.12463678 -0.09577816 0.37971982
v -0.10941627 -0.09415001 0.37971982
v -0.10941627 -0.09577820 0.37971982
v 0.12463678 -0.09414997 0.37971982
v -0.10941627 -0.09577820 0.37971982
v 0.12463678 -0.09577816 0.37722665
v 0.12463678 -0.09577816 0.37971982
v -0.10941627 -0.09577820 0.37722665
v 0.12463678 -0.09650946 0.37722665
v -0.10941627 -0.09577820 0.37722665
v -0.10941627 -0.09650950 0.37722665
v 0.12463678 -0.09577816 0.37722665
v 0.12463678 -0.09908035 0.37971982
v -0.10941627 -0.09650950 0.37722665
v -0.10941627 -0.09908039 0.37971982
v 0.12463678 -0.09650946 0.37722665
v -0.10941627 -0.09908039 0.37971982
v 0.12463678 -0.09908035 0.38297434
v 0.12463678 -0.09908035 0.37971982
v -0.10941627 -0.09908038 0.38297434
v -0.10941627 -0.09908038 0.38297434
v 0.12463678 -0.09658530 0.38546939
v 0.12463678 -0.09908035 0.38297434
v -0.10941627 -0.09658534 0.38546939
v -0.10941627 -0.09577820 0.38546939
v 0.12463678 -0.09658530 0.38546939
v -0.10941627 -0.09658534 0.38546939
v 0.12463678 -0.09577816 0.38546939
v -0.10941627 -0.09577820 0.38546939
v 0.12463678 -0.09577816 0.38297621
v 0.12463678 -0.09577816 0.38546939
v -0.10941627 -0.09577820 0.38297621
v -0.10941627 -0.09415000 0.38297621
v 0.12463678 -0.09577816 0.38297621
v -0.10941627 -0.09577820 0.38297621
v 0.12463678 -0.09414997 0.38297621
v -0.10941627 -0.09415001 0.37371585
v 0.12463678 -0.09414997 0.37971982
v 0.12463678 -0.09414997 0.37371585
v -0.10941627 -0.09415001 0.37971982
v -0.10941627 -0.10341037 0.37371585
v 0.12463679 -0.10341033 0.37534405
v 0.12463679 -0.10341033 0.37371585
v -0.10941627 -0.10341037 0.37534405
v 0.12463679 -0.10341033 0.37534405
v -0.10941627 -0.10590354 0.37534405
v 0.12463679 -0.10590350 0.37534405
v -0.10941627 -0.10341037 0.37534405
v -0.10941627 -0.10590354 0.37534405
v 0.12463679 -0.10590350 0.37607534
v 0.12463679 -0.10590350 0.37534405
v -0.10941627 -0.10590354 0.37607534
v -0.10941627 -0.10590354 0.37607534
v 0.12463679 -0.10341033 0.37864623
v 0.12463679 -0.10590350 0.37607534
v -0.10941627 -0.10341037 0.37864623
v -0.10941627 -0.10341037 0.37864623
v 0.12463678 -0.10015581 0.37864623
v 0.12463679 -0.10341033 0.37864623
v -0.10941627 -0.10015585 0.37864623
v -0.10941627 -0.10015585 0.37864623
v 0.12463678 -0.09766076 0.37615118
v 0.12463678 -0.10015581 0.37864623
v -0.10941627 -0.09766080 0.37615118
v -0.10941627 -0.09766080 0.37615118
v 0.12463678 -0.09766076 0.37534405
v 0.12463678 -0.09766076 0.37615118
v -0.10941627 -0.09766080 0.37534405
v 0.12463678 -0.09766076 0.37534405
v -0.10941627 -0.10015398 0.37534405
v 0.12463678 -0.10015394 0.37534405
v -0.10941627 -0.09766080 0.37534405
v -0.10941627 -0.10015398 0.37534405
v 0.12463678 -0.10015394 0.37371585
v 0.12463678 -0.10015394 0.37534405
v -0.10941627 -0.10015398 0.37371585
v -0.10941627 -0.10341037 0.37371585
v 0.12463679 -0.10941430 0.37371585
v -0.10941627 -0.10941434 0.37371585
v 0.12463679 -0.10341033 0.37371585
vt 0.78658003 0.00061268
vt 0.76299435 0.92005283
vt 0.76299435 0.00061274
vt 0.78657997 0.92005283
vt 0.35481387 0.00061268
vt 0.33118170 0.92001742
vt 0.33122823 0.00061268
vt 0.34786609 0.92014575
vt 0.38260630 0.91973978
vt 0.77008176 0.93727165
vt 0.76834106 0.95642185
vt 0.76299453 0.95252520
vt 0.77174556 0.95005727
vt 0.78436494 0.93429077
vt 0.77919149 0.92593020
vt 0.77718955 0.94665265
vt 0.78365588 0.92406416
vt 0.82267958 0.93448138
vt 0.81294221 0.92326599
vt 0.81901670 0.92127818
vt 0.81454468 0.93073910
vt 0.81141829 0.93650377
vt 0.82188034 0.94583076
vt 0.82667524 0.94263953
vt 0.83417600 0.94393814
vt 0.83591980 0.93777531
vt 0.78946954 0.96723861
vt 0.78569221 0.98204499
vt 0.77951789 0.97664130
vt 0.79404247 0.97094870
vt 0.79209059 0.95028758
vt 0.80461329 0.94916087
vt 0.80657911 0.96971387
vt 0.80937243 0.95273525
vt 0.81063223 0.96523917
vt 0.81476349 0.98068476
vt 0.82323229 0.97271228
vt 0.80955243 0.98911601
vt 0.83216816 0.98963696
vt 0.82739085 0.98071629
vt 0.83591980 0.98600554
vt 0.81559300 0.99732459
vt 0.81111032 0.99938744
vt 0.81997776 0.98555565
vt 0.78241366 0.94029164
vt 0.78823113 0.95483714
vt 0.77019507 0.96818626
vt 0.77408779 0.98701864
vt 0.76531470 0.97264969
vt 0.77429610 0.97413188
vt 0.78863829 0.98841053
vt 0.78441668 0.99728948
vt 0.78905916 0.99865288
vt 0.81139094 0.00061262
vt 0.78780526 0.92005265
vt 0.78780532 0.00061268
vt 0.81139094 0.92005259
vt 0.83742732 0.00061268
vt 0.86101300 0.92005235
vt 0.83742732 0.92005235
vt 0.86101294 0.00061268
vt 0.34653825 0.98599261
vt 0.36040464 0.98905802
vt 0.35414973 0.99662840
vt 0.34143284 0.97275883
vt 0.33487734 0.98007286
vt 0.35617417 0.98280048
vt 0.33185172 0.97637546
vt 0.34390461 0.92137086
vt 0.34979150 0.92325622
vt 0.34316665 0.92875475
vt 0.34344676 0.93599522
vt 0.33431196 0.94807380
vt 0.33118173 0.94249451
vt 0.34123892 0.94491023
vt 0.34560519 0.94698423
vt 0.35455453 0.93708563
vt 0.35011643 0.93051189
vt 0.36231270 0.94914895
vt 0.35816631 0.95378959
vt 0.34922171 0.97622460
vt 0.36342356 0.97045845
vt 0.35871428 0.96652317
vt 0.37566221 0.96962857
vt 0.37955466 0.96518672
vt 0.37878987 0.95279807
vt 0.37453336 0.94866955
vt 0.38943025 0.94427496
vt 0.38215217 0.93637174
vt 0.39805382 0.94918281
vt 0.40550312 0.92923445
vt 0.39325881 0.93160599
vt 0.40186673 0.92469150
vt 0.40477645 0.94248861
vt 0.40760928 0.94643056
vt 0.39411628 0.93675530
vt 0.39878756 0.93484068
vt 0.39112920 0.97343528
vt 0.38447770 0.97976321
vt 0.37535739 0.99048793
vt 0.39341983 0.98471683
vt 0.38015446 0.99496400
vt 0.38060257 0.98622149
vt 0.39770100 0.97034591
vt 0.40493414 0.97703117
vt 0.40760928 0.97310627
vt 0.35825476 0.99907058
vt 0.60285223 0.92019224
vt 0.58558023 0.00089264
vt 0.60285217 0.00061262
vt 0.58558029 0.92047226
vt 0.27567470 0.91993445
vt 0.25793457 0.00061262
vt 0.27583539 0.00635451
vt 0.25793466 0.92615545
vt 0.71041942 0.00089264
vt 0.72671860 0.92019266
vt 0.71041942 0.92047274
vt 0.72671860 0.00061262
vt 0.09295112 0.00061262
vt 0.11633760 0.91986221
vt 0.09295106 0.93129253
vt 0.11658660 0.01151896
vt 0.06686497 0.93162310
vt 0.04996741 0.01224911
vt 0.06686495 0.00061268
vt 0.04978544 0.92025560
vt 0.21851543 0.91998410
vt 0.20069048 0.00061262
vt 0.21866871 0.00828791
vt 0.20069049 0.92800897
vt 0.67409003 0.00089270
vt 0.65773571 0.92019278
vt 0.65773576 0.00061268
vt 0.67408997 0.92047274
vt 0.29480079 0.91993380
vt 0.27706069 0.00061262
vt 0.29496151 0.00635457
vt 0.27706081 0.92615485
vt 0.54858565 0.92019272
vt 0.56585759 0.00089264
vt 0.56585759 0.92047268
vt 0.54858565 0.00061262
vt 0.88582397 0.92005229
vt 0.86223835 0.00061262
vt 0.88582397 0.00061262
vt 0.86223835 0.92005223
vt 0.92912996 0.92030388
vt 0.91186017 0.00100410
vt 0.92912996 0.00061262
vt 0.91292554 0.91431922
vt 0.52733797 0.00089270
vt 0.50854081 0.92019248
vt 0.50854081 0.00061268
vt 0.52733797 0.92047244
vt 0.72794390 0.00084245
vt 0.74424219 0.92014247
vt 0.72794396 0.92047262
vt 0.74424386 0.00061262
vt 0.19931166 0.91998285
vt 0.18131272 0.00061262
vt 0.19946517 0.00840825
vt 0.18131267 0.92812645
vt 0.42501539 0.00089264
vt 0.44553030 0.92019302
vt 0.42501539 0.92047298
vt 0.44553033 0.00061268
vt 0.00061268 0.00061262
vt 0.02372380 0.91986614
vt 0.00061268 0.93146598
vt 0.02397378 0.01170051
vt 0.63892984 0.92024797
vt 0.62257481 0.00094795
vt 0.63892806 0.00061268
vt 0.62257475 0.92047268
vt 0.48729303 0.00089264
vt 0.46849591 0.92019272
vt 0.46849588 0.00061262
vt 0.48729303 0.92047274
vt 0.31386238 0.00688791
vt 0.32995638 0.92620826
vt 0.31368425 0.92041063
vt 0.32995641 0.00061262
vt 0.41508698 0.92012995
vt 0.40499070 0.00067657
vt 0.42379004 0.00061268
vt 0.39150238 0.92013621
vt 0.38383159 0.00061268
vt 0.56708294 0.00089258
vt 0.58435488 0.92019224
vt 0.56708300 0.92047220
vt 0.58435488 0.00061262
vt 0.23768905 0.92646825
vt 0.22006133 0.00714517
vt 0.23768900 0.00061268
vt 0.21989402 0.92040628
vt 0.70919412 0.92019427
vt 0.69289494 0.00089258
vt 0.70919406 0.00061262
vt 0.69289494 0.92047429
vt 0.06809030 0.00061262
vt 0.09147680 0.91986233
vt 0.06809025 0.93129271
vt 0.09172577 0.01151901
vt 0.11799682 0.01194131
vt 0.13510226 0.93131155
vt 0.11781192 0.92026734
vt 0.13510224 0.00061268
vt 0.15883793 0.00871032
vt 0.18008731 0.92800868
vt 0.16384026 0.91782939
vt 0.18008734 0.00061262
vt 0.67531526 0.92019278
vt 0.69166964 0.00089270
vt 0.69166958 0.92047280
vt 0.67531532 0.00061268
vt 0.23891436 0.00061268
vt 0.25654215 0.91993570
vt 0.23891446 0.92646819
vt 0.25670934 0.00667459
vt 0.60407740 0.92019224
vt 0.62134933 0.00089258
vt 0.62134933 0.92047226
vt 0.60407740 0.00061262
vt 0.88704926 0.00061256
vt 0.91063493 0.92005217
vt 0.88704926 0.92005211
vt 0.91063488 0.00061256
vt 0.29636496 0.00688785
vt 0.31245893 0.92620957
vt 0.29618680 0.92041194
vt 0.31245896 0.00061262
vt 0.48851842 0.92019272
vt 0.50731558 0.00089264
vt 0.50731558 0.92047274
vt 0.48851839 0.00061268
vt 0.76176912 0.92024285
vt 0.74547082 0.00094277
vt 0.76176906 0.00061268
vt 0.74546915 0.92047268
vt 0.15761267 0.91991502
vt 0.13632755 0.00061268
vt 0.15255852 0.01095456
vt 0.13632758 0.92812890
vt 0.46727055 0.92019296
vt 0.44675565 0.00089258
vt 0.46727058 0.00061262
vt 0.44675562 0.92047292
vt 0.02519910 0.00061268
vt 0.04831015 0.91986519
vt 0.02519905 0.93146509
vt 0.04856011 0.01170051
vt 0.64015514 0.00083739
vt 0.65651029 0.92013735
vt 0.64015698 0.92047274
vt 0.65651029 0.00061268
vt 0.52856326 0.92019218
vt 0.54736042 0.00089264
vt 0.54736042 0.92047215
vt 0.52856326 0.00061262
vt 0.94762492 0.92030305
vt 0.93035519 0.00100398
vt 0.94762492 0.00061256
vt 0.93142056 0.91431838
vt 0.83620191 0.00061262
vt 0.81261623 0.92005247
vt 0.81261629 0.00061262
vt 0.83620191 0.92005247
f 1/1 2/2 3/3
f 2/2 1/1 4/4
f 5/5 6/6 7/7
f 6/6 5/5 8/8
f 8/8 5/5 9/9
f 10/10 11/11 12/12
f 11/11 10/10 13/13
f 10/10 14/14 13/13
f 14/14 10/10 15/15
f 13/13 14/14 16/16
f 14/14 15/15 17/17
f 18/18 19/19 20/20
f 19/19 18/18 21/21
f 21/21 18/18 22/22
f 22/22 18/18 23/23
f 23/23 18/18 24/24
f 24/24 18/18 25/25
f 25/25 18/18 26/26
f 27/27 28/28 29/29
f 28/28 27/27 30/30
f 30/30 27/27 31/31
f 30/30 31/31 32/32
f 30/30 32/32 33/33
f 33/33 32/32 34/34
f 34/34 32/32 22/22
f 34/34 22/22 23/23
f 33/33 35/35 36/36
f 35/35 33/33 34/34
f 36/36 35/35 37/37
f 36/36 37/37 38/38
f 39/39 40/40 41/41
f 38/38 42/42 43/43
f 42/42 38/38 44/44
f 44/44 38/38 37/37
f 44/44 37/37 40/40
f 44/44 40/40 39/39
f 16/16 45/45 46/46
f 45/45 16/16 14/14
f 46/46 45/45 31/31
f 46/46 31/31 27/27
f 47/47 48/48 49/49
f 48/48 47/47 50/50
f 48/48 50/50 51/51
f 48/48 51/51 52/52
f 51/51 50/50 29/29
f 51/51 29/29 28/28
f 52/52 51/51 53/53
f 54/54 55/55 56/56
f 55/55 54/54 57/57
f 58/58 59/59 60/60
f 59/59 58/58 61/61
f 62/62 63/63 64/64
f 63/63 62/62 65/65
f 65/65 62/62 66/66
f 63/63 65/65 67/67
f 65/65 66/66 68/68
f 69/69 70/70 71/71
f 72/72 73/73 74/74
f 73/73 72/72 75/75
f 75/75 72/72 76/76
f 76/76 72/72 77/77
f 77/77 72/72 78/78
f 78/78 72/72 70/70
f 70/70 72/72 71/71
f 76/76 79/79 80/80
f 79/79 76/76 77/77
f 67/67 81/81 82/82
f 81/81 67/67 65/65
f 82/82 81/81 83/83
f 82/82 83/83 84/84
f 84/84 83/83 85/85
f 85/85 83/83 86/86
f 86/86 83/83 80/80
f 86/86 80/80 87/87
f 86/86 87/87 88/88
f 87/87 80/80 79/79
f 88/88 87/87 89/89
f 88/88 89/89 90/90
f 91/91 92/92 93/93
f 90/90 94/94 95/95
f 94/94 90/90 96/96
f 96/96 90/90 89/89
f 96/96 89/89 92/92
f 96/96 92/92 97/97
f 97/97 92/92 91/91
f 84/84 98/98 99/99
f 98/98 84/84 85/85
f 100/100 101/101 102/102
f 101/101 100/100 103/103
f 101/101 103/103 104/104
f 101/101 104/104 105/105
f 104/104 103/103 99/99
f 104/104 99/99 98/98
f 105/105 104/104 106/106
f 107/107 64/64 63/63
f 108/108 109/109 110/110
f 109/109 108/108 111/111
f 112/112 113/113 114/114
f 113/113 112/112 115/115
f 116/116 117/117 118/118
f 117/117 116/116 119/119
f 120/120 121/121 122/122
f 121/121 120/120 123/123
f 124/124 125/125 126/126
f 125/125 124/124 127/127
f 128/128 129/129 130/130
f 129/129 128/128 131/131
f 132/132 133/133 134/134
f 133/133 132/132 135/135
f 136/136 137/137 138/138
f 137/137 136/136 139/139
f 140/140 141/141 142/142
f 141/141 140/140 143/143
f 144/144 145/145 146/146
f 145/145 144/144 147/147
f 148/148 149/149 150/150
f 149/149 148/148 151/151
f 152/152 153/153 154/154
f 153/153 152/152 155/155
f 156/156 157/157 158/158
f 157/157 156/156 159/159
f 160/160 161/161 162/162
f 161/161 160/160 163/163
f 164/164 165/165 166/166
f 165/165 164/164 167/167
f 168/168 169/169 170/170
f 169/169 168/168 171/171
f 172/172 173/173 174/174
f 173/173 172/172 175/175
f 176/176 177/177 178/178
f 177/177 176/176 179/179
f 180/180 181/181 182/182
f 181/181 180/180 183/183
f 184/184 185/185 186/186
f 185/185 184/184 187/187
f 185/185 187/187 188/188
f 189/189 190/190 191/191
f 190/190 189/189 192/192
f 193/193 194/194 195/195
f 194/194 193/193 196/196
f 197/197 198/198 199/199
f 198/198 197/197 200/200
f 201/201 202/202 203/203
f 202/202 201/201 204/204
f 205/205 206/206 207/207
f 206/206 205/205 208/208
f 209/209 210/210 211/211
f 210/210 209/209 212/212
f 213/213 214/214 215/215
f 214/214 213/213 216/216
f 217/217 218/218 219/219
f 218/218 217/217 220/220
f 221/221 222/222 223/223
f 222/222 221/221 224/224
f 225/225 226/226 227/227
f 226/226 225/225 228/228
f 229/229 230/230 231/231
f 230/230 229/229 232/232
f 233/233 234/234 235/235
f 234/234 233/233 236/236
f 237/237 238/238 239/239
f 238/238 237/237 240/240
f 241/241 242/242 243/243
f 242/242 241/241 244/244
f 245/245 246/246 247/247
f 246/246 245/245 248/248
f 249/249 250/250 251/251
f 250/250 249/249 252/252
f 253/253 254/254 255/255
f 254/254 253/253 256/256
f 257/257 258/258 259/259
f 258/258 257/257 260/260
f 261/261 262/262 263/263
f 262/262 261/261 264/264
f 265/265 266/266 267/267
f 266/266 265/265 268/268

