# https://github.com/mikedh/trimesh
mtllib material.mtl
usemtl orange.001
v 0.02000000 0.02000000 0.16200000
v 0.02000000 0.02000000 0.06200000
v 0.02000000 0.02500000 0.16200000
v 0.02000000 0.02500000 0.16200000
v 0.02000000 0.02000000 0.06200000
v 0.02000000 0.02500000 0.06200000
v -0.02000000 0.02000000 0.16200000
v 0.02000000 0.02000000 0.16200000
v -0.02000000 0.02500000 0.16200000
v -0.02000000 0.02500000 0.16200000
v 0.02000000 0.02000000 0.16200000
v 0.02000000 0.02500000 0.16200000
v -0.02000000 0.02000000 0.06200000
v -0.02000000 0.02000000 0.16200000
v -0.02000000 0.02500000 0.06200000
v -0.02000000 0.02500000 0.06200000
v -0.02000000 0.02000000 0.16200000
v -0.02000000 0.02500000 0.16200000
v 0.02000000 0.02000000 0.06200000
v -0.02000000 0.02000000 0.06200000
v 0.02000000 0.02500000 0.06200000
v 0.02000000 0.02500000 0.06200000
v -0.02000000 0.02000000 0.06200000
v -0.02000000 0.02500000 0.06200000
v -0.02000000 0.02000000 0.16200000
v -0.02000000 0.02000000 0.06200000
v 0.02000000 0.02000000 0.16200000
v 0.02000000 0.02000000 0.16200000
v -0.02000000 0.02000000 0.06200000
v 0.02000000 0.02000000 0.06200000
v -0.02000000 0.02500000 0.06200000
v -0.02000000 0.02500000 0.16200000
v 0.02000000 0.02500000 0.06200000
v 0.02000000 0.02500000 0.06200000
v -0.02000000 0.02500000 0.16200000
v 0.02000000 0.02500000 0.16200000
vt 0.16200000 0.98000002
vt 0.06200000 0.98000002
vt 0.16200000 0.97500002
vt 0.16200000 0.97500002
vt 0.06200000 0.98000002
vt 0.06200000 0.97500002
vt 0.02000000 0.98000002
vt -0.02000000 0.98000002
vt 0.02000000 0.97500002
vt 0.02000000 0.97500002
vt -0.02000000 0.98000002
vt -0.02000000 0.97500002
vt -0.06200000 0.98000002
vt -0.16200000 0.98000002
vt -0.06200000 0.97500002
vt -0.06200000 0.97500002
vt -0.16200000 0.98000002
vt -0.16200000 0.97500002
vt 0.02000000 0.98000002
vt -0.02000000 0.98000002
vt 0.02000000 0.97500002
vt 0.02000000 0.97500002
vt -0.02000000 0.98000002
vt -0.02000000 0.97500002
vt -0.02000000 1.16199994
vt -0.02000000 1.06200004
vt 0.02000000 1.16199994
vt 0.02000000 1.16199994
vt -0.02000000 1.06200004
vt 0.02000000 1.06200004
vt -0.02000000 0.93800002
vt -0.02000000 0.83800000
vt 0.02000000 0.93800002
vt 0.02000000 0.93800002
vt -0.02000000 0.83800000
vt 0.02000000 0.83800000
f 1/1 2/2 3/3
f 4/4 5/5 6/6
f 7/7 8/8 9/9
f 10/10 11/11 12/12
f 13/13 14/14 15/15
f 16/16 17/17 18/18
f 19/19 20/20 21/21
f 22/22 23/23 24/24
f 25/25 26/26 27/27
f 28/28 29/29 30/30
f 31/31 32/32 33/33
f 34/34 35/35 36/36

