# https://github.com/mikedh/trimesh
mtllib material.mtl
usemtl greenlowglossplastic
v 0.10451840 -0.10500000 0.07077074
v 0.13700962 -0.10500000 0.05749999
v 0.13551112 -0.10500000 0.05388228
v 0.13500001 -0.10500000 0.04999999
v 0.10050893 -0.10500000 0.05711573
v 0.13551112 -0.10500000 0.05388228
v 0.10202536 -0.10500000 0.06408662
v 0.10451840 -0.10500000 0.07077074
v 0.16299038 -0.10500000 0.04249999
v 0.18778747 -0.10500000 0.01725695
v 0.16060661 -0.10500000 0.03939339
v 0.18274304 -0.10500000 0.01221251
v 0.15750000 -0.10500000 0.03700961
v 0.16448888 -0.10500000 0.04611770
v 0.19548160 -0.10500000 0.02922924
v 0.16299038 -0.10500000 0.04249999
v 0.19206268 -0.10500000 0.02296795
v 0.18778747 -0.10500000 0.01725695
v 0.13551112 -0.10500000 0.04611771
v 0.10050893 -0.10500000 0.04288425
v 0.13500001 -0.10500000 0.04999999
v 0.10000000 -0.10500000 0.04999999
v 0.10050893 -0.10500000 0.05711573
v 0.13700962 -0.10500000 0.04249999
v 0.10451840 -0.10500000 0.02922924
v 0.13551112 -0.10500000 0.04611771
v 0.10202535 -0.10500000 0.03591336
v 0.10050893 -0.10500000 0.04288425
v 0.16500001 -0.10500000 0.04999999
v 0.19949107 -0.10500000 0.04288424
v 0.16448888 -0.10500000 0.04611770
v 0.19797465 -0.10500000 0.03591336
v 0.19548160 -0.10500000 0.02922924
v 0.16448888 -0.10500000 0.05388227
v 0.16299038 -0.10500000 0.05749999
v 0.19548160 -0.10500000 0.07077073
v 0.15388228 -0.10500000 0.06448888
v 0.17077075 -0.10500000 0.09548158
v 0.15750000 -0.10500000 0.06299037
v 0.17703204 -0.10500000 0.09206266
v 0.16060661 -0.10500000 0.06060659
v 0.14250000 -0.10500000 0.03700961
v 0.11725696 -0.10500000 0.01221251
v 0.13939341 -0.10500000 0.03939339
v 0.11221252 -0.10500000 0.01725695
v 0.13700962 -0.10500000 0.04249999
v 0.10793732 -0.10500000 0.02296795
v 0.10451840 -0.10500000 0.02922924
v 0.14611772 -0.10500000 0.03551110
v 0.12922925 -0.10500000 0.00451839
v 0.14250000 -0.10500000 0.03700961
v 0.12296796 -0.10500000 0.00793731
v 0.11725696 -0.10500000 0.01221251
v 0.15000001 -0.10500000 0.03499999
v 0.14288425 -0.10500000 0.00050892
v 0.14611772 -0.10500000 0.03551110
v 0.13591337 -0.10500000 0.00202534
v 0.12922925 -0.10500000 0.00451839
v 0.18274304 -0.10500000 0.01221251
v 0.17703204 -0.10500000 0.00793731
v 0.15750000 -0.10500000 0.03700961
v 0.17077075 -0.10500000 0.00451839
v 0.15388228 -0.10500000 0.03551110
v 0.19548160 -0.10500000 0.07077073
v 0.19797465 -0.10500000 0.06408662
v 0.16448888 -0.10500000 0.05388227
v 0.19949107 -0.10500000 0.05711573
v 0.16500001 -0.10500000 0.04999999
v 0.20000001 -0.10500000 0.04999999
v 0.19949107 -0.10500000 0.04288424
v 0.15000001 -0.10500000 0.06499999
v 0.15711575 -0.10500000 0.09949106
v 0.15388228 -0.10500000 0.06448888
v 0.16408663 -0.10500000 0.09797464
v 0.17077075 -0.10500000 0.09548158
v 0.17077075 -0.10500000 0.00451839
v 0.16408663 -0.10500000 0.00202534
v 0.15388228 -0.10500000 0.03551110
v 0.15711574 -0.10500000 0.00050892
v 0.15000001 -0.10500000 0.03499999
v 0.15000001 -0.10500000 -0.00000001
v 0.14288425 -0.10500000 0.00050892
v 0.17703204 -0.10500000 0.09206266
v 0.18274305 -0.10500000 0.08778747
v 0.16060661 -0.10500000 0.06060659
v 0.18778748 -0.10500000 0.08274302
v 0.16299038 -0.10500000 0.05749999
v 0.19206268 -0.10500000 0.07703203
v 0.19548160 -0.10500000 0.07077073
v 0.14611772 -0.10500000 0.06448888
v 0.14288426 -0.10500000 0.09949106
v 0.15000001 -0.10500000 0.06499999
v 0.15000001 -0.10500000 0.09999999
v 0.15711575 -0.10500000 0.09949106
v 0.14250000 -0.10500000 0.06299037
v 0.12922925 -0.10500000 0.09548159
v 0.14611772 -0.10500000 0.06448888
v 0.13591338 -0.10500000 0.09797464
v 0.14288426 -0.10500000 0.09949106
v 0.10451840 -0.10500000 0.07077074
v 0.10793732 -0.10500000 0.07703204
v 0.13700962 -0.10500000 0.05749999
v 0.11221253 -0.10500000 0.08274302
v 0.13939341 -0.10500000 0.06060659
v 0.11725697 -0.10500000 0.08778747
v 0.14250000 -0.10500000 0.06299037
v 0.12296796 -0.10500000 0.09206266
v 0.12922925 -0.10500000 0.09548159
v 0.20000001 -0.12500000 0.04999999
v 0.19949107 -0.12500000 0.05711573
v 0.15000001 -0.12500000 0.04999999
v 0.20000001 -0.12500000 0.04999999
v 0.15000001 -0.12500000 0.04999999
v 0.19949107 -0.12500000 0.04288424
v 0.19206268 -0.12500000 0.02296794
v 0.19548160 -0.12500000 0.02922924
v 0.15000001 -0.12500000 0.04999999
v 0.19797465 -0.12500000 0.03591336
v 0.19949107 -0.12500000 0.04288424
v 0.17703204 -0.12500000 0.00793731
v 0.18274304 -0.12500000 0.01221251
v 0.15000001 -0.12500000 0.04999999
v 0.18778747 -0.12500000 0.01725695
v 0.19206268 -0.12500000 0.02296794
v 0.15711574 -0.12500000 0.00050892
v 0.16408663 -0.12500000 0.00202534
v 0.15000001 -0.12500000 0.04999999
v 0.17077075 -0.12500000 0.00451839
v 0.17703204 -0.12500000 0.00793731
v 0.13591337 -0.12500000 0.00202534
v 0.14288425 -0.12500000 0.00050892
v 0.15000001 -0.12500000 0.04999999
v 0.15000001 -0.12500000 -0.00000001
v 0.15711574 -0.12500000 0.00050892
v 0.11725696 -0.12500000 0.01221251
v 0.12296796 -0.12500000 0.00793731
v 0.15000001 -0.12500000 0.04999999
v 0.12922925 -0.12500000 0.00451839
v 0.13591337 -0.12500000 0.00202534
v 0.10451840 -0.12500000 0.02922924
v 0.10793732 -0.12500000 0.02296795
v 0.15000001 -0.12500000 0.04999999
v 0.11221252 -0.12500000 0.01725695
v 0.11725696 -0.12500000 0.01221251
v 0.10000000 -0.12500000 0.04999999
v 0.10050893 -0.12500000 0.04288425
v 0.15000001 -0.12500000 0.04999999
v 0.10202535 -0.12500000 0.03591336
v 0.10451840 -0.12500000 0.02922924
v 0.10451840 -0.12500000 0.07077074
v 0.10202536 -0.12500000 0.06408662
v 0.15000001 -0.12500000 0.04999999
v 0.10050893 -0.12500000 0.05711573
v 0.10000000 -0.12500000 0.04999999
v 0.11725697 -0.12500000 0.08778747
v 0.11221253 -0.12500000 0.08274302
v 0.15000001 -0.12500000 0.04999999
v 0.10793732 -0.12500000 0.07703203
v 0.10451840 -0.12500000 0.07077074
v 0.13591338 -0.12500000 0.09797464
v 0.12922925 -0.12500000 0.09548159
v 0.15000001 -0.12500000 0.04999999
v 0.12296796 -0.12500000 0.09206266
v 0.11725697 -0.12500000 0.08778747
v 0.15711575 -0.12500000 0.09949106
v 0.15000001 -0.12500000 0.09999999
v 0.15000001 -0.12500000 0.04999999
v 0.14288426 -0.12500000 0.09949106
v 0.13591338 -0.12500000 0.09797464
v 0.17703204 -0.12500000 0.09206266
v 0.17077075 -0.12500000 0.09548158
v 0.15000001 -0.12500000 0.04999999
v 0.16408663 -0.12500000 0.09797464
v 0.15711575 -0.12500000 0.09949106
v 0.19206268 -0.12500000 0.07703203
v 0.18778748 -0.12500000 0.08274302
v 0.15000001 -0.12500000 0.04999999
v 0.18274305 -0.12500000 0.08778747
v 0.17703204 -0.12500000 0.09206266
v 0.19949107 -0.12500000 0.05711573
v 0.19797465 -0.12500000 0.06408662
v 0.15000001 -0.12500000 0.04999999
v 0.19548160 -0.12500000 0.07077073
v 0.19206268 -0.12500000 0.07703203
v 0.16500001 0.10499999 0.05000000
v 0.16448888 0.10499999 0.04611771
v 0.19949107 0.10499999 0.04288425
v 0.16299038 0.10499999 0.04250000
v 0.19548160 0.10500000 0.02922925
v 0.16448888 0.10499999 0.04611771
v 0.19797465 0.10500000 0.03591337
v 0.19949107 0.10499999 0.04288425
v 0.15750000 0.10500000 0.03700962
v 0.18274304 0.10500000 0.01221252
v 0.16060661 0.10499999 0.03939340
v 0.18778747 0.10500000 0.01725696
v 0.16299038 0.10499999 0.04250000
v 0.19206268 0.10500000 0.02296796
v 0.19548160 0.10500000 0.02922925
v 0.15388228 0.10500000 0.03551111
v 0.17077075 0.10500000 0.00451840
v 0.15750000 0.10500000 0.03700962
v 0.17703204 0.10500000 0.00793732
v 0.18274304 0.10500000 0.01221252
v 0.15000001 0.10500000 0.03500000
v 0.15711574 0.10500000 0.00050893
v 0.15388228 0.10500000 0.03551111
v 0.16408663 0.10500000 0.00202535
v 0.17077075 0.10500000 0.00451840
v 0.19548160 0.10499999 0.07077074
v 0.16299038 0.10499999 0.05750000
v 0.16448888 0.10499999 0.05388228
v 0.19949107 0.10499999 0.04288425
v 0.20000001 0.10499999 0.05000000
v 0.16500001 0.10499999 0.05000000
v 0.19949107 0.10499999 0.05711574
v 0.16448888 0.10499999 0.05388228
v 0.19797465 0.10499999 0.06408663
v 0.19548160 0.10499999 0.07077074
v 0.14611772 0.10500000 0.03551111
v 0.14288425 0.10500000 0.00050893
v 0.15000001 0.10500000 0.03500000
v 0.15000001 0.10500000 -0.00000000
v 0.15711574 0.10500000 0.00050893
v 0.14250000 0.10500000 0.03700962
v 0.12922925 0.10500000 0.00451840
v 0.14611772 0.10500000 0.03551111
v 0.13591337 0.10500000 0.00202535
v 0.14288425 0.10500000 0.00050893
v 0.13939341 0.10499999 0.03939340
v 0.11725696 0.10500000 0.01221252
v 0.14250000 0.10500000 0.03700962
v 0.12296796 0.10500000 0.00793732
v 0.12922925 0.10500000 0.00451840
v 0.13551112 0.10499999 0.05388228
v 0.13700962 0.10499999 0.05750000
v 0.10451840 0.10499999 0.07077075
v 0.14611772 0.10499999 0.06448889
v 0.12922925 0.10499999 0.09548160
v 0.14250000 0.10499999 0.06299038
v 0.12296796 0.10499999 0.09206267
v 0.13939341 0.10499999 0.06060660
v 0.13551112 0.10499999 0.04611771
v 0.10451840 0.10500000 0.02922925
v 0.13700962 0.10499999 0.04250000
v 0.10793732 0.10500000 0.02296796
v 0.13939341 0.10499999 0.03939340
v 0.11221252 0.10500000 0.01725696
v 0.11725696 0.10500000 0.01221252
v 0.13500001 0.10499999 0.05000000
v 0.10050893 0.10499999 0.04288426
v 0.13551112 0.10499999 0.04611771
v 0.10202535 0.10500000 0.03591337
v 0.10451840 0.10500000 0.02922925
v 0.10451840 0.10499999 0.07077075
v 0.10202536 0.10499999 0.06408663
v 0.13551112 0.10499999 0.05388228
v 0.10050893 0.10499999 0.05711574
v 0.13500001 0.10499999 0.05000000
v 0.10000000 0.10499999 0.05000000
v 0.10050893 0.10499999 0.04288426
v 0.15000001 0.10499999 0.06500000
v 0.14288426 0.10499999 0.09949107
v 0.14611772 0.10499999 0.06448889
v 0.13591338 0.10499999 0.09797465
v 0.12922925 0.10499999 0.09548160
v 0.12296796 0.10499999 0.09206267
v 0.11725697 0.10499999 0.08778748
v 0.13939341 0.10499999 0.06060660
v 0.11221253 0.10499999 0.08274303
v 0.13700962 0.10499999 0.05750000
v 0.10793732 0.10499999 0.07703204
v 0.10451840 0.10499999 0.07077075
v 0.15388228 0.10499999 0.06448889
v 0.15711575 0.10499999 0.09949107
v 0.15000001 0.10499999 0.06500000
v 0.15000001 0.10499999 0.10000000
v 0.14288426 0.10499999 0.09949107
v 0.15750000 0.10499999 0.06299038
v 0.17077075 0.10499999 0.09548159
v 0.15388228 0.10499999 0.06448889
v 0.16408663 0.10499999 0.09797465
v 0.15711575 0.10499999 0.09949107
v 0.19548160 0.10499999 0.07077074
v 0.19206268 0.10499999 0.07703204
v 0.16299038 0.10499999 0.05750000
v 0.18778748 0.10499999 0.08274303
v 0.16060661 0.10499999 0.06060660
v 0.18274305 0.10499999 0.08778748
v 0.15750000 0.10499999 0.06299038
v 0.17703204 0.10499999 0.09206267
v 0.17077075 0.10499999 0.09548159
v 0.20000001 0.12500000 0.05000000
v 0.19949107 0.12500000 0.04288425
v 0.15000001 0.12500000 0.05000000
v 0.20000001 0.12500000 0.05000000
v 0.15000001 0.12500000 0.05000000
v 0.19949107 0.12500000 0.05711574
v 0.19206268 0.12500000 0.07703204
v 0.19548160 0.12500000 0.07077074
v 0.15000001 0.12500000 0.05000000
v 0.19797465 0.12500000 0.06408663
v 0.19949107 0.12500000 0.05711574
v 0.17703204 0.12500000 0.09206267
v 0.18274305 0.12500000 0.08778748
v 0.15000001 0.12500000 0.05000000
v 0.18778748 0.12500000 0.08274303
v 0.19206268 0.12500000 0.07703204
v 0.15711575 0.12500000 0.09949107
v 0.16408663 0.12500000 0.09797465
v 0.15000001 0.12500000 0.05000000
v 0.17077075 0.12500000 0.09548159
v 0.17703204 0.12500000 0.09206267
v 0.13591338 0.12500000 0.09797465
v 0.14288426 0.12500000 0.09949107
v 0.15000001 0.12500000 0.05000000
v 0.15000001 0.12500000 0.10000000
v 0.15711575 0.12500000 0.09949107
v 0.11725697 0.12500000 0.08778748
v 0.12296796 0.12500000 0.09206267
v 0.15000001 0.12500000 0.05000000
v 0.12922925 0.12500000 0.09548160
v 0.13591338 0.12500000 0.09797465
v 0.10451840 0.12500000 0.07077075
v 0.10793732 0.12500000 0.07703205
v 0.15000001 0.12500000 0.05000000
v 0.11221253 0.12500000 0.08274303
v 0.11725697 0.12500000 0.08778748
v 0.10000000 0.12500000 0.05000000
v 0.10050893 0.12500000 0.05711574
v 0.15000001 0.12500000 0.05000000
v 0.10202536 0.12500000 0.06408663
v 0.10451840 0.12500000 0.07077075
v 0.10451840 0.12500000 0.02922925
v 0.10202535 0.12500000 0.03591337
v 0.15000001 0.12500000 0.05000000
v 0.10050893 0.12500000 0.04288426
v 0.10000000 0.12500000 0.05000000
v 0.11725696 0.12500000 0.01221252
v 0.11221252 0.12500000 0.01725696
v 0.15000001 0.12500000 0.05000000
v 0.10793732 0.12500000 0.02296796
v 0.10451840 0.12500000 0.02922925
v 0.13591337 0.12500000 0.00202535
v 0.12922925 0.12500000 0.00451840
v 0.15000001 0.12500000 0.05000000
v 0.12296796 0.12500000 0.00793732
v 0.11725696 0.12500000 0.01221252
v 0.15711574 0.12500000 0.00050893
v 0.15000001 0.12500000 -0.00000000
v 0.15000001 0.12500000 0.05000000
v 0.14288425 0.12500000 0.00050893
v 0.13591337 0.12500000 0.00202535
v 0.17703204 0.12500000 0.00793732
v 0.17077075 0.12500000 0.00451840
v 0.15000001 0.12500000 0.05000000
v 0.16408663 0.12500000 0.00202535
v 0.15711574 0.12500000 0.00050893
v 0.19206268 0.12500000 0.02296796
v 0.18778747 0.12500000 0.01725696
v 0.15000001 0.12500000 0.05000000
v 0.18274304 0.12500000 0.01221252
v 0.17703204 0.12500000 0.00793732
v 0.19949107 0.12500000 0.04288425
v 0.19797465 0.12500000 0.03591337
v 0.15000001 0.12500000 0.05000000
v 0.19548160 0.12500000 0.02922925
v 0.19206268 0.12500000 0.02296796
v -0.19548160 -0.10500000 0.07077075
v -0.16299037 -0.10500000 0.05750000
v -0.16448888 -0.10500000 0.05388229
v -0.16500000 -0.10500000 0.05000000
v -0.19949107 -0.10500000 0.05711575
v -0.16448888 -0.10500000 0.05388229
v -0.19797465 -0.10500000 0.06408664
v -0.19548160 -0.10500000 0.07077075
v -0.13700962 -0.10500000 0.04250000
v -0.11221252 -0.10500000 0.01725696
v -0.13939340 -0.10500000 0.03939340
v -0.11725696 -0.10500000 0.01221252
v -0.14250000 -0.10500000 0.03700962
v -0.13551111 -0.10500000 0.04611772
v -0.10451840 -0.10500000 0.02922925
v -0.13700962 -0.10500000 0.04250000
v -0.10793732 -0.10500000 0.02296796
v -0.11221252 -0.10500000 0.01725696
v -0.16448888 -0.10500000 0.04611772
v -0.19949107 -0.10500000 0.04288426
v -0.16500000 -0.10500000 0.05000000
v -0.20000000 -0.10500000 0.05000000
v -0.19949107 -0.10500000 0.05711575
v -0.16299037 -0.10500000 0.04250000
v -0.19548160 -0.10500000 0.02922925
v -0.16448888 -0.10500000 0.04611772
v -0.19797465 -0.10500000 0.03591337
v -0.19949107 -0.10500000 0.04288426
v -0.13500000 -0.10500000 0.05000000
v -0.10050893 -0.10500000 0.04288426
v -0.13551111 -0.10500000 0.04611772
v -0.10202535 -0.10500000 0.03591337
v -0.10451840 -0.10500000 0.02922925
v -0.13551111 -0.10500000 0.05388229
v -0.13700962 -0.10500000 0.05750000
v -0.10451840 -0.10500000 0.07077075
v -0.14611771 -0.10500000 0.06448889
v -0.12922924 -0.10500000 0.09548160
v -0.14250000 -0.10500000 0.06299038
v -0.12296795 -0.10500000 0.09206268
v -0.13939340 -0.10500000 0.06060660
v -0.15750000 -0.10500000 0.03700962
v -0.18274304 -0.10500000 0.01221252
v -0.16060661 -0.10500000 0.03939340
v -0.18778747 -0.10500000 0.01725697
v -0.16299037 -0.10500000 0.04250000
v -0.19206267 -0.10500000 0.02296796
v -0.19548160 -0.10500000 0.02922925
v -0.15388228 -0.10500000 0.03551112
v -0.17077075 -0.10500000 0.00451840
v -0.15750000 -0.10500000 0.03700962
v -0.17703204 -0.10500000 0.00793733
v -0.18274304 -0.10500000 0.01221252
v -0.15000000 -0.10500000 0.03500000
v -0.15711574 -0.10500000 0.00050893
v -0.15388228 -0.10500000 0.03551112
v -0.16408662 -0.10500000 0.00202535
v -0.17077075 -0.10500000 0.00451840
v -0.11725696 -0.10500000 0.01221252
v -0.12296796 -0.10500000 0.00793732
v -0.14250000 -0.10500000 0.03700962
v -0.12922925 -0.10500000 0.00451840
v -0.14611772 -0.10500000 0.03551112
v -0.10451840 -0.10500000 0.07077075
v -0.10202535 -0.10500000 0.06408663
v -0.13551111 -0.10500000 0.05388229
v -0.10050893 -0.10500000 0.05711574
v -0.13500000 -0.10500000 0.05000000
v -0.10000000 -0.10500000 0.05000000
v -0.10050893 -0.10500000 0.04288426
v -0.15000000 -0.10500000 0.06500000
v -0.14288425 -0.10500000 0.09949108
v -0.14611771 -0.10500000 0.06448889
v -0.13591337 -0.10500000 0.09797465
v -0.12922924 -0.10500000 0.09548160
v -0.12922925 -0.10500000 0.00451840
v -0.13591337 -0.10500000 0.00202535
v -0.14611772 -0.10500000 0.03551112
v -0.14288425 -0.10500000 0.00050893
v -0.15000000 -0.10500000 0.03500000
v -0.15000001 -0.10500000 0.00000000
v -0.15711574 -0.10500000 0.00050893
v -0.12296795 -0.10500000 0.09206268
v -0.11725696 -0.10500000 0.08778748
v -0.13939340 -0.10500000 0.06060660
v -0.11221252 -0.10500000 0.08274303
v -0.13700962 -0.10500000 0.05750000
v -0.10793732 -0.10500000 0.07703204
v -0.10451840 -0.10500000 0.07077075
v -0.15388228 -0.10500000 0.06448889
v -0.15711574 -0.10500000 0.09949108
v -0.15000000 -0.10500000 0.06500000
v -0.15000000 -0.10500000 0.10000000
v -0.14288425 -0.10500000 0.09949108
v -0.15750000 -0.10500000 0.06299038
v -0.17077075 -0.10500000 0.09548160
v -0.15388228 -0.10500000 0.06448889
v -0.16408662 -0.10500000 0.09797465
v -0.15711574 -0.10500000 0.09949108
v -0.19548160 -0.10500000 0.07077075
v -0.19206267 -0.10500000 0.07703205
v -0.16299037 -0.10500000 0.05750000
v -0.18778747 -0.10500000 0.08274304
v -0.16060661 -0.10500000 0.06060661
v -0.18274304 -0.10500000 0.08778748
v -0.15750000 -0.10500000 0.06299038
v -0.17703203 -0.10500000 0.09206268
v -0.17077075 -0.10500000 0.09548160
v -0.10000000 -0.12500000 0.05000000
v -0.10050893 -0.12500000 0.05711574
v -0.15000000 -0.12500000 0.05000000
v -0.10000000 -0.12500000 0.05000000
v -0.15000000 -0.12500000 0.05000000
v -0.10050893 -0.12500000 0.04288426
v -0.10793732 -0.12500000 0.02296796
v -0.10451840 -0.12500000 0.02922925
v -0.15000000 -0.12500000 0.05000000
v -0.10202535 -0.12500000 0.03591337
v -0.10050893 -0.12500000 0.04288426
v -0.12296796 -0.12500000 0.00793732
v -0.11725696 -0.12500000 0.01221252
v -0.15000000 -0.12500000 0.05000000
v -0.11221252 -0.12500000 0.01725696
v -0.10793732 -0.12500000 0.02296796
v -0.14288425 -0.12500000 0.00050893
v -0.13591337 -0.12500000 0.00202535
v -0.15000000 -0.12500000 0.05000000
v -0.12922925 -0.12500000 0.00451840
v -0.12296796 -0.12500000 0.00793732
v -0.16408662 -0.12500000 0.00202535
v -0.15711574 -0.12500000 0.00050893
v -0.15000000 -0.12500000 0.05000000
v -0.15000001 -0.12500000 0.00000000
v -0.14288425 -0.12500000 0.00050893
v -0.18274304 -0.12500000 0.01221252
v -0.17703204 -0.12500000 0.00793733
v -0.15000000 -0.12500000 0.05000000
v -0.17077075 -0.12500000 0.00451840
v -0.16408662 -0.12500000 0.00202535
v -0.19548160 -0.12500000 0.02922925
v -0.19206267 -0.12500000 0.02296796
v -0.15000000 -0.12500000 0.05000000
v -0.18778747 -0.12500000 0.01725697
v -0.18274304 -0.12500000 0.01221252
v -0.20000000 -0.12500000 0.05000000
v -0.19949107 -0.12500000 0.04288426
v -0.15000000 -0.12500000 0.05000000
v -0.19797465 -0.12500000 0.03591337
v -0.19548160 -0.12500000 0.02922925
v -0.19548160 -0.12500000 0.07077075
v -0.19797465 -0.12500000 0.06408663
v -0.15000000 -0.12500000 0.05000000
v -0.19949107 -0.12500000 0.05711574
v -0.20000000 -0.12500000 0.05000000
v -0.18274304 -0.12500000 0.08778748
v -0.18778747 -0.12500000 0.08274304
v -0.15000000 -0.12500000 0.05000000
v -0.19206267 -0.12500000 0.07703205
v -0.19548160 -0.12500000 0.07077075
v -0.16408662 -0.12500000 0.09797465
v -0.17077075 -0.12500000 0.09548160
v -0.15000000 -0.12500000 0.05000000
v -0.17703203 -0.12500000 0.09206268
v -0.18274304 -0.12500000 0.08778748
v -0.14288425 -0.12500000 0.09949108
v -0.15000000 -0.12500000 0.10000000
v -0.15000000 -0.12500000 0.05000000
v -0.15711574 -0.12500000 0.09949108
v -0.16408662 -0.12500000 0.09797465
v -0.12296795 -0.12500000 0.09206267
v -0.12922924 -0.12500000 0.09548160
v -0.15000000 -0.12500000 0.05000000
v -0.13591337 -0.12500000 0.09797465
v -0.14288425 -0.12500000 0.09949108
v -0.10793732 -0.12500000 0.07703204
v -0.11221252 -0.12500000 0.08274303
v -0.15000000 -0.12500000 0.05000000
v -0.11725696 -0.12500000 0.08778748
v -0.12296795 -0.12500000 0.09206267
v -0.10050893 -0.12500000 0.05711574
v -0.10202535 -0.12500000 0.06408663
v -0.15000000 -0.12500000 0.05000000
v -0.10451840 -0.12500000 0.07077075
v -0.10793732 -0.12500000 0.07703204
v -0.13500000 0.10499999 0.05000001
v -0.13551111 0.10499999 0.04611773
v -0.10050893 0.10499999 0.04288427
v -0.13700962 0.10499999 0.04250001
v -0.10451840 0.10500000 0.02922926
v -0.13551111 0.10499999 0.04611773
v -0.10202535 0.10500000 0.03591338
v -0.10050893 0.10499999 0.04288427
v -0.13939340 0.10499999 0.03939341
v -0.11221252 0.10500000 0.01725697
v -0.13700962 0.10499999 0.04250001
v -0.10793732 0.10500000 0.02296797
v -0.10451840 0.10500000 0.02922926
v -0.14611772 0.10500000 0.03551112
v -0.12922925 0.10500000 0.00451841
v -0.14250000 0.10500000 0.03700963
v -0.12296796 0.10500000 0.00793733
v -0.13939340 0.10499999 0.03939341
v -0.11725696 0.10500000 0.01221253
v -0.11221252 0.10500000 0.01725697
v -0.15000000 0.10500000 0.03500001
v -0.14288425 0.10500000 0.00050894
v -0.14611772 0.10500000 0.03551112
v -0.13591337 0.10500000 0.00202536
v -0.12922925 0.10500000 0.00451841
v -0.10451840 0.10499999 0.07077076
v -0.13700962 0.10499999 0.05750001
v -0.13551111 0.10499999 0.05388230
v -0.10050893 0.10499999 0.04288427
v -0.10000000 0.10499999 0.05000001
v -0.13500000 0.10499999 0.05000001
v -0.10050893 0.10499999 0.05711575
v -0.13551111 0.10499999 0.05388230
v -0.10202535 0.10499999 0.06408664
v -0.10451840 0.10499999 0.07077076
v -0.15388228 0.10500000 0.03551113
v -0.15711574 0.10500000 0.00050894
v -0.15000000 0.10500000 0.03500001
v -0.15000001 0.10500000 0.00000001
v -0.14288425 0.10500000 0.00050894
v -0.15750000 0.10500000 0.03700963
v -0.17077075 0.10500000 0.00451841
v -0.15388228 0.10500000 0.03551113
v -0.16408662 0.10500000 0.00202536
v -0.15711574 0.10500000 0.00050894
v -0.16060661 0.10499999 0.03939341
v -0.18274304 0.10500000 0.01221253
v -0.15750000 0.10500000 0.03700963
v -0.17703204 0.10500000 0.00793734
v -0.17077075 0.10500000 0.00451841
v -0.16448888 0.10499999 0.05388230
v -0.16299037 0.10499999 0.05750001
v -0.19548160 0.10499999 0.07077076
v -0.15388228 0.10499999 0.06448890
v -0.17077075 0.10499999 0.09548161
v -0.15750000 0.10499999 0.06299039
v -0.17703203 0.10499999 0.09206269
v -0.16060661 0.10499999 0.06060661
v -0.16448888 0.10499999 0.04611773
v -0.19548160 0.10500000 0.02922926
v -0.16299037 0.10499999 0.04250001
v -0.19206267 0.10500000 0.02296797
v -0.16060661 0.10499999 0.03939341
v -0.18778747 0.10500000 0.01725698
v -0.18274304 0.10500000 0.01221253
v -0.16500000 0.10499999 0.05000001
v -0.19949107 0.10499999 0.04288427
v -0.16448888 0.10499999 0.04611773
v -0.19797465 0.10500000 0.03591338
v -0.19548160 0.10500000 0.02922926
v -0.19548160 0.10499999 0.07077076
v -0.19797465 0.10499999 0.06408664
v -0.16448888 0.10499999 0.05388230
v -0.19949107 0.10499999 0.05711575
v -0.16500000 0.10499999 0.05000001
v -0.20000000 0.10499999 0.05000001
v -0.19949107 0.10499999 0.04288427
v -0.15000000 0.10499999 0.06500001
v -0.15711574 0.10499999 0.09949109
v -0.15388228 0.10499999 0.06448890
v -0.16408662 0.10499999 0.09797466
v -0.17077075 0.10499999 0.09548161
v -0.17703203 0.10499999 0.09206269
v -0.18274304 0.10499999 0.08778749
v -0.16060661 0.10499999 0.06060661
v -0.18778747 0.10499999 0.08274305
v -0.16299037 0.10499999 0.05750001
v -0.19206267 0.10499999 0.07703206
v -0.19548160 0.10499999 0.07077076
v -0.14611771 0.10499999 0.06448890
v -0.14288425 0.10499999 0.09949109
v -0.15000000 0.10499999 0.06500001
v -0.15000000 0.10499999 0.10000001
v -0.15711574 0.10499999 0.09949109
v -0.14250000 0.10499999 0.06299039
v -0.12922924 0.10499999 0.09548161
v -0.14611771 0.10499999 0.06448890
v -0.13591337 0.10499999 0.09797466
v -0.14288425 0.10499999 0.09949109
v -0.10451840 0.10499999 0.07077076
v -0.10793732 0.10499999 0.07703205
v -0.13700962 0.10499999 0.05750001
v -0.11221252 0.10499999 0.08274304
v -0.13939340 0.10499999 0.06060661
v -0.11725696 0.10499999 0.08778749
v -0.14250000 0.10499999 0.06299039
v -0.12296795 0.10499999 0.09206268
v -0.12922924 0.10499999 0.09548161
v -0.10000000 0.12500000 0.05000001
v -0.10050893 0.12500000 0.04288427
v -0.15000000 0.12500000 0.05000001
v -0.10000000 0.12500000 0.05000001
v -0.15000000 0.12500000 0.05000001
v -0.10050893 0.12500000 0.05711575
v -0.10793732 0.12500000 0.07703205
v -0.10451840 0.12500000 0.07077076
v -0.15000000 0.12500000 0.05000001
v -0.10202535 0.12500000 0.06408664
v -0.10050893 0.12500000 0.05711575
v -0.12296795 0.12500000 0.09206269
v -0.11725696 0.12500000 0.08778749
v -0.15000000 0.12500000 0.05000001
v -0.11221252 0.12500000 0.08274304
v -0.10793732 0.12500000 0.07703205
v -0.14288425 0.12500000 0.09949109
v -0.13591337 0.12500000 0.09797466
v -0.15000000 0.12500000 0.05000001
v -0.12922924 0.12500000 0.09548161
v -0.12296795 0.12500000 0.09206269
v -0.16408662 0.12500000 0.09797466
v -0.15711574 0.12500000 0.09949109
v -0.15000000 0.12500000 0.05000001
v -0.15000000 0.12500000 0.10000001
v -0.14288425 0.12500000 0.09949109
v -0.18274304 0.12500000 0.08778749
v -0.17703203 0.12500000 0.09206269
v -0.15000000 0.12500000 0.05000001
v -0.17077075 0.12500000 0.09548161
v -0.16408662 0.12500000 0.09797466
v -0.19548160 0.12500000 0.07077076
v -0.19206267 0.12500000 0.07703206
v -0.15000000 0.12500000 0.05000001
v -0.18778747 0.12500000 0.08274305
v -0.18274304 0.12500000 0.08778749
v -0.20000000 0.12500000 0.05000001
v -0.19949107 0.12500000 0.05711576
v -0.15000000 0.12500000 0.05000001
v -0.19797465 0.12500000 0.06408665
v -0.19548160 0.12500000 0.07077076
v -0.19548160 0.12500000 0.02922926
v -0.19797465 0.12500000 0.03591338
v -0.15000000 0.12500000 0.05000001
v -0.19949107 0.12500000 0.04288427
v -0.20000000 0.12500000 0.05000001
v -0.18274304 0.12500000 0.01221253
v -0.18778747 0.12500000 0.01725698
v -0.15000000 0.12500000 0.05000001
v -0.19206267 0.12500000 0.02296797
v -0.19548160 0.12500000 0.02922926
v -0.16408662 0.12500000 0.00202536
v -0.17077075 0.12500000 0.00451841
v -0.15000000 0.12500000 0.05000001
v -0.17703204 0.12500000 0.00793734
v -0.18274304 0.12500000 0.01221253
v -0.14288425 0.12500000 0.00050894
v -0.15000001 0.12500000 0.00000001
v -0.15000000 0.12500000 0.05000001
v -0.15711574 0.12500000 0.00050894
v -0.16408662 0.12500000 0.00202536
v -0.12296796 0.12500000 0.00793733
v -0.12922925 0.12500000 0.00451841
v -0.15000000 0.12500000 0.05000001
v -0.13591337 0.12500000 0.00202536
v -0.14288425 0.12500000 0.00050894
v -0.10793732 0.12500000 0.02296797
v -0.11221252 0.12500000 0.01725697
v -0.15000000 0.12500000 0.05000001
v -0.11725696 0.12500000 0.01221253
v -0.12296796 0.12500000 0.00793733
v -0.10050893 0.12500000 0.04288427
v -0.10202535 0.12500000 0.03591338
v -0.15000000 0.12500000 0.05000001
v -0.10451840 0.12500000 0.02922926
v -0.10793732 0.12500000 0.02296797
vt 0.00000000 0.00000000
vt 0.00000000 0.00000000
vt 0.00000000 0.00000000
vt 0.00000000 0.00000000
vt 0.00000000 0.00000000
vt 0.00000000 0.00000000
vt 0.00000000 0.00000000
vt 0.00000000 0.00000000
vt 0.00000000 0.00000000
vt 0.00000000 0.00000000
vt 0.00000000 0.00000000
vt 0.00000000 0.00000000
vt 0.00000000 0.00000000
vt 0.00000000 0.00000000
vt 0.00000000 0.00000000
vt 0.00000000 0.00000000
vt 0.00000000 0.00000000
vt 0.00000000 0.00000000
vt 0.00000000 0.00000000
vt 0.00000000 0.00000000
vt 0.00000000 0.00000000
vt 0.00000000 0.00000000
vt 0.00000000 0.00000000
vt 0.00000000 0.00000000
vt 0.00000000 0.00000000
vt 0.00000000 0.00000000
vt 0.00000000 0.00000000
vt 0.00000000 0.00000000
vt 0.00000000 0.00000000
vt 0.00000000 0.00000000
vt 0.00000000 0.00000000
vt 0.00000000 0.00000000
vt 0.00000000 0.00000000
vt 0.00000000 0.00000000
vt 0.00000000 0.00000000
vt 0.00000000 0.00000000
vt 0.00000000 0.00000000
vt 0.00000000 0.00000000
vt 0.00000000 0.00000000
vt 0.00000000 0.00000000
vt 0.00000000 0.00000000
vt 0.00000000 0.00000000
vt 0.00000000 0.00000000
vt 0.00000000 0.00000000
vt 0.00000000 0.00000000
vt 0.00000000 0.00000000
vt 0.00000000 0.00000000
vt 0.00000000 0.00000000
vt 0.00000000 0.00000000
vt 0.00000000 0.00000000
vt 0.00000000 0.00000000
vt 0.00000000 0.00000000
vt 0.00000000 0.00000000
vt 0.00000000 0.00000000
vt 0.00000000 0.00000000
vt 0.00000000 0.00000000
vt 0.00000000 0.00000000
vt 0.00000000 0.00000000
vt 0.00000000 0.00000000
vt 0.00000000 0.00000000
vt 0.00000000 0.00000000
vt 0.00000000 0.00000000
vt 0.00000000 0.00000000
vt 0.00000000 0.00000000
vt 0.00000000 0.00000000
vt 0.00000000 0.00000000
vt 0.00000000 0.00000000
vt 0.00000000 0.00000000
vt 0.00000000 0.00000000
vt 0.00000000 0.00000000
vt 0.00000000 0.00000000
vt 0.00000000 0.00000000
vt 0.00000000 0.00000000
vt 0.00000000 0.00000000
vt 0.00000000 0.00000000
vt 0.00000000 0.00000000
vt 0.00000000 0.00000000
vt 0.00000000 0.00000000
vt 0.00000000 0.00000000
vt 0.00000000 0.00000000
vt 0.00000000 0.00000000
vt 0.00000000 0.00000000
vt 0.00000000 0.00000000
vt 0.00000000 0.00000000
vt 0.00000000 0.00000000
vt 0.00000000 0.00000000
vt 0.00000000 0.00000000
vt 0.00000000 0.00000000
vt 0.00000000 0.00000000
vt 0.00000000 0.00000000
vt 0.00000000 0.00000000
vt 0.00000000 0.00000000
vt 0.00000000 0.00000000
vt 0.00000000 0.00000000
vt 0.00000000 0.00000000
vt 0.00000000 0.00000000
vt 0.00000000 0.00000000
vt 0.00000000 0.00000000
vt 0.00000000 0.00000000
vt 0.00000000 0.00000000
vt 0.00000000 0.00000000
vt 0.00000000 0.00000000
vt 0.00000000 0.00000000
vt 0.00000000 0.00000000
vt 0.00000000 0.00000000
vt 0.00000000 0.00000000
vt 0.00000000 0.00000000
vt 0.00000000 0.00000000
vt 0.00000000 0.00000000
vt 0.00000000 0.00000000
vt 0.00000000 0.00000000
vt 0.00000000 0.00000000
vt 0.00000000 0.00000000
vt 0.00000000 0.00000000
vt 0.00000000 0.00000000
vt 0.00000000 0.00000000
vt 0.00000000 0.00000000
vt 0.00000000 0.00000000
vt 0.00000000 0.00000000
vt 0.00000000 0.00000000
vt 0.00000000 0.00000000
vt 0.00000000 0.00000000
vt 0.00000000 0.00000000
vt 0.00000000 0.00000000
vt 0.00000000 0.00000000
vt 0.00000000 0.00000000
vt 0.00000000 0.00000000
vt 0.00000000 0.00000000
vt 0.00000000 0.00000000
vt 0.00000000 0.00000000
vt 0.00000000 0.00000000
vt 0.00000000 0.00000000
vt 0.00000000 0.00000000
vt 0.00000000 0.00000000
vt 0.00000000 0.00000000
vt 0.00000000 0.00000000
vt 0.00000000 0.00000000
vt 0.00000000 0.00000000
vt 0.00000000 0.00000000
vt 0.00000000 0.00000000
vt 0.00000000 0.00000000
vt 0.00000000 0.00000000
vt 0.00000000 0.00000000
vt 0.00000000 0.00000000
vt 0.00000000 0.00000000
vt 0.00000000 0.00000000
vt 0.00000000 0.00000000
vt 0.00000000 0.00000000
vt 0.00000000 0.00000000
vt 0.00000000 0.00000000
vt 0.00000000 0.00000000
vt 0.00000000 0.00000000
vt 0.00000000 0.00000000
vt 0.00000000 0.00000000
vt 0.00000000 0.00000000
vt 0.00000000 0.00000000
vt 0.00000000 0.00000000
vt 0.00000000 0.00000000
vt 0.00000000 0.00000000
vt 0.00000000 0.00000000
vt 0.00000000 0.00000000
vt 0.00000000 0.00000000
vt 0.00000000 0.00000000
vt 0.00000000 0.00000000
vt 0.00000000 0.00000000
vt 0.00000000 0.00000000
vt 0.00000000 0.00000000
vt 0.00000000 0.00000000
vt 0.00000000 0.00000000
vt 0.00000000 0.00000000
vt 0.00000000 0.00000000
vt 0.00000000 0.00000000
vt 0.00000000 0.00000000
vt 0.00000000 0.00000000
vt 0.00000000 0.00000000
vt 0.00000000 0.00000000
vt 0.00000000 0.00000000
vt 0.00000000 0.00000000
vt 0.00000000 0.00000000
vt 0.00000000 0.00000000
vt 0.00000000 0.00000000
vt 0.00000000 0.00000000
vt 0.00000000 0.00000000
vt 0.00000000 0.00000000
vt 0.00000000 0.00000000
vt 0.00000000 0.00000000
vt 0.00000000 0.00000000
vt 0.00000000 0.00000000
vt 0.00000000 0.00000000
vt 0.00000000 0.00000000
vt 0.00000000 0.00000000
vt 0.00000000 0.00000000
vt 0.00000000 0.00000000
vt 0.00000000 0.00000000
vt 0.00000000 0.00000000
vt 0.00000000 0.00000000
vt 0.00000000 0.00000000
vt 0.00000000 0.00000000
vt 0.00000000 0.00000000
vt 0.00000000 0.00000000
vt 0.00000000 0.00000000
vt 0.00000000 0.00000000
vt 0.00000000 0.00000000
vt 0.00000000 0.00000000
vt 0.00000000 0.00000000
vt 0.00000000 0.00000000
vt 0.00000000 0.00000000
vt 0.00000000 0.00000000
vt 0.00000000 0.00000000
vt 0.00000000 0.00000000
vt 0.00000000 0.00000000
vt 0.00000000 0.00000000
vt 0.00000000 0.00000000
vt 0.00000000 0.00000000
vt 0.00000000 0.00000000
vt 0.00000000 0.00000000
vt 0.00000000 0.00000000
vt 0.00000000 0.00000000
vt 0.00000000 0.00000000
vt 0.00000000 0.00000000
vt 0.00000000 0.00000000
vt 0.00000000 0.00000000
vt 0.00000000 0.00000000
vt 0.00000000 0.00000000
vt 0.00000000 0.00000000
vt 0.00000000 0.00000000
vt 0.00000000 0.00000000
vt 0.00000000 0.00000000
vt 0.00000000 0.00000000
vt 0.00000000 0.00000000
vt 0.00000000 0.00000000
vt 0.00000000 0.00000000
vt 0.00000000 0.00000000
vt 0.00000000 0.00000000
vt 0.00000000 0.00000000
vt 0.00000000 0.00000000
vt 0.00000000 0.00000000
vt 0.00000000 0.00000000
vt 0.00000000 0.00000000
vt 0.00000000 0.00000000
vt 0.00000000 0.00000000
vt 0.00000000 0.00000000
vt 0.00000000 0.00000000
vt 0.00000000 0.00000000
vt 0.00000000 0.00000000
vt 0.00000000 0.00000000
vt 0.00000000 0.00000000
vt 0.00000000 0.00000000
vt 0.00000000 0.00000000
vt 0.00000000 0.00000000
vt 0.00000000 0.00000000
vt 0.00000000 0.00000000
vt 0.00000000 0.00000000
vt 0.00000000 0.00000000
vt 0.00000000 0.00000000
vt 0.00000000 0.00000000
vt 0.00000000 0.00000000
vt 0.00000000 0.00000000
vt 0.00000000 0.00000000
vt 0.00000000 0.00000000
vt 0.00000000 0.00000000
vt 0.00000000 0.00000000
vt 0.00000000 0.00000000
vt 0.00000000 0.00000000
vt 0.00000000 0.00000000
vt 0.00000000 0.00000000
vt 0.00000000 0.00000000
vt 0.00000000 0.00000000
vt 0.00000000 0.00000000
vt 0.00000000 0.00000000
vt 0.00000000 0.00000000
vt 0.00000000 0.00000000
vt 0.00000000 0.00000000
vt 0.00000000 0.00000000
vt 0.00000000 0.00000000
vt 0.00000000 0.00000000
vt 0.00000000 0.00000000
vt 0.00000000 0.00000000
vt 0.00000000 0.00000000
vt 0.00000000 0.00000000
vt 0.00000000 0.00000000
vt 0.00000000 0.00000000
vt 0.00000000 0.00000000
vt 0.00000000 0.00000000
vt 0.00000000 0.00000000
vt 0.00000000 0.00000000
vt 0.00000000 0.00000000
vt 0.00000000 0.00000000
vt 0.00000000 0.00000000
vt 0.00000000 0.00000000
vt 0.00000000 0.00000000
vt 0.00000000 0.00000000
vt 0.00000000 0.00000000
vt 0.00000000 0.00000000
vt 0.00000000 0.00000000
vt 0.00000000 0.00000000
vt 0.00000000 0.00000000
vt 0.00000000 0.00000000
vt 0.00000000 0.00000000
vt 0.00000000 0.00000000
vt 0.00000000 0.00000000
vt 0.00000000 0.00000000
vt 0.00000000 0.00000000
vt 0.00000000 0.00000000
vt 0.00000000 0.00000000
vt 0.00000000 0.00000000
vt 0.00000000 0.00000000
vt 0.00000000 0.00000000
vt 0.00000000 0.00000000
vt 0.00000000 0.00000000
vt 0.00000000 0.00000000
vt 0.00000000 0.00000000
vt 0.00000000 0.00000000
vt 0.00000000 0.00000000
vt 0.00000000 0.00000000
vt 0.00000000 0.00000000
vt 0.00000000 0.00000000
vt 0.00000000 0.00000000
vt 0.00000000 0.00000000
vt 0.00000000 0.00000000
vt 0.00000000 0.00000000
vt 0.00000000 0.00000000
vt 0.00000000 0.00000000
vt 0.00000000 0.00000000
vt 0.00000000 0.00000000
vt 0.00000000 0.00000000
vt 0.00000000 0.00000000
vt 0.00000000 0.00000000
vt 0.00000000 0.00000000
vt 0.00000000 0.00000000
vt 0.00000000 0.00000000
vt 0.00000000 0.00000000
vt 0.00000000 0.00000000
vt 0.00000000 0.00000000
vt 0.00000000 0.00000000
vt 0.00000000 0.00000000
vt 0.00000000 0.00000000
vt 0.00000000 0.00000000
vt 0.00000000 0.00000000
vt 0.00000000 0.00000000
vt 0.00000000 0.00000000
vt 0.00000000 0.00000000
vt 0.00000000 0.00000000
vt 0.00000000 0.00000000
vt 0.00000000 0.00000000
vt 0.00000000 0.00000000
vt 0.00000000 0.00000000
vt 0.00000000 0.00000000
vt 0.00000000 0.00000000
vt 0.00000000 0.00000000
vt 0.00000000 0.00000000
vt 0.00000000 0.00000000
vt 0.00000000 0.00000000
vt 0.00000000 0.00000000
vt 0.00000000 0.00000000
vt 0.00000000 0.00000000
vt 0.00000000 0.00000000
vt 0.00000000 0.00000000
vt 0.00000000 0.00000000
vt 0.00000000 0.00000000
vt 0.00000000 0.00000000
vt 0.00000000 0.00000000
vt 0.00000000 0.00000000
vt 0.00000000 0.00000000
vt 0.00000000 0.00000000
vt 0.00000000 0.00000000
vt 0.00000000 0.00000000
vt 0.00000000 0.00000000
vt 0.00000000 0.00000000
vt 0.00000000 0.00000000
vt 0.00000000 0.00000000
vt 0.00000000 0.00000000
vt 0.00000000 0.00000000
vt 0.00000000 0.00000000
vt 0.00000000 0.00000000
vt 0.00000000 0.00000000
vt 0.00000000 0.00000000
vt 0.00000000 0.00000000
vt 0.00000000 0.00000000
vt 0.00000000 0.00000000
vt 0.00000000 0.00000000
vt 0.00000000 0.00000000
vt 0.00000000 0.00000000
vt 0.00000000 0.00000000
vt 0.00000000 0.00000000
vt 0.00000000 0.00000000
vt 0.00000000 0.00000000
vt 0.00000000 0.00000000
vt 0.00000000 0.00000000
vt 0.00000000 0.00000000
vt 0.00000000 0.00000000
vt 0.00000000 0.00000000
vt 0.00000000 0.00000000
vt 0.00000000 0.00000000
vt 0.00000000 0.00000000
vt 0.00000000 0.00000000
vt 0.00000000 0.00000000
vt 0.00000000 0.00000000
vt 0.00000000 0.00000000
vt 0.00000000 0.00000000
vt 0.00000000 0.00000000
vt 0.00000000 0.00000000
vt 0.00000000 0.00000000
vt 0.00000000 0.00000000
vt 0.00000000 0.00000000
vt 0.00000000 0.00000000
vt 0.00000000 0.00000000
vt 0.00000000 0.00000000
vt 0.00000000 0.00000000
vt 0.00000000 0.00000000
vt 0.00000000 0.00000000
vt 0.00000000 0.00000000
vt 0.00000000 0.00000000
vt 0.00000000 0.00000000
vt 0.00000000 0.00000000
vt 0.00000000 0.00000000
vt 0.00000000 0.00000000
vt 0.00000000 0.00000000
vt 0.00000000 0.00000000
vt 0.00000000 0.00000000
vt 0.00000000 0.00000000
vt 0.00000000 0.00000000
vt 0.00000000 0.00000000
vt 0.00000000 0.00000000
vt 0.00000000 0.00000000
vt 0.00000000 0.00000000
vt 0.00000000 0.00000000
vt 0.00000000 0.00000000
vt 0.00000000 0.00000000
vt 0.00000000 0.00000000
vt 0.00000000 0.00000000
vt 0.00000000 0.00000000
vt 0.00000000 0.00000000
vt 0.00000000 0.00000000
vt 0.00000000 0.00000000
vt 0.00000000 0.00000000
vt 0.00000000 0.00000000
vt 0.00000000 0.00000000
vt 0.00000000 0.00000000
vt 0.00000000 0.00000000
vt 0.00000000 0.00000000
vt 0.00000000 0.00000000
vt 0.00000000 0.00000000
vt 0.00000000 0.00000000
vt 0.00000000 0.00000000
vt 0.00000000 0.00000000
vt 0.00000000 0.00000000
vt 0.00000000 0.00000000
vt 0.00000000 0.00000000
vt 0.00000000 0.00000000
vt 0.00000000 0.00000000
vt 0.00000000 0.00000000
vt 0.00000000 0.00000000
vt 0.00000000 0.00000000
vt 0.00000000 0.00000000
vt 0.00000000 0.00000000
vt 0.00000000 0.00000000
vt 0.00000000 0.00000000
vt 0.00000000 0.00000000
vt 0.00000000 0.00000000
vt 0.00000000 0.00000000
vt 0.00000000 0.00000000
vt 0.00000000 0.00000000
vt 0.00000000 0.00000000
vt 0.00000000 0.00000000
vt 0.00000000 0.00000000
vt 0.00000000 0.00000000
vt 0.00000000 0.00000000
vt 0.00000000 0.00000000
vt 0.00000000 0.00000000
vt 0.00000000 0.00000000
vt 0.00000000 0.00000000
vt 0.00000000 0.00000000
vt 0.00000000 0.00000000
vt 0.00000000 0.00000000
vt 0.00000000 0.00000000
vt 0.00000000 0.00000000
vt 0.00000000 0.00000000
vt 0.00000000 0.00000000
vt 0.00000000 0.00000000
vt 0.00000000 0.00000000
vt 0.00000000 0.00000000
vt 0.00000000 0.00000000
vt 0.00000000 0.00000000
vt 0.00000000 0.00000000
vt 0.00000000 0.00000000
vt 0.00000000 0.00000000
vt 0.00000000 0.00000000
vt 0.00000000 0.00000000
vt 0.00000000 0.00000000
vt 0.00000000 0.00000000
vt 0.00000000 0.00000000
vt 0.00000000 0.00000000
vt 0.00000000 0.00000000
vt 0.00000000 0.00000000
vt 0.00000000 0.00000000
vt 0.00000000 0.00000000
vt 0.00000000 0.00000000
vt 0.00000000 0.00000000
vt 0.00000000 0.00000000
vt 0.00000000 0.00000000
vt 0.00000000 0.00000000
vt 0.00000000 0.00000000
vt 0.00000000 0.00000000
vt 0.00000000 0.00000000
vt 0.00000000 0.00000000
vt 0.00000000 0.00000000
vt 0.00000000 0.00000000
vt 0.00000000 0.00000000
vt 0.00000000 0.00000000
vt 0.00000000 0.00000000
vt 0.00000000 0.00000000
vt 0.00000000 0.00000000
vt 0.00000000 0.00000000
vt 0.00000000 0.00000000
vt 0.00000000 0.00000000
vt 0.00000000 0.00000000
vt 0.00000000 0.00000000
vt 0.00000000 0.00000000
vt 0.00000000 0.00000000
vt 0.00000000 0.00000000
vt 0.00000000 0.00000000
vt 0.00000000 0.00000000
vt 0.00000000 0.00000000
vt 0.00000000 0.00000000
vt 0.00000000 0.00000000
vt 0.00000000 0.00000000
vt 0.00000000 0.00000000
vt 0.00000000 0.00000000
vt 0.00000000 0.00000000
vt 0.00000000 0.00000000
vt 0.00000000 0.00000000
vt 0.00000000 0.00000000
vt 0.00000000 0.00000000
vt 0.00000000 0.00000000
vt 0.00000000 0.00000000
vt 0.00000000 0.00000000
vt 0.00000000 0.00000000
vt 0.00000000 0.00000000
vt 0.00000000 0.00000000
vt 0.00000000 0.00000000
vt 0.00000000 0.00000000
vt 0.00000000 0.00000000
vt 0.00000000 0.00000000
vt 0.00000000 0.00000000
vt 0.00000000 0.00000000
vt 0.00000000 0.00000000
vt 0.00000000 0.00000000
vt 0.00000000 0.00000000
vt 0.00000000 0.00000000
vt 0.00000000 0.00000000
vt 0.00000000 0.00000000
vt 0.00000000 0.00000000
vt 0.00000000 0.00000000
vt 0.00000000 0.00000000
vt 0.00000000 0.00000000
vt 0.00000000 0.00000000
vt 0.00000000 0.00000000
vt 0.00000000 0.00000000
vt 0.00000000 0.00000000
vt 0.00000000 0.00000000
vt 0.00000000 0.00000000
vt 0.00000000 0.00000000
vt 0.00000000 0.00000000
vt 0.00000000 0.00000000
vt 0.00000000 0.00000000
vt 0.00000000 0.00000000
vt 0.00000000 0.00000000
vt 0.00000000 0.00000000
vt 0.00000000 0.00000000
vt 0.00000000 0.00000000
vt 0.00000000 0.00000000
vt 0.00000000 0.00000000
vt 0.00000000 0.00000000
vt 0.00000000 0.00000000
vt 0.00000000 0.00000000
vt 0.00000000 0.00000000
vt 0.00000000 0.00000000
vt 0.00000000 0.00000000
vt 0.00000000 0.00000000
vt 0.00000000 0.00000000
vt 0.00000000 0.00000000
vt 0.00000000 0.00000000
vt 0.00000000 0.00000000
vt 0.00000000 0.00000000
vt 0.00000000 0.00000000
vt 0.00000000 0.00000000
vt 0.00000000 0.00000000
vt 0.00000000 0.00000000
vt 0.00000000 0.00000000
vt 0.00000000 0.00000000
vt 0.00000000 0.00000000
vt 0.00000000 0.00000000
vt 0.00000000 0.00000000
vt 0.00000000 0.00000000
vt 0.00000000 0.00000000
vt 0.00000000 0.00000000
vt 0.00000000 0.00000000
vt 0.00000000 0.00000000
vt 0.00000000 0.00000000
vt 0.00000000 0.00000000
vt 0.00000000 0.00000000
vt 0.00000000 0.00000000
vt 0.00000000 0.00000000
vt 0.00000000 0.00000000
vt 0.00000000 0.00000000
vt 0.00000000 0.00000000
vt 0.00000000 0.00000000
vt 0.00000000 0.00000000
vt 0.00000000 0.00000000
vt 0.00000000 0.00000000
vt 0.00000000 0.00000000
vt 0.00000000 0.00000000
vt 0.00000000 0.00000000
vt 0.00000000 0.00000000
vt 0.00000000 0.00000000
vt 0.00000000 0.00000000
vt 0.00000000 0.00000000
vt 0.00000000 0.00000000
vt 0.00000000 0.00000000
vt 0.00000000 0.00000000
vt 0.00000000 0.00000000
vt 0.00000000 0.00000000
vt 0.00000000 0.00000000
vt 0.00000000 0.00000000
vt 0.00000000 0.00000000
vt 0.00000000 0.00000000
vt 0.00000000 0.00000000
vt 0.00000000 0.00000000
vt 0.00000000 0.00000000
vt 0.00000000 0.00000000
vt 0.00000000 0.00000000
vt 0.00000000 0.00000000
vt 0.00000000 0.00000000
vt 0.00000000 0.00000000
vt 0.00000000 0.00000000
vt 0.00000000 0.00000000
vt 0.00000000 0.00000000
vt 0.00000000 0.00000000
vt 0.00000000 0.00000000
vt 0.00000000 0.00000000
vt 0.00000000 0.00000000
vt 0.00000000 0.00000000
vt 0.00000000 0.00000000
vt 0.00000000 0.00000000
vt 0.00000000 0.00000000
vt 0.00000000 0.00000000
vt 0.00000000 0.00000000
vt 0.00000000 0.00000000
vt 0.00000000 0.00000000
vt 0.00000000 0.00000000
vt 0.00000000 0.00000000
vt 0.00000000 0.00000000
vt 0.00000000 0.00000000
vt 0.00000000 0.00000000
vt 0.00000000 0.00000000
vt 0.00000000 0.00000000
vt 0.00000000 0.00000000
vt 0.00000000 0.00000000
vt 0.00000000 0.00000000
vt 0.00000000 0.00000000
vt 0.00000000 0.00000000
vt 0.00000000 0.00000000
vt 0.00000000 0.00000000
vt 0.00000000 0.00000000
vt 0.00000000 0.00000000
vt 0.00000000 0.00000000
vt 0.00000000 0.00000000
vt 0.00000000 0.00000000
vt 0.00000000 0.00000000
vt 0.00000000 0.00000000
vt 0.00000000 0.00000000
vt 0.00000000 0.00000000
vt 0.00000000 0.00000000
vt 0.00000000 0.00000000
vt 0.00000000 0.00000000
vt 0.00000000 0.00000000
vt 0.00000000 0.00000000
vt 0.00000000 0.00000000
vt 0.00000000 0.00000000
vt 0.00000000 0.00000000
vt 0.00000000 0.00000000
vt 0.00000000 0.00000000
vt 0.00000000 0.00000000
vt 0.00000000 0.00000000
vt 0.00000000 0.00000000
vt 0.00000000 0.00000000
vt 0.00000000 0.00000000
vt 0.00000000 0.00000000
vt 0.00000000 0.00000000
vt 0.00000000 0.00000000
vt 0.00000000 0.00000000
vt 0.00000000 0.00000000
vt 0.00000000 0.00000000
vt 0.00000000 0.00000000
vt 0.00000000 0.00000000
vt 0.00000000 0.00000000
vt 0.00000000 0.00000000
vt 0.00000000 0.00000000
vt 0.00000000 0.00000000
vt 0.00000000 0.00000000
vt 0.00000000 0.00000000
vt 0.00000000 0.00000000
vt 0.00000000 0.00000000
vt 0.00000000 0.00000000
vt 0.00000000 0.00000000
vt 0.00000000 0.00000000
vt 0.00000000 0.00000000
vt 0.00000000 0.00000000
vt 0.00000000 0.00000000
vt 0.00000000 0.00000000
vt 0.00000000 0.00000000
vt 0.00000000 0.00000000
vt 0.00000000 0.00000000
vt 0.00000000 0.00000000
vt 0.00000000 0.00000000
vt 0.00000000 0.00000000
vt 0.00000000 0.00000000
vt 0.00000000 0.00000000
vt 0.00000000 0.00000000
vt 0.00000000 0.00000000
vt 0.00000000 0.00000000
vt 0.00000000 0.00000000
vt 0.00000000 0.00000000
vt 0.00000000 0.00000000
vt 0.00000000 0.00000000
vt 0.00000000 0.00000000
vt 0.00000000 0.00000000
vt 0.00000000 0.00000000
vt 0.00000000 0.00000000
vt 0.00000000 0.00000000
vt 0.00000000 0.00000000
vt 0.00000000 0.00000000
vt 0.00000000 0.00000000
vt 0.00000000 0.00000000
vt 0.00000000 0.00000000
f 1/1 2/2 3/3
f 4/4 5/5 6/6
f 6/6 5/5 7/7
f 6/6 7/7 8/8
f 9/9 10/10 11/11
f 11/11 10/10 12/12
f 11/11 12/12 13/13
f 14/14 15/15 16/16
f 16/16 15/15 17/17
f 16/16 17/17 18/18
f 19/19 20/20 21/21
f 21/21 20/20 22/22
f 21/21 22/22 23/23
f 24/24 25/25 26/26
f 26/26 25/25 27/27
f 26/26 27/27 28/28
f 29/29 30/30 31/31
f 31/31 30/30 32/32
f 31/31 32/32 33/33
f 34/34 35/35 36/36
f 37/37 38/38 39/39
f 39/39 38/38 40/40
f 39/39 40/40 41/41
f 42/42 43/43 44/44
f 44/44 43/43 45/45
f 44/44 45/45 46/46
f 46/46 45/45 47/47
f 46/46 47/47 48/48
f 49/49 50/50 51/51
f 51/51 50/50 52/52
f 51/51 52/52 53/53
f 54/54 55/55 56/56
f 56/56 55/55 57/57
f 56/56 57/57 58/58
f 59/59 60/60 61/61
f 61/61 60/60 62/62
f 61/61 62/62 63/63
f 64/64 65/65 66/66
f 66/66 65/65 67/67
f 66/66 67/67 68/68
f 68/68 67/67 69/69
f 68/68 69/69 70/70
f 71/71 72/72 73/73
f 73/73 72/72 74/74
f 73/73 74/74 75/75
f 76/76 77/77 78/78
f 78/78 77/77 79/79
f 78/78 79/79 80/80
f 80/80 79/79 81/81
f 80/80 81/81 82/82
f 83/83 84/84 85/85
f 85/85 84/84 86/86
f 85/85 86/86 87/87
f 87/87 86/86 88/88
f 87/87 88/88 89/89
f 90/90 91/91 92/92
f 92/92 91/91 93/93
f 92/92 93/93 94/94
f 95/95 96/96 97/97
f 97/97 96/96 98/98
f 97/97 98/98 99/99
f 100/100 101/101 102/102
f 102/102 101/101 103/103
f 102/102 103/103 104/104
f 104/104 103/103 105/105
f 104/104 105/105 106/106
f 106/106 105/105 107/107
f 106/106 107/107 108/108
f 109/109 110/110 111/111
f 112/112 113/113 114/114
f 115/115 116/116 117/117
f 117/117 116/116 118/118
f 117/117 118/118 119/119
f 120/120 121/121 122/122
f 122/122 121/121 123/123
f 122/122 123/123 124/124
f 125/125 126/126 127/127
f 127/127 126/126 128/128
f 127/127 128/128 129/129
f 130/130 131/131 132/132
f 132/132 131/131 133/133
f 132/132 133/133 134/134
f 135/135 136/136 137/137
f 137/137 136/136 138/138
f 137/137 138/138 139/139
f 140/140 141/141 142/142
f 142/142 141/141 143/143
f 142/142 143/143 144/144
f 145/145 146/146 147/147
f 147/147 146/146 148/148
f 147/147 148/148 149/149
f 150/150 151/151 152/152
f 152/152 151/151 153/153
f 152/152 153/153 154/154
f 155/155 156/156 157/157
f 157/157 156/156 158/158
f 157/157 158/158 159/159
f 160/160 161/161 162/162
f 162/162 161/161 163/163
f 162/162 163/163 164/164
f 165/165 166/166 167/167
f 167/167 166/166 168/168
f 167/167 168/168 169/169
f 170/170 171/171 172/172
f 172/172 171/171 173/173
f 172/172 173/173 174/174
f 175/175 176/176 177/177
f 177/177 176/176 178/178
f 177/177 178/178 179/179
f 180/180 181/181 182/182
f 182/182 181/181 183/183
f 182/182 183/183 184/184
f 185/185 186/186 187/187
f 188/188 189/189 190/190
f 190/190 189/189 191/191
f 190/190 191/191 192/192
f 193/193 194/194 195/195
f 195/195 194/194 196/196
f 195/195 196/196 197/197
f 197/197 196/196 198/198
f 197/197 198/198 199/199
f 200/200 201/201 202/202
f 202/202 201/201 203/203
f 202/202 203/203 204/204
f 205/205 206/206 207/207
f 207/207 206/206 208/208
f 207/207 208/208 209/209
f 210/210 211/211 212/212
f 213/213 214/214 215/215
f 215/215 214/214 216/216
f 215/215 216/216 217/217
f 217/217 216/216 218/218
f 217/217 218/218 219/219
f 220/220 221/221 222/222
f 222/222 221/221 223/223
f 222/222 223/223 224/224
f 225/225 226/226 227/227
f 227/227 226/226 228/228
f 227/227 228/228 229/229
f 230/230 231/231 232/232
f 232/232 231/231 233/233
f 232/232 233/233 234/234
f 235/235 236/236 237/237
f 238/238 239/239 240/240
f 240/240 239/239 241/241
f 240/240 241/241 242/242
f 243/243 244/244 245/245
f 245/245 244/244 246/246
f 245/245 246/246 247/247
f 247/247 246/246 248/248
f 247/247 248/248 249/249
f 250/250 251/251 252/252
f 252/252 251/251 253/253
f 252/252 253/253 254/254
f 255/255 256/256 257/257
f 257/257 256/256 258/258
f 257/257 258/258 259/259
f 259/259 258/258 260/260
f 259/259 260/260 261/261
f 262/262 263/263 264/264
f 264/264 263/263 265/265
f 264/264 265/265 266/266
f 267/267 268/268 269/269
f 269/269 268/268 270/270
f 269/269 270/270 271/271
f 271/271 270/270 272/272
f 271/271 272/272 273/273
f 274/274 275/275 276/276
f 276/276 275/275 277/277
f 276/276 277/277 278/278
f 279/279 280/280 281/281
f 281/281 280/280 282/282
f 281/281 282/282 283/283
f 284/284 285/285 286/286
f 286/286 285/285 287/287
f 286/286 287/287 288/288
f 288/288 287/287 289/289
f 288/288 289/289 290/290
f 290/290 289/289 291/291
f 290/290 291/291 292/292
f 293/293 294/294 295/295
f 296/296 297/297 298/298
f 299/299 300/300 301/301
f 301/301 300/300 302/302
f 301/301 302/302 303/303
f 304/304 305/305 306/306
f 306/306 305/305 307/307
f 306/306 307/307 308/308
f 309/309 310/310 311/311
f 311/311 310/310 312/312
f 311/311 312/312 313/313
f 314/314 315/315 316/316
f 316/316 315/315 317/317
f 316/316 317/317 318/318
f 319/319 320/320 321/321
f 321/321 320/320 322/322
f 321/321 322/322 323/323
f 324/324 325/325 326/326
f 326/326 325/325 327/327
f 326/326 327/327 328/328
f 329/329 330/330 331/331
f 331/331 330/330 332/332
f 331/331 332/332 333/333
f 334/334 335/335 336/336
f 336/336 335/335 337/337
f 336/336 337/337 338/338
f 339/339 340/340 341/341
f 341/341 340/340 342/342
f 341/341 342/342 343/343
f 344/344 345/345 346/346
f 346/346 345/345 347/347
f 346/346 347/347 348/348
f 349/349 350/350 351/351
f 351/351 350/350 352/352
f 351/351 352/352 353/353
f 354/354 355/355 356/356
f 356/356 355/355 357/357
f 356/356 357/357 358/358
f 359/359 360/360 361/361
f 361/361 360/360 362/362
f 361/361 362/362 363/363
f 364/364 365/365 366/366
f 366/366 365/365 367/367
f 366/366 367/367 368/368
f 369/369 370/370 371/371
f 372/372 373/373 374/374
f 374/374 373/373 375/375
f 374/374 375/375 376/376
f 377/377 378/378 379/379
f 379/379 378/378 380/380
f 379/379 380/380 381/381
f 382/382 383/383 384/384
f 384/384 383/383 385/385
f 384/384 385/385 386/386
f 387/387 388/388 389/389
f 389/389 388/388 390/390
f 389/389 390/390 391/391
f 392/392 393/393 394/394
f 394/394 393/393 395/395
f 394/394 395/395 396/396
f 397/397 398/398 399/399
f 399/399 398/398 400/400
f 399/399 400/400 401/401
f 402/402 403/403 404/404
f 405/405 406/406 407/407
f 407/407 406/406 408/408
f 407/407 408/408 409/409
f 410/410 411/411 412/412
f 412/412 411/411 413/413
f 412/412 413/413 414/414
f 414/414 413/413 415/415
f 414/414 415/415 416/416
f 417/417 418/418 419/419
f 419/419 418/418 420/420
f 419/419 420/420 421/421
f 422/422 423/423 424/424
f 424/424 423/423 425/425
f 424/424 425/425 426/426
f 427/427 428/428 429/429
f 429/429 428/428 430/430
f 429/429 430/430 431/431
f 432/432 433/433 434/434
f 434/434 433/433 435/435
f 434/434 435/435 436/436
f 436/436 435/435 437/437
f 436/436 437/437 438/438
f 439/439 440/440 441/441
f 441/441 440/440 442/442
f 441/441 442/442 443/443
f 444/444 445/445 446/446
f 446/446 445/445 447/447
f 446/446 447/447 448/448
f 448/448 447/447 449/449
f 448/448 449/449 450/450
f 451/451 452/452 453/453
f 453/453 452/452 454/454
f 453/453 454/454 455/455
f 455/455 454/454 456/456
f 455/455 456/456 457/457
f 458/458 459/459 460/460
f 460/460 459/459 461/461
f 460/460 461/461 462/462
f 463/463 464/464 465/465
f 465/465 464/464 466/466
f 465/465 466/466 467/467
f 468/468 469/469 470/470
f 470/470 469/469 471/471
f 470/470 471/471 472/472
f 472/472 471/471 473/473
f 472/472 473/473 474/474
f 474/474 473/473 475/475
f 474/474 475/475 476/476
f 477/477 478/478 479/479
f 480/480 481/481 482/482
f 483/483 484/484 485/485
f 485/485 484/484 486/486
f 485/485 486/486 487/487
f 488/488 489/489 490/490
f 490/490 489/489 491/491
f 490/490 491/491 492/492
f 493/493 494/494 495/495
f 495/495 494/494 496/496
f 495/495 496/496 497/497
f 498/498 499/499 500/500
f 500/500 499/499 501/501
f 500/500 501/501 502/502
f 503/503 504/504 505/505
f 505/505 504/504 506/506
f 505/505 506/506 507/507
f 508/508 509/509 510/510
f 510/510 509/509 511/511
f 510/510 511/511 512/512
f 513/513 514/514 515/515
f 515/515 514/514 516/516
f 515/515 516/516 517/517
f 518/518 519/519 520/520
f 520/520 519/519 521/521
f 520/520 521/521 522/522
f 523/523 524/524 525/525
f 525/525 524/524 526/526
f 525/525 526/526 527/527
f 528/528 529/529 530/530
f 530/530 529/529 531/531
f 530/530 531/531 532/532
f 533/533 534/534 535/535
f 535/535 534/534 536/536
f 535/535 536/536 537/537
f 538/538 539/539 540/540
f 540/540 539/539 541/541
f 540/540 541/541 542/542
f 543/543 544/544 545/545
f 545/545 544/544 546/546
f 545/545 546/546 547/547
f 548/548 549/549 550/550
f 550/550 549/549 551/551
f 550/550 551/551 552/552
f 553/553 554/554 555/555
f 556/556 557/557 558/558
f 558/558 557/557 559/559
f 558/558 559/559 560/560
f 561/561 562/562 563/563
f 563/563 562/562 564/564
f 563/563 564/564 565/565
f 566/566 567/567 568/568
f 568/568 567/567 569/569
f 568/568 569/569 570/570
f 570/570 569/569 571/571
f 570/570 571/571 572/572
f 573/573 574/574 575/575
f 575/575 574/574 576/576
f 575/575 576/576 577/577
f 578/578 579/579 580/580
f 581/581 582/582 583/583
f 583/583 582/582 584/584
f 583/583 584/584 585/585
f 585/585 584/584 586/586
f 585/585 586/586 587/587
f 588/588 589/589 590/590
f 590/590 589/589 591/591
f 590/590 591/591 592/592
f 593/593 594/594 595/595
f 595/595 594/594 596/596
f 595/595 596/596 597/597
f 598/598 599/599 600/600
f 600/600 599/599 601/601
f 600/600 601/601 602/602
f 603/603 604/604 605/605
f 606/606 607/607 608/608
f 608/608 607/607 609/609
f 608/608 609/609 610/610
f 611/611 612/612 613/613
f 613/613 612/612 614/614
f 613/613 614/614 615/615
f 615/615 614/614 616/616
f 615/615 616/616 617/617
f 618/618 619/619 620/620
f 620/620 619/619 621/621
f 620/620 621/621 622/622
f 623/623 624/624 625/625
f 625/625 624/624 626/626
f 625/625 626/626 627/627
f 627/627 626/626 628/628
f 627/627 628/628 629/629
f 630/630 631/631 632/632
f 632/632 631/631 633/633
f 632/632 633/633 634/634
f 635/635 636/636 637/637
f 637/637 636/636 638/638
f 637/637 638/638 639/639
f 639/639 638/638 640/640
f 639/639 640/640 641/641
f 642/642 643/643 644/644
f 644/644 643/643 645/645
f 644/644 645/645 646/646
f 647/647 648/648 649/649
f 649/649 648/648 650/650
f 649/649 650/650 651/651
f 652/652 653/653 654/654
f 654/654 653/653 655/655
f 654/654 655/655 656/656
f 656/656 655/655 657/657
f 656/656 657/657 658/658
f 658/658 657/657 659/659
f 658/658 659/659 660/660
f 661/661 662/662 663/663
f 664/664 665/665 666/666
f 667/667 668/668 669/669
f 669/669 668/668 670/670
f 669/669 670/670 671/671
f 672/672 673/673 674/674
f 674/674 673/673 675/675
f 674/674 675/675 676/676
f 677/677 678/678 679/679
f 679/679 678/678 680/680
f 679/679 680/680 681/681
f 682/682 683/683 684/684
f 684/684 683/683 685/685
f 684/684 685/685 686/686
f 687/687 688/688 689/689
f 689/689 688/688 690/690
f 689/689 690/690 691/691
f 692/692 693/693 694/694
f 694/694 693/693 695/695
f 694/694 695/695 696/696
f 697/697 698/698 699/699
f 699/699 698/698 700/700
f 699/699 700/700 701/701
f 702/702 703/703 704/704
f 704/704 703/703 705/705
f 704/704 705/705 706/706
f 707/707 708/708 709/709
f 709/709 708/708 710/710
f 709/709 710/710 711/711
f 712/712 713/713 714/714
f 714/714 713/713 715/715
f 714/714 715/715 716/716
f 717/717 718/718 719/719
f 719/719 718/718 720/720
f 719/719 720/720 721/721
f 722/722 723/723 724/724
f 724/724 723/723 725/725
f 724/724 725/725 726/726
f 727/727 728/728 729/729
f 729/729 728/728 730/730
f 729/729 730/730 731/731
f 732/732 733/733 734/734
f 734/734 733/733 735/735
f 734/734 735/735 736/736

