# https://github.com/mikedh/trimesh
mtllib material.mtl
usemtl greenlowglossplastic
v -0.30000001 -0.17000000 0.41999999
v -0.30000001 0.17000000 0.41999999
v -0.25000000 -0.17000000 0.41999999
v -0.25000000 0.17000000 0.41999999
v 0.25000000 -0.20000000 0.41999999
v -0.25000000 -0.20000000 0.41999999
v 0.25000000 -0.17000000 0.41999999
v 0.25000000 0.17000000 0.41999999
v 0.30000001 -0.17000000 0.41999999
v 0.30000001 0.17000000 0.41999999
v -0.25000000 0.20000000 0.41999999
v 0.25000000 0.20000000 0.41999999
v -0.25000000 0.17000000 0.41999999
v 0.25000000 0.17000000 0.41999999
v -0.25000000 -0.17000000 0.41999999
v -0.25000000 -0.20000000 0.41999999
v -0.30000001 -0.17000000 0.00000000
v -0.30000001 -0.20000000 0.00000000
v -0.30000001 -0.17000000 0.41999999
v -0.30000001 -0.20000000 0.43000001
v -0.30000001 0.17000000 0.41999999
v -0.30000001 0.20000000 0.43000001
v -0.30000001 0.17000000 0.00000000
v -0.30000001 0.20000000 0.00000000
v -0.25000000 0.20000000 0.00000000
v -0.30000001 0.20000000 0.00000000
v -0.25000000 0.20000000 0.41999999
v -0.30000001 0.20000000 0.43000001
v 0.25000000 0.20000000 0.41999999
v 0.30000001 0.20000000 0.43000001
v 0.25000000 0.20000000 0.00000000
v 0.30000001 0.20000000 0.00000000
v 0.30000001 0.17000000 0.00000000
v 0.30000001 0.20000000 0.00000000
v 0.30000001 0.17000000 0.41999999
v 0.30000001 0.20000000 0.43000001
v 0.30000001 -0.17000000 0.41999999
v 0.30000001 -0.20000000 0.43000001
v 0.30000001 -0.17000000 0.00000000
v 0.30000001 -0.20000000 0.00000000
v 0.25000000 -0.20000000 0.00000000
v 0.30000001 -0.20000000 0.00000000
v 0.25000000 -0.20000000 0.41999999
v 0.30000001 -0.20000000 0.43000001
v -0.25000000 -0.20000000 0.41999999
v -0.30000001 -0.20000000 0.43000001
v -0.25000000 -0.20000000 0.00000000
v -0.30000001 -0.20000000 0.00000000
v -0.25000000 -0.17000000 0.00000000
v -0.30000001 -0.17000000 0.00000000
v -0.25000000 -0.17000000 0.41999999
v -0.30000001 -0.17000000 0.41999999
v -0.25000000 -0.20000000 0.00000000
v -0.25000000 -0.17000000 0.00000000
v -0.25000000 -0.20000000 0.41999999
v -0.25000000 -0.17000000 0.41999999
v -0.25000000 -0.17000000 0.00000000
v -0.25000000 -0.20000000 0.00000000
v -0.30000001 -0.17000000 0.00000000
v -0.30000001 -0.20000000 0.00000000
v 0.25000000 0.17000000 0.00000000
v 0.30000001 0.17000000 0.00000000
v 0.25000000 0.17000000 0.41999999
v 0.30000001 0.17000000 0.41999999
v 0.25000000 0.20000000 0.00000000
v 0.25000000 0.17000000 0.00000000
v 0.25000000 0.20000000 0.41999999
v 0.25000000 0.17000000 0.41999999
v 0.25000000 0.17000000 0.00000000
v 0.25000000 0.20000000 0.00000000
v 0.30000001 0.17000000 0.00000000
v 0.30000001 0.20000000 0.00000000
v 0.25000000 -0.17000000 0.00000000
v 0.25000000 -0.20000000 0.00000000
v 0.25000000 -0.17000000 0.41999999
v 0.25000000 -0.20000000 0.41999999
v 0.30000001 -0.17000000 0.00000000
v 0.25000000 -0.17000000 0.00000000
v 0.30000001 -0.17000000 0.41999999
v 0.25000000 -0.17000000 0.41999999
v 0.25000000 -0.20000000 0.00000000
v 0.25000000 -0.17000000 0.00000000
v 0.30000001 -0.20000000 0.00000000
v 0.30000001 -0.17000000 0.00000000
v -0.25000000 0.17000000 0.00000000
v -0.25000000 0.20000000 0.00000000
v -0.25000000 0.17000000 0.41999999
v -0.25000000 0.20000000 0.41999999
v -0.30000001 0.17000000 0.00000000
v -0.25000000 0.17000000 0.00000000
v -0.30000001 0.17000000 0.41999999
v -0.25000000 0.17000000 0.41999999
v -0.25000000 0.20000000 0.00000000
v -0.25000000 0.17000000 0.00000000
v -0.30000001 0.20000000 0.00000000
v -0.30000001 0.17000000 0.00000000
vt 0.99049693 0.48228818
vt 0.99049693 0.72991240
vt 0.95408159 0.48228818
vt 0.95408159 0.72991240
vt 0.63044178 0.29272163
vt 0.84705579 0.00000000
vt 0.64800507 0.30571848
vt 0.84705579 0.45301604
vt 0.62634367 0.33499062
vt 0.82539439 0.48228818
vt 0.00000003 0.80113715
vt 0.00000000 0.43698394
vt 0.02184922 0.80113715
vt 0.02184919 0.43698394
vt 0.26947343 0.80113709
vt 0.29132262 0.80113709
vt 0.33502102 0.75015575
vt 0.31317183 0.75015575
vt 0.33502102 0.44426703
vt 0.31317183 0.43698394
vt 0.58264524 0.44426703
vt 0.60449439 0.43698394
vt 0.58264524 0.75015575
vt 0.60449439 0.75015575
vt 0.31317180 0.40056860
vt 0.31317180 0.43698394
vt 0.00728309 0.40056854
vt 0.00000001 0.43698388
vt 0.00728312 0.03641534
vt 0.00000004 0.00000000
vt 0.31317183 0.03641534
vt 0.31317183 0.00000000
vt 0.64819288 0.79545999
vt 0.62634367 0.79545999
vt 0.64819288 0.48957133
vt 0.62634367 0.48228824
vt 0.89581710 0.48957133
vt 0.91766632 0.48228824
vt 0.89581710 0.79545999
vt 0.91766632 0.79545999
vt 0.62634361 0.40056860
vt 0.62634361 0.43698394
vt 0.32045493 0.40056854
vt 0.31317183 0.43698388
vt 0.32045496 0.03641534
vt 0.31317186 0.00000000
vt 0.62634367 0.03641534
vt 0.62634367 0.00000000
vt 0.88347107 0.30588871
vt 0.84705573 0.30588871
vt 0.88347107 0.00000000
vt 0.84705573 0.00000000
vt 0.31317183 0.74287260
vt 0.29132265 0.74287260
vt 0.31317183 0.43698388
vt 0.29132265 0.43698388
vt 0.31317183 0.77928787
vt 0.29132262 0.77928787
vt 0.31317183 0.74287260
vt 0.29132265 0.74287260
vt 0.91988635 0.30588871
vt 0.88347101 0.30588871
vt 0.91988635 0.00000000
vt 0.88347101 0.00000000
vt 0.62634361 0.74287260
vt 0.60449439 0.74287260
vt 0.62634361 0.43698388
vt 0.60449439 0.43698388
vt 0.60449445 0.74287254
vt 0.62634361 0.74287254
vt 0.60449439 0.77928787
vt 0.62634361 0.77928787
vt 0.97815084 0.30588871
vt 0.95630163 0.30588871
vt 0.97815084 0.00000000
vt 0.95630163 0.00000000
vt 0.95408159 0.78817683
vt 0.91766626 0.78817683
vt 0.95408159 0.48228812
vt 0.91766626 0.48228812
vt 0.31317186 0.75015563
vt 0.33502105 0.75015563
vt 0.31317183 0.78657097
vt 0.33502105 0.78657097
vt 1.00000000 0.30588871
vt 0.97815084 0.30588871
vt 1.00000000 0.00000000
vt 0.97815084 0.00000000
vt 0.95630169 0.30588871
vt 0.91988635 0.30588871
vt 0.95630169 0.00000000
vt 0.91988635 0.00000000
vt 0.35687023 0.78657097
vt 0.33502105 0.78657097
vt 0.35687023 0.75015563
vt 0.33502105 0.75015563
f 1/1 2/2 3/3
f 3/3 2/2 4/4
f 5/5 6/6 7/7
f 7/7 6/6 8/8
f 7/7 8/8 9/9
f 9/9 8/8 10/10
f 11/11 12/12 13/13
f 13/13 12/12 14/14
f 13/13 14/14 15/15
f 15/15 14/14 16/16
f 17/17 18/18 19/19
f 19/19 18/18 20/20
f 19/19 20/20 21/21
f 21/21 20/20 22/22
f 21/21 22/22 23/23
f 23/23 22/22 24/24
f 25/25 26/26 27/27
f 27/27 26/26 28/28
f 27/27 28/28 29/29
f 29/29 28/28 30/30
f 29/29 30/30 31/31
f 31/31 30/30 32/32
f 33/33 34/34 35/35
f 35/35 34/34 36/36
f 35/35 36/36 37/37
f 37/37 36/36 38/38
f 37/37 38/38 39/39
f 39/39 38/38 40/40
f 41/41 42/42 43/43
f 43/43 42/42 44/44
f 43/43 44/44 45/45
f 45/45 44/44 46/46
f 45/45 46/46 47/47
f 47/47 46/46 48/48
f 49/49 50/50 51/51
f 51/51 50/50 52/52
f 53/53 54/54 55/55
f 55/55 54/54 56/56
f 57/57 58/58 59/59
f 59/59 58/58 60/60
f 61/61 62/62 63/63
f 63/63 62/62 64/64
f 65/65 66/66 67/67
f 67/67 66/66 68/68
f 69/69 70/70 71/71
f 71/71 70/70 72/72
f 73/73 74/74 75/75
f 75/75 74/74 76/76
f 77/77 78/78 79/79
f 79/79 78/78 80/80
f 81/81 82/82 83/83
f 83/83 82/82 84/84
f 85/85 86/86 87/87
f 87/87 86/86 88/88
f 89/89 90/90 91/91
f 91/91 90/90 92/92
f 93/93 94/94 95/95
f 95/95 94/94 96/96

