# https://github.com/mikedh/trimesh
mtllib material.mtl
usemtl bluelowglossplastic
v 0.24258820 0.12465925 0.12499999
v 0.24500001 0.12366025 0.12499999
v 0.24707108 0.12207106 0.12499999
v 0.24965926 0.11758819 0.12499999
v 0.25000001 0.11500000 0.12499999
v 0.24000000 0.12499999 0.12499999
v 0.24000000 -0.12500001 0.12499998
v -0.23999999 0.12499999 0.12500002
v -0.23999999 -0.12500001 0.12500001
v -0.24965925 0.11758819 0.12500002
v -0.24866025 0.11999999 0.12500002
v -0.23999999 0.12499999 0.12500002
v 0.24258820 0.12465925 0.12499999
v 0.24707108 0.12207106 0.12499999
v 0.24000000 0.12499999 0.12499999
v 0.24866026 0.11999999 0.12499999
v 0.24965926 0.11758819 0.12499999
v -0.24258819 -0.12465926 0.12500001
v -0.24500000 -0.12366026 0.12500001
v -0.23999999 -0.12500001 0.12500001
v -0.24707107 -0.12207107 0.12500001
v -0.24866025 -0.12000000 0.12500001
v -0.24866025 -0.12000000 0.12500001
v -0.24965925 -0.11758820 0.12500001
v -0.23999999 -0.12500001 0.12500001
v -0.24999999 -0.11500001 0.12500001
v -0.23999999 0.12499999 0.12500002
v -0.24999999 0.11500000 0.12500002
v -0.24965925 0.11758819 0.12500002
v 0.24500001 -0.12366026 0.12499998
v 0.24965926 -0.11758820 0.12499998
v 0.24707108 -0.12207107 0.12499998
v 0.24866026 -0.12000000 0.12499998
v 0.25000001 0.11500000 0.12499999
v 0.25000001 -0.11500001 0.12499998
v 0.24000000 -0.12500001 0.12499998
v 0.24965926 -0.11758820 0.12499998
v 0.24258820 -0.12465926 0.12499998
v 0.24500001 -0.12366026 0.12499998
v -0.24707107 0.12207106 0.12500002
v -0.24500000 0.12366025 0.12500002
v -0.24866025 0.11999999 0.12500002
v -0.24258819 0.12465925 0.12500002
v -0.23999999 0.12499999 0.12500002
v 0.25000001 0.11499999 0.30585786
v 0.25000001 -0.11500002 0.30585785
v 0.25000001 0.11500000 0.12499999
v 0.25000001 -0.11500001 0.12499998
v -0.20585784 -0.11500002 0.35000000
v 0.20585787 -0.11500002 0.34999998
v -0.20585784 0.11499999 0.35000001
v 0.20585787 0.11499999 0.34999999
v 0.20585787 -0.12500001 0.33999999
v -0.20585784 -0.12500001 0.34000001
v 0.24000001 -0.12500001 0.30585785
v -0.23999998 -0.12500001 0.30585787
v 0.24000000 -0.12500001 0.12499998
v -0.23999999 -0.12500001 0.12500001
v 0.24000000 0.12499999 0.12499999
v -0.23999999 0.12499999 0.12500002
v -0.23999998 0.12499999 0.30585788
v -0.20585784 0.12499999 0.34000002
v 0.20585787 0.12499999 0.34000000
v -0.23999998 0.12499999 0.30585788
v 0.24000001 0.12499999 0.30585786
v 0.24000000 0.12499999 0.12499999
v -0.24999999 0.11500000 0.12500002
v -0.24999999 -0.11500001 0.12500001
v -0.24999999 0.11499999 0.30585788
v -0.24999999 -0.11500002 0.30585787
v -0.21292892 0.11499999 0.34707110
v -0.24707106 0.11499999 0.31292896
v -0.21292892 -0.11500002 0.34707109
v -0.24707106 -0.11500002 0.31292895
v 0.21292895 -0.11500002 0.34707107
v 0.24707109 -0.11500002 0.31292893
v 0.21292895 0.11499999 0.34707108
v 0.24707109 0.11499999 0.31292894
v 0.25000001 0.11499999 0.30585786
v 0.25000001 0.11500000 0.12499999
v 0.24965926 0.11758819 0.12499999
v 0.25000001 0.11499999 0.30585786
v 0.24965926 0.11758819 0.12499999
v 0.24965927 0.11758818 0.30585786
v 0.24866026 0.11999999 0.12499999
v 0.24866026 0.11999998 0.30585786
v 0.24707108 0.12207106 0.12499999
v 0.24707109 0.12207105 0.30585786
v 0.24500001 0.12366025 0.12499999
v 0.24500002 0.12366024 0.30585786
v 0.24258820 0.12465925 0.12499999
v 0.24258821 0.12465924 0.30585786
v 0.24000000 0.12499999 0.12499999
v 0.24000001 0.12499999 0.30585786
v 0.24707109 0.11499999 0.31292894
v 0.24707109 -0.11500002 0.31292893
v 0.24866027 -0.11500002 0.31085785
v 0.24707109 0.11499999 0.31292894
v 0.24866027 -0.11500002 0.31085785
v 0.24866027 0.11499999 0.31085786
v 0.24965927 -0.11500002 0.30844603
v 0.24965927 0.11499999 0.30844604
v 0.25000001 -0.11500002 0.30585785
v 0.25000001 0.11499999 0.30585786
v 0.24000001 -0.12500001 0.30585785
v 0.24000000 -0.12500001 0.12499998
v 0.24258820 -0.12465926 0.12499998
v 0.24000001 -0.12500001 0.30585785
v 0.24258820 -0.12465926 0.12499998
v 0.24258821 -0.12465927 0.30585785
v 0.24500001 -0.12366026 0.12499998
v 0.24500002 -0.12366026 0.30585785
v 0.24707108 -0.12207107 0.12499998
v 0.24707109 -0.12207108 0.30585785
v 0.24866026 -0.12000000 0.12499998
v 0.24866026 -0.12000001 0.30585785
v 0.24965926 -0.11758820 0.12499998
v 0.24965927 -0.11758821 0.30585785
v 0.25000001 -0.11500001 0.12499998
v 0.25000001 -0.11500002 0.30585785
v 0.24965927 0.11499999 0.30844604
v 0.25000001 0.11499999 0.30585786
v 0.24933015 0.11758818 0.30835786
v 0.24965927 0.11758818 0.30585786
v 0.24836518 0.11999998 0.30809929
v 0.24866026 0.11999998 0.30585786
v 0.24683013 0.12207105 0.30768799
v 0.24707109 0.12207105 0.30585786
v 0.24482964 0.12366024 0.30715197
v 0.24500002 0.12366024 0.30585786
v 0.24250002 0.12465924 0.30652773
v 0.24250002 0.12465924 0.30652773
v 0.24224146 0.12465924 0.30715197
v 0.24482964 0.12366024 0.30715197
v 0.24433014 0.12366024 0.30835786
v 0.24683013 0.12207105 0.30768799
v 0.24612374 0.12207105 0.30939340
v 0.24836518 0.11999998 0.30809929
v 0.24750002 0.11999998 0.31018799
v 0.24933015 0.11758818 0.30835786
v 0.24836518 0.11758818 0.31068748
v 0.24965927 0.11499999 0.30844604
v 0.24866027 0.11499999 0.31085786
v 0.24707109 0.11499999 0.31292894
v 0.24866027 0.11499999 0.31085786
v 0.24683013 0.11758818 0.31268799
v 0.24836518 0.11758818 0.31068748
v 0.24612374 0.11999998 0.31198158
v 0.24750002 0.11999998 0.31018799
v 0.24500002 0.12207105 0.31085786
v 0.24612374 0.12207105 0.30939340
v 0.24353555 0.12366024 0.30939340
v 0.24433014 0.12366024 0.30835786
v 0.24183014 0.12465924 0.30768799
v 0.24224146 0.12465924 0.30715197
v 0.24000001 0.12499999 0.30585786
v 0.24250002 0.12465924 0.30652773
v 0.24000001 0.12499999 0.30585786
v 0.24224146 0.12465924 0.30715197
v 0.24500002 0.12366024 0.30585786
v 0.24258821 0.12465924 0.30585786
v 0.24250002 0.12465924 0.30652773
v 0.24000001 0.12499999 0.30585786
v 0.24866027 -0.11500002 0.31085785
v 0.24707109 -0.11500002 0.31292893
v 0.24836518 -0.11758821 0.31068747
v 0.24683013 -0.11758821 0.31268798
v 0.24750002 -0.12000001 0.31018798
v 0.24612374 -0.12000001 0.31198157
v 0.24612374 -0.12207108 0.30939339
v 0.24500002 -0.12207108 0.31085785
v 0.24433014 -0.12366026 0.30835785
v 0.24353555 -0.12366027 0.30939339
v 0.24224146 -0.12465927 0.30715196
v 0.24224146 -0.12465927 0.30715196
v 0.24250002 -0.12465927 0.30652772
v 0.24433014 -0.12366026 0.30835785
v 0.24482964 -0.12366026 0.30715196
v 0.24612374 -0.12207108 0.30939339
v 0.24683013 -0.12207108 0.30768798
v 0.24750002 -0.12000001 0.31018798
v 0.24836518 -0.12000001 0.30809928
v 0.24836518 -0.11758821 0.31068747
v 0.24933015 -0.11758821 0.30835785
v 0.24866027 -0.11500002 0.31085785
v 0.24965927 -0.11500002 0.30844603
v 0.25000001 -0.11500002 0.30585785
v 0.24965927 -0.11500002 0.30844603
v 0.24965927 -0.11758821 0.30585785
v 0.24933015 -0.11758821 0.30835785
v 0.24866026 -0.12000001 0.30585785
v 0.24836518 -0.12000001 0.30809928
v 0.24707109 -0.12207108 0.30585785
v 0.24683013 -0.12207108 0.30768798
v 0.24500002 -0.12366026 0.30585785
v 0.24482964 -0.12366026 0.30715196
v 0.24258821 -0.12465927 0.30585785
v 0.24250002 -0.12465927 0.30652772
v 0.24000001 -0.12500001 0.30585785
v 0.24224146 -0.12465927 0.30715196
v 0.24000001 -0.12500001 0.30585785
v 0.24250002 -0.12465927 0.30652772
v 0.24353555 -0.12366027 0.30939339
v 0.24183014 -0.12465927 0.30768798
v 0.24224146 -0.12465927 0.30715196
v 0.24000001 -0.12500001 0.30585785
v -0.23999998 0.12499999 0.30585788
v -0.23999999 0.12499999 0.12500002
v -0.24258819 0.12465925 0.12500002
v -0.23999998 0.12499999 0.30585788
v -0.24258819 0.12465925 0.12500002
v -0.24258818 0.12465924 0.30585788
v -0.24500000 0.12366025 0.12500002
v -0.24499999 0.12366024 0.30585788
v -0.24707107 0.12207106 0.12500002
v -0.24707106 0.12207105 0.30585788
v -0.24866025 0.11999999 0.12500002
v -0.24866024 0.11999998 0.30585788
v -0.24965925 0.11758819 0.12500002
v -0.24965924 0.11758818 0.30585788
v -0.24999999 0.11500000 0.12500002
v -0.24999999 0.11499999 0.30585788
v 0.21292895 0.11499999 0.34707108
v 0.24707109 0.11499999 0.31292894
v 0.24683013 0.11758818 0.31268799
v 0.21292895 0.11499999 0.34707108
v 0.24683013 0.11758818 0.31268799
v 0.21268800 0.11758818 0.34683013
v 0.24612374 0.11999998 0.31198158
v 0.21198161 0.11999998 0.34612372
v 0.24500002 0.12207105 0.31085786
v 0.21085788 0.12207105 0.34499999
v 0.24353555 0.12366024 0.30939340
v 0.20939341 0.12366024 0.34353554
v 0.24183014 0.12465924 0.30768799
v 0.20768800 0.12465924 0.34183013
v 0.24000001 0.12499999 0.30585786
v 0.20585787 0.12499999 0.34000000
v 0.21292895 -0.11500002 0.34707107
v 0.21292895 0.11499999 0.34707108
v 0.21141358 0.11499999 0.34831470
v 0.20968472 0.11499999 0.34923878
v 0.21085788 -0.11500002 0.34866025
v 0.21141358 0.11499999 0.34831470
v 0.21137454 -0.11500002 0.34826379
v 0.21292895 -0.11500002 0.34707107
v 0.20780040 -0.11500002 0.34974425
v 0.20844607 -0.11500002 0.34965925
v 0.20968472 0.11499999 0.34923878
v 0.20965198 -0.11500002 0.34915973
v 0.21085788 -0.11500002 0.34866025
v 0.20968472 0.11499999 0.34923878
v 0.20780878 0.11499999 0.34980785
v 0.20780040 -0.11500002 0.34974425
v 0.20585787 0.11499999 0.34999999
v 0.20585787 -0.11500002 0.34999998
v 0.24707109 -0.11500002 0.31292893
v 0.21292895 -0.11500002 0.34707107
v 0.21268800 -0.11758821 0.34683012
v 0.24707109 -0.11500002 0.31292893
v 0.21268800 -0.11758821 0.34683012
v 0.24683013 -0.11758821 0.31268798
v 0.21198161 -0.12000001 0.34612371
v 0.24612374 -0.12000001 0.31198157
v 0.21085788 -0.12207108 0.34499998
v 0.24500002 -0.12207108 0.31085785
v 0.20939341 -0.12366027 0.34353553
v 0.24353555 -0.12366027 0.30939339
v 0.20768800 -0.12465927 0.34183012
v 0.24183014 -0.12465927 0.30768798
v 0.20585787 -0.12500001 0.33999999
v 0.24000001 -0.12500001 0.30585785
v -0.24999999 -0.11500002 0.30585787
v -0.24999999 -0.11500001 0.12500001
v -0.24965925 -0.11758820 0.12500001
v -0.24999999 -0.11500002 0.30585787
v -0.24965925 -0.11758820 0.12500001
v -0.24965924 -0.11758821 0.30585787
v -0.24866025 -0.12000000 0.12500001
v -0.24866024 -0.12000001 0.30585787
v -0.24707107 -0.12207107 0.12500001
v -0.24707106 -0.12207108 0.30585787
v -0.24500000 -0.12366026 0.12500001
v -0.24499999 -0.12366026 0.30585787
v -0.24258819 -0.12465926 0.12500001
v -0.24258818 -0.12465927 0.30585787
v -0.23999999 -0.12500001 0.12500001
v -0.23999998 -0.12500001 0.30585787
v -0.24707106 -0.11500002 0.31292895
v -0.24707106 0.11499999 0.31292896
v -0.24866024 0.11499999 0.31085788
v -0.24707106 -0.11500002 0.31292895
v -0.24866024 0.11499999 0.31085788
v -0.24866024 -0.11500002 0.31085787
v -0.24965924 0.11499999 0.30844607
v -0.24965924 -0.11500002 0.30844606
v -0.24999999 0.11499999 0.30585788
v -0.24999999 -0.11500002 0.30585787
v -0.24866024 0.11499999 0.31085788
v -0.24707106 0.11499999 0.31292896
v -0.24836515 0.11758818 0.31068750
v -0.24683011 0.11758818 0.31268801
v -0.24749999 0.11999998 0.31018801
v -0.24612372 0.11999998 0.31198160
v -0.24612372 0.12207105 0.30939342
v -0.24499999 0.12207105 0.31085788
v -0.24433011 0.12366024 0.30835788
v -0.24353552 0.12366024 0.30939342
v -0.24224143 0.12465924 0.30715199
v -0.24224143 0.12465924 0.30715199
v -0.24249999 0.12465924 0.30652775
v -0.24433011 0.12366024 0.30835788
v -0.24482961 0.12366024 0.30715199
v -0.24612372 0.12207105 0.30939342
v -0.24683011 0.12207105 0.30768801
v -0.24749999 0.11999998 0.31018801
v -0.24836515 0.11999998 0.30809932
v -0.24836515 0.11758818 0.31068750
v -0.24933012 0.11758818 0.30835788
v -0.24866024 0.11499999 0.31085788
v -0.24965924 0.11499999 0.30844607
v -0.24999999 0.11499999 0.30585788
v -0.24965924 0.11499999 0.30844607
v -0.24965924 0.11758818 0.30585788
v -0.24933012 0.11758818 0.30835788
v -0.24866024 0.11999998 0.30585788
v -0.24836515 0.11999998 0.30809932
v -0.24707106 0.12207105 0.30585788
v -0.24683011 0.12207105 0.30768801
v -0.24499999 0.12366024 0.30585788
v -0.24482961 0.12366024 0.30715199
v -0.24258818 0.12465924 0.30585788
v -0.24249999 0.12465924 0.30652775
v -0.23999998 0.12499999 0.30585788
v -0.24224143 0.12465924 0.30715199
v -0.23999998 0.12499999 0.30585788
v -0.24249999 0.12465924 0.30652775
v -0.24353552 0.12366024 0.30939342
v -0.24183011 0.12465924 0.30768801
v -0.24224143 0.12465924 0.30715199
v -0.23999998 0.12499999 0.30585788
v 0.20939341 0.12366024 0.34353554
v 0.20768800 0.12465924 0.34183013
v 0.20729581 0.12465924 0.34215200
v 0.20729581 0.12465924 0.34215200
v 0.20768800 0.12465924 0.34183013
v 0.20585787 0.12499999 0.34000000
v 0.21141358 0.11499999 0.34831470
v 0.21292895 0.11499999 0.34707108
v 0.21122427 0.11758818 0.34803137
v 0.21268800 0.11758818 0.34683013
v 0.21066926 0.11999998 0.34720075
v 0.21198161 0.11999998 0.34612372
v 0.20978636 0.12207105 0.34587937
v 0.21085788 0.12207105 0.34499999
v 0.20863573 0.12366024 0.34415733
v 0.20968472 0.11499999 0.34923878
v 0.21141358 0.11499999 0.34831470
v 0.20955431 0.11758818 0.34892398
v 0.21122427 0.11758818 0.34803137
v 0.20917201 0.11999998 0.34800103
v 0.21066926 0.11999998 0.34720075
v 0.20856386 0.12207105 0.34653282
v 0.20978636 0.12207105 0.34587937
v 0.20777130 0.12366024 0.34461939
v 0.20863573 0.12366024 0.34415733
v 0.20684834 0.12465924 0.34239116
v 0.20684834 0.12465924 0.34239116
v 0.20636281 0.12465924 0.34253844
v 0.20777130 0.12366024 0.34461939
v 0.20683333 0.12366024 0.34490391
v 0.20856386 0.12207105 0.34653282
v 0.20723738 0.12207105 0.34693521
v 0.20917201 0.11999998 0.34800103
v 0.20754741 0.11999998 0.34849384
v 0.20955431 0.11758818 0.34892398
v 0.20774230 0.11758818 0.34947365
v 0.20968472 0.11499999 0.34923878
v 0.20780878 0.11499999 0.34980785
v 0.20585787 0.11499999 0.34999999
v 0.20780878 0.11499999 0.34980785
v 0.20585787 0.11758818 0.34965926
v 0.20774230 0.11758818 0.34947365
v 0.20585787 0.11999998 0.34866026
v 0.20754741 0.11999998 0.34849384
v 0.20585787 0.12207105 0.34707108
v 0.20723738 0.12207105 0.34693521
v 0.20585787 0.12366024 0.34500000
v 0.20683333 0.12366024 0.34490391
v 0.20585787 0.12465924 0.34258818
v 0.20636281 0.12465924 0.34253844
v 0.20585787 0.12499999 0.34000000
v 0.20684834 0.12465924 0.34239116
v 0.20585787 0.12499999 0.34000000
v 0.20636281 0.12465924 0.34253844
v 0.21085788 0.12207105 0.34499999
v 0.20939341 0.12366024 0.34353554
v 0.20863573 0.12366024 0.34415733
v 0.20729581 0.12465924 0.34215200
v 0.20684834 0.12465924 0.34239116
v 0.20585787 0.12499999 0.34000000
v 0.21137454 -0.11500002 0.34826379
v 0.21085788 -0.11500002 0.34866025
v 0.21068750 -0.11758821 0.34836514
v 0.20965198 -0.11500002 0.34915973
v 0.20844607 -0.11500002 0.34965925
v 0.20835789 -0.11758821 0.34933011
v 0.20780040 -0.11500002 0.34974425
v 0.20585787 -0.11500002 0.34999998
v 0.20585787 -0.11758821 0.34965925
v 0.20844607 -0.11500002 0.34965925
v 0.20780040 -0.11500002 0.34974425
v 0.20835789 -0.11758821 0.34933011
v 0.20585787 -0.11758821 0.34965925
v 0.20809932 -0.12000001 0.34836514
v 0.20585787 -0.12000001 0.34866025
v 0.20768800 -0.12207108 0.34683012
v 0.20585787 -0.12207108 0.34707107
v 0.20715198 -0.12366027 0.34482960
v 0.20585787 -0.12366027 0.34499998
v 0.20652775 -0.12465927 0.34249999
v 0.20585787 -0.12465927 0.34258817
v 0.20585787 -0.12500001 0.33999999
v 0.21085788 -0.11500002 0.34866025
v 0.20965198 -0.11500002 0.34915973
v 0.21068750 -0.11758821 0.34836514
v 0.20835789 -0.11758821 0.34933011
v 0.21018800 -0.12000001 0.34749998
v 0.20809932 -0.12000001 0.34836514
v 0.20939341 -0.12207108 0.34612371
v 0.20768800 -0.12207108 0.34683012
v 0.20835789 -0.12366027 0.34433012
v 0.20715198 -0.12366027 0.34482960
v 0.20715198 -0.12465927 0.34224142
v 0.20652775 -0.12465927 0.34249999
v 0.20585787 -0.12500001 0.33999999
v 0.21292895 -0.11500002 0.34707107
v 0.21137454 -0.11500002 0.34826379
v 0.21268800 -0.11758821 0.34683012
v 0.21068750 -0.11758821 0.34836514
v 0.21198161 -0.12000001 0.34612371
v 0.21018800 -0.12000001 0.34749998
v 0.21085788 -0.12207108 0.34499998
v 0.20939341 -0.12207108 0.34612371
v 0.20939341 -0.12366027 0.34353553
v 0.20835789 -0.12366027 0.34433012
v 0.20768800 -0.12465927 0.34183012
v 0.20715198 -0.12465927 0.34224142
v 0.20585787 -0.12500001 0.33999999
v -0.24965924 -0.11500002 0.30844606
v -0.24999999 -0.11500002 0.30585787
v -0.24933012 -0.11758821 0.30835787
v -0.24965924 -0.11758821 0.30585787
v -0.24836515 -0.12000001 0.30809931
v -0.24866024 -0.12000001 0.30585787
v -0.24683011 -0.12207108 0.30768800
v -0.24707106 -0.12207108 0.30585787
v -0.24482961 -0.12366026 0.30715198
v -0.24499999 -0.12366026 0.30585787
v -0.24249999 -0.12465927 0.30652774
v -0.24249999 -0.12465927 0.30652774
v -0.24224143 -0.12465927 0.30715198
v -0.24482961 -0.12366026 0.30715198
v -0.24433011 -0.12366026 0.30835787
v -0.24683011 -0.12207108 0.30768800
v -0.24612372 -0.12207108 0.30939341
v -0.24836515 -0.12000001 0.30809931
v -0.24749999 -0.12000001 0.31018800
v -0.24933012 -0.11758821 0.30835787
v -0.24836515 -0.11758821 0.31068749
v -0.24965924 -0.11500002 0.30844606
v -0.24866024 -0.11500002 0.31085787
v -0.24707106 -0.11500002 0.31292895
v -0.24866024 -0.11500002 0.31085787
v -0.24683011 -0.11758821 0.31268800
v -0.24836515 -0.11758821 0.31068749
v -0.24612372 -0.12000001 0.31198159
v -0.24749999 -0.12000001 0.31018800
v -0.24499999 -0.12207108 0.31085787
v -0.24612372 -0.12207108 0.30939341
v -0.24353552 -0.12366027 0.30939341
v -0.24433011 -0.12366026 0.30835787
v -0.24183011 -0.12465927 0.30768800
v -0.24224143 -0.12465927 0.30715198
v -0.23999998 -0.12500001 0.30585787
v -0.24249999 -0.12465927 0.30652774
v -0.23999998 -0.12500001 0.30585787
v -0.24224143 -0.12465927 0.30715198
v -0.24499999 -0.12366026 0.30585787
v -0.24258818 -0.12465927 0.30585787
v -0.24249999 -0.12465927 0.30652774
v -0.23999998 -0.12500001 0.30585787
v -0.24707106 0.11499999 0.31292896
v -0.21292892 0.11499999 0.34707110
v -0.21268797 0.11758818 0.34683014
v -0.24707106 0.11499999 0.31292896
v -0.21268797 0.11758818 0.34683014
v -0.24683011 0.11758818 0.31268801
v -0.21198158 0.11999998 0.34612374
v -0.24612372 0.11999998 0.31198160
v -0.21085785 0.12207105 0.34500001
v -0.24499999 0.12207105 0.31085788
v -0.20939338 0.12366024 0.34353556
v -0.24353552 0.12366024 0.30939342
v -0.20768797 0.12465924 0.34183015
v -0.24183011 0.12465924 0.30768801
v -0.20585784 0.12499999 0.34000002
v -0.23999998 0.12499999 0.30585788
v 0.20585787 0.12499999 0.34000000
v -0.20585784 0.12499999 0.34000002
v -0.20585784 0.12465924 0.34258820
v 0.20585787 0.12499999 0.34000000
v -0.20585784 0.12465924 0.34258820
v 0.20585787 0.12465924 0.34258818
v -0.20585784 0.12366024 0.34500001
v 0.20585787 0.12366024 0.34500000
v -0.20585784 0.12207105 0.34707110
v 0.20585787 0.12207105 0.34707108
v -0.20585784 0.11999998 0.34866027
v 0.20585787 0.11999998 0.34866026
v -0.20585784 0.11758818 0.34965928
v 0.20585787 0.11758818 0.34965926
v -0.20585784 0.11499999 0.35000001
v 0.20585787 0.11499999 0.34999999
v -0.20585784 -0.12500001 0.34000001
v 0.20585787 -0.12500001 0.33999999
v 0.20585787 -0.12465927 0.34258817
v -0.20585784 -0.12500001 0.34000001
v 0.20585787 -0.12465927 0.34258817
v -0.20585784 -0.12465927 0.34258819
v 0.20585787 -0.12366027 0.34499998
v -0.20585784 -0.12366027 0.34500000
v 0.20585787 -0.12207108 0.34707107
v -0.20585784 -0.12207108 0.34707109
v 0.20585787 -0.12000001 0.34866025
v -0.20585784 -0.12000001 0.34866026
v 0.20585787 -0.11758821 0.34965925
v -0.20585784 -0.11758821 0.34965927
v 0.20585787 -0.11500002 0.34999998
v -0.20585784 -0.11500002 0.35000000
v -0.21292892 -0.11500002 0.34707109
v -0.24707106 -0.11500002 0.31292895
v -0.24683011 -0.11758821 0.31268800
v -0.21292892 -0.11500002 0.34707109
v -0.24683011 -0.11758821 0.31268800
v -0.21268797 -0.11758821 0.34683013
v -0.24612372 -0.12000001 0.31198159
v -0.21198158 -0.12000001 0.34612373
v -0.24499999 -0.12207108 0.31085787
v -0.21085785 -0.12207108 0.34500000
v -0.24353552 -0.12366027 0.30939341
v -0.20939338 -0.12366027 0.34353555
v -0.24183011 -0.12465927 0.30768800
v -0.20768797 -0.12465927 0.34183014
v -0.23999998 -0.12500001 0.30585787
v -0.20585784 -0.12500001 0.34000001
v -0.21137451 0.11499999 0.34826381
v -0.21085785 0.11499999 0.34866027
v -0.21068747 0.11758818 0.34836517
v -0.20965195 0.11499999 0.34915976
v -0.20844604 0.11499999 0.34965928
v -0.20835786 0.11758818 0.34933014
v -0.20780037 0.11499999 0.34974427
v -0.20585784 0.11499999 0.35000001
v -0.20585784 0.11758818 0.34965928
v -0.20844604 0.11499999 0.34965928
v -0.20780037 0.11499999 0.34974427
v -0.20835786 0.11758818 0.34933014
v -0.20585784 0.11758818 0.34965928
v -0.20809929 0.11999998 0.34836517
v -0.20585784 0.11999998 0.34866027
v -0.20768797 0.12207105 0.34683014
v -0.20585784 0.12207105 0.34707110
v -0.20715195 0.12366024 0.34482963
v -0.20585784 0.12366024 0.34500001
v -0.20652772 0.12465924 0.34250002
v -0.20585784 0.12465924 0.34258820
v -0.20585784 0.12499999 0.34000002
v -0.21085785 0.11499999 0.34866027
v -0.20965195 0.11499999 0.34915976
v -0.21068747 0.11758818 0.34836517
v -0.20835786 0.11758818 0.34933014
v -0.21018797 0.11999998 0.34750001
v -0.20809929 0.11999998 0.34836517
v -0.20939338 0.12207105 0.34612374
v -0.20768797 0.12207105 0.34683014
v -0.20835786 0.12366024 0.34433015
v -0.20715195 0.12366024 0.34482963
v -0.20715195 0.12465924 0.34224145
v -0.20652772 0.12465924 0.34250002
v -0.20585784 0.12499999 0.34000002
v -0.21292892 0.11499999 0.34707110
v -0.21137451 0.11499999 0.34826381
v -0.21268797 0.11758818 0.34683014
v -0.21068747 0.11758818 0.34836517
v -0.21198158 0.11999998 0.34612374
v -0.21018797 0.11999998 0.34750001
v -0.21085785 0.12207105 0.34500001
v -0.20939338 0.12207105 0.34612374
v -0.20939338 0.12366024 0.34353556
v -0.20835786 0.12366024 0.34433015
v -0.20768797 0.12465924 0.34183015
v -0.20715195 0.12465924 0.34224145
v -0.20585784 0.12499999 0.34000002
v -0.20939338 -0.12366027 0.34353555
v -0.20768797 -0.12465927 0.34183014
v -0.20729578 -0.12465927 0.34215200
v -0.20729578 -0.12465927 0.34215200
v -0.20768797 -0.12465927 0.34183014
v -0.20585784 -0.12500001 0.34000001
v -0.21141355 -0.11500002 0.34831471
v -0.21292892 -0.11500002 0.34707109
v -0.21122424 -0.11758821 0.34803138
v -0.21268797 -0.11758821 0.34683013
v -0.21066923 -0.12000001 0.34720076
v -0.21198158 -0.12000001 0.34612373
v -0.20978633 -0.12207108 0.34587938
v -0.21085785 -0.12207108 0.34500000
v -0.20863570 -0.12366027 0.34415734
v -0.20968468 -0.11500002 0.34923879
v -0.21141355 -0.11500002 0.34831471
v -0.20955428 -0.11758821 0.34892399
v -0.21122424 -0.11758821 0.34803138
v -0.20917198 -0.12000001 0.34800104
v -0.21066923 -0.12000001 0.34720076
v -0.20856383 -0.12207108 0.34653283
v -0.20978633 -0.12207108 0.34587938
v -0.20777127 -0.12366027 0.34461940
v -0.20863570 -0.12366027 0.34415734
v -0.20684831 -0.12465927 0.34239117
v -0.20684831 -0.12465927 0.34239117
v -0.20636278 -0.12465927 0.34253845
v -0.20777127 -0.12366027 0.34461940
v -0.20683330 -0.12366027 0.34490392
v -0.20856383 -0.12207108 0.34653283
v -0.20723735 -0.12207108 0.34693522
v -0.20917198 -0.12000001 0.34800104
v -0.20754738 -0.12000001 0.34849385
v -0.20955428 -0.11758821 0.34892399
v -0.20774227 -0.11758821 0.34947366
v -0.20968468 -0.11500002 0.34923879
v -0.20780875 -0.11500002 0.34980786
v -0.20585784 -0.11500002 0.35000000
v -0.20780875 -0.11500002 0.34980786
v -0.20585784 -0.11758821 0.34965927
v -0.20774227 -0.11758821 0.34947366
v -0.20585784 -0.12000001 0.34866026
v -0.20754738 -0.12000001 0.34849385
v -0.20585784 -0.12207108 0.34707109
v -0.20723735 -0.12207108 0.34693522
v -0.20585784 -0.12366027 0.34500000
v -0.20683330 -0.12366027 0.34490392
v -0.20585784 -0.12465927 0.34258819
v -0.20636278 -0.12465927 0.34253845
v -0.20585784 -0.12500001 0.34000001
v -0.20684831 -0.12465927 0.34239117
v -0.20585784 -0.12500001 0.34000001
v -0.20636278 -0.12465927 0.34253845
v -0.21085785 -0.12207108 0.34500000
v -0.20939338 -0.12366027 0.34353555
v -0.20863570 -0.12366027 0.34415734
v -0.20729578 -0.12465927 0.34215200
v -0.20684831 -0.12465927 0.34239117
v -0.20585784 -0.12500001 0.34000001
v -0.21292892 0.11499999 0.34707110
v -0.21292892 -0.11500002 0.34707109
v -0.21141355 -0.11500002 0.34831471
v -0.20968468 -0.11500002 0.34923879
v -0.21085785 0.11499999 0.34866027
v -0.21141355 -0.11500002 0.34831471
v -0.21137451 0.11499999 0.34826381
v -0.21292892 0.11499999 0.34707110
v -0.20780037 0.11499999 0.34974427
v -0.20844604 0.11499999 0.34965928
v -0.20968468 -0.11500002 0.34923879
v -0.20965195 0.11499999 0.34915976
v -0.21085785 0.11499999 0.34866027
v -0.20968468 -0.11500002 0.34923879
v -0.20780875 -0.11500002 0.34980786
v -0.20780037 0.11499999 0.34974427
v -0.20585784 -0.11500002 0.35000000
v -0.20585784 0.11499999 0.35000001
vt 0.00000000 0.00000000
vt 0.00000000 0.00000000
vt 0.00000000 0.00000000
vt 0.00000000 0.00000000
vt 0.00000000 0.00000000
vt 0.00000000 0.00000000
vt 0.00000000 0.00000000
vt 0.00000000 0.00000000
vt 0.00000000 0.00000000
vt 0.00000000 0.00000000
vt 0.00000000 0.00000000
vt 0.00000000 0.00000000
vt 0.00000000 0.00000000
vt 0.00000000 0.00000000
vt 0.00000000 0.00000000
vt 0.00000000 0.00000000
vt 0.00000000 0.00000000
vt 0.00000000 0.00000000
vt 0.00000000 0.00000000
vt 0.00000000 0.00000000
vt 0.00000000 0.00000000
vt 0.00000000 0.00000000
vt 0.00000000 0.00000000
vt 0.00000000 0.00000000
vt 0.00000000 0.00000000
vt 0.00000000 0.00000000
vt 0.00000000 0.00000000
vt 0.00000000 0.00000000
vt 0.00000000 0.00000000
vt 0.00000000 0.00000000
vt 0.00000000 0.00000000
vt 0.00000000 0.00000000
vt 0.00000000 0.00000000
vt 0.00000000 0.00000000
vt 0.00000000 0.00000000
vt 0.00000000 0.00000000
vt 0.00000000 0.00000000
vt 0.00000000 0.00000000
vt 0.00000000 0.00000000
vt 0.00000000 0.00000000
vt 0.00000000 0.00000000
vt 0.00000000 0.00000000
vt 0.00000000 0.00000000
vt 0.00000000 0.00000000
vt 0.00000000 0.00000000
vt 0.00000000 0.00000000
vt 0.00000000 0.00000000
vt 0.00000000 0.00000000
vt 0.00000000 0.00000000
vt 0.00000000 0.00000000
vt 0.00000000 0.00000000
vt 0.00000000 0.00000000
vt 0.00000000 0.00000000
vt 0.00000000 0.00000000
vt 0.00000000 0.00000000
vt 0.00000000 0.00000000
vt 0.00000000 0.00000000
vt 0.00000000 0.00000000
vt 0.00000000 0.00000000
vt 0.00000000 0.00000000
vt 0.00000000 0.00000000
vt 0.00000000 0.00000000
vt 0.00000000 0.00000000
vt 0.00000000 0.00000000
vt 0.00000000 0.00000000
vt 0.00000000 0.00000000
vt 0.00000000 0.00000000
vt 0.00000000 0.00000000
vt 0.00000000 0.00000000
vt 0.00000000 0.00000000
vt 0.00000000 0.00000000
vt 0.00000000 0.00000000
vt 0.00000000 0.00000000
vt 0.00000000 0.00000000
vt 0.00000000 0.00000000
vt 0.00000000 0.00000000
vt 0.00000000 0.00000000
vt 0.00000000 0.00000000
vt 0.00000000 0.00000000
vt 0.00000000 0.00000000
vt 0.00000000 0.00000000
vt 0.00000000 0.00000000
vt 0.00000000 0.00000000
vt 0.00000000 0.00000000
vt 0.00000000 0.00000000
vt 0.00000000 0.00000000
vt 0.00000000 0.00000000
vt 0.00000000 0.00000000
vt 0.00000000 0.00000000
vt 0.00000000 0.00000000
vt 0.00000000 0.00000000
vt 0.00000000 0.00000000
vt 0.00000000 0.00000000
vt 0.00000000 0.00000000
vt 0.00000000 0.00000000
vt 0.00000000 0.00000000
vt 0.00000000 0.00000000
vt 0.00000000 0.00000000
vt 0.00000000 0.00000000
vt 0.00000000 0.00000000
vt 0.00000000 0.00000000
vt 0.00000000 0.00000000
vt 0.00000000 0.00000000
vt 0.00000000 0.00000000
vt 0.00000000 0.00000000
vt 0.00000000 0.00000000
vt 0.00000000 0.00000000
vt 0.00000000 0.00000000
vt 0.00000000 0.00000000
vt 0.00000000 0.00000000
vt 0.00000000 0.00000000
vt 0.00000000 0.00000000
vt 0.00000000 0.00000000
vt 0.00000000 0.00000000
vt 0.00000000 0.00000000
vt 0.00000000 0.00000000
vt 0.00000000 0.00000000
vt 0.00000000 0.00000000
vt 0.00000000 0.00000000
vt 0.00000000 0.00000000
vt 0.00000000 0.00000000
vt 0.00000000 0.00000000
vt 0.00000000 0.00000000
vt 0.00000000 0.00000000
vt 0.00000000 0.00000000
vt 0.00000000 0.00000000
vt 0.00000000 0.00000000
vt 0.00000000 0.00000000
vt 0.00000000 0.00000000
vt 0.00000000 0.00000000
vt 0.00000000 0.00000000
vt 0.00000000 0.00000000
vt 0.00000000 0.00000000
vt 0.00000000 0.00000000
vt 0.00000000 0.00000000
vt 0.00000000 0.00000000
vt 0.00000000 0.00000000
vt 0.00000000 0.00000000
vt 0.00000000 0.00000000
vt 0.00000000 0.00000000
vt 0.00000000 0.00000000
vt 0.00000000 0.00000000
vt 0.00000000 0.00000000
vt 0.00000000 0.00000000
vt 0.00000000 0.00000000
vt 0.00000000 0.00000000
vt 0.00000000 0.00000000
vt 0.00000000 0.00000000
vt 0.00000000 0.00000000
vt 0.00000000 0.00000000
vt 0.00000000 0.00000000
vt 0.00000000 0.00000000
vt 0.00000000 0.00000000
vt 0.00000000 0.00000000
vt 0.00000000 0.00000000
vt 0.00000000 0.00000000
vt 0.00000000 0.00000000
vt 0.00000000 0.00000000
vt 0.00000000 0.00000000
vt 0.00000000 0.00000000
vt 0.00000000 0.00000000
vt 0.00000000 0.00000000
vt 0.00000000 0.00000000
vt 0.00000000 0.00000000
vt 0.00000000 0.00000000
vt 0.00000000 0.00000000
vt 0.00000000 0.00000000
vt 0.00000000 0.00000000
vt 0.00000000 0.00000000
vt 0.00000000 0.00000000
vt 0.00000000 0.00000000
vt 0.00000000 0.00000000
vt 0.00000000 0.00000000
vt 0.00000000 0.00000000
vt 0.00000000 0.00000000
vt 0.00000000 0.00000000
vt 0.00000000 0.00000000
vt 0.00000000 0.00000000
vt 0.00000000 0.00000000
vt 0.00000000 0.00000000
vt 0.00000000 0.00000000
vt 0.00000000 0.00000000
vt 0.00000000 0.00000000
vt 0.00000000 0.00000000
vt 0.00000000 0.00000000
vt 0.00000000 0.00000000
vt 0.00000000 0.00000000
vt 0.00000000 0.00000000
vt 0.00000000 0.00000000
vt 0.00000000 0.00000000
vt 0.00000000 0.00000000
vt 0.00000000 0.00000000
vt 0.00000000 0.00000000
vt 0.00000000 0.00000000
vt 0.00000000 0.00000000
vt 0.00000000 0.00000000
vt 0.00000000 0.00000000
vt 0.00000000 0.00000000
vt 0.00000000 0.00000000
vt 0.00000000 0.00000000
vt 0.00000000 0.00000000
vt 0.00000000 0.00000000
vt 0.00000000 0.00000000
vt 0.00000000 0.00000000
vt 0.00000000 0.00000000
vt 0.00000000 0.00000000
vt 0.00000000 0.00000000
vt 0.00000000 0.00000000
vt 0.00000000 0.00000000
vt 0.00000000 0.00000000
vt 0.00000000 0.00000000
vt 0.00000000 0.00000000
vt 0.00000000 0.00000000
vt 0.00000000 0.00000000
vt 0.00000000 0.00000000
vt 0.00000000 0.00000000
vt 0.00000000 0.00000000
vt 0.00000000 0.00000000
vt 0.00000000 0.00000000
vt 0.00000000 0.00000000
vt 0.00000000 0.00000000
vt 0.00000000 0.00000000
vt 0.00000000 0.00000000
vt 0.00000000 0.00000000
vt 0.00000000 0.00000000
vt 0.00000000 0.00000000
vt 0.00000000 0.00000000
vt 0.00000000 0.00000000
vt 0.00000000 0.00000000
vt 0.00000000 0.00000000
vt 0.00000000 0.00000000
vt 0.00000000 0.00000000
vt 0.00000000 0.00000000
vt 0.00000000 0.00000000
vt 0.00000000 0.00000000
vt 0.00000000 0.00000000
vt 0.00000000 0.00000000
vt 0.00000000 0.00000000
vt 0.00000000 0.00000000
vt 0.00000000 0.00000000
vt 0.00000000 0.00000000
vt 0.00000000 0.00000000
vt 0.00000000 0.00000000
vt 0.00000000 0.00000000
vt 0.00000000 0.00000000
vt 0.00000000 0.00000000
vt 0.00000000 0.00000000
vt 0.00000000 0.00000000
vt 0.00000000 0.00000000
vt 0.00000000 0.00000000
vt 0.00000000 0.00000000
vt 0.00000000 0.00000000
vt 0.00000000 0.00000000
vt 0.00000000 0.00000000
vt 0.00000000 0.00000000
vt 0.00000000 0.00000000
vt 0.00000000 0.00000000
vt 0.00000000 0.00000000
vt 0.00000000 0.00000000
vt 0.00000000 0.00000000
vt 0.00000000 0.00000000
vt 0.00000000 0.00000000
vt 0.00000000 0.00000000
vt 0.00000000 0.00000000
vt 0.00000000 0.00000000
vt 0.00000000 0.00000000
vt 0.00000000 0.00000000
vt 0.00000000 0.00000000
vt 0.00000000 0.00000000
vt 0.00000000 0.00000000
vt 0.00000000 0.00000000
vt 0.00000000 0.00000000
vt 0.00000000 0.00000000
vt 0.00000000 0.00000000
vt 0.00000000 0.00000000
vt 0.00000000 0.00000000
vt 0.00000000 0.00000000
vt 0.00000000 0.00000000
vt 0.00000000 0.00000000
vt 0.00000000 0.00000000
vt 0.00000000 0.00000000
vt 0.00000000 0.00000000
vt 0.00000000 0.00000000
vt 0.00000000 0.00000000
vt 0.00000000 0.00000000
vt 0.00000000 0.00000000
vt 0.00000000 0.00000000
vt 0.00000000 0.00000000
vt 0.00000000 0.00000000
vt 0.00000000 0.00000000
vt 0.00000000 0.00000000
vt 0.00000000 0.00000000
vt 0.00000000 0.00000000
vt 0.00000000 0.00000000
vt 0.00000000 0.00000000
vt 0.00000000 0.00000000
vt 0.00000000 0.00000000
vt 0.00000000 0.00000000
vt 0.00000000 0.00000000
vt 0.00000000 0.00000000
vt 0.00000000 0.00000000
vt 0.00000000 0.00000000
vt 0.00000000 0.00000000
vt 0.00000000 0.00000000
vt 0.00000000 0.00000000
vt 0.00000000 0.00000000
vt 0.00000000 0.00000000
vt 0.00000000 0.00000000
vt 0.00000000 0.00000000
vt 0.00000000 0.00000000
vt 0.00000000 0.00000000
vt 0.00000000 0.00000000
vt 0.00000000 0.00000000
vt 0.00000000 0.00000000
vt 0.00000000 0.00000000
vt 0.00000000 0.00000000
vt 0.00000000 0.00000000
vt 0.00000000 0.00000000
vt 0.00000000 0.00000000
vt 0.00000000 0.00000000
vt 0.00000000 0.00000000
vt 0.00000000 0.00000000
vt 0.00000000 0.00000000
vt 0.00000000 0.00000000
vt 0.00000000 0.00000000
vt 0.00000000 0.00000000
vt 0.00000000 0.00000000
vt 0.00000000 0.00000000
vt 0.00000000 0.00000000
vt 0.00000000 0.00000000
vt 0.00000000 0.00000000
vt 0.00000000 0.00000000
vt 0.00000000 0.00000000
vt 0.00000000 0.00000000
vt 0.00000000 0.00000000
vt 0.00000000 0.00000000
vt 0.00000000 0.00000000
vt 0.00000000 0.00000000
vt 0.00000000 0.00000000
vt 0.00000000 0.00000000
vt 0.00000000 0.00000000
vt 0.00000000 0.00000000
vt 0.00000000 0.00000000
vt 0.00000000 0.00000000
vt 0.00000000 0.00000000
vt 0.00000000 0.00000000
vt 0.00000000 0.00000000
vt 0.00000000 0.00000000
vt 0.00000000 0.00000000
vt 0.00000000 0.00000000
vt 0.00000000 0.00000000
vt 0.00000000 0.00000000
vt 0.00000000 0.00000000
vt 0.00000000 0.00000000
vt 0.00000000 0.00000000
vt 0.00000000 0.00000000
vt 0.00000000 0.00000000
vt 0.00000000 0.00000000
vt 0.00000000 0.00000000
vt 0.00000000 0.00000000
vt 0.00000000 0.00000000
vt 0.00000000 0.00000000
vt 0.00000000 0.00000000
vt 0.00000000 0.00000000
vt 0.00000000 0.00000000
vt 0.00000000 0.00000000
vt 0.00000000 0.00000000
vt 0.00000000 0.00000000
vt 0.00000000 0.00000000
vt 0.00000000 0.00000000
vt 0.00000000 0.00000000
vt 0.00000000 0.00000000
vt 0.00000000 0.00000000
vt 0.00000000 0.00000000
vt 0.00000000 0.00000000
vt 0.00000000 0.00000000
vt 0.00000000 0.00000000
vt 0.00000000 0.00000000
vt 0.00000000 0.00000000
vt 0.00000000 0.00000000
vt 0.00000000 0.00000000
vt 0.00000000 0.00000000
vt 0.00000000 0.00000000
vt 0.00000000 0.00000000
vt 0.00000000 0.00000000
vt 0.00000000 0.00000000
vt 0.00000000 0.00000000
vt 0.00000000 0.00000000
vt 0.00000000 0.00000000
vt 0.00000000 0.00000000
vt 0.00000000 0.00000000
vt 0.00000000 0.00000000
vt 0.00000000 0.00000000
vt 0.00000000 0.00000000
vt 0.00000000 0.00000000
vt 0.00000000 0.00000000
vt 0.00000000 0.00000000
vt 0.00000000 0.00000000
vt 0.00000000 0.00000000
vt 0.00000000 0.00000000
vt 0.00000000 0.00000000
vt 0.00000000 0.00000000
vt 0.00000000 0.00000000
vt 0.00000000 0.00000000
vt 0.00000000 0.00000000
vt 0.00000000 0.00000000
vt 0.00000000 0.00000000
vt 0.00000000 0.00000000
vt 0.00000000 0.00000000
vt 0.00000000 0.00000000
vt 0.00000000 0.00000000
vt 0.00000000 0.00000000
vt 0.00000000 0.00000000
vt 0.00000000 0.00000000
vt 0.00000000 0.00000000
vt 0.00000000 0.00000000
vt 0.00000000 0.00000000
vt 0.00000000 0.00000000
vt 0.00000000 0.00000000
vt 0.00000000 0.00000000
vt 0.00000000 0.00000000
vt 0.00000000 0.00000000
vt 0.00000000 0.00000000
vt 0.00000000 0.00000000
vt 0.00000000 0.00000000
vt 0.00000000 0.00000000
vt 0.00000000 0.00000000
vt 0.00000000 0.00000000
vt 0.00000000 0.00000000
vt 0.00000000 0.00000000
vt 0.00000000 0.00000000
vt 0.00000000 0.00000000
vt 0.00000000 0.00000000
vt 0.00000000 0.00000000
vt 0.00000000 0.00000000
vt 0.00000000 0.00000000
vt 0.00000000 0.00000000
vt 0.00000000 0.00000000
vt 0.00000000 0.00000000
vt 0.00000000 0.00000000
vt 0.00000000 0.00000000
vt 0.00000000 0.00000000
vt 0.00000000 0.00000000
vt 0.00000000 0.00000000
vt 0.00000000 0.00000000
vt 0.00000000 0.00000000
vt 0.00000000 0.00000000
vt 0.00000000 0.00000000
vt 0.00000000 0.00000000
vt 0.00000000 0.00000000
vt 0.00000000 0.00000000
vt 0.00000000 0.00000000
vt 0.00000000 0.00000000
vt 0.00000000 0.00000000
vt 0.00000000 0.00000000
vt 0.00000000 0.00000000
vt 0.00000000 0.00000000
vt 0.00000000 0.00000000
vt 0.00000000 0.00000000
vt 0.00000000 0.00000000
vt 0.00000000 0.00000000
vt 0.00000000 0.00000000
vt 0.00000000 0.00000000
vt 0.00000000 0.00000000
vt 0.00000000 0.00000000
vt 0.00000000 0.00000000
vt 0.00000000 0.00000000
vt 0.00000000 0.00000000
vt 0.00000000 0.00000000
vt 0.00000000 0.00000000
vt 0.00000000 0.00000000
vt 0.00000000 0.00000000
vt 0.00000000 0.00000000
vt 0.00000000 0.00000000
vt 0.00000000 0.00000000
vt 0.00000000 0.00000000
vt 0.00000000 0.00000000
vt 0.00000000 0.00000000
vt 0.00000000 0.00000000
vt 0.00000000 0.00000000
vt 0.00000000 0.00000000
vt 0.00000000 0.00000000
vt 0.00000000 0.00000000
vt 0.00000000 0.00000000
vt 0.00000000 0.00000000
vt 0.00000000 0.00000000
vt 0.00000000 0.00000000
vt 0.00000000 0.00000000
vt 0.00000000 0.00000000
vt 0.00000000 0.00000000
vt 0.00000000 0.00000000
vt 0.00000000 0.00000000
vt 0.00000000 0.00000000
vt 0.00000000 0.00000000
vt 0.00000000 0.00000000
vt 0.00000000 0.00000000
vt 0.00000000 0.00000000
vt 0.00000000 0.00000000
vt 0.00000000 0.00000000
vt 0.00000000 0.00000000
vt 0.00000000 0.00000000
vt 0.00000000 0.00000000
vt 0.00000000 0.00000000
vt 0.00000000 0.00000000
vt 0.00000000 0.00000000
vt 0.00000000 0.00000000
vt 0.00000000 0.00000000
vt 0.00000000 0.00000000
vt 0.00000000 0.00000000
vt 0.00000000 0.00000000
vt 0.00000000 0.00000000
vt 0.00000000 0.00000000
vt 0.00000000 0.00000000
vt 0.00000000 0.00000000
vt 0.00000000 0.00000000
vt 0.00000000 0.00000000
vt 0.00000000 0.00000000
vt 0.00000000 0.00000000
vt 0.00000000 0.00000000
vt 0.00000000 0.00000000
vt 0.00000000 0.00000000
vt 0.00000000 0.00000000
vt 0.00000000 0.00000000
vt 0.00000000 0.00000000
vt 0.00000000 0.00000000
vt 0.00000000 0.00000000
vt 0.00000000 0.00000000
vt 0.00000000 0.00000000
vt 0.00000000 0.00000000
vt 0.00000000 0.00000000
vt 0.00000000 0.00000000
vt 0.00000000 0.00000000
vt 0.00000000 0.00000000
vt 0.00000000 0.00000000
vt 0.00000000 0.00000000
vt 0.00000000 0.00000000
vt 0.00000000 0.00000000
vt 0.00000000 0.00000000
vt 0.00000000 0.00000000
vt 0.00000000 0.00000000
vt 0.00000000 0.00000000
vt 0.00000000 0.00000000
vt 0.00000000 0.00000000
vt 0.00000000 0.00000000
vt 0.00000000 0.00000000
vt 0.00000000 0.00000000
vt 0.00000000 0.00000000
vt 0.00000000 0.00000000
vt 0.00000000 0.00000000
vt 0.00000000 0.00000000
vt 0.00000000 0.00000000
vt 0.00000000 0.00000000
vt 0.00000000 0.00000000
vt 0.00000000 0.00000000
vt 0.00000000 0.00000000
vt 0.00000000 0.00000000
vt 0.00000000 0.00000000
vt 0.00000000 0.00000000
vt 0.00000000 0.00000000
vt 0.00000000 0.00000000
vt 0.00000000 0.00000000
vt 0.00000000 0.00000000
vt 0.00000000 0.00000000
vt 0.00000000 0.00000000
vt 0.00000000 0.00000000
vt 0.00000000 0.00000000
vt 0.00000000 0.00000000
vt 0.00000000 0.00000000
vt 0.00000000 0.00000000
vt 0.00000000 0.00000000
vt 0.00000000 0.00000000
vt 0.00000000 0.00000000
vt 0.00000000 0.00000000
vt 0.00000000 0.00000000
vt 0.00000000 0.00000000
vt 0.00000000 0.00000000
vt 0.00000000 0.00000000
vt 0.00000000 0.00000000
vt 0.00000000 0.00000000
vt 0.00000000 0.00000000
vt 0.00000000 0.00000000
vt 0.00000000 0.00000000
vt 0.00000000 0.00000000
vt 0.00000000 0.00000000
vt 0.00000000 0.00000000
vt 0.00000000 0.00000000
vt 0.00000000 0.00000000
vt 0.00000000 0.00000000
vt 0.00000000 0.00000000
vt 0.00000000 0.00000000
vt 0.00000000 0.00000000
vt 0.00000000 0.00000000
vt 0.00000000 0.00000000
vt 0.00000000 0.00000000
vt 0.00000000 0.00000000
vt 0.00000000 0.00000000
vt 0.00000000 0.00000000
vt 0.00000000 0.00000000
vt 0.00000000 0.00000000
vt 0.00000000 0.00000000
vt 0.00000000 0.00000000
vt 0.00000000 0.00000000
vt 0.00000000 0.00000000
vt 0.00000000 0.00000000
vt 0.00000000 0.00000000
vt 0.00000000 0.00000000
vt 0.00000000 0.00000000
vt 0.00000000 0.00000000
vt 0.00000000 0.00000000
vt 0.00000000 0.00000000
vt 0.00000000 0.00000000
vt 0.00000000 0.00000000
vt 0.00000000 0.00000000
vt 0.00000000 0.00000000
vt 0.00000000 0.00000000
vt 0.00000000 0.00000000
vt 0.00000000 0.00000000
vt 0.00000000 0.00000000
vt 0.00000000 0.00000000
vt 0.00000000 0.00000000
vt 0.00000000 0.00000000
vt 0.00000000 0.00000000
vt 0.00000000 0.00000000
vt 0.00000000 0.00000000
vt 0.00000000 0.00000000
vt 0.00000000 0.00000000
vt 0.00000000 0.00000000
vt 0.00000000 0.00000000
vt 0.00000000 0.00000000
vt 0.00000000 0.00000000
vt 0.00000000 0.00000000
vt 0.00000000 0.00000000
vt 0.00000000 0.00000000
vt 0.00000000 0.00000000
vt 0.00000000 0.00000000
vt 0.00000000 0.00000000
vt 0.00000000 0.00000000
vt 0.00000000 0.00000000
vt 0.00000000 0.00000000
vt 0.00000000 0.00000000
vt 0.00000000 0.00000000
vt 0.00000000 0.00000000
vt 0.00000000 0.00000000
vt 0.00000000 0.00000000
vt 0.00000000 0.00000000
vt 0.00000000 0.00000000
vt 0.00000000 0.00000000
vt 0.00000000 0.00000000
vt 0.00000000 0.00000000
vt 0.00000000 0.00000000
vt 0.00000000 0.00000000
vt 0.00000000 0.00000000
vt 0.00000000 0.00000000
vt 0.00000000 0.00000000
vt 0.00000000 0.00000000
vt 0.00000000 0.00000000
vt 0.00000000 0.00000000
vt 0.00000000 0.00000000
vt 0.00000000 0.00000000
vt 0.00000000 0.00000000
vt 0.00000000 0.00000000
vt 0.00000000 0.00000000
vt 0.00000000 0.00000000
vt 0.00000000 0.00000000
vt 0.00000000 0.00000000
vt 0.00000000 0.00000000
vt 0.00000000 0.00000000
vt 0.00000000 0.00000000
vt 0.00000000 0.00000000
vt 0.00000000 0.00000000
vt 0.00000000 0.00000000
vt 0.00000000 0.00000000
vt 0.00000000 0.00000000
vt 0.00000000 0.00000000
vt 0.00000000 0.00000000
vt 0.00000000 0.00000000
vt 0.00000000 0.00000000
vt 0.00000000 0.00000000
vt 0.00000000 0.00000000
vt 0.00000000 0.00000000
vt 0.00000000 0.00000000
vt 0.00000000 0.00000000
f 1/1 2/2 3/3
f 4/4 5/5 6/6
f 6/6 5/5 7/7
f 6/6 7/7 8/8
f 8/8 7/7 9/9
f 10/10 11/11 12/12
f 13/13 14/14 15/15
f 15/15 14/14 16/16
f 15/15 16/16 17/17
f 18/18 19/19 20/20
f 20/20 19/19 21/21
f 20/20 21/21 22/22
f 23/23 24/24 25/25
f 25/25 24/24 26/26
f 25/25 26/26 27/27
f 27/27 26/26 28/28
f 27/27 28/28 29/29
f 30/30 31/31 32/32
f 32/32 31/31 33/33
f 34/34 35/35 36/36
f 36/36 35/35 37/37
f 36/36 37/37 38/38
f 38/38 37/37 39/39
f 40/40 41/41 42/42
f 42/42 41/41 43/43
f 42/42 43/43 44/44
f 45/45 46/46 47/47
f 47/47 46/46 48/48
f 49/49 50/50 51/51
f 51/51 50/50 52/52
f 53/53 54/54 55/55
f 55/55 54/54 56/56
f 55/55 56/56 57/57
f 57/57 56/56 58/58
f 59/59 60/60 61/61
f 62/62 63/63 64/64
f 64/64 63/63 65/65
f 64/64 65/65 66/66
f 67/67 68/68 69/69
f 69/69 68/68 70/70
f 71/71 72/72 73/73
f 73/73 72/72 74/74
f 75/75 76/76 77/77
f 77/77 76/76 78/78
f 79/79 80/80 81/81
f 82/82 83/83 84/84
f 84/84 83/83 85/85
f 84/84 85/85 86/86
f 86/86 85/85 87/87
f 86/86 87/87 88/88
f 88/88 87/87 89/89
f 88/88 89/89 90/90
f 90/90 89/89 91/91
f 90/90 91/91 92/92
f 92/92 91/91 93/93
f 92/92 93/93 94/94
f 95/95 96/96 97/97
f 98/98 99/99 100/100
f 100/100 99/99 101/101
f 100/100 101/101 102/102
f 102/102 101/101 103/103
f 102/102 103/103 104/104
f 105/105 106/106 107/107
f 108/108 109/109 110/110
f 110/110 109/109 111/111
f 110/110 111/111 112/112
f 112/112 111/111 113/113
f 112/112 113/113 114/114
f 114/114 113/113 115/115
f 114/114 115/115 116/116
f 116/116 115/115 117/117
f 116/116 117/117 118/118
f 118/118 117/117 119/119
f 118/118 119/119 120/120
f 121/121 122/122 123/123
f 123/123 122/122 124/124
f 123/123 124/124 125/125
f 125/125 124/124 126/126
f 125/125 126/126 127/127
f 127/127 126/126 128/128
f 127/127 128/128 129/129
f 129/129 128/128 130/130
f 129/129 130/130 131/131
f 132/132 133/133 134/134
f 134/134 133/133 135/135
f 134/134 135/135 136/136
f 136/136 135/135 137/137
f 136/136 137/137 138/138
f 138/138 137/137 139/139
f 138/138 139/139 140/140
f 140/140 139/139 141/141
f 140/140 141/141 142/142
f 142/142 141/141 143/143
f 144/144 145/145 146/146
f 146/146 145/145 147/147
f 146/146 147/147 148/148
f 148/148 147/147 149/149
f 148/148 149/149 150/150
f 150/150 149/149 151/151
f 150/150 151/151 152/152
f 152/152 151/151 153/153
f 152/152 153/153 154/154
f 154/154 153/153 155/155
f 154/154 155/155 156/156
f 157/157 158/158 159/159
f 160/160 161/161 162/162
f 162/162 161/161 163/163
f 164/164 165/165 166/166
f 166/166 165/165 167/167
f 166/166 167/167 168/168
f 168/168 167/167 169/169
f 168/168 169/169 170/170
f 170/170 169/169 171/171
f 170/170 171/171 172/172
f 172/172 171/171 173/173
f 172/172 173/173 174/174
f 175/175 176/176 177/177
f 177/177 176/176 178/178
f 177/177 178/178 179/179
f 179/179 178/178 180/180
f 179/179 180/180 181/181
f 181/181 180/180 182/182
f 181/181 182/182 183/183
f 183/183 182/182 184/184
f 183/183 184/184 185/185
f 185/185 184/184 186/186
f 187/187 188/188 189/189
f 189/189 188/188 190/190
f 189/189 190/190 191/191
f 191/191 190/190 192/192
f 191/191 192/192 193/193
f 193/193 192/192 194/194
f 193/193 194/194 195/195
f 195/195 194/194 196/196
f 195/195 196/196 197/197
f 197/197 196/196 198/198
f 197/197 198/198 199/199
f 200/200 201/201 202/202
f 203/203 204/204 205/205
f 205/205 204/204 206/206
f 207/207 208/208 209/209
f 210/210 211/211 212/212
f 212/212 211/211 213/213
f 212/212 213/213 214/214
f 214/214 213/213 215/215
f 214/214 215/215 216/216
f 216/216 215/215 217/217
f 216/216 217/217 218/218
f 218/218 217/217 219/219
f 218/218 219/219 220/220
f 220/220 219/219 221/221
f 220/220 221/221 222/222
f 223/223 224/224 225/225
f 226/226 227/227 228/228
f 228/228 227/227 229/229
f 228/228 229/229 230/230
f 230/230 229/229 231/231
f 230/230 231/231 232/232
f 232/232 231/231 233/233
f 232/232 233/233 234/234
f 234/234 233/233 235/235
f 234/234 235/235 236/236
f 236/236 235/235 237/237
f 236/236 237/237 238/238
f 239/239 240/240 241/241
f 242/242 243/243 244/244
f 244/244 243/243 245/245
f 244/244 245/245 246/246
f 247/247 248/248 249/249
f 249/249 248/248 250/250
f 249/249 250/250 251/251
f 252/252 253/253 254/254
f 254/254 253/253 255/255
f 254/254 255/255 256/256
f 257/257 258/258 259/259
f 260/260 261/261 262/262
f 262/262 261/261 263/263
f 262/262 263/263 264/264
f 264/264 263/263 265/265
f 264/264 265/265 266/266
f 266/266 265/265 267/267
f 266/266 267/267 268/268
f 268/268 267/267 269/269
f 268/268 269/269 270/270
f 270/270 269/269 271/271
f 270/270 271/271 272/272
f 273/273 274/274 275/275
f 276/276 277/277 278/278
f 278/278 277/277 279/279
f 278/278 279/279 280/280
f 280/280 279/279 281/281
f 280/280 281/281 282/282
f 282/282 281/281 283/283
f 282/282 283/283 284/284
f 284/284 283/283 285/285
f 284/284 285/285 286/286
f 286/286 285/285 287/287
f 286/286 287/287 288/288
f 289/289 290/290 291/291
f 292/292 293/293 294/294
f 294/294 293/293 295/295
f 294/294 295/295 296/296
f 296/296 295/295 297/297
f 296/296 297/297 298/298
f 299/299 300/300 301/301
f 301/301 300/300 302/302
f 301/301 302/302 303/303
f 303/303 302/302 304/304
f 303/303 304/304 305/305
f 305/305 304/304 306/306
f 305/305 306/306 307/307
f 307/307 306/306 308/308
f 307/307 308/308 309/309
f 310/310 311/311 312/312
f 312/312 311/311 313/313
f 312/312 313/313 314/314
f 314/314 313/313 315/315
f 314/314 315/315 316/316
f 316/316 315/315 317/317
f 316/316 317/317 318/318
f 318/318 317/317 319/319
f 318/318 319/319 320/320
f 320/320 319/319 321/321
f 322/322 323/323 324/324
f 324/324 323/323 325/325
f 324/324 325/325 326/326
f 326/326 325/325 327/327
f 326/326 327/327 328/328
f 328/328 327/327 329/329
f 328/328 329/329 330/330
f 330/330 329/329 331/331
f 330/330 331/331 332/332
f 332/332 331/331 333/333
f 332/332 333/333 334/334
f 335/335 336/336 337/337
f 338/338 339/339 340/340
f 340/340 339/339 341/341
f 342/342 343/343 344/344
f 345/345 346/346 347/347
f 348/348 349/349 350/350
f 350/350 349/349 351/351
f 350/350 351/351 352/352
f 352/352 351/351 353/353
f 352/352 353/353 354/354
f 354/354 353/353 355/355
f 354/354 355/355 356/356
f 357/357 358/358 359/359
f 359/359 358/358 360/360
f 359/359 360/360 361/361
f 361/361 360/360 362/362
f 361/361 362/362 363/363
f 363/363 362/362 364/364
f 363/363 364/364 365/365
f 365/365 364/364 366/366
f 365/365 366/366 367/367
f 368/368 369/369 370/370
f 370/370 369/369 371/371
f 370/370 371/371 372/372
f 372/372 371/371 373/373
f 372/372 373/373 374/374
f 374/374 373/373 375/375
f 374/374 375/375 376/376
f 376/376 375/375 377/377
f 376/376 377/377 378/378
f 378/378 377/377 379/379
f 380/380 381/381 382/382
f 382/382 381/381 383/383
f 382/382 383/383 384/384
f 384/384 383/383 385/385
f 384/384 385/385 386/386
f 386/386 385/385 387/387
f 386/386 387/387 388/388
f 388/388 387/387 389/389
f 388/388 389/389 390/390
f 390/390 389/389 391/391
f 390/390 391/391 392/392
f 393/393 394/394 395/395
f 396/396 397/397 398/398
f 398/398 397/397 399/399
f 398/398 399/399 400/400
f 400/400 399/399 401/401
f 402/402 403/403 404/404
f 405/405 406/406 407/407
f 408/408 409/409 410/410
f 411/411 412/412 413/413
f 413/413 412/412 414/414
f 413/413 414/414 415/415
f 415/415 414/414 416/416
f 415/415 416/416 417/417
f 417/417 416/416 418/418
f 417/417 418/418 419/419
f 419/419 418/418 420/420
f 419/419 420/420 421/421
f 421/421 420/420 422/422
f 421/421 422/422 423/423
f 424/424 425/425 426/426
f 426/426 425/425 427/427
f 426/426 427/427 428/428
f 428/428 427/427 429/429
f 428/428 429/429 430/430
f 430/430 429/429 431/431
f 430/430 431/431 432/432
f 432/432 431/431 433/433
f 432/432 433/433 434/434
f 434/434 433/433 435/435
f 434/434 435/435 436/436
f 437/437 438/438 439/439
f 439/439 438/438 440/440
f 439/439 440/440 441/441
f 441/441 440/440 442/442
f 441/441 442/442 443/443
f 443/443 442/442 444/444
f 443/443 444/444 445/445
f 445/445 444/444 446/446
f 445/445 446/446 447/447
f 447/447 446/446 448/448
f 447/447 448/448 449/449
f 450/450 451/451 452/452
f 452/452 451/451 453/453
f 452/452 453/453 454/454
f 454/454 453/453 455/455
f 454/454 455/455 456/456
f 456/456 455/455 457/457
f 456/456 457/457 458/458
f 458/458 457/457 459/459
f 458/458 459/459 460/460
f 461/461 462/462 463/463
f 463/463 462/462 464/464
f 463/463 464/464 465/465
f 465/465 464/464 466/466
f 465/465 466/466 467/467
f 467/467 466/466 468/468
f 467/467 468/468 469/469
f 469/469 468/468 470/470
f 469/469 470/470 471/471
f 471/471 470/470 472/472
f 473/473 474/474 475/475
f 475/475 474/474 476/476
f 475/475 476/476 477/477
f 477/477 476/476 478/478
f 477/477 478/478 479/479
f 479/479 478/478 480/480
f 479/479 480/480 481/481
f 481/481 480/480 482/482
f 481/481 482/482 483/483
f 483/483 482/482 484/484
f 483/483 484/484 485/485
f 486/486 487/487 488/488
f 489/489 490/490 491/491
f 491/491 490/490 492/492
f 493/493 494/494 495/495
f 496/496 497/497 498/498
f 498/498 497/497 499/499
f 498/498 499/499 500/500
f 500/500 499/499 501/501
f 500/500 501/501 502/502
f 502/502 501/501 503/503
f 502/502 503/503 504/504
f 504/504 503/503 505/505
f 504/504 505/505 506/506
f 506/506 505/505 507/507
f 506/506 507/507 508/508
f 509/509 510/510 511/511
f 512/512 513/513 514/514
f 514/514 513/513 515/515
f 514/514 515/515 516/516
f 516/516 515/515 517/517
f 516/516 517/517 518/518
f 518/518 517/517 519/519
f 518/518 519/519 520/520
f 520/520 519/519 521/521
f 520/520 521/521 522/522
f 522/522 521/521 523/523
f 522/522 523/523 524/524
f 525/525 526/526 527/527
f 528/528 529/529 530/530
f 530/530 529/529 531/531
f 530/530 531/531 532/532
f 532/532 531/531 533/533
f 532/532 533/533 534/534
f 534/534 533/533 535/535
f 534/534 535/535 536/536
f 536/536 535/535 537/537
f 536/536 537/537 538/538
f 538/538 537/537 539/539
f 538/538 539/539 540/540
f 541/541 542/542 543/543
f 544/544 545/545 546/546
f 546/546 545/545 547/547
f 546/546 547/547 548/548
f 548/548 547/547 549/549
f 548/548 549/549 550/550
f 550/550 549/549 551/551
f 550/550 551/551 552/552
f 552/552 551/551 553/553
f 552/552 553/553 554/554
f 554/554 553/553 555/555
f 554/554 555/555 556/556
f 557/557 558/558 559/559
f 560/560 561/561 562/562
f 563/563 564/564 565/565
f 566/566 567/567 568/568
f 568/568 567/567 569/569
f 568/568 569/569 570/570
f 570/570 569/569 571/571
f 570/570 571/571 572/572
f 572/572 571/571 573/573
f 572/572 573/573 574/574
f 574/574 573/573 575/575
f 574/574 575/575 576/576
f 576/576 575/575 577/577
f 576/576 577/577 578/578
f 579/579 580/580 581/581
f 581/581 580/580 582/582
f 581/581 582/582 583/583
f 583/583 582/582 584/584
f 583/583 584/584 585/585
f 585/585 584/584 586/586
f 585/585 586/586 587/587
f 587/587 586/586 588/588
f 587/587 588/588 589/589
f 589/589 588/588 590/590
f 589/589 590/590 591/591
f 592/592 593/593 594/594
f 594/594 593/593 595/595
f 594/594 595/595 596/596
f 596/596 595/595 597/597
f 596/596 597/597 598/598
f 598/598 597/597 599/599
f 598/598 599/599 600/600
f 600/600 599/599 601/601
f 600/600 601/601 602/602
f 602/602 601/601 603/603
f 602/602 603/603 604/604
f 605/605 606/606 607/607
f 608/608 609/609 610/610
f 611/611 612/612 613/613
f 613/613 612/612 614/614
f 613/613 614/614 615/615
f 615/615 614/614 616/616
f 615/615 616/616 617/617
f 617/617 616/616 618/618
f 617/617 618/618 619/619
f 620/620 621/621 622/622
f 622/622 621/621 623/623
f 622/622 623/623 624/624
f 624/624 623/623 625/625
f 624/624 625/625 626/626
f 626/626 625/625 627/627
f 626/626 627/627 628/628
f 628/628 627/627 629/629
f 628/628 629/629 630/630
f 631/631 632/632 633/633
f 633/633 632/632 634/634
f 633/633 634/634 635/635
f 635/635 634/634 636/636
f 635/635 636/636 637/637
f 637/637 636/636 638/638
f 637/637 638/638 639/639
f 639/639 638/638 640/640
f 639/639 640/640 641/641
f 641/641 640/640 642/642
f 643/643 644/644 645/645
f 645/645 644/644 646/646
f 645/645 646/646 647/647
f 647/647 646/646 648/648
f 647/647 648/648 649/649
f 649/649 648/648 650/650
f 649/649 650/650 651/651
f 651/651 650/650 652/652
f 651/651 652/652 653/653
f 653/653 652/652 654/654
f 653/653 654/654 655/655
f 656/656 657/657 658/658
f 659/659 660/660 661/661
f 661/661 660/660 662/662
f 661/661 662/662 663/663
f 663/663 662/662 664/664
f 665/665 666/666 667/667
f 668/668 669/669 670/670
f 670/670 669/669 671/671
f 670/670 671/671 672/672
f 673/673 674/674 675/675
f 675/675 674/674 676/676
f 675/675 676/676 677/677
f 678/678 679/679 680/680
f 680/680 679/679 681/681
f 680/680 681/681 682/682

