# https://github.com/mikedh/trimesh
mtllib material.mtl
usemtl metallic warm grey
v -2.51443979 10.29004323 2.89548987
v -2.51443979 8.85061026 2.89548987
v -0.35529015 10.29004323 2.89548987
v -0.35529015 10.29004323 2.89548987
v -2.51443979 8.85061026 2.89548987
v 0.36442629 10.29004323 2.89548987
v -0.35529015 10.29004323 2.89548987
v 0.36442629 10.29004323 2.89548987
v -0.35529015 10.43398640 2.89548987
v -0.35529015 10.43398640 2.89548987
v 0.36442629 10.29004323 2.89548987
v 0.36442629 10.43398640 2.89548987
v 8.25328834 9.57032675 2.89548987
v 8.25328834 9.49835482 2.89548987
v 11.73594683 8.85061026 2.89548987
v 11.73594683 8.85061026 2.89548987
v 8.25328834 9.49835482 2.89548987
v 8.23889437 9.49835482 2.89548987
v 7.56159106 9.42638358 2.89548987
v 6.85626923 9.42638358 2.89548987
v 7.56159106 9.41198893 2.89548987
v 7.56159106 9.41198893 2.89548987
v 6.85626923 9.42638358 2.89548987
v 6.85626923 9.41198893 2.89548987
v 7.56878839 10.29004323 2.89548987
v 7.56878839 9.42638358 2.89548987
v 7.57598572 9.42638358 2.89548987
v 6.12215808 9.41198893 2.89548987
v 6.12215808 9.42638358 2.89548987
v 5.41683591 9.42638358 2.89548987
v 5.41683591 9.41198893 2.89548987
v 5.40244159 9.41198893 2.89548987
v -2.51443979 8.85061026 2.89548987
v 11.73594683 8.85061026 2.89548987
v 11.73594683 10.29004323 2.89548987
v 8.25328834 9.57032675 2.89548987
v 8.25328834 9.57032675 2.89548987
v 11.73594683 10.29004323 2.89548987
v 7.56878839 10.29004323 2.89548987
v 8.25328834 9.57032675 2.89548987
v 7.56878839 10.29004323 2.89548987
v 8.23889437 9.57032675 2.89548987
v 8.23889437 9.57032675 2.89548987
v 7.56878839 10.29004323 2.89548987
v 7.57598572 9.42638358 2.89548987
v 8.23889437 9.57032675 2.89548987
v 7.57598572 9.42638358 2.89548987
v 8.23889437 9.49835482 2.89548987
v 8.23889437 9.49835482 2.89548987
v 7.57598572 9.42638358 2.89548987
v 7.57598572 9.41198893 2.89548987
v 8.23889437 9.49835482 2.89548987
v 7.57598572 9.41198893 2.89548987
v 11.73594683 8.85061026 2.89548987
v 11.73594683 8.85061026 2.89548987
v 7.57598572 9.41198893 2.89548987
v 7.56159106 9.41198893 2.89548987
v 11.73594683 8.85061026 2.89548987
v 7.56159106 9.41198893 2.89548987
v -2.51443979 8.85061026 2.89548987
v -2.51443979 8.85061026 2.89548987
v 7.56159106 9.41198893 2.89548987
v 6.85626923 9.41198893 2.89548987
v -2.51443979 8.85061026 2.89548987
v 6.85626923 9.41198893 2.89548987
v 6.84187457 9.41198893 2.89548987
v 5.41683591 9.42638358 2.89548987
v 5.41683591 9.41198893 2.89548987
v 6.12215808 9.41198893 2.89548987
v 6.12215808 9.41198893 2.89548987
v 5.41683591 9.41198893 2.89548987
v -2.51443979 8.85061026 2.89548987
v 6.12215808 9.41198893 2.89548987
v -2.51443979 8.85061026 2.89548987
v 6.13655240 9.41198893 2.89548987
v 6.13655240 9.41198893 2.89548987
v -2.51443979 8.85061026 2.89548987
v 6.84187457 9.41198893 2.89548987
v 6.13655240 9.41198893 2.89548987
v 6.84187457 9.41198893 2.89548987
v 6.13655240 9.42638358 2.89548987
v 6.13655240 9.42638358 2.89548987
v 6.84187457 9.41198893 2.89548987
v 6.84187457 9.42638358 2.89548987
v 4.68272510 9.41198893 2.89548987
v 4.68272510 9.42638358 2.89548987
v 3.97740293 9.42638358 2.89548987
v 3.97740293 9.41198893 2.89548987
v 3.96300861 9.41198893 2.89548987
v -2.51443979 8.85061026 2.89548987
v 3.97740293 9.42638358 2.89548987
v 3.97740293 9.41198893 2.89548987
v 4.68272510 9.41198893 2.89548987
v 4.68272510 9.41198893 2.89548987
v 3.97740293 9.41198893 2.89548987
v -2.51443979 8.85061026 2.89548987
v 4.68272510 9.41198893 2.89548987
v -2.51443979 8.85061026 2.89548987
v 4.69711942 9.41198893 2.89548987
v 4.69711942 9.41198893 2.89548987
v -2.51443979 8.85061026 2.89548987
v 5.40244159 9.41198893 2.89548987
v 4.69711942 9.41198893 2.89548987
v 5.40244159 9.41198893 2.89548987
v 4.69711942 9.42638358 2.89548987
v 4.69711942 9.42638358 2.89548987
v 5.40244159 9.41198893 2.89548987
v 5.40244159 9.42638358 2.89548987
v 3.24329229 9.42638358 2.89548987
v 3.25048945 9.42638358 2.89548987
v 3.25048945 9.61809777 2.89548987
v 3.23609514 9.61809777 2.89548987
v 3.23609514 9.63249243 2.89548987
v 0.36442629 10.29004323 2.89548987
v 3.25048945 9.61809777 2.89548987
v 3.23609514 9.61809777 2.89548987
v 3.24329229 9.42638358 2.89548987
v 3.24329229 9.42638358 2.89548987
v 3.23609514 9.61809777 2.89548987
v 0.36442629 10.29004323 2.89548987
v 3.24329229 9.42638358 2.89548987
v 0.36442629 10.29004323 2.89548987
v 3.24329229 9.41198893 2.89548987
v 3.24329229 9.41198893 2.89548987
v 0.36442629 10.29004323 2.89548987
v -2.51443979 8.85061026 2.89548987
v 3.24329229 9.41198893 2.89548987
v -2.51443979 8.85061026 2.89548987
v 3.25768661 9.41198893 2.89548987
v 3.25768661 9.41198893 2.89548987
v -2.51443979 8.85061026 2.89548987
v 3.96300861 9.41198893 2.89548987
v 3.25768661 9.41198893 2.89548987
v 3.96300861 9.41198893 2.89548987
v 3.25768661 9.42638358 2.89548987
v 3.25768661 9.42638358 2.89548987
v 3.96300861 9.41198893 2.89548987
v 3.96300861 9.42638358 2.89548987
v 3.25048945 10.18667377 2.89548987
v 3.25048945 10.29004323 2.89548987
v 3.23609514 10.18667377 2.89548987
v 3.23609514 10.18667377 2.89548987
v 3.25048945 10.29004323 2.89548987
v 0.36442629 10.29004323 2.89548987
v 3.23609514 10.18667377 2.89548987
v 0.36442629 10.29004323 2.89548987
v 3.23609514 10.17227979 2.89548987
v 3.23609514 10.17227979 2.89548987
v 0.36442629 10.29004323 2.89548987
v 3.23609514 9.63249243 2.89548987
v 3.23609514 10.17227979 2.89548987
v 3.23609514 9.63249243 2.89548987
v 3.25048945 10.17227979 2.89548987
v 3.25048945 10.17227979 2.89548987
v 3.23609514 9.63249243 2.89548987
v 3.25048945 9.63249243 2.89548987
v -2.51443979 10.29004323 2.78194135
v 3.25048945 10.29004323 2.78194135
v -2.51443979 8.85061026 2.78194135
v -2.51443979 8.85061026 2.78194135
v 3.25048945 10.29004323 2.78194135
v 3.25048945 9.42638358 2.78194135
v 7.56878839 10.29004323 2.78194135
v 11.73594683 10.29004323 2.78194135
v 7.56878839 9.42638358 2.78194135
v 7.56878839 9.42638358 2.78194135
v 11.73594683 10.29004323 2.78194135
v 11.73594683 8.85061026 2.78194135
v 7.56878839 9.42638358 2.78194135
v 11.73594683 8.85061026 2.78194135
v 6.84907190 9.42638358 2.78194135
v 6.84907190 9.42638358 2.78194135
v 11.73594683 8.85061026 2.78194135
v 6.12935541 9.42638358 2.78194135
v 3.25048945 9.42638358 2.78194135
v 3.97020594 9.42638358 2.78194135
v -2.51443979 8.85061026 2.78194135
v -2.51443979 8.85061026 2.78194135
v 3.97020594 9.42638358 2.78194135
v 4.68992243 9.42638358 2.78194135
v -2.51443979 8.85061026 2.78194135
v 4.68992243 9.42638358 2.78194135
v 11.73594683 8.85061026 2.78194135
v 11.73594683 8.85061026 2.78194135
v 4.68992243 9.42638358 2.78194135
v 5.40963892 9.42638358 2.78194135
v 11.73594683 8.85061026 2.78194135
v 5.40963892 9.42638358 2.78194135
v 6.12935541 9.42638358 2.78194135
v 11.73594683 8.85061026 2.78194135
v 11.73594683 8.85061026 2.89548987
v -2.51443979 8.85061026 2.78194135
v -2.51443979 8.85061026 2.78194135
v 11.73594683 8.85061026 2.89548987
v -2.51443979 8.85061026 2.89548987
vt -4.80000019 11.00000000
vt -4.80000019 9.00000000
vt -1.79999995 11.00000000
vt -1.79999995 11.00000000
vt -4.80000019 9.00000000
vt -0.80000001 11.00000000
vt -1.79999995 11.00000000
vt -0.80000001 11.00000000
vt -1.79999995 11.19999981
vt -1.79999995 11.19999981
vt -0.80000001 11.00000000
vt -0.80000001 11.19999981
vt 10.16106892 10.00000000
vt 10.16106892 9.89999962
vt 15.00000000 9.00000000
vt 15.00000000 9.00000000
vt 10.16106892 9.89999962
vt 10.14106941 9.89999962
vt 9.19999981 9.80000019
vt 8.22000027 9.80000019
vt 9.19999981 9.77999973
vt 9.19999981 9.77999973
vt 8.22000027 9.80000019
vt 8.22000027 9.77999973
vt 9.21000004 11.00000000
vt 9.21000004 9.80000019
vt 9.22000027 9.80000019
vt 7.19999981 9.77999973
vt 7.19999981 9.80000019
vt 6.21999979 9.80000019
vt 6.21999979 9.77999973
vt 6.19999981 9.77999973
vt -4.80000019 9.00000000
vt 15.00000000 9.00000000
vt 15.00000000 11.00000000
vt 10.16106892 10.00000000
vt 10.16106892 10.00000000
vt 15.00000000 11.00000000
vt 9.21000004 11.00000000
vt 10.16106892 10.00000000
vt 9.21000004 11.00000000
vt 10.14106941 10.00000000
vt 10.14106941 10.00000000
vt 9.21000004 11.00000000
vt 9.22000027 9.80000019
vt 10.14106941 10.00000000
vt 9.22000027 9.80000019
vt 10.14106941 9.89999962
vt 10.14106941 9.89999962
vt 9.22000027 9.80000019
vt 9.22000027 9.77999973
vt 10.14106941 9.89999962
vt 9.22000027 9.77999973
vt 15.00000000 9.00000000
vt 15.00000000 9.00000000
vt 9.22000027 9.77999973
vt 9.19999981 9.77999973
vt 15.00000000 9.00000000
vt 9.19999981 9.77999973
vt -4.80000019 9.00000000
vt -4.80000019 9.00000000
vt 9.19999981 9.77999973
vt 8.22000027 9.77999973
vt -4.80000019 9.00000000
vt 8.22000027 9.77999973
vt 8.19999981 9.77999973
vt 6.21999979 9.80000019
vt 6.21999979 9.77999973
vt 7.19999981 9.77999973
vt 7.19999981 9.77999973
vt 6.21999979 9.77999973
vt -4.80000019 9.00000000
vt 7.19999981 9.77999973
vt -4.80000019 9.00000000
vt 7.21999979 9.77999973
vt 7.21999979 9.77999973
vt -4.80000019 9.00000000
vt 8.19999981 9.77999973
vt 7.21999979 9.77999973
vt 8.19999981 9.77999973
vt 7.21999979 9.80000019
vt 7.21999979 9.80000019
vt 8.19999981 9.77999973
vt 8.19999981 9.80000019
vt 5.19999981 9.77999973
vt 5.19999981 9.80000019
vt 4.21999979 9.80000019
vt 4.21999979 9.77999973
vt 4.19999981 9.77999973
vt -4.80000019 9.00000000
vt 4.21999979 9.80000019
vt 4.21999979 9.77999973
vt 5.19999981 9.77999973
vt 5.19999981 9.77999973
vt 4.21999979 9.77999973
vt -4.80000019 9.00000000
vt 5.19999981 9.77999973
vt -4.80000019 9.00000000
vt 5.21999979 9.77999973
vt 5.21999979 9.77999973
vt -4.80000019 9.00000000
vt 6.19999981 9.77999973
vt 5.21999979 9.77999973
vt 6.19999981 9.77999973
vt 5.21999979 9.80000019
vt 5.21999979 9.80000019
vt 6.19999981 9.77999973
vt 6.19999981 9.80000019
vt 3.20000005 9.80000019
vt 3.21000004 9.80000019
vt 3.21000004 10.06637478
vt 3.19000006 10.06637478
vt 3.19000006 10.08637524
vt -0.80000001 11.00000000
vt 3.21000004 10.06637478
vt 3.19000006 10.06637478
vt 3.20000005 9.80000019
vt 3.20000005 9.80000019
vt 3.19000006 10.06637478
vt -0.80000001 11.00000000
vt 3.20000005 9.80000019
vt -0.80000001 11.00000000
vt 3.20000005 9.77999973
vt 3.20000005 9.77999973
vt -0.80000001 11.00000000
vt -4.80000019 9.00000000
vt 3.20000005 9.77999973
vt -4.80000019 9.00000000
vt 3.22000003 9.77999973
vt 3.22000003 9.77999973
vt -4.80000019 9.00000000
vt 4.19999981 9.77999973
vt 3.22000003 9.77999973
vt 4.19999981 9.77999973
vt 3.22000003 9.80000019
vt 3.22000003 9.80000019
vt 4.19999981 9.77999973
vt 4.19999981 9.80000019
vt 3.21000004 10.85637474
vt 3.21000004 11.00000000
vt 3.19000006 10.85637474
vt 3.19000006 10.85637474
vt 3.21000004 11.00000000
vt -0.80000001 11.00000000
vt 3.19000006 10.85637474
vt -0.80000001 11.00000000
vt 3.19000006 10.83637524
vt 3.19000006 10.83637524
vt -0.80000001 11.00000000
vt 3.19000006 10.08637524
vt 3.19000006 10.83637524
vt 3.19000006 10.08637524
vt 3.21000004 10.83637524
vt 3.21000004 10.83637524
vt 3.19000006 10.08637524
vt 3.21000004 10.08637524
vt -4.80000019 -9.00000000
vt 3.21000004 -9.00000000
vt -4.80000019 -7.00000000
vt -4.80000019 -7.00000000
vt 3.21000004 -9.00000000
vt 3.21000004 -7.80000019
vt 9.21000004 -9.00000000
vt 15.00000000 -9.00000000
vt 9.21000004 -7.80000019
vt 9.21000004 -7.80000019
vt 15.00000000 -9.00000000
vt 15.00000000 -7.00000000
vt 9.21000004 -7.80000019
vt 15.00000000 -7.00000000
vt 8.21000004 -7.80000019
vt 8.21000004 -7.80000019
vt 15.00000000 -7.00000000
vt 7.21000004 -7.80000019
vt 3.21000004 -7.80000019
vt 4.21000004 -7.80000019
vt -4.80000019 -7.00000000
vt -4.80000019 -7.00000000
vt 4.21000004 -7.80000019
vt 5.21000004 -7.80000019
vt -4.80000019 -7.00000000
vt 5.21000004 -7.80000019
vt 15.00000000 -7.00000000
vt 15.00000000 -7.00000000
vt 5.21000004 -7.80000019
vt 6.21000004 -7.80000019
vt 15.00000000 -7.00000000
vt 6.21000004 -7.80000019
vt 7.21000004 -7.80000019
vt 15.00000000 5.90000010
vt 15.00000000 6.09999990
vt -4.80000019 5.90000010
vt -4.80000019 5.90000010
vt 15.00000000 6.09999990
vt -4.80000019 6.09999990
f 1/1 2/2 3/3
f 4/4 5/5 6/6
f 7/7 8/8 9/9
f 10/10 11/11 12/12
f 13/13 14/14 15/15
f 16/16 17/17 18/18
f 19/19 20/20 21/21
f 22/22 23/23 24/24
f 25/25 26/26 27/27
f 28/28 29/29 30/30
f 31/31 32/32 33/33
f 34/34 35/35 36/36
f 37/37 38/38 39/39
f 40/40 41/41 42/42
f 43/43 44/44 45/45
f 46/46 47/47 48/48
f 49/49 50/50 51/51
f 52/52 53/53 54/54
f 55/55 56/56 57/57
f 58/58 59/59 60/60
f 61/61 62/62 63/63
f 64/64 65/65 66/66
f 67/67 68/68 69/69
f 70/70 71/71 72/72
f 73/73 74/74 75/75
f 76/76 77/77 78/78
f 79/79 80/80 81/81
f 82/82 83/83 84/84
f 85/85 86/86 87/87
f 88/88 89/89 90/90
f 91/91 92/92 93/93
f 94/94 95/95 96/96
f 97/97 98/98 99/99
f 100/100 101/101 102/102
f 103/103 104/104 105/105
f 106/106 107/107 108/108
f 109/109 110/110 111/111
f 112/112 113/113 114/114
f 115/115 116/116 117/117
f 118/118 119/119 120/120
f 121/121 122/122 123/123
f 124/124 125/125 126/126
f 127/127 128/128 129/129
f 130/130 131/131 132/132
f 133/133 134/134 135/135
f 136/136 137/137 138/138
f 139/139 140/140 141/141
f 142/142 143/143 144/144
f 145/145 146/146 147/147
f 148/148 149/149 150/150
f 151/151 152/152 153/153
f 154/154 155/155 156/156
f 157/157 158/158 159/159
f 160/160 161/161 162/162
f 163/163 164/164 165/165
f 166/166 167/167 168/168
f 169/169 170/170 171/171
f 172/172 173/173 174/174
f 175/175 176/176 177/177
f 178/178 179/179 180/180
f 181/181 182/182 183/183
f 184/184 185/185 186/186
f 187/187 188/188 189/189
f 190/190 191/191 192/192
f 193/193 194/194 195/195

