# https://github.com/mikedh/trimesh
mtllib material.mtl
usemtl close
v -0.10559775 0.15684525 0.12220275
v -0.10559775 0.15684525 0.12220275
v -0.15100200 0.15904275 0.12220275
v -0.15100200 0.15904275 0.12220275
v -0.15100200 0.15904275 0.16693350
v -0.10559775 0.15684525 0.16693350
v -0.16512675 -0.13287600 0.12220275
v -0.16512675 -0.13287600 0.12220275
v -0.11972175 -0.13507275 0.12220275
v -0.11972175 -0.13507275 0.12220275
v -0.11972175 -0.13507275 0.16693350
v -0.16512675 -0.13287600 0.16693350
v -0.27018675 0.16480950 0.12220275
v -0.27018675 0.16480950 0.12220275
v -0.27018675 0.16480950 0.12220275
v -0.28431150 -0.12710925 0.12220275
v -0.28431150 -0.12710925 0.12220275
v -0.28431150 -0.12710925 0.12220275
v -0.28431150 -0.12710925 0.29102175
v -0.28431150 -0.12710925 0.29102175
v -0.28431150 -0.12710925 0.29102175
v -0.27018675 0.16480950 0.29102175
v -0.27018675 0.16480950 0.29102175
v -0.27018675 0.16480950 0.29102175
v 0.01358700 0.15107850 0.12220275
v 0.01358700 0.15107850 0.12220275
v 0.01358700 0.15107850 0.12220275
v -0.10559775 0.15684525 0.16693350
v -0.12829275 0.15794400 0.28928850
v -0.12829275 0.15794400 0.28928850
v -0.12829275 0.15794400 0.28928850
v 0.01358700 0.15107850 0.29102175
v 0.01358700 0.15107850 0.29102175
v 0.01358700 0.15107850 0.29102175
v -0.00053775 -0.14083950 0.12220275
v -0.00053775 -0.14083950 0.12220275
v -0.00053775 -0.14083950 0.12220275
v -0.00053700 -0.14083950 0.29102175
v -0.00053700 -0.14083950 0.29102175
v -0.00053700 -0.14083950 0.29102175
v -0.15100200 0.15904275 0.16693350
v -0.11972175 -0.13507275 0.12220275
v -0.11972175 -0.13507275 0.12220275
v -0.10559775 0.15684525 0.12220275
v -0.10559775 0.15684525 0.12220275
v -0.12914400 0.15798450 0.29102175
v -0.12914400 0.15798450 0.29102175
v -0.12914400 0.15798450 0.29102175
v -0.12744075 0.15790275 0.29102175
v -0.12744075 0.15790275 0.29102175
v -0.12744075 0.15790275 0.29102175
v -0.15100200 0.15904275 0.12220275
v -0.15100200 0.15904275 0.12220275
v -0.16512675 -0.13287600 0.12220275
v -0.16512675 -0.13287600 0.12220275
v -0.16512675 -0.13287600 0.16693350
v -0.14242350 -0.13397475 0.28930950
v -0.14242350 -0.13397475 0.28930950
v -0.14242350 -0.13397475 0.28930950
v -0.14326800 -0.13393350 0.29102175
v -0.14326800 -0.13393350 0.29102175
v -0.14326800 -0.13393350 0.29102175
v -0.11972175 -0.13507275 0.16693350
v -0.14156550 -0.13401600 0.29102175
v -0.14156550 -0.13401600 0.29102175
v -0.14156550 -0.13401600 0.29102175
v 0.19384575 0.16059825 0.12467025
v 0.19384575 0.16059825 0.12467025
v 0.14778000 0.15954000 0.12467025
v 0.14778000 0.15954000 0.12467025
v 0.14778000 0.15954000 0.18879075
v 0.19384575 0.16059825 0.18879075
v 0.15458400 -0.13662975 0.12467025
v 0.15458400 -0.13662975 0.12467025
v 0.20064975 -0.13557150 0.12467025
v 0.20064975 -0.13557150 0.12467025
v 0.20064975 -0.13557150 0.18879075
v 0.15458400 -0.13662975 0.18879075
v 0.02685900 0.15676200 0.12467025
v 0.02685900 0.15676200 0.12467025
v 0.02685900 0.15676200 0.12467025
v 0.03366300 -0.13940775 0.12467025
v 0.03366300 -0.13940775 0.12467025
v 0.03366300 -0.13940775 0.12467025
v 0.03366300 -0.13940775 0.36666750
v 0.03366300 -0.13940775 0.36666750
v 0.03366300 -0.13940775 0.36666750
v 0.02685900 0.15676200 0.36666750
v 0.02685900 0.15676200 0.36666750
v 0.02685900 0.15676200 0.36666750
v 0.31476600 0.16337625 0.12467025
v 0.31476600 0.16337625 0.12467025
v 0.31476600 0.16337625 0.12467025
v 0.19384575 0.16059825 0.18879075
v 0.17082000 0.16006875 0.36418275
v 0.17082000 0.16006875 0.36418275
v 0.17082000 0.16006875 0.36418275
v 0.31476600 0.16337625 0.36666750
v 0.31476600 0.16337625 0.36666750
v 0.31476600 0.16337625 0.36666750
v 0.32157000 -0.13279350 0.12467025
v 0.32157000 -0.13279350 0.12467025
v 0.32157000 -0.13279350 0.12467025
v 0.32157000 -0.13279350 0.36666750
v 0.32157000 -0.13279350 0.36666750
v 0.32157000 -0.13279350 0.36666750
v 0.14778000 0.15954000 0.18879075
v 0.20064975 -0.13557150 0.12467025
v 0.20064975 -0.13557150 0.12467025
v 0.19384575 0.16059825 0.12467025
v 0.19384575 0.16059825 0.12467025
v 0.16995675 0.16004925 0.36666750
v 0.16995675 0.16004925 0.36666750
v 0.16995675 0.16004925 0.36666750
v 0.17168475 0.16008900 0.36666750
v 0.17168475 0.16008900 0.36666750
v 0.17168475 0.16008900 0.36666750
v 0.14778000 0.15954000 0.12467025
v 0.14778000 0.15954000 0.12467025
v 0.15458400 -0.13662975 0.12467025
v 0.15458400 -0.13662975 0.12467025
v 0.15458400 -0.13662975 0.18879075
v 0.17761725 -0.13610100 0.36421350
v 0.17761725 -0.13610100 0.36421350
v 0.17761725 -0.13610100 0.36421350
v 0.17676075 -0.13612050 0.36666750
v 0.17676075 -0.13612050 0.36666750
v 0.17676075 -0.13612050 0.36666750
v 0.20064975 -0.13557150 0.18879075
v 0.17848875 -0.13608075 0.36666750
v 0.17848875 -0.13608075 0.36666750
v 0.17848875 -0.13608075 0.36666750
vt 0.50398100 0.00485400
vt 0.94088900 0.15264100
vt 0.94088900 0.30030600
vt 0.50398100 0.15251900
vt 0.66682900 0.15251900
vt 0.66682900 0.00485400
vt 0.34101100 0.00485400
vt 0.34101100 0.30030600
vt 0.34101100 0.15264100
vt 0.34101100 0.15251900
vt 0.50385900 0.15251900
vt 0.50385900 0.00485400
vt 0.49172800 0.96244500
vt 0.73453100 0.74737400
vt 0.94765900 0.35868300
vt 0.49171300 0.36259200
vt 0.50806300 0.74737400
vt 0.72119100 0.35868300
vt 0.93524900 0.89767600
vt 0.72119100 0.59071200
vt 0.49171300 0.66157400
vt 0.73916000 0.89767600
vt 0.94765900 0.59071200
vt 0.49172800 0.66345400
vt 0.04276700 0.96244500
vt 0.50562400 0.89692000
vt 0.49447900 0.35868300
vt 0.23133000 0.88322400
vt 0.21334700 0.33410000
vt 0.26723600 0.66652400
vt 0.21334700 0.35506500
vt 0.49447900 0.59071200
vt 0.73916000 0.59774400
vt 0.04276700 0.66345400
vt 0.73209300 0.89692000
vt 0.72094700 0.35868300
vt 0.04276700 0.36259200
vt 0.93524900 0.59774400
vt 0.04276700 0.66157400
vt 0.72094700 0.59071200
vt 0.30316500 0.88322400
vt 0.73209300 0.75058800
vt 0.23132400 0.36259200
vt 0.50562400 0.75058800
vt 0.23133000 0.96244500
vt 0.73916000 0.74773600
vt 0.26858500 0.66261100
vt 0.21339900 0.34456300
vt 0.21341000 0.34459400
vt 0.73916000 0.74766800
vt 0.26551600 0.66260600
vt 0.73453100 0.60104200
vt 0.30316500 0.96244500
vt 0.30315700 0.36259200
vt 0.50806300 0.60104200
vt 0.30315700 0.44181100
vt 0.81280500 0.33410000
vt 0.26724000 0.65854100
vt 0.81325100 0.35506500
vt 0.93524900 0.74773600
vt 0.26896600 0.66245900
vt 0.81285700 0.34456300
vt 0.23132400 0.44181100
vt 0.26587900 0.66245400
vt 0.81331500 0.34459400
vt 0.93524900 0.74766800
vt 0.50398100 0.00485400
vt 0.94088900 0.15264100
vt 0.94088900 0.30030600
vt 0.50398100 0.15251900
vt 0.66682900 0.15251900
vt 0.66682900 0.00485400
vt 0.34101100 0.00485400
vt 0.34101100 0.30030600
vt 0.34101100 0.15264100
vt 0.34101100 0.15251900
vt 0.50385900 0.15251900
vt 0.50385900 0.00485400
vt 0.49172800 0.96244500
vt 0.94765900 0.35868300
vt 0.73453100 0.74737400
vt 0.50806300 0.74737400
vt 0.72119100 0.35868300
vt 0.49171300 0.36259200
vt 0.49171300 0.66157400
vt 0.72119100 0.59071200
vt 0.93524900 0.89767600
vt 0.49172800 0.66345400
vt 0.94765900 0.59071200
vt 0.73916000 0.89767600
vt 0.04276700 0.96244500
vt 0.49447900 0.35868300
vt 0.50562400 0.89692000
vt 0.23133000 0.88322400
vt 0.21334700 0.33410000
vt 0.26723600 0.66652400
vt 0.21334700 0.35506500
vt 0.73916000 0.59774400
vt 0.04276700 0.66345400
vt 0.49447900 0.59071200
vt 0.72094700 0.35868300
vt 0.73209300 0.89692000
vt 0.04276700 0.36259200
vt 0.93524900 0.59774400
vt 0.04276700 0.66157400
vt 0.72094700 0.59071200
vt 0.30316500 0.88322400
vt 0.23132400 0.36259200
vt 0.73209300 0.75058800
vt 0.50562400 0.75058800
vt 0.23133000 0.96244500
vt 0.21339900 0.34456300
vt 0.73916000 0.74773600
vt 0.26858500 0.66261100
vt 0.73916000 0.74766800
vt 0.26551600 0.66260600
vt 0.21341000 0.34459400
vt 0.73453100 0.60104200
vt 0.30316500 0.96244500
vt 0.50806300 0.60104200
vt 0.30315700 0.36259200
vt 0.30315700 0.44181100
vt 0.81280500 0.33410000
vt 0.26724000 0.65854100
vt 0.81325100 0.35506500
vt 0.81285700 0.34456300
vt 0.93524900 0.74773600
vt 0.26896600 0.66245900
vt 0.23132400 0.44181100
vt 0.26587900 0.66245400
vt 0.93524900 0.74766800
vt 0.81331500 0.34459400
f 1/1 4/4 5/5
f 5/5 6/6 1/1
f 7/7 10/10 11/11
f 11/11 12/12 7/7
f 8/8 3/3 2/2
f 2/2 9/9 8/8
f 15/15 18/18 20/20
f 20/20 23/23 15/15
f 25/25 28/28 30/30
f 30/30 34/34 25/25
f 36/36 27/27 32/32
f 32/32 40/40 36/36
f 41/41 13/13 24/24
f 24/24 30/30 41/41
f 42/42 44/44 26/26
f 26/26 35/35 42/42
f 24/24 47/47 30/30
f 30/30 51/51 34/34
f 17/17 14/14 52/52
f 52/52 55/55 17/17
f 28/28 41/41 30/30
f 16/16 56/56 58/58
f 58/58 21/21 16/16
f 58/58 61/61 21/21
f 25/25 45/45 28/28
f 16/16 54/54 56/56
f 53/53 13/13 41/41
f 43/43 37/37 63/63
f 57/57 29/29 48/48
f 48/48 62/62 57/57
f 56/56 63/63 58/58
f 60/60 46/46 22/22
f 22/22 19/19 60/60
f 38/38 33/33 50/50
f 50/50 66/66 38/38
f 39/39 64/64 58/58
f 63/63 37/37 39/39
f 39/39 58/58 63/63
f 65/65 49/49 31/31
f 31/31 59/59 65/65
f 67/67 70/70 71/71
f 71/71 72/72 67/67
f 73/73 76/76 77/77
f 77/77 78/78 73/73
f 74/74 69/69 68/68
f 68/68 75/75 74/74
f 80/80 83/83 86/86
f 86/86 89/89 80/80
f 91/91 94/94 96/96
f 96/96 99/99 91/91
f 101/101 92/92 100/100
f 100/100 106/106 101/101
f 107/107 79/79 88/88
f 88/88 96/96 107/107
f 109/109 110/110 93/93
f 93/93 102/102 109/109
f 88/88 114/114 96/96
f 96/96 116/116 99/99
f 82/82 81/81 118/118
f 118/118 120/120 82/82
f 94/94 107/107 96/96
f 84/84 122/122 124/124
f 124/124 85/85 84/84
f 124/124 128/128 85/85
f 91/91 111/111 94/94
f 84/84 121/121 122/122
f 119/119 79/79 107/107
f 108/108 103/103 129/129
f 123/123 95/95 112/112
f 112/112 126/126 123/123
f 122/122 129/129 124/124
f 127/127 113/113 90/90
f 90/90 87/87 127/127
f 104/104 98/98 115/115
f 115/115 131/131 104/104
f 105/105 130/130 124/124
f 129/129 103/103 105/105
f 105/105 124/124 129/129
f 132/132 117/117 97/97
f 97/97 125/125 132/132

