# https://github.com/mikedh/trimesh
mtllib material.mtl
usemtl bluelowglossplastic.001
v 1.88999999 0.47999999 0.12000000
v 1.88999999 0.40000001 0.12000000
v 1.88999999 0.47999999 0.40000001
v 1.88999999 0.31999999 0.20000000
v 1.88999999 0.31999999 0.40000001
v 1.89999998 0.51499999 0.60000002
v 1.89999998 0.28500000 0.60000002
v 2.03999996 0.51499999 0.60000002
v 2.03999996 0.28500000 0.60000002
v 2.03999996 0.52499998 0.00000000
v 1.89999998 0.52499998 0.00000000
v 2.03999996 0.52499998 0.58999997
v 1.89999998 0.52499998 0.58999997
v 2.04999995 0.51499999 0.58999997
v 2.04999995 0.28500000 0.58999997
v 2.04999995 0.51499999 0.00000000
v 2.04999995 0.28500000 0.00000000
v 2.03999996 0.27500001 0.58999997
v 1.89999998 0.27500001 0.58999997
v 2.03999996 0.27500001 0.00000000
v 1.89999998 0.27500001 0.00000000
v 1.88999999 0.28999999 0.41999999
v 1.88999999 0.30000001 0.41999999
v 1.88999999 0.30000001 0.00000000
v 1.88999999 0.50000000 0.00000000
v 1.88999999 0.50000000 0.41999999
v 1.88999999 0.51499999 0.00000000
v 1.88999999 0.50999999 0.41999999
v 1.88999999 0.51499999 0.58999997
v 1.88999999 0.50999999 0.58499998
v 1.88999999 0.28500000 0.58999997
v 1.88999999 0.50999999 0.58499998
v 1.88999999 0.28999999 0.58499998
v 1.88999999 0.28500000 0.58999997
v 1.88999999 0.28999999 0.41999999
v 1.88999999 0.28500000 0.00000000
v 1.88999999 0.30000001 0.00000000
v 1.88999999 0.31999999 0.10000000
v 1.88999999 0.47999999 0.10000000
v 1.88999999 0.31999999 0.00000000
v 1.88999999 0.47999999 0.00000000
v 1.88999999 0.31999999 0.12000000
v 1.88999999 0.31999999 0.17500000
v 1.88999999 0.37500000 0.12000000
v 1.89999998 0.50000000 0.41999999
v 2.02500010 0.50000000 0.41999999
v 1.89999998 0.50000000 0.57499999
v 2.02500010 0.50000000 0.57499999
v 1.89999998 0.50000000 0.57499999
v 2.02500010 0.50000000 0.57499999
v 1.89999998 0.30000001 0.57499999
v 2.02500010 0.30000001 0.57499999
v 1.89999998 0.30000001 0.57499999
v 2.02500010 0.30000001 0.57499999
v 1.89999998 0.30000001 0.41999999
v 2.02500010 0.30000001 0.41999999
v 2.02500010 0.30000001 0.41999999
v 2.02500010 0.30000001 0.57499999
v 2.02500010 0.50000000 0.41999999
v 2.02500010 0.50000000 0.57499999
v 1.88999999 0.28500000 0.58999997
v 1.88999999 0.28500000 0.00000000
v 1.89034069 0.28241181 0.00000000
v 1.88999999 0.28500000 0.58999997
v 1.89034069 0.28241181 0.00000000
v 1.89034069 0.28241181 0.58999997
v 1.89133978 0.28000000 0.00000000
v 1.89133978 0.28000000 0.58999997
v 1.89292896 0.27792892 0.00000000
v 1.89292896 0.27792892 0.58999997
v 1.89499998 0.27633974 0.00000000
v 1.89499998 0.27633974 0.58999997
v 1.89741182 0.27534074 0.00000000
v 1.89741182 0.27534074 0.58999997
v 1.89999998 0.27500001 0.00000000
v 1.89999998 0.27500001 0.58999997
v 1.88999999 0.28500000 0.58999997
v 1.89034069 0.28241181 0.58999997
v 1.89066982 0.28241181 0.59249997
v 1.89566982 0.27633974 0.59249997
v 1.89775860 0.27534074 0.59129411
v 1.89816988 0.27534074 0.59183013
v 1.89999998 0.27500001 0.58999997
v 1.89999998 0.27534074 0.59258819
v 1.89933014 0.27534074 0.59249997
v 1.89816988 0.27534074 0.59183013
v 1.89775860 0.27534074 0.59129411
v 1.89999998 0.27500001 0.58999997
v 1.89750004 0.27534074 0.59066987
v 1.89999998 0.27500001 0.58999997
v 1.89775860 0.27534074 0.59129411
v 1.89750004 0.27534074 0.59066987
v 1.89775860 0.27534074 0.59129411
v 1.89517033 0.27633974 0.59129411
v 1.89566982 0.27633974 0.59249997
v 1.89316988 0.27792892 0.59183013
v 1.89741182 0.27534074 0.58999997
v 1.89999998 0.27500001 0.58999997
v 1.89750004 0.27534074 0.59066987
v 1.89646447 0.27633974 0.59353554
v 1.89870596 0.27534074 0.59224147
v 1.89750004 0.27633974 0.59433013
v 1.89933014 0.27534074 0.59249997
v 1.89870596 0.27633974 0.59482962
v 1.89999998 0.27534074 0.59258819
v 1.89999998 0.27633974 0.59500003
v 1.89741182 0.27534074 0.58999997
v 1.89750004 0.27534074 0.59066987
v 1.89499998 0.27633974 0.58999997
v 1.89517033 0.27633974 0.59129411
v 1.89292896 0.27792892 0.58999997
v 1.89316988 0.27792892 0.59183013
v 1.89133978 0.28000000 0.58999997
v 1.89387631 0.27792892 0.59353554
v 1.89646447 0.27633974 0.59353554
v 1.89499998 0.27792892 0.59500003
v 1.89750004 0.27633974 0.59433013
v 1.89646447 0.27792892 0.59612370
v 1.89870596 0.27633974 0.59482962
v 1.89816988 0.27792892 0.59683013
v 1.89999998 0.27633974 0.59500003
v 1.89999998 0.27792892 0.59707105
v 1.89163482 0.28000000 0.59224147
v 1.89387631 0.27792892 0.59353554
v 1.89250004 0.28000000 0.59433013
v 1.89499998 0.27792892 0.59500003
v 1.89387631 0.28000000 0.59612370
v 1.89646447 0.27792892 0.59612370
v 1.89566982 0.28000000 0.59750003
v 1.89816988 0.27792892 0.59683013
v 1.89775860 0.28000000 0.59836519
v 1.89999998 0.27792892 0.59707105
v 1.89999998 0.28000000 0.59866023
v 1.89034069 0.28241181 0.58999997
v 1.89163482 0.28000000 0.59224147
v 1.89066982 0.28241181 0.59249997
v 1.89250004 0.28000000 0.59433013
v 1.89163482 0.28241181 0.59482962
v 1.89387631 0.28000000 0.59612370
v 1.89316988 0.28241181 0.59683013
v 1.89566982 0.28000000 0.59750003
v 1.89517033 0.28241181 0.59836519
v 1.89775860 0.28000000 0.59836519
v 1.89750004 0.28241181 0.59933013
v 1.89999998 0.28000000 0.59866023
v 1.89999998 0.28241181 0.59965926
v 1.88999999 0.28500000 0.58999997
v 1.89066982 0.28241181 0.59249997
v 1.89034069 0.28500000 0.59258819
v 1.89163482 0.28241181 0.59482962
v 1.89133978 0.28500000 0.59500003
v 1.89316988 0.28241181 0.59683013
v 1.89292896 0.28500000 0.59707105
v 1.89517033 0.28241181 0.59836519
v 1.89499998 0.28500000 0.59866023
v 1.89750004 0.28241181 0.59933013
v 1.89741182 0.28500000 0.59965926
v 1.89999998 0.28241181 0.59965926
v 1.89999998 0.28500000 0.60000002
v 1.89870596 0.27534074 0.59224147
v 1.89999998 0.27500001 0.58999997
v 1.89933014 0.27534074 0.59249997
v 1.89034069 0.28241181 0.58999997
v 1.89133978 0.28000000 0.58999997
v 1.89163482 0.28000000 0.59224147
v 1.89316988 0.27792892 0.59183013
v 1.89387631 0.27792892 0.59353554
v 1.89566982 0.27633974 0.59249997
v 1.89646447 0.27633974 0.59353554
v 1.89816988 0.27534074 0.59183013
v 1.89870596 0.27534074 0.59224147
v 1.89999998 0.27500001 0.58999997
v 2.03999996 0.27500001 0.58999997
v 2.03999996 0.27500001 0.00000000
v 2.04258823 0.27534074 0.00000000
v 2.03999996 0.27500001 0.58999997
v 2.04258823 0.27534074 0.00000000
v 2.04258823 0.27534074 0.58999997
v 2.04500008 0.27633974 0.00000000
v 2.04500008 0.27633974 0.58999997
v 2.04707098 0.27792892 0.00000000
v 2.04707098 0.27792892 0.58999997
v 2.04866028 0.28000000 0.00000000
v 2.04866028 0.28000000 0.58999997
v 2.04965925 0.28241181 0.00000000
v 2.04965925 0.28241181 0.58999997
v 2.04999995 0.28500000 0.00000000
v 2.04999995 0.28500000 0.58999997
v 1.89999998 0.27500001 0.58999997
v 2.03999996 0.27500001 0.58999997
v 2.03999996 0.27534074 0.59258819
v 1.89999998 0.27500001 0.58999997
v 2.03999996 0.27534074 0.59258819
v 1.89999998 0.27534074 0.59258819
v 2.03999996 0.27633974 0.59500003
v 1.89999998 0.27633974 0.59500003
v 2.03999996 0.27792892 0.59707105
v 1.89999998 0.27792892 0.59707105
v 2.03999996 0.28000000 0.59866023
v 1.89999998 0.28000000 0.59866023
v 2.03999996 0.28241181 0.59965926
v 1.89999998 0.28241181 0.59965926
v 2.03999996 0.28500000 0.60000002
v 1.89999998 0.28500000 0.60000002
v 1.88999999 0.51499999 0.58999997
v 1.88999999 0.28500000 0.58999997
v 1.89034069 0.28500000 0.59258819
v 1.88999999 0.51499999 0.58999997
v 1.89034069 0.28500000 0.59258819
v 1.89034069 0.51499999 0.59258819
v 1.89133978 0.28500000 0.59500003
v 1.89133978 0.51499999 0.59500003
v 1.89292896 0.28500000 0.59707105
v 1.89292896 0.51499999 0.59707105
v 1.89499998 0.28500000 0.59866023
v 1.89499998 0.51499999 0.59866023
v 1.89741182 0.28500000 0.59965926
v 1.89741182 0.51499999 0.59965926
v 1.89999998 0.28500000 0.60000002
v 1.89999998 0.51499999 0.60000002
v 1.89999998 0.52499998 0.58999997
v 1.89999998 0.52499998 0.00000000
v 1.89741182 0.52465928 0.00000000
v 1.89999998 0.52499998 0.58999997
v 1.89741182 0.52465928 0.00000000
v 1.89741182 0.52465928 0.58999997
v 1.89499998 0.52366024 0.00000000
v 1.89499998 0.52366024 0.58999997
v 1.89292896 0.52207106 0.00000000
v 1.89292896 0.52207106 0.58999997
v 1.89133978 0.51999998 0.00000000
v 1.89133978 0.51999998 0.58999997
v 1.89034069 0.51758820 0.00000000
v 1.89034069 0.51758820 0.58999997
v 1.88999999 0.51499999 0.00000000
v 1.88999999 0.51499999 0.58999997
v 2.03999996 0.28500000 0.60000002
v 2.03999996 0.28241181 0.59965926
v 2.04250002 0.28241181 0.59933013
v 2.04250002 0.27633974 0.59433013
v 2.04129410 0.27534074 0.59224147
v 2.04183006 0.27534074 0.59183013
v 2.03999996 0.27500001 0.58999997
v 2.04258823 0.27534074 0.58999997
v 2.04250002 0.27534074 0.59066987
v 2.04183006 0.27534074 0.59183013
v 2.04129410 0.27534074 0.59224147
v 2.03999996 0.27500001 0.58999997
v 2.04066992 0.27534074 0.59249997
v 2.03999996 0.27500001 0.58999997
v 2.04129410 0.27534074 0.59224147
v 2.04066992 0.27534074 0.59249997
v 2.04129410 0.27534074 0.59224147
v 2.04129410 0.27633974 0.59482962
v 2.04250002 0.27633974 0.59433013
v 2.04183006 0.27792892 0.59683013
v 2.03999996 0.27534074 0.59258819
v 2.03999996 0.27500001 0.58999997
v 2.04066992 0.27534074 0.59249997
v 2.04353547 0.27633974 0.59353554
v 2.04224133 0.27534074 0.59129411
v 2.04433012 0.27633974 0.59249997
v 2.04250002 0.27534074 0.59066987
v 2.04482961 0.27633974 0.59129411
v 2.04258823 0.27534074 0.58999997
v 2.04500008 0.27633974 0.58999997
v 2.03999996 0.27534074 0.59258819
v 2.04066992 0.27534074 0.59249997
v 2.03999996 0.27633974 0.59500003
v 2.04129410 0.27633974 0.59482962
v 2.03999996 0.27792892 0.59707105
v 2.04183006 0.27792892 0.59683013
v 2.03999996 0.28000000 0.59866023
v 2.04353547 0.27792892 0.59612370
v 2.04353547 0.27633974 0.59353554
v 2.04500008 0.27792892 0.59500003
v 2.04433012 0.27633974 0.59249997
v 2.04612374 0.27792892 0.59353554
v 2.04482961 0.27633974 0.59129411
v 2.04683018 0.27792892 0.59183013
v 2.04500008 0.27633974 0.58999997
v 2.04707098 0.27792892 0.58999997
v 2.04224133 0.28000000 0.59836519
v 2.04353547 0.27792892 0.59612370
v 2.04433012 0.28000000 0.59750003
v 2.04500008 0.27792892 0.59500003
v 2.04612374 0.28000000 0.59612370
v 2.04612374 0.27792892 0.59353554
v 2.04749990 0.28000000 0.59433013
v 2.04683018 0.27792892 0.59183013
v 2.04836512 0.28000000 0.59224147
v 2.04707098 0.27792892 0.58999997
v 2.04866028 0.28000000 0.58999997
v 2.03999996 0.28241181 0.59965926
v 2.04224133 0.28000000 0.59836519
v 2.04250002 0.28241181 0.59933013
v 2.04433012 0.28000000 0.59750003
v 2.04482961 0.28241181 0.59836519
v 2.04612374 0.28000000 0.59612370
v 2.04683018 0.28241181 0.59683013
v 2.04749990 0.28000000 0.59433013
v 2.04836512 0.28241181 0.59482962
v 2.04836512 0.28000000 0.59224147
v 2.04933023 0.28241181 0.59249997
v 2.04866028 0.28000000 0.58999997
v 2.04965925 0.28241181 0.58999997
v 2.03999996 0.28500000 0.60000002
v 2.04250002 0.28241181 0.59933013
v 2.04258823 0.28500000 0.59965926
v 2.04482961 0.28241181 0.59836519
v 2.04500008 0.28500000 0.59866023
v 2.04683018 0.28241181 0.59683013
v 2.04707098 0.28500000 0.59707105
v 2.04836512 0.28241181 0.59482962
v 2.04866028 0.28500000 0.59500003
v 2.04933023 0.28241181 0.59249997
v 2.04965925 0.28500000 0.59258819
v 2.04965925 0.28241181 0.58999997
v 2.04999995 0.28500000 0.58999997
v 2.04224133 0.27534074 0.59129411
v 2.03999996 0.27500001 0.58999997
v 2.04250002 0.27534074 0.59066987
v 2.03999996 0.28241181 0.59965926
v 2.03999996 0.28000000 0.59866023
v 2.04224133 0.28000000 0.59836519
v 2.04183006 0.27792892 0.59683013
v 2.04353547 0.27792892 0.59612370
v 2.04250002 0.27633974 0.59433013
v 2.04353547 0.27633974 0.59353554
v 2.04183006 0.27534074 0.59183013
v 2.04224133 0.27534074 0.59129411
v 2.03999996 0.27500001 0.58999997
v 1.89999998 0.52499998 0.58999997
v 1.89741182 0.52465928 0.58999997
v 1.89741182 0.52433014 0.59249997
v 1.89133978 0.51933014 0.59249997
v 1.89034069 0.51724142 0.59129411
v 1.89034069 0.51683015 0.59183013
v 1.88999999 0.51499999 0.58999997
v 1.89034069 0.51499999 0.59258819
v 1.89034069 0.51566988 0.59249997
v 1.89034069 0.51683015 0.59183013
v 1.89034069 0.51724142 0.59129411
v 1.88999999 0.51499999 0.58999997
v 1.89034069 0.51749998 0.59066987
v 1.88999999 0.51499999 0.58999997
v 1.89034069 0.51724142 0.59129411
v 1.89034069 0.51749998 0.59066987
v 1.89034069 0.51724142 0.59129411
v 1.89133978 0.51982963 0.59129411
v 1.89133978 0.51933014 0.59249997
v 1.89292896 0.52183014 0.59183013
v 1.89034069 0.51758820 0.58999997
v 1.88999999 0.51499999 0.58999997
v 1.89034069 0.51749998 0.59066987
v 1.89133978 0.51853555 0.59353554
v 1.89034069 0.51629412 0.59224147
v 1.89133978 0.51749998 0.59433013
v 1.89034069 0.51566988 0.59249997
v 1.89133978 0.51629412 0.59482962
v 1.89034069 0.51499999 0.59258819
v 1.89133978 0.51499999 0.59500003
v 1.89034069 0.51758820 0.58999997
v 1.89034069 0.51749998 0.59066987
v 1.89133978 0.51999998 0.58999997
v 1.89133978 0.51982963 0.59129411
v 1.89292896 0.52207106 0.58999997
v 1.89292896 0.52183014 0.59183013
v 1.89499998 0.52366024 0.58999997
v 1.89292896 0.52112371 0.59353554
v 1.89133978 0.51853555 0.59353554
v 1.89292896 0.51999998 0.59500003
v 1.89133978 0.51749998 0.59433013
v 1.89292896 0.51853555 0.59612370
v 1.89133978 0.51629412 0.59482962
v 1.89292896 0.51683015 0.59683013
v 1.89133978 0.51499999 0.59500003
v 1.89292896 0.51499999 0.59707105
v 1.89499998 0.52336514 0.59224147
v 1.89292896 0.52112371 0.59353554
v 1.89499998 0.52249998 0.59433013
v 1.89292896 0.51999998 0.59500003
v 1.89499998 0.52112371 0.59612370
v 1.89292896 0.51853555 0.59612370
v 1.89499998 0.51933014 0.59750003
v 1.89292896 0.51683015 0.59683013
v 1.89499998 0.51724142 0.59836519
v 1.89292896 0.51499999 0.59707105
v 1.89499998 0.51499999 0.59866023
v 1.89741182 0.52465928 0.58999997
v 1.89499998 0.52336514 0.59224147
v 1.89741182 0.52433014 0.59249997
v 1.89499998 0.52249998 0.59433013
v 1.89741182 0.52336514 0.59482962
v 1.89499998 0.52112371 0.59612370
v 1.89741182 0.52183014 0.59683013
v 1.89499998 0.51933014 0.59750003
v 1.89741182 0.51982963 0.59836519
v 1.89499998 0.51724142 0.59836519
v 1.89741182 0.51749998 0.59933013
v 1.89499998 0.51499999 0.59866023
v 1.89741182 0.51499999 0.59965926
v 1.89999998 0.52499998 0.58999997
v 1.89741182 0.52433014 0.59249997
v 1.89999998 0.52465928 0.59258819
v 1.89741182 0.52336514 0.59482962
v 1.89999998 0.52366024 0.59500003
v 1.89741182 0.52183014 0.59683013
v 1.89999998 0.52207106 0.59707105
v 1.89741182 0.51982963 0.59836519
v 1.89999998 0.51999998 0.59866023
v 1.89741182 0.51749998 0.59933013
v 1.89999998 0.51758820 0.59965926
v 1.89741182 0.51499999 0.59965926
v 1.89999998 0.51499999 0.60000002
v 1.89034069 0.51629412 0.59224147
v 1.88999999 0.51499999 0.58999997
v 1.89034069 0.51566988 0.59249997
v 1.89741182 0.52465928 0.58999997
v 1.89499998 0.52366024 0.58999997
v 1.89499998 0.52336514 0.59224147
v 1.89292896 0.52183014 0.59183013
v 1.89292896 0.52112371 0.59353554
v 1.89133978 0.51933014 0.59249997
v 1.89133978 0.51853555 0.59353554
v 1.89034069 0.51683015 0.59183013
v 1.89034069 0.51629412 0.59224147
v 1.88999999 0.51499999 0.58999997
v 2.04999995 0.28500000 0.58999997
v 2.04999995 0.51499999 0.58999997
v 2.04965925 0.51499999 0.59258819
v 2.04999995 0.28500000 0.58999997
v 2.04965925 0.51499999 0.59258819
v 2.04965925 0.28500000 0.59258819
v 2.04866028 0.51499999 0.59500003
v 2.04866028 0.28500000 0.59500003
v 2.04707098 0.51499999 0.59707105
v 2.04707098 0.28500000 0.59707105
v 2.04500008 0.51499999 0.59866023
v 2.04500008 0.28500000 0.59866023
v 2.04258823 0.51499999 0.59965926
v 2.04258823 0.28500000 0.59965926
v 2.03999996 0.51499999 0.60000002
v 2.03999996 0.28500000 0.60000002
v 2.03999996 0.52499998 0.58999997
v 1.89999998 0.52499998 0.58999997
v 1.89999998 0.52465928 0.59258819
v 2.03999996 0.52499998 0.58999997
v 1.89999998 0.52465928 0.59258819
v 2.03999996 0.52465928 0.59258819
v 1.89999998 0.52366024 0.59500003
v 2.03999996 0.52366024 0.59500003
v 1.89999998 0.52207106 0.59707105
v 2.03999996 0.52207106 0.59707105
v 1.89999998 0.51999998 0.59866023
v 2.03999996 0.51999998 0.59866023
v 1.89999998 0.51758820 0.59965926
v 2.03999996 0.51758820 0.59965926
v 1.89999998 0.51499999 0.60000002
v 2.03999996 0.51499999 0.60000002
v 2.03999996 0.52499998 0.58999997
v 2.03999996 0.52465928 0.59258819
v 2.04250002 0.52433014 0.59258819
v 2.04250002 0.51933014 0.59866023
v 2.04129410 0.51724142 0.59965926
v 2.04183006 0.51683015 0.59965926
v 2.03999996 0.51499999 0.60000002
v 2.04258823 0.51499999 0.59965926
v 2.04250002 0.51566988 0.59965926
v 2.04183006 0.51683015 0.59965926
v 2.04129410 0.51724142 0.59965926
v 2.03999996 0.51499999 0.60000002
v 2.04066992 0.51749998 0.59965926
v 2.03999996 0.51499999 0.60000002
v 2.04129410 0.51724142 0.59965926
v 2.04066992 0.51749998 0.59965926
v 2.04129410 0.51724142 0.59965926
v 2.04129410 0.51982963 0.59866023
v 2.04250002 0.51933014 0.59866023
v 2.04183006 0.52183014 0.59707105
v 2.03999996 0.51758820 0.59965926
v 2.03999996 0.51499999 0.60000002
v 2.04066992 0.51749998 0.59965926
v 2.04353547 0.51853555 0.59866023
v 2.04224133 0.51629412 0.59965926
v 2.04433012 0.51749998 0.59866023
v 2.04250002 0.51566988 0.59965926
v 2.04482961 0.51629412 0.59866023
v 2.04258823 0.51499999 0.59965926
v 2.04500008 0.51499999 0.59866023
v 2.03999996 0.51758820 0.59965926
v 2.04066992 0.51749998 0.59965926
v 2.03999996 0.51999998 0.59866023
v 2.04129410 0.51982963 0.59866023
v 2.03999996 0.52207106 0.59707105
v 2.04183006 0.52183014 0.59707105
v 2.03999996 0.52366024 0.59500003
v 2.04353547 0.52112371 0.59707105
v 2.04353547 0.51853555 0.59866023
v 2.04500008 0.51999998 0.59707105
v 2.04433012 0.51749998 0.59866023
v 2.04612374 0.51853555 0.59707105
v 2.04482961 0.51629412 0.59866023
v 2.04683018 0.51683015 0.59707105
v 2.04500008 0.51499999 0.59866023
v 2.04707098 0.51499999 0.59707105
v 2.04224133 0.52336514 0.59500003
v 2.04353547 0.52112371 0.59707105
v 2.04433012 0.52249998 0.59500003
v 2.04500008 0.51999998 0.59707105
v 2.04612374 0.52112371 0.59500003
v 2.04612374 0.51853555 0.59707105
v 2.04749990 0.51933014 0.59500003
v 2.04683018 0.51683015 0.59707105
v 2.04836512 0.51724142 0.59500003
v 2.04707098 0.51499999 0.59707105
v 2.04866028 0.51499999 0.59500003
v 2.03999996 0.52465928 0.59258819
v 2.04224133 0.52336514 0.59500003
v 2.04250002 0.52433014 0.59258819
v 2.04433012 0.52249998 0.59500003
v 2.04482961 0.52336514 0.59258819
v 2.04612374 0.52112371 0.59500003
v 2.04683018 0.52183014 0.59258819
v 2.04749990 0.51933014 0.59500003
v 2.04836512 0.51982963 0.59258819
v 2.04836512 0.51724142 0.59500003
v 2.04933023 0.51749998 0.59258819
v 2.04866028 0.51499999 0.59500003
v 2.04965925 0.51499999 0.59258819
v 2.03999996 0.52499998 0.58999997
v 2.04250002 0.52433014 0.59258819
v 2.04258823 0.52465928 0.58999997
v 2.04482961 0.52336514 0.59258819
v 2.04500008 0.52366024 0.58999997
v 2.04683018 0.52183014 0.59258819
v 2.04707098 0.52207106 0.58999997
v 2.04836512 0.51982963 0.59258819
v 2.04866028 0.51999998 0.58999997
v 2.04933023 0.51749998 0.59258819
v 2.04965925 0.51758820 0.58999997
v 2.04965925 0.51499999 0.59258819
v 2.04999995 0.51499999 0.58999997
v 2.04224133 0.51629412 0.59965926
v 2.03999996 0.51499999 0.60000002
v 2.04250002 0.51566988 0.59965926
v 2.03999996 0.52465928 0.59258819
v 2.03999996 0.52366024 0.59500003
v 2.04224133 0.52336514 0.59500003
v 2.04183006 0.52183014 0.59707105
v 2.04353547 0.52112371 0.59707105
v 2.04250002 0.51933014 0.59866023
v 2.04353547 0.51853555 0.59866023
v 2.04183006 0.51683015 0.59965926
v 2.04224133 0.51629412 0.59965926
v 2.03999996 0.51499999 0.60000002
v 2.04999995 0.51499999 0.58999997
v 2.04999995 0.51499999 0.00000000
v 2.04965925 0.51758820 0.00000000
v 2.04999995 0.51499999 0.58999997
v 2.04965925 0.51758820 0.00000000
v 2.04965925 0.51758820 0.58999997
v 2.04866028 0.51999998 0.00000000
v 2.04866028 0.51999998 0.58999997
v 2.04707098 0.52207106 0.00000000
v 2.04707098 0.52207106 0.58999997
v 2.04500008 0.52366024 0.00000000
v 2.04500008 0.52366024 0.58999997
v 2.04258823 0.52465928 0.00000000
v 2.04258823 0.52465928 0.58999997
v 2.03999996 0.52499998 0.00000000
v 2.03999996 0.52499998 0.58999997
v 1.89999998 0.30000001 0.57499999
v 1.89999998 0.30000001 0.41999999
v 1.89869475 0.29991445 0.57508558
v 1.89741182 0.29965925 0.41999999
v 1.89741182 0.29965925 0.57534075
v 1.89741182 0.29965925 0.57534075
v 1.89741182 0.29965925 0.41999999
v 1.89617312 0.29923880 0.57576120
v 1.89499998 0.29866025 0.41999999
v 1.89499998 0.29866025 0.57633972
v 1.89499998 0.29866025 0.57633972
v 1.89499998 0.29866025 0.41999999
v 1.89391243 0.29793352 0.57706648
v 1.89292896 0.29707107 0.41999999
v 1.89292896 0.29707107 0.57792896
v 1.89133978 0.29499999 0.41999999
v 1.89133978 0.29499999 0.57999998
v 1.89034069 0.29258820 0.41999999
v 1.89034069 0.29258820 0.58241183
v 1.88999999 0.28999999 0.41999999
v 1.88999999 0.28999999 0.58499998
v 1.89741182 0.29965925 0.57534075
v 1.89741182 0.50034076 0.57534075
v 1.89869475 0.50008553 0.57508558
v 1.89999998 0.50000000 0.57499999
v 1.89999998 0.30000001 0.57499999
v 1.89869475 0.50008553 0.57508558
v 1.89869475 0.29991445 0.57508558
v 1.89741182 0.29965925 0.57534075
v 1.89741182 0.50034076 0.57534075
v 1.89741182 0.29965925 0.57534075
v 1.89617312 0.50076121 0.57576120
v 1.89617312 0.29923880 0.57576120
v 1.89499998 0.50133973 0.57633972
v 1.89499998 0.29866025 0.57633972
v 1.89391243 0.50206649 0.57706648
v 1.89391243 0.29793352 0.57706648
v 1.89292896 0.50292891 0.57792896
v 1.89391243 0.29793352 0.57706648
v 1.89292896 0.29707107 0.57792896
v 1.89292896 0.50292891 0.57792896
v 1.89133978 0.29499999 0.57999998
v 1.89133978 0.50500000 0.57999998
v 1.89034069 0.29258820 0.58241183
v 1.89034069 0.50741184 0.58241183
v 1.88999999 0.28999999 0.58499998
v 1.88999999 0.50999999 0.58499998
v 1.88999999 0.50999999 0.58499998
v 1.88999999 0.50999999 0.41999999
v 1.89034069 0.50741184 0.41999999
v 1.88999999 0.50999999 0.58499998
v 1.89034069 0.50741184 0.41999999
v 1.89034069 0.50741184 0.58241183
v 1.89133978 0.50500000 0.41999999
v 1.89133978 0.50500000 0.57999998
v 1.89292896 0.50292891 0.41999999
v 1.89292896 0.50292891 0.57792896
v 1.89499998 0.50133973 0.41999999
v 1.89499998 0.50133973 0.57633972
v 1.89292896 0.50292891 0.41999999
v 1.89391243 0.50206649 0.57706648
v 1.89292896 0.50292891 0.57792896
v 1.89741182 0.50034076 0.41999999
v 1.89999998 0.50000000 0.41999999
v 1.89999998 0.50000000 0.57499999
v 1.89999998 0.50000000 0.57499999
v 1.89869475 0.50008553 0.57508558
v 1.89741182 0.50034076 0.41999999
v 1.89741182 0.50034076 0.57534075
v 1.89499998 0.50133973 0.41999999
v 1.89617312 0.50076121 0.57576120
v 1.89499998 0.50133973 0.57633972
vt 0.65175295 0.23567623
vt 0.52893054 0.23567623
vt 0.65175295 0.66555494
vt 0.40610802 0.35849875
vt 0.40610802 0.66555494
vt 0.70548785 0.97261119
vt 0.35237309 0.97261119
vt 0.70548785 0.97261119
vt 0.35237309 0.97261119
vt 0.72084063 0.05144238
vt 0.72084063 0.05144238
vt 0.72084063 0.95725828
vt 0.72084063 0.95725828
vt 0.70548785 0.95725828
vt 0.35237309 0.95725828
vt 0.70548785 0.05144238
vt 0.35237309 0.05144238
vt 0.33702031 0.95725828
vt 0.33702031 0.95725828
vt 0.33702031 0.05144238
vt 0.33702031 0.05144238
vt 0.36004949 0.69626051
vt 0.37540242 0.69626051
vt 0.37540242 0.05144238
vt 0.68245858 0.05144238
vt 0.68245858 0.69626051
vt 0.70548785 0.05144238
vt 0.69781137 0.69626051
vt 0.70548785 0.95725828
vt 0.69781137 0.94958186
vt 0.35237309 0.95725828
vt 0.69781137 0.94958186
vt 0.36004949 0.94958186
vt 0.35237309 0.95725828
vt 0.36004949 0.69626051
vt 0.35237309 0.05144238
vt 0.37540242 0.05144238
vt 0.40610802 0.20497048
vt 0.65175295 0.20497048
vt 0.40610802 0.05144238
vt 0.65175295 0.05144238
vt 0.40610802 0.23567623
vt 0.40610802 0.32011676
vt 0.49054843 0.23567623
vt 0.68245858 0.69626051
vt 0.68245858 0.69626051
vt 0.68245858 0.93422902
vt 0.68245858 0.93422902
vt 0.68245858 0.93422902
vt 0.68245858 0.93422902
vt 0.37540242 0.93422902
vt 0.37540242 0.93422902
vt 0.37540242 0.93422902
vt 0.37540242 0.93422902
vt 0.37540242 0.69626051
vt 0.37540242 0.69626051
vt 0.37540242 0.69626051
vt 0.37540242 0.93422902
vt 0.68245858 0.69626051
vt 0.68245858 0.93422902
vt 0.35237309 0.95725828
vt 0.35237309 0.05144238
vt 0.34839961 0.05144238
vt 0.35237309 0.95725828
vt 0.34839961 0.05144238
vt 0.34839961 0.95725828
vt 0.34469670 0.05144238
vt 0.34469670 0.95725828
vt 0.34151703 0.05144238
vt 0.34151703 0.95725828
vt 0.33907717 0.05144238
vt 0.33907717 0.95725828
vt 0.33754334 0.05144238
vt 0.33754334 0.95725828
vt 0.33702031 0.05144238
vt 0.33702031 0.95725828
vt 0.35237309 0.95725828
vt 0.34839961 0.95725828
vt 0.34839961 0.96109653
vt 0.33907717 0.96109653
vt 0.33754334 0.95924520
vt 0.33754334 0.96006823
vt 0.33702031 0.95725828
vt 0.33754334 0.96123183
vt 0.33754334 0.96109653
vt 0.33754334 0.96006823
vt 0.33754334 0.95924520
vt 0.33702031 0.95725828
vt 0.33754334 0.95828688
vt 0.33702031 0.95725828
vt 0.33754334 0.95924520
vt 0.33754334 0.95828688
vt 0.33754334 0.95924520
vt 0.33907717 0.95924520
vt 0.33907717 0.96109653
vt 0.34151703 0.96006823
vt 0.33754334 0.95725828
vt 0.33702031 0.95725828
vt 0.33754334 0.95828688
vt 0.33907717 0.96268642
vt 0.33754334 0.96069968
vt 0.33907717 0.96390629
vt 0.33754334 0.96109653
vt 0.33907717 0.96467316
vt 0.33754334 0.96123183
vt 0.33907717 0.96493471
vt 0.33754334 0.95725828
vt 0.33754334 0.95828688
vt 0.33907717 0.95725828
vt 0.33907717 0.95924520
vt 0.34151703 0.95725828
vt 0.34151703 0.96006823
vt 0.34469670 0.95725828
vt 0.34151703 0.96268642
vt 0.33907717 0.96268642
vt 0.34151703 0.96493471
vt 0.33907717 0.96390629
vt 0.34151703 0.96666002
vt 0.33907717 0.96467316
vt 0.34151703 0.96774447
vt 0.33907717 0.96493471
vt 0.34151703 0.96811438
vt 0.34469670 0.96069968
vt 0.34151703 0.96268642
vt 0.34469670 0.96390629
vt 0.34151703 0.96493471
vt 0.34469670 0.96666002
vt 0.34151703 0.96666002
vt 0.34469670 0.96877301
vt 0.34151703 0.96774447
vt 0.34469670 0.97010124
vt 0.34151703 0.96811438
vt 0.34469670 0.97055435
vt 0.34839961 0.95725828
vt 0.34469670 0.96069968
vt 0.34839961 0.96109653
vt 0.34469670 0.96390629
vt 0.34839961 0.96467316
vt 0.34469670 0.96666002
vt 0.34839961 0.96774447
vt 0.34469670 0.96877301
vt 0.34839961 0.97010124
vt 0.34469670 0.97010124
vt 0.34839961 0.97158277
vt 0.34469670 0.97055435
vt 0.34839961 0.97208798
vt 0.35237309 0.95725828
vt 0.34839961 0.96109653
vt 0.35237309 0.96123183
vt 0.34839961 0.96467316
vt 0.35237309 0.96493471
vt 0.34839961 0.96774447
vt 0.35237309 0.96811438
vt 0.34839961 0.97010124
vt 0.35237309 0.97055435
vt 0.34839961 0.97158277
vt 0.35237309 0.97208798
vt 0.34839961 0.97208798
vt 0.35237309 0.97261119
vt 0.33754334 0.96069968
vt 0.33702031 0.95725828
vt 0.33754334 0.96109653
vt 0.34839961 0.95725828
vt 0.34469670 0.95725828
vt 0.34469670 0.96069968
vt 0.34151703 0.96006823
vt 0.34151703 0.96268642
vt 0.33907717 0.96109653
vt 0.33907717 0.96268642
vt 0.33754334 0.96006823
vt 0.33754334 0.96069968
vt 0.33702031 0.95725828
vt 0.33702031 0.95725828
vt 0.33702031 0.05144238
vt 0.33754334 0.05144238
vt 0.33702031 0.95725828
vt 0.33754334 0.05144238
vt 0.33754334 0.95725828
vt 0.33907717 0.05144238
vt 0.33907717 0.95725828
vt 0.34151703 0.05144238
vt 0.34151703 0.95725828
vt 0.34469670 0.05144238
vt 0.34469670 0.95725828
vt 0.34839961 0.05144238
vt 0.34839961 0.95725828
vt 0.35237309 0.05144238
vt 0.35237309 0.95725828
vt 0.33702031 0.95725828
vt 0.33702031 0.95725828
vt 0.33754334 0.96123183
vt 0.33702031 0.95725828
vt 0.33754334 0.96123183
vt 0.33754334 0.96123183
vt 0.33907717 0.96493471
vt 0.33907717 0.96493471
vt 0.34151703 0.96811438
vt 0.34151703 0.96811438
vt 0.34469670 0.97055435
vt 0.34469670 0.97055435
vt 0.34839961 0.97208798
vt 0.34839961 0.97208798
vt 0.35237309 0.97261119
vt 0.35237309 0.97261119
vt 0.70548785 0.95725828
vt 0.35237309 0.95725828
vt 0.35237309 0.96123183
vt 0.70548785 0.95725828
vt 0.35237309 0.96123183
vt 0.70548785 0.96123183
vt 0.35237309 0.96493471
vt 0.70548785 0.96493471
vt 0.35237309 0.96811438
vt 0.70548785 0.96811438
vt 0.35237309 0.97055435
vt 0.70548785 0.97055435
vt 0.35237309 0.97208798
vt 0.70548785 0.97208798
vt 0.35237309 0.97261119
vt 0.70548785 0.97261119
vt 0.72084063 0.95725828
vt 0.72084063 0.05144238
vt 0.72031742 0.05144238
vt 0.72084063 0.95725828
vt 0.72031742 0.05144238
vt 0.72031742 0.95725828
vt 0.71878356 0.05144238
vt 0.71878356 0.95725828
vt 0.71634394 0.05144238
vt 0.71634394 0.95725828
vt 0.71316415 0.05144238
vt 0.71316415 0.95725828
vt 0.70946139 0.05144238
vt 0.70946139 0.95725828
vt 0.70548785 0.05144238
vt 0.70548785 0.95725828
vt 0.35237309 0.97261119
vt 0.34839961 0.97208798
vt 0.34839961 0.97158277
vt 0.33907717 0.96390629
vt 0.33754334 0.96069968
vt 0.33754334 0.96006823
vt 0.33702031 0.95725828
vt 0.33754334 0.95725828
vt 0.33754334 0.95828688
vt 0.33754334 0.96006823
vt 0.33754334 0.96069968
vt 0.33702031 0.95725828
vt 0.33754334 0.96109653
vt 0.33702031 0.95725828
vt 0.33754334 0.96069968
vt 0.33754334 0.96109653
vt 0.33754334 0.96069968
vt 0.33907717 0.96467316
vt 0.33907717 0.96390629
vt 0.34151703 0.96774447
vt 0.33754334 0.96123183
vt 0.33702031 0.95725828
vt 0.33754334 0.96109653
vt 0.33907717 0.96268642
vt 0.33754334 0.95924520
vt 0.33907717 0.96109653
vt 0.33754334 0.95828688
vt 0.33907717 0.95924520
vt 0.33754334 0.95725828
vt 0.33907717 0.95725828
vt 0.33754334 0.96123183
vt 0.33754334 0.96109653
vt 0.33907717 0.96493471
vt 0.33907717 0.96467316
vt 0.34151703 0.96811438
vt 0.34151703 0.96774447
vt 0.34469670 0.97055435
vt 0.34151703 0.96666002
vt 0.33907717 0.96268642
vt 0.34151703 0.96493471
vt 0.33907717 0.96109653
vt 0.34151703 0.96268642
vt 0.33907717 0.95924520
vt 0.34151703 0.96006823
vt 0.33907717 0.95725828
vt 0.34151703 0.95725828
vt 0.34469670 0.97010124
vt 0.34151703 0.96666002
vt 0.34469670 0.96877301
vt 0.34151703 0.96493471
vt 0.34469670 0.96666002
vt 0.34151703 0.96268642
vt 0.34469670 0.96390629
vt 0.34151703 0.96006823
vt 0.34469670 0.96069968
vt 0.34151703 0.95725828
vt 0.34469670 0.95725828
vt 0.34839961 0.97208798
vt 0.34469670 0.97010124
vt 0.34839961 0.97158277
vt 0.34469670 0.96877301
vt 0.34839961 0.97010124
vt 0.34469670 0.96666002
vt 0.34839961 0.96774447
vt 0.34469670 0.96390629
vt 0.34839961 0.96467316
vt 0.34469670 0.96069968
vt 0.34839961 0.96109653
vt 0.34469670 0.95725828
vt 0.34839961 0.95725828
vt 0.35237309 0.97261119
vt 0.34839961 0.97158277
vt 0.35237309 0.97208798
vt 0.34839961 0.97010124
vt 0.35237309 0.97055435
vt 0.34839961 0.96774447
vt 0.35237309 0.96811438
vt 0.34839961 0.96467316
vt 0.35237309 0.96493471
vt 0.34839961 0.96109653
vt 0.35237309 0.96123183
vt 0.34839961 0.95725828
vt 0.35237309 0.95725828
vt 0.33754334 0.95924520
vt 0.33702031 0.95725828
vt 0.33754334 0.95828688
vt 0.34839961 0.97208798
vt 0.34469670 0.97055435
vt 0.34469670 0.97010124
vt 0.34151703 0.96774447
vt 0.34151703 0.96666002
vt 0.33907717 0.96390629
vt 0.33907717 0.96268642
vt 0.33754334 0.96006823
vt 0.33754334 0.95924520
vt 0.33702031 0.95725828
vt 0.72084063 0.95725828
vt 0.72031742 0.95725828
vt 0.71981210 0.96109653
vt 0.71213585 0.96109653
vt 0.70892900 0.95924520
vt 0.70829743 0.96006823
vt 0.70548785 0.95725828
vt 0.70548785 0.96123183
vt 0.70651615 0.96109653
vt 0.70829743 0.96006823
vt 0.70892900 0.95924520
vt 0.70548785 0.95725828
vt 0.70932597 0.95828688
vt 0.70548785 0.95725828
vt 0.70892900 0.95924520
vt 0.70932597 0.95828688
vt 0.70892900 0.95924520
vt 0.71290278 0.95924520
vt 0.71213585 0.96109653
vt 0.71597397 0.96006823
vt 0.70946139 0.95725828
vt 0.70548785 0.95725828
vt 0.70932597 0.95828688
vt 0.71091586 0.96268642
vt 0.70747447 0.96069968
vt 0.70932597 0.96390629
vt 0.70651615 0.96109653
vt 0.70747447 0.96467316
vt 0.70548785 0.96123183
vt 0.70548785 0.96493471
vt 0.70946139 0.95725828
vt 0.70932597 0.95828688
vt 0.71316415 0.95725828
vt 0.71290278 0.95924520
vt 0.71634394 0.95725828
vt 0.71597397 0.96006823
vt 0.71878356 0.95725828
vt 0.71488941 0.96268642
vt 0.71091586 0.96268642
vt 0.71316415 0.96493471
vt 0.70932597 0.96390629
vt 0.71091586 0.96666002
vt 0.70747447 0.96467316
vt 0.70829743 0.96774447
vt 0.70548785 0.96493471
vt 0.70548785 0.96811438
vt 0.71833080 0.96069968
vt 0.71488941 0.96268642
vt 0.71700251 0.96390629
vt 0.71316415 0.96493471
vt 0.71488941 0.96666002
vt 0.71091586 0.96666002
vt 0.71213585 0.96877301
vt 0.70829743 0.96774447
vt 0.70892900 0.97010124
vt 0.70548785 0.96811438
vt 0.70548785 0.97055435
vt 0.72031742 0.95725828
vt 0.71833080 0.96069968
vt 0.71981210 0.96109653
vt 0.71700251 0.96390629
vt 0.71833080 0.96467316
vt 0.71488941 0.96666002
vt 0.71597397 0.96774447
vt 0.71213585 0.96877301
vt 0.71290278 0.97010124
vt 0.70892900 0.97010124
vt 0.70932597 0.97158277
vt 0.70548785 0.97055435
vt 0.70548785 0.97208798
vt 0.72084063 0.95725828
vt 0.71981210 0.96109653
vt 0.72031742 0.96123183
vt 0.71833080 0.96467316
vt 0.71878356 0.96493471
vt 0.71597397 0.96774447
vt 0.71634394 0.96811438
vt 0.71290278 0.97010124
vt 0.71316415 0.97055435
vt 0.70932597 0.97158277
vt 0.70946139 0.97208798
vt 0.70548785 0.97208798
vt 0.70548785 0.97261119
vt 0.70747447 0.96069968
vt 0.70548785 0.95725828
vt 0.70651615 0.96109653
vt 0.72031742 0.95725828
vt 0.71878356 0.95725828
vt 0.71833080 0.96069968
vt 0.71597397 0.96006823
vt 0.71488941 0.96268642
vt 0.71213585 0.96109653
vt 0.71091586 0.96268642
vt 0.70829743 0.96006823
vt 0.70747447 0.96069968
vt 0.70548785 0.95725828
vt 0.35237309 0.95725828
vt 0.70548785 0.95725828
vt 0.70548785 0.96123183
vt 0.35237309 0.95725828
vt 0.70548785 0.96123183
vt 0.35237309 0.96123183
vt 0.70548785 0.96493471
vt 0.35237309 0.96493471
vt 0.70548785 0.96811438
vt 0.35237309 0.96811438
vt 0.70548785 0.97055435
vt 0.35237309 0.97055435
vt 0.70548785 0.97208798
vt 0.35237309 0.97208798
vt 0.70548785 0.97261119
vt 0.35237309 0.97261119
vt 0.72084063 0.95725828
vt 0.72084063 0.95725828
vt 0.72031742 0.96123183
vt 0.72084063 0.95725828
vt 0.72031742 0.96123183
vt 0.72031742 0.96123183
vt 0.71878356 0.96493471
vt 0.71878356 0.96493471
vt 0.71634394 0.96811438
vt 0.71634394 0.96811438
vt 0.71316415 0.97055435
vt 0.71316415 0.97055435
vt 0.70946139 0.97208798
vt 0.70946139 0.97208798
vt 0.70548785 0.97261119
vt 0.70548785 0.97261119
vt 0.72084063 0.95725828
vt 0.72031742 0.96123183
vt 0.71981210 0.96123183
vt 0.71213585 0.97055435
vt 0.70892900 0.97208798
vt 0.70829743 0.97208798
vt 0.70548785 0.97261119
vt 0.70548785 0.97208798
vt 0.70651615 0.97208798
vt 0.70829743 0.97208798
vt 0.70892900 0.97208798
vt 0.70548785 0.97261119
vt 0.70932597 0.97208798
vt 0.70548785 0.97261119
vt 0.70892900 0.97208798
vt 0.70932597 0.97208798
vt 0.70892900 0.97208798
vt 0.71290278 0.97055435
vt 0.71213585 0.97055435
vt 0.71597397 0.96811438
vt 0.70946139 0.97208798
vt 0.70548785 0.97261119
vt 0.70932597 0.97208798
vt 0.71091586 0.97055435
vt 0.70747447 0.97208798
vt 0.70932597 0.97055435
vt 0.70651615 0.97208798
vt 0.70747447 0.97055435
vt 0.70548785 0.97208798
vt 0.70548785 0.97055435
vt 0.70946139 0.97208798
vt 0.70932597 0.97208798
vt 0.71316415 0.97055435
vt 0.71290278 0.97055435
vt 0.71634394 0.96811438
vt 0.71597397 0.96811438
vt 0.71878356 0.96493471
vt 0.71488941 0.96811438
vt 0.71091586 0.97055435
vt 0.71316415 0.96811438
vt 0.70932597 0.97055435
vt 0.71091586 0.96811438
vt 0.70747447 0.97055435
vt 0.70829743 0.96811438
vt 0.70548785 0.97055435
vt 0.70548785 0.96811438
vt 0.71833080 0.96493471
vt 0.71488941 0.96811438
vt 0.71700251 0.96493471
vt 0.71316415 0.96811438
vt 0.71488941 0.96493471
vt 0.71091586 0.96811438
vt 0.71213585 0.96493471
vt 0.70829743 0.96811438
vt 0.70892900 0.96493471
vt 0.70548785 0.96811438
vt 0.70548785 0.96493471
vt 0.72031742 0.96123183
vt 0.71833080 0.96493471
vt 0.71981210 0.96123183
vt 0.71700251 0.96493471
vt 0.71833080 0.96123183
vt 0.71488941 0.96493471
vt 0.71597397 0.96123183
vt 0.71213585 0.96493471
vt 0.71290278 0.96123183
vt 0.70892900 0.96493471
vt 0.70932597 0.96123183
vt 0.70548785 0.96493471
vt 0.70548785 0.96123183
vt 0.72084063 0.95725828
vt 0.71981210 0.96123183
vt 0.72031742 0.95725828
vt 0.71833080 0.96123183
vt 0.71878356 0.95725828
vt 0.71597397 0.96123183
vt 0.71634394 0.95725828
vt 0.71290278 0.96123183
vt 0.71316415 0.95725828
vt 0.70932597 0.96123183
vt 0.70946139 0.95725828
vt 0.70548785 0.96123183
vt 0.70548785 0.95725828
vt 0.70747447 0.97208798
vt 0.70548785 0.97261119
vt 0.70651615 0.97208798
vt 0.72031742 0.96123183
vt 0.71878356 0.96493471
vt 0.71833080 0.96493471
vt 0.71597397 0.96811438
vt 0.71488941 0.96811438
vt 0.71213585 0.97055435
vt 0.71091586 0.97055435
vt 0.70829743 0.97208798
vt 0.70747447 0.97208798
vt 0.70548785 0.97261119
vt 0.70548785 0.95725828
vt 0.70548785 0.05144238
vt 0.70946139 0.05144238
vt 0.70548785 0.95725828
vt 0.70946139 0.05144238
vt 0.70946139 0.95725828
vt 0.71316415 0.05144238
vt 0.71316415 0.95725828
vt 0.71634394 0.05144238
vt 0.71634394 0.95725828
vt 0.71878356 0.05144238
vt 0.71878356 0.95725828
vt 0.72031742 0.05144238
vt 0.72031742 0.95725828
vt 0.72084063 0.05144238
vt 0.72084063 0.95725828
vt 0.37540242 0.93422902
vt 0.37540242 0.69626051
vt 0.37527102 0.93436050
vt 0.37487918 0.69626051
vt 0.37487918 0.93475235
vt 0.37487918 0.93475235
vt 0.37487918 0.69626051
vt 0.37423366 0.93539786
vt 0.37334543 0.69626051
vt 0.37334543 0.93628591
vt 0.37334543 0.93628591
vt 0.37334543 0.69626051
vt 0.37222964 0.93740189
vt 0.37090558 0.69626051
vt 0.37090558 0.93872595
vt 0.36772591 0.69626051
vt 0.36772591 0.94190550
vt 0.36402312 0.69626051
vt 0.36402312 0.94560838
vt 0.36004949 0.69626051
vt 0.36004949 0.94958186
vt 0.37487918 0.93475235
vt 0.68298179 0.93475235
vt 0.68258995 0.93436050
vt 0.68245858 0.93422902
vt 0.37540242 0.93422902
vt 0.68258995 0.93436050
vt 0.37527102 0.93436050
vt 0.37487918 0.93475235
vt 0.68298179 0.93475235
vt 0.37487918 0.93475235
vt 0.68362731 0.93539786
vt 0.37423366 0.93539786
vt 0.68451542 0.93628591
vt 0.37334543 0.93628591
vt 0.68563122 0.93740189
vt 0.37222964 0.93740189
vt 0.68695527 0.93872595
vt 0.37222964 0.93740189
vt 0.37090558 0.93872595
vt 0.68695527 0.93872595
vt 0.36772591 0.94190550
vt 0.69013506 0.94190550
vt 0.36402312 0.94560838
vt 0.69383782 0.94560838
vt 0.36004949 0.94958186
vt 0.69781137 0.94958186
vt 0.69781137 0.94958186
vt 0.69781137 0.69626051
vt 0.69383782 0.69626051
vt 0.69781137 0.94958186
vt 0.69383782 0.69626051
vt 0.69383782 0.94560838
vt 0.69013506 0.69626051
vt 0.69013506 0.94190550
vt 0.68695527 0.69626051
vt 0.68695527 0.93872595
vt 0.68451542 0.69626051
vt 0.68451542 0.93628591
vt 0.68695527 0.69626051
vt 0.68563122 0.93740189
vt 0.68695527 0.93872595
vt 0.68298179 0.69626051
vt 0.68245858 0.69626051
vt 0.68245858 0.93422902
vt 0.68245858 0.93422902
vt 0.68258995 0.93436050
vt 0.68298179 0.69626051
vt 0.68298179 0.93475235
vt 0.68451542 0.69626051
vt 0.68362731 0.93539786
vt 0.68451542 0.93628591
f 1/1 2/2 3/3
f 3/3 2/2 4/4
f 3/3 4/4 5/5
f 6/6 7/7 8/8
f 8/8 7/7 9/9
f 10/10 11/11 12/12
f 12/12 11/11 13/13
f 14/14 15/15 16/16
f 16/16 15/15 17/17
f 18/18 19/19 20/20
f 20/20 19/19 21/21
f 22/22 23/23 24/24
f 25/25 26/26 27/27
f 27/27 26/26 28/28
f 27/27 28/28 29/29
f 29/29 28/28 30/30
f 29/29 30/30 31/31
f 32/32 33/33 34/34
f 34/34 33/33 35/35
f 34/34 35/35 36/36
f 36/36 35/35 37/37
f 38/38 39/39 40/40
f 40/40 39/39 41/41
f 42/42 43/43 44/44
f 45/45 46/46 47/47
f 47/47 46/46 48/48
f 49/49 50/50 51/51
f 51/51 50/50 52/52
f 53/53 54/54 55/55
f 55/55 54/54 56/56
f 57/57 58/58 59/59
f 59/59 58/58 60/60
f 61/61 62/62 63/63
f 64/64 65/65 66/66
f 66/66 65/65 67/67
f 66/66 67/67 68/68
f 68/68 67/67 69/69
f 68/68 69/69 70/70
f 70/70 69/69 71/71
f 70/70 71/71 72/72
f 72/72 71/71 73/73
f 72/72 73/73 74/74
f 74/74 73/73 75/75
f 74/74 75/75 76/76
f 77/77 78/78 79/79
f 80/80 81/81 82/82
f 83/83 84/84 85/85
f 86/86 87/87 88/88
f 89/89 90/90 91/91
f 92/92 93/93 94/94
f 94/94 93/93 95/95
f 94/94 95/95 96/96
f 97/97 98/98 99/99
f 100/100 101/101 102/102
f 102/102 101/101 103/103
f 102/102 103/103 104/104
f 104/104 103/103 105/105
f 104/104 105/105 106/106
f 107/107 108/108 109/109
f 109/109 108/108 110/110
f 109/109 110/110 111/111
f 111/111 110/110 112/112
f 111/111 112/112 113/113
f 114/114 115/115 116/116
f 116/116 115/115 117/117
f 116/116 117/117 118/118
f 118/118 117/117 119/119
f 118/118 119/119 120/120
f 120/120 119/119 121/121
f 120/120 121/121 122/122
f 123/123 124/124 125/125
f 125/125 124/124 126/126
f 125/125 126/126 127/127
f 127/127 126/126 128/128
f 127/127 128/128 129/129
f 129/129 128/128 130/130
f 129/129 130/130 131/131
f 131/131 130/130 132/132
f 131/131 132/132 133/133
f 134/134 135/135 136/136
f 136/136 135/135 137/137
f 136/136 137/137 138/138
f 138/138 137/137 139/139
f 138/138 139/139 140/140
f 140/140 139/139 141/141
f 140/140 141/141 142/142
f 142/142 141/141 143/143
f 142/142 143/143 144/144
f 144/144 143/143 145/145
f 144/144 145/145 146/146
f 147/147 148/148 149/149
f 149/149 148/148 150/150
f 149/149 150/150 151/151
f 151/151 150/150 152/152
f 151/151 152/152 153/153
f 153/153 152/152 154/154
f 153/153 154/154 155/155
f 155/155 154/154 156/156
f 155/155 156/156 157/157
f 157/157 156/156 158/158
f 157/157 158/158 159/159
f 160/160 161/161 162/162
f 163/163 164/164 165/165
f 165/165 164/164 166/166
f 165/165 166/166 167/167
f 167/167 166/166 168/168
f 167/167 168/168 169/169
f 169/169 168/168 170/170
f 169/169 170/170 171/171
f 171/171 170/170 172/172
f 173/173 174/174 175/175
f 176/176 177/177 178/178
f 178/178 177/177 179/179
f 178/178 179/179 180/180
f 180/180 179/179 181/181
f 180/180 181/181 182/182
f 182/182 181/181 183/183
f 182/182 183/183 184/184
f 184/184 183/183 185/185
f 184/184 185/185 186/186
f 186/186 185/185 187/187
f 186/186 187/187 188/188
f 189/189 190/190 191/191
f 192/192 193/193 194/194
f 194/194 193/193 195/195
f 194/194 195/195 196/196
f 196/196 195/195 197/197
f 196/196 197/197 198/198
f 198/198 197/197 199/199
f 198/198 199/199 200/200
f 200/200 199/199 201/201
f 200/200 201/201 202/202
f 202/202 201/201 203/203
f 202/202 203/203 204/204
f 205/205 206/206 207/207
f 208/208 209/209 210/210
f 210/210 209/209 211/211
f 210/210 211/211 212/212
f 212/212 211/211 213/213
f 212/212 213/213 214/214
f 214/214 213/213 215/215
f 214/214 215/215 216/216
f 216/216 215/215 217/217
f 216/216 217/217 218/218
f 218/218 217/217 219/219
f 218/218 219/219 220/220
f 221/221 222/222 223/223
f 224/224 225/225 226/226
f 226/226 225/225 227/227
f 226/226 227/227 228/228
f 228/228 227/227 229/229
f 228/228 229/229 230/230
f 230/230 229/229 231/231
f 230/230 231/231 232/232
f 232/232 231/231 233/233
f 232/232 233/233 234/234
f 234/234 233/233 235/235
f 234/234 235/235 236/236
f 237/237 238/238 239/239
f 240/240 241/241 242/242
f 243/243 244/244 245/245
f 246/246 247/247 248/248
f 249/249 250/250 251/251
f 252/252 253/253 254/254
f 254/254 253/253 255/255
f 254/254 255/255 256/256
f 257/257 258/258 259/259
f 260/260 261/261 262/262
f 262/262 261/261 263/263
f 262/262 263/263 264/264
f 264/264 263/263 265/265
f 264/264 265/265 266/266
f 267/267 268/268 269/269
f 269/269 268/268 270/270
f 269/269 270/270 271/271
f 271/271 270/270 272/272
f 271/271 272/272 273/273
f 274/274 275/275 276/276
f 276/276 275/275 277/277
f 276/276 277/277 278/278
f 278/278 277/277 279/279
f 278/278 279/279 280/280
f 280/280 279/279 281/281
f 280/280 281/281 282/282
f 283/283 284/284 285/285
f 285/285 284/284 286/286
f 285/285 286/286 287/287
f 287/287 286/286 288/288
f 287/287 288/288 289/289
f 289/289 288/288 290/290
f 289/289 290/290 291/291
f 291/291 290/290 292/292
f 291/291 292/292 293/293
f 294/294 295/295 296/296
f 296/296 295/295 297/297
f 296/296 297/297 298/298
f 298/298 297/297 299/299
f 298/298 299/299 300/300
f 300/300 299/299 301/301
f 300/300 301/301 302/302
f 302/302 301/301 303/303
f 302/302 303/303 304/304
f 304/304 303/303 305/305
f 304/304 305/305 306/306
f 307/307 308/308 309/309
f 309/309 308/308 310/310
f 309/309 310/310 311/311
f 311/311 310/310 312/312
f 311/311 312/312 313/313
f 313/313 312/312 314/314
f 313/313 314/314 315/315
f 315/315 314/314 316/316
f 315/315 316/316 317/317
f 317/317 316/316 318/318
f 317/317 318/318 319/319
f 320/320 321/321 322/322
f 323/323 324/324 325/325
f 325/325 324/324 326/326
f 325/325 326/326 327/327
f 327/327 326/326 328/328
f 327/327 328/328 329/329
f 329/329 328/328 330/330
f 329/329 330/330 331/331
f 331/331 330/330 332/332
f 333/333 334/334 335/335
f 336/336 337/337 338/338
f 339/339 340/340 341/341
f 342/342 343/343 344/344
f 345/345 346/346 347/347
f 348/348 349/349 350/350
f 350/350 349/349 351/351
f 350/350 351/351 352/352
f 353/353 354/354 355/355
f 356/356 357/357 358/358
f 358/358 357/357 359/359
f 358/358 359/359 360/360
f 360/360 359/359 361/361
f 360/360 361/361 362/362
f 363/363 364/364 365/365
f 365/365 364/364 366/366
f 365/365 366/366 367/367
f 367/367 366/366 368/368
f 367/367 368/368 369/369
f 370/370 371/371 372/372
f 372/372 371/371 373/373
f 372/372 373/373 374/374
f 374/374 373/373 375/375
f 374/374 375/375 376/376
f 376/376 375/375 377/377
f 376/376 377/377 378/378
f 379/379 380/380 381/381
f 381/381 380/380 382/382
f 381/381 382/382 383/383
f 383/383 382/382 384/384
f 383/383 384/384 385/385
f 385/385 384/384 386/386
f 385/385 386/386 387/387
f 387/387 386/386 388/388
f 387/387 388/388 389/389
f 390/390 391/391 392/392
f 392/392 391/391 393/393
f 392/392 393/393 394/394
f 394/394 393/393 395/395
f 394/394 395/395 396/396
f 396/396 395/395 397/397
f 396/396 397/397 398/398
f 398/398 397/397 399/399
f 398/398 399/399 400/400
f 400/400 399/399 401/401
f 400/400 401/401 402/402
f 403/403 404/404 405/405
f 405/405 404/404 406/406
f 405/405 406/406 407/407
f 407/407 406/406 408/408
f 407/407 408/408 409/409
f 409/409 408/408 410/410
f 409/409 410/410 411/411
f 411/411 410/410 412/412
f 411/411 412/412 413/413
f 413/413 412/412 414/414
f 413/413 414/414 415/415
f 416/416 417/417 418/418
f 419/419 420/420 421/421
f 421/421 420/420 422/422
f 421/421 422/422 423/423
f 423/423 422/422 424/424
f 423/423 424/424 425/425
f 425/425 424/424 426/426
f 425/425 426/426 427/427
f 427/427 426/426 428/428
f 429/429 430/430 431/431
f 432/432 433/433 434/434
f 434/434 433/433 435/435
f 434/434 435/435 436/436
f 436/436 435/435 437/437
f 436/436 437/437 438/438
f 438/438 437/437 439/439
f 438/438 439/439 440/440
f 440/440 439/439 441/441
f 440/440 441/441 442/442
f 442/442 441/441 443/443
f 442/442 443/443 444/444
f 445/445 446/446 447/447
f 448/448 449/449 450/450
f 450/450 449/449 451/451
f 450/450 451/451 452/452
f 452/452 451/451 453/453
f 452/452 453/453 454/454
f 454/454 453/453 455/455
f 454/454 455/455 456/456
f 456/456 455/455 457/457
f 456/456 457/457 458/458
f 458/458 457/457 459/459
f 458/458 459/459 460/460
f 461/461 462/462 463/463
f 464/464 465/465 466/466
f 467/467 468/468 469/469
f 470/470 471/471 472/472
f 473/473 474/474 475/475
f 476/476 477/477 478/478
f 478/478 477/477 479/479
f 478/478 479/479 480/480
f 481/481 482/482 483/483
f 484/484 485/485 486/486
f 486/486 485/485 487/487
f 486/486 487/487 488/488
f 488/488 487/487 489/489
f 488/488 489/489 490/490
f 491/491 492/492 493/493
f 493/493 492/492 494/494
f 493/493 494/494 495/495
f 495/495 494/494 496/496
f 495/495 496/496 497/497
f 498/498 499/499 500/500
f 500/500 499/499 501/501
f 500/500 501/501 502/502
f 502/502 501/501 503/503
f 502/502 503/503 504/504
f 504/504 503/503 505/505
f 504/504 505/505 506/506
f 507/507 508/508 509/509
f 509/509 508/508 510/510
f 509/509 510/510 511/511
f 511/511 510/510 512/512
f 511/511 512/512 513/513
f 513/513 512/512 514/514
f 513/513 514/514 515/515
f 515/515 514/514 516/516
f 515/515 516/516 517/517
f 518/518 519/519 520/520
f 520/520 519/519 521/521
f 520/520 521/521 522/522
f 522/522 521/521 523/523
f 522/522 523/523 524/524
f 524/524 523/523 525/525
f 524/524 525/525 526/526
f 526/526 525/525 527/527
f 526/526 527/527 528/528
f 528/528 527/527 529/529
f 528/528 529/529 530/530
f 531/531 532/532 533/533
f 533/533 532/532 534/534
f 533/533 534/534 535/535
f 535/535 534/534 536/536
f 535/535 536/536 537/537
f 537/537 536/536 538/538
f 537/537 538/538 539/539
f 539/539 538/538 540/540
f 539/539 540/540 541/541
f 541/541 540/540 542/542
f 541/541 542/542 543/543
f 544/544 545/545 546/546
f 547/547 548/548 549/549
f 549/549 548/548 550/550
f 549/549 550/550 551/551
f 551/551 550/550 552/552
f 551/551 552/552 553/553
f 553/553 552/552 554/554
f 553/553 554/554 555/555
f 555/555 554/554 556/556
f 557/557 558/558 559/559
f 560/560 561/561 562/562
f 562/562 561/561 563/563
f 562/562 563/563 564/564
f 564/564 563/563 565/565
f 564/564 565/565 566/566
f 566/566 565/565 567/567
f 566/566 567/567 568/568
f 568/568 567/567 569/569
f 568/568 569/569 570/570
f 570/570 569/569 571/571
f 570/570 571/571 572/572
f 573/573 574/574 575/575
f 575/575 574/574 576/576
f 575/575 576/576 577/577
f 578/578 579/579 580/580
f 580/580 579/579 581/581
f 580/580 581/581 582/582
f 583/583 584/584 585/585
f 585/585 584/584 586/586
f 585/585 586/586 587/587
f 587/587 586/586 588/588
f 587/587 588/588 589/589
f 589/589 588/588 590/590
f 589/589 590/590 591/591
f 591/591 590/590 592/592
f 591/591 592/592 593/593
f 594/594 595/595 596/596
f 597/597 598/598 599/599
f 599/599 598/598 600/600
f 599/599 600/600 601/601
f 602/602 603/603 604/604
f 604/604 603/603 605/605
f 604/604 605/605 606/606
f 606/606 605/605 607/607
f 606/606 607/607 608/608
f 608/608 607/607 609/609
f 608/608 609/609 610/610
f 611/611 612/612 613/613
f 613/613 612/612 614/614
f 613/613 614/614 615/615
f 615/615 614/614 616/616
f 615/615 616/616 617/617
f 617/617 616/616 618/618
f 617/617 618/618 619/619
f 620/620 621/621 622/622
f 623/623 624/624 625/625
f 625/625 624/624 626/626
f 625/625 626/626 627/627
f 627/627 626/626 628/628
f 627/627 628/628 629/629
f 630/630 631/631 632/632
f 632/632 631/631 633/633
f 632/632 633/633 634/634
f 635/635 636/636 637/637
f 638/638 639/639 640/640
f 640/640 639/639 641/641
f 640/640 641/641 642/642
f 642/642 641/641 643/643
f 642/642 643/643 644/644

