# https://github.com/mikedh/trimesh
mtllib material.mtl
usemtl green low gloss plastic
v -1.07500664 10.29004323 0.00000000
v -1.07500664 10.29004323 1.70322937
v -1.07500664 10.43398640 0.00000000
v -1.07500664 10.43398640 0.00000000
v -1.07500664 10.29004323 1.70322937
v -1.07500664 10.43398640 1.70322937
v -0.35529015 10.29004323 1.70322937
v -0.35529015 10.29004323 0.00000000
v -0.35529015 10.43398640 1.70322937
v -0.35529015 10.43398640 1.70322937
v -0.35529015 10.29004323 0.00000000
v -0.35529015 10.43398640 0.00000000
v -1.07500664 10.29004323 1.70322937
v -0.35529015 10.29004323 1.70322937
v -1.07500664 10.43398640 1.70322937
v -1.07500664 10.43398640 1.70322937
v -0.35529015 10.29004323 1.70322937
v -0.35529015 10.43398640 1.70322937
v -0.35529015 10.43398640 0.00000000
v -0.35529015 10.29004323 0.00000000
v -1.07500664 10.43398640 0.00000000
v -1.07500664 10.43398640 0.00000000
v -0.35529015 10.29004323 0.00000000
v -1.07500664 10.29004323 0.00000000
v -1.07500664 10.43398640 1.70322937
v -0.35529015 10.43398640 1.70322937
v -1.07500664 10.43398640 0.00000000
v -1.07500664 10.43398640 0.00000000
v -0.35529015 10.43398640 1.70322937
v -0.35529015 10.43398640 0.00000000
v -0.35529015 10.29004323 0.00000000
v -0.35529015 10.29004323 1.70322937
v -1.07500664 10.29004323 0.00000000
v -1.07500664 10.29004323 0.00000000
v -0.35529015 10.29004323 1.70322937
v -1.07500664 10.29004323 1.70322937
v 0.36442629 10.29004323 2.89548987
v 0.36442629 10.29004323 4.59871951
v -0.35529015 10.29004323 2.89548987
v -0.35529015 10.29004323 2.89548987
v 0.36442629 10.29004323 4.59871951
v -0.35529015 10.29004323 4.59871951
vt -10.00000000 1.00000000
vt -10.00000000 4.00000000
vt -10.19999981 1.00000000
vt -10.19999981 1.00000000
vt -10.00000000 4.00000000
vt -10.19999981 4.00000000
vt 10.00000000 4.00000000
vt 10.00000000 1.00000000
vt 10.19999981 4.00000000
vt 10.19999981 4.00000000
vt 10.00000000 1.00000000
vt 10.19999981 1.00000000
vt -2.79999995 11.00000000
vt -1.79999995 11.00000000
vt -2.79999995 11.19999981
vt -2.79999995 11.19999981
vt -1.79999995 11.00000000
vt -1.79999995 11.19999981
vt -1.79999995 -9.19999981
vt -1.79999995 -9.00000000
vt -2.79999995 -9.19999981
vt -2.79999995 -9.19999981
vt -1.79999995 -9.00000000
vt -2.79999995 -9.00000000
vt 2.79999995 4.00000000
vt 1.79999995 4.00000000
vt 2.79999995 1.00000000
vt 2.79999995 1.00000000
vt 1.79999995 4.00000000
vt 1.79999995 1.00000000
vt 0.87371838 0.01521677
vt 0.87371838 0.93364310
vt 0.13449907 0.01521677
vt 0.13449907 0.01521677
vt 0.87371838 0.93364310
vt 0.13449907 0.93364310
vt 0.88907081 0.01471794
vt 0.88907081 0.93314433
vt 0.14985061 0.01471794
vt 0.14985061 0.01471794
vt 0.88907081 0.93314433
vt 0.14985061 0.93314433
f 1/1 2/2 3/3
f 4/4 5/5 6/6
f 7/7 8/8 9/9
f 10/10 11/11 12/12
f 13/13 14/14 15/15
f 16/16 17/17 18/18
f 19/19 20/20 21/21
f 22/22 23/23 24/24
f 25/25 26/26 27/27
f 28/28 29/29 30/30
f 31/31 32/32 33/33
f 34/34 35/35 36/36
f 37/37 38/38 39/39
f 40/40 41/41 42/42

