# https://github.com/mikedh/trimesh
mtllib material.mtl
usemtl red
v 0.33750001 -0.12000000 0.74000001
v 0.33750001 -0.12000000 0.48401171
v 0.29750001 -0.12000000 0.74000001
v 0.29750001 -0.12000000 0.48401171
v 0.29750001 0.12000000 0.71598828
v 0.29750001 0.12000000 0.46000001
v 0.33750001 0.12000000 0.71598828
v 0.33750001 0.12000000 0.46000001
v -0.33750001 0.12000000 0.41499999
v -0.33750001 0.12000000 0.15901172
v -0.29750001 0.12000000 0.41499999
v -0.29750001 0.12000000 0.15901172
v -0.29750001 -0.12000000 0.39098829
v -0.29750001 -0.12000000 0.13500001
v -0.33750001 -0.12000000 0.39098829
v -0.33750001 -0.12000000 0.13500001
v -0.33750001 -0.12000000 0.10000000
v -0.33750001 -0.12000000 0.00000000
v -0.33750001 -0.15000001 0.00000000
v -0.33750001 0.15000001 0.00000000
v -0.33750001 0.12000000 0.00000000
v -0.33750001 0.12000000 0.10000000
v -0.33750001 -0.09367605 0.42500001
v -0.33750001 -0.09079063 0.44999999
v -0.33750001 0.11000000 0.42500001
v -0.33750001 0.11000000 0.44999999
v -0.33750001 0.12000000 0.41499999
v -0.33750001 0.12000000 0.71887368
v -0.33750001 0.15000001 0.77499998
v -0.33750001 0.12000000 0.46000001
v -0.33750001 0.15000001 0.00000000
v -0.33750001 -0.11375305 0.48182040
v -0.33750001 0.09634618 0.74444443
v -0.33750001 0.11375305 0.71817958
v -0.33750001 0.11000000 0.44999999
v -0.33750001 0.12000000 0.46000001
v -0.33750001 0.12000000 0.41499999
v -0.33750001 0.15000001 0.00000000
v -0.33750001 0.12000000 0.15901172
v -0.33750001 0.12000000 0.10000000
v -0.33750001 0.11555555 0.15456727
v -0.33750001 -0.11000000 0.75000000
v -0.33750001 -0.15000001 0.77499998
v -0.33750001 0.09079063 0.75000000
v -0.33750001 0.15000001 0.77499998
v -0.33750001 0.09634618 0.74444443
v -0.33750001 0.12000000 0.71887368
v -0.33750001 0.11375305 0.71817958
v -0.33750001 -0.11000000 0.75000000
v -0.33750001 -0.12000000 0.74000001
v -0.33750001 -0.15000001 0.77499998
v -0.33750001 -0.12000000 0.48112631
v -0.33750001 -0.15000001 0.00000000
v -0.33750001 0.11375305 0.71817958
v -0.33750001 -0.09634618 0.45555556
v -0.33750001 -0.11375305 0.48182040
v -0.33750001 -0.11555555 0.39543274
v -0.33750001 -0.12000000 0.48112631
v -0.33750001 -0.12000000 0.39098829
v -0.33750001 -0.15000001 0.00000000
v -0.33750001 -0.12000000 0.13500001
v -0.33750001 -0.12000000 0.10000000
v -0.33750001 -0.11000000 0.12500000
v -0.33750001 0.12000000 0.10000000
v -0.33750001 0.09367605 0.12500000
v -0.33750001 0.11555555 0.15456727
v -0.33750001 0.09454367 0.13280869
v -0.33750001 -0.09454367 0.41719133
v -0.33750001 -0.11555555 0.39543274
v -0.33750001 -0.09367605 0.42500001
v -0.33750001 -0.09634618 0.45555556
v -0.33750001 -0.09079063 0.44999999
v -0.29750001 0.12000000 0.10000000
v -0.33750001 0.12000000 0.10000000
v -0.29750001 0.12000000 0.00000000
v -0.33750001 0.12000000 0.00000000
v -0.29750001 0.15000001 0.10000000
v -0.29750001 0.12000000 0.10000000
v -0.29750001 0.15000001 0.00000000
v -0.29750001 0.12000000 0.00000000
v 0.33750001 0.15000001 0.00000000
v 0.29750001 0.15000001 0.00000000
v 0.29750001 0.15000001 0.10000000
v -0.29750001 0.15000001 0.00000000
v -0.33750001 0.15000001 0.00000000
v -0.29750001 0.15000001 0.10000000
v -0.33750001 0.15000001 0.77499998
v -0.33750001 0.15000001 0.77499998
v -0.29750001 0.15000001 0.74000001
v -0.29750001 0.15000001 0.46000001
v 0.29750001 0.15000001 0.10000000
v 0.28749999 0.15000001 0.12500000
v 0.29750001 0.15000001 0.13500001
v 0.33750001 0.15000001 0.00000000
v 0.29750001 0.15000001 0.10000000
v 0.33750001 0.15000001 0.77499998
v 0.29750001 0.15000001 0.13500001
v 0.29750001 0.15000001 0.41499999
v 0.28749999 0.15000001 0.12500000
v 0.29750001 0.15000001 0.10000000
v -0.28749999 0.15000001 0.12500000
v -0.29750001 0.15000001 0.10000000
v -0.29750001 0.15000001 0.13500001
v -0.33750001 0.15000001 0.77499998
v -0.29750001 0.15000001 0.41499999
v -0.29750001 0.15000001 0.46000001
v -0.28749999 0.15000001 0.42500001
v -0.28749999 0.15000001 0.44999999
v 0.28749999 0.15000001 0.42500001
v 0.28749999 0.15000001 0.44999999
v 0.29750001 0.15000001 0.41499999
v 0.29750001 0.15000001 0.46000001
v 0.33750001 0.15000001 0.77499998
v 0.29750001 0.15000001 0.46000001
v 0.29750001 0.15000001 0.74000001
v 0.33750001 0.15000001 0.77499998
v 0.28749999 0.15000001 0.75000000
v -0.33750001 0.15000001 0.77499998
v -0.28749999 0.15000001 0.75000000
v -0.29750001 0.15000001 0.74000001
v -0.29750001 0.15000001 0.00000000
v -0.29750001 0.12000000 0.00000000
v -0.33750001 0.15000001 0.00000000
v -0.33750001 0.12000000 0.00000000
v -0.33750001 -0.15000001 0.77499998
v -0.33750001 -0.15000001 0.00000000
v -0.29750001 -0.15000001 0.10000000
v -0.29750001 -0.15000001 0.00000000
v 0.29750001 -0.15000001 0.00000000
v 0.33750001 -0.15000001 0.00000000
v 0.29750001 -0.15000001 0.10000000
v 0.33750001 -0.15000001 0.77499998
v -0.28749999 -0.15000001 0.42500001
v 0.28749999 -0.15000001 0.42500001
v 0.28749999 -0.15000001 0.44999999
v 0.33750001 -0.15000001 0.77499998
v 0.29750001 -0.15000001 0.74000001
v 0.29750001 -0.15000001 0.46000001
v -0.29750001 -0.15000001 0.46000001
v -0.29750001 -0.15000001 0.74000001
v -0.33750001 -0.15000001 0.77499998
v -0.28749999 -0.15000001 0.75000000
v 0.33750001 -0.15000001 0.77499998
v 0.28749999 -0.15000001 0.75000000
v 0.29750001 -0.15000001 0.74000001
v 0.28749999 -0.15000001 0.44999999
v 0.28749999 -0.15000001 0.42500001
v 0.29750001 -0.15000001 0.46000001
v 0.29750001 -0.15000001 0.41499999
v 0.33750001 -0.15000001 0.77499998
v 0.29750001 -0.15000001 0.13500001
v 0.29750001 -0.15000001 0.10000000
v 0.28749999 -0.15000001 0.12500000
v -0.29750001 -0.15000001 0.10000000
v 0.28749999 -0.15000001 0.44999999
v -0.28749999 -0.15000001 0.44999999
v -0.28749999 -0.15000001 0.42500001
v -0.29750001 -0.15000001 0.46000001
v -0.29750001 -0.15000001 0.41499999
v -0.33750001 -0.15000001 0.77499998
v -0.29750001 -0.15000001 0.13500001
v -0.29750001 -0.15000001 0.10000000
v -0.28749999 -0.15000001 0.12500000
v 0.28749999 -0.15000001 0.12500000
v 0.33750001 -0.15000001 0.00000000
v 0.33750001 -0.12000000 0.00000000
v 0.33750001 -0.12000000 0.10000000
v 0.33750001 0.12000000 0.10000000
v 0.33750001 0.09634618 0.13055556
v 0.33750001 0.09079063 0.12500000
v 0.33750001 -0.15000001 0.00000000
v 0.33750001 -0.12000000 0.10000000
v 0.33750001 -0.15000001 0.77499998
v 0.33750001 -0.12000000 0.13500001
v 0.33750001 -0.12000000 0.39387369
v 0.33750001 -0.09367605 0.44999999
v 0.33750001 -0.09454367 0.45780867
v 0.33750001 -0.11555555 0.47956726
v 0.33750001 0.12000000 0.10000000
v 0.33750001 0.09079063 0.12500000
v 0.33750001 -0.12000000 0.10000000
v 0.33750001 -0.11000000 0.12500000
v 0.33750001 -0.12000000 0.13500001
v 0.33750001 -0.11555555 0.47956726
v 0.33750001 -0.09454367 0.45780867
v 0.33750001 0.09454367 0.74219131
v 0.33750001 0.11555555 0.72043276
v 0.33750001 0.09367605 0.75000000
v 0.33750001 0.15000001 0.77499998
v 0.33750001 -0.11000000 0.75000000
v 0.33750001 -0.15000001 0.77499998
v 0.33750001 -0.12000000 0.74000001
v 0.33750001 0.12000000 0.46000001
v 0.33750001 0.11000000 0.44999999
v 0.33750001 0.12000000 0.41499999
v 0.33750001 -0.12000000 0.74000001
v 0.33750001 -0.15000001 0.77499998
v 0.33750001 -0.12000000 0.48401171
v 0.33750001 -0.12000000 0.39387369
v 0.33750001 -0.11555555 0.47956726
v 0.33750001 -0.11375305 0.39317960
v 0.33750001 -0.09367605 0.44999999
v 0.33750001 0.11555555 0.72043276
v 0.33750001 0.12000000 0.71598828
v 0.33750001 0.15000001 0.77499998
v 0.33750001 0.12000000 0.46000001
v 0.33750001 0.15000001 0.00000000
v 0.33750001 0.12000000 0.41499999
v 0.33750001 0.12000000 0.15612631
v 0.33750001 0.12000000 0.00000000
v 0.33750001 0.15000001 0.00000000
v 0.33750001 0.12000000 0.10000000
v 0.33750001 0.12000000 0.15612631
v 0.33750001 0.09634618 0.13055556
v 0.33750001 0.11375305 0.15682040
v 0.33750001 -0.11375305 0.39317960
v 0.33750001 -0.09634618 0.41944444
v 0.33750001 -0.09367605 0.44999999
v 0.33750001 -0.09079063 0.42500001
v 0.33750001 0.11000000 0.44999999
v 0.33750001 0.11000000 0.42500001
v 0.33750001 0.12000000 0.41499999
v -0.29750001 -0.12000000 0.10000000
v -0.29750001 -0.15000001 0.10000000
v -0.29750001 -0.12000000 0.00000000
v -0.29750001 -0.15000001 0.00000000
v -0.33750001 -0.12000000 0.10000000
v -0.29750001 -0.12000000 0.10000000
v -0.33750001 -0.12000000 0.00000000
v -0.29750001 -0.12000000 0.00000000
v -0.29750001 -0.12000000 0.00000000
v -0.29750001 -0.15000001 0.00000000
v -0.33750001 -0.12000000 0.00000000
v -0.33750001 -0.15000001 0.00000000
v 0.29750001 -0.12000000 0.10000000
v 0.33750001 -0.12000000 0.10000000
v 0.29750001 -0.12000000 0.00000000
v 0.33750001 -0.12000000 0.00000000
v 0.29750001 -0.15000001 0.10000000
v 0.29750001 -0.12000000 0.10000000
v 0.29750001 -0.15000001 0.00000000
v 0.29750001 -0.12000000 0.00000000
v 0.29750001 -0.12000000 0.00000000
v 0.33750001 -0.12000000 0.00000000
v 0.29750001 -0.15000001 0.00000000
v 0.33750001 -0.15000001 0.00000000
v 0.29750001 0.12000000 0.10000000
v 0.29750001 0.15000001 0.10000000
v 0.29750001 0.12000000 0.00000000
v 0.29750001 0.15000001 0.00000000
v 0.33750001 0.12000000 0.10000000
v 0.29750001 0.12000000 0.10000000
v 0.33750001 0.12000000 0.00000000
v 0.29750001 0.12000000 0.00000000
v 0.29750001 0.12000000 0.00000000
v 0.29750001 0.15000001 0.00000000
v 0.33750001 0.12000000 0.00000000
v 0.33750001 0.15000001 0.00000000
v -0.29750001 0.15000001 0.13500001
v -0.29750001 0.15000001 0.41499999
v -0.29750001 0.12000000 0.41499999
v -0.29750001 0.12000000 0.41499999
v -0.29750001 0.12000000 0.15901172
v -0.29750001 0.15000001 0.13500001
v -0.29750001 0.11555555 0.15456727
v -0.29750001 0.09279063 0.13500001
v -0.29750001 -0.11555555 0.39543274
v -0.29750001 -0.15000001 0.41499999
v -0.29750001 -0.15000001 0.13500001
v -0.29750001 -0.12000000 0.13500001
v -0.29750001 -0.12000000 0.13500001
v -0.29750001 -0.12000000 0.39098829
v -0.29750001 -0.15000001 0.41499999
v -0.29750001 -0.11555555 0.39543274
v -0.29750001 -0.09279063 0.41499999
v -0.29750001 0.11555555 0.15456727
v 0.29750001 -0.12000000 0.13500001
v 0.29750001 -0.12000000 0.39387369
v 0.33750001 -0.12000000 0.13500001
v 0.33750001 -0.12000000 0.39387369
v 0.29750001 -0.12000000 0.13500001
v 0.29750001 -0.15000001 0.13500001
v 0.29750001 -0.12000000 0.39387369
v 0.29750001 -0.15000001 0.41499999
v 0.29750001 -0.11375305 0.39317960
v 0.29750001 -0.09279063 0.41499999
v 0.29750001 0.09279063 0.13500001
v 0.29750001 0.11375305 0.15682040
v 0.29750001 0.15000001 0.13500001
v 0.29750001 0.12000000 0.15612631
v 0.29750001 0.15000001 0.41499999
v 0.29750001 0.12000000 0.41499999
v 0.29750001 0.12000000 0.41499999
v 0.29750001 0.12000000 0.15612631
v 0.33750001 0.12000000 0.41499999
v 0.33750001 0.12000000 0.15612631
v 0.33750001 0.11375305 0.15682040
v 0.29750001 0.11375305 0.15682040
v 0.33750001 -0.09634618 0.41944444
v 0.29750001 -0.09279063 0.41499999
v 0.29305556 -0.09634618 0.41944444
v 0.33750001 -0.11375305 0.39317960
v 0.29750001 -0.11375305 0.39317960
v 0.33750001 0.09634618 0.13055556
v 0.29750001 0.09279063 0.13500001
v 0.29305556 0.09634618 0.13055556
v -0.29750001 -0.11555555 0.39543274
v -0.33750001 -0.11555555 0.39543274
v -0.29750001 0.09279063 0.13500001
v -0.33750001 0.09454367 0.13280869
v -0.29530868 0.09454367 0.13280869
v -0.29750001 0.11555555 0.15456727
v -0.33750001 0.11555555 0.15456727
v -0.29750001 -0.09279063 0.41499999
v -0.33750001 -0.09454367 0.41719133
v -0.29530868 -0.09454367 0.41719133
v -0.33750001 0.12000000 0.71887368
v -0.33750001 0.12000000 0.46000001
v -0.29750001 0.12000000 0.71887368
v -0.29750001 0.12000000 0.46000001
v -0.33750001 -0.12000000 0.48112631
v -0.33750001 -0.12000000 0.74000001
v -0.29750001 -0.12000000 0.48112631
v -0.29750001 -0.12000000 0.74000001
v -0.29750001 -0.12000000 0.74000001
v -0.29750001 -0.15000001 0.74000001
v -0.29750001 -0.12000000 0.48112631
v -0.29750001 -0.15000001 0.46000001
v -0.29750001 -0.11375305 0.48182040
v -0.29750001 -0.09279063 0.46000001
v -0.29750001 0.09279063 0.74000001
v -0.29750001 0.11375305 0.71817958
v -0.29750001 0.15000001 0.74000001
v -0.29750001 0.12000000 0.71887368
v -0.29750001 0.15000001 0.46000001
v -0.29750001 0.12000000 0.46000001
v 0.29750001 0.15000001 0.74000001
v 0.29750001 0.15000001 0.46000001
v 0.29750001 0.12000000 0.46000001
v 0.29750001 0.12000000 0.46000001
v 0.29750001 0.12000000 0.71598828
v 0.29750001 0.15000001 0.74000001
v 0.29750001 0.11555555 0.72043276
v 0.29750001 0.09279063 0.74000001
v 0.29750001 -0.11555555 0.47956726
v 0.29750001 -0.15000001 0.46000001
v 0.29750001 -0.15000001 0.74000001
v 0.29750001 -0.12000000 0.74000001
v 0.29750001 -0.12000000 0.74000001
v 0.29750001 -0.12000000 0.48401171
v 0.29750001 -0.15000001 0.46000001
v 0.29750001 -0.11555555 0.47956726
v 0.29750001 -0.09279063 0.46000001
v 0.29750001 0.11555555 0.72043276
v 0.29750001 -0.11555555 0.47956726
v 0.33750001 -0.11555555 0.47956726
v 0.29750001 0.09279063 0.74000001
v 0.33750001 0.09454367 0.74219131
v 0.29530868 0.09454367 0.74219131
v 0.29750001 0.11555555 0.72043276
v 0.33750001 0.11555555 0.72043276
v 0.29750001 -0.09279063 0.46000001
v 0.33750001 -0.09454367 0.45780867
v 0.29530868 -0.09454367 0.45780867
v -0.33750001 0.11375305 0.71817958
v -0.29750001 0.11375305 0.71817958
v -0.33750001 -0.09634618 0.45555556
v -0.29750001 -0.09279063 0.46000001
v -0.29305556 -0.09634618 0.45555556
v -0.33750001 -0.11375305 0.48182040
v -0.29750001 -0.11375305 0.48182040
v -0.33750001 0.09634618 0.74444443
v -0.29750001 0.09279063 0.74000001
v -0.29305556 0.09634618 0.74444443
v -0.33750001 -0.11375305 0.48182040
v -0.33750001 -0.12000000 0.48112631
v -0.29750001 -0.11375305 0.48182040
v -0.29750001 -0.12000000 0.48112631
v -0.28749999 0.09079063 0.75000000
v -0.33750001 0.09079063 0.75000000
v -0.29305556 0.09634618 0.74444443
v -0.33750001 0.09634618 0.74444443
v -0.29750001 0.09279063 0.74000001
v -0.29750001 0.15000001 0.74000001
v -0.29305556 0.09634618 0.74444443
v -0.28749999 0.15000001 0.75000000
v -0.28749999 0.09079063 0.75000000
v -0.33750001 0.11375305 0.71817958
v -0.33750001 0.12000000 0.71887368
v -0.29750001 0.11375305 0.71817958
v -0.29750001 0.12000000 0.71887368
v -0.28749999 -0.11000000 0.75000000
v -0.29750001 -0.12000000 0.74000001
v -0.33750001 -0.11000000 0.75000000
v -0.33750001 -0.12000000 0.74000001
v -0.28749999 -0.15000001 0.75000000
v -0.29750001 -0.15000001 0.74000001
v -0.28749999 -0.11000000 0.75000000
v -0.29750001 -0.12000000 0.74000001
v -0.29750001 -0.09279063 0.46000001
v -0.29750001 -0.15000001 0.46000001
v -0.29305556 -0.09634618 0.45555556
v -0.28749999 -0.15000001 0.44999999
v -0.28749999 -0.09079063 0.44999999
v -0.33750001 -0.09079063 0.44999999
v -0.33750001 -0.09634618 0.45555556
v -0.28749999 -0.09079063 0.44999999
v -0.29305556 -0.09634618 0.45555556
v -0.29750001 0.12000000 0.46000001
v -0.28749999 0.11000000 0.44999999
v -0.29750001 0.15000001 0.46000001
v -0.28749999 0.15000001 0.44999999
v -0.28749999 0.11000000 0.44999999
v -0.29750001 0.12000000 0.46000001
v -0.33750001 0.11000000 0.44999999
v -0.33750001 0.12000000 0.46000001
v -0.33750001 -0.12000000 0.39098829
v -0.33750001 -0.11555555 0.39543274
v -0.29750001 -0.12000000 0.39098829
v -0.29750001 -0.11555555 0.39543274
v -0.29750001 0.12000000 0.41499999
v -0.28749999 0.11000000 0.42500001
v -0.33750001 0.12000000 0.41499999
v -0.33750001 0.11000000 0.42500001
v -0.29750001 0.15000001 0.41499999
v -0.28749999 0.15000001 0.42500001
v -0.29750001 0.12000000 0.41499999
v -0.28749999 0.11000000 0.42500001
v -0.33750001 0.12000000 0.15901172
v -0.33750001 0.11555555 0.15456727
v -0.29750001 0.12000000 0.15901172
v -0.29750001 0.11555555 0.15456727
v -0.28749999 0.09367605 0.12500000
v -0.28749999 0.15000001 0.12500000
v -0.29530868 0.09454367 0.13280869
v -0.29750001 0.15000001 0.13500001
v -0.29750001 0.09279063 0.13500001
v -0.33750001 0.09454367 0.13280869
v -0.33750001 0.09367605 0.12500000
v -0.29530868 0.09454367 0.13280869
v -0.28749999 0.09367605 0.12500000
v -0.28749999 -0.09367605 0.42500001
v -0.29530868 -0.09454367 0.41719133
v -0.33750001 -0.09367605 0.42500001
v -0.33750001 -0.09454367 0.41719133
v -0.28749999 -0.09367605 0.42500001
v -0.28749999 -0.15000001 0.42500001
v -0.29530868 -0.09454367 0.41719133
v -0.29750001 -0.15000001 0.41499999
v -0.29750001 -0.09279063 0.41499999
v -0.29750001 -0.12000000 0.13500001
v -0.28749999 -0.11000000 0.12500000
v -0.33750001 -0.12000000 0.13500001
v -0.33750001 -0.11000000 0.12500000
v -0.29750001 -0.15000001 0.13500001
v -0.28749999 -0.15000001 0.12500000
v -0.29750001 -0.12000000 0.13500001
v -0.28749999 -0.11000000 0.12500000
v 0.28749999 0.09079063 0.12500000
v 0.33750001 0.09079063 0.12500000
v 0.29305556 0.09634618 0.13055556
v 0.33750001 0.09634618 0.13055556
v 0.29750001 0.09279063 0.13500001
v 0.29750001 0.15000001 0.13500001
v 0.29305556 0.09634618 0.13055556
v 0.28749999 0.15000001 0.12500000
v 0.28749999 0.09079063 0.12500000
v 0.29750001 -0.12000000 0.13500001
v 0.28749999 -0.11000000 0.12500000
v 0.29750001 -0.15000001 0.13500001
v 0.28749999 -0.15000001 0.12500000
v 0.33750001 -0.12000000 0.13500001
v 0.33750001 -0.11000000 0.12500000
v 0.29750001 -0.12000000 0.13500001
v 0.28749999 -0.11000000 0.12500000
v 0.28749999 -0.09079063 0.42500001
v 0.33750001 -0.09079063 0.42500001
v 0.29305556 -0.09634618 0.41944444
v 0.33750001 -0.09634618 0.41944444
v 0.29750001 -0.09279063 0.41499999
v 0.29750001 -0.15000001 0.41499999
v 0.29305556 -0.09634618 0.41944444
v 0.28749999 -0.15000001 0.42500001
v 0.28749999 -0.09079063 0.42500001
v 0.29750001 0.12000000 0.41499999
v 0.28749999 0.11000000 0.42500001
v 0.29750001 0.15000001 0.41499999
v 0.28749999 0.15000001 0.42500001
v 0.33750001 0.12000000 0.41499999
v 0.33750001 0.11000000 0.42500001
v 0.29750001 0.12000000 0.41499999
v 0.28749999 0.11000000 0.42500001
v 0.28749999 0.09367605 0.75000000
v 0.29530868 0.09454367 0.74219131
v 0.33750001 0.09367605 0.75000000
v 0.33750001 0.09454367 0.74219131
v 0.28749999 0.09367605 0.75000000
v 0.28749999 0.15000001 0.75000000
v 0.29530868 0.09454367 0.74219131
v 0.29750001 0.15000001 0.74000001
v 0.29750001 0.09279063 0.74000001
v 0.28749999 -0.11000000 0.75000000
v 0.29750001 -0.12000000 0.74000001
v 0.28749999 -0.15000001 0.75000000
v 0.29750001 -0.15000001 0.74000001
v 0.33750001 -0.11000000 0.75000000
v 0.33750001 -0.12000000 0.74000001
v 0.28749999 -0.11000000 0.75000000
v 0.29750001 -0.12000000 0.74000001
v 0.33750001 0.11375305 0.15682040
v 0.33750001 0.12000000 0.15612631
v 0.29750001 0.11375305 0.15682040
v 0.29750001 0.12000000 0.15612631
v 0.33750001 -0.11375305 0.39317960
v 0.33750001 -0.12000000 0.39387369
v 0.29750001 -0.11375305 0.39317960
v 0.29750001 -0.12000000 0.39387369
v 0.33750001 -0.12000000 0.48401171
v 0.33750001 -0.11555555 0.47956726
v 0.29750001 -0.12000000 0.48401171
v 0.29750001 -0.11555555 0.47956726
v 0.28749999 -0.09367605 0.44999999
v 0.29530868 -0.09454367 0.45780867
v 0.33750001 -0.09367605 0.44999999
v 0.33750001 -0.09454367 0.45780867
v 0.28749999 -0.09367605 0.44999999
v 0.28749999 -0.15000001 0.44999999
v 0.29530868 -0.09454367 0.45780867
v 0.29750001 -0.15000001 0.46000001
v 0.29750001 -0.09279063 0.46000001
v 0.33750001 0.12000000 0.71598828
v 0.33750001 0.11555555 0.72043276
v 0.29750001 0.12000000 0.71598828
v 0.29750001 0.11555555 0.72043276
v 0.29750001 0.12000000 0.46000001
v 0.28749999 0.11000000 0.44999999
v 0.33750001 0.12000000 0.46000001
v 0.33750001 0.11000000 0.44999999
v 0.28749999 0.11000000 0.44999999
v 0.29750001 0.12000000 0.46000001
v 0.28749999 0.15000001 0.44999999
v 0.29750001 0.15000001 0.46000001
f 1 2 3
f 3 2 4
f 5 6 7
f 7 6 8
f 9 10 11
f 11 10 12
f 13 14 15
f 15 14 16
f 17 18 19
f 20 21 22
f 23 24 25
f 25 24 26
f 25 26 27
f 28 29 30
f 30 29 31
f 32 33 34
f 35 36 37
f 37 36 38
f 37 38 39
f 39 38 40
f 39 40 41
f 42 43 44
f 44 43 45
f 44 45 46
f 46 45 47
f 46 47 48
f 49 50 51
f 51 50 52
f 51 52 53
f 54 55 56
f 56 55 57
f 56 57 58
f 58 57 59
f 58 59 60
f 60 59 61
f 60 61 62
f 62 61 63
f 62 63 64
f 64 63 65
f 64 65 66
f 66 65 67
f 66 67 68
f 68 67 69
f 68 69 70
f 70 69 71
f 70 71 72
f 73 74 75
f 75 74 76
f 77 78 79
f 79 78 80
f 81 82 83
f 84 85 86
f 86 85 87
f 88 89 90
f 91 92 93
f 94 95 96
f 96 95 97
f 96 97 98
f 99 100 101
f 101 100 102
f 101 102 103
f 103 102 104
f 103 104 105
f 105 104 106
f 105 106 107
f 107 106 108
f 107 108 109
f 109 108 110
f 109 110 111
f 111 110 112
f 111 112 113
f 114 115 116
f 116 115 117
f 116 117 118
f 118 117 119
f 118 119 120
f 121 122 123
f 123 122 124
f 125 126 127
f 127 126 128
f 129 130 131
f 131 130 132
f 133 134 135
f 136 137 138
f 139 140 141
f 141 140 142
f 141 142 143
f 143 142 144
f 143 144 145
f 146 147 148
f 148 147 149
f 148 149 150
f 150 149 151
f 150 151 152
f 152 151 153
f 152 153 154
f 155 156 157
f 157 156 158
f 157 158 159
f 159 158 160
f 159 160 161
f 161 160 162
f 161 162 163
f 163 162 164
f 165 166 167
f 168 169 170
f 171 172 173
f 173 172 174
f 173 174 175
f 176 177 178
f 179 180 181
f 181 180 182
f 181 182 183
f 184 185 186
f 186 185 187
f 186 187 188
f 188 187 189
f 188 189 190
f 190 189 191
f 190 191 192
f 193 194 195
f 196 197 198
f 198 197 199
f 198 199 200
f 200 199 201
f 200 201 202
f 203 204 205
f 205 204 206
f 205 206 207
f 207 206 208
f 207 208 209
f 210 211 212
f 212 211 213
f 212 213 214
f 214 213 215
f 214 215 216
f 216 215 217
f 216 217 218
f 218 217 219
f 218 219 220
f 220 219 221
f 220 221 222
f 223 224 225
f 225 224 226
f 227 228 229
f 229 228 230
f 231 232 233
f 233 232 234
f 235 236 237
f 237 236 238
f 239 240 241
f 241 240 242
f 243 244 245
f 245 244 246
f 247 248 249
f 249 248 250
f 251 252 253
f 253 252 254
f 255 256 257
f 257 256 258
f 259 260 261
f 262 263 264
f 264 263 265
f 264 265 266
f 266 265 267
f 268 269 270
f 271 272 273
f 273 272 274
f 273 274 275
f 275 274 276
f 277 278 279
f 279 278 280
f 281 282 283
f 283 282 284
f 283 284 285
f 285 284 286
f 285 286 287
f 287 286 288
f 287 288 289
f 289 288 290
f 289 290 291
f 291 290 292
f 293 294 295
f 295 294 296
f 297 298 299
f 299 298 300
f 299 300 301
f 302 303 304
f 304 303 305
f 304 305 306
f 307 308 309
f 309 308 310
f 309 310 311
f 312 313 314
f 314 313 315
f 314 315 316
f 317 318 319
f 319 318 320
f 321 322 323
f 323 322 324
f 325 326 327
f 327 326 328
f 327 328 329
f 329 328 330
f 329 330 331
f 331 330 332
f 331 332 333
f 333 332 334
f 333 334 335
f 335 334 336
f 337 338 339
f 340 341 342
f 342 341 343
f 342 343 344
f 344 343 345
f 346 347 348
f 349 350 351
f 351 350 352
f 351 352 353
f 353 352 354
f 355 356 357
f 357 356 358
f 357 358 359
f 360 361 362
f 362 361 363
f 362 363 364
f 365 366 367
f 367 366 368
f 367 368 369
f 370 371 372
f 372 371 373
f 372 373 374
f 375 376 377
f 377 376 378
f 379 380 381
f 381 380 382
f 383 384 385
f 385 384 386
f 385 386 387
f 388 389 390
f 390 389 391
f 392 393 394
f 394 393 395
f 396 397 398
f 398 397 399
f 400 401 402
f 402 401 403
f 402 403 404
f 405 406 407
f 407 406 408
f 409 410 411
f 411 410 412
f 413 414 415
f 415 414 416
f 417 418 419
f 419 418 420
f 421 422 423
f 423 422 424
f 425 426 427
f 427 426 428
f 429 430 431
f 431 430 432
f 433 434 435
f 435 434 436
f 435 436 437
f 438 439 440
f 440 439 441
f 442 443 444
f 444 443 445
f 446 447 448
f 448 447 449
f 448 449 450
f 451 452 453
f 453 452 454
f 455 456 457
f 457 456 458
f 459 460 461
f 461 460 462
f 463 464 465
f 465 464 466
f 465 466 467
f 468 469 470
f 470 469 471
f 472 473 474
f 474 473 475
f 476 477 478
f 478 477 479
f 480 481 482
f 482 481 483
f 482 483 484
f 485 486 487
f 487 486 488
f 489 490 491
f 491 490 492
f 493 494 495
f 495 494 496
f 497 498 499
f 499 498 500
f 499 500 501
f 502 503 504
f 504 503 505
f 506 507 508
f 508 507 509
f 510 511 512
f 512 511 513
f 514 515 516
f 516 515 517
f 518 519 520
f 520 519 521
f 522 523 524
f 524 523 525
f 526 527 528
f 528 527 529
f 528 529 530
f 531 532 533
f 533 532 534
f 535 536 537
f 537 536 538
f 539 540 541
f 541 540 542

