# https://github.com/mikedh/trimesh
mtllib material.mtl
usemtl Material.002
v -0.09415194 0.11537835 0.04807661
v -0.09415194 0.10937449 0.37371571
v -0.09415194 0.10937438 0.04807661
v -0.09415194 0.11288528 0.37371571
v -0.09415194 0.11537846 0.37371571
v -0.10941627 0.12463882 0.37371570
v -0.10941627 0.11863474 0.04807660
v -0.10941627 0.11863485 0.37371570
v -0.10941627 0.12463871 0.04807660
v -0.10015591 0.12463871 0.04807660
v -0.09415194 0.12463882 0.37371570
v -0.09415194 0.12463871 0.04807660
v -0.10015591 0.12463882 0.37371570
v -0.10341230 0.10937449 0.37371571
v -0.10941627 0.10937438 0.04807661
v -0.10341230 0.10937438 0.04807661
v -0.10941627 0.10937449 0.37371571
v -0.10448589 0.11863298 0.37371570
v -0.10698093 0.12112791 0.04807660
v -0.10448589 0.11863287 0.04807660
v -0.10698093 0.12112802 0.37371570
v -0.10698093 0.12112802 0.37371570
v -0.10778807 0.12112791 0.04807660
v -0.10698093 0.12112791 0.04807660
v -0.10778807 0.12112802 0.37371570
v -0.09578013 0.11288528 0.37371571
v -0.09578013 0.11537835 0.04807661
v -0.09578013 0.11288517 0.04807661
v -0.09578013 0.11537846 0.37371571
v -0.10590547 0.12227922 0.04807660
v -0.10341230 0.11970844 0.37371570
v -0.10341230 0.11970833 0.04807660
v -0.10590547 0.12227933 0.37371570
v -0.09578013 0.11863485 0.37371570
v -0.09578013 0.12112791 0.04807660
v -0.09578013 0.11863474 0.04807660
v -0.09578013 0.12112802 0.37371570
v -0.10341042 0.11430487 0.37371571
v -0.10590547 0.11180971 0.04807661
v -0.10341042 0.11430476 0.04807661
v -0.10590547 0.11180982 0.37371571
v -0.10778807 0.11288517 0.04807661
v -0.10778807 0.11537846 0.37371571
v -0.10778807 0.11288528 0.37371571
v -0.10778807 0.11537835 0.04807661
v -0.09415194 0.11863474 0.04807660
v -0.09578013 0.11863485 0.37371570
v -0.09578013 0.11863474 0.04807660
v -0.09415194 0.11863485 0.37371570
v -0.10778807 0.11863485 0.37371570
v -0.10941627 0.11863474 0.04807660
v -0.10778807 0.11863474 0.04807660
v -0.10941627 0.11863485 0.37371570
v -0.10015778 0.11970833 0.04807660
v -0.09766273 0.12220349 0.37371570
v -0.09766273 0.12220338 0.04807660
v -0.10015778 0.11970844 0.37371570
v -0.10341230 0.12301063 0.37371570
v -0.10590547 0.12301052 0.04807660
v -0.10341230 0.12301052 0.04807660
v -0.10590547 0.12301063 0.37371570
v -0.10341230 0.11970844 0.37371570
v -0.10015778 0.11970833 0.04807660
v -0.10341230 0.11970833 0.04807660
v -0.10015778 0.11970844 0.37371570
v -0.09578013 0.12112802 0.37371570
v -0.09651142 0.12112791 0.04807660
v -0.09578013 0.12112791 0.04807660
v -0.09651142 0.12112802 0.37371570
v -0.09578013 0.11537846 0.37371571
v -0.09415194 0.11537835 0.04807661
v -0.09578013 0.11537835 0.04807661
v -0.09415194 0.11537846 0.37371571
v -0.09766273 0.12220349 0.37371570
v -0.09766273 0.12301052 0.04807660
v -0.09766273 0.12220338 0.04807660
v -0.09766273 0.12301063 0.37371570
v -0.09766273 0.12301063 0.37371570
v -0.10015591 0.12301052 0.04807660
v -0.09766273 0.12301052 0.04807660
v -0.10015591 0.12301063 0.37371570
v -0.09415194 0.10937438 0.04807661
v -0.10015591 0.10937449 0.37371571
v -0.10015591 0.10937438 0.04807661
v -0.09415194 0.10937449 0.37371571
v -0.10590547 0.12301052 0.04807660
v -0.10590547 0.12227933 0.37371570
v -0.10590547 0.12227922 0.04807660
v -0.10590547 0.12301063 0.37371570
v -0.10341230 0.10937438 0.04807661
v -0.10341230 0.11100268 0.37371571
v -0.10341230 0.10937449 0.37371571
v -0.10341230 0.11100257 0.04807661
v -0.10015591 0.11430487 0.37371571
v -0.10341042 0.11430476 0.04807661
v -0.10015591 0.11430476 0.04807661
v -0.10341042 0.11430487 0.37371571
v -0.10941627 0.12463871 0.04807660
v -0.10778807 0.11863474 0.04807660
v -0.10941627 0.11863474 0.04807660
v -0.10778807 0.12112791 0.04807660
v -0.10590547 0.12301052 0.04807660
v -0.10341230 0.12463871 0.04807660
v -0.10698093 0.12112791 0.04807660
v -0.10341230 0.12301052 0.04807660
v -0.09415194 0.12463871 0.04807660
v -0.10015591 0.12301052 0.04807660
v -0.10015591 0.12463871 0.04807660
v -0.09766273 0.12301052 0.04807660
v -0.09766273 0.12220338 0.04807660
v -0.09651142 0.12112791 0.04807660
v -0.09578013 0.12112791 0.04807660
v -0.09578013 0.11863474 0.04807660
v -0.09415194 0.11863474 0.04807660
v -0.10448589 0.11537835 0.04807661
v -0.10590547 0.11180971 0.04807661
v -0.10705678 0.11288517 0.04807661
v -0.10341042 0.11430476 0.04807661
v -0.10341230 0.11970833 0.04807660
v -0.10015778 0.11970833 0.04807660
v -0.10015591 0.11430476 0.04807661
v -0.09908232 0.11863474 0.04807660
v -0.09908232 0.11538022 0.04807661
v -0.09766273 0.11173387 0.04807661
v -0.09658727 0.11288517 0.04807661
v -0.09766273 0.11100257 0.04807661
v -0.09415194 0.11537835 0.04807661
v -0.09578013 0.11288517 0.04807661
v -0.09578013 0.11537835 0.04807661
v -0.10015591 0.10937438 0.04807661
v -0.10015591 0.11100257 0.04807661
v -0.09415194 0.10937438 0.04807661
v -0.10590547 0.12227922 0.04807660
v -0.10448589 0.11863287 0.04807660
v -0.10778807 0.11537835 0.04807661
v -0.10941627 0.10937438 0.04807661
v -0.10941627 0.11537835 0.04807661
v -0.10778807 0.11288517 0.04807661
v -0.10590547 0.11100257 0.04807661
v -0.10341230 0.10937438 0.04807661
v -0.10341230 0.11100257 0.04807661
v -0.10015591 0.11100268 0.37371571
v -0.09766273 0.11100257 0.04807661
v -0.10015591 0.11100257 0.04807661
v -0.09766273 0.11100268 0.37371571
v -0.09908232 0.11863474 0.04807660
v -0.09908232 0.11538033 0.37371571
v -0.09908232 0.11538022 0.04807661
v -0.09908232 0.11863485 0.37371570
v -0.10590547 0.11100257 0.04807661
v -0.10590547 0.11180982 0.37371571
v -0.10590547 0.11100268 0.37371571
v -0.10590547 0.11180971 0.04807661
v -0.10778807 0.11863474 0.04807660
v -0.10778807 0.12112802 0.37371570
v -0.10778807 0.11863485 0.37371570
v -0.10778807 0.12112791 0.04807660
v -0.10015591 0.11430487 0.37371571
v -0.09766273 0.11173387 0.04807661
v -0.09766273 0.11173398 0.37371571
v -0.10015591 0.11430476 0.04807661
v -0.10705678 0.11288528 0.37371571
v -0.10448589 0.11537835 0.04807661
v -0.10705678 0.11288517 0.04807661
v -0.10448589 0.11537846 0.37371571
v -0.10941627 0.11537846 0.37371571
v -0.10941627 0.10937438 0.04807661
v -0.10941627 0.10937449 0.37371571
v -0.10941627 0.11537835 0.04807661
v -0.09415194 0.12463871 0.04807660
v -0.09415194 0.11863485 0.37371570
v -0.09415194 0.11863474 0.04807660
v -0.09415194 0.12112802 0.37371570
v -0.09415194 0.12463882 0.37371570
v -0.10941627 0.10937449 0.37371571
v -0.10778807 0.11288528 0.37371571
v -0.10941627 0.11537846 0.37371571
v -0.10590547 0.11100268 0.37371571
v -0.10341230 0.10937449 0.37371571
v -0.10705678 0.11288528 0.37371571
v -0.10341230 0.11100268 0.37371571
v -0.09415194 0.11537846 0.37371571
v -0.09578013 0.11537846 0.37371571
v -0.09415194 0.11288528 0.37371571
v -0.09415194 0.10937449 0.37371571
v -0.10015591 0.11100268 0.37371571
v -0.10015591 0.10937449 0.37371571
v -0.09766273 0.11100268 0.37371571
v -0.09766273 0.11173398 0.37371571
v -0.09658727 0.11288528 0.37371571
v -0.09578013 0.11288528 0.37371571
v -0.09908232 0.11538033 0.37371571
v -0.10015591 0.11430487 0.37371571
v -0.10590547 0.11180982 0.37371571
v -0.10448589 0.11537846 0.37371571
v -0.10341042 0.11430487 0.37371571
v -0.10448589 0.11863298 0.37371570
v -0.10341230 0.11970844 0.37371570
v -0.10015778 0.11970844 0.37371570
v -0.09908232 0.11863485 0.37371570
v -0.09766273 0.12220349 0.37371570
v -0.09651142 0.12112802 0.37371570
v -0.09415194 0.11863485 0.37371570
v -0.09578013 0.12112802 0.37371570
v -0.09578013 0.11863485 0.37371570
v -0.09766273 0.12301063 0.37371570
v -0.10015591 0.12463882 0.37371570
v -0.10015591 0.12301063 0.37371570
v -0.09415194 0.12463882 0.37371570
v -0.09415194 0.12112802 0.37371570
v -0.10590547 0.12227933 0.37371570
v -0.10698093 0.12112802 0.37371570
v -0.10778807 0.11863485 0.37371570
v -0.10941627 0.12463882 0.37371570
v -0.10941627 0.11863485 0.37371570
v -0.10778807 0.12112802 0.37371570
v -0.10590547 0.12301063 0.37371570
v -0.10341230 0.12463882 0.37371570
v -0.10341230 0.12301063 0.37371570
v -0.10778807 0.11537846 0.37371571
v -0.10015591 0.12301063 0.37371570
v -0.10015591 0.12463871 0.04807660
v -0.10015591 0.12301052 0.04807660
v -0.10015591 0.12463882 0.37371570
v -0.10778807 0.11288517 0.04807661
v -0.10705678 0.11288528 0.37371571
v -0.10705678 0.11288517 0.04807661
v -0.10778807 0.11288528 0.37371571
v -0.10015591 0.11100268 0.37371571
v -0.10015591 0.10937438 0.04807661
v -0.10015591 0.10937449 0.37371571
v -0.10015591 0.11100257 0.04807661
v -0.09908232 0.11538022 0.04807661
v -0.09658727 0.11288528 0.37371571
v -0.09658727 0.11288517 0.04807661
v -0.09908232 0.11538033 0.37371571
v -0.10448589 0.11863298 0.37371570
v -0.10448589 0.11537835 0.04807661
v -0.10448589 0.11537846 0.37371571
v -0.10448589 0.11863287 0.04807660
v -0.09651142 0.12112802 0.37371570
v -0.09908232 0.11863474 0.04807660
v -0.09651142 0.12112791 0.04807660
v -0.09908232 0.11863485 0.37371570
v -0.09658727 0.11288517 0.04807661
v -0.09578013 0.11288528 0.37371571
v -0.09578013 0.11288517 0.04807661
v -0.09658727 0.11288528 0.37371571
v -0.10941627 0.12463882 0.37371570
v -0.10341230 0.12463871 0.04807660
v -0.10941627 0.12463871 0.04807660
v -0.10341230 0.12463882 0.37371570
v -0.10341230 0.12463871 0.04807660
v -0.10341230 0.12301063 0.37371570
v -0.10341230 0.12301052 0.04807660
v -0.10341230 0.12463882 0.37371570
v -0.09766273 0.11173398 0.37371571
v -0.09766273 0.11100257 0.04807661
v -0.09766273 0.11100268 0.37371571
v -0.09766273 0.11173387 0.04807661
v -0.10941627 0.11537835 0.04807661
v -0.10778807 0.11537846 0.37371571
v -0.10778807 0.11537835 0.04807661
v -0.10941627 0.11537846 0.37371571
v -0.10590547 0.11100257 0.04807661
v -0.10341230 0.11100268 0.37371571
v -0.10341230 0.11100257 0.04807661
v -0.10590547 0.11100268 0.37371571
vt 0.12468445 0.00061309
vt 0.10734115 0.94123441
vt 0.10734109 0.00062329
vt 0.12679546 0.94144803
vt 0.14459658 0.94103384
vt 0.94285762 0.00061303
vt 0.92551446 0.94126040
vt 0.92551446 0.00061303
vt 0.94285762 0.94126034
vt 0.88837582 0.94126076
vt 0.90571904 0.00061309
vt 0.90571904 0.94126076
vt 0.88837588 0.00061303
vt 0.86858034 0.94126129
vt 0.85123718 0.00061303
vt 0.86858040 0.00061303
vt 0.85123718 0.94126123
vt 0.22252485 0.94153005
vt 0.19786894 0.00115001
vt 0.22252482 0.00061309
vt 0.19779548 0.94206703
vt 0.33685434 0.94144398
vt 0.31810984 0.00098091
vt 0.33685428 0.00061309
vt 0.31810990 0.94181186
vt 0.57648343 0.94140482
vt 0.55860937 0.00089860
vt 0.57648337 0.00061315
vt 0.55850852 0.94169033
vt 0.41860893 0.00080645
vt 0.39941299 0.94131523
vt 0.39914057 0.00061303
vt 0.41860896 0.94168639
vt 0.53808135 0.94140458
vt 0.52010643 0.00090045
vt 0.53798032 0.00061303
vt 0.52010643 0.94169205
vt 0.17184006 0.00115001
vt 0.19649585 0.94153011
vt 0.17183998 0.94206703
vt 0.19656940 0.00061309
vt 0.55718136 0.94140476
vt 0.53930736 0.00089854
vt 0.55728233 0.00061309
vt 0.53930742 0.94169027
vt 0.29576877 0.94148606
vt 0.31688374 0.00106364
vt 0.31688371 0.94193667
vt 0.29576874 0.00061309
vt 0.29454252 0.94148660
vt 0.27342761 0.00106364
vt 0.29454258 0.00061309
vt 0.27342758 0.94193715
vt 0.39791450 0.00098979
vt 0.37852576 0.94149297
vt 0.37852871 0.00061303
vt 0.39791447 0.94169194
vt 0.22375104 0.00115079
vt 0.24736317 0.94153053
vt 0.22375102 0.94206822
vt 0.24736314 0.00061309
vt 0.49967921 0.94140494
vt 0.48076358 0.00089949
vt 0.49967924 0.00061303
vt 0.48076355 0.94169140
vt 0.33808050 0.00097328
vt 0.35660607 0.94144177
vt 0.33808056 0.94180191
vt 0.35660601 0.00061309
vt 0.72467929 0.94140285
vt 0.70760477 0.00089961
vt 0.72467935 0.00061309
vt 0.70760471 0.94168931
vt 0.74371034 0.00089967
vt 0.76029491 0.94140327
vt 0.74372178 0.94168985
vt 0.76029485 0.00061309
vt 0.24858926 0.00115079
vt 0.27220142 0.94152999
vt 0.24858926 0.94206768
vt 0.27220142 0.00061309
vt 0.90694517 0.94126076
vt 0.92428839 0.00061303
vt 0.92428833 0.94126076
vt 0.90694517 0.00061303
vt 0.79711193 0.94140416
vt 0.81366611 0.00089955
vt 0.81365669 0.94169074
vt 0.79711193 0.00061297
vt 0.63433403 0.00089997
vt 0.65143120 0.94140309
vt 0.63433409 0.94168997
vt 0.65138596 0.00061309
vt 0.05414181 0.00122744
vt 0.07995188 0.94156849
vt 0.05414183 0.94218290
vt 0.07995183 0.00061303
vt 0.99249631 0.04628855
vt 0.99377632 0.03220689
vt 0.99770778 0.03507221
vt 0.99127287 0.03688693
vt 0.98199350 0.04848051
vt 0.98579764 0.05462825
vt 0.98726976 0.03939044
vt 0.98251492 0.05600041
vt 0.95381969 0.04834032
vt 0.96097982 0.05658734
vt 0.95651311 0.05804896
vt 0.95980150 0.05109209
vt 0.96210039 0.04685318
vt 0.95440739 0.03999478
vt 0.95088154 0.04234141
vt 0.94536602 0.04138649
vt 0.94408375 0.04591817
vt 0.97823995 0.02425301
vt 0.98101753 0.01336545
vt 0.98555768 0.01733893
vt 0.97487736 0.02152485
vt 0.97631258 0.03671759
vt 0.96710432 0.03754604
vt 0.96565878 0.02243286
vt 0.96360481 0.03491771
vt 0.96267843 0.02572322
vt 0.95964056 0.01436567
vt 0.95341319 0.02022809
vt 0.96347243 0.00816590
vt 0.94684243 0.00778282
vt 0.95035529 0.01434243
vt 0.94408375 0.01045316
vt 0.95903063 0.00212991
vt 0.96232688 0.00061303
vt 0.95580637 0.01078397
vt 0.98342830 0.04406786
vt 0.97915059 0.03337216
vt 0.99241298 0.02355617
vt 0.98955059 0.00970817
vt 0.99600172 0.02027410
vt 0.98939741 0.01918417
vt 0.97885120 0.00868469
vt 0.98195547 0.00215578
vt 0.97854167 0.00115317
vt 0.59563398 0.94140452
vt 0.57770950 0.00089967
vt 0.59563398 0.00061315
vt 0.57770944 0.94169098
vt 0.46054032 0.94140333
vt 0.47953743 0.00090116
vt 0.47937423 0.94169140
vt 0.46054038 0.00061303
vt 0.77810556 0.94140327
vt 0.76152098 0.00089967
vt 0.77810550 0.00061309
vt 0.76153243 0.94168985
vt 0.51888025 0.94140470
vt 0.50090533 0.00090051
vt 0.51888025 0.00061303
vt 0.50100631 0.94169211
vt 0.17061386 0.00114977
vt 0.14590050 0.94152957
vt 0.14582267 0.00061309
vt 0.17061387 0.94206625
vt 0.35783213 0.00099242
vt 0.37729964 0.94149643
vt 0.35809869 0.94169259
vt 0.37729964 0.00061303
vt 0.86980665 0.94126081
vt 0.88714981 0.00061309
vt 0.88714981 0.94126081
vt 0.86980665 0.00061315
vt 0.03557241 0.94147885
vt 0.05291570 0.00087076
vt 0.05291565 0.94147706
vt 0.03511128 0.00061309
vt 0.00061305 0.00137556
vt 0.87773883 0.95207441
vt 0.86783624 0.94998479
vt 0.87223339 0.94412380
vt 0.88091373 0.96167558
vt 0.88625360 0.95665640
vt 0.87065482 0.95445764
vt 0.88822848 0.95961827
vt 0.87904906 0.99938685
vt 0.87474382 0.99810010
vt 0.87936717 0.99397779
vt 0.87882048 0.98872608
vt 0.88626117 0.98079306
vt 0.88822848 0.98503113
vt 0.88113528 0.98253995
vt 0.87777996 0.98070276
vt 0.87084478 0.98799443
vt 0.87426358 0.99295038
vt 0.86555171 0.97892684
vt 0.86856729 0.97558039
vt 0.87546015 0.95921248
vt 0.86507106 0.96325809
vt 0.86838084 0.96622074
vt 0.85598135 0.96364635
vt 0.85313290 0.96684915
vt 0.85351157 0.97591323
vt 0.85645533 0.97912633
vt 0.84432042 0.98123193
vt 0.85302252 0.98974013
vt 0.83599269 0.99526519
vt 0.84484380 0.99369502
vt 0.83866215 0.99865443
vt 0.84089535 0.98888969
vt 0.83994609 0.99577981
vt 0.83637625 0.99352050
vt 0.84534192 0.99101484
vt 0.84105980 0.99121904
vt 0.84476882 0.96058363
vt 0.84953511 0.95631427
vt 0.85625273 0.94898421
vt 0.84304059 0.95219123
vt 0.85297531 0.94544125
vt 0.85222691 0.95196897
vt 0.84011161 0.96247476
vt 0.83447546 0.95775908
vt 0.83266777 0.96080935
vt 0.86907214 0.94248784
vt 0.68807775 0.94140309
vt 0.67102575 0.00089920
vt 0.68807769 0.00061309
vt 0.67098057 0.94168913
vt 0.83144176 0.00089961
vt 0.81489229 0.94140399
vt 0.81489229 0.00061315
vt 0.83144176 0.94169044
vt 0.66975451 0.00089908
vt 0.65270245 0.94140381
vt 0.65265727 0.00061303
vt 0.66975445 0.94168979
vt 0.41983509 0.94149268
vt 0.43908823 0.00098705
vt 0.43909112 0.94168878
vt 0.41983509 0.00061309
vt 0.44031724 0.94140381
vt 0.45931426 0.00090122
vt 0.45931426 0.94169199
vt 0.44048035 0.00061309
vt 0.10611500 0.94153374
vt 0.08117801 0.00115955
vt 0.10604220 0.00061303
vt 0.08117814 0.94208026
vt 0.72590548 0.94140404
vt 0.74248421 0.00089943
vt 0.74248427 0.94169050
vt 0.72590542 0.00061297
vt 0.83266783 0.00061309
vt 0.85001117 0.94126159
vt 0.83266795 0.94126159
vt 0.85001105 0.00061309
vt 0.63310790 0.00089997
vt 0.61601073 0.94140369
vt 0.61605591 0.00061309
vt 0.63310790 0.94169056
vt 0.77933162 0.94140428
vt 0.79588574 0.00089967
vt 0.79588574 0.94169086
vt 0.77934104 0.00061309
vt 0.68930393 0.94140387
vt 0.70637846 0.00089955
vt 0.70637858 0.94169033
vt 0.68930393 0.00061309
vt 0.61478460 0.00089943
vt 0.59686017 0.94140404
vt 0.59686011 0.00061297
vt 0.61478466 0.94169050
f 1/1 2/2 3/3
f 2/2 1/1 4/4
f 4/4 1/1 5/5
f 6/6 7/7 8/8
f 7/7 6/6 9/9
f 10/10 11/11 12/12
f 11/11 10/10 13/13
f 14/14 15/15 16/16
f 15/15 14/14 17/17
f 18/18 19/19 20/20
f 19/19 18/18 21/21
f 22/22 23/23 24/24
f 23/23 22/22 25/25
f 26/26 27/27 28/28
f 27/27 26/26 29/29
f 30/30 31/31 32/32
f 31/31 30/30 33/33
f 34/34 35/35 36/36
f 35/35 34/34 37/37
f 38/38 39/39 40/40
f 39/39 38/38 41/41
f 42/42 43/43 44/44
f 43/43 42/42 45/45
f 46/46 47/47 48/48
f 47/47 46/46 49/49
f 50/50 51/51 52/52
f 51/51 50/50 53/53
f 54/54 55/55 56/56
f 55/55 54/54 57/57
f 58/58 59/59 60/60
f 59/59 58/58 61/61
f 62/62 63/63 64/64
f 63/63 62/62 65/65
f 66/66 67/67 68/68
f 67/67 66/66 69/69
f 70/70 71/71 72/72
f 71/71 70/70 73/73
f 74/74 75/75 76/76
f 75/75 74/74 77/77
f 78/78 79/79 80/80
f 79/79 78/78 81/81
f 82/82 83/83 84/84
f 83/83 82/82 85/85
f 86/86 87/87 88/88
f 87/87 86/86 89/89
f 90/90 91/91 92/92
f 91/91 90/90 93/93
f 94/94 95/95 96/96
f 95/95 94/94 97/97
f 98/98 99/99 100/100
f 99/99 98/98 101/101
f 98/98 102/102 101/101
f 102/102 98/98 103/103
f 101/101 102/102 104/104
f 102/102 103/103 105/105
f 106/106 107/107 108/108
f 107/107 106/106 109/109
f 109/109 106/106 110/110
f 110/110 106/106 111/111
f 111/111 106/106 112/112
f 112/112 106/106 113/113
f 113/113 106/106 114/114
f 115/115 116/116 117/117
f 116/116 115/115 118/118
f 118/118 115/115 119/119
f 118/118 119/119 120/120
f 118/118 120/120 121/121
f 121/121 120/120 122/122
f 122/122 120/120 110/110
f 122/122 110/110 111/111
f 121/121 123/123 124/124
f 123/123 121/121 122/122
f 124/124 123/123 125/125
f 124/124 125/125 126/126
f 127/127 128/128 129/129
f 126/126 130/130 131/131
f 130/130 126/126 132/132
f 132/132 126/126 125/125
f 132/132 125/125 128/128
f 132/132 128/128 127/127
f 104/104 133/133 134/134
f 133/133 104/104 102/102
f 134/134 133/133 119/119
f 134/134 119/119 115/115
f 135/135 136/136 137/137
f 136/136 135/135 138/138
f 136/136 138/138 139/139
f 136/136 139/139 140/140
f 139/139 138/138 117/117
f 139/139 117/117 116/116
f 140/140 139/139 141/141
f 142/142 143/143 144/144
f 143/143 142/142 145/145
f 146/146 147/147 148/148
f 147/147 146/146 149/149
f 150/150 151/151 152/152
f 151/151 150/150 153/153
f 154/154 155/155 156/156
f 155/155 154/154 157/157
f 158/158 159/159 160/160
f 159/159 158/158 161/161
f 162/162 163/163 164/164
f 163/163 162/162 165/165
f 166/166 167/167 168/168
f 167/167 166/166 169/169
f 170/170 171/171 172/172
f 171/171 170/170 173/173
f 173/173 170/170 174/174
f 175/175 176/176 177/177
f 176/176 175/175 178/178
f 178/178 175/175 179/179
f 176/176 178/178 180/180
f 178/178 179/179 181/181
f 182/182 183/183 184/184
f 185/185 186/186 187/187
f 186/186 185/185 188/188
f 188/188 185/185 189/189
f 189/189 185/185 190/190
f 190/190 185/185 191/191
f 191/191 185/185 183/183
f 183/183 185/185 184/184
f 189/189 192/192 193/193
f 192/192 189/189 190/190
f 180/180 194/194 195/195
f 194/194 180/180 178/178
f 195/195 194/194 196/196
f 195/195 196/196 197/197
f 197/197 196/196 198/198
f 198/198 196/196 199/199
f 199/199 196/196 193/193
f 199/199 193/193 200/200
f 199/199 200/200 201/201
f 200/200 193/193 192/192
f 201/201 200/200 202/202
f 203/203 204/204 205/205
f 206/206 207/207 208/208
f 207/207 206/206 209/209
f 209/209 206/206 201/201
f 209/209 201/201 202/202
f 209/209 202/202 204/204
f 209/209 204/204 210/210
f 210/210 204/204 203/203
f 197/197 211/211 212/212
f 211/211 197/197 198/198
f 213/213 214/214 215/215
f 214/214 213/213 216/216
f 214/214 216/216 217/217
f 214/214 217/217 218/218
f 217/217 216/216 212/212
f 217/217 212/212 211/211
f 218/218 217/217 219/219
f 220/220 177/177 176/176
f 221/221 222/222 223/223
f 222/222 221/221 224/224
f 225/225 226/226 227/227
f 226/226 225/225 228/228
f 229/229 230/230 231/231
f 230/230 229/229 232/232
f 233/233 234/234 235/235
f 234/234 233/233 236/236
f 237/237 238/238 239/239
f 238/238 237/237 240/240
f 241/241 242/242 243/243
f 242/242 241/241 244/244
f 245/245 246/246 247/247
f 246/246 245/245 248/248
f 249/249 250/250 251/251
f 250/250 249/249 252/252
f 253/253 254/254 255/255
f 254/254 253/253 256/256
f 257/257 258/258 259/259
f 258/258 257/257 260/260
f 261/261 262/262 263/263
f 262/262 261/261 264/264
f 265/265 266/266 267/267
f 266/266 265/265 268/268

