# https://github.com/mikedh/trimesh
mtllib material.mtl
usemtl material_0
v 0.30227840 -0.08625159 1.62787313
v 0.46522222 -0.08625159 1.44376345
v 0.30227840 -0.08625159 1.44376345
v 0.46522222 -0.08625159 1.62787313
v 0.46522222 -0.28050939 1.44376345
v 0.46522222 -0.08625159 1.44376345
v 0.46522222 -0.28050939 1.62787313
v 0.30227840 -0.28050939 1.44376345
v 0.46522222 -0.28050939 1.44376345
v 0.30227840 -0.28050939 1.62787313
v 0.30227840 -0.08625159 1.44376345
v 0.30227840 -0.28050939 1.44376345
v 0.46522222 -0.28050939 1.44376345
v 0.30227840 -0.08625159 1.44376345
v 0.46522222 -0.08625159 1.44376345
v 0.46522222 -0.08625159 1.62787313
v 0.30227840 -0.28050939 1.62787313
v 0.46522222 -0.28050939 1.62787313
v 0.46522222 -0.08625159 1.62787313
v 0.46522222 -0.28050939 1.62787313
v 0.30227840 -0.28050939 1.62787313
v 0.30227840 -0.08625159 1.62787313
v 0.30227840 -0.28050939 1.44376345
v 0.30227840 -0.08625159 1.62787313
vt 0.62500000 0.00000000
vt 0.37500000 0.25000000
vt 0.37500000 0.00000000
vt 0.62500000 0.25000000
vt 0.37500000 0.50000000
vt 0.37500000 0.25000000
vt 0.62500000 0.50000000
vt 0.37500000 0.75000000
vt 0.37500000 0.50000000
vt 0.62500000 0.75000000
vt 0.37500000 1.00000000
vt 0.37500000 0.75000000
vt 0.37500000 0.50000000
vt 0.12500000 0.75000000
vt 0.12500000 0.50000000
vt 0.87500012 0.50000000
vt 0.62500000 0.75000000
vt 0.62500000 0.50000000
vt 0.62500000 0.25000000
vt 0.62500000 0.50000000
vt 0.62500000 0.75000000
vt 0.62500000 1.00000000
vt 0.37500000 0.75000000
vt 0.87500012 0.75000000
f 1/1 2/2 3/3
f 4/4 5/5 6/6
f 7/7 8/8 9/9
f 10/10 11/11 12/12
f 13/13 14/14 15/15
f 16/16 17/17 18/18
f 1/1 19/19 2/2
f 4/4 20/20 5/5
f 7/7 21/21 8/8
f 10/10 22/22 11/11
f 13/13 23/23 14/14
f 16/16 24/24 17/17

