# https://github.com/mikedh/trimesh
mtllib material.mtl
usemtl None
v 0.33750000 -0.22500525 0.00008325
v 0.33750000 -0.22500525 0.00008325
v 0.33750000 -0.22500525 0.00008325
v 0.33750000 -0.22500525 0.65100450
v 0.33750000 -0.22500525 0.65100450
v 0.33750000 -0.22500525 0.65100450
v -0.33964800 -0.22500525 0.65100450
v -0.33964800 -0.22500525 0.65100450
v -0.33964800 -0.22500525 0.65100450
v -0.33964800 -0.22500525 0.00008325
v -0.33964800 -0.22500525 0.00008325
v -0.33964800 -0.22500525 0.00008325
v -0.33964800 0.22500525 0.65100450
v -0.33964800 0.22500525 0.65100450
v -0.33964800 0.22500525 0.65100450
v -0.33964800 0.22500525 0.00008325
v -0.33964800 0.22500525 0.00008325
v -0.33964800 0.22500525 0.00008325
v 0.33750000 0.22500525 0.65100450
v 0.33750000 0.22500525 0.65100450
v 0.33750000 0.22500525 0.65100450
v 0.33750000 0.22500525 0.00008325
v 0.33750000 0.22500525 0.00008325
v 0.33750000 0.22500525 0.00008325
vt 0.37500000 0.00000000
vt 0.37500000 1.00000000
vt 0.12500000 0.75000000
vt 0.62500000 1.00000000
vt 0.87500000 0.75000000
vt 0.62500000 0.00000000
vt 0.62500000 0.25000000
vt 0.62500000 0.25000000
vt 0.87500000 0.50000000
vt 0.12500000 0.50000000
vt 0.37500000 0.25000000
vt 0.37500000 0.25000000
vt 0.62500000 0.50000000
vt 0.62500000 0.50000000
vt 0.62500000 0.50000000
vt 0.37500000 0.50000000
vt 0.37500000 0.50000000
vt 0.37500000 0.50000000
vt 0.62500000 0.75000000
vt 0.62500000 0.75000000
vt 0.62500000 0.75000000
vt 0.37500000 0.75000000
vt 0.37500000 0.75000000
vt 0.37500000 0.75000000
f 1/1 6/6 7/7
f 12/12 8/8 14/14
f 17/17 13/13 19/19
f 23/23 20/20 4/4
f 10/10 18/18 24/24
f 15/15 9/9 5/5
f 7/7 11/11 1/1
f 14/14 16/16 12/12
f 19/19 22/22 17/17
f 4/4 2/2 23/23
f 24/24 3/3 10/10
f 5/5 21/21 15/15

