# https://github.com/mikedh/trimesh
v 1.75084419 0.28211035 0.74404621
v 1.58790035 0.28211035 0.92815561
v 1.75084419 0.28211035 0.92815561
v 1.58790035 0.28211035 0.74404621
v 1.58790035 0.08785254 0.92815561
v 1.75084419 0.08785254 0.92815561
v 1.75084419 0.08785254 0.74404621
v 1.58790035 0.08785254 0.74404621
v 1.06943922 -0.08908551 1.63033948
v 1.23238277 -0.08908551 1.44622979
v 1.06943922 -0.08908551 1.44622979
v 1.23238277 -0.08908551 1.63033948
v 1.23238277 -0.28334330 1.44622979
v 1.23238277 -0.28334330 1.63033948
v 1.06943922 -0.28334330 1.44622979
v 1.06943922 -0.28334330 1.63033948
v 0.90022221 -0.08908551 1.63033948
v 1.06316605 -0.08908551 1.44622979
v 0.90022221 -0.08908551 1.44622979
v 1.06316605 -0.08908551 1.63033948
v 1.06316605 -0.28334330 1.44622979
v 1.06316605 -0.28334330 1.63033948
v 0.90022221 -0.28334330 1.44622979
v 0.90022221 -0.28334330 1.63033948
v 0.90022221 0.08535927 1.44985013
v 1.06316605 0.08535927 1.63395953
v 0.90022221 0.08535927 1.63395953
v 1.06316605 0.08535927 1.44985013
v 1.06316605 0.27961707 1.63395953
v 1.06316605 0.27961707 1.44985013
v 0.90022221 0.27961707 1.63395953
v 0.90022221 0.27961707 1.44985013
v 0.90022221 -0.08908551 1.81788054
v 1.06316605 -0.08908551 1.63377085
v 0.90022221 -0.08908551 1.63377085
v 1.06316605 -0.08908551 1.81788054
v 1.06316605 -0.28334330 1.63377085
v 1.06316605 -0.28334330 1.81788054
v 0.90022221 -0.28334330 1.63377085
v 0.90022221 -0.28334330 1.81788054
v 0.90022221 0.07555515 1.63377085
v 1.06316605 0.07555515 1.81788054
v 0.90022221 0.07555515 1.81788054
v 1.06316605 0.07555515 1.63377085
v 1.06316605 0.26981295 1.81788054
v 1.06316605 0.26981295 1.63377085
v 0.90022221 0.26981295 1.81788054
v 0.90022221 0.26981295 1.63377085
v 1.58388844 -0.08908551 1.63033948
v 1.74683247 -0.08908551 1.44622979
v 1.58388844 -0.08908551 1.44622979
v 1.74683247 -0.08908551 1.63033948
v 1.74683247 -0.28334330 1.44622979
v 1.74683247 -0.28334330 1.63033948
v 1.58388844 -0.28334330 1.44622979
v 1.58388844 -0.28334330 1.63033948
v 1.41467123 -0.08908551 1.63033948
v 1.57761517 -0.08908551 1.44622979
v 1.41467123 -0.08908551 1.44622979
v 1.57761517 -0.08908551 1.63033948
v 1.57761517 -0.28334330 1.44622979
v 1.57761517 -0.28334330 1.63033948
v 1.41467123 -0.28334330 1.44622979
v 1.41467123 -0.28334330 1.63033948
v 1.41467123 0.08535927 1.44985013
v 1.57761517 0.08535927 1.63395953
v 1.41467123 0.08535927 1.63395953
v 1.57761517 0.08535927 1.44985013
v 1.57761517 0.27961707 1.63395953
v 1.57761517 0.27961707 1.44985013
v 1.41467123 0.27961707 1.63395953
v 1.41467123 0.27961707 1.44985013
v 1.41467123 -0.08908551 1.81788054
v 1.57761517 -0.08908551 1.63377085
v 1.41467123 -0.08908551 1.63377085
v 1.57761517 -0.08908551 1.81788054
v 1.57761517 -0.28334330 1.63377085
v 1.57761517 -0.28334330 1.81788054
v 1.41467123 -0.28334330 1.63377085
v 1.41467123 -0.28334330 1.81788054
v 1.41467123 0.07555515 1.63377085
v 1.57761517 0.07555515 1.81788054
v 1.41467123 0.07555515 1.81788054
v 1.57761517 0.07555515 1.63377085
v 1.57761517 0.26981295 1.81788054
v 1.57761517 0.26981295 1.63377085
v 1.41467123 0.26981295 1.81788054
v 1.41467123 0.26981295 1.63377085
v 1.23806324 -0.09824967 1.63119750
v 1.40100698 -0.09824967 1.44708781
v 1.23806324 -0.09824967 1.44708781
v 1.40100698 -0.09824967 1.63119750
v 1.40100698 -0.29250746 1.44708781
v 1.40100698 -0.29250746 1.63119750
v 1.23806324 -0.29250746 1.44708781
v 1.23806324 -0.29250746 1.63119750
v 1.14628983 -0.09013908 1.81468349
v 1.30923357 -0.09013908 1.63057380
v 1.14628983 -0.09013908 1.63057380
v 1.30923357 -0.09013908 1.81468349
v 1.30923357 -0.28439687 1.63057380
v 1.30923357 -0.28439687 1.81468349
v 1.14628983 -0.28439687 1.63057380
v 1.14628983 -0.28439687 1.81468349
v 1.06916161 0.08785254 1.44708781
v 1.23210545 0.08785254 1.63119750
v 1.06916161 0.08785254 1.63119750
v 1.23210545 0.08785254 1.44708781
v 1.23210545 0.28211035 1.63119750
v 1.23210545 0.28211035 1.44708781
v 1.06916161 0.28211035 1.63119750
v 1.06916161 0.28211035 1.44708781
v 1.23985357 0.08785254 1.44708781
v 1.40279722 0.08785254 1.63119750
v 1.23985357 0.08785254 1.63119750
v 1.40279722 0.08785254 1.44708781
v 1.40279722 0.28211035 1.63119750
v 1.40279722 0.28211035 1.44708781
v 1.23985357 0.28211035 1.63119750
v 1.23985357 0.28211035 1.44708781
v 1.58397779 0.08785254 1.44708781
v 1.74692154 0.08785254 1.63119750
v 1.58397779 0.08785254 1.63119750
v 1.74692154 0.08785254 1.44708781
v 1.74692154 0.28211035 1.63119750
v 1.74692154 0.28211035 1.44708781
v 1.58397779 0.28211035 1.63119750
v 1.58397779 0.28211035 1.44708781
v 1.58159523 0.08785254 1.63468523
v 1.74453945 0.08785254 1.81879463
v 1.58159523 0.08785254 1.81879463
v 1.74453945 0.08785254 1.63468523
v 1.74453945 0.28211035 1.81879463
v 1.74453945 0.28211035 1.63468523
v 1.58159523 0.28211035 1.81879463
v 1.58159523 0.28211035 1.63468523
v -1.08786583 0.07464414 0.73470869
v -1.25080957 0.07464414 0.55059929
v -1.08786583 0.07464414 0.55059929
v -1.25080957 0.07464414 0.73470869
v -1.25080957 0.26890197 0.55059929
v -1.25080957 0.26890197 0.73470869
v -1.08786583 0.26890197 0.55059929
v -1.08786583 0.26890197 0.73470869
v -0.91864882 0.07464417 0.73470869
v -1.08159256 0.07464414 0.55059929
v -0.91864882 0.07464417 0.55059929
v -1.08159256 0.07464414 0.73470869
v -1.08159256 0.26890197 0.55059929
v -1.08159256 0.26890197 0.73470869
v -0.91864882 0.26890200 0.55059929
v -0.91864882 0.26890200 0.73470869
v -0.91864882 -0.09980058 0.55421941
v -1.08159256 -0.09980058 0.73832910
v -0.91864882 -0.09980058 0.73832910
v -1.08159256 -0.09980058 0.55421941
v -1.08159256 -0.29405841 0.73832910
v -1.08159256 -0.29405841 0.55421970
v -0.91864882 -0.29405839 0.73832910
v -0.91864882 -0.29405839 0.55421970
v -0.91864882 0.07464417 0.92225010
v -1.08159256 0.07464414 0.73814042
v -0.91864882 0.07464417 0.73814042
v -1.08159256 0.07464414 0.92225010
v -1.08159256 0.26890197 0.73814042
v -1.08159256 0.26890197 0.92225010
v -0.91864882 0.26890200 0.73814042
v -0.91864882 0.26890200 0.92225010
v -0.91864882 -0.08999646 0.73814042
v -1.08159256 -0.08999646 0.92225010
v -0.91864882 -0.08999646 0.92225010
v -1.08159256 -0.08999646 0.73814042
v -1.08159256 -0.28425429 0.92225010
v -1.08159256 -0.28425429 0.73814042
v -0.91864882 -0.28425425 0.92225010
v -0.91864882 -0.28425425 0.73814042
v -1.60231514 0.07464408 0.73470869
v -1.76525879 0.07464408 0.55059929
v -1.60231514 0.07464408 0.55059929
v -1.76525879 0.07464408 0.73470869
v -1.76525879 0.26890191 0.55059929
v -1.76525879 0.26890191 0.73470869
v -1.60231514 0.26890191 0.55059929
v -1.60231514 0.26890191 0.73470869
v -1.43309803 0.07464411 0.73470869
v -1.59604177 0.07464408 0.55059929
v -1.43309803 0.07464411 0.55059929
v -1.59604177 0.07464408 0.73470869
v -1.59604177 0.26890191 0.55059929
v -1.59604177 0.26890191 0.73470869
v -1.43309803 0.26890193 0.55059929
v -1.43309803 0.26890193 0.73470869
v -1.43309803 -0.09980064 0.55421941
v -1.59604177 -0.09980067 0.73832910
v -1.43309803 -0.09980064 0.73832910
v -1.59604177 -0.09980067 0.55421941
v -1.59604177 -0.29405848 0.73832910
v -1.59604177 -0.29405848 0.55421970
v -1.43309803 -0.29405844 0.73832910
v -1.43309803 -0.29405844 0.55421970
v -1.43309803 0.07464411 0.92225010
v -1.59604177 0.07464408 0.73814042
v -1.43309803 0.07464411 0.73814042
v -1.59604177 0.07464408 0.92225010
v -1.59604177 0.26890191 0.73814042
v -1.59604177 0.26890191 0.92225010
v -1.43309803 0.26890193 0.73814042
v -1.43309803 0.26890193 0.92225010
v -1.43309803 -0.08999652 0.73814042
v -1.59604177 -0.08999655 0.92225010
v -1.43309803 -0.08999652 0.92225010
v -1.59604177 -0.08999655 0.73814042
v -1.59604177 -0.28425434 0.92225010
v -1.59604177 -0.28425434 0.73814042
v -1.43309803 -0.28425432 0.92225010
v -1.43309803 -0.28425432 0.73814042
v -1.25648975 0.08380830 0.73556700
v -1.41943359 0.08380830 0.55145731
v -1.25648975 0.08380830 0.55145731
v -1.41943359 0.08380830 0.73556700
v -1.41943359 0.27806609 0.55145731
v -1.41943359 0.27806609 0.73556700
v -1.25648975 0.27806609 0.55145731
v -1.25648975 0.27806609 0.73556700
v -1.16471643 0.07569774 0.91905270
v -1.32766018 0.07569771 0.73494329
v -1.16471643 0.07569774 0.73494329
v -1.32766018 0.07569771 0.91905270
v -1.32766018 0.26995554 0.73494329
v -1.32766018 0.26995554 0.91905270
v -1.16471643 0.26995554 0.73494329
v -1.16471643 0.26995554 0.91905270
v -1.08758821 -0.10229385 0.55145731
v -1.25053196 -0.10229388 0.73556700
v -1.08758821 -0.10229385 0.73556700
v -1.25053196 -0.10229388 0.55145731
v -1.25053196 -0.29655168 0.73556700
v -1.25053196 -0.29655168 0.55145731
v -1.08758821 -0.29655168 0.73556700
v -1.08758821 -0.29655168 0.55145731
v -1.25828018 -0.10229388 0.55145731
v -1.42122402 -0.10229391 0.73556700
v -1.25828018 -0.10229388 0.73556700
v -1.42122402 -0.10229391 0.55145731
v -1.42122402 -0.29655172 0.73556700
v -1.42122402 -0.29655172 0.55145731
v -1.25828018 -0.29655168 0.73556700
v -1.25828018 -0.29655168 0.55145731
v -1.60240440 -0.10229394 0.55145731
v -1.76534843 -0.10229394 0.73556700
v -1.60240440 -0.10229394 0.73556700
v -1.76534843 -0.10229394 0.55145731
v -1.76534843 -0.29655173 0.73556700
v -1.76534843 -0.29655173 0.55145731
v -1.60240440 -0.29655173 0.73556700
v -1.60240440 -0.29655173 0.55145731
v -1.60002193 -0.10229394 0.73905451
v -1.76296577 -0.10229394 0.92316420
v -1.60002193 -0.10229394 0.92316420
v -1.76296577 -0.10229394 0.73905451
v -1.76296577 -0.29655173 0.92316420
v -1.76296577 -0.29655173 0.73905451
v -1.60002193 -0.29655173 0.92316420
v -1.60002193 -0.29655173 0.73905451
v 0.68117719 0.07464414 0.73470869
v 0.51823339 0.07464414 0.55059929
v 0.68117719 0.07464414 0.55059929
v 0.51823339 0.07464414 0.73470869
v 0.51823320 0.26890197 0.55059929
v 0.51823320 0.26890197 0.73470869
v 0.68117700 0.26890197 0.55059929
v 0.68117700 0.26890197 0.73470869
v 0.85039415 0.07464417 0.73470869
v 0.68745041 0.07464414 0.55059929
v 0.85039415 0.07464417 0.55059929
v 0.68745041 0.07464414 0.73470869
v 0.68745041 0.26890197 0.55059929
v 0.68745041 0.26890197 0.73470869
v 0.85039415 0.26890200 0.55059929
v 0.85039415 0.26890200 0.73470869
v 0.85039415 -0.09980058 0.55421941
v 0.68745041 -0.09980058 0.73832910
v 0.85039415 -0.09980058 0.73832910
v 0.68745041 -0.09980058 0.55421941
v 0.68745041 -0.29405841 0.73832910
v 0.68745041 -0.29405841 0.55421970
v 0.85039415 -0.29405839 0.73832910
v 0.85039415 -0.29405839 0.55421970
v 0.85039415 0.07464417 0.92225010
v 0.68745041 0.07464414 0.73814042
v 0.85039415 0.07464417 0.73814042
v 0.68745041 0.07464414 0.92225010
v 0.68745041 0.26890197 0.73814042
v 0.68745041 0.26890197 0.92225010
v 0.85039415 0.26890200 0.73814042
v 0.85039415 0.26890200 0.92225010
v 0.85039415 -0.08999646 0.73814042
v 0.68745041 -0.08999646 0.92225010
v 0.85039415 -0.08999646 0.92225010
v 0.68745041 -0.08999646 0.73814042
v 0.68745041 -0.28425429 0.92225010
v 0.68745041 -0.28425429 0.73814042
v 0.85039415 -0.28425425 0.92225010
v 0.85039415 -0.28425425 0.73814042
v 0.16672792 0.07464408 0.73470869
v 0.00378408 0.07464408 0.55059929
v 0.16672792 0.07464408 0.55059929
v 0.00378408 0.07464408 0.73470869
v 0.00378408 0.26890191 0.55059929
v 0.00378408 0.26890191 0.73470869
v 0.16672792 0.26890191 0.55059929
v 0.16672792 0.26890191 0.73470869
v 0.33594501 0.07464411 0.73470869
v 0.17300100 0.07464408 0.55059929
v 0.33594501 0.07464411 0.55059929
v 0.17300100 0.07464408 0.73470869
v 0.17300100 0.26890191 0.55059929
v 0.17300100 0.26890191 0.73470869
v 0.33594501 0.26890193 0.55059929
v 0.33594501 0.26890193 0.73470869
v 0.33594501 -0.09980064 0.55421941
v 0.17300100 -0.09980067 0.73832910
v 0.33594501 -0.09980064 0.73832910
v 0.17300100 -0.09980067 0.55421941
v 0.17300121 -0.29405848 0.73832910
v 0.17300121 -0.29405848 0.55421970
v 0.33594501 -0.29405844 0.73832910
v 0.33594501 -0.29405844 0.55421970
v 0.33594501 0.07464411 0.92225010
v 0.17300100 0.07464408 0.73814042
v 0.33594501 0.07464411 0.73814042
v 0.17300100 0.07464408 0.92225010
v 0.17300100 0.26890191 0.73814042
v 0.17300100 0.26890191 0.92225010
v 0.33594501 0.26890193 0.73814042
v 0.33594501 0.26890193 0.92225010
v 0.33594501 -0.08999652 0.73814042
v 0.17300100 -0.08999655 0.92225010
v 0.33594501 -0.08999652 0.92225010
v 0.17300100 -0.08999655 0.73814042
v 0.17300121 -0.28425434 0.92225010
v 0.17300121 -0.28425434 0.73814042
v 0.33594501 -0.28425432 0.92225010
v 0.33594501 -0.28425432 0.73814042
v 0.51255322 0.08380830 0.73556700
v 0.34960921 0.08380830 0.55145731
v 0.51255322 0.08380830 0.55145731
v 0.34960921 0.08380830 0.73556700
v 0.34960921 0.27806609 0.55145731
v 0.34960921 0.27806609 0.73556700
v 0.51255322 0.27806609 0.55145731
v 0.51255322 0.27806609 0.73556700
v 0.60432658 0.07569774 0.91905270
v 0.44138260 0.07569771 0.73494329
v 0.60432658 0.07569774 0.73494329
v 0.44138260 0.07569771 0.91905270
v 0.44138260 0.26995554 0.73494329
v 0.44138260 0.26995554 0.91905270
v 0.60432658 0.26995554 0.73494329
v 0.60432658 0.26995554 0.91905270
v 0.68145480 -0.10229385 0.55145731
v 0.51851101 -0.10229388 0.73556700
v 0.68145480 -0.10229385 0.73556700
v 0.51851101 -0.10229388 0.55145731
v 0.51851101 -0.29655168 0.73556700
v 0.51851101 -0.29655168 0.55145731
v 0.68145480 -0.29655168 0.73556700
v 0.68145480 -0.29655168 0.55145731
v 0.51076279 -0.10229388 0.55145731
v 0.34781899 -0.10229391 0.73556700
v 0.51076279 -0.10229388 0.73556700
v 0.34781899 -0.10229391 0.55145731
v 0.34781899 -0.29655172 0.73556700
v 0.34781899 -0.29655172 0.55145731
v 0.51076279 -0.29655168 0.73556700
v 0.51076279 -0.29655168 0.55145731
v 0.16663848 -0.10229394 0.55145731
v 0.00369472 -0.10229394 0.73556700
v 0.16663848 -0.10229394 0.73556700
v 0.00369472 -0.10229394 0.55145731
v 0.00369482 -0.29655173 0.73556700
v 0.00369482 -0.29655173 0.55145731
v 0.16663866 -0.29655173 0.73556700
v 0.16663866 -0.29655173 0.55145731
v 0.16902114 -0.10229394 0.73905451
v 0.00607719 -0.10229394 0.92316420
v 0.16902114 -0.10229394 0.92316420
v 0.00607719 -0.10229394 0.73905451
v 0.00607729 -0.29655173 0.92316420
v 0.00607729 -0.29655173 0.73905451
v 0.16902114 -0.29655173 0.92316420
v 0.16902114 -0.29655173 0.73905451
v -0.19773656 0.07464414 0.26035119
v -0.36068039 0.07464414 0.07624161
v -0.19773656 0.07464414 0.07624161
v -0.36068039 0.07464414 0.26035119
v -0.36068039 0.26890197 0.07624161
v -0.36068039 0.26890197 0.26035119
v -0.19773656 0.26890197 0.07624161
v -0.19773656 0.26890197 0.26035119
v -0.02851952 0.07464417 0.26035119
v -0.19146338 0.07464414 0.07624161
v -0.02851952 0.07464417 0.07624161
v -0.19146338 0.07464414 0.26035119
v -0.19146338 0.26890197 0.07624161
v -0.19146338 0.26890197 0.26035119
v -0.02851952 0.26890200 0.07624161
v -0.02851952 0.26890200 0.26035119
v -0.02851952 -0.09980058 0.07986189
v -0.19146338 -0.09980058 0.26397148
v -0.02851952 -0.09980058 0.26397148
v -0.19146338 -0.09980058 0.07986189
v -0.19146338 -0.29405841 0.26397150
v -0.19146338 -0.29405841 0.07986189
v -0.02851952 -0.29405839 0.26397150
v -0.02851952 -0.29405839 0.07986189
v -0.02851952 0.07464417 0.44789221
v -0.19146338 0.07464414 0.26378278
v -0.02851952 0.07464417 0.26378278
v -0.19146338 0.07464414 0.44789221
v -0.19146338 0.26890197 0.26378278
v -0.19146338 0.26890197 0.44789221
v -0.02851952 0.26890200 0.26378278
v -0.02851952 0.26890200 0.44789221
v -0.02851952 -0.08999646 0.26378274
v -0.19146338 -0.08999646 0.44789221
v -0.02851952 -0.08999646 0.44789221
v -0.19146338 -0.08999646 0.26378274
v -0.19146338 -0.28425429 0.44789221
v -0.19146338 -0.28425429 0.26378278
v -0.02851952 -0.28425425 0.44789221
v -0.02851952 -0.28425425 0.26378278
v -0.71218581 0.07464408 0.26035119
v -0.87512960 0.07464408 0.07624161
v -0.71218581 0.07464408 0.07624161
v -0.87512960 0.07464408 0.26035119
v -0.87512960 0.26890191 0.07624161
v -0.87512960 0.26890191 0.26035119
v -0.71218581 0.26890191 0.07624161
v -0.71218581 0.26890191 0.26035119
v -0.54296880 0.07464411 0.26035119
v -0.70591259 0.07464408 0.07624161
v -0.54296880 0.07464411 0.07624161
v -0.70591259 0.07464408 0.26035119
v -0.70591259 0.26890191 0.07624161
v -0.70591259 0.26890191 0.26035119
v -0.54296880 0.26890193 0.07624161
v -0.54296880 0.26890193 0.26035119
v -0.54296880 -0.09980064 0.07986189
v -0.70591259 -0.09980067 0.26397148
v -0.54296880 -0.09980064 0.26397148
v -0.70591259 -0.09980067 0.07986189
v -0.70591240 -0.29405848 0.26397150
v -0.70591240 -0.29405848 0.07986189
v -0.54296880 -0.29405844 0.26397150
v -0.54296880 -0.29405844 0.07986189
v -0.54296880 0.07464411 0.44789221
v -0.70591259 0.07464408 0.26378278
v -0.54296880 0.07464411 0.26378278
v -0.70591259 0.07464408 0.44789221
v -0.70591259 0.26890191 0.26378278
v -0.70591259 0.26890191 0.44789221
v -0.54296880 0.26890193 0.26378278
v -0.54296880 0.26890193 0.44789221
v -0.54296880 -0.08999652 0.26378274
v -0.70591259 -0.08999655 0.44789221
v -0.54296880 -0.08999652 0.44789221
v -0.70591259 -0.08999655 0.26378274
v -0.70591240 -0.28425434 0.44789221
v -0.70591240 -0.28425434 0.26378278
v -0.54296880 -0.28425432 0.44789221
v -0.54296880 -0.28425432 0.26378278
v -0.36636059 0.08380830 0.26120930
v -0.52930441 0.08380830 0.07709973
v -0.36636059 0.08380830 0.07709973
v -0.52930441 0.08380830 0.26120930
v -0.52930441 0.27806609 0.07709973
v -0.52930441 0.27806609 0.26120930
v -0.36636059 0.27806609 0.07709973
v -0.36636059 0.27806609 0.26120930
v -0.27458720 0.07569774 0.44469509
v -0.43753099 0.07569771 0.26058562
v -0.27458720 0.07569774 0.26058562
v -0.43753099 0.07569771 0.44469509
v -0.43753099 0.26995554 0.26058562
v -0.43753099 0.26995554 0.44469509
v -0.27458720 0.26995554 0.26058562
v -0.27458720 0.26995554 0.44469509
v -0.19745893 -0.10229385 0.07709970
v -0.36040280 -0.10229388 0.26120929
v -0.19745893 -0.10229385 0.26120929
v -0.36040280 -0.10229388 0.07709970
v -0.36040280 -0.29655168 0.26120930
v -0.36040280 -0.29655168 0.07709973
v -0.19745893 -0.29655168 0.26120930
v -0.19745893 -0.29655168 0.07709973
v -0.36815081 -0.10229388 0.07709970
v -0.53109479 -0.10229391 0.26120929
v -0.36815081 -0.10229388 0.26120929
v -0.53109479 -0.10229391 0.07709970
v -0.53109479 -0.29655172 0.26120930
v -0.53109479 -0.29655172 0.07709973
v -0.36815081 -0.29655168 0.26120930
v -0.36815081 -0.29655168 0.07709973
v -0.71227522 -0.10229394 0.07709970
v -0.87521896 -0.10229394 0.26120929
v -0.71227522 -0.10229394 0.26120929
v -0.87521896 -0.10229394 0.07709970
v -0.87521896 -0.29655173 0.26120930
v -0.87521896 -0.29655173 0.07709973
v -0.71227498 -0.29655173 0.26120930
v -0.71227498 -0.29655173 0.07709973
v -0.70989261 -0.10229394 0.26469696
v -0.87283640 -0.10229394 0.44880660
v -0.70989261 -0.10229394 0.44880660
v -0.87283640 -0.10229394 0.26469696
v -0.87283640 -0.29655173 0.44880660
v -0.87283640 -0.29655173 0.26469700
v -0.70989261 -0.29655173 0.44880660
v -0.70989261 -0.29655173 0.26469700
v -0.20601580 0.07464414 1.62234836
v -0.36895959 0.07464414 1.43823867
v -0.20601580 0.07464414 1.43823867
v -0.36895959 0.07464414 1.62234836
v -0.36895959 0.26890197 1.43823867
v -0.36895959 0.26890197 1.62234836
v -0.20601580 0.26890197 1.43823867
v -0.20601580 0.26890197 1.62234836
v -0.03679876 0.07464417 1.62234836
v -0.19974260 0.07464414 1.43823867
v -0.03679876 0.07464417 1.43823867
v -0.19974260 0.07464414 1.62234836
v -0.19974260 0.26890197 1.43823867
v -0.19974260 0.26890197 1.62234836
v -0.03679876 0.26890200 1.43823867
v -0.03679876 0.26890200 1.62234836
v -0.03679876 -0.09980058 1.44185915
v -0.19974260 -0.09980058 1.62596884
v -0.03679876 -0.09980058 1.62596884
v -0.19974260 -0.09980058 1.44185915
v -0.19974260 -0.29405841 1.62596884
v -0.19974260 -0.29405841 1.44185915
v -0.03679876 -0.29405839 1.62596884
v -0.03679876 -0.29405839 1.44185915
v -0.03679876 0.07464417 1.80988955
v -0.19974260 0.07464414 1.62578015
v -0.03679876 0.07464417 1.62578015
v -0.19974260 0.07464414 1.80988955
v -0.19974260 0.26890197 1.62578015
v -0.19974260 0.26890197 1.80988955
v -0.03679876 0.26890200 1.62578015
v -0.03679876 0.26890200 1.80988955
v -0.03679876 -0.08999646 1.62578015
v -0.19974260 -0.08999646 1.80988955
v -0.03679876 -0.08999646 1.80988955
v -0.19974260 -0.08999646 1.62578015
v -0.19974260 -0.28425429 1.80988955
v -0.19974260 -0.28425429 1.62578015
v -0.03679876 -0.28425425 1.80988955
v -0.03679876 -0.28425425 1.62578015
v -0.72046499 0.07464408 1.62234836
v -0.88340883 0.07464408 1.43823867
v -0.72046499 0.07464408 1.43823867
v -0.88340883 0.07464408 1.62234836
v -0.88340883 0.26890191 1.43823867
v -0.88340883 0.26890191 1.62234836
v -0.72046499 0.26890191 1.43823867
v -0.72046499 0.26890191 1.62234836
v -0.55124798 0.07464411 1.62234836
v -0.71419182 0.07464408 1.43823867
v -0.55124798 0.07464411 1.43823867
v -0.71419182 0.07464408 1.62234836
v -0.71419182 0.26890191 1.43823867
v -0.71419182 0.26890191 1.62234836
v -0.55124798 0.26890193 1.43823867
v -0.55124798 0.26890193 1.62234836
v -0.55124798 -0.09980064 1.44185915
v -0.71419182 -0.09980067 1.62596884
v -0.55124798 -0.09980064 1.62596884
v -0.71419182 -0.09980067 1.44185915
v -0.71419182 -0.29405848 1.62596884
v -0.71419182 -0.29405848 1.44185915
v -0.55124798 -0.29405844 1.62596884
v -0.55124798 -0.29405844 1.44185915
v -0.55124798 0.07464411 1.80988955
v -0.71419182 0.07464408 1.62578015
v -0.55124798 0.07464411 1.62578015
v -0.71419182 0.07464408 1.80988955
v -0.71419182 0.26890191 1.62578015
v -0.71419182 0.26890191 1.80988955
v -0.55124798 0.26890193 1.62578015
v -0.55124798 0.26890193 1.80988955
v -0.55124798 -0.08999652 1.62578015
v -0.71419182 -0.08999655 1.80988955
v -0.55124798 -0.08999652 1.80988955
v -0.71419182 -0.08999655 1.62578015
v -0.71419182 -0.28425434 1.80988955
v -0.71419182 -0.28425434 1.62578015
v -0.55124798 -0.28425432 1.80988955
v -0.55124798 -0.28425432 1.62578015
v -0.37463980 0.08380830 1.62320638
v -0.53758359 0.08380830 1.43909698
v -0.37463980 0.08380830 1.43909698
v -0.53758359 0.08380830 1.62320638
v -0.53758359 0.27806609 1.43909698
v -0.53758359 0.27806609 1.62320638
v -0.37463980 0.27806609 1.43909698
v -0.37463980 0.27806609 1.62320638
v -0.28286641 0.07569774 1.80669236
v -0.44581022 0.07569771 1.62258267
v -0.28286641 0.07569774 1.62258267
v -0.44581022 0.07569771 1.80669236
v -0.44581022 0.26995554 1.62258267
v -0.44581022 0.26995554 1.80669236
v -0.28286641 0.26995554 1.62258267
v -0.28286641 0.26995554 1.80669236
v -0.20573821 -0.10229385 1.43909698
v -0.36868200 -0.10229388 1.62320638
v -0.20573821 -0.10229385 1.62320638
v -0.36868200 -0.10229388 1.43909698
v -0.36868200 -0.29655168 1.62320638
v -0.36868200 -0.29655168 1.43909698
v -0.20573821 -0.29655168 1.62320638
v -0.20573821 -0.29655168 1.43909698
v -0.37643020 -0.10229388 1.43909698
v -0.53937402 -0.10229391 1.62320638
v -0.37643020 -0.10229388 1.62320638
v -0.53937402 -0.10229391 1.43909698
v -0.53937402 -0.29655172 1.62320638
v -0.53937402 -0.29655172 1.43909698
v -0.37643020 -0.29655168 1.62320638
v -0.37643020 -0.29655168 1.43909698
v -0.72055440 -0.10229394 1.43909698
v -0.88349819 -0.10229394 1.62320638
v -0.72055440 -0.10229394 1.62320638
v -0.88349819 -0.10229394 1.43909698
v -0.88349819 -0.29655173 1.62320638
v -0.88349819 -0.29655173 1.43909698
v -0.72055421 -0.29655173 1.62320638
v -0.72055421 -0.29655173 1.43909698
v -0.71817179 -0.10229394 1.62669425
v -0.88111582 -0.10229394 1.81080394
v -0.71817179 -0.10229394 1.81080394
v -0.88111582 -0.10229394 1.62669425
v -0.88111582 -0.29655173 1.81080394
v -0.88111582 -0.29655173 1.62669425
v -0.71817179 -0.29655173 1.81080394
v -0.71817179 -0.29655173 1.62669425
v 1.58499937 0.07464414 0.26035119
v 1.42205563 0.07464414 0.07624161
v 1.58499937 0.07464414 0.07624161
v 1.42205563 0.07464414 0.26035119
v 1.42205544 0.26890197 0.07624161
v 1.42205544 0.26890197 0.26035119
v 1.58499918 0.26890197 0.07624161
v 1.58499918 0.26890197 0.26035119
v 1.75421638 0.07464417 0.26035119
v 1.59127235 0.07464414 0.07624161
v 1.75421638 0.07464417 0.07624161
v 1.59127235 0.07464414 0.26035119
v 1.59127235 0.26890197 0.07624161
v 1.59127235 0.26890197 0.26035119
v 1.75421638 0.26890200 0.07624161
v 1.75421638 0.26890200 0.26035119
v 1.75421638 -0.09980058 0.07986189
v 1.59127235 -0.09980058 0.26397148
v 1.75421638 -0.09980058 0.26397148
v 1.59127235 -0.09980058 0.07986189
v 1.59127235 -0.29405841 0.26397150
v 1.59127235 -0.29405841 0.07986189
v 1.75421638 -0.29405839 0.26397150
v 1.75421638 -0.29405839 0.07986189
v 1.75421638 0.07464417 0.44789221
v 1.59127235 0.07464414 0.26378278
v 1.75421638 0.07464417 0.26378278
v 1.59127235 0.07464414 0.44789221
v 1.59127235 0.26890197 0.26378278
v 1.59127235 0.26890197 0.44789221
v 1.75421638 0.26890200 0.26378278
v 1.75421638 0.26890200 0.44789221
v 1.75421638 -0.08999646 0.26378274
v 1.59127235 -0.08999646 0.44789221
v 1.75421638 -0.08999646 0.44789221
v 1.59127235 -0.08999646 0.26378274
v 1.59127235 -0.28425429 0.44789221
v 1.59127235 -0.28425429 0.26378278
v 1.75421638 -0.28425425 0.44789221
v 1.75421638 -0.28425425 0.26378278
v 1.07054996 0.07464408 0.26035119
v 0.90760622 0.07464408 0.07624161
v 1.07054996 0.07464408 0.07624161
v 0.90760622 0.07464408 0.26035119
v 0.90760622 0.26890191 0.07624161
v 0.90760622 0.26890191 0.26035119
v 1.07054996 0.26890191 0.07624161
v 1.07054996 0.26890191 0.26035119
v 1.23976698 0.07464411 0.26035119
v 1.07682343 0.07464408 0.07624161
v 1.23976698 0.07464411 0.07624161
v 1.07682343 0.07464408 0.26035119
v 1.07682343 0.26890191 0.07624161
v 1.07682343 0.26890191 0.26035119
v 1.23976698 0.26890193 0.07624161
v 1.23976698 0.26890193 0.26035119
v 1.23976717 -0.09980064 0.07986189
v 1.07682343 -0.09980067 0.26397148
v 1.23976717 -0.09980064 0.26397148
v 1.07682343 -0.09980067 0.07986189
v 1.07682343 -0.29405848 0.26397150
v 1.07682343 -0.29405848 0.07986189
v 1.23976717 -0.29405844 0.26397150
v 1.23976717 -0.29405844 0.07986189
v 1.23976698 0.07464411 0.44789221
v 1.07682343 0.07464408 0.26378278
v 1.23976698 0.07464411 0.26378278
v 1.07682343 0.07464408 0.44789221
v 1.07682343 0.26890191 0.26378278
v 1.07682343 0.26890191 0.44789221
v 1.23976698 0.26890193 0.26378278
v 1.23976698 0.26890193 0.44789221
v 1.23976717 -0.08999652 0.26378274
v 1.07682343 -0.08999655 0.44789221
v 1.23976717 -0.08999652 0.44789221
v 1.07682343 -0.08999655 0.26378274
v 1.07682343 -0.28425434 0.44789221
v 1.07682343 -0.28425434 0.26378278
v 1.23976717 -0.28425432 0.44789221
v 1.23976717 -0.28425432 0.26378278
v 1.41637516 0.08380830 0.26120930
v 1.25343142 0.08380830 0.07709973
v 1.41637516 0.08380830 0.07709973
v 1.25343142 0.08380830 0.26120930
v 1.25343142 0.27806609 0.07709973
v 1.25343142 0.27806609 0.26120930
v 1.41637516 0.27806609 0.07709973
v 1.41637516 0.27806609 0.26120930
v 1.50814857 0.07569774 0.44469509
v 1.34520483 0.07569771 0.26058562
v 1.50814857 0.07569774 0.26058562
v 1.34520483 0.07569771 0.44469509
v 1.34520483 0.26995554 0.26058562
v 1.34520483 0.26995554 0.44469509
v 1.50814857 0.26995554 0.26058562
v 1.50814857 0.26995554 0.44469509
v 1.58527679 -0.10229385 0.07709970
v 1.42233295 -0.10229388 0.26120929
v 1.58527679 -0.10229385 0.26120929
v 1.42233295 -0.10229388 0.07709970
v 1.42233295 -0.29655168 0.26120930
v 1.42233295 -0.29655168 0.07709973
v 1.58527679 -0.29655168 0.26120930
v 1.58527679 -0.29655168 0.07709973
v 1.41458502 -0.10229388 0.07709970
v 1.25164118 -0.10229391 0.26120929
v 1.41458502 -0.10229388 0.26120929
v 1.25164118 -0.10229391 0.07709970
v 1.25164118 -0.29655172 0.26120930
v 1.25164118 -0.29655172 0.07709973
v 1.41458502 -0.29655168 0.26120930
v 1.41458502 -0.29655168 0.07709973
v 1.07046080 -0.10229394 0.07709970
v 0.90751677 -0.10229394 0.26120929
v 1.07046080 -0.10229394 0.26120929
v 0.90751677 -0.10229394 0.07709970
v 0.90751696 -0.29655173 0.26120930
v 0.90751696 -0.29655173 0.07709973
v 1.07046080 -0.29655173 0.26120930
v 1.07046080 -0.29655173 0.07709973
v 1.07284298 -0.10229394 0.26469696
v 0.90989943 -0.10229394 0.44880660
v 1.07284298 -0.10229394 0.44880660
v 0.90989943 -0.10229394 0.26469696
v 0.90989943 -0.29655173 0.44880660
v 0.90989943 -0.29655173 0.26469700
v 1.07284317 -0.29655173 0.44880660
v 1.07284317 -0.29655173 0.26469700
f 1 2 3
f 4 5 2
f 3 5 6
f 7 4 1
f 1 4 2
f 4 8 5
f 3 2 5
f 7 8 4
f 9 10 11
f 12 13 10
f 14 15 13
f 16 11 15
f 13 11 10
f 12 16 14
f 9 12 10
f 12 14 13
f 14 16 15
f 16 9 11
f 13 15 11
f 12 9 16
f 17 18 19
f 20 21 18
f 22 23 21
f 24 19 23
f 21 19 18
f 20 24 22
f 17 20 18
f 20 22 21
f 22 24 23
f 24 17 19
f 21 23 19
f 20 17 24
f 25 26 27
f 28 29 26
f 30 31 29
f 32 27 31
f 29 27 26
f 28 32 30
f 25 28 26
f 28 30 29
f 30 32 31
f 32 25 27
f 29 31 27
f 28 25 32
f 33 34 35
f 36 37 34
f 38 39 37
f 40 35 39
f 37 35 34
f 36 40 38
f 33 36 34
f 36 38 37
f 38 40 39
f 40 33 35
f 37 39 35
f 36 33 40
f 41 42 43
f 44 45 42
f 46 47 45
f 48 43 47
f 45 43 42
f 44 48 46
f 41 44 42
f 44 46 45
f 46 48 47
f 48 41 43
f 45 47 43
f 44 41 48
f 49 50 51
f 52 53 50
f 54 55 53
f 56 51 55
f 53 51 50
f 52 56 54
f 49 52 50
f 52 54 53
f 54 56 55
f 56 49 51
f 53 55 51
f 52 49 56
f 57 58 59
f 60 61 58
f 62 63 61
f 64 59 63
f 61 59 58
f 60 64 62
f 57 60 58
f 60 62 61
f 62 64 63
f 64 57 59
f 61 63 59
f 60 57 64
f 65 66 67
f 68 69 66
f 70 71 69
f 72 67 71
f 69 67 66
f 68 72 70
f 65 68 66
f 68 70 69
f 70 72 71
f 72 65 67
f 69 71 67
f 68 65 72
f 73 74 75
f 76 77 74
f 78 79 77
f 80 75 79
f 77 75 74
f 76 80 78
f 73 76 74
f 76 78 77
f 78 80 79
f 80 73 75
f 77 79 75
f 76 73 80
f 81 82 83
f 84 85 82
f 86 87 85
f 88 83 87
f 85 83 82
f 84 88 86
f 81 84 82
f 84 86 85
f 86 88 87
f 88 81 83
f 85 87 83
f 84 81 88
f 89 90 91
f 92 93 90
f 94 95 93
f 96 91 95
f 93 91 90
f 92 96 94
f 89 92 90
f 92 94 93
f 94 96 95
f 96 89 91
f 93 95 91
f 92 89 96
f 97 98 99
f 100 101 98
f 102 103 101
f 104 99 103
f 101 99 98
f 100 104 102
f 97 100 98
f 100 102 101
f 102 104 103
f 104 97 99
f 101 103 99
f 100 97 104
f 105 106 107
f 108 109 106
f 110 111 109
f 112 107 111
f 109 107 106
f 108 112 110
f 105 108 106
f 108 110 109
f 110 112 111
f 112 105 107
f 109 111 107
f 108 105 112
f 113 114 115
f 116 117 114
f 118 119 117
f 120 115 119
f 117 115 114
f 116 120 118
f 113 116 114
f 116 118 117
f 118 120 119
f 120 113 115
f 117 119 115
f 116 113 120
f 121 122 123
f 124 125 122
f 126 127 125
f 128 123 127
f 125 123 122
f 124 128 126
f 121 124 122
f 124 126 125
f 126 128 127
f 128 121 123
f 125 127 123
f 124 121 128
f 129 130 131
f 132 133 130
f 134 135 133
f 136 131 135
f 133 131 130
f 132 136 134
f 129 132 130
f 132 134 133
f 134 136 135
f 136 129 131
f 133 135 131
f 132 129 136
f 137 138 139
f 140 141 138
f 142 143 141
f 144 139 143
f 141 139 138
f 140 144 142
f 137 140 138
f 140 142 141
f 142 144 143
f 144 137 139
f 141 143 139
f 140 137 144
f 145 146 147
f 148 149 146
f 150 151 149
f 152 147 151
f 149 147 146
f 148 152 150
f 145 148 146
f 148 150 149
f 150 152 151
f 152 145 147
f 149 151 147
f 148 145 152
f 153 154 155
f 156 157 154
f 158 159 157
f 160 155 159
f 157 155 154
f 156 160 158
f 153 156 154
f 156 158 157
f 158 160 159
f 160 153 155
f 157 159 155
f 156 153 160
f 161 162 163
f 164 165 162
f 166 167 165
f 168 163 167
f 165 163 162
f 164 168 166
f 161 164 162
f 164 166 165
f 166 168 167
f 168 161 163
f 165 167 163
f 164 161 168
f 169 170 171
f 172 173 170
f 174 175 173
f 176 171 175
f 173 171 170
f 172 176 174
f 169 172 170
f 172 174 173
f 174 176 175
f 176 169 171
f 173 175 171
f 172 169 176
f 177 178 179
f 180 181 178
f 182 183 181
f 184 179 183
f 181 179 178
f 180 184 182
f 177 180 178
f 180 182 181
f 182 184 183
f 184 177 179
f 181 183 179
f 180 177 184
f 185 186 187
f 188 189 186
f 190 191 189
f 192 187 191
f 189 187 186
f 188 192 190
f 185 188 186
f 188 190 189
f 190 192 191
f 192 185 187
f 189 191 187
f 188 185 192
f 193 194 195
f 196 197 194
f 198 199 197
f 200 195 199
f 197 195 194
f 196 200 198
f 193 196 194
f 196 198 197
f 198 200 199
f 200 193 195
f 197 199 195
f 196 193 200
f 201 202 203
f 204 205 202
f 206 207 205
f 208 203 207
f 205 203 202
f 204 208 206
f 201 204 202
f 204 206 205
f 206 208 207
f 208 201 203
f 205 207 203
f 204 201 208
f 209 210 211
f 212 213 210
f 214 215 213
f 216 211 215
f 213 211 210
f 212 216 214
f 209 212 210
f 212 214 213
f 214 216 215
f 216 209 211
f 213 215 211
f 212 209 216
f 217 218 219
f 220 221 218
f 222 223 221
f 224 219 223
f 221 219 218
f 220 224 222
f 217 220 218
f 220 222 221
f 222 224 223
f 224 217 219
f 221 223 219
f 220 217 224
f 225 226 227
f 228 229 226
f 230 231 229
f 232 227 231
f 229 227 226
f 228 232 230
f 225 228 226
f 228 230 229
f 230 232 231
f 232 225 227
f 229 231 227
f 228 225 232
f 233 234 235
f 236 237 234
f 238 239 237
f 240 235 239
f 237 235 234
f 236 240 238
f 233 236 234
f 236 238 237
f 238 240 239
f 240 233 235
f 237 239 235
f 236 233 240
f 241 242 243
f 244 245 242
f 246 247 245
f 248 243 247
f 245 243 242
f 244 248 246
f 241 244 242
f 244 246 245
f 246 248 247
f 248 241 243
f 245 247 243
f 244 241 248
f 249 250 251
f 252 253 250
f 254 255 253
f 256 251 255
f 253 251 250
f 252 256 254
f 249 252 250
f 252 254 253
f 254 256 255
f 256 249 251
f 253 255 251
f 252 249 256
f 257 258 259
f 260 261 258
f 262 263 261
f 264 259 263
f 261 259 258
f 260 264 262
f 257 260 258
f 260 262 261
f 262 264 263
f 264 257 259
f 261 263 259
f 260 257 264
f 265 266 267
f 268 269 266
f 270 271 269
f 272 267 271
f 269 267 266
f 268 272 270
f 265 268 266
f 268 270 269
f 270 272 271
f 272 265 267
f 269 271 267
f 268 265 272
f 273 274 275
f 276 277 274
f 278 279 277
f 280 275 279
f 277 275 274
f 276 280 278
f 273 276 274
f 276 278 277
f 278 280 279
f 280 273 275
f 277 279 275
f 276 273 280
f 281 282 283
f 284 285 282
f 286 287 285
f 288 283 287
f 285 283 282
f 284 288 286
f 281 284 282
f 284 286 285
f 286 288 287
f 288 281 283
f 285 287 283
f 284 281 288
f 289 290 291
f 292 293 290
f 294 295 293
f 296 291 295
f 293 291 290
f 292 296 294
f 289 292 290
f 292 294 293
f 294 296 295
f 296 289 291
f 293 295 291
f 292 289 296
f 297 298 299
f 300 301 298
f 302 303 301
f 304 299 303
f 301 299 298
f 300 304 302
f 297 300 298
f 300 302 301
f 302 304 303
f 304 297 299
f 301 303 299
f 300 297 304
f 305 306 307
f 308 309 306
f 310 311 309
f 312 307 311
f 309 307 306
f 308 312 310
f 305 308 306
f 308 310 309
f 310 312 311
f 312 305 307
f 309 311 307
f 308 305 312
f 313 314 315
f 316 317 314
f 318 319 317
f 320 315 319
f 317 315 314
f 316 320 318
f 313 316 314
f 316 318 317
f 318 320 319
f 320 313 315
f 317 319 315
f 316 313 320
f 321 322 323
f 324 325 322
f 326 327 325
f 328 323 327
f 325 323 322
f 324 328 326
f 321 324 322
f 324 326 325
f 326 328 327
f 328 321 323
f 325 327 323
f 324 321 328
f 329 330 331
f 332 333 330
f 334 335 333
f 336 331 335
f 333 331 330
f 332 336 334
f 329 332 330
f 332 334 333
f 334 336 335
f 336 329 331
f 333 335 331
f 332 329 336
f 337 338 339
f 340 341 338
f 342 343 341
f 344 339 343
f 341 339 338
f 340 344 342
f 337 340 338
f 340 342 341
f 342 344 343
f 344 337 339
f 341 343 339
f 340 337 344
f 345 346 347
f 348 349 346
f 350 351 349
f 352 347 351
f 349 347 346
f 348 352 350
f 345 348 346
f 348 350 349
f 350 352 351
f 352 345 347
f 349 351 347
f 348 345 352
f 353 354 355
f 356 357 354
f 358 359 357
f 360 355 359
f 357 355 354
f 356 360 358
f 353 356 354
f 356 358 357
f 358 360 359
f 360 353 355
f 357 359 355
f 356 353 360
f 361 362 363
f 364 365 362
f 366 367 365
f 368 363 367
f 365 363 362
f 364 368 366
f 361 364 362
f 364 366 365
f 366 368 367
f 368 361 363
f 365 367 363
f 364 361 368
f 369 370 371
f 372 373 370
f 374 375 373
f 376 371 375
f 373 371 370
f 372 376 374
f 369 372 370
f 372 374 373
f 374 376 375
f 376 369 371
f 373 375 371
f 372 369 376
f 377 378 379
f 380 381 378
f 382 383 381
f 384 379 383
f 381 379 378
f 380 384 382
f 377 380 378
f 380 382 381
f 382 384 383
f 384 377 379
f 381 383 379
f 380 377 384
f 385 386 387
f 388 389 386
f 390 391 389
f 392 387 391
f 389 387 386
f 388 392 390
f 385 388 386
f 388 390 389
f 390 392 391
f 392 385 387
f 389 391 387
f 388 385 392
f 393 394 395
f 396 397 394
f 398 399 397
f 400 395 399
f 397 395 394
f 396 400 398
f 393 396 394
f 396 398 397
f 398 400 399
f 400 393 395
f 397 399 395
f 396 393 400
f 401 402 403
f 404 405 402
f 406 407 405
f 408 403 407
f 405 403 402
f 404 408 406
f 401 404 402
f 404 406 405
f 406 408 407
f 408 401 403
f 405 407 403
f 404 401 408
f 409 410 411
f 412 413 410
f 414 415 413
f 416 411 415
f 413 411 410
f 412 416 414
f 409 412 410
f 412 414 413
f 414 416 415
f 416 409 411
f 413 415 411
f 412 409 416
f 417 418 419
f 420 421 418
f 422 423 421
f 424 419 423
f 421 419 418
f 420 424 422
f 417 420 418
f 420 422 421
f 422 424 423
f 424 417 419
f 421 423 419
f 420 417 424
f 425 426 427
f 428 429 426
f 430 431 429
f 432 427 431
f 429 427 426
f 428 432 430
f 425 428 426
f 428 430 429
f 430 432 431
f 432 425 427
f 429 431 427
f 428 425 432
f 433 434 435
f 436 437 434
f 438 439 437
f 440 435 439
f 437 435 434
f 436 440 438
f 433 436 434
f 436 438 437
f 438 440 439
f 440 433 435
f 437 439 435
f 436 433 440
f 441 442 443
f 444 445 442
f 446 447 445
f 448 443 447
f 445 443 442
f 444 448 446
f 441 444 442
f 444 446 445
f 446 448 447
f 448 441 443
f 445 447 443
f 444 441 448
f 449 450 451
f 452 453 450
f 454 455 453
f 456 451 455
f 453 451 450
f 452 456 454
f 449 452 450
f 452 454 453
f 454 456 455
f 456 449 451
f 453 455 451
f 452 449 456
f 457 458 459
f 460 461 458
f 462 463 461
f 464 459 463
f 461 459 458
f 460 464 462
f 457 460 458
f 460 462 461
f 462 464 463
f 464 457 459
f 461 463 459
f 460 457 464
f 465 466 467
f 468 469 466
f 470 471 469
f 472 467 471
f 469 467 466
f 468 472 470
f 465 468 466
f 468 470 469
f 470 472 471
f 472 465 467
f 469 471 467
f 468 465 472
f 473 474 475
f 476 477 474
f 478 479 477
f 480 475 479
f 477 475 474
f 476 480 478
f 473 476 474
f 476 478 477
f 478 480 479
f 480 473 475
f 477 479 475
f 476 473 480
f 481 482 483
f 484 485 482
f 486 487 485
f 488 483 487
f 485 483 482
f 484 488 486
f 481 484 482
f 484 486 485
f 486 488 487
f 488 481 483
f 485 487 483
f 484 481 488
f 489 490 491
f 492 493 490
f 494 495 493
f 496 491 495
f 493 491 490
f 492 496 494
f 489 492 490
f 492 494 493
f 494 496 495
f 496 489 491
f 493 495 491
f 492 489 496
f 497 498 499
f 500 501 498
f 502 503 501
f 504 499 503
f 501 499 498
f 500 504 502
f 497 500 498
f 500 502 501
f 502 504 503
f 504 497 499
f 501 503 499
f 500 497 504
f 505 506 507
f 508 509 506
f 510 511 509
f 512 507 511
f 509 507 506
f 508 512 510
f 505 508 506
f 508 510 509
f 510 512 511
f 512 505 507
f 509 511 507
f 508 505 512
f 513 514 515
f 516 517 514
f 518 519 517
f 520 515 519
f 517 515 514
f 516 520 518
f 513 516 514
f 516 518 517
f 518 520 519
f 520 513 515
f 517 519 515
f 516 513 520
f 521 522 523
f 524 525 522
f 526 527 525
f 528 523 527
f 525 523 522
f 524 528 526
f 521 524 522
f 524 526 525
f 526 528 527
f 528 521 523
f 525 527 523
f 524 521 528
f 529 530 531
f 532 533 530
f 534 535 533
f 536 531 535
f 533 531 530
f 532 536 534
f 529 532 530
f 532 534 533
f 534 536 535
f 536 529 531
f 533 535 531
f 532 529 536
f 537 538 539
f 540 541 538
f 542 543 541
f 544 539 543
f 541 539 538
f 540 544 542
f 537 540 538
f 540 542 541
f 542 544 543
f 544 537 539
f 541 543 539
f 540 537 544
f 545 546 547
f 548 549 546
f 550 551 549
f 552 547 551
f 549 547 546
f 548 552 550
f 545 548 546
f 548 550 549
f 550 552 551
f 552 545 547
f 549 551 547
f 548 545 552
f 553 554 555
f 556 557 554
f 558 559 557
f 560 555 559
f 557 555 554
f 556 560 558
f 553 556 554
f 556 558 557
f 558 560 559
f 560 553 555
f 557 559 555
f 556 553 560
f 561 562 563
f 564 565 562
f 566 567 565
f 568 563 567
f 565 563 562
f 564 568 566
f 561 564 562
f 564 566 565
f 566 568 567
f 568 561 563
f 565 567 563
f 564 561 568
f 569 570 571
f 572 573 570
f 574 575 573
f 576 571 575
f 573 571 570
f 572 576 574
f 569 572 570
f 572 574 573
f 574 576 575
f 576 569 571
f 573 575 571
f 572 569 576
f 577 578 579
f 580 581 578
f 582 583 581
f 584 579 583
f 581 579 578
f 580 584 582
f 577 580 578
f 580 582 581
f 582 584 583
f 584 577 579
f 581 583 579
f 580 577 584
f 585 586 587
f 588 589 586
f 590 591 589
f 592 587 591
f 589 587 586
f 588 592 590
f 585 588 586
f 588 590 589
f 590 592 591
f 592 585 587
f 589 591 587
f 588 585 592
f 593 594 595
f 596 597 594
f 598 599 597
f 600 595 599
f 597 595 594
f 596 600 598
f 593 596 594
f 596 598 597
f 598 600 599
f 600 593 595
f 597 599 595
f 596 593 600
f 601 602 603
f 604 605 602
f 606 607 605
f 608 603 607
f 605 603 602
f 604 608 606
f 601 604 602
f 604 606 605
f 606 608 607
f 608 601 603
f 605 607 603
f 604 601 608
f 609 610 611
f 612 613 610
f 614 615 613
f 616 611 615
f 613 611 610
f 612 616 614
f 609 612 610
f 612 614 613
f 614 616 615
f 616 609 611
f 613 615 611
f 612 609 616
f 617 618 619
f 620 621 618
f 622 623 621
f 624 619 623
f 621 619 618
f 620 624 622
f 617 620 618
f 620 622 621
f 622 624 623
f 624 617 619
f 621 623 619
f 620 617 624
f 625 626 627
f 628 629 626
f 630 631 629
f 632 627 631
f 629 627 626
f 628 632 630
f 625 628 626
f 628 630 629
f 630 632 631
f 632 625 627
f 629 631 627
f 628 625 632
f 633 634 635
f 636 637 634
f 638 639 637
f 640 635 639
f 637 635 634
f 636 640 638
f 633 636 634
f 636 638 637
f 638 640 639
f 640 633 635
f 637 639 635
f 636 633 640
f 641 642 643
f 644 645 642
f 646 647 645
f 648 643 647
f 645 643 642
f 644 648 646
f 641 644 642
f 644 646 645
f 646 648 647
f 648 641 643
f 645 647 643
f 644 641 648
f 649 650 651
f 652 653 650
f 654 655 653
f 656 651 655
f 653 651 650
f 652 656 654
f 649 652 650
f 652 654 653
f 654 656 655
f 656 649 651
f 653 655 651
f 652 649 656
f 657 658 659
f 660 661 658
f 662 663 661
f 664 659 663
f 661 659 658
f 660 664 662
f 657 660 658
f 660 662 661
f 662 664 663
f 664 657 659
f 661 663 659
f 660 657 664
f 665 666 667
f 668 669 666
f 670 671 669
f 672 667 671
f 669 667 666
f 668 672 670
f 665 668 666
f 668 670 669
f 670 672 671
f 672 665 667
f 669 671 667
f 668 665 672
f 673 674 675
f 676 677 674
f 678 679 677
f 680 675 679
f 677 675 674
f 676 680 678
f 673 676 674
f 676 678 677
f 678 680 679
f 680 673 675
f 677 679 675
f 676 673 680
f 681 682 683
f 684 685 682
f 686 687 685
f 688 683 687
f 685 683 682
f 684 688 686
f 681 684 682
f 684 686 685
f 686 688 687
f 688 681 683
f 685 687 683
f 684 681 688
f 689 690 691
f 692 693 690
f 694 695 693
f 696 691 695
f 693 691 690
f 692 696 694
f 689 692 690
f 692 694 693
f 694 696 695
f 696 689 691
f 693 695 691
f 692 689 696
f 697 698 699
f 700 701 698
f 702 703 701
f 704 699 703
f 701 699 698
f 700 704 702
f 697 700 698
f 700 702 701
f 702 704 703
f 704 697 699
f 701 703 699
f 700 697 704
f 705 706 707
f 708 709 706
f 710 711 709
f 712 707 711
f 709 707 706
f 708 712 710
f 705 708 706
f 708 710 709
f 710 712 711
f 712 705 707
f 709 711 707
f 708 705 712
f 713 714 715
f 716 717 714
f 718 719 717
f 720 715 719
f 717 715 714
f 716 720 718
f 713 716 714
f 716 718 717
f 718 720 719
f 720 713 715
f 717 719 715
f 716 713 720
f 721 722 723
f 724 725 722
f 726 727 725
f 728 723 727
f 725 723 722
f 724 728 726
f 721 724 722
f 724 726 725
f 726 728 727
f 728 721 723
f 725 727 723
f 724 721 728
f 729 730 731
f 732 733 730
f 734 735 733
f 736 731 735
f 733 731 730
f 732 736 734
f 729 732 730
f 732 734 733
f 734 736 735
f 736 729 731
f 733 735 731
f 732 729 736
f 737 738 739
f 740 741 738
f 742 743 741
f 744 739 743
f 741 739 738
f 740 744 742
f 737 740 738
f 740 742 741
f 742 744 743
f 744 737 739
f 741 743 739
f 740 737 744
f 745 746 747
f 748 749 746
f 750 751 749
f 752 747 751
f 749 747 746
f 748 752 750
f 745 748 746
f 748 750 749
f 750 752 751
f 752 745 747
f 749 751 747
f 748 745 752
f 753 754 755
f 756 757 754
f 758 759 757
f 760 755 759
f 757 755 754
f 756 760 758
f 753 756 754
f 756 758 757
f 758 760 759
f 760 753 755
f 757 759 755
f 756 753 760
f 761 762 763
f 764 765 762
f 766 767 765
f 768 763 767
f 765 763 762
f 764 768 766
f 761 764 762
f 764 766 765
f 766 768 767
f 768 761 763
f 765 767 763
f 764 761 768
f 769 770 771
f 772 773 770
f 774 775 773
f 776 771 775
f 773 771 770
f 772 776 774
f 769 772 770
f 772 774 773
f 774 776 775
f 776 769 771
f 773 775 771
f 772 769 776

