# https://github.com/mikedh/trimesh
mtllib material.mtl
usemtl red
v 0.67500001 -0.04500000 0.54000002
v 0.67500001 -0.04500000 0.39655286
v 0.63499999 -0.04500000 0.54000002
v 0.63499999 -0.04500000 0.39655286
v 0.63499999 0.04500000 0.50344718
v 0.63499999 0.04500000 0.36000001
v 0.67500001 0.04500000 0.50344718
v 0.67500001 0.04500000 0.36000001
v -0.67500001 0.04500000 0.31500000
v -0.67500001 0.04500000 0.17155285
v -0.63499999 0.04500000 0.31500000
v -0.63499999 0.04500000 0.17155285
v -0.63499999 -0.04500000 0.27844715
v -0.63499999 -0.04500000 0.13500001
v -0.67500001 -0.04500000 0.27844715
v -0.67500001 -0.04500000 0.13500001
v -0.67500001 -0.04500000 0.10000000
v -0.67500001 -0.04500000 0.00000000
v -0.67500001 -0.07500000 0.00000000
v -0.67500001 0.07500000 0.00000000
v -0.67500001 0.04500000 0.00000000
v -0.67500001 0.04500000 0.10000000
v -0.67500001 0.04500000 0.31500000
v -0.67500001 0.07500000 0.57499999
v -0.67500001 0.07500000 0.00000000
v -0.67500001 -0.03500000 0.55000001
v -0.67500001 -0.07500000 0.57499999
v -0.67500001 0.01855122 0.55000001
v -0.67500001 0.07500000 0.57499999
v -0.67500001 0.02544777 0.54310346
v -0.67500001 -0.07500000 0.00000000
v -0.67500001 -0.04500000 0.13500001
v -0.67500001 -0.04500000 0.10000000
v -0.67500001 -0.03500000 0.12500000
v -0.67500001 0.04500000 0.10000000
v -0.67500001 0.02098856 0.12500000
v -0.67500001 0.02444757 0.13411921
v -0.67500001 0.04500000 0.31500000
v -0.67500001 0.07500000 0.00000000
v -0.67500001 0.04500000 0.17155285
v -0.67500001 0.04500000 0.10000000
v -0.67500001 0.04189655 0.16844940
v -0.67500001 0.02444757 0.13411921
v -0.67500001 -0.02444757 0.31588078
v -0.67500001 -0.03500000 0.55000001
v -0.67500001 -0.04500000 0.54000002
v -0.67500001 -0.07500000 0.57499999
v -0.67500001 -0.04500000 0.39411551
v -0.67500001 -0.07500000 0.00000000
v -0.67500001 -0.04500000 0.27844715
v -0.67500001 -0.04500000 0.13500001
v -0.67500001 0.02444757 0.13411921
v -0.67500001 -0.04189655 0.28155059
v -0.67500001 -0.02444757 0.31588078
v -0.67500001 -0.02544777 0.35689655
v -0.67500001 -0.02098856 0.32499999
v -0.67500001 -0.01855122 0.34999999
v -0.67500001 0.03500000 0.32499999
v -0.67500001 0.03500000 0.34999999
v -0.67500001 0.04500000 0.31500000
v -0.67500001 0.04500000 0.36000001
v -0.67500001 0.07500000 0.57499999
v -0.67500001 0.04500000 0.50588447
v -0.67500001 0.02544777 0.54310346
v -0.67500001 0.04089635 0.50432795
v -0.67500001 -0.04089635 0.39567208
v -0.67500001 -0.02544777 0.35689655
v -0.67500001 -0.04500000 0.39411551
v -0.67500001 -0.04189655 0.28155059
v -0.67500001 -0.04500000 0.27844715
v -0.63499999 0.04500000 0.10000000
v -0.67500001 0.04500000 0.10000000
v -0.63499999 0.04500000 0.00000000
v -0.67500001 0.04500000 0.00000000
v -0.63499999 0.07500000 0.10000000
v -0.63499999 0.04500000 0.10000000
v -0.63499999 0.07500000 0.00000000
v -0.63499999 0.04500000 0.00000000
v 0.67500001 0.07500000 0.57499999
v 0.67500001 0.07500000 0.00000000
v 0.63499999 0.07500000 0.10000000
v 0.63499999 0.07500000 0.00000000
v -0.63499999 0.07500000 0.00000000
v -0.67500001 0.07500000 0.00000000
v -0.63499999 0.07500000 0.10000000
v -0.67500001 0.07500000 0.57499999
v -0.67500001 0.07500000 0.57499999
v -0.63499999 0.07500000 0.31500000
v -0.63499999 0.07500000 0.13500001
v -0.67500001 0.07500000 0.57499999
v -0.63499999 0.07500000 0.13500001
v -0.63499999 0.07500000 0.10000000
v -0.62500000 0.07500000 0.12500000
v 0.63499999 0.07500000 0.10000000
v 0.63499999 0.07500000 0.36000001
v 0.63499999 0.07500000 0.54000002
v 0.67500001 0.07500000 0.57499999
v 0.62500000 0.07500000 0.55000001
v -0.67500001 0.07500000 0.57499999
v -0.62500000 0.07500000 0.55000001
v -0.62500000 0.07500000 0.12500000
v 0.62500000 0.07500000 0.12500000
v 0.63499999 0.07500000 0.10000000
v 0.63499999 0.07500000 0.13500001
v 0.67500001 0.07500000 0.57499999
v 0.63499999 0.07500000 0.31500000
v 0.63499999 0.07500000 0.36000001
v 0.62500000 0.07500000 0.32499999
v 0.62500000 0.07500000 0.34999999
v -0.62500000 0.07500000 0.34999999
v -0.62500000 0.07500000 0.55000001
v -0.63499999 0.07500000 0.54000002
v -0.67500001 0.07500000 0.57499999
v -0.63499999 0.07500000 0.36000001
v -0.63499999 0.07500000 0.31500000
v -0.62500000 0.07500000 0.34999999
v -0.62500000 0.07500000 0.32499999
v 0.62500000 0.07500000 0.32499999
v -0.63499999 0.07500000 0.00000000
v -0.63499999 0.04500000 0.00000000
v -0.67500001 0.07500000 0.00000000
v -0.67500001 0.04500000 0.00000000
v -0.67500001 -0.07500000 0.57499999
v -0.67500001 -0.07500000 0.00000000
v -0.63499999 -0.07500000 0.10000000
v -0.63499999 -0.07500000 0.00000000
v 0.63499999 -0.07500000 0.00000000
v 0.67500001 -0.07500000 0.00000000
v 0.63499999 -0.07500000 0.10000000
v 0.67500001 -0.07500000 0.57499999
v 0.67500001 -0.07500000 0.57499999
v 0.63499999 -0.07500000 0.54000002
v 0.63499999 -0.07500000 0.36000001
v -0.62500000 -0.07500000 0.32499999
v 0.62500000 -0.07500000 0.32499999
v 0.62500000 -0.07500000 0.34999999
v 0.62500000 -0.07500000 0.34999999
v 0.62500000 -0.07500000 0.32499999
v 0.63499999 -0.07500000 0.36000001
v 0.63499999 -0.07500000 0.31500000
v 0.67500001 -0.07500000 0.57499999
v 0.63499999 -0.07500000 0.13500001
v 0.63499999 -0.07500000 0.10000000
v 0.62500000 -0.07500000 0.12500000
v -0.63499999 -0.07500000 0.10000000
v -0.63499999 -0.07500000 0.36000001
v -0.63499999 -0.07500000 0.54000002
v -0.67500001 -0.07500000 0.57499999
v -0.62500000 -0.07500000 0.55000001
v 0.67500001 -0.07500000 0.57499999
v 0.62500000 -0.07500000 0.55000001
v 0.63499999 -0.07500000 0.54000002
v 0.62500000 -0.07500000 0.34999999
v -0.62500000 -0.07500000 0.34999999
v -0.62500000 -0.07500000 0.32499999
v -0.63499999 -0.07500000 0.36000001
v -0.63499999 -0.07500000 0.31500000
v -0.67500001 -0.07500000 0.57499999
v -0.63499999 -0.07500000 0.13500001
v -0.63499999 -0.07500000 0.10000000
v -0.62500000 -0.07500000 0.12500000
v 0.62500000 -0.07500000 0.12500000
v 0.67500001 -0.07500000 0.57499999
v 0.67500001 -0.07500000 0.00000000
v 0.67500001 -0.04500000 0.10000000
v 0.67500001 -0.04500000 0.00000000
v 0.67500001 0.04500000 0.10000000
v 0.67500001 0.02544777 0.13189656
v 0.67500001 0.01855122 0.12500000
v 0.67500001 -0.02444757 0.35911921
v 0.67500001 0.04189655 0.50655061
v 0.67500001 0.02444757 0.54088080
v 0.67500001 0.02098856 0.55000001
v 0.67500001 0.04500000 0.10000000
v 0.67500001 0.01855122 0.12500000
v 0.67500001 -0.04500000 0.10000000
v 0.67500001 0.02444757 0.54088080
v 0.67500001 -0.04189655 0.39344940
v 0.67500001 -0.02444757 0.35911921
v 0.67500001 -0.02544777 0.31810346
v 0.67500001 -0.02098856 0.34999999
v 0.67500001 -0.01855122 0.32499999
v 0.67500001 0.03500000 0.34999999
v 0.67500001 0.03500000 0.32499999
v 0.67500001 0.04500000 0.36000001
v 0.67500001 0.04500000 0.31500000
v 0.67500001 0.04500000 0.16911551
v 0.67500001 0.07500000 0.00000000
v 0.67500001 0.04500000 0.31500000
v 0.67500001 0.07500000 0.57499999
v 0.67500001 0.04500000 0.36000001
v 0.67500001 0.04500000 0.50344718
v 0.67500001 0.01855122 0.12500000
v 0.67500001 -0.03500000 0.12500000
v 0.67500001 -0.04500000 0.10000000
v 0.67500001 -0.04500000 0.13500001
v 0.67500001 -0.07500000 0.57499999
v 0.67500001 -0.04500000 0.28088447
v 0.67500001 -0.04500000 0.39655286
v 0.67500001 0.04500000 0.00000000
v 0.67500001 0.07500000 0.00000000
v 0.67500001 0.04500000 0.10000000
v 0.67500001 0.04500000 0.16911551
v 0.67500001 0.02544777 0.13189656
v 0.67500001 0.04089635 0.17067207
v 0.67500001 -0.04089635 0.27932793
v 0.67500001 -0.02544777 0.31810346
v 0.67500001 -0.04500000 0.28088447
v 0.67500001 -0.04189655 0.39344940
v 0.67500001 -0.04500000 0.39655286
v 0.67500001 0.04189655 0.50655061
v 0.67500001 0.04500000 0.50344718
v 0.67500001 0.02098856 0.55000001
v 0.67500001 0.07500000 0.57499999
v 0.67500001 -0.03500000 0.55000001
v 0.67500001 -0.07500000 0.57499999
v 0.67500001 -0.04500000 0.54000002
v 0.67500001 -0.04500000 0.39655286
v -0.63499999 -0.04500000 0.10000000
v -0.63499999 -0.07500000 0.10000000
v -0.63499999 -0.04500000 0.00000000
v -0.63499999 -0.07500000 0.00000000
v -0.67500001 -0.04500000 0.10000000
v -0.63499999 -0.04500000 0.10000000
v -0.67500001 -0.04500000 0.00000000
v -0.63499999 -0.04500000 0.00000000
v -0.63499999 -0.04500000 0.00000000
v -0.63499999 -0.07500000 0.00000000
v -0.67500001 -0.04500000 0.00000000
v -0.67500001 -0.07500000 0.00000000
v 0.63499999 -0.04500000 0.10000000
v 0.67500001 -0.04500000 0.10000000
v 0.63499999 -0.04500000 0.00000000
v 0.67500001 -0.04500000 0.00000000
v 0.63499999 -0.07500000 0.10000000
v 0.63499999 -0.04500000 0.10000000
v 0.63499999 -0.07500000 0.00000000
v 0.63499999 -0.04500000 0.00000000
v 0.63499999 -0.04500000 0.00000000
v 0.67500001 -0.04500000 0.00000000
v 0.63499999 -0.07500000 0.00000000
v 0.67500001 -0.07500000 0.00000000
v 0.63499999 0.04500000 0.10000000
v 0.63499999 0.07500000 0.10000000
v 0.63499999 0.04500000 0.00000000
v 0.63499999 0.07500000 0.00000000
v 0.67500001 0.04500000 0.10000000
v 0.63499999 0.04500000 0.10000000
v 0.67500001 0.04500000 0.00000000
v 0.63499999 0.04500000 0.00000000
v 0.63499999 0.04500000 0.00000000
v 0.63499999 0.07500000 0.00000000
v 0.67500001 0.04500000 0.00000000
v 0.67500001 0.07500000 0.00000000
v -0.63499999 -0.07500000 0.31500000
v -0.63499999 -0.07500000 0.13500001
v -0.63499999 -0.04500000 0.13500001
v -0.63499999 -0.04500000 0.13500001
v -0.63499999 -0.04500000 0.27844715
v -0.63499999 -0.07500000 0.31500000
v -0.63499999 -0.04189655 0.28155059
v -0.63499999 -0.02405122 0.31500000
v -0.63499999 0.04189655 0.16844940
v -0.63499999 0.07500000 0.13500001
v -0.63499999 0.07500000 0.31500000
v -0.63499999 0.04500000 0.31500000
v -0.63499999 0.04500000 0.31500000
v -0.63499999 0.04500000 0.17155285
v -0.63499999 0.07500000 0.13500001
v -0.63499999 0.04189655 0.16844940
v -0.63499999 0.02405122 0.13500001
v -0.63499999 -0.04189655 0.28155059
v 0.63499999 -0.04500000 0.13500001
v 0.63499999 -0.04500000 0.28088447
v 0.67500001 -0.04500000 0.13500001
v 0.67500001 -0.04500000 0.28088447
v 0.63499999 0.04500000 0.31500000
v 0.63499999 0.07500000 0.31500000
v 0.63499999 0.04500000 0.16911551
v 0.63499999 0.07500000 0.13500001
v 0.63499999 0.04089635 0.17067207
v 0.63499999 0.02405122 0.13500001
v 0.63499999 -0.02405122 0.31500000
v 0.63499999 -0.04089635 0.27932793
v 0.63499999 -0.07500000 0.31500000
v 0.63499999 -0.04500000 0.28088447
v 0.63499999 -0.07500000 0.13500001
v 0.63499999 -0.04500000 0.13500001
v 0.63499999 0.04500000 0.31500000
v 0.63499999 0.04500000 0.16911551
v 0.67500001 0.04500000 0.31500000
v 0.67500001 0.04500000 0.16911551
v 0.67500001 0.04089635 0.17067207
v 0.63499999 0.04089635 0.17067207
v 0.67500001 -0.02544777 0.31810346
v 0.63499999 -0.02405122 0.31500000
v 0.63189656 -0.02544777 0.31810346
v 0.67500001 -0.04089635 0.27932793
v 0.63499999 -0.04089635 0.27932793
v 0.67500001 0.02544777 0.13189656
v 0.63499999 0.02405122 0.13500001
v 0.63189656 0.02544777 0.13189656
v -0.63499999 -0.04189655 0.28155059
v -0.67500001 -0.04189655 0.28155059
v -0.63499999 0.02405122 0.13500001
v -0.67500001 0.02444757 0.13411921
v -0.63411921 0.02444757 0.13411921
v -0.63499999 0.04189655 0.16844940
v -0.67500001 0.04189655 0.16844940
v -0.63499999 -0.02405122 0.31500000
v -0.67500001 -0.02444757 0.31588078
v -0.63411921 -0.02444757 0.31588078
v -0.67500001 0.04500000 0.50588447
v -0.67500001 0.04500000 0.36000001
v -0.63499999 0.04500000 0.50588447
v -0.63499999 0.04500000 0.36000001
v -0.67500001 -0.04500000 0.39411551
v -0.67500001 -0.04500000 0.54000002
v -0.63499999 -0.04500000 0.39411551
v -0.63499999 -0.04500000 0.54000002
v -0.63499999 0.04500000 0.36000001
v -0.63499999 0.07500000 0.36000001
v -0.63499999 0.04500000 0.50588447
v -0.63499999 0.07500000 0.54000002
v -0.63499999 0.04089635 0.50432795
v -0.63499999 0.02405122 0.54000002
v -0.63499999 -0.02405122 0.36000001
v -0.63499999 -0.04089635 0.39567208
v -0.63499999 -0.07500000 0.36000001
v -0.63499999 -0.04500000 0.39411551
v -0.63499999 -0.07500000 0.54000002
v -0.63499999 -0.04500000 0.54000002
v 0.63499999 -0.07500000 0.36000001
v 0.63499999 -0.07500000 0.54000002
v 0.63499999 -0.04500000 0.54000002
v 0.63499999 -0.04500000 0.54000002
v 0.63499999 -0.04500000 0.39655286
v 0.63499999 -0.07500000 0.36000001
v 0.63499999 -0.04189655 0.39344940
v 0.63499999 -0.02405122 0.36000001
v 0.63499999 0.04189655 0.50655061
v 0.63499999 0.07500000 0.54000002
v 0.63499999 0.07500000 0.36000001
v 0.63499999 0.04500000 0.36000001
v 0.63499999 0.04500000 0.36000001
v 0.63499999 0.04500000 0.50344718
v 0.63499999 0.07500000 0.54000002
v 0.63499999 0.04189655 0.50655061
v 0.63499999 0.02405122 0.54000002
v 0.63499999 -0.04189655 0.39344940
v 0.63499999 -0.04189655 0.39344940
v 0.67500001 -0.04189655 0.39344940
v 0.63499999 0.02405122 0.54000002
v 0.67500001 0.02444757 0.54088080
v 0.63411921 0.02444757 0.54088080
v 0.63499999 0.04189655 0.50655061
v 0.67500001 0.04189655 0.50655061
v 0.63499999 -0.02405122 0.36000001
v 0.67500001 -0.02444757 0.35911921
v 0.63411921 -0.02444757 0.35911921
v -0.67500001 0.04089635 0.50432795
v -0.63499999 0.04089635 0.50432795
v -0.67500001 -0.02544777 0.35689655
v -0.63499999 -0.02405122 0.36000001
v -0.63189656 -0.02544777 0.35689655
v -0.67500001 -0.04089635 0.39567208
v -0.63499999 -0.04089635 0.39567208
v -0.67500001 0.02544777 0.54310346
v -0.63499999 0.02405122 0.54000002
v -0.63189656 0.02544777 0.54310346
v -0.67500001 -0.04089635 0.39567208
v -0.67500001 -0.04500000 0.39411551
v -0.63499999 -0.04089635 0.39567208
v -0.63499999 -0.04500000 0.39411551
v -0.62500000 0.01855122 0.55000001
v -0.67500001 0.01855122 0.55000001
v -0.63189656 0.02544777 0.54310346
v -0.67500001 0.02544777 0.54310346
v -0.63499999 0.02405122 0.54000002
v -0.63499999 0.07500000 0.54000002
v -0.63189656 0.02544777 0.54310346
v -0.62500000 0.07500000 0.55000001
v -0.62500000 0.01855122 0.55000001
v -0.67500001 0.04089635 0.50432795
v -0.67500001 0.04500000 0.50588447
v -0.63499999 0.04089635 0.50432795
v -0.63499999 0.04500000 0.50588447
v -0.62500000 -0.03500000 0.55000001
v -0.63499999 -0.04500000 0.54000002
v -0.67500001 -0.03500000 0.55000001
v -0.67500001 -0.04500000 0.54000002
v -0.62500000 -0.07500000 0.55000001
v -0.63499999 -0.07500000 0.54000002
v -0.62500000 -0.03500000 0.55000001
v -0.63499999 -0.04500000 0.54000002
v -0.63499999 -0.02405122 0.36000001
v -0.63499999 -0.07500000 0.36000001
v -0.63189656 -0.02544777 0.35689655
v -0.62500000 -0.07500000 0.34999999
v -0.62500000 -0.01855122 0.34999999
v -0.67500001 -0.01855122 0.34999999
v -0.67500001 -0.02544777 0.35689655
v -0.62500000 -0.01855122 0.34999999
v -0.63189656 -0.02544777 0.35689655
v -0.63499999 0.04500000 0.36000001
v -0.62500000 0.03500000 0.34999999
v -0.63499999 0.07500000 0.36000001
v -0.62500000 0.07500000 0.34999999
v -0.62500000 0.03500000 0.34999999
v -0.63499999 0.04500000 0.36000001
v -0.67500001 0.03500000 0.34999999
v -0.67500001 0.04500000 0.36000001
v -0.67500001 -0.04500000 0.27844715
v -0.67500001 -0.04189655 0.28155059
v -0.63499999 -0.04500000 0.27844715
v -0.63499999 -0.04189655 0.28155059
v -0.63499999 0.04500000 0.31500000
v -0.62500000 0.03500000 0.32499999
v -0.67500001 0.04500000 0.31500000
v -0.67500001 0.03500000 0.32499999
v -0.63499999 0.07500000 0.31500000
v -0.62500000 0.07500000 0.32499999
v -0.63499999 0.04500000 0.31500000
v -0.62500000 0.03500000 0.32499999
v -0.67500001 0.04500000 0.17155285
v -0.67500001 0.04189655 0.16844940
v -0.63499999 0.04500000 0.17155285
v -0.63499999 0.04189655 0.16844940
v -0.62500000 0.02098856 0.12500000
v -0.62500000 0.07500000 0.12500000
v -0.63411921 0.02444757 0.13411921
v -0.63499999 0.07500000 0.13500001
v -0.63499999 0.02405122 0.13500001
v -0.67500001 0.02444757 0.13411921
v -0.67500001 0.02098856 0.12500000
v -0.63411921 0.02444757 0.13411921
v -0.62500000 0.02098856 0.12500000
v -0.62500000 -0.02098856 0.32499999
v -0.63411921 -0.02444757 0.31588078
v -0.67500001 -0.02098856 0.32499999
v -0.67500001 -0.02444757 0.31588078
v -0.62500000 -0.02098856 0.32499999
v -0.62500000 -0.07500000 0.32499999
v -0.63411921 -0.02444757 0.31588078
v -0.63499999 -0.07500000 0.31500000
v -0.63499999 -0.02405122 0.31500000
v -0.63499999 -0.04500000 0.13500001
v -0.62500000 -0.03500000 0.12500000
v -0.67500001 -0.04500000 0.13500001
v -0.67500001 -0.03500000 0.12500000
v -0.63499999 -0.07500000 0.13500001
v -0.62500000 -0.07500000 0.12500000
v -0.63499999 -0.04500000 0.13500001
v -0.62500000 -0.03500000 0.12500000
v 0.62500000 0.01855122 0.12500000
v 0.67500001 0.01855122 0.12500000
v 0.63189656 0.02544777 0.13189656
v 0.67500001 0.02544777 0.13189656
v 0.63499999 0.02405122 0.13500001
v 0.63499999 0.07500000 0.13500001
v 0.63189656 0.02544777 0.13189656
v 0.62500000 0.07500000 0.12500000
v 0.62500000 0.01855122 0.12500000
v 0.63499999 -0.04500000 0.13500001
v 0.62500000 -0.03500000 0.12500000
v 0.63499999 -0.07500000 0.13500001
v 0.62500000 -0.07500000 0.12500000
v 0.67500001 -0.04500000 0.13500001
v 0.67500001 -0.03500000 0.12500000
v 0.63499999 -0.04500000 0.13500001
v 0.62500000 -0.03500000 0.12500000
v 0.62500000 -0.01855122 0.32499999
v 0.67500001 -0.01855122 0.32499999
v 0.63189656 -0.02544777 0.31810346
v 0.67500001 -0.02544777 0.31810346
v 0.63499999 -0.02405122 0.31500000
v 0.63499999 -0.07500000 0.31500000
v 0.63189656 -0.02544777 0.31810346
v 0.62500000 -0.07500000 0.32499999
v 0.62500000 -0.01855122 0.32499999
v 0.63499999 0.04500000 0.31500000
v 0.62500000 0.03500000 0.32499999
v 0.63499999 0.07500000 0.31500000
v 0.62500000 0.07500000 0.32499999
v 0.67500001 0.04500000 0.31500000
v 0.67500001 0.03500000 0.32499999
v 0.63499999 0.04500000 0.31500000
v 0.62500000 0.03500000 0.32499999
v 0.62500000 0.02098856 0.55000001
v 0.63411921 0.02444757 0.54088080
v 0.67500001 0.02098856 0.55000001
v 0.67500001 0.02444757 0.54088080
v 0.62500000 0.02098856 0.55000001
v 0.62500000 0.07500000 0.55000001
v 0.63411921 0.02444757 0.54088080
v 0.63411921 0.02444757 0.54088080
v 0.63499999 0.07500000 0.54000002
v 0.63499999 0.07500000 0.54000002
v 0.63499999 0.02405122 0.54000002
v 0.62500000 -0.03500000 0.55000001
v 0.63499999 -0.04500000 0.54000002
v 0.62500000 -0.07500000 0.55000001
v 0.63499999 -0.07500000 0.54000002
v 0.67500001 -0.03500000 0.55000001
v 0.67500001 -0.04500000 0.54000002
v 0.62500000 -0.03500000 0.55000001
v 0.63499999 -0.04500000 0.54000002
v 0.67500001 0.04089635 0.17067207
v 0.67500001 0.04500000 0.16911551
v 0.63499999 0.04089635 0.17067207
v 0.63499999 0.04500000 0.16911551
v 0.67500001 -0.04089635 0.27932793
v 0.67500001 -0.04500000 0.28088447
v 0.63499999 -0.04089635 0.27932793
v 0.63499999 -0.04500000 0.28088447
v 0.67500001 -0.04500000 0.39655286
v 0.67500001 -0.04189655 0.39344940
v 0.63499999 -0.04500000 0.39655286
v 0.63499999 -0.04189655 0.39344940
v 0.62500000 -0.02098856 0.34999999
v 0.63411921 -0.02444757 0.35911921
v 0.67500001 -0.02098856 0.34999999
v 0.67500001 -0.02444757 0.35911921
v 0.62500000 -0.02098856 0.34999999
v 0.62500000 -0.07500000 0.34999999
v 0.63411921 -0.02444757 0.35911921
v 0.63499999 -0.07500000 0.36000001
v 0.63499999 -0.02405122 0.36000001
v 0.67500001 0.04500000 0.50344718
v 0.67500001 0.04189655 0.50655061
v 0.63499999 0.04500000 0.50344718
v 0.63499999 0.04189655 0.50655061
v 0.63499999 0.04500000 0.36000001
v 0.62500000 0.03500000 0.34999999
v 0.67500001 0.04500000 0.36000001
v 0.67500001 0.03500000 0.34999999
v 0.62500000 0.03500000 0.34999999
v 0.63499999 0.04500000 0.36000001
v 0.62500000 0.07500000 0.34999999
v 0.63499999 0.07500000 0.36000001
f 1 2 3
f 3 2 4
f 5 6 7
f 7 6 8
f 9 10 11
f 11 10 12
f 13 14 15
f 15 14 16
f 17 18 19
f 20 21 22
f 23 24 25
f 26 27 28
f 28 27 29
f 28 29 30
f 31 32 33
f 33 32 34
f 33 34 35
f 35 34 36
f 35 36 37
f 38 39 40
f 40 39 41
f 40 41 42
f 42 41 43
f 42 43 44
f 45 46 47
f 47 46 48
f 47 48 49
f 49 48 50
f 49 50 51
f 52 53 54
f 54 53 55
f 54 55 56
f 56 55 57
f 56 57 58
f 58 57 59
f 58 59 60
f 60 59 61
f 60 61 62
f 62 61 63
f 62 63 64
f 64 63 65
f 64 65 66
f 66 65 67
f 66 67 68
f 68 67 69
f 68 69 70
f 71 72 73
f 73 72 74
f 75 76 77
f 77 76 78
f 79 80 81
f 81 80 82
f 83 84 85
f 85 84 86
f 87 88 89
f 90 91 92
f 92 91 93
f 92 93 94
f 95 96 97
f 97 96 98
f 97 98 99
f 99 98 100
f 101 102 103
f 103 102 104
f 103 104 105
f 105 104 106
f 105 106 107
f 107 106 108
f 107 108 109
f 109 108 110
f 111 112 113
f 113 112 114
f 113 114 115
f 115 114 116
f 115 116 117
f 117 116 118
f 119 120 121
f 121 120 122
f 123 124 125
f 125 124 126
f 127 128 129
f 129 128 130
f 131 132 133
f 134 135 136
f 137 138 139
f 139 138 140
f 139 140 141
f 141 140 142
f 141 142 143
f 143 142 144
f 143 144 145
f 146 147 148
f 148 147 149
f 148 149 150
f 150 149 151
f 150 151 152
f 153 154 155
f 155 154 156
f 155 156 157
f 157 156 158
f 157 158 159
f 159 158 160
f 159 160 161
f 161 160 162
f 163 164 165
f 165 164 166
f 167 168 169
f 170 171 172
f 172 171 173
f 174 175 176
f 177 178 179
f 179 178 180
f 179 180 181
f 181 180 182
f 181 182 183
f 183 182 184
f 183 184 185
f 185 184 186
f 187 188 189
f 189 188 190
f 189 190 191
f 191 190 192
f 193 194 195
f 195 194 196
f 195 196 197
f 197 196 198
f 197 198 199
f 200 201 202
f 202 201 203
f 202 203 204
f 204 203 205
f 204 205 206
f 206 205 207
f 206 207 208
f 208 207 209
f 208 209 210
f 211 212 213
f 213 212 214
f 213 214 215
f 215 214 216
f 215 216 217
f 217 216 218
f 219 220 221
f 221 220 222
f 223 224 225
f 225 224 226
f 227 228 229
f 229 228 230
f 231 232 233
f 233 232 234
f 235 236 237
f 237 236 238
f 239 240 241
f 241 240 242
f 243 244 245
f 245 244 246
f 247 248 249
f 249 248 250
f 251 252 253
f 253 252 254
f 255 256 257
f 258 259 260
f 260 259 261
f 260 261 262
f 262 261 263
f 264 265 266
f 267 268 269
f 269 268 270
f 269 270 271
f 271 270 272
f 273 274 275
f 275 274 276
f 277 278 279
f 279 278 280
f 279 280 281
f 281 280 282
f 281 282 283
f 283 282 284
f 283 284 285
f 285 284 286
f 285 286 287
f 287 286 288
f 289 290 291
f 291 290 292
f 293 294 295
f 295 294 296
f 295 296 297
f 298 299 300
f 300 299 301
f 300 301 302
f 303 304 305
f 305 304 306
f 305 306 307
f 308 309 310
f 310 309 311
f 310 311 312
f 313 314 315
f 315 314 316
f 317 318 319
f 319 318 320
f 321 322 323
f 323 322 324
f 323 324 325
f 325 324 326
f 325 326 327
f 327 326 328
f 327 328 329
f 329 328 330
f 329 330 331
f 331 330 332
f 333 334 335
f 336 337 338
f 338 337 339
f 338 339 340
f 340 339 341
f 342 343 344
f 345 346 347
f 347 346 348
f 347 348 349
f 349 348 350
f 351 352 353
f 353 352 354
f 353 354 355
f 356 357 358
f 358 357 359
f 358 359 360
f 361 362 363
f 363 362 364
f 363 364 365
f 366 367 368
f 368 367 369
f 368 369 370
f 371 372 373
f 373 372 374
f 375 376 377
f 377 376 378
f 379 380 381
f 381 380 382
f 381 382 383
f 384 385 386
f 386 385 387
f 388 389 390
f 390 389 391
f 392 393 394
f 394 393 395
f 396 397 398
f 398 397 399
f 398 399 400
f 401 402 403
f 403 402 404
f 405 406 407
f 407 406 408
f 409 410 411
f 411 410 412
f 413 414 415
f 415 414 416
f 417 418 419
f 419 418 420
f 421 422 423
f 423 422 424
f 425 426 427
f 427 426 428
f 429 430 431
f 431 430 432
f 431 432 433
f 434 435 436
f 436 435 437
f 438 439 440
f 440 439 441
f 442 443 444
f 444 443 445
f 444 445 446
f 447 448 449
f 449 448 450
f 451 452 453
f 453 452 454
f 455 456 457
f 457 456 458
f 459 460 461
f 461 460 462
f 461 462 463
f 464 465 466
f 466 465 467
f 468 469 470
f 470 469 471
f 472 473 474
f 474 473 475
f 476 477 478
f 478 477 479
f 478 479 480
f 481 482 483
f 483 482 484
f 485 486 487
f 487 486 488
f 489 490 491
f 491 490 492
f 493 494 496
f 496 494 498
f 495 497 499
f 500 501 502
f 502 501 503
f 504 505 506
f 506 505 507
f 508 509 510
f 510 509 511
f 512 513 514
f 514 513 515
f 516 517 518
f 518 517 519
f 520 521 522
f 522 521 523
f 524 525 526
f 526 525 527
f 526 527 528
f 529 530 531
f 531 530 532
f 533 534 535
f 535 534 536
f 537 538 539
f 539 538 540

