# https://github.com/mikedh/trimesh
mtllib material.mtl
usemtl defaultplastic.001
v 0.00500000 -0.05750000 -0.04000000
v 0.00500000 0.05750000 -0.04000000
v 0.00500000 -0.05750000 0.04000000
v 0.00500000 0.05750000 0.04000000
v -0.00500000 -0.05750000 0.04000000
v -0.00500000 0.05750000 0.04000000
v -0.00500000 -0.05750000 -0.04000000
v -0.00500000 0.05750000 -0.04000000
v 0.00500000 -0.05750000 0.04000000
v 0.00500000 0.05750000 0.04000000
v -0.00500000 -0.05750000 0.04000000
v -0.00500000 0.05750000 0.04000000
v -0.00500000 -0.05750000 -0.04000000
v -0.00500000 0.05750000 -0.04000000
v 0.00500000 -0.05750000 -0.04000000
v 0.00500000 0.05750000 -0.04000000
v 0.00000000 -0.06250000 0.03500000
v 0.00107319 -0.06238347 0.03607319
v -0.00129410 -0.06232963 0.03629410
v -0.00129410 -0.06232963 0.03629410
v 0.00107319 -0.06238347 0.03607319
v -0.00213240 -0.06202249 0.03713239
v 0.00309635 -0.06142589 0.03809635
v -0.00308640 -0.06143372 0.03808640
v -0.00250000 -0.06183013 0.03750000
v 0.00107319 -0.06238347 0.03607319
v 0.00129114 -0.06233042 0.03629114
v -0.00213240 -0.06202249 0.03713239
v 0.00213904 -0.06201935 0.03713904
v -0.00250000 -0.06183013 0.03750000
v 0.00249355 -0.06183385 0.03749355
v 0.00309635 -0.06142589 0.03809635
v -0.00308640 -0.06143372 0.03808640
v 0.00309635 -0.06142589 0.03809635
v -0.00353553 -0.06103553 0.03853554
v 0.00352804 -0.06104301 0.03852804
v -0.00389653 -0.06063321 0.03889653
v 0.00352804 -0.06104301 0.03852804
v 0.00389653 -0.06063321 0.03889653
v -0.00389653 -0.06063321 0.03889653
v 0.00432514 -0.06000861 0.03932514
v -0.00432514 -0.06000861 0.03932514
v 0.00449899 -0.05968154 0.03949898
v -0.00449899 -0.05968154 0.03949898
v -0.00449899 -0.05968154 0.03949898
v 0.00449899 -0.05968154 0.03949898
v -0.00482963 -0.05879410 0.03982963
v 0.00482963 -0.05879410 0.03982963
v -0.00487314 -0.05861917 0.03987314
v 0.00482963 -0.05879410 0.03982963
v 0.00487274 -0.05862090 0.03987274
v -0.00487314 -0.05861917 0.03987314
v 0.00496818 -0.05806317 0.03996818
v -0.00496818 -0.05806317 0.03996818
v 0.00500000 -0.05750000 0.04000000
v -0.00500000 -0.05750000 0.04000000
v 0.00249355 -0.06183385 -0.03749355
v 0.00249355 -0.06183385 0.03749355
v 0.00213904 -0.06201935 0.03713904
v 0.00000000 -0.06250000 0.03500000
v 0.00000000 -0.06250000 -0.03500000
v 0.00107319 -0.06238347 0.03607319
v 0.00107319 -0.06238347 -0.03607319
v 0.00129114 -0.06233042 0.03629114
v 0.00129114 -0.06233042 -0.03629114
v 0.00213904 -0.06201935 0.03713904
v 0.00213904 -0.06201935 -0.03713904
v 0.00249355 -0.06183385 -0.03749355
v 0.00352804 -0.06104301 -0.03852804
v 0.00352804 -0.06104301 0.03852804
v 0.00309635 -0.06142589 0.03809635
v 0.00249355 -0.06183385 0.03749355
v 0.00249355 -0.06183385 -0.03749355
v 0.00309635 -0.06142589 0.03809635
v 0.00309635 -0.06142589 -0.03809635
v 0.00352804 -0.06104301 -0.03852804
v 0.00352804 -0.06104301 0.03852804
v 0.00352804 -0.06104301 -0.03852804
v 0.00389653 -0.06063321 0.03889653
v 0.00389653 -0.06063321 -0.03889653
v 0.00432514 -0.06000861 0.03932514
v 0.00432514 -0.06000861 -0.03932514
v 0.00449899 -0.05968154 0.03949898
v 0.00449899 -0.05968154 -0.03949898
v 0.00482963 -0.05879410 0.03982963
v 0.00482963 -0.05879410 -0.03982963
v 0.00487274 -0.05862090 0.03987274
v 0.00487274 -0.05862090 -0.03987274
v 0.00496818 -0.05806317 0.03996818
v 0.00496818 -0.05806317 0.03996818
v 0.00487274 -0.05862090 -0.03987274
v 0.00500000 -0.05750000 0.04000000
v 0.00496818 -0.05806317 -0.03996818
v 0.00500000 -0.05750000 -0.04000000
v -0.00107319 -0.06238347 -0.03607319
v 0.00107319 -0.06238347 -0.03607319
v 0.00000000 -0.06250000 -0.03500000
v -0.00249355 -0.06183385 -0.03749355
v -0.00309635 -0.06142589 -0.03809635
v 0.00249355 -0.06183385 -0.03749355
v -0.00352804 -0.06104301 -0.03852804
v -0.00389653 -0.06063321 -0.03889653
v 0.00352804 -0.06104301 -0.03852804
v -0.00500000 -0.05750000 -0.04000000
v 0.00500000 -0.05750000 -0.04000000
v 0.00496818 -0.05806317 -0.03996818
v -0.00500000 -0.05750000 -0.04000000
v 0.00496818 -0.05806317 -0.03996818
v -0.00496818 -0.05806317 -0.03996818
v 0.00487274 -0.05862090 -0.03987274
v -0.00487274 -0.05862090 -0.03987274
v -0.00487274 -0.05862090 -0.03987274
v 0.00487274 -0.05862090 -0.03987274
v -0.00482963 -0.05879410 -0.03982963
v 0.00482963 -0.05879410 -0.03982963
v -0.00449899 -0.05968154 -0.03949898
v 0.00449899 -0.05968154 -0.03949898
v -0.00432514 -0.06000861 -0.03932514
v 0.00432514 -0.06000861 -0.03932514
v -0.00389653 -0.06063321 -0.03889653
v 0.00389653 -0.06063321 -0.03889653
v 0.00352804 -0.06104301 -0.03852804
v -0.00352804 -0.06104301 -0.03852804
v 0.00352804 -0.06104301 -0.03852804
v -0.00309635 -0.06142589 -0.03809635
v 0.00309635 -0.06142589 -0.03809635
v 0.00249355 -0.06183385 -0.03749355
v -0.00249355 -0.06183385 -0.03749355
v 0.00249355 -0.06183385 -0.03749355
v -0.00213904 -0.06201935 -0.03713904
v 0.00213904 -0.06201935 -0.03713904
v 0.00129114 -0.06233042 -0.03629114
v 0.00107319 -0.06238347 -0.03607319
v -0.00107319 -0.06238347 -0.03607319
v 0.00129114 -0.06233042 -0.03629114
v -0.00129114 -0.06233042 -0.03629114
v -0.00213904 -0.06201935 -0.03713904
v 0.00000000 -0.06250000 -0.03500000
v 0.00000000 -0.06250000 0.03500000
v -0.00107319 -0.06238347 -0.03607319
v -0.00129410 -0.06232963 0.03629410
v -0.00129114 -0.06233042 -0.03629114
v -0.00250000 -0.06183013 0.03750000
v -0.00249355 -0.06183385 -0.03749355
v -0.00213904 -0.06201935 -0.03713904
v -0.00129114 -0.06233042 -0.03629114
v -0.00129410 -0.06232963 0.03629410
v -0.00213904 -0.06201935 -0.03713904
v -0.00213240 -0.06202249 0.03713239
v -0.00250000 -0.06183013 0.03750000
v -0.00353553 -0.06103553 0.03853554
v -0.00352804 -0.06104301 -0.03852804
v -0.00309635 -0.06142589 -0.03809635
v -0.00249355 -0.06183385 -0.03749355
v -0.00250000 -0.06183013 0.03750000
v -0.00309635 -0.06142589 -0.03809635
v -0.00308640 -0.06143372 0.03808640
v -0.00353553 -0.06103553 0.03853554
v -0.00352804 -0.06104301 -0.03852804
v -0.00353553 -0.06103553 0.03853554
v -0.00389653 -0.06063321 -0.03889653
v -0.00389653 -0.06063321 0.03889653
v -0.00432514 -0.06000861 -0.03932514
v -0.00482963 -0.05879410 0.03982963
v -0.00449899 -0.05968154 -0.03949898
v -0.00449899 -0.05968154 0.03949898
v -0.00432514 -0.06000861 -0.03932514
v -0.00432514 -0.06000861 0.03932514
v -0.00389653 -0.06063321 0.03889653
v -0.00487314 -0.05861917 0.03987314
v -0.00487274 -0.05862090 -0.03987274
v -0.00482963 -0.05879410 0.03982963
v -0.00482963 -0.05879410 -0.03982963
v -0.00449899 -0.05968154 -0.03949898
v -0.00500000 -0.05750000 -0.04000000
v -0.00496818 -0.05806317 -0.03996818
v -0.00500000 -0.05750000 0.04000000
v -0.00487274 -0.05862090 -0.03987274
v -0.00496818 -0.05806317 0.03996818
v -0.00487314 -0.05861917 0.03987314
v 0.00000000 0.06250000 0.03500000
v -0.00107319 0.06238347 0.03607319
v 0.00129410 0.06232963 0.03629410
v 0.00129410 0.06232963 0.03629410
v -0.00107319 0.06238347 0.03607319
v 0.00213240 0.06202249 0.03713239
v -0.00309635 0.06142589 0.03809635
v 0.00308640 0.06143372 0.03808640
v 0.00250000 0.06183013 0.03750000
v -0.00107319 0.06238347 0.03607319
v -0.00129114 0.06233042 0.03629114
v 0.00213240 0.06202249 0.03713239
v -0.00213904 0.06201935 0.03713904
v 0.00250000 0.06183013 0.03750000
v -0.00249355 0.06183385 0.03749355
v -0.00309635 0.06142589 0.03809635
v 0.00308640 0.06143372 0.03808640
v -0.00309635 0.06142589 0.03809635
v 0.00353553 0.06103553 0.03853554
v -0.00352804 0.06104301 0.03852804
v 0.00389653 0.06063321 0.03889653
v -0.00352804 0.06104301 0.03852804
v -0.00389653 0.06063321 0.03889653
v 0.00389653 0.06063321 0.03889653
v -0.00432514 0.06000861 0.03932514
v 0.00432514 0.06000861 0.03932514
v -0.00449899 0.05968154 0.03949898
v 0.00449899 0.05968154 0.03949898
v 0.00449899 0.05968154 0.03949898
v -0.00449899 0.05968154 0.03949898
v 0.00482963 0.05879410 0.03982963
v -0.00482963 0.05879410 0.03982963
v 0.00487314 0.05861917 0.03987314
v -0.00482963 0.05879410 0.03982963
v -0.00487274 0.05862090 0.03987274
v 0.00487314 0.05861917 0.03987314
v -0.00496818 0.05806317 0.03996818
v 0.00496818 0.05806317 0.03996818
v -0.00500000 0.05750000 0.04000000
v 0.00500000 0.05750000 0.04000000
v -0.00249355 0.06183385 -0.03749355
v -0.00249355 0.06183385 0.03749355
v -0.00213904 0.06201935 0.03713904
v 0.00000000 0.06250000 0.03500000
v 0.00000000 0.06250000 -0.03500000
v -0.00107319 0.06238347 0.03607319
v -0.00107319 0.06238347 -0.03607319
v -0.00129114 0.06233042 0.03629114
v -0.00129114 0.06233042 -0.03629114
v -0.00213904 0.06201935 0.03713904
v -0.00213904 0.06201935 -0.03713904
v -0.00249355 0.06183385 -0.03749355
v -0.00352804 0.06104301 -0.03852804
v -0.00352804 0.06104301 0.03852804
v -0.00309635 0.06142589 0.03809635
v -0.00249355 0.06183385 0.03749355
v -0.00249355 0.06183385 -0.03749355
v -0.00309635 0.06142589 0.03809635
v -0.00309635 0.06142589 -0.03809635
v -0.00352804 0.06104301 -0.03852804
v -0.00352804 0.06104301 0.03852804
v -0.00352804 0.06104301 -0.03852804
v -0.00389653 0.06063321 0.03889653
v -0.00389653 0.06063321 -0.03889653
v -0.00432514 0.06000861 0.03932514
v -0.00432514 0.06000861 -0.03932514
v -0.00449899 0.05968154 0.03949898
v -0.00449899 0.05968154 -0.03949898
v -0.00482963 0.05879410 0.03982963
v -0.00482963 0.05879410 -0.03982963
v -0.00487274 0.05862090 0.03987274
v -0.00487274 0.05862090 -0.03987274
v -0.00496818 0.05806317 0.03996818
v -0.00496818 0.05806317 0.03996818
v -0.00487274 0.05862090 -0.03987274
v -0.00500000 0.05750000 0.04000000
v -0.00496818 0.05806317 -0.03996818
v -0.00500000 0.05750000 -0.04000000
v 0.00107319 0.06238347 -0.03607319
v -0.00107319 0.06238347 -0.03607319
v 0.00000000 0.06250000 -0.03500000
v 0.00249355 0.06183385 -0.03749355
v 0.00309635 0.06142589 -0.03809635
v -0.00249355 0.06183385 -0.03749355
v 0.00500000 0.05750000 -0.04000000
v -0.00500000 0.05750000 -0.04000000
v 0.00496818 0.05806317 -0.03996818
v -0.00496818 0.05806317 -0.03996818
v 0.00487274 0.05862090 -0.03987274
v -0.00487274 0.05862090 -0.03987274
v 0.00482963 0.05879410 -0.03982963
v -0.00482963 0.05879410 -0.03982963
v 0.00449899 0.05968154 -0.03949898
v -0.00449899 0.05968154 -0.03949898
v 0.00432514 0.06000861 -0.03932514
v -0.00432514 0.06000861 -0.03932514
v 0.00389653 0.06063321 -0.03889653
v -0.00389653 0.06063321 -0.03889653
v 0.00352804 0.06104301 -0.03852804
v -0.00352804 0.06104301 -0.03852804
v 0.00309635 0.06142589 -0.03809635
v -0.00309635 0.06142589 -0.03809635
v -0.00249355 0.06183385 -0.03749355
v 0.00249355 0.06183385 -0.03749355
v -0.00249355 0.06183385 -0.03749355
v 0.00213904 0.06201935 -0.03713904
v -0.00213904 0.06201935 -0.03713904
v -0.00129114 0.06233042 -0.03629114
v -0.00107319 0.06238347 -0.03607319
v 0.00107319 0.06238347 -0.03607319
v -0.00129114 0.06233042 -0.03629114
v 0.00129114 0.06233042 -0.03629114
v 0.00213904 0.06201935 -0.03713904
v 0.00000000 0.06250000 -0.03500000
v 0.00000000 0.06250000 0.03500000
v 0.00107319 0.06238347 -0.03607319
v 0.00129410 0.06232963 0.03629410
v 0.00129114 0.06233042 -0.03629114
v 0.00250000 0.06183013 0.03750000
v 0.00249355 0.06183385 -0.03749355
v 0.00213904 0.06201935 -0.03713904
v 0.00129114 0.06233042 -0.03629114
v 0.00129410 0.06232963 0.03629410
v 0.00213904 0.06201935 -0.03713904
v 0.00213240 0.06202249 0.03713239
v 0.00250000 0.06183013 0.03750000
v 0.00353553 0.06103553 0.03853554
v 0.00352804 0.06104301 -0.03852804
v 0.00309635 0.06142589 -0.03809635
v 0.00249355 0.06183385 -0.03749355
v 0.00250000 0.06183013 0.03750000
v 0.00309635 0.06142589 -0.03809635
v 0.00308640 0.06143372 0.03808640
v 0.00353553 0.06103553 0.03853554
v 0.00352804 0.06104301 -0.03852804
v 0.00353553 0.06103553 0.03853554
v 0.00389653 0.06063321 -0.03889653
v 0.00389653 0.06063321 0.03889653
v 0.00432514 0.06000861 -0.03932514
v 0.00482963 0.05879410 0.03982963
v 0.00449899 0.05968154 -0.03949898
v 0.00449899 0.05968154 0.03949898
v 0.00432514 0.06000861 -0.03932514
v 0.00432514 0.06000861 0.03932514
v 0.00389653 0.06063321 0.03889653
v 0.00487314 0.05861917 0.03987314
v 0.00487274 0.05862090 -0.03987274
v 0.00482963 0.05879410 0.03982963
v 0.00482963 0.05879410 -0.03982963
v 0.00449899 0.05968154 -0.03949898
v 0.00500000 0.05750000 -0.04000000
v 0.00496818 0.05806317 -0.03996818
v 0.00500000 0.05750000 0.04000000
v 0.00487274 0.05862090 -0.03987274
v 0.00496818 0.05806317 0.03996818
v 0.00487314 0.05861917 0.03987314
f 1 2 3
f 3 2 4
f 5 6 7
f 7 6 8
f 9 10 11
f 11 10 12
f 13 14 15
f 15 14 16
f 17 18 19
f 20 21 22
f 23 24 25
f 26 27 28
f 28 27 29
f 28 29 30
f 30 29 31
f 30 31 32
f 33 34 35
f 35 34 36
f 35 36 37
f 38 39 40
f 40 39 41
f 40 41 42
f 42 41 43
f 42 43 44
f 45 46 47
f 47 46 48
f 47 48 49
f 50 51 52
f 52 51 53
f 52 53 54
f 54 53 55
f 54 55 56
f 57 58 59
f 60 61 62
f 62 61 63
f 62 63 64
f 64 63 65
f 64 65 66
f 66 65 67
f 66 67 68
f 69 70 71
f 72 73 74
f 74 73 75
f 74 75 76
f 77 78 79
f 79 78 80
f 79 80 81
f 81 80 82
f 81 82 83
f 83 82 84
f 83 84 85
f 85 84 86
f 85 86 87
f 87 86 88
f 87 88 89
f 90 91 92
f 92 91 93
f 92 93 94
f 95 96 97
f 98 99 100
f 101 102 103
f 104 105 106
f 107 108 109
f 109 108 110
f 109 110 111
f 112 113 114
f 114 113 115
f 114 115 116
f 116 115 117
f 116 117 118
f 118 117 119
f 118 119 120
f 120 119 121
f 120 121 122
f 123 124 125
f 125 124 126
f 125 126 127
f 128 129 130
f 130 129 131
f 130 131 132
f 133 134 135
f 135 134 136
f 135 136 137
f 138 139 140
f 140 139 141
f 140 141 142
f 143 144 145
f 146 147 148
f 148 147 149
f 148 149 150
f 151 152 153
f 154 155 156
f 156 155 157
f 156 157 158
f 159 160 161
f 161 160 162
f 161 162 163
f 164 165 166
f 166 165 167
f 166 167 168
f 168 167 169
f 170 171 172
f 172 171 173
f 172 173 174
f 175 176 177
f 177 176 178
f 177 178 179
f 179 178 180
f 181 182 183
f 184 185 186
f 187 188 189
f 190 191 192
f 192 191 193
f 192 193 194
f 194 193 195
f 194 195 196
f 197 198 199
f 199 198 200
f 199 200 201
f 202 203 204
f 204 203 205
f 204 205 206
f 206 205 207
f 206 207 208
f 209 210 211
f 211 210 212
f 211 212 213
f 214 215 216
f 216 215 217
f 216 217 218
f 218 217 219
f 218 219 220
f 221 222 223
f 224 225 226
f 226 225 227
f 226 227 228
f 228 227 229
f 228 229 230
f 230 229 231
f 230 231 232
f 233 234 235
f 236 237 238
f 238 237 239
f 238 239 240
f 241 242 243
f 243 242 244
f 243 244 245
f 245 244 246
f 245 246 247
f 247 246 248
f 247 248 249
f 249 248 250
f 249 250 251
f 251 250 252
f 251 252 253
f 254 255 256
f 256 255 257
f 256 257 258
f 259 260 261
f 262 263 264
f 265 266 267
f 267 266 268
f 267 268 269
f 269 268 270
f 269 270 271
f 271 270 272
f 271 272 273
f 273 272 274
f 273 274 275
f 275 274 276
f 275 276 277
f 277 276 278
f 277 278 279
f 279 278 280
f 279 280 281
f 281 280 282
f 281 282 283
f 284 285 286
f 286 285 287
f 286 287 288
f 289 290 291
f 291 290 292
f 291 292 293
f 294 295 296
f 296 295 297
f 296 297 298
f 299 300 301
f 302 303 304
f 304 303 305
f 304 305 306
f 307 308 309
f 310 311 312
f 312 311 313
f 312 313 314
f 315 316 317
f 317 316 318
f 317 318 319
f 320 321 322
f 322 321 323
f 322 323 324
f 324 323 325
f 326 327 328
f 328 327 329
f 328 329 330
f 331 332 333
f 333 332 334
f 333 334 335
f 335 334 336

