# https://github.com/mikedh/trimesh
mtllib material.mtl
usemtl Material.002
v 0.10937242 0.10937447 0.37371578
v 0.11537643 -0.09414997 0.37371585
v 0.10937246 -0.09414997 0.37371585
v 0.11537639 0.10937447 0.37371578
v 0.12463675 0.10937447 0.37371578
v 0.12300856 0.10937447 0.37722658
v 0.12463675 0.10937447 0.37971975
v 0.12112596 0.10937447 0.37534398
v 0.11863278 0.10937447 0.37371578
v 0.12220142 0.10937447 0.37722658
v 0.11863278 0.10937447 0.37534398
v 0.10937242 0.10937447 0.37371578
v 0.11537639 0.10937447 0.37534398
v 0.11537639 0.10937447 0.37371578
v 0.11288322 0.10937447 0.37534398
v 0.11288322 0.10937447 0.37615111
v 0.11173191 0.10937447 0.37722658
v 0.11100062 0.10937447 0.37722658
v 0.11100062 0.10937447 0.37971975
v 0.10937242 0.10937447 0.37971975
v 0.11970637 0.10937447 0.38297614
v 0.12112596 0.10937447 0.38654478
v 0.12227726 0.10937447 0.38546932
v 0.11863091 0.10937447 0.38404973
v 0.11863278 0.10937447 0.37864616
v 0.11537826 0.10937447 0.37864616
v 0.11537639 0.10937447 0.38404973
v 0.11430280 0.10937447 0.37971975
v 0.11430280 0.10937447 0.38297427
v 0.11288322 0.10937447 0.38662063
v 0.11180775 0.10937447 0.38546932
v 0.11288322 0.10937447 0.38735192
v 0.10937242 0.10937447 0.38297614
v 0.11100062 0.10937447 0.38546932
v 0.11100062 0.10937447 0.38297614
v 0.11537639 0.10937447 0.38898011
v 0.11537639 0.10937447 0.38735192
v 0.10937242 0.10937447 0.38898011
v 0.12112596 0.10937447 0.37607527
v 0.11970637 0.10937447 0.37972163
v 0.12300856 0.10937447 0.38297614
v 0.12463675 0.10937447 0.38898011
v 0.12463675 0.10937447 0.38297614
v 0.12300856 0.10937447 0.38546932
v 0.12112596 0.10937447 0.38735192
v 0.11863278 0.10937447 0.38898011
v 0.11863278 0.10937447 0.38735192
v 0.12300856 0.10937447 0.37971975
v 0.10937246 -0.09414997 0.38898018
v 0.10937242 0.10937447 0.38297614
v 0.10937246 -0.09414997 0.38297621
v 0.10937242 0.10937447 0.38898011
v 0.12463675 0.10937447 0.38898011
v 0.12112599 -0.09414996 0.38898018
v 0.12463679 -0.09414996 0.38898018
v 0.11863282 -0.09414996 0.38898018
v 0.11863278 0.10937447 0.38898011
v 0.11863282 -0.09414996 0.38898018
v 0.12112599 -0.09414996 0.38735199
v 0.12112599 -0.09414996 0.38898018
v 0.11863282 -0.09414996 0.38735199
v 0.11288325 -0.09414997 0.38898018
v 0.11537643 -0.09414997 0.38735199
v 0.11537643 -0.09414996 0.38898018
v 0.11288325 -0.09414997 0.38735199
v 0.10937246 -0.09414997 0.38898018
v 0.11288325 -0.09414997 0.38662070
v 0.11180779 -0.09414997 0.38546939
v 0.11100065 -0.09414997 0.38546939
v 0.11100065 -0.09414997 0.38297621
v 0.10937246 -0.09414997 0.38297621
v 0.11430284 -0.09414997 0.38297434
v 0.11537643 -0.09414997 0.38404980
v 0.12463679 -0.09414997 0.38297621
v 0.12463679 -0.09414996 0.38898018
v 0.12300859 -0.09414996 0.38546939
v 0.12227730 -0.09414996 0.38546939
v 0.12112599 -0.09414996 0.38654485
v 0.11970641 -0.09414997 0.38297621
v 0.11863094 -0.09414997 0.38404980
v 0.11970641 -0.09414997 0.37972169
v 0.11863282 -0.09414997 0.37864623
v 0.11537830 -0.09414997 0.37864623
v 0.11430284 -0.09414997 0.37971982
v 0.11288325 -0.09414997 0.37615118
v 0.11173194 -0.09414997 0.37722665
v 0.11288325 -0.09414997 0.37534405
v 0.10937246 -0.09414997 0.37971982
v 0.11100065 -0.09414997 0.37722665
v 0.11100065 -0.09414997 0.37971982
v 0.11537643 -0.09414997 0.37371585
v 0.11537643 -0.09414997 0.37534405
v 0.10937246 -0.09414997 0.37371585
v 0.12112599 -0.09414997 0.37607534
v 0.12220145 -0.09414997 0.37722665
v 0.12300859 -0.09414997 0.37971982
v 0.12463679 -0.09414997 0.37371585
v 0.12463679 -0.09414997 0.37971982
v 0.12300859 -0.09414997 0.37722665
v 0.12112599 -0.09414997 0.37534405
v 0.11863282 -0.09414997 0.37371585
v 0.11863282 -0.09414997 0.37534405
v 0.12300859 -0.09414997 0.38297621
v 0.12463675 0.10937447 0.37971975
v 0.12463679 -0.09414997 0.37371585
v 0.12463675 0.10937447 0.37371578
v 0.12463679 -0.09414997 0.37971982
v 0.11100062 0.10937447 0.37971975
v 0.10937246 -0.09414997 0.37971982
v 0.11100065 -0.09414997 0.37971982
v 0.10937242 0.10937447 0.37971975
v 0.11100062 0.10937447 0.37971975
v 0.11100065 -0.09414997 0.37722665
v 0.11100062 0.10937447 0.37722658
v 0.11100065 -0.09414997 0.37971982
v 0.11173191 0.10937447 0.37722658
v 0.11100065 -0.09414997 0.37722665
v 0.11173194 -0.09414997 0.37722665
v 0.11100062 0.10937447 0.37722658
v 0.11430280 0.10937447 0.37971975
v 0.11173194 -0.09414997 0.37722665
v 0.11430284 -0.09414997 0.37971982
v 0.11173191 0.10937447 0.37722658
v 0.11430284 -0.09414997 0.38297434
v 0.11430280 0.10937447 0.37971975
v 0.11430284 -0.09414997 0.37971982
v 0.11430280 0.10937447 0.38297427
v 0.11180779 -0.09414997 0.38546939
v 0.11430280 0.10937447 0.38297427
v 0.11430284 -0.09414997 0.38297434
v 0.11180775 0.10937447 0.38546932
v 0.11100062 0.10937447 0.38546932
v 0.11180779 -0.09414997 0.38546939
v 0.11100065 -0.09414997 0.38546939
v 0.11180775 0.10937447 0.38546932
v 0.11100062 0.10937447 0.38546932
v 0.11100065 -0.09414997 0.38297621
v 0.11100062 0.10937447 0.38297614
v 0.11100065 -0.09414997 0.38546939
v 0.10937242 0.10937447 0.38297614
v 0.11100065 -0.09414997 0.38297621
v 0.10937246 -0.09414997 0.38297621
v 0.11100062 0.10937447 0.38297614
v 0.10937246 -0.09414997 0.37971982
v 0.10937242 0.10937447 0.37371578
v 0.10937246 -0.09414997 0.37371585
v 0.10937242 0.10937447 0.37971975
v 0.11863282 -0.09414997 0.37534405
v 0.11863278 0.10937447 0.37371578
v 0.11863282 -0.09414997 0.37371585
v 0.11863278 0.10937447 0.37534398
v 0.12112596 0.10937447 0.37534398
v 0.11863282 -0.09414997 0.37534405
v 0.12112599 -0.09414997 0.37534405
v 0.11863278 0.10937447 0.37534398
v 0.12112599 -0.09414997 0.37607534
v 0.12112596 0.10937447 0.37534398
v 0.12112599 -0.09414997 0.37534405
v 0.12112596 0.10937447 0.37607527
v 0.11863282 -0.09414997 0.37864623
v 0.12112596 0.10937447 0.37607527
v 0.12112599 -0.09414997 0.37607534
v 0.11863278 0.10937447 0.37864616
v 0.11537826 0.10937447 0.37864616
v 0.11863282 -0.09414997 0.37864623
v 0.11537830 -0.09414997 0.37864623
v 0.11863278 0.10937447 0.37864616
v 0.11537826 0.10937447 0.37864616
v 0.11288325 -0.09414997 0.37615118
v 0.11288322 0.10937447 0.37615111
v 0.11537830 -0.09414997 0.37864623
v 0.11288322 0.10937447 0.37615111
v 0.11288325 -0.09414997 0.37534405
v 0.11288322 0.10937447 0.37534398
v 0.11288325 -0.09414997 0.37615118
v 0.11537639 0.10937447 0.37534398
v 0.11288325 -0.09414997 0.37534405
v 0.11537643 -0.09414997 0.37534405
v 0.11288322 0.10937447 0.37534398
v 0.11537639 0.10937447 0.37534398
v 0.11537643 -0.09414997 0.37371585
v 0.11537639 0.10937447 0.37371578
v 0.11537643 -0.09414997 0.37534405
v 0.11863278 0.10937447 0.37371578
v 0.12463679 -0.09414997 0.37371585
v 0.11863282 -0.09414997 0.37371585
v 0.12463675 0.10937447 0.37371578
v 0.12300856 0.10937447 0.38297614
v 0.12463679 -0.09414997 0.38297621
v 0.12300859 -0.09414997 0.38297621
v 0.12463675 0.10937447 0.38297614
v 0.12300859 -0.09414996 0.38546939
v 0.12300856 0.10937447 0.38297614
v 0.12300859 -0.09414997 0.38297621
v 0.12300856 0.10937447 0.38546932
v 0.12227726 0.10937447 0.38546932
v 0.12300859 -0.09414996 0.38546939
v 0.12227730 -0.09414996 0.38546939
v 0.12300856 0.10937447 0.38546932
v 0.11970637 0.10937447 0.38297614
v 0.12227730 -0.09414996 0.38546939
v 0.11970641 -0.09414997 0.38297621
v 0.12227726 0.10937447 0.38546932
v 0.11970637 0.10937447 0.38297614
v 0.11970641 -0.09414997 0.37972169
v 0.11970637 0.10937447 0.37972163
v 0.11970641 -0.09414997 0.38297621
v 0.11970637 0.10937447 0.37972163
v 0.12220145 -0.09414997 0.37722665
v 0.12220142 0.10937447 0.37722658
v 0.11970641 -0.09414997 0.37972169
v 0.12300856 0.10937447 0.37722658
v 0.12220145 -0.09414997 0.37722665
v 0.12300859 -0.09414997 0.37722665
v 0.12220142 0.10937447 0.37722658
v 0.12300859 -0.09414997 0.37971982
v 0.12300856 0.10937447 0.37722658
v 0.12300859 -0.09414997 0.37722665
v 0.12300856 0.10937447 0.37971975
v 0.12463675 0.10937447 0.37971975
v 0.12300859 -0.09414997 0.37971982
v 0.12463679 -0.09414997 0.37971982
v 0.12300856 0.10937447 0.37971975
v 0.12463675 0.10937447 0.38898011
v 0.12463679 -0.09414997 0.38297621
v 0.12463675 0.10937447 0.38297614
v 0.12463679 -0.09414996 0.38898018
v 0.11537639 0.10937447 0.38898011
v 0.11537643 -0.09414997 0.38735199
v 0.11537639 0.10937447 0.38735192
v 0.11537643 -0.09414996 0.38898018
v 0.11288322 0.10937447 0.38735192
v 0.11537643 -0.09414997 0.38735199
v 0.11288325 -0.09414997 0.38735199
v 0.11537639 0.10937447 0.38735192
v 0.11288322 0.10937447 0.38735192
v 0.11288325 -0.09414997 0.38662070
v 0.11288322 0.10937447 0.38662063
v 0.11288325 -0.09414997 0.38735199
v 0.11288322 0.10937447 0.38662063
v 0.11537643 -0.09414997 0.38404980
v 0.11537639 0.10937447 0.38404973
v 0.11288325 -0.09414997 0.38662070
v 0.11863091 0.10937447 0.38404973
v 0.11537643 -0.09414997 0.38404980
v 0.11863094 -0.09414997 0.38404980
v 0.11537639 0.10937447 0.38404973
v 0.12112599 -0.09414996 0.38654485
v 0.11863091 0.10937447 0.38404973
v 0.11863094 -0.09414997 0.38404980
v 0.12112596 0.10937447 0.38654478
v 0.12112599 -0.09414996 0.38735199
v 0.12112596 0.10937447 0.38654478
v 0.12112599 -0.09414996 0.38654485
v 0.12112596 0.10937447 0.38735192
v 0.11863278 0.10937447 0.38735192
v 0.12112599 -0.09414996 0.38735199
v 0.11863282 -0.09414996 0.38735199
v 0.12112596 0.10937447 0.38735192
v 0.11863282 -0.09414996 0.38898018
v 0.11863278 0.10937447 0.38735192
v 0.11863282 -0.09414996 0.38735199
v 0.11863278 0.10937447 0.38898011
v 0.11537639 0.10937447 0.38898011
v 0.11288325 -0.09414997 0.38898018
v 0.11537643 -0.09414996 0.38898018
v 0.10937246 -0.09414997 0.38898018
v 0.10937242 0.10937447 0.38898011
vt 0.49313703 0.00062490
vt 0.51979727 0.90436125
vt 0.49313703 0.90436125
vt 0.51979727 0.00062490
vt 0.90972531 0.91984969
vt 0.90683246 0.93481886
vt 0.89715111 0.92907143
vt 0.92471766 0.91735733
vt 0.91925097 0.90750641
vt 0.91426706 0.93107164
vt 0.92448187 0.90573376
vt 0.96692222 0.92090493
vt 0.95681638 0.90749788
vt 0.96382093 0.90573376
vt 0.95803905 0.91604877
vt 0.95406216 0.92229843
vt 0.96510845 0.93363905
vt 0.97076780 0.93042845
vt 0.97911811 0.93249899
vt 0.98158008 0.92569220
vt 0.92686015 0.95519429
vt 0.92142987 0.97158563
vt 0.91489816 0.96500838
vt 0.93172181 0.95973939
vt 0.93118370 0.93629950
vt 0.94538438 0.93602479
vt 0.94595748 0.95934588
vt 0.95046383 0.94043142
vt 0.95088375 0.95462602
vt 0.95431036 0.97236514
vt 0.96448600 0.96405792
vt 0.94776976 0.98144865
vt 0.97324157 0.98380494
vt 0.96854293 0.97338319
vt 0.97775137 0.98000246
vt 0.95390886 0.99118793
vt 0.94868881 0.99314964
vt 0.95981920 0.97828472
vt 0.92140466 0.92420715
vt 0.92644197 0.94111621
vt 0.90506172 0.95474017
vt 0.90795195 0.97628337
vt 0.89920551 0.95938438
vt 0.90921193 0.96176982
vt 0.92424548 0.97899032
vt 0.91879439 0.98866981
vt 0.92392284 0.99056846
vt 0.89522195 0.93424290
vt 0.54895711 0.90436077
vt 0.57561731 0.00062490
vt 0.57561731 0.90436077
vt 0.54895711 0.00062490
vt 0.21819089 0.90435249
vt 0.21836834 0.00105602
vt 0.23414177 0.00062490
vt 0.19153023 0.00063759
vt 0.19153023 0.90433681
vt 0.49685958 0.97732848
vt 0.50342309 0.96660596
vt 0.50521964 0.97010046
vt 0.49313706 0.97248769
vt 0.50586337 0.91557610
vt 0.49313706 0.91981918
vt 0.49464399 0.91307604
vt 0.50337911 0.92247593
vt 0.51091099 0.92057616
vt 0.50531763 0.93187565
vt 0.52239877 0.92200708
vt 0.51831448 0.91534168
vt 0.51934725 0.90811592
vt 0.51278979 0.90561104
vt 0.52523202 0.93834519
vt 0.51871026 0.94243246
vt 0.50646883 0.99302620
vt 0.49478942 0.98346102
vt 0.51024312 0.98617250
vt 0.50897521 0.97359377
vt 0.50376910 0.96570003
vt 0.52048826 0.96253783
vt 0.51586986 0.95675123
vt 0.53400755 0.96490258
vt 0.53946471 0.96067059
vt 0.54192495 0.94705677
vt 0.53842610 0.94106334
vt 0.55673707 0.94211912
vt 0.54948062 0.92852193
vt 0.56640798 0.95297092
vt 0.57251453 0.93040758
vt 0.56164718 0.92966181
vt 0.57093638 0.92449510
vt 0.57451290 0.94608104
vt 0.57731092 0.95089149
vt 0.56449598 0.93814033
vt 0.55143213 0.97108018
vt 0.54169995 0.97841352
vt 0.52944964 0.99060494
vt 0.55185169 0.98287392
vt 0.53487372 0.99565905
vt 0.53509355 0.98625684
vt 0.56035393 0.96744817
vt 0.56582135 0.97668082
vt 0.57004243 0.97321951
vt 0.51041758 0.99614519
vt 0.57686704 0.90436077
vt 0.60352725 0.00062490
vt 0.60352725 0.90436077
vt 0.57686704 0.00062490
vt 0.75245851 0.90449852
vt 0.73511016 0.00090009
vt 0.75245845 0.00062490
vt 0.73511016 0.90477377
vt 0.12075179 0.90469152
vt 0.14758633 0.00128633
vt 0.14758632 0.90535295
vt 0.12075180 0.00062490
vt 0.84316999 0.00090015
vt 0.85927081 0.90449977
vt 0.84316999 0.90477502
vt 0.85927081 0.00062495
vt 0.93201661 0.00062490
vt 0.94791889 0.90436059
vt 0.93201661 0.90436065
vt 0.94791895 0.00062490
vt 0.89522195 0.90440172
vt 0.91204983 0.00070703
vt 0.91204971 0.90448403
vt 0.89522201 0.00062484
vt 0.66059685 0.90475076
vt 0.67806619 0.00104803
vt 0.67806613 0.90481681
vt 0.66060263 0.00062484
vt 0.79090446 0.00090009
vt 0.80707663 0.90449935
vt 0.79090446 0.90477461
vt 0.80707663 0.00062490
vt 0.09266755 0.90469158
vt 0.11950206 0.00128627
vt 0.11950205 0.90535301
vt 0.09266758 0.00062490
vt 0.77105647 0.90449858
vt 0.75370812 0.00090015
vt 0.77105641 0.00062490
vt 0.75370818 0.90477377
vt 0.60477704 0.90436077
vt 0.63143724 0.00062484
vt 0.63143724 0.90436077
vt 0.60477704 0.00062484
vt 0.71651202 0.90449858
vt 0.73386037 0.00090009
vt 0.73386037 0.90477383
vt 0.71651208 0.00062484
vt 0.43158373 0.00090009
vt 0.45085186 0.90449804
vt 0.43158388 0.90477329
vt 0.45085168 0.00062490
vt 0.89397216 0.00090015
vt 0.87787133 0.90449822
vt 0.87787133 0.00062495
vt 0.89397216 0.90477347
vt 0.98347276 0.90436041
vt 0.99937510 0.00062478
vt 0.99937510 0.90436041
vt 0.98347276 0.00062478
vt 0.34739059 0.00090003
vt 0.36878067 0.90449810
vt 0.34739059 0.90477335
vt 0.36878067 0.00062484
vt 0.06112781 0.00128657
vt 0.03208747 0.90469152
vt 0.03208762 0.00062490
vt 0.06112587 0.90535325
vt 0.28388327 0.90456086
vt 0.30323556 0.00102520
vt 0.30323550 0.90496117
vt 0.28388333 0.00062495
vt 0.39054817 0.00090003
vt 0.40981627 0.90449834
vt 0.39054832 0.90477359
vt 0.40981609 0.00062484
vt 0.25838763 0.00115246
vt 0.23539147 0.90462434
vt 0.23539160 0.00062495
vt 0.25838754 0.90515184
vt 0.54770726 0.90436125
vt 0.52104706 0.00062490
vt 0.54770726 0.00062490
vt 0.52104706 0.90436125
vt 0.69666421 0.90449864
vt 0.67931592 0.00090009
vt 0.69666421 0.00062490
vt 0.67931592 0.90477383
vt 0.38929844 0.00090015
vt 0.37003046 0.90449846
vt 0.37003049 0.00062490
vt 0.38929838 0.90477365
vt 0.87662143 0.90449834
vt 0.86052060 0.00090021
vt 0.87662143 0.00062495
vt 0.86052054 0.90477359
vt 0.98222303 0.90436047
vt 0.96632075 0.00062484
vt 0.98222303 0.00062484
vt 0.96632069 0.90436047
vt 0.00062487 0.90475053
vt 0.03083773 0.00140417
vt 0.03083768 0.90552980
vt 0.00062492 0.00062490
vt 0.06237752 0.90469158
vt 0.09141599 0.00128651
vt 0.09141774 0.90535325
vt 0.06237756 0.00062490
vt 0.82449830 0.90449882
vt 0.80832624 0.00090009
vt 0.82449830 0.00062484
vt 0.80832618 0.90477401
vt 0.43033382 0.00090003
vt 0.41106597 0.90449828
vt 0.41106591 0.00062484
vt 0.43033394 0.90477353
vt 0.71526235 0.90449870
vt 0.69791400 0.00090015
vt 0.71526229 0.00062490
vt 0.69791406 0.90477389
vt 0.65934712 0.00062490
vt 0.63268691 0.90436077
vt 0.63268697 0.00062490
vt 0.65934712 0.90436077
vt 0.25963742 0.90462434
vt 0.28263348 0.00115234
vt 0.28263345 0.90515178
vt 0.25963742 0.00062490
vt 0.49188730 0.90449804
vt 0.47261932 0.00090003
vt 0.49188727 0.00062484
vt 0.47261935 0.90477329
vt 0.30448526 0.90455520
vt 0.32350096 0.00101340
vt 0.32350093 0.90494376
vt 0.30448535 0.00062490
vt 0.96507108 0.00062490
vt 0.94916874 0.90436053
vt 0.94916874 0.00062490
vt 0.96507108 0.90436053
vt 0.32475075 0.00090015
vt 0.34614086 0.90449905
vt 0.32475078 0.90477425
vt 0.34614083 0.00062490
vt 0.91329944 0.90432781
vt 0.93076682 0.00062490
vt 0.93076682 0.90439385
vt 0.91330034 0.00070691
vt 0.84192032 0.00090009
vt 0.82574821 0.90449840
vt 0.82574821 0.00062490
vt 0.84192032 0.90477365
vt 0.47136956 0.90449810
vt 0.45210159 0.00090015
vt 0.47136950 0.00062490
vt 0.45210162 0.90477335
vt 0.78965455 0.00090009
vt 0.77230626 0.90449840
vt 0.77230620 0.00062484
vt 0.78965449 0.90477359
vt 0.16320165 0.00062490
vt 0.16810463 0.90457737
vt 0.14883605 0.90423501
vt 0.19028042 0.90432441
vt 0.18986216 0.00062490
f 1/1 2/2 3/3
f 2/2 1/1 4/4
f 5/5 6/6 7/7
f 6/6 5/5 8/8
f 8/8 5/5 9/9
f 6/6 8/8 10/10
f 8/8 9/9 11/11
f 12/12 13/13 14/14
f 13/13 12/12 15/15
f 15/15 12/12 16/16
f 16/16 12/12 17/17
f 17/17 12/12 18/18
f 18/18 12/12 19/19
f 19/19 12/12 20/20
f 21/21 22/22 23/23
f 22/22 21/21 24/24
f 24/24 21/21 25/25
f 24/24 25/25 26/26
f 24/24 26/26 27/27
f 27/27 26/26 28/28
f 28/28 26/26 16/16
f 28/28 16/16 17/17
f 27/27 29/29 30/30
f 29/29 27/27 28/28
f 30/30 29/29 31/31
f 30/30 31/31 32/32
f 33/33 34/34 35/35
f 32/32 36/36 37/37
f 36/36 32/32 38/38
f 38/38 32/32 31/31
f 38/38 31/31 34/34
f 38/38 34/34 33/33
f 10/10 39/39 40/40
f 39/39 10/10 8/8
f 40/40 39/39 25/25
f 40/40 25/25 21/21
f 41/41 42/42 43/43
f 42/42 41/41 44/44
f 42/42 44/44 45/45
f 42/42 45/45 46/46
f 45/45 44/44 23/23
f 45/45 23/23 22/22
f 46/46 45/45 47/47
f 48/48 7/7 6/6
f 49/49 50/50 51/51
f 50/50 49/49 52/52
f 53/53 54/54 55/55
f 54/54 53/53 56/56
f 56/56 53/53 57/57
f 58/58 59/59 60/60
f 59/59 58/58 61/61
f 62/62 63/63 64/64
f 63/63 62/62 65/65
f 65/65 62/62 66/66
f 65/65 66/66 67/67
f 67/67 66/66 68/68
f 68/68 66/66 69/69
f 69/69 66/66 70/70
f 70/70 66/66 71/71
f 67/67 72/72 73/73
f 72/72 67/67 68/68
f 60/60 74/74 75/75
f 74/74 60/60 76/76
f 76/76 60/60 77/77
f 77/77 60/60 78/78
f 77/77 78/78 79/79
f 78/78 60/60 59/59
f 79/79 78/78 80/80
f 79/79 80/80 81/81
f 81/81 80/80 82/82
f 82/82 80/80 83/83
f 83/83 80/80 73/73
f 83/83 73/73 84/84
f 83/83 84/84 85/85
f 84/84 73/73 72/72
f 85/85 84/84 86/86
f 85/85 86/86 87/87
f 88/88 89/89 90/90
f 87/87 91/91 92/92
f 91/91 87/87 93/93
f 93/93 87/87 86/86
f 93/93 86/86 89/89
f 93/93 89/89 88/88
f 81/81 94/94 95/95
f 94/94 81/81 82/82
f 96/96 97/97 98/98
f 97/97 96/96 99/99
f 97/97 99/99 100/100
f 97/97 100/100 101/101
f 100/100 99/99 95/95
f 100/100 95/95 94/94
f 101/101 100/100 102/102
f 103/103 74/74 76/76
f 104/104 105/105 106/106
f 105/105 104/104 107/107
f 108/108 109/109 110/110
f 109/109 108/108 111/111
f 112/112 113/113 114/114
f 113/113 112/112 115/115
f 116/116 117/117 118/118
f 117/117 116/116 119/119
f 120/120 121/121 122/122
f 121/121 120/120 123/123
f 124/124 125/125 126/126
f 125/125 124/124 127/127
f 128/128 129/129 130/130
f 129/129 128/128 131/131
f 132/132 133/133 134/134
f 133/133 132/132 135/135
f 136/136 137/137 138/138
f 137/137 136/136 139/139
f 140/140 141/141 142/142
f 141/141 140/140 143/143
f 144/144 145/145 146/146
f 145/145 144/144 147/147
f 148/148 149/149 150/150
f 149/149 148/148 151/151
f 152/152 153/153 154/154
f 153/153 152/152 155/155
f 156/156 157/157 158/158
f 157/157 156/156 159/159
f 160/160 161/161 162/162
f 161/161 160/160 163/163
f 164/164 165/165 166/166
f 165/165 164/164 167/167
f 168/168 169/169 170/170
f 169/169 168/168 171/171
f 172/172 173/173 174/174
f 173/173 172/172 175/175
f 176/176 177/177 178/178
f 177/177 176/176 179/179
f 180/180 181/181 182/182
f 181/181 180/180 183/183
f 184/184 185/185 186/186
f 185/185 184/184 187/187
f 188/188 189/189 190/190
f 189/189 188/188 191/191
f 192/192 193/193 194/194
f 193/193 192/192 195/195
f 196/196 197/197 198/198
f 197/197 196/196 199/199
f 200/200 201/201 202/202
f 201/201 200/200 203/203
f 204/204 205/205 206/206
f 205/205 204/204 207/207
f 208/208 209/209 210/210
f 209/209 208/208 211/211
f 212/212 213/213 214/214
f 213/213 212/212 215/215
f 216/216 217/217 218/218
f 217/217 216/216 219/219
f 220/220 221/221 222/222
f 221/221 220/220 223/223
f 224/224 225/225 226/226
f 225/225 224/224 227/227
f 228/228 229/229 230/230
f 229/229 228/228 231/231
f 232/232 233/233 234/234
f 233/233 232/232 235/235
f 236/236 237/237 238/238
f 237/237 236/236 239/239
f 240/240 241/241 242/242
f 241/241 240/240 243/243
f 244/244 245/245 246/246
f 245/245 244/244 247/247
f 248/248 249/249 250/250
f 249/249 248/248 251/251
f 252/252 253/253 254/254
f 253/253 252/252 255/255
f 256/256 257/257 258/258
f 257/257 256/256 259/259
f 260/260 261/261 262/262
f 261/261 260/260 263/263
f 264/264 265/265 266/266
f 265/265 264/264 267/267
f 267/267 264/264 268/268

