# https://github.com/mikedh/trimesh
mtllib material.mtl
usemtl redlowglossplastic
v 0.24000000 -0.12000000 0.00999998
v 0.19472136 -0.12000000 0.00999999
v 0.19472136 0.12000000 0.01000000
v 0.24129410 0.11982963 0.00999999
v 0.24250001 0.11933013 0.00999999
v 0.24500001 0.11500000 0.00999999
v 0.24353553 0.11853553 0.00999999
v 0.24482963 0.11629409 0.00999999
v 0.24433012 0.11750000 0.00999999
v 0.24500001 0.11500000 0.00999999
v 0.24500001 -0.11500000 0.00999998
v 0.24000000 -0.12000000 0.00999998
v 0.24482963 -0.11629409 0.00999998
v 0.24000000 -0.12000000 0.00999998
v 0.19472136 0.12000000 0.01000000
v 0.24500001 0.11500000 0.00999999
v 0.24000000 0.12000000 0.00999999
v 0.24129410 0.11982963 0.00999999
v 0.24482963 -0.11629409 0.00999998
v 0.24433012 -0.11750000 0.00999998
v 0.24000000 -0.12000000 0.00999998
v 0.24353553 -0.11853553 0.00999998
v 0.24129410 -0.11982963 0.00999998
v 0.24250001 -0.11933013 0.00999998
v -0.24500000 -0.11500000 0.01000001
v -0.19472136 -0.12000000 0.01000000
v -0.23999999 -0.12000000 0.01000001
v -0.19472136 -0.12000000 0.01000000
v -0.24500000 -0.11500000 0.01000001
v -0.19472136 0.12000000 0.01000001
v -0.24500000 0.11500000 0.01000002
v -0.23999999 0.12000000 0.01000002
v -0.24500000 -0.11500000 0.01000001
v -0.24353553 -0.11853553 0.01000001
v -0.24482962 -0.11629409 0.01000001
v -0.24433012 -0.11750000 0.01000001
v -0.23999999 -0.12000000 0.01000001
v -0.24129410 -0.11982963 0.01000001
v -0.24500000 -0.11500000 0.01000001
v -0.24250001 -0.11933013 0.01000001
v -0.24353553 -0.11853553 0.01000001
v -0.24433012 0.11750000 0.01000002
v -0.24353553 0.11853553 0.01000002
v -0.24250001 0.11933013 0.01000002
v -0.24500000 0.11500000 0.01000002
v -0.24482962 0.11629409 0.01000002
v -0.23999999 0.12000000 0.01000002
v -0.24433012 0.11750000 0.01000002
v -0.24129410 0.11982963 0.01000002
v -0.24250001 0.11933013 0.01000002
v 0.24000000 -0.12500001 0.12499998
v 0.24000000 0.12499999 0.12499999
v -0.23999999 -0.12500001 0.12500001
v -0.23999999 0.12499999 0.12500002
v 0.24965926 0.11758819 0.12499999
v 0.24866026 0.11999999 0.12499999
v 0.24707108 0.12207106 0.12499999
v -0.24965925 -0.11758820 0.12500001
v -0.24866025 -0.12000000 0.12500001
v -0.23999999 -0.12500001 0.12500001
v 0.24258820 -0.12465926 0.12499998
v 0.24965926 -0.11758820 0.12499998
v 0.24000000 -0.12500001 0.12499998
v 0.25000001 -0.11500001 0.12499998
v 0.24000000 0.12499999 0.12499999
v 0.25000001 0.11500000 0.12499999
v 0.24258820 0.12465925 0.12499999
v 0.24258820 -0.12465926 0.12499998
v 0.24500001 -0.12366026 0.12499998
v 0.24965926 -0.11758820 0.12499998
v 0.24707108 -0.12207107 0.12499998
v 0.24866026 -0.12000000 0.12499998
v -0.23999999 0.12499999 0.12500002
v -0.24258819 0.12465925 0.12500002
v -0.24866025 0.11999999 0.12500002
v -0.24500000 0.12366025 0.12500002
v -0.24707107 0.12207106 0.12500002
v -0.24866025 0.11999999 0.12500002
v -0.24965925 0.11758819 0.12500002
v -0.23999999 0.12499999 0.12500002
v -0.24999999 0.11500000 0.12500002
v -0.23999999 -0.12500001 0.12500001
v -0.24999999 -0.11500001 0.12500001
v -0.24965925 -0.11758820 0.12500001
v 0.24965926 0.11758819 0.12499999
v 0.24707108 0.12207106 0.12499999
v 0.25000001 0.11500000 0.12499999
v 0.24500001 0.12366025 0.12499999
v 0.24258820 0.12465925 0.12499999
v -0.24866025 -0.12000000 0.12500001
v -0.24707107 -0.12207107 0.12500001
v -0.23999999 -0.12500001 0.12500001
v -0.24500000 -0.12366026 0.12500001
v -0.24258819 -0.12465926 0.12500001
v 0.10126603 -0.12500000 0.01499999
v 0.09847642 -0.12500000 0.01925392
v -0.10126603 -0.12500000 0.01500000
v 0.09356205 -0.12500000 0.02963441
v -0.09847642 -0.12500000 0.01925393
v -0.20643796 -0.12500000 0.02963442
v -0.23999999 -0.12500000 0.01500000
v -0.20152359 -0.12500000 0.01925394
v -0.19873397 -0.12500000 0.01500000
v 0.09004132 -0.12500000 0.05222630
v -0.09156397 -0.12500000 0.06360994
v -0.09004131 -0.12500000 0.05222631
v -0.23999999 -0.12500001 0.12500001
v -0.20477225 -0.12500000 0.07449490
v -0.19910159 -0.12500000 0.08448235
v -0.19910159 -0.12500000 0.08448235
v -0.19163185 -0.12500000 0.09320636
v -0.23999999 -0.12500001 0.12500001
v -0.18263667 -0.12500000 0.10034727
v -0.17244569 -0.12500000 0.10564342
v 0.24000000 -0.12500001 0.12499998
v 0.16143230 -0.12500000 0.10890077
v 0.17244570 -0.12500000 0.10564341
v -0.20643796 -0.12500000 0.02963442
v -0.20928442 -0.12500000 0.04076111
v -0.23999999 -0.12500000 0.01500000
v -0.20995869 -0.12500000 0.05222631
v -0.23999999 -0.12500001 0.12500001
v -0.20843602 -0.12500000 0.06360995
v -0.20477225 -0.12500000 0.07449490
v -0.17244569 -0.12500000 0.10564342
v -0.16143229 -0.12500000 0.10890079
v -0.23999999 -0.12500001 0.12500001
v -0.15000000 -0.12500000 0.11000000
v 0.24000000 -0.12500001 0.12499998
v -0.15000000 -0.12500000 0.11000000
v -0.13856771 -0.12500000 0.10890079
v 0.24000000 -0.12500001 0.12499998
v -0.12755429 -0.12500000 0.10564342
v -0.11736331 -0.12500000 0.10034727
v -0.11736331 -0.12500000 0.10034727
v -0.10836815 -0.12500000 0.09320635
v 0.24000000 -0.12500001 0.12499998
v -0.10089840 -0.12500000 0.08448235
v -0.09522774 -0.12500000 0.07449490
v 0.09004132 -0.12500000 0.05222630
v -0.09004131 -0.12500000 0.05222631
v 0.09071558 -0.12500000 0.04076110
v -0.09071558 -0.12500000 0.04076110
v 0.09356205 -0.12500000 0.02963441
v -0.09356204 -0.12500000 0.02963442
v -0.09847642 -0.12500000 0.01925393
v -0.09156397 -0.12500000 0.06360994
v 0.09004132 -0.12500000 0.05222630
v -0.09522774 -0.12500000 0.07449490
v 0.09156397 -0.12500000 0.06360993
v 0.09522774 -0.12500000 0.07449489
v 0.09522774 -0.12500000 0.07449489
v 0.10089840 -0.12500000 0.08448234
v -0.09522774 -0.12500000 0.07449490
v 0.10836815 -0.12500000 0.09320634
v 0.11736332 -0.12500000 0.10034726
v 0.11736332 -0.12500000 0.10034726
v 0.12755430 -0.12500000 0.10564341
v -0.09522774 -0.12500000 0.07449490
v 0.13856772 -0.12500000 0.10890077
v 0.24000000 -0.12500001 0.12499998
v 0.15000001 -0.12500000 0.10999999
v 0.16143230 -0.12500000 0.10890077
v 0.17244570 -0.12500000 0.10564341
v 0.18263668 -0.12500000 0.10034725
v 0.24000000 -0.12500001 0.12499998
v 0.19163186 -0.12500000 0.09320634
v 0.19910160 -0.12500000 0.08448234
v 0.19910160 -0.12500000 0.08448234
v 0.20477225 -0.12500000 0.07449488
v 0.24000000 -0.12500001 0.12499998
v 0.20843603 -0.12500000 0.06360993
v 0.24000000 -0.12500000 0.01499998
v 0.20995869 -0.12500000 0.05222629
v 0.20928443 -0.12500000 0.04076109
v 0.20928443 -0.12500000 0.04076109
v 0.20643796 -0.12500000 0.02963440
v 0.24000000 -0.12500000 0.01499998
v 0.20152359 -0.12500000 0.01925392
v 0.19873397 -0.12500000 0.01499999
v 0.25000000 -0.11500000 0.01499998
v 0.25000000 0.11500000 0.01499999
v 0.25000001 -0.11500001 0.12499998
v 0.25000001 0.11500000 0.12499999
v 0.09847642 0.12500000 0.01925393
v 0.10126603 0.12500000 0.01500000
v -0.10126603 0.12500000 0.01500001
v 0.17244570 0.12500000 0.10564342
v 0.16143230 0.12500000 0.10890078
v 0.24000000 0.12499999 0.12499999
v -0.20928442 0.12500000 0.04076112
v -0.20643796 0.12500000 0.02963443
v -0.23999999 0.12500000 0.01500002
v -0.20152359 0.12500000 0.01925395
v -0.19873397 0.12500000 0.01500001
v 0.20928443 0.12500000 0.04076110
v 0.20995869 0.12500000 0.05222631
v 0.24000000 0.12500000 0.01499999
v -0.09356204 0.12500000 0.02963443
v -0.09071558 0.12500000 0.04076112
v 0.09356205 0.12500000 0.02963442
v 0.24000000 0.12500000 0.01499999
v 0.20995869 0.12500000 0.05222631
v 0.24000000 0.12499999 0.12499999
v 0.11736332 0.12500000 0.10034727
v 0.10836815 0.12500000 0.09320635
v -0.09522774 0.12500000 0.07449491
v -0.09522774 0.12500000 0.07449491
v 0.09156397 0.12500000 0.06360994
v -0.09156397 0.12500000 0.06360995
v 0.09004132 0.12500000 0.05222631
v -0.09004131 0.12500000 0.05222632
v 0.24000000 0.12499999 0.12499999
v -0.09522774 0.12500000 0.07449491
v -0.10089840 0.12500000 0.08448236
v -0.10089840 0.12500000 0.08448236
v -0.10836815 0.12500000 0.09320636
v 0.24000000 0.12499999 0.12499999
v -0.11736331 0.12500000 0.10034728
v -0.12755429 0.12500000 0.10564343
v -0.17244569 0.12500000 0.10564343
v -0.18263667 0.12500000 0.10034728
v -0.23999999 0.12499999 0.12500002
v -0.19163185 0.12500000 0.09320637
v -0.19910159 0.12500000 0.08448236
v 0.16143230 0.12500000 0.10890078
v 0.15000001 0.12500000 0.11000000
v 0.24000000 0.12499999 0.12499999
v 0.13856772 0.12500000 0.10890078
v -0.09522774 0.12500000 0.07449491
v 0.12755430 0.12500000 0.10564342
v 0.11736332 0.12500000 0.10034727
v 0.10836815 0.12500000 0.09320635
v 0.10089840 0.12500000 0.08448235
v -0.09522774 0.12500000 0.07449491
v 0.09522774 0.12500000 0.07449490
v 0.09156397 0.12500000 0.06360994
v 0.09847642 0.12500000 0.01925393
v -0.10126603 0.12500000 0.01500001
v 0.09356205 0.12500000 0.02963442
v -0.09847642 0.12500000 0.01925394
v -0.09356204 0.12500000 0.02963443
v -0.09004131 0.12500000 0.05222632
v 0.09004132 0.12500000 0.05222631
v -0.09071558 0.12500000 0.04076112
v 0.09071558 0.12500000 0.04076111
v 0.09356205 0.12500000 0.02963442
v -0.12755429 0.12500000 0.10564343
v -0.13856771 0.12500000 0.10890080
v 0.24000000 0.12499999 0.12499999
v -0.15000000 0.12500000 0.11000001
v -0.23999999 0.12499999 0.12500002
v -0.16143229 0.12500000 0.10890080
v -0.17244569 0.12500000 0.10564343
v -0.19910159 0.12500000 0.08448236
v -0.20477225 0.12500000 0.07449491
v -0.23999999 0.12499999 0.12500002
v -0.20843602 0.12500000 0.06360996
v -0.23999999 0.12500000 0.01500002
v -0.20995869 0.12500000 0.05222632
v -0.20928442 0.12500000 0.04076112
v 0.19873397 0.12500000 0.01500000
v 0.20152359 0.12500000 0.01925393
v 0.24000000 0.12500000 0.01499999
v 0.20643796 0.12500000 0.02963441
v 0.20928443 0.12500000 0.04076110
v 0.20995869 0.12500000 0.05222631
v 0.20843603 0.12500000 0.06360994
v 0.24000000 0.12499999 0.12499999
v 0.20477225 0.12500000 0.07449489
v 0.19910160 0.12500000 0.08448235
v 0.19910160 0.12500000 0.08448235
v 0.19163186 0.12500000 0.09320635
v 0.24000000 0.12499999 0.12499999
v 0.18263668 0.12500000 0.10034726
v 0.17244570 0.12500000 0.10564342
v -0.25000000 0.11500000 0.01500002
v -0.25000000 -0.11500000 0.01500001
v -0.24999999 0.11500000 0.12500002
v -0.24999999 -0.11500001 0.12500001
v 0.10527864 0.12000000 0.01000000
v 0.10527864 -0.12000000 0.00999999
v -0.10527864 0.12000000 0.01000001
v -0.10527864 -0.12000000 0.01000000
v 0.10437107 -0.12305062 0.01103846
v 0.10468840 -0.12250000 0.01066986
v 0.10320550 -0.12250000 0.01244636
v 0.10493824 -0.12192129 0.01038386
v 0.10512684 -0.12129410 0.01017036
v 0.09847642 -0.12500000 0.01925392
v 0.10126603 -0.12500000 0.01499999
v 0.10320550 -0.12250000 0.01244636
v 0.10222199 -0.12482963 0.01370589
v 0.10222199 -0.12482963 0.01370589
v 0.10316251 -0.12433013 0.01249999
v 0.10320550 -0.12250000 0.01244636
v 0.10401073 -0.12353554 0.01146446
v 0.10437107 -0.12305062 0.01103846
v 0.10222199 0.12482963 0.01370591
v 0.10320550 0.12250000 0.01244637
v 0.10316251 0.12433013 0.01250000
v 0.10401073 0.12353554 0.01146447
v 0.10493746 0.12192342 0.01038476
v 0.10468840 0.12250000 0.01066987
v 0.10320550 0.12250000 0.01244637
v 0.10436894 0.12305386 0.01104097
v 0.10401073 0.12353554 0.01146447
v 0.10527864 0.12000000 0.01000000
v 0.10523985 0.12065744 0.01004341
v 0.10320550 0.12250000 0.01244637
v 0.10512684 0.12129410 0.01017037
v 0.10493746 0.12192342 0.01038476
v 0.10527864 -0.12000000 0.00999999
v 0.10527864 0.12000000 0.01000000
v 0.09847642 0.12500000 0.01925393
v 0.10320550 0.12250000 0.01244637
v 0.10126603 0.12500000 0.01500000
v 0.10222199 0.12482963 0.01370591
v 0.19562893 0.12305061 0.01103847
v 0.19531161 0.12250000 0.01066987
v 0.19679450 0.12250000 0.01244636
v 0.19506176 0.12192129 0.01038387
v 0.19487317 0.12129410 0.01017037
v 0.20152359 0.12500000 0.01925393
v 0.19873397 0.12500000 0.01500000
v 0.19679450 0.12250000 0.01244636
v 0.19777802 0.12482963 0.01370590
v 0.19777802 0.12482963 0.01370590
v 0.19683749 0.12433013 0.01250000
v 0.19679450 0.12250000 0.01244636
v 0.19598927 0.12353554 0.01146446
v 0.19562893 0.12305061 0.01103847
v 0.19777802 -0.12482963 0.01370589
v 0.19679450 -0.12250000 0.01244635
v 0.19683749 -0.12433013 0.01249999
v 0.19598927 -0.12353554 0.01146445
v 0.19506255 -0.12192342 0.01038475
v 0.19531161 -0.12250000 0.01066986
v 0.19679450 -0.12250000 0.01244635
v 0.19563106 -0.12305386 0.01104095
v 0.19598927 -0.12353554 0.01146445
v 0.19472136 -0.12000000 0.00999999
v 0.19476014 -0.12065744 0.01004340
v 0.19679450 -0.12250000 0.01244635
v 0.19487317 -0.12129410 0.01017036
v 0.19506255 -0.12192342 0.01038475
v 0.19472136 0.12000000 0.01000000
v 0.19472136 -0.12000000 0.00999999
v 0.20152359 -0.12500000 0.01925392
v 0.19679450 -0.12250000 0.01244635
v 0.19873397 -0.12500000 0.01499999
v 0.19777802 -0.12482963 0.01370589
v 0.19487317 0.12129410 0.01017037
v 0.19476020 0.12065793 0.01004347
v 0.19679450 0.12250000 0.01244636
v 0.19472136 0.12000000 0.01000000
v 0.20152359 0.12500000 0.01925393
v 0.20152359 -0.12500000 0.01925392
v 0.20643796 0.12500000 0.02963441
v 0.20643796 -0.12500000 0.02963440
v 0.20928443 0.12500000 0.04076110
v 0.20928443 -0.12500000 0.04076109
v 0.20995869 0.12500000 0.05222631
v 0.20995869 -0.12500000 0.05222629
v 0.20843603 0.12500000 0.06360994
v 0.20843603 -0.12500000 0.06360993
v 0.20477225 0.12500000 0.07449489
v 0.20477225 -0.12500000 0.07449488
v 0.19910160 0.12500000 0.08448235
v 0.19910160 -0.12500000 0.08448234
v 0.19163186 0.12500000 0.09320635
v 0.19163186 -0.12500000 0.09320634
v 0.18263668 0.12500000 0.10034726
v 0.18263668 -0.12500000 0.10034725
v 0.17244570 0.12500000 0.10564342
v 0.17244570 -0.12500000 0.10564341
v 0.16143230 0.12500000 0.10890078
v 0.16143230 -0.12500000 0.10890077
v 0.15000001 0.12500000 0.11000000
v 0.15000001 -0.12500000 0.10999999
v 0.13856772 0.12500000 0.10890078
v 0.13856772 -0.12500000 0.10890077
v 0.12755430 0.12500000 0.10564342
v 0.12755430 -0.12500000 0.10564341
v 0.11736332 0.12500000 0.10034727
v 0.11736332 -0.12500000 0.10034726
v 0.10836815 0.12500000 0.09320635
v 0.10836815 -0.12500000 0.09320634
v 0.10089840 0.12500000 0.08448235
v 0.10089840 -0.12500000 0.08448234
v 0.09522774 0.12500000 0.07449490
v 0.09522774 -0.12500000 0.07449489
v 0.09156397 0.12500000 0.06360994
v 0.09156397 -0.12500000 0.06360993
v 0.09004132 0.12500000 0.05222631
v 0.09004132 -0.12500000 0.05222630
v 0.09071558 0.12500000 0.04076111
v 0.09071558 -0.12500000 0.04076110
v 0.09356205 0.12500000 0.02963442
v 0.09356205 -0.12500000 0.02963441
v 0.09847642 0.12500000 0.01925393
v 0.09847642 -0.12500000 0.01925392
v 0.10527864 -0.12000000 0.00999999
v 0.10320550 -0.12250000 0.01244636
v 0.10523979 -0.12065793 0.01004347
v 0.10512684 -0.12129410 0.01017036
v -0.19562893 -0.12305062 0.01103847
v -0.19531161 -0.12250000 0.01066988
v -0.19679449 -0.12250000 0.01244637
v -0.19506176 -0.12192129 0.01038388
v -0.19487317 -0.12129410 0.01017037
v -0.20152359 -0.12500000 0.01925394
v -0.19873397 -0.12500000 0.01500000
v -0.19679449 -0.12250000 0.01244637
v -0.19777802 -0.12482963 0.01370591
v -0.19777802 -0.12482963 0.01370591
v -0.19683748 -0.12433013 0.01250000
v -0.19679449 -0.12250000 0.01244637
v -0.19598927 -0.12353554 0.01146447
v -0.19562893 -0.12305062 0.01103847
v -0.19777802 0.12482963 0.01370592
v -0.19679449 0.12250000 0.01244638
v -0.19683748 0.12433013 0.01250001
v -0.19598927 0.12353554 0.01146448
v -0.19506255 0.12192342 0.01038477
v -0.19531161 0.12250000 0.01066989
v -0.19679449 0.12250000 0.01244638
v -0.19563106 0.12305386 0.01104098
v -0.19598927 0.12353554 0.01146448
v -0.19472136 0.12000000 0.01000001
v -0.19476014 0.12065744 0.01004343
v -0.19679449 0.12250000 0.01244638
v -0.19487317 0.12129410 0.01017039
v -0.19506255 0.12192342 0.01038477
v -0.19472136 -0.12000000 0.01000000
v -0.19472136 0.12000000 0.01000001
v -0.20152359 0.12500000 0.01925395
v -0.19679449 0.12250000 0.01244638
v -0.19873397 0.12500000 0.01500001
v -0.19777802 0.12482963 0.01370592
v -0.10437107 0.12305061 0.01103848
v -0.10468840 0.12250000 0.01066988
v -0.10320550 0.12250000 0.01244638
v -0.10493824 0.12192129 0.01038388
v -0.10512683 0.12129410 0.01017038
v -0.09847642 0.12500000 0.01925394
v -0.10126603 0.12500000 0.01500001
v -0.10320550 0.12250000 0.01244638
v -0.10222199 0.12482963 0.01370591
v -0.10222199 0.12482963 0.01370591
v -0.10316251 0.12433013 0.01250001
v -0.10320550 0.12250000 0.01244638
v -0.10401073 0.12353554 0.01146448
v -0.10437107 0.12305061 0.01103848
v -0.10222199 -0.12482963 0.01370590
v -0.10320550 -0.12250000 0.01244637
v -0.10316251 -0.12433013 0.01250000
v -0.10401073 -0.12353554 0.01146447
v -0.10493746 -0.12192342 0.01038476
v -0.10468840 -0.12250000 0.01066987
v -0.10320550 -0.12250000 0.01244637
v -0.10436894 -0.12305386 0.01104097
v -0.10401073 -0.12353554 0.01146447
v -0.10527864 -0.12000000 0.01000000
v -0.10523985 -0.12065744 0.01004341
v -0.10320550 -0.12250000 0.01244637
v -0.10512683 -0.12129410 0.01017037
v -0.10493746 -0.12192342 0.01038476
v -0.10527864 0.12000000 0.01000001
v -0.10527864 -0.12000000 0.01000000
v -0.09847642 -0.12500000 0.01925393
v -0.10320550 -0.12250000 0.01244637
v -0.10126603 -0.12500000 0.01500000
v -0.10222199 -0.12482963 0.01370590
v -0.10512683 0.12129410 0.01017038
v -0.10523979 0.12065793 0.01004349
v -0.10320550 0.12250000 0.01244638
v -0.10527864 0.12000000 0.01000001
v -0.09847642 0.12500000 0.01925394
v -0.09847642 -0.12500000 0.01925393
v -0.09356204 0.12500000 0.02963443
v -0.09356204 -0.12500000 0.02963442
v -0.09071558 0.12500000 0.04076112
v -0.09071558 -0.12500000 0.04076110
v -0.09004131 0.12500000 0.05222632
v -0.09004131 -0.12500000 0.05222631
v -0.09156397 0.12500000 0.06360995
v -0.09156397 -0.12500000 0.06360994
v -0.09522774 0.12500000 0.07449491
v -0.09522774 -0.12500000 0.07449490
v -0.10089840 0.12500000 0.08448236
v -0.10089840 -0.12500000 0.08448235
v -0.10836815 0.12500000 0.09320636
v -0.10836815 -0.12500000 0.09320635
v -0.11736331 0.12500000 0.10034728
v -0.11736331 -0.12500000 0.10034727
v -0.12755429 0.12500000 0.10564343
v -0.12755429 -0.12500000 0.10564342
v -0.13856771 0.12500000 0.10890080
v -0.13856771 -0.12500000 0.10890079
v -0.15000000 0.12500000 0.11000001
v -0.15000000 -0.12500000 0.11000000
v -0.16143229 0.12500000 0.10890080
v -0.16143229 -0.12500000 0.10890079
v -0.17244569 0.12500000 0.10564343
v -0.17244569 -0.12500000 0.10564342
v -0.18263667 0.12500000 0.10034728
v -0.18263667 -0.12500000 0.10034727
v -0.19163185 0.12500000 0.09320637
v -0.19163185 -0.12500000 0.09320636
v -0.19910159 0.12500000 0.08448236
v -0.19910159 -0.12500000 0.08448235
v -0.20477225 0.12500000 0.07449491
v -0.20477225 -0.12500000 0.07449490
v -0.20843602 0.12500000 0.06360996
v -0.20843602 -0.12500000 0.06360995
v -0.20995869 0.12500000 0.05222632
v -0.20995869 -0.12500000 0.05222631
v -0.20928442 0.12500000 0.04076112
v -0.20928442 -0.12500000 0.04076111
v -0.20643796 0.12500000 0.02963443
v -0.20643796 -0.12500000 0.02963442
v -0.20152359 0.12500000 0.01925395
v -0.20152359 -0.12500000 0.01925394
v -0.19472136 -0.12000000 0.01000000
v -0.19679449 -0.12250000 0.01244637
v -0.19476020 -0.12065793 0.01004348
v -0.19487317 -0.12129410 0.01017037
v 0.19472136 -0.12000000 0.00999999
v 0.24000000 -0.12000000 0.00999998
v 0.19476014 -0.12065744 0.01004340
v 0.24000000 -0.12129410 0.01017036
v 0.19487317 -0.12129410 0.01017036
v 0.19487317 -0.12129410 0.01017036
v 0.24000000 -0.12129410 0.01017036
v 0.19506255 -0.12192342 0.01038475
v 0.24000000 -0.12250000 0.01066986
v 0.19531161 -0.12250000 0.01066986
v 0.19531161 -0.12250000 0.01066986
v 0.24000000 -0.12250000 0.01066986
v 0.19563106 -0.12305386 0.01104095
v 0.24000000 -0.12353554 0.01146445
v 0.19598927 -0.12353554 0.01146445
v 0.24000000 -0.12433013 0.01249998
v 0.19683749 -0.12433013 0.01249999
v 0.24000000 -0.12482963 0.01370589
v 0.19777802 -0.12482963 0.01370589
v 0.24000000 -0.12500000 0.01499998
v 0.19873397 -0.12500000 0.01499999
v 0.19873397 0.12500000 0.01500000
v 0.24000000 0.12500000 0.01499999
v 0.24000000 0.12482963 0.01370590
v 0.19873397 0.12500000 0.01500000
v 0.24000000 0.12482963 0.01370590
v 0.19777802 0.12482963 0.01370590
v 0.24000000 0.12433013 0.01250000
v 0.19683749 0.12433013 0.01250000
v 0.24000000 0.12353554 0.01146446
v 0.19598927 0.12353554 0.01146446
v 0.19598927 0.12353554 0.01146446
v 0.24000000 0.12353554 0.01146446
v 0.19562893 0.12305061 0.01103847
v 0.24000000 0.12250000 0.01066987
v 0.19531161 0.12250000 0.01066987
v 0.19531161 0.12250000 0.01066987
v 0.24000000 0.12250000 0.01066987
v 0.19506176 0.12192129 0.01038387
v 0.24000000 0.12129410 0.01017037
v 0.19487317 0.12129410 0.01017037
v 0.19487317 0.12129410 0.01017037
v 0.24000000 0.12129410 0.01017037
v 0.19476020 0.12065793 0.01004347
v 0.24000000 0.12000000 0.00999999
v 0.19472136 0.12000000 0.01000000
v 0.24500001 -0.11500000 0.00999998
v 0.24500001 0.11500000 0.00999999
v 0.24629410 0.11500000 0.01017037
v 0.24500001 -0.11500000 0.00999998
v 0.24629410 0.11500000 0.01017037
v 0.24629410 -0.11500000 0.01017036
v 0.24750000 0.11500000 0.01066987
v 0.24750000 -0.11500000 0.01066986
v 0.24853553 0.11500000 0.01146446
v 0.24853553 -0.11500000 0.01146445
v 0.24933013 0.11500000 0.01249999
v 0.24933013 -0.11500000 0.01249998
v 0.24982964 0.11500000 0.01370590
v 0.24982964 -0.11500000 0.01370589
v 0.25000000 0.11500000 0.01499999
v 0.25000000 -0.11500000 0.01499998
v 0.10527864 0.12000000 0.01000000
v -0.10527864 0.12000000 0.01000001
v -0.10523979 0.12065793 0.01004349
v 0.10527864 0.12000000 0.01000000
v -0.10523979 0.12065793 0.01004349
v 0.10523985 0.12065744 0.01004341
v -0.10512683 0.12129410 0.01017038
v 0.10512684 0.12129410 0.01017037
v 0.10512684 0.12129410 0.01017037
v -0.10512683 0.12129410 0.01017038
v 0.10493746 0.12192342 0.01038476
v -0.10493824 0.12192129 0.01038388
v 0.10468840 0.12250000 0.01066987
v -0.10468840 0.12250000 0.01066988
v 0.10436894 0.12305386 0.01104097
v -0.10437107 0.12305061 0.01103848
v 0.10401073 0.12353554 0.01146447
v -0.10437107 0.12305061 0.01103848
v -0.10401073 0.12353554 0.01146448
v 0.10401073 0.12353554 0.01146447
v -0.10316251 0.12433013 0.01250001
v 0.10316251 0.12433013 0.01250000
v -0.10222199 0.12482963 0.01370591
v 0.10222199 0.12482963 0.01370591
v -0.10126603 0.12500000 0.01500001
v 0.10126603 0.12500000 0.01500000
v -0.19873397 -0.12500000 0.01500000
v -0.23999999 -0.12500000 0.01500000
v -0.23999999 -0.12482963 0.01370591
v -0.19873397 -0.12500000 0.01500000
v -0.23999999 -0.12482963 0.01370591
v -0.19777802 -0.12482963 0.01370591
v -0.23999999 -0.12433013 0.01250001
v -0.19683748 -0.12433013 0.01250000
v -0.23999999 -0.12353554 0.01146447
v -0.19598927 -0.12353554 0.01146447
v -0.19598927 -0.12353554 0.01146447
v -0.23999999 -0.12353554 0.01146447
v -0.19562893 -0.12305062 0.01103847
v -0.23999999 -0.12250000 0.01066988
v -0.19531161 -0.12250000 0.01066988
v -0.19531161 -0.12250000 0.01066988
v -0.23999999 -0.12250000 0.01066988
v -0.19506176 -0.12192129 0.01038388
v -0.23999999 -0.12129410 0.01017038
v -0.19487317 -0.12129410 0.01017037
v -0.19487317 -0.12129410 0.01017037
v -0.23999999 -0.12129410 0.01017038
v -0.19476020 -0.12065793 0.01004348
v -0.23999999 -0.12000000 0.01000001
v -0.19472136 -0.12000000 0.01000000
v -0.25000000 -0.11500000 0.01500001
v -0.25000000 0.11500000 0.01500002
v -0.24982963 0.11500000 0.01370592
v -0.25000000 -0.11500000 0.01500001
v -0.24982963 0.11500000 0.01370592
v -0.24982963 -0.11500000 0.01370591
v -0.24933013 0.11500000 0.01250002
v -0.24933013 -0.11500000 0.01250001
v -0.24853553 0.11500000 0.01146448
v -0.24853553 -0.11500000 0.01146447
v -0.24750000 0.11500000 0.01066989
v -0.24750000 -0.11500000 0.01066988
v -0.24629410 0.11500000 0.01017039
v -0.24629410 -0.11500000 0.01017038
v -0.24500000 0.11500000 0.01000002
v -0.24500000 -0.11500000 0.01000001
v -0.19472136 0.12000000 0.01000001
v -0.23999999 0.12000000 0.01000002
v -0.19476014 0.12065744 0.01004343
v -0.23999999 0.12129410 0.01017039
v -0.19487317 0.12129410 0.01017039
v -0.19487317 0.12129410 0.01017039
v -0.23999999 0.12129410 0.01017039
v -0.19506255 0.12192342 0.01038477
v -0.23999999 0.12250000 0.01066989
v -0.19531161 0.12250000 0.01066989
v -0.19531161 0.12250000 0.01066989
v -0.23999999 0.12250000 0.01066989
v -0.19563106 0.12305386 0.01104098
v -0.23999999 0.12353554 0.01146448
v -0.19598927 0.12353554 0.01146448
v -0.23999999 0.12433013 0.01250002
v -0.19683748 0.12433013 0.01250001
v -0.23999999 0.12482963 0.01370592
v -0.19777802 0.12482963 0.01370592
v -0.23999999 0.12500000 0.01500002
v -0.19873397 0.12500000 0.01500001
v -0.10527864 -0.12000000 0.01000000
v 0.10527864 -0.12000000 0.00999999
v 0.10523979 -0.12065793 0.01004347
v -0.10527864 -0.12000000 0.01000000
v 0.10523979 -0.12065793 0.01004347
v -0.10523985 -0.12065744 0.01004341
v 0.10512684 -0.12129410 0.01017036
v -0.10512683 -0.12129410 0.01017037
v -0.10512683 -0.12129410 0.01017037
v 0.10512684 -0.12129410 0.01017036
v -0.10493746 -0.12192342 0.01038476
v 0.10493824 -0.12192129 0.01038386
v -0.10468840 -0.12250000 0.01066987
v 0.10468840 -0.12250000 0.01066986
v -0.10436894 -0.12305386 0.01104097
v 0.10437107 -0.12305062 0.01103846
v -0.10401073 -0.12353554 0.01146447
v 0.10437107 -0.12305062 0.01103846
v 0.10401073 -0.12353554 0.01146446
v -0.10401073 -0.12353554 0.01146447
v 0.10316251 -0.12433013 0.01249999
v -0.10316251 -0.12433013 0.01250000
v 0.10222199 -0.12482963 0.01370589
v -0.10222199 -0.12482963 0.01370590
v 0.10126603 -0.12500000 0.01499999
v -0.10126603 -0.12500000 0.01500000
v -0.24999999 -0.11500001 0.12500001
v -0.25000000 -0.11500000 0.01500001
v -0.24965925 -0.11758819 0.01500001
v -0.24999999 -0.11500001 0.12500001
v -0.24965925 -0.11758819 0.01500001
v -0.24965925 -0.11758820 0.12500001
v -0.24866025 -0.12000000 0.01500001
v -0.24866025 -0.12000000 0.12500001
v -0.24707107 -0.12207107 0.01500001
v -0.24707107 -0.12207107 0.12500001
v -0.24500000 -0.12366025 0.01500000
v -0.24500000 -0.12366026 0.12500001
v -0.24258819 -0.12465926 0.01500000
v -0.24258819 -0.12465926 0.12500001
v -0.23999999 -0.12500000 0.01500000
v -0.23999999 -0.12500001 0.12500001
v -0.23999999 -0.12500000 0.01500000
v -0.24258819 -0.12465926 0.01500000
v -0.23999999 -0.12482963 0.01370591
v -0.24254410 -0.12449469 0.01370591
v -0.23999999 -0.12433013 0.01250001
v -0.24241482 -0.12401221 0.01250001
v -0.23999999 -0.12353554 0.01146447
v -0.24220915 -0.12324470 0.01146447
v -0.23999999 -0.12250000 0.01066988
v -0.24194114 -0.12224444 0.01066988
v -0.23999999 -0.12129410 0.01017038
v -0.24162903 -0.12107963 0.01017038
v -0.23999999 -0.12000000 0.01000001
v -0.24129410 -0.11982963 0.01000001
v -0.24258819 -0.12465926 0.01500000
v -0.24500000 -0.12366025 0.01500000
v -0.24254410 -0.12449469 0.01370591
v -0.24491481 -0.12351271 0.01370591
v -0.24241482 -0.12401221 0.01250001
v -0.24466506 -0.12308013 0.01250001
v -0.24220915 -0.12324470 0.01146447
v -0.24426776 -0.12239199 0.01146447
v -0.24194114 -0.12224444 0.01066988
v -0.24375001 -0.12149519 0.01066988
v -0.24162903 -0.12107963 0.01017038
v -0.24314704 -0.12045085 0.01017038
v -0.24129410 -0.11982963 0.01000001
v -0.24250001 -0.11933013 0.01000001
v -0.24500000 -0.12366025 0.01500000
v -0.24707107 -0.12207107 0.01500001
v -0.24491481 -0.12351271 0.01370591
v -0.24695060 -0.12195060 0.01370591
v -0.24466506 -0.12308013 0.01250001
v -0.24659739 -0.12159739 0.01250001
v -0.24426776 -0.12239199 0.01146447
v -0.24603553 -0.12103553 0.01146447
v -0.24375001 -0.12149519 0.01066988
v -0.24530330 -0.12030330 0.01066988
v -0.24314704 -0.12045085 0.01017038
v -0.24445060 -0.11945060 0.01017038
v -0.24250001 -0.11933013 0.01000001
v -0.24353553 -0.11853553 0.01000001
v -0.24707107 -0.12207107 0.01500001
v -0.24866025 -0.12000000 0.01500001
v -0.24695060 -0.12195060 0.01370591
v -0.24851271 -0.11991482 0.01370591
v -0.24659739 -0.12159739 0.01250001
v -0.24808013 -0.11966506 0.01250001
v -0.24603553 -0.12103553 0.01146447
v -0.24739198 -0.11926777 0.01146447
v -0.24530330 -0.12030330 0.01066988
v -0.24649519 -0.11875000 0.01066988
v -0.24445060 -0.11945060 0.01017038
v -0.24545084 -0.11814705 0.01017038
v -0.24353553 -0.11853553 0.01000001
v -0.24433012 -0.11750000 0.01000001
v -0.24866025 -0.12000000 0.01500001
v -0.24965925 -0.11758819 0.01500001
v -0.24851271 -0.11991482 0.01370591
v -0.24949469 -0.11754409 0.01370591
v -0.24808013 -0.11966506 0.01250001
v -0.24901222 -0.11741482 0.01250001
v -0.24739198 -0.11926777 0.01146447
v -0.24824469 -0.11720916 0.01146447
v -0.24649519 -0.11875000 0.01066988
v -0.24724445 -0.11694115 0.01066988
v -0.24545084 -0.11814705 0.01017038
v -0.24607962 -0.11662903 0.01017038
v -0.24433012 -0.11750000 0.01000001
v -0.24482962 -0.11629409 0.01000001
v -0.24965925 -0.11758819 0.01500001
v -0.25000000 -0.11500000 0.01500001
v -0.24949469 -0.11754409 0.01370591
v -0.24982963 -0.11500000 0.01370591
v -0.24901222 -0.11741482 0.01250001
v -0.24933013 -0.11500000 0.01250001
v -0.24824469 -0.11720916 0.01146447
v -0.24853553 -0.11500000 0.01146447
v -0.24724445 -0.11694115 0.01066988
v -0.24750000 -0.11500000 0.01066988
v -0.24607962 -0.11662903 0.01017038
v -0.24629410 -0.11500000 0.01017038
v -0.24482962 -0.11629409 0.01000001
v -0.24500000 -0.11500000 0.01000001
v -0.23999999 0.12499999 0.12500002
v -0.23999999 0.12500000 0.01500002
v -0.24258819 0.12465925 0.01500002
v -0.23999999 0.12499999 0.12500002
v -0.24258819 0.12465925 0.01500002
v -0.24258819 0.12465925 0.12500002
v -0.24500000 0.12366025 0.01500002
v -0.24500000 0.12366025 0.12500002
v -0.24707107 0.12207106 0.01500002
v -0.24707107 0.12207106 0.12500002
v -0.24866025 0.12000000 0.01500002
v -0.24866025 0.11999999 0.12500002
v -0.24965925 0.11758819 0.01500002
v -0.24965925 0.11758819 0.12500002
v -0.25000000 0.11500000 0.01500002
v -0.24999999 0.11500000 0.12500002
v -0.25000000 0.11500000 0.01500002
v -0.24965925 0.11758819 0.01500002
v -0.24982963 0.11500000 0.01370592
v -0.24949469 0.11754409 0.01370592
v -0.24933013 0.11500000 0.01250002
v -0.24901222 0.11741482 0.01250002
v -0.24853553 0.11500000 0.01146448
v -0.24824469 0.11720916 0.01146448
v -0.24750000 0.11500000 0.01066989
v -0.24724445 0.11694115 0.01066989
v -0.24629410 0.11500000 0.01017039
v -0.24607962 0.11662903 0.01017039
v -0.24500000 0.11500000 0.01000002
v -0.24482962 0.11629409 0.01000002
v -0.24965925 0.11758819 0.01500002
v -0.24866025 0.12000000 0.01500002
v -0.24949469 0.11754409 0.01370592
v -0.24851271 0.11991481 0.01370592
v -0.24901222 0.11741482 0.01250002
v -0.24808013 0.11966506 0.01250002
v -0.24824469 0.11720916 0.01146448
v -0.24739198 0.11926777 0.01146448
v -0.24724445 0.11694115 0.01066989
v -0.24649519 0.11875000 0.01066989
v -0.24607962 0.11662903 0.01017039
v -0.24545084 0.11814704 0.01017039
v -0.24482962 0.11629409 0.01000002
v -0.24433012 0.11750000 0.01000002
v -0.24866025 0.12000000 0.01500002
v -0.24707107 0.12207106 0.01500002
v -0.24851271 0.11991481 0.01370592
v -0.24695060 0.12195060 0.01370592
v -0.24808013 0.11966506 0.01250002
v -0.24659739 0.12159739 0.01250002
v -0.24739198 0.11926777 0.01146448
v -0.24603553 0.12103553 0.01146448
v -0.24649519 0.11875000 0.01066989
v -0.24530330 0.12030330 0.01066989
v -0.24545084 0.11814704 0.01017039
v -0.24445060 0.11945060 0.01017039
v -0.24433012 0.11750000 0.01000002
v -0.24353553 0.11853553 0.01000002
v -0.24707107 0.12207106 0.01500002
v -0.24500000 0.12366025 0.01500002
v -0.24695060 0.12195060 0.01370592
v -0.24491481 0.12351271 0.01370592
v -0.24659739 0.12159739 0.01250002
v -0.24466506 0.12308013 0.01250002
v -0.24603553 0.12103553 0.01146448
v -0.24426776 0.12239199 0.01146448
v -0.24530330 0.12030330 0.01066989
v -0.24375001 0.12149519 0.01066989
v -0.24445060 0.11945060 0.01017039
v -0.24314704 0.12045085 0.01017039
v -0.24353553 0.11853553 0.01000002
v -0.24250001 0.11933013 0.01000002
v -0.24500000 0.12366025 0.01500002
v -0.24258819 0.12465925 0.01500002
v -0.24491481 0.12351271 0.01370592
v -0.24254410 0.12449469 0.01370592
v -0.24466506 0.12308013 0.01250002
v -0.24241482 0.12401221 0.01250002
v -0.24426776 0.12239199 0.01146448
v -0.24220915 0.12324469 0.01146448
v -0.24375001 0.12149519 0.01066989
v -0.24194114 0.12224444 0.01066989
v -0.24314704 0.12045085 0.01017039
v -0.24162903 0.12107963 0.01017039
v -0.24250001 0.11933013 0.01000002
v -0.24129410 0.11982963 0.01000002
v -0.24258819 0.12465925 0.01500002
v -0.23999999 0.12500000 0.01500002
v -0.24254410 0.12449469 0.01370592
v -0.23999999 0.12482963 0.01370592
v -0.24241482 0.12401221 0.01250002
v -0.23999999 0.12433013 0.01250002
v -0.24220915 0.12324469 0.01146448
v -0.23999999 0.12353554 0.01146448
v -0.24194114 0.12224444 0.01066989
v -0.23999999 0.12250000 0.01066989
v -0.24162903 0.12107963 0.01017039
v -0.23999999 0.12129410 0.01017039
v -0.24129410 0.11982963 0.01000002
v -0.23999999 0.12000000 0.01000002
v 0.25000001 0.11500000 0.12499999
v 0.25000000 0.11500000 0.01499999
v 0.24965926 0.11758819 0.01499999
v 0.25000001 0.11500000 0.12499999
v 0.24965926 0.11758819 0.01499999
v 0.24965926 0.11758819 0.12499999
v 0.24866025 0.12000000 0.01499999
v 0.24866026 0.11999999 0.12499999
v 0.24707107 0.12207106 0.01499999
v 0.24707108 0.12207106 0.12499999
v 0.24500001 0.12366025 0.01499999
v 0.24500001 0.12366025 0.12499999
v 0.24258819 0.12465925 0.01499999
v 0.24258820 0.12465925 0.12499999
v 0.24000000 0.12500000 0.01499999
v 0.24000000 0.12499999 0.12499999
v 0.24000000 0.12500000 0.01499999
v 0.24258819 0.12465925 0.01499999
v 0.24000000 0.12482963 0.01370590
v 0.24254410 0.12449469 0.01370590
v 0.24000000 0.12433013 0.01250000
v 0.24241482 0.12401221 0.01250000
v 0.24000000 0.12353554 0.01146446
v 0.24220915 0.12324469 0.01146446
v 0.24000000 0.12250000 0.01066987
v 0.24194114 0.12224444 0.01066987
v 0.24000000 0.12129410 0.01017037
v 0.24162903 0.12107963 0.01017037
v 0.24000000 0.12000000 0.00999999
v 0.24129410 0.11982963 0.00999999
v 0.24258819 0.12465925 0.01499999
v 0.24500001 0.12366025 0.01499999
v 0.24254410 0.12449469 0.01370590
v 0.24491482 0.12351271 0.01370590
v 0.24241482 0.12401221 0.01250000
v 0.24466506 0.12308013 0.01249999
v 0.24220915 0.12324469 0.01146446
v 0.24426776 0.12239199 0.01146446
v 0.24194114 0.12224444 0.01066987
v 0.24375001 0.12149519 0.01066987
v 0.24162903 0.12107963 0.01017037
v 0.24314705 0.12045085 0.01017037
v 0.24129410 0.11982963 0.00999999
v 0.24250001 0.11933013 0.00999999
v 0.24500001 0.12366025 0.01499999
v 0.24707107 0.12207106 0.01499999
v 0.24491482 0.12351271 0.01370590
v 0.24695060 0.12195060 0.01370590
v 0.24466506 0.12308013 0.01249999
v 0.24659739 0.12159739 0.01249999
v 0.24426776 0.12239199 0.01146446
v 0.24603553 0.12103553 0.01146446
v 0.24375001 0.12149519 0.01066987
v 0.24530330 0.12030330 0.01066987
v 0.24314705 0.12045085 0.01017037
v 0.24445060 0.11945060 0.01017037
v 0.24250001 0.11933013 0.00999999
v 0.24353553 0.11853553 0.00999999
v 0.24707107 0.12207106 0.01499999
v 0.24866025 0.12000000 0.01499999
v 0.24695060 0.12195060 0.01370590
v 0.24851272 0.11991481 0.01370590
v 0.24659739 0.12159739 0.01249999
v 0.24808013 0.11966506 0.01249999
v 0.24603553 0.12103553 0.01146446
v 0.24739198 0.11926777 0.01146446
v 0.24530330 0.12030330 0.01066987
v 0.24649519 0.11875000 0.01066987
v 0.24445060 0.11945060 0.01017037
v 0.24545084 0.11814704 0.01017037
v 0.24353553 0.11853553 0.00999999
v 0.24433012 0.11750000 0.00999999
v 0.24866025 0.12000000 0.01499999
v 0.24965926 0.11758819 0.01499999
v 0.24851272 0.11991481 0.01370590
v 0.24949469 0.11754409 0.01370590
v 0.24808013 0.11966506 0.01249999
v 0.24901222 0.11741482 0.01249999
v 0.24739198 0.11926777 0.01146446
v 0.24824469 0.11720916 0.01146446
v 0.24649519 0.11875000 0.01066987
v 0.24724445 0.11694115 0.01066987
v 0.24545084 0.11814704 0.01017037
v 0.24607962 0.11662903 0.01017037
v 0.24433012 0.11750000 0.00999999
v 0.24482963 0.11629409 0.00999999
v 0.24965926 0.11758819 0.01499999
v 0.25000000 0.11500000 0.01499999
v 0.24949469 0.11754409 0.01370590
v 0.24982964 0.11500000 0.01370590
v 0.24901222 0.11741482 0.01249999
v 0.24933013 0.11500000 0.01249999
v 0.24824469 0.11720916 0.01146446
v 0.24853553 0.11500000 0.01146446
v 0.24724445 0.11694115 0.01066987
v 0.24750000 0.11500000 0.01066987
v 0.24607962 0.11662903 0.01017037
v 0.24629410 0.11500000 0.01017037
v 0.24482963 0.11629409 0.00999999
v 0.24500001 0.11500000 0.00999999
v 0.24000000 -0.12500001 0.12499998
v 0.24000000 -0.12500000 0.01499998
v 0.24258819 -0.12465926 0.01499998
v 0.24000000 -0.12500001 0.12499998
v 0.24258819 -0.12465926 0.01499998
v 0.24258820 -0.12465926 0.12499998
v 0.24500001 -0.12366025 0.01499998
v 0.24500001 -0.12366026 0.12499998
v 0.24707107 -0.12207107 0.01499998
v 0.24707108 -0.12207107 0.12499998
v 0.24866025 -0.12000000 0.01499998
v 0.24866026 -0.12000000 0.12499998
v 0.24965926 -0.11758819 0.01499998
v 0.24965926 -0.11758820 0.12499998
v 0.25000000 -0.11500000 0.01499998
v 0.25000001 -0.11500001 0.12499998
v 0.25000000 -0.11500000 0.01499998
v 0.24965926 -0.11758819 0.01499998
v 0.24982964 -0.11500000 0.01370589
v 0.24949469 -0.11754409 0.01370589
v 0.24933013 -0.11500000 0.01249998
v 0.24901222 -0.11741482 0.01249998
v 0.24853553 -0.11500000 0.01146445
v 0.24824469 -0.11720916 0.01146445
v 0.24750000 -0.11500000 0.01066986
v 0.24724445 -0.11694115 0.01066986
v 0.24629410 -0.11500000 0.01017036
v 0.24607962 -0.11662903 0.01017036
v 0.24500001 -0.11500000 0.00999998
v 0.24482963 -0.11629409 0.00999998
v 0.24965926 -0.11758819 0.01499998
v 0.24866025 -0.12000000 0.01499998
v 0.24949469 -0.11754409 0.01370589
v 0.24851272 -0.11991482 0.01370589
v 0.24901222 -0.11741482 0.01249998
v 0.24808013 -0.11966506 0.01249998
v 0.24824469 -0.11720916 0.01146445
v 0.24739198 -0.11926777 0.01146445
v 0.24724445 -0.11694115 0.01066986
v 0.24649519 -0.11875000 0.01066986
v 0.24607962 -0.11662903 0.01017036
v 0.24545084 -0.11814705 0.01017036
v 0.24482963 -0.11629409 0.00999998
v 0.24433012 -0.11750000 0.00999998
v 0.24866025 -0.12000000 0.01499998
v 0.24707107 -0.12207107 0.01499998
v 0.24851272 -0.11991482 0.01370589
v 0.24695060 -0.12195060 0.01370589
v 0.24808013 -0.11966506 0.01249998
v 0.24659739 -0.12159739 0.01249998
v 0.24739198 -0.11926777 0.01146445
v 0.24603553 -0.12103553 0.01146445
v 0.24649519 -0.11875000 0.01066986
v 0.24530330 -0.12030330 0.01066986
v 0.24545084 -0.11814705 0.01017036
v 0.24445060 -0.11945060 0.01017036
v 0.24433012 -0.11750000 0.00999998
v 0.24353553 -0.11853553 0.00999998
v 0.24707107 -0.12207107 0.01499998
v 0.24500001 -0.12366025 0.01499998
v 0.24695060 -0.12195060 0.01370589
v 0.24491482 -0.12351271 0.01370589
v 0.24659739 -0.12159739 0.01249998
v 0.24466506 -0.12308013 0.01249998
v 0.24603553 -0.12103553 0.01146445
v 0.24426776 -0.12239199 0.01146445
v 0.24530330 -0.12030330 0.01066986
v 0.24375001 -0.12149519 0.01066986
v 0.24445060 -0.11945060 0.01017036
v 0.24314705 -0.12045085 0.01017036
v 0.24353553 -0.11853553 0.00999998
v 0.24250001 -0.11933013 0.00999998
v 0.24500001 -0.12366025 0.01499998
v 0.24258819 -0.12465926 0.01499998
v 0.24491482 -0.12351271 0.01370589
v 0.24254410 -0.12449469 0.01370589
v 0.24466506 -0.12308013 0.01249998
v 0.24241482 -0.12401221 0.01249998
v 0.24426776 -0.12239199 0.01146445
v 0.24220915 -0.12324470 0.01146445
v 0.24375001 -0.12149519 0.01066986
v 0.24194114 -0.12224444 0.01066986
v 0.24314705 -0.12045085 0.01017036
v 0.24162903 -0.12107963 0.01017036
v 0.24250001 -0.11933013 0.00999998
v 0.24129410 -0.11982963 0.00999998
v 0.24258819 -0.12465926 0.01499998
v 0.24000000 -0.12500000 0.01499998
v 0.24254410 -0.12449469 0.01370589
v 0.24000000 -0.12482963 0.01370589
v 0.24241482 -0.12401221 0.01249998
v 0.24000000 -0.12433013 0.01249998
v 0.24220915 -0.12324470 0.01146445
v 0.24000000 -0.12353554 0.01146445
v 0.24194114 -0.12224444 0.01066986
v 0.24000000 -0.12250000 0.01066986
v 0.24162903 -0.12107963 0.01017036
v 0.24000000 -0.12129410 0.01017036
v 0.24129410 -0.11982963 0.00999998
v 0.24000000 -0.12000000 0.00999998
vt 0.00000000 0.00000000
vt 0.00000000 0.00000000
vt 0.00000000 0.00000000
vt 0.00000000 0.00000000
vt 0.00000000 0.00000000
vt 0.00000000 0.00000000
vt 0.00000000 0.00000000
vt 0.00000000 0.00000000
vt 0.00000000 0.00000000
vt 0.00000000 0.00000000
vt 0.00000000 0.00000000
vt 0.00000000 0.00000000
vt 0.00000000 0.00000000
vt 0.00000000 0.00000000
vt 0.00000000 0.00000000
vt 0.00000000 0.00000000
vt 0.00000000 0.00000000
vt 0.00000000 0.00000000
vt 0.00000000 0.00000000
vt 0.00000000 0.00000000
vt 0.00000000 0.00000000
vt 0.00000000 0.00000000
vt 0.00000000 0.00000000
vt 0.00000000 0.00000000
vt 0.00000000 0.00000000
vt 0.00000000 0.00000000
vt 0.00000000 0.00000000
vt 0.00000000 0.00000000
vt 0.00000000 0.00000000
vt 0.00000000 0.00000000
vt 0.00000000 0.00000000
vt 0.00000000 0.00000000
vt 0.00000000 0.00000000
vt 0.00000000 0.00000000
vt 0.00000000 0.00000000
vt 0.00000000 0.00000000
vt 0.00000000 0.00000000
vt 0.00000000 0.00000000
vt 0.00000000 0.00000000
vt 0.00000000 0.00000000
vt 0.00000000 0.00000000
vt 0.00000000 0.00000000
vt 0.00000000 0.00000000
vt 0.00000000 0.00000000
vt 0.00000000 0.00000000
vt 0.00000000 0.00000000
vt 0.00000000 0.00000000
vt 0.00000000 0.00000000
vt 0.00000000 0.00000000
vt 0.00000000 0.00000000
vt 0.00000000 0.00000000
vt 0.00000000 0.00000000
vt 0.00000000 0.00000000
vt 0.00000000 0.00000000
vt 0.00000000 0.00000000
vt 0.00000000 0.00000000
vt 0.00000000 0.00000000
vt 0.00000000 0.00000000
vt 0.00000000 0.00000000
vt 0.00000000 0.00000000
vt 0.00000000 0.00000000
vt 0.00000000 0.00000000
vt 0.00000000 0.00000000
vt 0.00000000 0.00000000
vt 0.00000000 0.00000000
vt 0.00000000 0.00000000
vt 0.00000000 0.00000000
vt 0.00000000 0.00000000
vt 0.00000000 0.00000000
vt 0.00000000 0.00000000
vt 0.00000000 0.00000000
vt 0.00000000 0.00000000
vt 0.00000000 0.00000000
vt 0.00000000 0.00000000
vt 0.00000000 0.00000000
vt 0.00000000 0.00000000
vt 0.00000000 0.00000000
vt 0.00000000 0.00000000
vt 0.00000000 0.00000000
vt 0.00000000 0.00000000
vt 0.00000000 0.00000000
vt 0.00000000 0.00000000
vt 0.00000000 0.00000000
vt 0.00000000 0.00000000
vt 0.00000000 0.00000000
vt 0.00000000 0.00000000
vt 0.00000000 0.00000000
vt 0.00000000 0.00000000
vt 0.00000000 0.00000000
vt 0.00000000 0.00000000
vt 0.00000000 0.00000000
vt 0.00000000 0.00000000
vt 0.00000000 0.00000000
vt 0.00000000 0.00000000
vt 0.00000000 0.00000000
vt 0.00000000 0.00000000
vt 0.00000000 0.00000000
vt 0.00000000 0.00000000
vt 0.00000000 0.00000000
vt 0.00000000 0.00000000
vt 0.00000000 0.00000000
vt 0.00000000 0.00000000
vt 0.00000000 0.00000000
vt 0.00000000 0.00000000
vt 0.00000000 0.00000000
vt 0.00000000 0.00000000
vt 0.00000000 0.00000000
vt 0.00000000 0.00000000
vt 0.00000000 0.00000000
vt 0.00000000 0.00000000
vt 0.00000000 0.00000000
vt 0.00000000 0.00000000
vt 0.00000000 0.00000000
vt 0.00000000 0.00000000
vt 0.00000000 0.00000000
vt 0.00000000 0.00000000
vt 0.00000000 0.00000000
vt 0.00000000 0.00000000
vt 0.00000000 0.00000000
vt 0.00000000 0.00000000
vt 0.00000000 0.00000000
vt 0.00000000 0.00000000
vt 0.00000000 0.00000000
vt 0.00000000 0.00000000
vt 0.00000000 0.00000000
vt 0.00000000 0.00000000
vt 0.00000000 0.00000000
vt 0.00000000 0.00000000
vt 0.00000000 0.00000000
vt 0.00000000 0.00000000
vt 0.00000000 0.00000000
vt 0.00000000 0.00000000
vt 0.00000000 0.00000000
vt 0.00000000 0.00000000
vt 0.00000000 0.00000000
vt 0.00000000 0.00000000
vt 0.00000000 0.00000000
vt 0.00000000 0.00000000
vt 0.00000000 0.00000000
vt 0.00000000 0.00000000
vt 0.00000000 0.00000000
vt 0.00000000 0.00000000
vt 0.00000000 0.00000000
vt 0.00000000 0.00000000
vt 0.00000000 0.00000000
vt 0.00000000 0.00000000
vt 0.00000000 0.00000000
vt 0.00000000 0.00000000
vt 0.00000000 0.00000000
vt 0.00000000 0.00000000
vt 0.00000000 0.00000000
vt 0.00000000 0.00000000
vt 0.00000000 0.00000000
vt 0.00000000 0.00000000
vt 0.00000000 0.00000000
vt 0.00000000 0.00000000
vt 0.00000000 0.00000000
vt 0.00000000 0.00000000
vt 0.00000000 0.00000000
vt 0.00000000 0.00000000
vt 0.00000000 0.00000000
vt 0.00000000 0.00000000
vt 0.00000000 0.00000000
vt 0.00000000 0.00000000
vt 0.00000000 0.00000000
vt 0.00000000 0.00000000
vt 0.00000000 0.00000000
vt 0.00000000 0.00000000
vt 0.00000000 0.00000000
vt 0.00000000 0.00000000
vt 0.00000000 0.00000000
vt 0.00000000 0.00000000
vt 0.00000000 0.00000000
vt 0.00000000 0.00000000
vt 0.00000000 0.00000000
vt 0.00000000 0.00000000
vt 0.00000000 0.00000000
vt 0.00000000 0.00000000
vt 0.00000000 0.00000000
vt 0.00000000 0.00000000
vt 0.00000000 0.00000000
vt 0.00000000 0.00000000
vt 0.00000000 0.00000000
vt 0.00000000 0.00000000
vt 0.00000000 0.00000000
vt 0.00000000 0.00000000
vt 0.00000000 0.00000000
vt 0.00000000 0.00000000
vt 0.00000000 0.00000000
vt 0.00000000 0.00000000
vt 0.00000000 0.00000000
vt 0.00000000 0.00000000
vt 0.00000000 0.00000000
vt 0.00000000 0.00000000
vt 0.00000000 0.00000000
vt 0.00000000 0.00000000
vt 0.00000000 0.00000000
vt 0.00000000 0.00000000
vt 0.00000000 0.00000000
vt 0.00000000 0.00000000
vt 0.00000000 0.00000000
vt 0.00000000 0.00000000
vt 0.00000000 0.00000000
vt 0.00000000 0.00000000
vt 0.00000000 0.00000000
vt 0.00000000 0.00000000
vt 0.00000000 0.00000000
vt 0.00000000 0.00000000
vt 0.00000000 0.00000000
vt 0.00000000 0.00000000
vt 0.00000000 0.00000000
vt 0.00000000 0.00000000
vt 0.00000000 0.00000000
vt 0.00000000 0.00000000
vt 0.00000000 0.00000000
vt 0.00000000 0.00000000
vt 0.00000000 0.00000000
vt 0.00000000 0.00000000
vt 0.00000000 0.00000000
vt 0.00000000 0.00000000
vt 0.00000000 0.00000000
vt 0.00000000 0.00000000
vt 0.00000000 0.00000000
vt 0.00000000 0.00000000
vt 0.00000000 0.00000000
vt 0.00000000 0.00000000
vt 0.00000000 0.00000000
vt 0.00000000 0.00000000
vt 0.00000000 0.00000000
vt 0.00000000 0.00000000
vt 0.00000000 0.00000000
vt 0.00000000 0.00000000
vt 0.00000000 0.00000000
vt 0.00000000 0.00000000
vt 0.00000000 0.00000000
vt 0.00000000 0.00000000
vt 0.00000000 0.00000000
vt 0.00000000 0.00000000
vt 0.00000000 0.00000000
vt 0.00000000 0.00000000
vt 0.00000000 0.00000000
vt 0.00000000 0.00000000
vt 0.00000000 0.00000000
vt 0.00000000 0.00000000
vt 0.00000000 0.00000000
vt 0.00000000 0.00000000
vt 0.00000000 0.00000000
vt 0.00000000 0.00000000
vt 0.00000000 0.00000000
vt 0.00000000 0.00000000
vt 0.00000000 0.00000000
vt 0.00000000 0.00000000
vt 0.00000000 0.00000000
vt 0.00000000 0.00000000
vt 0.00000000 0.00000000
vt 0.00000000 0.00000000
vt 0.00000000 0.00000000
vt 0.00000000 0.00000000
vt 0.00000000 0.00000000
vt 0.00000000 0.00000000
vt 0.00000000 0.00000000
vt 0.00000000 0.00000000
vt 0.00000000 0.00000000
vt 0.00000000 0.00000000
vt 0.00000000 0.00000000
vt 0.00000000 0.00000000
vt 0.00000000 0.00000000
vt 0.00000000 0.00000000
vt 0.00000000 0.00000000
vt 0.00000000 0.00000000
vt 0.00000000 0.00000000
vt 0.00000000 0.00000000
vt 0.00000000 0.00000000
vt 0.00000000 0.00000000
vt 0.00000000 0.00000000
vt 0.00000000 0.00000000
vt 0.00000000 0.00000000
vt 0.00000000 0.00000000
vt 0.00000000 0.00000000
vt 0.00000000 0.00000000
vt 0.00000000 0.00000000
vt 0.00000000 0.00000000
vt 0.00000000 0.00000000
vt 0.00000000 0.00000000
vt 0.00000000 0.00000000
vt 0.00000000 0.00000000
vt 0.00000000 0.00000000
vt 0.00000000 0.00000000
vt 0.00000000 0.00000000
vt 0.00000000 0.00000000
vt 0.00000000 0.00000000
vt 0.00000000 0.00000000
vt 0.00000000 0.00000000
vt 0.00000000 0.00000000
vt 0.00000000 0.00000000
vt 0.00000000 0.00000000
vt 0.00000000 0.00000000
vt 0.00000000 0.00000000
vt 0.00000000 0.00000000
vt 0.00000000 0.00000000
vt 0.00000000 0.00000000
vt 0.00000000 0.00000000
vt 0.00000000 0.00000000
vt 0.00000000 0.00000000
vt 0.00000000 0.00000000
vt 0.00000000 0.00000000
vt 0.00000000 0.00000000
vt 0.00000000 0.00000000
vt 0.00000000 0.00000000
vt 0.00000000 0.00000000
vt 0.00000000 0.00000000
vt 0.00000000 0.00000000
vt 0.00000000 0.00000000
vt 0.00000000 0.00000000
vt 0.00000000 0.00000000
vt 0.00000000 0.00000000
vt 0.00000000 0.00000000
vt 0.00000000 0.00000000
vt 0.00000000 0.00000000
vt 0.00000000 0.00000000
vt 0.00000000 0.00000000
vt 0.00000000 0.00000000
vt 0.00000000 0.00000000
vt 0.00000000 0.00000000
vt 0.00000000 0.00000000
vt 0.00000000 0.00000000
vt 0.00000000 0.00000000
vt 0.00000000 0.00000000
vt 0.00000000 0.00000000
vt 0.00000000 0.00000000
vt 0.00000000 0.00000000
vt 0.00000000 0.00000000
vt 0.00000000 0.00000000
vt 0.00000000 0.00000000
vt 0.00000000 0.00000000
vt 0.00000000 0.00000000
vt 0.00000000 0.00000000
vt 0.00000000 0.00000000
vt 0.00000000 0.00000000
vt 0.00000000 0.00000000
vt 0.00000000 0.00000000
vt 0.00000000 0.00000000
vt 0.00000000 0.00000000
vt 0.00000000 0.00000000
vt 0.00000000 0.00000000
vt 0.00000000 0.00000000
vt 0.00000000 0.00000000
vt 0.00000000 0.00000000
vt 0.00000000 0.00000000
vt 0.00000000 0.00000000
vt 0.00000000 0.00000000
vt 0.00000000 0.00000000
vt 0.00000000 0.00000000
vt 0.00000000 0.00000000
vt 0.00000000 0.00000000
vt 0.00000000 0.00000000
vt 0.00000000 0.00000000
vt 0.00000000 0.00000000
vt 0.00000000 0.00000000
vt 0.00000000 0.00000000
vt 0.00000000 0.00000000
vt 0.00000000 0.00000000
vt 0.00000000 0.00000000
vt 0.00000000 0.00000000
vt 0.00000000 0.00000000
vt 0.00000000 0.00000000
vt 0.00000000 0.00000000
vt 0.00000000 0.00000000
vt 0.00000000 0.00000000
vt 0.00000000 0.00000000
vt 0.00000000 0.00000000
vt 0.00000000 0.00000000
vt 0.00000000 0.00000000
vt 0.00000000 0.00000000
vt 0.00000000 0.00000000
vt 0.00000000 0.00000000
vt 0.00000000 0.00000000
vt 0.00000000 0.00000000
vt 0.00000000 0.00000000
vt 0.00000000 0.00000000
vt 0.00000000 0.00000000
vt 0.00000000 0.00000000
vt 0.00000000 0.00000000
vt 0.00000000 0.00000000
vt 0.00000000 0.00000000
vt 0.00000000 0.00000000
vt 0.00000000 0.00000000
vt 0.00000000 0.00000000
vt 0.00000000 0.00000000
vt 0.00000000 0.00000000
vt 0.00000000 0.00000000
vt 0.00000000 0.00000000
vt 0.00000000 0.00000000
vt 0.00000000 0.00000000
vt 0.00000000 0.00000000
vt 0.00000000 0.00000000
vt 0.00000000 0.00000000
vt 0.00000000 0.00000000
vt 0.00000000 0.00000000
vt 0.00000000 0.00000000
vt 0.00000000 0.00000000
vt 0.00000000 0.00000000
vt 0.00000000 0.00000000
vt 0.00000000 0.00000000
vt 0.00000000 0.00000000
vt 0.00000000 0.00000000
vt 0.00000000 0.00000000
vt 0.00000000 0.00000000
vt 0.00000000 0.00000000
vt 0.00000000 0.00000000
vt 0.00000000 0.00000000
vt 0.00000000 0.00000000
vt 0.00000000 0.00000000
vt 0.00000000 0.00000000
vt 0.00000000 0.00000000
vt 0.00000000 0.00000000
vt 0.00000000 0.00000000
vt 0.00000000 0.00000000
vt 0.00000000 0.00000000
vt 0.00000000 0.00000000
vt 0.00000000 0.00000000
vt 0.00000000 0.00000000
vt 0.00000000 0.00000000
vt 0.00000000 0.00000000
vt 0.00000000 0.00000000
vt 0.00000000 0.00000000
vt 0.00000000 0.00000000
vt 0.00000000 0.00000000
vt 0.00000000 0.00000000
vt 0.00000000 0.00000000
vt 0.00000000 0.00000000
vt 0.00000000 0.00000000
vt 0.00000000 0.00000000
vt 0.00000000 0.00000000
vt 0.00000000 0.00000000
vt 0.00000000 0.00000000
vt 0.00000000 0.00000000
vt 0.00000000 0.00000000
vt 0.00000000 0.00000000
vt 0.00000000 0.00000000
vt 0.00000000 0.00000000
vt 0.00000000 0.00000000
vt 0.00000000 0.00000000
vt 0.00000000 0.00000000
vt 0.00000000 0.00000000
vt 0.00000000 0.00000000
vt 0.00000000 0.00000000
vt 0.00000000 0.00000000
vt 0.00000000 0.00000000
vt 0.00000000 0.00000000
vt 0.00000000 0.00000000
vt 0.00000000 0.00000000
vt 0.00000000 0.00000000
vt 0.00000000 0.00000000
vt 0.00000000 0.00000000
vt 0.00000000 0.00000000
vt 0.00000000 0.00000000
vt 0.00000000 0.00000000
vt 0.00000000 0.00000000
vt 0.00000000 0.00000000
vt 0.00000000 0.00000000
vt 0.00000000 0.00000000
vt 0.00000000 0.00000000
vt 0.00000000 0.00000000
vt 0.00000000 0.00000000
vt 0.00000000 0.00000000
vt 0.00000000 0.00000000
vt 0.00000000 0.00000000
vt 0.00000000 0.00000000
vt 0.00000000 0.00000000
vt 0.00000000 0.00000000
vt 0.00000000 0.00000000
vt 0.00000000 0.00000000
vt 0.00000000 0.00000000
vt 0.00000000 0.00000000
vt 0.00000000 0.00000000
vt 0.00000000 0.00000000
vt 0.00000000 0.00000000
vt 0.00000000 0.00000000
vt 0.00000000 0.00000000
vt 0.00000000 0.00000000
vt 0.00000000 0.00000000
vt 0.00000000 0.00000000
vt 0.00000000 0.00000000
vt 0.00000000 0.00000000
vt 0.00000000 0.00000000
vt 0.00000000 0.00000000
vt 0.00000000 0.00000000
vt 0.00000000 0.00000000
vt 0.00000000 0.00000000
vt 0.00000000 0.00000000
vt 0.00000000 0.00000000
vt 0.00000000 0.00000000
vt 0.00000000 0.00000000
vt 0.00000000 0.00000000
vt 0.00000000 0.00000000
vt 0.00000000 0.00000000
vt 0.00000000 0.00000000
vt 0.00000000 0.00000000
vt 0.00000000 0.00000000
vt 0.00000000 0.00000000
vt 0.00000000 0.00000000
vt 0.00000000 0.00000000
vt 0.00000000 0.00000000
vt 0.00000000 0.00000000
vt 0.00000000 0.00000000
vt 0.00000000 0.00000000
vt 0.00000000 0.00000000
vt 0.00000000 0.00000000
vt 0.00000000 0.00000000
vt 0.00000000 0.00000000
vt 0.00000000 0.00000000
vt 0.00000000 0.00000000
vt 0.00000000 0.00000000
vt 0.00000000 0.00000000
vt 0.00000000 0.00000000
vt 0.00000000 0.00000000
vt 0.00000000 0.00000000
vt 0.00000000 0.00000000
vt 0.00000000 0.00000000
vt 0.00000000 0.00000000
vt 0.00000000 0.00000000
vt 0.00000000 0.00000000
vt 0.00000000 0.00000000
vt 0.00000000 0.00000000
vt 0.00000000 0.00000000
vt 0.00000000 0.00000000
vt 0.00000000 0.00000000
vt 0.00000000 0.00000000
vt 0.00000000 0.00000000
vt 0.00000000 0.00000000
vt 0.00000000 0.00000000
vt 0.00000000 0.00000000
vt 0.00000000 0.00000000
vt 0.00000000 0.00000000
vt 0.00000000 0.00000000
vt 0.00000000 0.00000000
vt 0.00000000 0.00000000
vt 0.00000000 0.00000000
vt 0.00000000 0.00000000
vt 0.00000000 0.00000000
vt 0.00000000 0.00000000
vt 0.00000000 0.00000000
vt 0.00000000 0.00000000
vt 0.00000000 0.00000000
vt 0.00000000 0.00000000
vt 0.00000000 0.00000000
vt 0.00000000 0.00000000
vt 0.00000000 0.00000000
vt 0.00000000 0.00000000
vt 0.00000000 0.00000000
vt 0.00000000 0.00000000
vt 0.00000000 0.00000000
vt 0.00000000 0.00000000
vt 0.00000000 0.00000000
vt 0.00000000 0.00000000
vt 0.00000000 0.00000000
vt 0.00000000 0.00000000
vt 0.00000000 0.00000000
vt 0.00000000 0.00000000
vt 0.00000000 0.00000000
vt 0.00000000 0.00000000
vt 0.00000000 0.00000000
vt 0.00000000 0.00000000
vt 0.00000000 0.00000000
vt 0.00000000 0.00000000
vt 0.00000000 0.00000000
vt 0.00000000 0.00000000
vt 0.00000000 0.00000000
vt 0.00000000 0.00000000
vt 0.00000000 0.00000000
vt 0.00000000 0.00000000
vt 0.00000000 0.00000000
vt 0.00000000 0.00000000
vt 0.00000000 0.00000000
vt 0.00000000 0.00000000
vt 0.00000000 0.00000000
vt 0.00000000 0.00000000
vt 0.00000000 0.00000000
vt 0.00000000 0.00000000
vt 0.00000000 0.00000000
vt 0.00000000 0.00000000
vt 0.00000000 0.00000000
vt 0.00000000 0.00000000
vt 0.00000000 0.00000000
vt 0.00000000 0.00000000
vt 0.00000000 0.00000000
vt 0.00000000 0.00000000
vt 0.00000000 0.00000000
vt 0.00000000 0.00000000
vt 0.00000000 0.00000000
vt 0.00000000 0.00000000
vt 0.00000000 0.00000000
vt 0.00000000 0.00000000
vt 0.00000000 0.00000000
vt 0.00000000 0.00000000
vt 0.00000000 0.00000000
vt 0.00000000 0.00000000
vt 0.00000000 0.00000000
vt 0.00000000 0.00000000
vt 0.00000000 0.00000000
vt 0.00000000 0.00000000
vt 0.00000000 0.00000000
vt 0.00000000 0.00000000
vt 0.00000000 0.00000000
vt 0.00000000 0.00000000
vt 0.00000000 0.00000000
vt 0.00000000 0.00000000
vt 0.00000000 0.00000000
vt 0.00000000 0.00000000
vt 0.00000000 0.00000000
vt 0.00000000 0.00000000
vt 0.00000000 0.00000000
vt 0.00000000 0.00000000
vt 0.00000000 0.00000000
vt 0.00000000 0.00000000
vt 0.00000000 0.00000000
vt 0.00000000 0.00000000
vt 0.00000000 0.00000000
vt 0.00000000 0.00000000
vt 0.00000000 0.00000000
vt 0.00000000 0.00000000
vt 0.00000000 0.00000000
vt 0.00000000 0.00000000
vt 0.00000000 0.00000000
vt 0.00000000 0.00000000
vt 0.00000000 0.00000000
vt 0.00000000 0.00000000
vt 0.00000000 0.00000000
vt 0.00000000 0.00000000
vt 0.00000000 0.00000000
vt 0.00000000 0.00000000
vt 0.00000000 0.00000000
vt 0.00000000 0.00000000
vt 0.00000000 0.00000000
vt 0.00000000 0.00000000
vt 0.00000000 0.00000000
vt 0.00000000 0.00000000
vt 0.00000000 0.00000000
vt 0.00000000 0.00000000
vt 0.00000000 0.00000000
vt 0.00000000 0.00000000
vt 0.00000000 0.00000000
vt 0.00000000 0.00000000
vt 0.00000000 0.00000000
vt 0.00000000 0.00000000
vt 0.00000000 0.00000000
vt 0.00000000 0.00000000
vt 0.00000000 0.00000000
vt 0.00000000 0.00000000
vt 0.00000000 0.00000000
vt 0.00000000 0.00000000
vt 0.00000000 0.00000000
vt 0.00000000 0.00000000
vt 0.00000000 0.00000000
vt 0.00000000 0.00000000
vt 0.00000000 0.00000000
vt 0.00000000 0.00000000
vt 0.00000000 0.00000000
vt 0.00000000 0.00000000
vt 0.00000000 0.00000000
vt 0.00000000 0.00000000
vt 0.00000000 0.00000000
vt 0.00000000 0.00000000
vt 0.00000000 0.00000000
vt 0.00000000 0.00000000
vt 0.00000000 0.00000000
vt 0.00000000 0.00000000
vt 0.00000000 0.00000000
vt 0.00000000 0.00000000
vt 0.00000000 0.00000000
vt 0.00000000 0.00000000
vt 0.00000000 0.00000000
vt 0.00000000 0.00000000
vt 0.00000000 0.00000000
vt 0.00000000 0.00000000
vt 0.00000000 0.00000000
vt 0.00000000 0.00000000
vt 0.00000000 0.00000000
vt 0.00000000 0.00000000
vt 0.00000000 0.00000000
vt 0.00000000 0.00000000
vt 0.00000000 0.00000000
vt 0.00000000 0.00000000
vt 0.00000000 0.00000000
vt 0.00000000 0.00000000
vt 0.00000000 0.00000000
vt 0.00000000 0.00000000
vt 0.00000000 0.00000000
vt 0.00000000 0.00000000
vt 0.00000000 0.00000000
vt 0.00000000 0.00000000
vt 0.00000000 0.00000000
vt 0.00000000 0.00000000
vt 0.00000000 0.00000000
vt 0.00000000 0.00000000
vt 0.00000000 0.00000000
vt 0.00000000 0.00000000
vt 0.00000000 0.00000000
vt 0.00000000 0.00000000
vt 0.00000000 0.00000000
vt 0.00000000 0.00000000
vt 0.00000000 0.00000000
vt 0.00000000 0.00000000
vt 0.00000000 0.00000000
vt 0.00000000 0.00000000
vt 0.00000000 0.00000000
vt 0.00000000 0.00000000
vt 0.00000000 0.00000000
vt 0.00000000 0.00000000
vt 0.00000000 0.00000000
vt 0.00000000 0.00000000
vt 0.00000000 0.00000000
vt 0.00000000 0.00000000
vt 0.00000000 0.00000000
vt 0.00000000 0.00000000
vt 0.00000000 0.00000000
vt 0.00000000 0.00000000
vt 0.00000000 0.00000000
vt 0.00000000 0.00000000
vt 0.00000000 0.00000000
vt 0.00000000 0.00000000
vt 0.00000000 0.00000000
vt 0.00000000 0.00000000
vt 0.00000000 0.00000000
vt 0.00000000 0.00000000
vt 0.00000000 0.00000000
vt 0.00000000 0.00000000
vt 0.00000000 0.00000000
vt 0.00000000 0.00000000
vt 0.00000000 0.00000000
vt 0.00000000 0.00000000
vt 0.00000000 0.00000000
vt 0.00000000 0.00000000
vt 0.00000000 0.00000000
vt 0.00000000 0.00000000
vt 0.00000000 0.00000000
vt 0.00000000 0.00000000
vt 0.00000000 0.00000000
vt 0.00000000 0.00000000
vt 0.00000000 0.00000000
vt 0.00000000 0.00000000
vt 0.00000000 0.00000000
vt 0.00000000 0.00000000
vt 0.00000000 0.00000000
vt 0.00000000 0.00000000
vt 0.00000000 0.00000000
vt 0.00000000 0.00000000
vt 0.00000000 0.00000000
vt 0.00000000 0.00000000
vt 0.00000000 0.00000000
vt 0.00000000 0.00000000
vt 0.00000000 0.00000000
vt 0.00000000 0.00000000
vt 0.00000000 0.00000000
vt 0.00000000 0.00000000
vt 0.00000000 0.00000000
vt 0.00000000 0.00000000
vt 0.00000000 0.00000000
vt 0.00000000 0.00000000
vt 0.00000000 0.00000000
vt 0.00000000 0.00000000
vt 0.00000000 0.00000000
vt 0.00000000 0.00000000
vt 0.00000000 0.00000000
vt 0.00000000 0.00000000
vt 0.00000000 0.00000000
vt 0.00000000 0.00000000
vt 0.00000000 0.00000000
vt 0.00000000 0.00000000
vt 0.00000000 0.00000000
vt 0.00000000 0.00000000
vt 0.00000000 0.00000000
vt 0.00000000 0.00000000
vt 0.00000000 0.00000000
vt 0.00000000 0.00000000
vt 0.00000000 0.00000000
vt 0.00000000 0.00000000
vt 0.00000000 0.00000000
vt 0.00000000 0.00000000
vt 0.00000000 0.00000000
vt 0.00000000 0.00000000
vt 0.00000000 0.00000000
vt 0.00000000 0.00000000
vt 0.00000000 0.00000000
vt 0.00000000 0.00000000
vt 0.00000000 0.00000000
vt 0.00000000 0.00000000
vt 0.00000000 0.00000000
vt 0.00000000 0.00000000
vt 0.00000000 0.00000000
vt 0.00000000 0.00000000
vt 0.00000000 0.00000000
vt 0.00000000 0.00000000
vt 0.00000000 0.00000000
vt 0.00000000 0.00000000
vt 0.00000000 0.00000000
vt 0.00000000 0.00000000
vt 0.00000000 0.00000000
vt 0.00000000 0.00000000
vt 0.00000000 0.00000000
vt 0.00000000 0.00000000
vt 0.00000000 0.00000000
vt 0.00000000 0.00000000
vt 0.00000000 0.00000000
vt 0.00000000 0.00000000
vt 0.00000000 0.00000000
vt 0.00000000 0.00000000
vt 0.00000000 0.00000000
vt 0.00000000 0.00000000
vt 0.00000000 0.00000000
vt 0.00000000 0.00000000
vt 0.00000000 0.00000000
vt 0.00000000 0.00000000
vt 0.00000000 0.00000000
vt 0.00000000 0.00000000
vt 0.00000000 0.00000000
vt 0.00000000 0.00000000
vt 0.00000000 0.00000000
vt 0.00000000 0.00000000
vt 0.00000000 0.00000000
vt 0.00000000 0.00000000
vt 0.00000000 0.00000000
vt 0.00000000 0.00000000
vt 0.00000000 0.00000000
vt 0.00000000 0.00000000
vt 0.00000000 0.00000000
vt 0.00000000 0.00000000
vt 0.00000000 0.00000000
vt 0.00000000 0.00000000
vt 0.00000000 0.00000000
vt 0.00000000 0.00000000
vt 0.00000000 0.00000000
vt 0.00000000 0.00000000
vt 0.00000000 0.00000000
vt 0.00000000 0.00000000
vt 0.00000000 0.00000000
vt 0.00000000 0.00000000
vt 0.00000000 0.00000000
vt 0.00000000 0.00000000
vt 0.00000000 0.00000000
vt 0.00000000 0.00000000
vt 0.00000000 0.00000000
vt 0.00000000 0.00000000
vt 0.00000000 0.00000000
vt 0.00000000 0.00000000
vt 0.00000000 0.00000000
vt 0.00000000 0.00000000
vt 0.00000000 0.00000000
vt 0.00000000 0.00000000
vt 0.00000000 0.00000000
vt 0.00000000 0.00000000
vt 0.00000000 0.00000000
vt 0.00000000 0.00000000
vt 0.00000000 0.00000000
vt 0.00000000 0.00000000
vt 0.00000000 0.00000000
vt 0.00000000 0.00000000
vt 0.00000000 0.00000000
vt 0.00000000 0.00000000
vt 0.00000000 0.00000000
vt 0.00000000 0.00000000
vt 0.00000000 0.00000000
vt 0.00000000 0.00000000
vt 0.00000000 0.00000000
vt 0.00000000 0.00000000
vt 0.00000000 0.00000000
vt 0.00000000 0.00000000
vt 0.00000000 0.00000000
vt 0.00000000 0.00000000
vt 0.00000000 0.00000000
vt 0.00000000 0.00000000
vt 0.00000000 0.00000000
vt 0.00000000 0.00000000
vt 0.00000000 0.00000000
vt 0.00000000 0.00000000
vt 0.00000000 0.00000000
vt 0.00000000 0.00000000
vt 0.00000000 0.00000000
vt 0.00000000 0.00000000
vt 0.00000000 0.00000000
vt 0.00000000 0.00000000
vt 0.00000000 0.00000000
vt 0.00000000 0.00000000
vt 0.00000000 0.00000000
vt 0.00000000 0.00000000
vt 0.00000000 0.00000000
vt 0.00000000 0.00000000
vt 0.00000000 0.00000000
vt 0.00000000 0.00000000
vt 0.00000000 0.00000000
vt 0.00000000 0.00000000
vt 0.00000000 0.00000000
vt 0.00000000 0.00000000
vt 0.00000000 0.00000000
vt 0.00000000 0.00000000
vt 0.00000000 0.00000000
vt 0.00000000 0.00000000
vt 0.00000000 0.00000000
vt 0.00000000 0.00000000
vt 0.00000000 0.00000000
vt 0.00000000 0.00000000
vt 0.00000000 0.00000000
vt 0.00000000 0.00000000
vt 0.00000000 0.00000000
vt 0.00000000 0.00000000
vt 0.00000000 0.00000000
vt 0.00000000 0.00000000
vt 0.00000000 0.00000000
vt 0.00000000 0.00000000
vt 0.00000000 0.00000000
vt 0.00000000 0.00000000
vt 0.00000000 0.00000000
vt 0.00000000 0.00000000
vt 0.00000000 0.00000000
vt 0.00000000 0.00000000
vt 0.00000000 0.00000000
vt 0.00000000 0.00000000
vt 0.00000000 0.00000000
vt 0.00000000 0.00000000
vt 0.00000000 0.00000000
vt 0.00000000 0.00000000
vt 0.00000000 0.00000000
vt 0.00000000 0.00000000
vt 0.00000000 0.00000000
vt 0.00000000 0.00000000
vt 0.00000000 0.00000000
vt 0.00000000 0.00000000
vt 0.00000000 0.00000000
vt 0.00000000 0.00000000
vt 0.00000000 0.00000000
vt 0.00000000 0.00000000
vt 0.00000000 0.00000000
vt 0.00000000 0.00000000
vt 0.00000000 0.00000000
vt 0.00000000 0.00000000
vt 0.00000000 0.00000000
vt 0.00000000 0.00000000
vt 0.00000000 0.00000000
vt 0.00000000 0.00000000
vt 0.00000000 0.00000000
vt 0.00000000 0.00000000
vt 0.00000000 0.00000000
vt 0.00000000 0.00000000
vt 0.00000000 0.00000000
vt 0.00000000 0.00000000
vt 0.00000000 0.00000000
vt 0.00000000 0.00000000
vt 0.00000000 0.00000000
vt 0.00000000 0.00000000
vt 0.00000000 0.00000000
vt 0.00000000 0.00000000
vt 0.00000000 0.00000000
vt 0.00000000 0.00000000
vt 0.00000000 0.00000000
vt 0.00000000 0.00000000
vt 0.00000000 0.00000000
vt 0.00000000 0.00000000
vt 0.00000000 0.00000000
vt 0.00000000 0.00000000
vt 0.00000000 0.00000000
vt 0.00000000 0.00000000
vt 0.00000000 0.00000000
vt 0.00000000 0.00000000
vt 0.00000000 0.00000000
vt 0.00000000 0.00000000
vt 0.00000000 0.00000000
vt 0.00000000 0.00000000
vt 0.00000000 0.00000000
vt 0.00000000 0.00000000
vt 0.00000000 0.00000000
vt 0.00000000 0.00000000
vt 0.00000000 0.00000000
vt 0.00000000 0.00000000
vt 0.00000000 0.00000000
vt 0.00000000 0.00000000
vt 0.00000000 0.00000000
vt 0.00000000 0.00000000
vt 0.00000000 0.00000000
vt 0.00000000 0.00000000
vt 0.00000000 0.00000000
vt 0.00000000 0.00000000
vt 0.00000000 0.00000000
vt 0.00000000 0.00000000
vt 0.00000000 0.00000000
vt 0.00000000 0.00000000
vt 0.00000000 0.00000000
vt 0.00000000 0.00000000
vt 0.00000000 0.00000000
vt 0.00000000 0.00000000
vt 0.00000000 0.00000000
vt 0.00000000 0.00000000
vt 0.00000000 0.00000000
vt 0.00000000 0.00000000
vt 0.00000000 0.00000000
vt 0.00000000 0.00000000
vt 0.00000000 0.00000000
vt 0.00000000 0.00000000
vt 0.00000000 0.00000000
vt 0.00000000 0.00000000
vt 0.00000000 0.00000000
vt 0.00000000 0.00000000
vt 0.00000000 0.00000000
vt 0.00000000 0.00000000
vt 0.00000000 0.00000000
vt 0.00000000 0.00000000
vt 0.00000000 0.00000000
vt 0.00000000 0.00000000
vt 0.00000000 0.00000000
vt 0.00000000 0.00000000
vt 0.00000000 0.00000000
vt 0.00000000 0.00000000
vt 0.00000000 0.00000000
vt 0.00000000 0.00000000
vt 0.00000000 0.00000000
vt 0.00000000 0.00000000
vt 0.00000000 0.00000000
vt 0.00000000 0.00000000
vt 0.00000000 0.00000000
vt 0.00000000 0.00000000
vt 0.00000000 0.00000000
vt 0.00000000 0.00000000
vt 0.00000000 0.00000000
vt 0.00000000 0.00000000
vt 0.00000000 0.00000000
vt 0.00000000 0.00000000
vt 0.00000000 0.00000000
vt 0.00000000 0.00000000
vt 0.00000000 0.00000000
vt 0.00000000 0.00000000
vt 0.00000000 0.00000000
vt 0.00000000 0.00000000
vt 0.00000000 0.00000000
vt 0.00000000 0.00000000
vt 0.00000000 0.00000000
vt 0.00000000 0.00000000
vt 0.00000000 0.00000000
vt 0.00000000 0.00000000
vt 0.00000000 0.00000000
vt 0.00000000 0.00000000
vt 0.00000000 0.00000000
vt 0.00000000 0.00000000
vt 0.00000000 0.00000000
vt 0.00000000 0.00000000
vt 0.00000000 0.00000000
vt 0.00000000 0.00000000
vt 0.00000000 0.00000000
vt 0.00000000 0.00000000
vt 0.00000000 0.00000000
vt 0.00000000 0.00000000
vt 0.00000000 0.00000000
vt 0.00000000 0.00000000
vt 0.00000000 0.00000000
vt 0.00000000 0.00000000
vt 0.00000000 0.00000000
vt 0.00000000 0.00000000
vt 0.00000000 0.00000000
vt 0.00000000 0.00000000
vt 0.00000000 0.00000000
vt 0.00000000 0.00000000
vt 0.00000000 0.00000000
vt 0.00000000 0.00000000
vt 0.00000000 0.00000000
vt 0.00000000 0.00000000
vt 0.00000000 0.00000000
vt 0.00000000 0.00000000
vt 0.00000000 0.00000000
vt 0.00000000 0.00000000
vt 0.00000000 0.00000000
vt 0.00000000 0.00000000
vt 0.00000000 0.00000000
vt 0.00000000 0.00000000
vt 0.00000000 0.00000000
vt 0.00000000 0.00000000
vt 0.00000000 0.00000000
vt 0.00000000 0.00000000
vt 0.00000000 0.00000000
vt 0.00000000 0.00000000
vt 0.00000000 0.00000000
vt 0.00000000 0.00000000
vt 0.00000000 0.00000000
vt 0.00000000 0.00000000
vt 0.00000000 0.00000000
vt 0.00000000 0.00000000
vt 0.00000000 0.00000000
vt 0.00000000 0.00000000
vt 0.00000000 0.00000000
vt 0.00000000 0.00000000
vt 0.00000000 0.00000000
vt 0.00000000 0.00000000
vt 0.00000000 0.00000000
vt 0.00000000 0.00000000
vt 0.00000000 0.00000000
vt 0.00000000 0.00000000
vt 0.00000000 0.00000000
vt 0.00000000 0.00000000
vt 0.00000000 0.00000000
vt 0.00000000 0.00000000
vt 0.00000000 0.00000000
vt 0.00000000 0.00000000
vt 0.00000000 0.00000000
vt 0.00000000 0.00000000
vt 0.00000000 0.00000000
vt 0.00000000 0.00000000
f 1/1 2/2 3/3
f 4/4 5/5 6/6
f 6/6 5/5 7/7
f 6/6 7/7 8/8
f 8/8 7/7 9/9
f 10/10 11/11 12/12
f 12/12 11/11 13/13
f 14/14 15/15 16/16
f 16/16 15/15 17/17
f 16/16 17/17 18/18
f 19/19 20/20 21/21
f 21/21 20/20 22/22
f 21/21 22/22 23/23
f 23/23 22/22 24/24
f 25/25 26/26 27/27
f 28/28 29/29 30/30
f 30/30 29/29 31/31
f 30/30 31/31 32/32
f 33/33 34/34 35/35
f 35/35 34/34 36/36
f 37/37 38/38 39/39
f 39/39 38/38 40/40
f 39/39 40/40 41/41
f 42/42 43/43 44/44
f 45/45 46/46 47/47
f 47/47 46/46 48/48
f 47/47 48/48 49/49
f 49/49 48/48 50/50
f 51/51 52/52 53/53
f 53/53 52/52 54/54
f 55/55 56/56 57/57
f 58/58 59/59 60/60
f 61/61 62/62 63/63
f 63/63 62/62 64/64
f 63/63 64/64 65/65
f 65/65 64/64 66/66
f 65/65 66/66 67/67
f 68/68 69/69 70/70
f 70/70 69/69 71/71
f 70/70 71/71 72/72
f 73/73 74/74 75/75
f 75/75 74/74 76/76
f 75/75 76/76 77/77
f 78/78 79/79 80/80
f 80/80 79/79 81/81
f 80/80 81/81 82/82
f 82/82 81/81 83/83
f 82/82 83/83 84/84
f 85/85 86/86 87/87
f 87/87 86/86 88/88
f 87/87 88/88 89/89
f 90/90 91/91 92/92
f 92/92 91/91 93/93
f 92/92 93/93 94/94
f 95/95 96/96 97/97
f 97/97 96/96 98/98
f 97/97 98/98 99/99
f 100/100 101/101 102/102
f 102/102 101/101 103/103
f 104/104 105/105 106/106
f 107/107 108/108 109/109
f 110/110 111/111 112/112
f 112/112 111/111 113/113
f 112/112 113/113 114/114
f 115/115 116/116 117/117
f 118/118 119/119 120/120
f 120/120 119/119 121/121
f 120/120 121/121 122/122
f 122/122 121/121 123/123
f 122/122 123/123 124/124
f 125/125 126/126 127/127
f 127/127 126/126 128/128
f 127/127 128/128 129/129
f 130/130 131/131 132/132
f 132/132 131/131 133/133
f 132/132 133/133 134/134
f 135/135 136/136 137/137
f 137/137 136/136 138/138
f 137/137 138/138 139/139
f 140/140 141/141 142/142
f 142/142 141/141 143/143
f 142/142 143/143 144/144
f 144/144 143/143 145/145
f 144/144 145/145 146/146
f 147/147 148/148 149/149
f 149/149 148/148 150/150
f 149/149 150/150 151/151
f 152/152 153/153 154/154
f 154/154 153/153 155/155
f 154/154 155/155 156/156
f 157/157 158/158 159/159
f 159/159 158/158 160/160
f 159/159 160/160 161/161
f 161/161 160/160 162/162
f 161/161 162/162 163/163
f 164/164 165/165 166/166
f 166/166 165/165 167/167
f 166/166 167/167 168/168
f 169/169 170/170 171/171
f 171/171 170/170 172/172
f 171/171 172/172 173/173
f 173/173 172/172 174/174
f 173/173 174/174 175/175
f 176/176 177/177 178/178
f 178/178 177/177 179/179
f 178/178 179/179 180/180
f 181/181 182/182 183/183
f 183/183 182/182 184/184
f 185/185 186/186 187/187
f 188/188 189/189 190/190
f 191/191 192/192 193/193
f 193/193 192/192 194/194
f 193/193 194/194 195/195
f 196/196 197/197 198/198
f 199/199 200/200 201/201
f 202/202 203/203 204/204
f 205/205 206/206 207/207
f 208/208 209/209 210/210
f 210/210 209/209 211/211
f 210/210 211/211 212/212
f 213/213 214/214 215/215
f 216/216 217/217 218/218
f 218/218 217/217 219/219
f 218/218 219/219 220/220
f 221/221 222/222 223/223
f 223/223 222/222 224/224
f 223/223 224/224 225/225
f 226/226 227/227 228/228
f 228/228 227/227 229/229
f 228/228 229/229 230/230
f 230/230 229/229 231/231
f 230/230 231/231 232/232
f 233/233 234/234 235/235
f 235/235 234/234 236/236
f 235/235 236/236 237/237
f 238/238 239/239 240/240
f 240/240 239/239 241/241
f 240/240 241/241 242/242
f 243/243 244/244 245/245
f 245/245 244/244 246/246
f 245/245 246/246 247/247
f 248/248 249/249 250/250
f 250/250 249/249 251/251
f 250/250 251/251 252/252
f 252/252 251/251 253/253
f 252/252 253/253 254/254
f 255/255 256/256 257/257
f 257/257 256/256 258/258
f 257/257 258/258 259/259
f 259/259 258/258 260/260
f 259/259 260/260 261/261
f 262/262 263/263 264/264
f 264/264 263/263 265/265
f 264/264 265/265 266/266
f 267/267 268/268 269/269
f 269/269 268/268 270/270
f 269/269 270/270 271/271
f 272/272 273/273 274/274
f 274/274 273/273 275/275
f 274/274 275/275 276/276
f 277/277 278/278 279/279
f 279/279 278/278 280/280
f 281/281 282/282 283/283
f 283/283 282/282 284/284
f 285/285 286/286 287/287
f 287/287 286/286 288/288
f 287/287 288/288 289/289
f 290/290 291/291 292/292
f 292/292 291/291 293/293
f 294/294 295/295 296/296
f 296/296 295/295 297/297
f 296/296 297/297 298/298
f 299/299 300/300 301/301
f 301/301 300/300 302/302
f 303/303 304/304 305/305
f 305/305 304/304 306/306
f 305/305 306/306 307/307
f 308/308 309/309 310/310
f 310/310 309/309 311/311
f 310/310 311/311 312/312
f 313/313 314/314 315/315
f 315/315 314/314 316/316
f 315/315 316/316 317/317
f 317/317 316/316 318/318
f 319/319 320/320 321/321
f 321/321 320/320 322/322
f 321/321 322/322 323/323
f 324/324 325/325 326/326
f 326/326 325/325 327/327
f 328/328 329/329 330/330
f 330/330 329/329 331/331
f 330/330 331/331 332/332
f 333/333 334/334 335/335
f 335/335 334/334 336/336
f 337/337 338/338 339/339
f 339/339 338/338 340/340
f 339/339 340/340 341/341
f 342/342 343/343 344/344
f 344/344 343/343 345/345
f 344/344 345/345 346/346
f 347/347 348/348 349/349
f 349/349 348/348 350/350
f 349/349 350/350 351/351
f 351/351 350/350 352/352
f 353/353 354/354 355/355
f 355/355 354/354 356/356
f 355/355 356/356 357/357
f 357/357 356/356 358/358
f 357/357 358/358 359/359
f 359/359 358/358 360/360
f 359/359 360/360 361/361
f 361/361 360/360 362/362
f 361/361 362/362 363/363
f 363/363 362/362 364/364
f 363/363 364/364 365/365
f 365/365 364/364 366/366
f 365/365 366/366 367/367
f 367/367 366/366 368/368
f 367/367 368/368 369/369
f 369/369 368/368 370/370
f 369/369 370/370 371/371
f 371/371 370/370 372/372
f 371/371 372/372 373/373
f 373/373 372/372 374/374
f 373/373 374/374 375/375
f 375/375 374/374 376/376
f 375/375 376/376 377/377
f 377/377 376/376 378/378
f 377/377 378/378 379/379
f 379/379 378/378 380/380
f 379/379 380/380 381/381
f 381/381 380/380 382/382
f 381/381 382/382 383/383
f 383/383 382/382 384/384
f 383/383 384/384 385/385
f 385/385 384/384 386/386
f 385/385 386/386 387/387
f 387/387 386/386 388/388
f 387/387 388/388 389/389
f 389/389 388/388 390/390
f 389/389 390/390 391/391
f 391/391 390/390 392/392
f 391/391 392/392 393/393
f 393/393 392/392 394/394
f 393/393 394/394 395/395
f 395/395 394/394 396/396
f 395/395 396/396 397/397
f 397/397 396/396 398/398
f 397/397 398/398 399/399
f 399/399 398/398 400/400
f 399/399 400/400 401/401
f 401/401 400/400 402/402
f 401/401 402/402 403/403
f 403/403 402/402 404/404
f 403/403 404/404 405/405
f 405/405 404/404 406/406
f 407/407 408/408 409/409
f 409/409 408/408 410/410
f 409/409 410/410 411/411
f 412/412 413/413 414/414
f 414/414 413/413 415/415
f 416/416 417/417 418/418
f 418/418 417/417 419/419
f 418/418 419/419 420/420
f 421/421 422/422 423/423
f 423/423 422/422 424/424
f 425/425 426/426 427/427
f 427/427 426/426 428/428
f 427/427 428/428 429/429
f 430/430 431/431 432/432
f 432/432 431/431 433/433
f 432/432 433/433 434/434
f 435/435 436/436 437/437
f 437/437 436/436 438/438
f 437/437 438/438 439/439
f 439/439 438/438 440/440
f 441/441 442/442 443/443
f 443/443 442/442 444/444
f 443/443 444/444 445/445
f 446/446 447/447 448/448
f 448/448 447/447 449/449
f 450/450 451/451 452/452
f 452/452 451/451 453/453
f 452/452 453/453 454/454
f 455/455 456/456 457/457
f 457/457 456/456 458/458
f 459/459 460/460 461/461
f 461/461 460/460 462/462
f 461/461 462/462 463/463
f 464/464 465/465 466/466
f 466/466 465/465 467/467
f 466/466 467/467 468/468
f 469/469 470/470 471/471
f 471/471 470/470 472/472
f 471/471 472/472 473/473
f 473/473 472/472 474/474
f 475/475 476/476 477/477
f 477/477 476/476 478/478
f 477/477 478/478 479/479
f 479/479 478/478 480/480
f 479/479 480/480 481/481
f 481/481 480/480 482/482
f 481/481 482/482 483/483
f 483/483 482/482 484/484
f 483/483 484/484 485/485
f 485/485 484/484 486/486
f 485/485 486/486 487/487
f 487/487 486/486 488/488
f 487/487 488/488 489/489
f 489/489 488/488 490/490
f 489/489 490/490 491/491
f 491/491 490/490 492/492
f 491/491 492/492 493/493
f 493/493 492/492 494/494
f 493/493 494/494 495/495
f 495/495 494/494 496/496
f 495/495 496/496 497/497
f 497/497 496/496 498/498
f 497/497 498/498 499/499
f 499/499 498/498 500/500
f 499/499 500/500 501/501
f 501/501 500/500 502/502
f 501/501 502/502 503/503
f 503/503 502/502 504/504
f 503/503 504/504 505/505
f 505/505 504/504 506/506
f 505/505 506/506 507/507
f 507/507 506/506 508/508
f 507/507 508/508 509/509
f 509/509 508/508 510/510
f 509/509 510/510 511/511
f 511/511 510/510 512/512
f 511/511 512/512 513/513
f 513/513 512/512 514/514
f 513/513 514/514 515/515
f 515/515 514/514 516/516
f 515/515 516/516 517/517
f 517/517 516/516 518/518
f 517/517 518/518 519/519
f 519/519 518/518 520/520
f 519/519 520/520 521/521
f 521/521 520/520 522/522
f 521/521 522/522 523/523
f 523/523 522/522 524/524
f 523/523 524/524 525/525
f 525/525 524/524 526/526
f 525/525 526/526 527/527
f 527/527 526/526 528/528
f 529/529 530/530 531/531
f 531/531 530/530 532/532
f 531/531 532/532 533/533
f 534/534 535/535 536/536
f 536/536 535/535 537/537
f 536/536 537/537 538/538
f 539/539 540/540 541/541
f 541/541 540/540 542/542
f 541/541 542/542 543/543
f 543/543 542/542 544/544
f 543/543 544/544 545/545
f 545/545 544/544 546/546
f 545/545 546/546 547/547
f 547/547 546/546 548/548
f 547/547 548/548 549/549
f 550/550 551/551 552/552
f 553/553 554/554 555/555
f 555/555 554/554 556/556
f 555/555 556/556 557/557
f 557/557 556/556 558/558
f 557/557 558/558 559/559
f 560/560 561/561 562/562
f 562/562 561/561 563/563
f 562/562 563/563 564/564
f 565/565 566/566 567/567
f 567/567 566/566 568/568
f 567/567 568/568 569/569
f 570/570 571/571 572/572
f 572/572 571/571 573/573
f 572/572 573/573 574/574
f 575/575 576/576 577/577
f 578/578 579/579 580/580
f 580/580 579/579 581/581
f 580/580 581/581 582/582
f 582/582 581/581 583/583
f 582/582 583/583 584/584
f 584/584 583/583 585/585
f 584/584 585/585 586/586
f 586/586 585/585 587/587
f 586/586 587/587 588/588
f 588/588 587/587 589/589
f 588/588 589/589 590/590
f 591/591 592/592 593/593
f 594/594 595/595 596/596
f 596/596 595/595 597/597
f 596/596 597/597 598/598
f 599/599 600/600 601/601
f 601/601 600/600 602/602
f 601/601 602/602 603/603
f 603/603 602/602 604/604
f 603/603 604/604 605/605
f 605/605 604/604 606/606
f 605/605 606/606 607/607
f 608/608 609/609 610/610
f 610/610 609/609 611/611
f 610/610 611/611 612/612
f 612/612 611/611 613/613
f 612/612 613/613 614/614
f 614/614 613/613 615/615
f 614/614 615/615 616/616
f 617/617 618/618 619/619
f 620/620 621/621 622/622
f 622/622 621/621 623/623
f 622/622 623/623 624/624
f 624/624 623/623 625/625
f 624/624 625/625 626/626
f 627/627 628/628 629/629
f 629/629 628/628 630/630
f 629/629 630/630 631/631
f 632/632 633/633 634/634
f 634/634 633/633 635/635
f 634/634 635/635 636/636
f 637/637 638/638 639/639
f 639/639 638/638 640/640
f 639/639 640/640 641/641
f 642/642 643/643 644/644
f 645/645 646/646 647/647
f 647/647 646/646 648/648
f 647/647 648/648 649/649
f 649/649 648/648 650/650
f 649/649 650/650 651/651
f 651/651 650/650 652/652
f 651/651 652/652 653/653
f 653/653 652/652 654/654
f 653/653 654/654 655/655
f 655/655 654/654 656/656
f 655/655 656/656 657/657
f 658/658 659/659 660/660
f 660/660 659/659 661/661
f 660/660 661/661 662/662
f 663/663 664/664 665/665
f 665/665 664/664 666/666
f 665/665 666/666 667/667
f 668/668 669/669 670/670
f 670/670 669/669 671/671
f 670/670 671/671 672/672
f 672/672 671/671 673/673
f 672/672 673/673 674/674
f 674/674 673/673 675/675
f 674/674 675/675 676/676
f 676/676 675/675 677/677
f 676/676 677/677 678/678
f 679/679 680/680 681/681
f 682/682 683/683 684/684
f 684/684 683/683 685/685
f 684/684 685/685 686/686
f 687/687 688/688 689/689
f 689/689 688/688 690/690
f 689/689 690/690 691/691
f 691/691 690/690 692/692
f 691/691 692/692 693/693
f 693/693 692/692 694/694
f 693/693 694/694 695/695
f 696/696 697/697 698/698
f 698/698 697/697 699/699
f 698/698 699/699 700/700
f 700/700 699/699 701/701
f 700/700 701/701 702/702
f 702/702 701/701 703/703
f 702/702 703/703 704/704
f 705/705 706/706 707/707
f 708/708 709/709 710/710
f 710/710 709/709 711/711
f 710/710 711/711 712/712
f 712/712 711/711 713/713
f 712/712 713/713 714/714
f 714/714 713/713 715/715
f 714/714 715/715 716/716
f 716/716 715/715 717/717
f 716/716 717/717 718/718
f 718/718 717/717 719/719
f 718/718 719/719 720/720
f 721/721 722/722 723/723
f 723/723 722/722 724/724
f 723/723 724/724 725/725
f 725/725 724/724 726/726
f 725/725 726/726 727/727
f 727/727 726/726 728/728
f 727/727 728/728 729/729
f 729/729 728/728 730/730
f 729/729 730/730 731/731
f 731/731 730/730 732/732
f 731/731 732/732 733/733
f 733/733 732/732 734/734
f 735/735 736/736 737/737
f 737/737 736/736 738/738
f 737/737 738/738 739/739
f 739/739 738/738 740/740
f 739/739 740/740 741/741
f 741/741 740/740 742/742
f 741/741 742/742 743/743
f 743/743 742/742 744/744
f 743/743 744/744 745/745
f 745/745 744/744 746/746
f 745/745 746/746 747/747
f 747/747 746/746 748/748
f 749/749 750/750 751/751
f 751/751 750/750 752/752
f 751/751 752/752 753/753
f 753/753 752/752 754/754
f 753/753 754/754 755/755
f 755/755 754/754 756/756
f 755/755 756/756 757/757
f 757/757 756/756 758/758
f 757/757 758/758 759/759
f 759/759 758/758 760/760
f 759/759 760/760 761/761
f 761/761 760/760 762/762
f 763/763 764/764 765/765
f 765/765 764/764 766/766
f 765/765 766/766 767/767
f 767/767 766/766 768/768
f 767/767 768/768 769/769
f 769/769 768/768 770/770
f 769/769 770/770 771/771
f 771/771 770/770 772/772
f 771/771 772/772 773/773
f 773/773 772/772 774/774
f 773/773 774/774 775/775
f 775/775 774/774 776/776
f 777/777 778/778 779/779
f 779/779 778/778 780/780
f 779/779 780/780 781/781
f 781/781 780/780 782/782
f 781/781 782/782 783/783
f 783/783 782/782 784/784
f 783/783 784/784 785/785
f 785/785 784/784 786/786
f 785/785 786/786 787/787
f 787/787 786/786 788/788
f 787/787 788/788 789/789
f 789/789 788/788 790/790
f 791/791 792/792 793/793
f 793/793 792/792 794/794
f 793/793 794/794 795/795
f 795/795 794/794 796/796
f 795/795 796/796 797/797
f 797/797 796/796 798/798
f 797/797 798/798 799/799
f 799/799 798/798 800/800
f 799/799 800/800 801/801
f 801/801 800/800 802/802
f 801/801 802/802 803/803
f 803/803 802/802 804/804
f 805/805 806/806 807/807
f 808/808 809/809 810/810
f 810/810 809/809 811/811
f 810/810 811/811 812/812
f 812/812 811/811 813/813
f 812/812 813/813 814/814
f 814/814 813/813 815/815
f 814/814 815/815 816/816
f 816/816 815/815 817/817
f 816/816 817/817 818/818
f 818/818 817/817 819/819
f 818/818 819/819 820/820
f 821/821 822/822 823/823
f 823/823 822/822 824/824
f 823/823 824/824 825/825
f 825/825 824/824 826/826
f 825/825 826/826 827/827
f 827/827 826/826 828/828
f 827/827 828/828 829/829
f 829/829 828/828 830/830
f 829/829 830/830 831/831
f 831/831 830/830 832/832
f 831/831 832/832 833/833
f 833/833 832/832 834/834
f 835/835 836/836 837/837
f 837/837 836/836 838/838
f 837/837 838/838 839/839
f 839/839 838/838 840/840
f 839/839 840/840 841/841
f 841/841 840/840 842/842
f 841/841 842/842 843/843
f 843/843 842/842 844/844
f 843/843 844/844 845/845
f 845/845 844/844 846/846
f 845/845 846/846 847/847
f 847/847 846/846 848/848
f 849/849 850/850 851/851
f 851/851 850/850 852/852
f 851/851 852/852 853/853
f 853/853 852/852 854/854
f 853/853 854/854 855/855
f 855/855 854/854 856/856
f 855/855 856/856 857/857
f 857/857 856/856 858/858
f 857/857 858/858 859/859
f 859/859 858/858 860/860
f 859/859 860/860 861/861
f 861/861 860/860 862/862
f 863/863 864/864 865/865
f 865/865 864/864 866/866
f 865/865 866/866 867/867
f 867/867 866/866 868/868
f 867/867 868/868 869/869
f 869/869 868/868 870/870
f 869/869 870/870 871/871
f 871/871 870/870 872/872
f 871/871 872/872 873/873
f 873/873 872/872 874/874
f 873/873 874/874 875/875
f 875/875 874/874 876/876
f 877/877 878/878 879/879
f 879/879 878/878 880/880
f 879/879 880/880 881/881
f 881/881 880/880 882/882
f 881/881 882/882 883/883
f 883/883 882/882 884/884
f 883/883 884/884 885/885
f 885/885 884/884 886/886
f 885/885 886/886 887/887
f 887/887 886/886 888/888
f 887/887 888/888 889/889
f 889/889 888/888 890/890
f 891/891 892/892 893/893
f 893/893 892/892 894/894
f 893/893 894/894 895/895
f 895/895 894/894 896/896
f 895/895 896/896 897/897
f 897/897 896/896 898/898
f 897/897 898/898 899/899
f 899/899 898/898 900/900
f 899/899 900/900 901/901
f 901/901 900/900 902/902
f 901/901 902/902 903/903
f 903/903 902/902 904/904
f 905/905 906/906 907/907
f 908/908 909/909 910/910
f 910/910 909/909 911/911
f 910/910 911/911 912/912
f 912/912 911/911 913/913
f 912/912 913/913 914/914
f 914/914 913/913 915/915
f 914/914 915/915 916/916
f 916/916 915/915 917/917
f 916/916 917/917 918/918
f 918/918 917/917 919/919
f 918/918 919/919 920/920
f 921/921 922/922 923/923
f 923/923 922/922 924/924
f 923/923 924/924 925/925
f 925/925 924/924 926/926
f 925/925 926/926 927/927
f 927/927 926/926 928/928
f 927/927 928/928 929/929
f 929/929 928/928 930/930
f 929/929 930/930 931/931
f 931/931 930/930 932/932
f 931/931 932/932 933/933
f 933/933 932/932 934/934
f 935/935 936/936 937/937
f 937/937 936/936 938/938
f 937/937 938/938 939/939
f 939/939 938/938 940/940
f 939/939 940/940 941/941
f 941/941 940/940 942/942
f 941/941 942/942 943/943
f 943/943 942/942 944/944
f 943/943 944/944 945/945
f 945/945 944/944 946/946
f 945/945 946/946 947/947
f 947/947 946/946 948/948
f 949/949 950/950 951/951
f 951/951 950/950 952/952
f 951/951 952/952 953/953
f 953/953 952/952 954/954
f 953/953 954/954 955/955
f 955/955 954/954 956/956
f 955/955 956/956 957/957
f 957/957 956/956 958/958
f 957/957 958/958 959/959
f 959/959 958/958 960/960
f 959/959 960/960 961/961
f 961/961 960/960 962/962
f 963/963 964/964 965/965
f 965/965 964/964 966/966
f 965/965 966/966 967/967
f 967/967 966/966 968/968
f 967/967 968/968 969/969
f 969/969 968/968 970/970
f 969/969 970/970 971/971
f 971/971 970/970 972/972
f 971/971 972/972 973/973
f 973/973 972/972 974/974
f 973/973 974/974 975/975
f 975/975 974/974 976/976
f 977/977 978/978 979/979
f 979/979 978/978 980/980
f 979/979 980/980 981/981
f 981/981 980/980 982/982
f 981/981 982/982 983/983
f 983/983 982/982 984/984
f 983/983 984/984 985/985
f 985/985 984/984 986/986
f 985/985 986/986 987/987
f 987/987 986/986 988/988
f 987/987 988/988 989/989
f 989/989 988/988 990/990
f 991/991 992/992 993/993
f 993/993 992/992 994/994
f 993/993 994/994 995/995
f 995/995 994/994 996/996
f 995/995 996/996 997/997
f 997/997 996/996 998/998
f 997/997 998/998 999/999
f 999/999 998/998 1000/1000
f 999/999 1000/1000 1001/1001
f 1001/1001 1000/1000 1002/1002
f 1001/1001 1002/1002 1003/1003
f 1003/1003 1002/1002 1004/1004
f 1005/1005 1006/1006 1007/1007
f 1008/1008 1009/1009 1010/1010
f 1010/1010 1009/1009 1011/1011
f 1010/1010 1011/1011 1012/1012
f 1012/1012 1011/1011 1013/1013
f 1012/1012 1013/1013 1014/1014
f 1014/1014 1013/1013 1015/1015
f 1014/1014 1015/1015 1016/1016
f 1016/1016 1015/1015 1017/1017
f 1016/1016 1017/1017 1018/1018
f 1018/1018 1017/1017 1019/1019
f 1018/1018 1019/1019 1020/1020
f 1021/1021 1022/1022 1023/1023
f 1023/1023 1022/1022 1024/1024
f 1023/1023 1024/1024 1025/1025
f 1025/1025 1024/1024 1026/1026
f 1025/1025 1026/1026 1027/1027
f 1027/1027 1026/1026 1028/1028
f 1027/1027 1028/1028 1029/1029
f 1029/1029 1028/1028 1030/1030
f 1029/1029 1030/1030 1031/1031
f 1031/1031 1030/1030 1032/1032
f 1031/1031 1032/1032 1033/1033
f 1033/1033 1032/1032 1034/1034
f 1035/1035 1036/1036 1037/1037
f 1037/1037 1036/1036 1038/1038
f 1037/1037 1038/1038 1039/1039
f 1039/1039 1038/1038 1040/1040
f 1039/1039 1040/1040 1041/1041
f 1041/1041 1040/1040 1042/1042
f 1041/1041 1042/1042 1043/1043
f 1043/1043 1042/1042 1044/1044
f 1043/1043 1044/1044 1045/1045
f 1045/1045 1044/1044 1046/1046
f 1045/1045 1046/1046 1047/1047
f 1047/1047 1046/1046 1048/1048
f 1049/1049 1050/1050 1051/1051
f 1051/1051 1050/1050 1052/1052
f 1051/1051 1052/1052 1053/1053
f 1053/1053 1052/1052 1054/1054
f 1053/1053 1054/1054 1055/1055
f 1055/1055 1054/1054 1056/1056
f 1055/1055 1056/1056 1057/1057
f 1057/1057 1056/1056 1058/1058
f 1057/1057 1058/1058 1059/1059
f 1059/1059 1058/1058 1060/1060
f 1059/1059 1060/1060 1061/1061
f 1061/1061 1060/1060 1062/1062
f 1063/1063 1064/1064 1065/1065
f 1065/1065 1064/1064 1066/1066
f 1065/1065 1066/1066 1067/1067
f 1067/1067 1066/1066 1068/1068
f 1067/1067 1068/1068 1069/1069
f 1069/1069 1068/1068 1070/1070
f 1069/1069 1070/1070 1071/1071
f 1071/1071 1070/1070 1072/1072
f 1071/1071 1072/1072 1073/1073
f 1073/1073 1072/1072 1074/1074
f 1073/1073 1074/1074 1075/1075
f 1075/1075 1074/1074 1076/1076
f 1077/1077 1078/1078 1079/1079
f 1079/1079 1078/1078 1080/1080
f 1079/1079 1080/1080 1081/1081
f 1081/1081 1080/1080 1082/1082
f 1081/1081 1082/1082 1083/1083
f 1083/1083 1082/1082 1084/1084
f 1083/1083 1084/1084 1085/1085
f 1085/1085 1084/1084 1086/1086
f 1085/1085 1086/1086 1087/1087
f 1087/1087 1086/1086 1088/1088
f 1087/1087 1088/1088 1089/1089
f 1089/1089 1088/1088 1090/1090
f 1091/1091 1092/1092 1093/1093
f 1093/1093 1092/1092 1094/1094
f 1093/1093 1094/1094 1095/1095
f 1095/1095 1094/1094 1096/1096
f 1095/1095 1096/1096 1097/1097
f 1097/1097 1096/1096 1098/1098
f 1097/1097 1098/1098 1099/1099
f 1099/1099 1098/1098 1100/1100
f 1099/1099 1100/1100 1101/1101
f 1101/1101 1100/1100 1102/1102
f 1101/1101 1102/1102 1103/1103
f 1103/1103 1102/1102 1104/1104

