# https://github.com/mikedh/trimesh
mtllib material.mtl
usemtl pink
v -10.43000031 11.88000011 0.00000000
v -10.43000031 -0.01500000 0.00000000
v -9.57030010 -0.01500000 0.00000000
v -8.10000038 1.97000003 0.00000000
v -8.10000038 6.67000008 0.00000000
v -10.43000031 11.88000011 0.00000000
v -9.57030010 -1.10000002 0.00000000
v -7.76999998 -1.10000002 0.00000000
v -9.57030010 -0.01500000 0.00000000
v -9.57030010 -0.01500000 0.00000000
v -7.76999998 -1.10000002 0.00000000
v -7.76999998 1.89999998 0.00000000
v 2.09999990 7.76999998 0.00000000
v 2.09999990 11.88000011 0.00000000
v -3.40000010 7.76999998 0.00000000
v -3.40000010 7.76999998 0.00000000
v 2.09999990 11.88000011 0.00000000
v -10.43000031 11.88000011 0.00000000
v -3.40000010 7.76999998 0.00000000
v -10.43000031 11.88000011 0.00000000
v -3.40000010 6.76999998 0.00000000
v -3.40000010 6.76999998 0.00000000
v -10.43000031 11.88000011 0.00000000
v -8.10000038 6.67000008 0.00000000
v -3.40000010 6.76999998 0.00000000
v -8.10000038 6.67000008 0.00000000
v 0.10000000 6.67000008 0.00000000
v -10.43000031 11.88000011 0.00000000
v -9.57030010 -0.01500000 0.00000000
v -8.10000038 1.97000003 0.00000000
v -8.10000038 1.97000003 0.00000000
v -9.57030010 -0.01500000 0.00000000
v -7.76999998 1.89999998 0.00000000
v -8.10000038 1.97000003 0.00000000
v -7.76999998 1.89999998 0.00000000
v -6.67000008 1.97000003 0.00000000
v -6.67000008 1.97000003 0.00000000
v -7.76999998 1.89999998 0.00000000
v -6.76999998 1.89999998 0.00000000
v -6.67000008 1.97000003 0.00000000
v -6.76999998 1.89999998 0.00000000
v -6.67000008 -0.10000000 0.00000000
v -6.67000008 -0.10000000 0.00000000
v -6.76999998 1.89999998 0.00000000
v -6.76999998 -1.10000002 0.00000000
v -6.67000008 -0.10000000 0.00000000
v -6.76999998 -1.10000002 0.00000000
v 0.10000000 -0.10000000 0.00000000
v 0.10000000 -0.10000000 0.00000000
v -6.76999998 -1.10000002 0.00000000
v 2.09999990 -1.10000002 0.00000000
v 0.10000000 -0.10000000 0.00000000
v 2.09999990 -1.10000002 0.00000000
v 0.10000000 6.67000008 0.00000000
v 0.10000000 6.67000008 0.00000000
v 2.09999990 -1.10000002 0.00000000
v 2.09999990 6.76999998 0.00000000
v 0.10000000 6.67000008 0.00000000
v 2.09999990 6.76999998 0.00000000
v -3.40000010 6.76999998 0.00000000
v 3.00000000 -2.00000000 0.00000000
v 3.00000000 11.77999973 0.00000000
v 2.20000005 7.67000008 0.00000000
v 2.20000005 7.67000008 0.00000000
v 3.00000000 11.77999973 0.00000000
v 2.20000005 11.77999973 0.00000000
v -6.86999989 -1.20000005 0.00000000
v -10.32999992 -2.00000000 0.00000000
v 3.00000000 -2.00000000 0.00000000
v -3.29999995 7.67000008 0.00000000
v -3.29999995 6.86999989 0.00000000
v 2.20000005 7.67000008 0.00000000
v 2.20000005 7.67000008 0.00000000
v -3.29999995 6.86999989 0.00000000
v 2.20000005 6.86999989 0.00000000
v 2.20000005 7.67000008 0.00000000
v 2.20000005 6.86999989 0.00000000
v 3.00000000 -2.00000000 0.00000000
v 3.00000000 -2.00000000 0.00000000
v 2.20000005 6.86999989 0.00000000
v 2.20000005 -1.20000005 0.00000000
v 3.00000000 -2.00000000 0.00000000
v 2.20000005 -1.20000005 0.00000000
v -6.86999989 -1.20000005 0.00000000
v -9.67029953 -0.11500000 0.00000000
v -10.32999992 -0.11500000 0.00000000
v -9.67029953 -1.20000005 0.00000000
v -9.67029953 -1.20000005 0.00000000
v -10.32999992 -0.11500000 0.00000000
v -10.32999992 -2.00000000 0.00000000
v -9.67029953 -1.20000005 0.00000000
v -10.32999992 -2.00000000 0.00000000
v -7.67000008 -1.20000005 0.00000000
v -7.67000008 -1.20000005 0.00000000
v -10.32999992 -2.00000000 0.00000000
v -6.86999989 -1.20000005 0.00000000
v -7.67000008 -1.20000005 0.00000000
v -6.86999989 -1.20000005 0.00000000
v -7.67000008 1.79999995 0.00000000
v -7.67000008 1.79999995 0.00000000
v -6.86999989 -1.20000005 0.00000000
v -6.86999989 1.79999995 0.00000000
v -10.43000031 -2.09999990 0.00000000
v -10.43000031 -2.66000009 0.00000000
v 3.09999990 -2.09999990 0.00000000
v 3.09999990 -2.09999990 0.00000000
v -10.43000031 -2.66000009 0.00000000
v 4.11000013 -2.66000009 0.00000000
v 3.09999990 -2.09999990 0.00000000
v 4.11000013 -2.66000009 0.00000000
v 3.09999990 11.88000011 0.00000000
v 3.09999990 11.88000011 0.00000000
v 4.11000013 -2.66000009 0.00000000
v 4.11000013 11.88000011 0.00000000
v -6.57000017 -0.00000000 0.00000000
v 0.00000000 0.00000000 0.00000000
v -6.57000017 2.06999993 0.00000000
v -6.57000017 2.06999993 0.00000000
v 0.00000000 0.00000000 0.00000000
v 0.00000000 6.57000017 0.00000000
v -6.57000017 2.06999993 0.00000000
v 0.00000000 6.57000017 0.00000000
v -8.00000000 2.06999993 0.00000000
v -8.00000000 2.06999993 0.00000000
v 0.00000000 6.57000017 0.00000000
v -8.00000000 6.57000017 0.00000000
vt -2.75687885 -2.76238966
vt 0.74483871 -2.76238966
vt 0.74483871 -2.50930595
vt 0.16048336 -2.07647085
vt -1.22312927 -2.07647085
vt -2.75687885 -2.76238966
vt 1.06424713 -2.50930595
vt 1.06424713 -1.97932339
vt 0.74483871 -2.50930595
vt 0.74483871 -2.50930595
vt 1.06424713 -1.97932339
vt 0.18109035 -1.97932339
vt -1.54695368 0.92626321
vt -2.75687885 0.92626321
vt -1.54695368 -0.69285810
vt -1.54695368 -0.69285810
vt -2.75687885 0.92626321
vt -2.75687885 -2.76238966
vt -1.54695368 -0.69285810
vt -2.75687885 -2.76238966
vt -1.25256777 -0.69285810
vt -1.25256777 -0.69285810
vt -2.75687885 -2.76238966
vt -1.22312927 -2.07647085
vt -1.25256777 -0.69285810
vt -1.22312927 -2.07647085
vt -1.22312927 0.33749175
vt -2.75687885 -2.76238966
vt 0.74483871 -2.50930595
vt 0.16048336 -2.07647085
vt 0.16048336 -2.07647085
vt 0.74483871 -2.50930595
vt 0.18109035 -1.97932339
vt 0.16048336 -2.07647085
vt 0.18109035 -1.97932339
vt 0.16048336 -1.65549946
vt 0.16048336 -1.65549946
vt 0.18109035 -1.97932339
vt 0.18109035 -1.68493795
vt 0.16048336 -1.65549946
vt 0.18109035 -1.68493795
vt 0.76986170 -1.65549946
vt 0.76986170 -1.65549946
vt 0.18109035 -1.68493795
vt 1.06424713 -1.68493795
vt 0.76986170 -1.65549946
vt 1.06424713 -1.68493795
vt 0.76986170 0.33749175
vt 0.76986170 0.33749175
vt 1.06424713 -1.68493795
vt 1.06424713 0.92626321
vt 0.76986170 0.33749175
vt 1.06424713 0.92626321
vt -1.22312927 0.33749175
vt -1.22312927 0.33749175
vt 1.06424713 0.92626321
vt -1.25256777 0.92626321
vt -1.22312927 0.33749175
vt -1.25256777 0.92626321
vt -1.25256777 -0.69285810
vt 1.32919455 1.19121015
vt -2.72743988 1.19121015
vt -1.51751518 0.95570147
vt -1.51751518 0.95570147
vt -2.72743988 1.19121015
vt -2.72743988 0.95570147
vt 1.09368634 -1.71437645
vt 1.32919455 -2.73295069
vt 1.32919455 1.19121015
vt -1.51751518 -0.66341960
vt -1.28200626 -0.66341960
vt -1.51751518 0.95570147
vt -1.51751518 0.95570147
vt -1.28200626 -0.66341960
vt -1.28200626 0.95570147
vt -1.51751518 0.95570147
vt -1.28200626 0.95570147
vt 1.32919455 1.19121015
vt 1.32919455 1.19121015
vt -1.28200626 0.95570147
vt 1.09368634 0.95570147
vt 1.32919455 1.19121015
vt 1.09368634 0.95570147
vt 1.09368634 -1.71437645
vt 0.77427721 -2.53874445
vt 0.77427721 -2.73295069
vt 1.09368634 -2.53874445
vt 1.09368634 -2.53874445
vt 0.77427721 -2.73295069
vt 1.32919455 -2.73295069
vt 1.09368634 -2.53874445
vt 1.32919455 -2.73295069
vt 1.09368634 -1.94988489
vt 1.09368634 -1.94988489
vt 1.32919455 -2.73295069
vt 1.09368634 -1.71437645
vt 1.09368634 -1.94988489
vt 1.09368634 -1.71437645
vt 0.21052885 -1.94988489
vt 0.21052885 -1.94988489
vt 1.09368634 -1.71437645
vt 0.21052885 -1.71437645
vt 1.35863304 -2.76238966
vt 1.52348924 -2.76238966
vt 1.35863304 1.22064865
vt 1.35863304 1.22064865
vt 1.52348924 -2.76238966
vt 1.52348924 1.51797855
vt 1.35863304 1.22064865
vt 1.52348924 1.51797855
vt -2.75687885 1.22064865
vt -2.75687885 1.22064865
vt 1.52348924 1.51797855
vt -2.75687885 1.51797855
vt 0.74042320 -1.62606049
vt 0.74042320 0.30805314
vt 0.13104486 -1.62606049
vt 0.13104486 -1.62606049
vt 0.74042320 0.30805314
vt -1.19369078 0.30805314
vt 0.13104486 -1.62606049
vt -1.19369078 0.30805314
vt 0.13104486 -2.04703236
vt 0.13104486 -2.04703236
vt -1.19369078 0.30805314
vt -1.19369078 -2.04703236
f 1/1 2/2 3/3
f 4/4 5/5 6/6
f 7/7 8/8 9/9
f 10/10 11/11 12/12
f 13/13 14/14 15/15
f 16/16 17/17 18/18
f 19/19 20/20 21/21
f 22/22 23/23 24/24
f 25/25 26/26 27/27
f 28/28 29/29 30/30
f 31/31 32/32 33/33
f 34/34 35/35 36/36
f 37/37 38/38 39/39
f 40/40 41/41 42/42
f 43/43 44/44 45/45
f 46/46 47/47 48/48
f 49/49 50/50 51/51
f 52/52 53/53 54/54
f 55/55 56/56 57/57
f 58/58 59/59 60/60
f 61/61 62/62 63/63
f 64/64 65/65 66/66
f 67/67 68/68 69/69
f 70/70 71/71 72/72
f 73/73 74/74 75/75
f 76/76 77/77 78/78
f 79/79 80/80 81/81
f 82/82 83/83 84/84
f 85/85 86/86 87/87
f 88/88 89/89 90/90
f 91/91 92/92 93/93
f 94/94 95/95 96/96
f 97/97 98/98 99/99
f 100/100 101/101 102/102
f 103/103 104/104 105/105
f 106/106 107/107 108/108
f 109/109 110/110 111/111
f 112/112 113/113 114/114
f 115/115 116/116 117/117
f 118/118 119/119 120/120
f 121/121 122/122 123/123
f 124/124 125/125 126/126

