# https://github.com/mikedh/trimesh
mtllib material.mtl
usemtl pink
v -0.01219653 -0.00114334 0.05797555
v -0.01219653 -0.00114334 0.05650000
v -0.01204159 -0.00225000 0.05650000
v -0.01225000 -0.00000000 0.05350000
v -0.01222702 -0.00075000 0.05350000
v -0.01222702 -0.00075000 0.05650000
v -0.01222702 0.00075000 0.05650000
v -0.01225000 -0.00000001 0.05950000
v -0.01219653 0.00114333 0.05650000
v -0.01219653 0.00114333 0.05650000
v -0.01225000 -0.00000001 0.05950000
v -0.01219653 0.00114333 0.05797555
v -0.01219653 0.00114333 0.05650000
v -0.01219653 0.00114333 0.05797555
v -0.01204159 0.00224999 0.05650000
v -0.01219653 -0.00114334 0.05650000
v -0.01219653 -0.00114334 0.05797555
v -0.01222702 -0.00075000 0.05650000
v -0.01222702 -0.00075000 0.05650000
v -0.01219653 -0.00114334 0.05797555
v -0.01225000 -0.00000001 0.05950000
v -0.01222702 -0.00075000 0.05650000
v -0.01225000 -0.00000001 0.05950000
v -0.01225000 -0.00000000 0.05350000
v -0.01225000 -0.00000000 0.05350000
v -0.01225000 -0.00000001 0.05950000
v -0.01222702 0.00075000 0.05650000
v -0.01225000 -0.00000000 0.05350000
v -0.01222702 0.00075000 0.05650000
v -0.01222702 0.00075000 0.05350000
v -0.01222702 -0.00075000 0.05650000
v -0.01247748 -0.00075000 0.05650000
v -0.01219653 -0.00114334 0.05650000
v -0.01219653 -0.00114334 0.05650000
v -0.01247748 -0.00075000 0.05650000
v -0.01240886 -0.00150671 0.05650000
v -0.01219653 -0.00114334 0.05650000
v -0.01240886 -0.00150671 0.05650000
v -0.01204159 -0.00225000 0.05650000
v -0.01204159 -0.00225000 0.05650000
v -0.01240886 -0.00150671 0.05650000
v -0.01229583 -0.00225000 0.05650000
v -0.01219653 -0.00114334 0.05797555
v -0.01204159 -0.00225000 0.05650000
v -0.01229583 -0.00225000 0.05650000
v -0.01250000 -0.00000001 0.05950000
v -0.01225000 -0.00000001 0.05950000
v -0.01247719 -0.00075474 0.05849369
v -0.01247719 -0.00075474 0.05849369
v -0.01225000 -0.00000001 0.05950000
v -0.01219653 -0.00114334 0.05797555
v -0.01247719 -0.00075474 0.05849369
v -0.01219653 -0.00114334 0.05797555
v -0.01240886 -0.00150671 0.05749106
v -0.01240886 -0.00150671 0.05749106
v -0.01219653 -0.00114334 0.05797555
v -0.01229583 -0.00225000 0.05650000
v -0.01219653 0.00114333 0.05797555
v -0.01225000 -0.00000001 0.05950000
v -0.01250000 -0.00000001 0.05950000
v -0.01229583 0.00224999 0.05650000
v -0.01204159 0.00224999 0.05650000
v -0.01240886 0.00150670 0.05749106
v -0.01240886 0.00150670 0.05749106
v -0.01204159 0.00224999 0.05650000
v -0.01219653 0.00114333 0.05797555
v -0.01240886 0.00150670 0.05749106
v -0.01219653 0.00114333 0.05797555
v -0.01247719 0.00075473 0.05849369
v -0.01247719 0.00075473 0.05849369
v -0.01219653 0.00114333 0.05797555
v -0.01250000 -0.00000001 0.05950000
v -0.01204159 0.00224999 0.05650000
v -0.01229583 0.00224999 0.05650000
v -0.01219653 0.00114333 0.05650000
v -0.01219653 0.00114333 0.05650000
v -0.01229583 0.00224999 0.05650000
v -0.01240886 0.00150670 0.05650000
v -0.01219653 0.00114333 0.05650000
v -0.01240886 0.00150670 0.05650000
v -0.01222702 0.00075000 0.05650000
v -0.01222702 0.00075000 0.05650000
v -0.01240886 0.00150670 0.05650000
v -0.01247748 0.00075000 0.05650000
v -0.01222702 0.00075000 0.05650000
v -0.01247748 0.00075000 0.05650000
v -0.01222702 0.00075000 0.05350000
v -0.01222702 0.00075000 0.05350000
v -0.01247748 0.00075000 0.05650000
v -0.01247748 0.00075000 0.05350000
v -0.01222702 0.00075000 0.05350000
v -0.01247748 0.00075000 0.05350000
v -0.01225000 -0.00000000 0.05350000
v -0.01225000 -0.00000000 0.05350000
v -0.01247748 0.00075000 0.05350000
v -0.01250000 -0.00000000 0.05350000
v -0.01225000 -0.00000000 0.05350000
v -0.01250000 -0.00000000 0.05350000
v -0.01222702 -0.00075000 0.05350000
v -0.01222702 -0.00075000 0.05350000
v -0.01250000 -0.00000000 0.05350000
v -0.01247748 -0.00075000 0.05350000
v -0.01222702 -0.00075000 0.05350000
v -0.01247748 -0.00075000 0.05350000
v -0.01222702 -0.00075000 0.05650000
v -0.01222702 -0.00075000 0.05650000
v -0.01247748 -0.00075000 0.05350000
v -0.01247748 -0.00075000 0.05650000
vt 0.05797555 0.99885666
vt 0.05650000 0.99885666
vt 0.05650000 0.99774998
vt 0.05350000 1.00000000
vt 0.05350000 0.99924999
vt 0.05650000 0.99924999
vt 0.05650000 1.00074995
vt 0.05950000 1.00000000
vt 0.05650000 1.00114334
vt 0.05650000 1.00114334
vt 0.05950000 1.00000000
vt 0.05797555 1.00114334
vt 0.05650000 1.00114334
vt 0.05797555 1.00114334
vt 0.05650000 1.00224996
vt 0.05650000 0.99885666
vt 0.05797555 0.99885666
vt 0.05650000 0.99924999
vt 0.05650000 0.99924999
vt 0.05797555 0.99885666
vt 0.05950000 1.00000000
vt 0.05650000 0.99924999
vt 0.05950000 1.00000000
vt 0.05350000 1.00000000
vt 0.05350000 1.00000000
vt 0.05950000 1.00000000
vt 0.05650000 1.00074995
vt 0.05350000 1.00000000
vt 0.05650000 1.00074995
vt 0.05350000 1.00074995
vt -0.01222702 0.99924999
vt -0.01247748 0.99924999
vt -0.01219653 0.99885666
vt -0.01219653 0.99885666
vt -0.01247748 0.99924999
vt -0.01240886 0.99849331
vt -0.01219653 0.99885666
vt -0.01240886 0.99849331
vt -0.01204159 0.99774998
vt -0.01204159 0.99774998
vt -0.01240886 0.99849331
vt -0.01229583 0.99774998
vt -0.01219653 0.94202447
vt -0.01204159 0.94349998
vt -0.01229583 0.94349998
vt -0.01250000 0.94050002
vt -0.01225000 0.94050002
vt -0.01247719 0.94150633
vt -0.01247719 0.94150633
vt -0.01225000 0.94050002
vt -0.01219653 0.94202447
vt -0.01247719 0.94150633
vt -0.01219653 0.94202447
vt -0.01240886 0.94250894
vt -0.01240886 0.94250894
vt -0.01219653 0.94202447
vt -0.01229583 0.94349998
vt -0.01219653 1.05797553
vt -0.01225000 1.05949998
vt -0.01250000 1.05949998
vt -0.01229583 1.05649996
vt -0.01204159 1.05649996
vt -0.01240886 1.05749106
vt -0.01240886 1.05749106
vt -0.01204159 1.05649996
vt -0.01219653 1.05797553
vt -0.01240886 1.05749106
vt -0.01219653 1.05797553
vt -0.01247719 1.05849373
vt -0.01247719 1.05849373
vt -0.01219653 1.05797553
vt -0.01250000 1.05949998
vt -0.01204159 1.00224996
vt -0.01229583 1.00224996
vt -0.01219653 1.00114334
vt -0.01219653 1.00114334
vt -0.01229583 1.00224996
vt -0.01240886 1.00150669
vt -0.01219653 1.00114334
vt -0.01240886 1.00150669
vt -0.01222702 1.00074995
vt -0.01222702 1.00074995
vt -0.01240886 1.00150669
vt -0.01247748 1.00074995
vt -0.01222702 1.05649996
vt -0.01247748 1.05649996
vt -0.01222702 1.05350006
vt -0.01222702 1.05350006
vt -0.01247748 1.05649996
vt -0.01247748 1.05350006
vt -0.01222702 1.00074995
vt -0.01247748 1.00074995
vt -0.01225000 1.00000000
vt -0.01225000 1.00000000
vt -0.01247748 1.00074995
vt -0.01250000 1.00000000
vt -0.01225000 1.00000000
vt -0.01250000 1.00000000
vt -0.01222702 0.99924999
vt -0.01222702 0.99924999
vt -0.01250000 1.00000000
vt -0.01247748 0.99924999
vt -0.01222702 0.94650000
vt -0.01247748 0.94650000
vt -0.01222702 0.94349998
vt -0.01222702 0.94349998
vt -0.01247748 0.94650000
vt -0.01247748 0.94349998
f 1/1 2/2 3/3
f 4/4 5/5 6/6
f 7/7 8/8 9/9
f 10/10 11/11 12/12
f 13/13 14/14 15/15
f 16/16 17/17 18/18
f 19/19 20/20 21/21
f 22/22 23/23 24/24
f 25/25 26/26 27/27
f 28/28 29/29 30/30
f 31/31 32/32 33/33
f 34/34 35/35 36/36
f 37/37 38/38 39/39
f 40/40 41/41 42/42
f 43/43 44/44 45/45
f 46/46 47/47 48/48
f 49/49 50/50 51/51
f 52/52 53/53 54/54
f 55/55 56/56 57/57
f 58/58 59/59 60/60
f 61/61 62/62 63/63
f 64/64 65/65 66/66
f 67/67 68/68 69/69
f 70/70 71/71 72/72
f 73/73 74/74 75/75
f 76/76 77/77 78/78
f 79/79 80/80 81/81
f 82/82 83/83 84/84
f 85/85 86/86 87/87
f 88/88 89/89 90/90
f 91/91 92/92 93/93
f 94/94 95/95 96/96
f 97/97 98/98 99/99
f 100/100 101/101 102/102
f 103/103 104/104 105/105
f 106/106 107/107 108/108

