# https://github.com/mikedh/trimesh
mtllib material.mtl
usemtl stair guard
v 7.31199349 9.49835482 2.88981258
v 7.71503502 9.49835482 2.88981258
v 7.31199349 9.57032675 2.88981258
v 7.31199349 9.57032675 2.88981258
v 7.71503502 9.49835482 2.88981258
v 7.71503502 9.57032675 2.88981258
v -0.01472008 9.49835482 -0.00000000
v 7.31199349 9.49835482 2.88981258
v -0.01472008 9.57032675 -0.00000000
v -0.01472008 9.57032675 -0.00000000
v 7.31199349 9.49835482 2.88981258
v 7.31199349 9.57032675 2.88981258
v 0.38832120 9.49835482 -0.00000000
v -0.01472008 9.49835482 0.00000000
v 0.38832120 9.57032675 -0.00000000
v 0.38832120 9.57032675 -0.00000000
v -0.01472008 9.49835482 0.00000000
v -0.01472008 9.57032675 0.00000000
v 7.71503502 9.49835482 2.88981258
v 0.38832120 9.49835482 -0.00000000
v 7.71503502 9.57032675 2.88981258
v 7.71503502 9.57032675 2.88981258
v 0.38832120 9.49835482 -0.00000000
v 0.38832120 9.57032675 -0.00000000
v -0.01472008 9.49835482 0.00000000
v 0.38832120 9.49835482 -0.00000000
v 7.31199349 9.49835482 2.88981258
v 7.31199349 9.49835482 2.88981258
v 0.38832120 9.49835482 -0.00000000
v 7.71503502 9.49835482 2.88981258
v 0.38832120 9.57032675 -0.00000000
v -0.01472008 9.57032675 0.00000000
v 7.71503502 9.57032675 2.88981258
v 7.71503502 9.57032675 2.88981258
v -0.01472008 9.57032675 0.00000000
v 7.31199349 9.57032675 2.88981258
vt 8.85319996 9.89999962
vt 9.41320038 9.89999962
vt 8.85319996 10.00000000
vt 8.85319996 10.00000000
vt 9.41320038 9.89999962
vt 9.41320038 10.00000000
vt -1.32679963 9.89999962
vt 8.85319996 9.89999962
vt -1.32679963 10.00000000
vt -1.32679963 10.00000000
vt 8.85319996 9.89999962
vt 8.85319996 10.00000000
vt -0.76679957 -7.89999962
vt -1.32679963 -7.89999962
vt -0.76679957 -8.00000000
vt -0.76679957 -8.00000000
vt -1.32679963 -7.89999962
vt -1.32679963 -8.00000000
vt 9.41320038 -7.89999962
vt -0.76679957 -7.89999962
vt 9.41320038 -8.00000000
vt 9.41320038 -8.00000000
vt -0.76679957 -7.89999962
vt -0.76679957 -8.00000000
vt -1.32679963 1.00000000
vt -0.76679957 1.00000000
vt 8.85319996 6.09000015
vt 8.85319996 6.09000015
vt -0.76679957 1.00000000
vt 9.41320038 6.09000015
vt 0.76679957 1.00000000
vt 1.32679963 1.00000000
vt -9.41320038 6.09000015
vt -9.41320038 6.09000015
vt 1.32679963 1.00000000
vt -8.85319996 6.09000015
f 1/1 2/2 3/3
f 4/4 5/5 6/6
f 7/7 8/8 9/9
f 10/10 11/11 12/12
f 13/13 14/14 15/15
f 16/16 17/17 18/18
f 19/19 20/20 21/21
f 22/22 23/23 24/24
f 25/25 26/26 27/27
f 28/28 29/29 30/30
f 31/31 32/32 33/33
f 34/34 35/35 36/36

