# https://github.com/mikedh/trimesh
mtllib material.mtl
usemtl yellow
v 0.00000000 6.57000017 0.00000000
v 0.10000000 6.67000008 0.00000000
v -8.00000000 6.57000017 0.00000000
v -8.00000000 6.57000017 0.00000000
v 0.10000000 6.67000008 0.00000000
v -8.10000038 6.67000008 0.00000000
v -8.00000000 6.57000017 0.00000000
v -8.10000038 6.67000008 0.00000000
v -8.00000000 2.06999993 0.00000000
v -8.00000000 2.06999993 0.00000000
v -8.10000038 6.67000008 0.00000000
v -8.10000038 1.97000003 0.00000000
v -8.00000000 2.06999993 0.00000000
v -8.10000038 1.97000003 0.00000000
v -6.57000017 2.06999993 0.00000000
v -6.57000017 2.06999993 0.00000000
v -8.10000038 1.97000003 0.00000000
v -6.67000008 1.97000003 0.00000000
v -6.57000017 2.06999993 0.00000000
v -6.67000008 1.97000003 0.00000000
v -6.57000017 -0.00000000 0.00000000
v -6.57000017 -0.00000000 0.00000000
v -6.67000008 1.97000003 0.00000000
v -6.67000008 -0.10000000 0.00000000
v -6.57000017 -0.00000000 0.00000000
v -6.67000008 -0.10000000 0.00000000
v 0.00000000 0.00000000 0.00000000
v 0.00000000 0.00000000 0.00000000
v -6.67000008 -0.10000000 0.00000000
v 0.10000000 -0.10000000 0.00000000
v 0.00000000 0.00000000 0.00000000
v 0.10000000 -0.10000000 0.00000000
v 0.00000000 6.57000017 0.00000000
v 0.00000000 6.57000017 0.00000000
v 0.10000000 -0.10000000 0.00000000
v 0.10000000 6.67000008 0.00000000
vt 0.98770726 0.97602522
vt 0.99985683 0.98817497
vt 0.01574195 0.97602499
vt 0.01574195 0.97602499
vt 0.99985683 0.98817497
vt 0.00359235 0.98817474
vt 0.01574195 0.97602499
vt 0.00359235 0.98817474
vt 0.01574195 0.42929465
vt 0.01574195 0.42929465
vt 0.00359235 0.98817474
vt 0.00359235 0.41714495
vt 0.01574195 0.42929465
vt 0.00359235 0.41714495
vt 0.18948075 0.42929465
vt 0.18948075 0.42929465
vt 0.00359235 0.41714495
vt 0.17733124 0.41714495
vt 0.18948075 0.42929465
vt 0.17733124 0.41714495
vt 0.18948075 0.17779839
vt 0.18948075 0.17779839
vt 0.17733124 0.41714495
vt 0.17733124 0.16564864
vt 0.18948075 0.17779839
vt 0.17733124 0.16564864
vt 0.98770726 0.17779839
vt 0.98770726 0.17779839
vt 0.17733124 0.16564864
vt 0.99985683 0.16564888
vt 0.98770726 0.17779839
vt 0.99985683 0.16564888
vt 0.98770726 0.97602522
vt 0.98770726 0.97602522
vt 0.99985683 0.16564888
vt 0.99985683 0.98817497
f 1/1 2/2 3/3
f 4/4 5/5 6/6
f 7/7 8/8 9/9
f 10/10 11/11 12/12
f 13/13 14/14 15/15
f 16/16 17/17 18/18
f 19/19 20/20 21/21
f 22/22 23/23 24/24
f 25/25 26/26 27/27
f 28/28 29/29 30/30
f 31/31 32/32 33/33
f 34/34 35/35 36/36

