# https://github.com/mikedh/trimesh
mtllib material.mtl
usemtl Material.001
v 0.02500000 0.02500000 0.01500000
v 0.02500000 0.02500000 0.01500000
v 0.02500000 0.02500000 0.01500000
v 0.02500000 0.02250000 0.01500000
v 0.02500000 0.02250000 0.01500000
v 0.02500000 0.02250000 0.01500000
v 0.03700000 0.02250000 0.01500000
v 0.03700000 0.02250000 0.01500000
v 0.03700000 0.02250000 0.01500000
v 0.02500000 -0.02250000 0.01500000
v 0.02500000 -0.02250000 0.01500000
v 0.02500000 -0.02250000 0.01500000
v 0.02500000 -0.02500000 0.01500000
v 0.02500000 -0.02500000 0.01500000
v 0.02500000 -0.02500000 0.01500000
v 0.03700000 -0.02250000 0.01500000
v 0.03700000 -0.02250000 0.01500000
v 0.03700000 -0.02250000 0.01500000
v 0.05000000 -0.02500000 0.01500000
v 0.05000000 -0.02500000 0.01500000
v 0.05000000 -0.02500000 0.01500000
v 0.05000000 0.02500000 0.01500000
v 0.05000000 0.02500000 0.01500000
v 0.05000000 0.02500000 0.01500000
v 0.02500000 0.01250000 0.00500000
v 0.02500000 0.01250000 0.00500000
v 0.02500000 0.01250000 0.00500000
v 0.02500000 0.00217060 -0.01231010
v 0.02500000 0.00217060 -0.01231010
v 0.02500000 0.00217060 -0.01231010
v 0.02500000 0.00427525 -0.01174616
v 0.02500000 0.00427525 -0.01174616
v 0.02500000 0.00427525 -0.01174616
v 0.02500000 0.02500000 -0.02500000
v 0.02500000 0.02500000 -0.02500000
v 0.02500000 0.02500000 -0.02500000
v 0.02500000 0.00957556 -0.00803485
v 0.02500000 0.00957556 -0.00803485
v 0.02500000 0.00957556 -0.00803485
v 0.02500000 0.01082532 -0.00625000
v 0.02500000 0.01082532 -0.00625000
v 0.02500000 0.01082532 -0.00625000
v 0.02500000 0.01174616 -0.00427525
v 0.02500000 0.01174616 -0.00427525
v 0.02500000 0.01174616 -0.00427525
v 0.02500000 0.01231010 -0.00217060
v 0.02500000 0.01231010 -0.00217060
v 0.02500000 0.01231010 -0.00217060
v 0.02500000 0.01250000 0.00000000
v 0.02500000 0.01250000 0.00000000
v 0.02500000 0.01250000 0.00000000
v 0.02500000 -0.02500000 -0.02500000
v 0.02500000 -0.02500000 -0.02500000
v 0.02500000 -0.02500000 -0.02500000
v 0.02500000 -0.00803485 -0.00957556
v 0.02500000 -0.00803485 -0.00957556
v 0.02500000 -0.00803485 -0.00957556
v 0.02500000 -0.00625000 -0.01082532
v 0.02500000 -0.00625000 -0.01082532
v 0.02500000 -0.00625000 -0.01082532
v 0.02500000 0.00625000 -0.01082532
v 0.02500000 0.00625000 -0.01082532
v 0.02500000 0.00625000 -0.01082532
v 0.02500000 0.00803485 -0.00957556
v 0.02500000 0.00803485 -0.00957556
v 0.02500000 0.00803485 -0.00957556
v 0.02500000 -0.01174616 -0.00427525
v 0.02500000 -0.01174616 -0.00427525
v 0.02500000 -0.01174616 -0.00427525
v 0.02500000 -0.01082532 -0.00625000
v 0.02500000 -0.01082532 -0.00625000
v 0.02500000 -0.01082532 -0.00625000
v 0.02500000 -0.00957556 -0.00803485
v 0.02500000 -0.00957556 -0.00803485
v 0.02500000 -0.00957556 -0.00803485
v 0.02500000 -0.00427525 -0.01174616
v 0.02500000 -0.00427525 -0.01174616
v 0.02500000 -0.00427525 -0.01174616
v 0.02500000 -0.00217060 -0.01231010
v 0.02500000 -0.00217060 -0.01231010
v 0.02500000 -0.00217060 -0.01231010
v 0.02500000 0.00000000 -0.01250000
v 0.02500000 0.00000000 -0.01250000
v 0.02500000 0.00000000 -0.01250000
v 0.02500000 -0.01250000 0.00500000
v 0.02500000 -0.01250000 0.00500000
v 0.02500000 -0.01250000 0.00500000
v 0.02500000 -0.01250000 0.00000000
v 0.02500000 -0.01250000 0.00000000
v 0.02500000 -0.01250000 0.00000000
v 0.02500000 -0.01231010 -0.00217060
v 0.02500000 -0.01231010 -0.00217060
v 0.02500000 -0.01231010 -0.00217060
v 0.02500000 0.01907980 0.01439692
v 0.02500000 0.01907980 0.01439692
v 0.02500000 0.01907980 0.01439692
v 0.02500000 0.01907980 0.01439692
v 0.02500000 0.01310307 0.00842020
v 0.02500000 0.01310307 0.00842020
v 0.02500000 0.01310307 0.00842020
v 0.02500000 0.01383975 0.01000000
v 0.02500000 0.01383975 0.01000000
v 0.02500000 0.01383975 0.01000000
v 0.02500000 0.01265192 0.00673648
v 0.02500000 0.01265192 0.00673648
v 0.02500000 0.01265192 0.00673648
v 0.02500000 0.02076352 0.01484808
v 0.02500000 0.02076352 0.01484808
v 0.02500000 0.02076352 0.01484808
v 0.02500000 0.01483955 0.01142788
v 0.02500000 0.01483955 0.01142788
v 0.02500000 0.01483955 0.01142788
v 0.02500000 0.01607212 0.01266044
v 0.02500000 0.01607212 0.01266044
v 0.02500000 0.01607212 0.01266044
v 0.02500000 0.01607212 0.01266044
v 0.02500000 0.01750000 0.01366025
v 0.02500000 0.01750000 0.01366025
v 0.02500000 0.01750000 0.01366025
v 0.02500000 -0.01310307 0.00842020
v 0.02500000 -0.01310307 0.00842020
v 0.02500000 -0.01310307 0.00842020
v 0.02500000 -0.01310307 0.00842020
v 0.02500000 -0.01907980 0.01439692
v 0.02500000 -0.01907980 0.01439692
v 0.02500000 -0.01907980 0.01439692
v 0.02500000 -0.01750000 0.01366025
v 0.02500000 -0.01750000 0.01366025
v 0.02500000 -0.01750000 0.01366025
v 0.02500000 -0.02076352 0.01484808
v 0.02500000 -0.02076352 0.01484808
v 0.02500000 -0.02076352 0.01484808
v 0.02500000 -0.01265192 0.00673648
v 0.02500000 -0.01265192 0.00673648
v 0.02500000 -0.01265192 0.00673648
v 0.02500000 -0.01607212 0.01266044
v 0.02500000 -0.01607212 0.01266044
v 0.02500000 -0.01607212 0.01266044
v 0.02500000 -0.01483956 0.01142788
v 0.02500000 -0.01483956 0.01142788
v 0.02500000 -0.01483956 0.01142788
v 0.02500000 -0.01483956 0.01142788
v 0.02500000 -0.01383975 0.01000000
v 0.02500000 -0.01383975 0.01000000
v 0.02500000 -0.01383975 0.01000000
v -0.02500000 -0.02500000 0.01500000
v -0.02500000 -0.02500000 0.01500000
v -0.02500000 -0.02500000 0.01500000
v -0.02500000 -0.02250000 0.01500000
v -0.02500000 -0.02250000 0.01500000
v -0.02500000 -0.02250000 0.01500000
v -0.03700000 -0.02250000 0.01500000
v -0.03700000 -0.02250000 0.01500000
v -0.03700000 -0.02250000 0.01500000
v -0.02500000 0.02250000 0.01500000
v -0.02500000 0.02250000 0.01500000
v -0.02500000 0.02250000 0.01500000
v -0.02500000 0.02500000 0.01500000
v -0.02500000 0.02500000 0.01500000
v -0.02500000 0.02500000 0.01500000
v -0.03700000 0.02250000 0.01500000
v -0.03700000 0.02250000 0.01500000
v -0.05000000 0.02500000 0.01500000
v -0.05000000 0.02500000 0.01500000
v -0.05000000 0.02500000 0.01500000
v -0.05000000 -0.02500000 0.01500000
v -0.05000000 -0.02500000 0.01500000
v -0.05000000 -0.02500000 0.01500000
v -0.05000000 -0.02500000 -0.03500000
v -0.05000000 -0.02500000 -0.03500000
v -0.05000000 -0.02500000 -0.03500000
v -0.05000000 0.02500000 -0.03500000
v -0.05000000 0.02500000 -0.03500000
v -0.05000000 0.02500000 -0.03500000
v -0.02500000 -0.02500000 -0.02500000
v -0.02500000 -0.02500000 -0.02500000
v -0.02500000 -0.02500000 -0.02500000
v 0.05000000 -0.02500000 -0.03500000
v 0.05000000 -0.02500000 -0.03500000
v 0.05000000 -0.02500000 -0.03500000
v 0.05000000 0.02500000 -0.03500000
v 0.05000000 0.02500000 -0.03500000
v 0.05000000 0.02500000 -0.03500000
v -0.02500000 0.02500000 -0.02500000
v -0.02500000 0.02500000 -0.02500000
v -0.02500000 0.02500000 -0.02500000
v -0.02500000 -0.01250000 0.00500000
v -0.02500000 -0.01250000 0.00500000
v -0.02500000 -0.01250000 0.00500000
v -0.02500000 0.01250000 0.00500000
v -0.02500000 0.01250000 0.00500000
v -0.02500000 0.01250000 0.00500000
v -0.02500000 0.01250000 0.00000000
v -0.02500000 0.01250000 0.00000000
v -0.02500000 0.01250000 0.00000000
v -0.02500000 0.01082532 -0.00625000
v -0.02500000 0.01082532 -0.00625000
v -0.02500000 0.01082532 -0.00625000
v -0.02500000 0.01174616 -0.00427525
v -0.02500000 0.01174616 -0.00427525
v -0.02500000 0.01174616 -0.00427525
v -0.02500000 0.01231010 -0.00217060
v -0.02500000 0.01231010 -0.00217060
v -0.02500000 0.01231010 -0.00217060
v -0.02500000 0.00957556 -0.00803485
v -0.02500000 0.00957556 -0.00803485
v -0.02500000 0.00957556 -0.00803485
v -0.02500000 0.00803485 -0.00957556
v -0.02500000 0.00803485 -0.00957556
v -0.02500000 0.00803485 -0.00957556
v -0.02500000 0.00625000 -0.01082532
v -0.02500000 0.00625000 -0.01082532
v -0.02500000 0.00625000 -0.01082532
v -0.02500000 0.00427525 -0.01174616
v -0.02500000 0.00427525 -0.01174616
v -0.02500000 0.00427525 -0.01174616
v -0.02500000 0.00217060 -0.01231010
v -0.02500000 0.00217060 -0.01231010
v -0.02500000 0.00217060 -0.01231010
v -0.02500000 0.00000000 -0.01250000
v -0.02500000 0.00000000 -0.01250000
v -0.02500000 0.00000000 -0.01250000
v -0.02500000 -0.01082532 -0.00625000
v -0.02500000 -0.01082532 -0.00625000
v -0.02500000 -0.01082532 -0.00625000
v -0.02500000 -0.01174616 -0.00427525
v -0.02500000 -0.01174616 -0.00427525
v -0.02500000 -0.01174616 -0.00427525
v -0.02500000 -0.01231010 -0.00217060
v -0.02500000 -0.01231010 -0.00217060
v -0.02500000 -0.01231010 -0.00217060
v -0.02500000 -0.01250000 0.00000000
v -0.02500000 -0.01250000 0.00000000
v -0.02500000 -0.01250000 0.00000000
v -0.02500000 -0.00217060 -0.01231010
v -0.02500000 -0.00217060 -0.01231010
v -0.02500000 -0.00217060 -0.01231010
v -0.02500000 -0.00427525 -0.01174616
v -0.02500000 -0.00427525 -0.01174616
v -0.02500000 -0.00427525 -0.01174616
v -0.02500000 -0.00625000 -0.01082532
v -0.02500000 -0.00625000 -0.01082532
v -0.02500000 -0.00625000 -0.01082532
v -0.02500000 0.01310307 0.00842020
v -0.02500000 0.01310307 0.00842020
v -0.02500000 0.01310307 0.00842020
v -0.02500000 0.01907980 0.01439692
v -0.02500000 0.01907980 0.01439692
v -0.02500000 0.01907980 0.01439692
v -0.02500000 0.01750000 0.01366025
v -0.02500000 0.01750000 0.01366025
v -0.02500000 0.01750000 0.01366025
v -0.02500000 0.02076352 0.01484808
v -0.02500000 0.02076352 0.01484808
v -0.02500000 0.02076352 0.01484808
v -0.02500000 0.01265192 0.00673648
v -0.02500000 0.01265192 0.00673648
v -0.02500000 0.01265192 0.00673648
v -0.02500000 -0.00803485 -0.00957556
v -0.02500000 -0.00803485 -0.00957556
v -0.02500000 -0.00803485 -0.00957556
v -0.02500000 -0.00957556 -0.00803485
v -0.02500000 -0.00957556 -0.00803485
v -0.02500000 -0.00957556 -0.00803485
v -0.02500000 0.01607212 0.01266044
v -0.02500000 0.01607212 0.01266044
v -0.02500000 0.01607212 0.01266044
v -0.02500000 0.01483955 0.01142788
v -0.02500000 0.01483955 0.01142788
v -0.02500000 0.01483955 0.01142788
v -0.02500000 0.01383975 0.01000000
v -0.02500000 0.01383975 0.01000000
v -0.02500000 0.01383975 0.01000000
v -0.02500000 -0.01907980 0.01439692
v -0.02500000 -0.01907980 0.01439692
v -0.02500000 -0.01907980 0.01439692
v -0.02500000 -0.01907980 0.01439692
v -0.02500000 -0.01310307 0.00842020
v -0.02500000 -0.01310307 0.00842020
v -0.02500000 -0.01310307 0.00842020
v -0.02500000 -0.01383975 0.01000000
v -0.02500000 -0.01383975 0.01000000
v -0.02500000 -0.01383975 0.01000000
v -0.02500000 -0.01265192 0.00673648
v -0.02500000 -0.01265192 0.00673648
v -0.02500000 -0.01265192 0.00673648
v -0.02500000 -0.02076352 0.01484808
v -0.02500000 -0.02076352 0.01484808
v -0.02500000 -0.02076352 0.01484808
v -0.02500000 -0.01483956 0.01142788
v -0.02500000 -0.01483956 0.01142788
v -0.02500000 -0.01483956 0.01142788
v -0.02500000 -0.01607212 0.01266044
v -0.02500000 -0.01607212 0.01266044
v -0.02500000 -0.01607212 0.01266044
v -0.02500000 -0.01607212 0.01266044
v -0.02500000 -0.01750000 0.01366025
v -0.02500000 -0.01750000 0.01366025
v -0.02500000 -0.01750000 0.01366025
v -0.03700000 -0.01250000 0.00000000
v -0.03700000 -0.01250000 0.00000000
v -0.03700000 -0.01231010 -0.00217060
v -0.03700000 -0.01231010 -0.00217060
v -0.03700000 -0.01174616 -0.00427525
v -0.03700000 -0.01174616 -0.00427525
v -0.03700000 -0.01082532 -0.00625000
v -0.03700000 -0.01082532 -0.00625000
v -0.03700000 -0.00957556 -0.00803485
v -0.03700000 -0.00957556 -0.00803485
v -0.03700000 -0.00803485 -0.00957556
v -0.03700000 -0.00803485 -0.00957556
v -0.03700000 -0.00625000 -0.01082532
v -0.03700000 -0.00625000 -0.01082532
v -0.03700000 -0.00427525 -0.01174616
v -0.03700000 -0.00427525 -0.01174616
v -0.03700000 -0.00217060 -0.01231010
v -0.03700000 -0.00217060 -0.01231010
v -0.03700000 0.00000000 -0.01250000
v -0.03700000 0.00000000 -0.01250000
v -0.03700000 0.00217060 -0.01231010
v -0.03700000 0.00217060 -0.01231010
v -0.03700000 0.00427525 -0.01174616
v -0.03700000 0.00427525 -0.01174616
v -0.03700000 0.00625000 -0.01082532
v -0.03700000 0.00625000 -0.01082532
v -0.03700000 0.00803485 -0.00957556
v -0.03700000 0.00803485 -0.00957556
v -0.03700000 0.00957556 -0.00803485
v -0.03700000 0.00957556 -0.00803485
v -0.03700000 0.01082532 -0.00625000
v -0.03700000 0.01082532 -0.00625000
v -0.03700000 0.01174616 -0.00427525
v -0.03700000 0.01174616 -0.00427525
v -0.03700000 0.01231010 -0.00217060
v -0.03700000 0.01231010 -0.00217060
v -0.03700000 0.01250000 0.00000000
v -0.03700000 0.01250000 0.00000000
v -0.03700000 -0.01250000 0.00500000
v -0.03700000 -0.01250000 0.00500000
v -0.03700000 0.01250000 0.00500000
v -0.03700000 0.01250000 0.00500000
v -0.03700000 0.02076352 0.01484808
v -0.03700000 0.02076352 0.01484808
v -0.03700000 0.02076352 0.01484808
v -0.03700000 -0.02076352 0.01484808
v -0.03700000 -0.02076352 0.01484808
v -0.03700000 -0.02076352 0.01484808
v -0.03700000 -0.01907980 0.01439692
v -0.03700000 -0.01907980 0.01439692
v -0.03700000 -0.01750000 0.01366025
v -0.03700000 -0.01750000 0.01366025
v -0.03700000 -0.01607212 0.01266044
v -0.03700000 -0.01607212 0.01266044
v -0.03700000 -0.01483956 0.01142788
v -0.03700000 -0.01483956 0.01142788
v -0.03700000 0.01265192 0.00673648
v -0.03700000 0.01265192 0.00673648
v -0.03700000 -0.01265192 0.00673648
v -0.03700000 -0.01265192 0.00673648
v -0.03700000 -0.01310307 0.00842020
v -0.03700000 -0.01310307 0.00842020
v -0.03700000 0.01310307 0.00842020
v -0.03700000 0.01310307 0.00842020
v -0.03700000 0.01383975 0.01000000
v -0.03700000 0.01383975 0.01000000
v -0.03700000 0.01483955 0.01142788
v -0.03700000 0.01483955 0.01142788
v -0.03700000 0.01607212 0.01266044
v -0.03700000 0.01607212 0.01266044
v -0.03700000 0.01750000 0.01366025
v -0.03700000 0.01750000 0.01366025
v -0.03700000 -0.01383975 0.01000000
v -0.03700000 -0.01383975 0.01000000
v -0.03700000 0.01907980 0.01439692
v -0.03700000 0.01907980 0.01439692
v 0.03700000 0.01250000 0.00000000
v 0.03700000 0.01250000 0.00000000
v 0.03700000 0.01231010 -0.00217060
v 0.03700000 0.01231010 -0.00217060
v 0.03700000 0.01174616 -0.00427525
v 0.03700000 0.01174616 -0.00427525
v 0.03700000 0.01082532 -0.00625000
v 0.03700000 0.01082532 -0.00625000
v 0.03700000 0.00957556 -0.00803485
v 0.03700000 0.00957556 -0.00803485
v 0.03700000 0.00803485 -0.00957556
v 0.03700000 0.00803485 -0.00957556
v 0.03700000 0.00625000 -0.01082532
v 0.03700000 0.00625000 -0.01082532
v 0.03700000 0.00427525 -0.01174616
v 0.03700000 0.00427525 -0.01174616
v 0.03700000 0.00217060 -0.01231010
v 0.03700000 0.00217060 -0.01231010
v 0.03700000 0.00000000 -0.01250000
v 0.03700000 0.00000000 -0.01250000
v 0.03700000 -0.00217060 -0.01231010
v 0.03700000 -0.00217060 -0.01231010
v 0.03700000 -0.00427525 -0.01174616
v 0.03700000 -0.00427525 -0.01174616
v 0.03700000 -0.00625000 -0.01082532
v 0.03700000 -0.00625000 -0.01082532
v 0.03700000 -0.00803485 -0.00957556
v 0.03700000 -0.00803485 -0.00957556
v 0.03700000 -0.00957556 -0.00803485
v 0.03700000 -0.00957556 -0.00803485
v 0.03700000 -0.01082532 -0.00625000
v 0.03700000 -0.01082532 -0.00625000
v 0.03700000 -0.01174616 -0.00427525
v 0.03700000 -0.01174616 -0.00427525
v 0.03700000 -0.01231010 -0.00217060
v 0.03700000 -0.01231010 -0.00217060
v 0.03700000 -0.01250000 0.00000000
v 0.03700000 -0.01250000 0.00000000
v 0.03700000 0.01250000 0.00500000
v 0.03700000 0.01250000 0.00500000
v 0.03700000 -0.01250000 0.00500000
v 0.03700000 -0.01250000 0.00500000
v 0.03700000 -0.02076352 0.01484808
v 0.03700000 -0.02076352 0.01484808
v 0.03700000 -0.02076352 0.01484808
v 0.03700000 -0.01907980 0.01439692
v 0.03700000 -0.01907980 0.01439692
v 0.03700000 0.01383975 0.01000000
v 0.03700000 0.01383975 0.01000000
v 0.03700000 0.01310307 0.00842020
v 0.03700000 0.01310307 0.00842020
v 0.03700000 -0.01265192 0.00673648
v 0.03700000 -0.01265192 0.00673648
v 0.03700000 0.01265192 0.00673648
v 0.03700000 0.01265192 0.00673648
v 0.03700000 -0.01310307 0.00842020
v 0.03700000 -0.01310307 0.00842020
v 0.03700000 -0.01383975 0.01000000
v 0.03700000 -0.01383975 0.01000000
v 0.03700000 0.02076352 0.01484808
v 0.03700000 0.02076352 0.01484808
v 0.03700000 0.02076352 0.01484808
v 0.03700000 0.01907980 0.01439692
v 0.03700000 0.01907980 0.01439692
v 0.03700000 0.01750000 0.01366025
v 0.03700000 0.01750000 0.01366025
v 0.03700000 0.01607212 0.01266044
v 0.03700000 0.01607212 0.01266044
v 0.03700000 0.01483955 0.01142788
v 0.03700000 0.01483955 0.01142788
v 0.03700000 -0.01483956 0.01142788
v 0.03700000 -0.01483956 0.01142788
v 0.03700000 -0.01607212 0.01266044
v 0.03700000 -0.01607212 0.01266044
v 0.03700000 -0.01607212 0.01266044
v 0.03700000 -0.01750000 0.01366025
v 0.03700000 -0.01750000 0.01366025
vt 0.00000000 1.00000012
vt 0.25000009 0.12500000
vt 0.74151409 0.25000000
vt 0.00000000 0.98750007
vt 0.00000000 0.98750007
vt 0.74151409 0.26249999
vt 0.05999997 0.98750007
vt 0.05999997 0.98750007
vt 0.00000000 0.00000000
vt 0.00000000 0.76250005
vt 0.00000000 0.76250005
vt 0.74151409 0.48750001
vt 0.00000000 0.75000006
vt 0.49575710 0.37500000
vt 0.74151409 0.50000000
vt 0.05999997 0.76250005
vt 0.05999997 0.76250005
vt 0.00000000 0.00000000
vt 0.12499999 0.75000006
vt 0.49575710 0.50000000
vt 0.25000006 0.50000012
vt 0.12499999 1.00000012
vt 0.25000009 0.00000000
vt 0.25000003 0.75000012
vt 0.36499995 0.79092884
vt 0.36499995 0.79092884
vt 0.79151410 0.31250000
vt 0.42499995 0.80102724
vt 0.42499995 0.80102724
vt 0.87806457 0.36414701
vt 0.42499995 0.81155050
vt 0.42499995 0.81155050
vt 0.87524486 0.35362375
vt 0.25000003 0.50000006
vt 0.44660571 0.12500000
vt 0.94151407 0.25000000
vt 0.36499995 0.85767943
vt 0.36499995 0.85767943
vt 0.85668832 0.32712221
vt 0.36499995 0.84776026
vt 0.36499995 0.84776026
vt 0.84776407 0.32087344
vt 0.36499995 0.83720946
vt 0.36499995 0.83720946
vt 0.83789033 0.31626922
vt 0.36499995 0.82634753
vt 0.36499995 0.82634753
vt 0.82736713 0.31344950
vt 0.36499995 0.81550449
vt 0.36499995 0.81550449
vt 0.81651407 0.31250000
vt 0.00000002 0.50000006
vt 0.69236273 0.37500006
vt 0.94151407 0.50000000
vt 0.42499995 0.75000000
vt 0.24500000 0.86666548
vt 0.86439186 0.41517425
vt 0.42499995 0.75892425
vt 0.42499995 0.75892425
vt 0.87064070 0.40625000
vt 0.42499995 0.82142425
vt 0.42499995 0.82142425
vt 0.87064070 0.34375000
vt 0.42499995 0.83034843
vt 0.36499995 0.86666548
vt 0.86439186 0.33482575
vt 0.24500000 0.83720946
vt 0.24500000 0.83720946
vt 0.83789033 0.43373078
vt 0.24500000 0.84776032
vt 0.24500000 0.84776032
vt 0.84776407 0.42912662
vt 0.24500000 0.85767943
vt 0.24500000 0.85767943
vt 0.85668832 0.42287779
vt 0.42499995 0.76879799
vt 0.42499995 0.76879799
vt 0.87524486 0.39637625
vt 0.42499995 0.77932125
vt 0.42499995 0.77932125
vt 0.87806457 0.38585305
vt 0.42499995 0.79017425
vt 0.42499995 0.79017425
vt 0.87901407 0.37500000
vt 0.24500000 0.79092884
vt 0.24500000 0.79092884
vt 0.79151410 0.43750000
vt 0.24500000 0.81550449
vt 0.24500000 0.81550449
vt 0.81651407 0.43750000
vt 0.24500000 0.82634753
vt 0.24500000 0.82634753
vt 0.82736713 0.43655050
vt 0.00000000 0.97039908
vt 0.00000000 0.97039908
vt 0.00000000 0.00000000
vt 0.74452949 0.27960098
vt 0.36499995 0.77356488
vt 0.36499995 0.77356488
vt 0.77441311 0.30948460
vt 0.36499995 0.76512420
vt 0.36499995 0.76512420
vt 0.76651412 0.30580127
vt 0.36499995 0.78225440
vt 0.36499995 0.78225440
vt 0.78283167 0.31174040
vt 0.00000000 0.97881764
vt 0.00000000 0.97881764
vt 0.74227375 0.27118242
vt 0.36499995 0.75718886
vt 0.36499995 0.75718886
vt 0.75937474 0.30080223
vt 0.00000000 0.95536065
vt 0.36499995 0.75000000
vt 0.00000000 0.00000000
vt 0.75321186 0.29463935
vt 0.00000000 0.96250004
vt 0.00000000 0.96250004
vt 0.00000000 0.00000000
vt 0.24500000 0.77356488
vt 0.24500000 0.77356488
vt 0.00000000 0.00000000
vt 0.77441305 0.44051540
vt 0.00000000 0.77960104
vt 0.00000000 0.77960104
vt 0.74452949 0.47039902
vt 0.00000000 0.78750008
vt 0.00000000 0.78750008
vt 0.74821281 0.46249998
vt 0.00000000 0.77118248
vt 0.00000000 0.77118248
vt 0.74227369 0.47881758
vt 0.24500000 0.78225440
vt 0.24500000 0.78225440
vt 0.78283167 0.43825960
vt 0.00000000 0.79463947
vt 0.24500000 0.75000000
vt 0.75321186 0.45536065
vt 0.24500000 0.75718886
vt 0.24500000 0.75718886
vt 0.00000000 0.00000000
vt 0.75937474 0.44919777
vt 0.24500000 0.76512420
vt 0.24500000 0.76512420
vt 0.00000000 0.00000000
vt 0.87500006 0.50000006
vt 0.49575713 0.12500000
vt 0.74151421 0.00000000
vt 0.87500006 0.51250005
vt 0.87500006 0.51250005
vt 0.74151421 0.01249999
vt 0.81500006 0.51250005
vt 0.81500006 0.51250005
vt 0.00000000 0.00000000
vt 0.87500006 0.73750007
vt 0.87500006 0.73750007
vt 0.74151415 0.23750001
vt 0.87500006 0.75000006
vt 0.25000006 0.37500000
vt 0.74151415 0.25000000
vt 0.81500006 0.73750007
vt 0.81500006 0.73750007
vt 0.75000006 0.75000006
vt 0.25000006 0.50000000
vt 0.50000006 0.50000006
vt 0.75000006 0.50000006
vt 0.49575713 0.00000000
vt 0.50000006 0.75000006
vt 0.00000004 0.00000000
vt 0.74151415 0.00000006
vt 0.75000006 0.75000006
vt 0.25000003 0.00000000
vt 0.49575707 0.50000006
vt 0.75000006 0.50000006
vt -0.00000000 0.75000006
vt 0.69236273 0.12500000
vt 0.94151419 0.00000000
vt -0.00000000 0.50000000
vt 0.74151409 0.50000006
vt 0.50000006 0.50000012
vt 0.25000000 0.50000000
vt 0.49575710 0.00000006
vt 0.50000006 0.75000012
vt 0.25000000 0.75000012
vt 0.44660568 0.37500000
vt 0.94151419 0.25000000
vt 0.18499999 0.79092884
vt 0.18499999 0.79092884
vt 0.79151422 0.06250000
vt 0.18500002 0.79092884
vt 0.18500002 0.79092884
vt 0.79151416 0.18750000
vt 0.18500002 0.81550449
vt 0.18500002 0.81550449
vt 0.81651419 0.18750000
vt 0.18500002 0.84776026
vt 0.18500002 0.84776026
vt 0.84776419 0.17912662
vt 0.18500002 0.83720946
vt 0.18500002 0.83720946
vt 0.83789045 0.18373078
vt 0.18500002 0.82634753
vt 0.18500002 0.82634753
vt 0.82736719 0.18655050
vt 0.18500002 0.85767943
vt 0.18500002 0.85767943
vt 0.85668838 0.17287779
vt 0.42499992 0.83034843
vt 0.18500002 0.86666548
vt 0.86439198 0.16517425
vt 0.42499992 0.82142425
vt 0.42499992 0.82142425
vt 0.87064075 0.15625000
vt 0.42499992 0.81155050
vt 0.42499992 0.81155050
vt 0.87524498 0.14637625
vt 0.42499992 0.80102724
vt 0.42499992 0.80102724
vt 0.87806469 0.13585305
vt 0.42499992 0.79017425
vt 0.42499992 0.79017425
vt 0.87901419 0.12500000
vt 0.18499999 0.84776032
vt 0.18499999 0.84776032
vt 0.84776419 0.07087344
vt 0.18499999 0.83720946
vt 0.18499999 0.83720946
vt 0.83789045 0.06626922
vt 0.18499999 0.82634753
vt 0.18499999 0.82634753
vt 0.82736719 0.06344950
vt 0.18499999 0.81550449
vt 0.18499999 0.81550449
vt 0.81651419 0.06250000
vt 0.42499992 0.77932125
vt 0.42499992 0.77932125
vt 0.87806469 0.11414701
vt 0.42499992 0.76879799
vt 0.42499992 0.76879799
vt 0.87524498 0.10362375
vt 0.42499992 0.75892425
vt 0.42499992 0.75892425
vt 0.87064075 0.09375000
vt 0.18500002 0.77356488
vt 0.18500002 0.77356488
vt 0.77441317 0.19051540
vt 0.87500006 0.72039908
vt 0.87500006 0.72039908
vt 0.74452955 0.22039902
vt 0.87500006 0.71250010
vt 0.87500006 0.71250010
vt 0.74821293 0.21249998
vt 0.87500006 0.72881764
vt 0.87500006 0.72881764
vt 0.74227381 0.22881758
vt 0.18500002 0.78225440
vt 0.18500002 0.78225440
vt 0.78283179 0.18825960
vt 0.42499992 0.75000000
vt 0.18499999 0.86666548
vt 0.86439198 0.08482575
vt 0.18499999 0.85767943
vt 0.18499999 0.85767943
vt 0.85668844 0.07712221
vt 0.87500006 0.70536071
vt 0.18500002 0.75000000
vt 0.75321198 0.20536065
vt 0.18500002 0.75718886
vt 0.18500002 0.75718886
vt 0.75937480 0.19919777
vt 0.18500002 0.76512420
vt 0.18500002 0.76512420
vt 0.76651418 0.19419873
vt 0.87500006 0.52960110
vt 0.87500006 0.52960110
vt 0.00000000 0.00000000
vt 0.74452955 0.02960098
vt 0.18499999 0.77356488
vt 0.18499999 0.77356488
vt 0.77441317 0.05948460
vt 0.18499999 0.76512420
vt 0.18499999 0.76512420
vt 0.76651418 0.05580127
vt 0.18499999 0.78225440
vt 0.18499999 0.78225440
vt 0.78283179 0.06174040
vt 0.87500006 0.52118248
vt 0.87500006 0.52118248
vt 0.74227381 0.02118242
vt 0.18499999 0.75718886
vt 0.18499999 0.75718886
vt 0.75937480 0.05080223
vt 0.87500006 0.54463947
vt 0.18499999 0.75000000
vt 0.00000000 0.00000000
vt 0.75321198 0.04463941
vt 0.87500006 0.53750008
vt 0.87500006 0.53750008
vt 0.00000000 0.00000000
vt 0.12499999 0.81550449
vt 0.12499999 0.81550449
vt 0.12499999 0.82634753
vt 0.12499999 0.82634753
vt 0.12499999 0.83720946
vt 0.12499999 0.83720946
vt 0.12499999 0.84776032
vt 0.12499999 0.84776032
vt 0.12499999 0.85767943
vt 0.12499999 0.85767943
vt 0.36499992 0.75000000
vt 0.12499999 0.86666548
vt 0.36499992 0.75892425
vt 0.36499992 0.75892425
vt 0.36499992 0.76879799
vt 0.36499992 0.76879799
vt 0.36499992 0.77932125
vt 0.36499992 0.77932125
vt 0.36499992 0.79017425
vt 0.36499992 0.79017425
vt 0.36499992 0.80102724
vt 0.36499992 0.80102724
vt 0.36499992 0.81155050
vt 0.36499992 0.81155050
vt 0.36499992 0.82142425
vt 0.36499992 0.82142425
vt 0.36499992 0.83034843
vt 0.24500000 0.86666548
vt 0.24500000 0.85767943
vt 0.24500000 0.85767943
vt 0.24500000 0.84776026
vt 0.24500000 0.84776026
vt 0.24500000 0.83720946
vt 0.24500000 0.83720946
vt 0.24500000 0.82634753
vt 0.24500000 0.82634753
vt 0.24500000 0.81550449
vt 0.24500000 0.81550449
vt 0.12499999 0.79092884
vt 0.12499999 0.79092884
vt 0.24500000 0.79092884
vt 0.24500000 0.79092884
vt 0.81500006 0.72881764
vt 0.81500006 0.72881764
vt 0.00000000 0.00000000
vt 0.81500006 0.52118248
vt 0.81500006 0.52118248
vt 0.00000000 0.00000000
vt 0.81500006 0.52960110
vt 0.81500006 0.52960110
vt 0.81500006 0.53750008
vt 0.81500006 0.53750008
vt 0.81500006 0.54463947
vt 0.12499999 0.75000000
vt 0.12499999 0.75718886
vt 0.12499999 0.75718886
vt 0.24500000 0.78225440
vt 0.24500000 0.78225440
vt 0.12499999 0.78225440
vt 0.12499999 0.78225440
vt 0.12499999 0.77356488
vt 0.12499999 0.77356488
vt 0.24500000 0.77356488
vt 0.24500000 0.77356488
vt 0.24500000 0.76512420
vt 0.24500000 0.76512420
vt 0.24500000 0.75718886
vt 0.24500000 0.75718886
vt 0.81500006 0.70536071
vt 0.24500000 0.75000000
vt 0.81500006 0.71250010
vt 0.81500006 0.71250010
vt 0.12499999 0.76512420
vt 0.12499999 0.76512420
vt 0.81500006 0.72039908
vt 0.81500006 0.72039908
vt 0.30499998 0.81550449
vt 0.30499998 0.81550449
vt 0.30499998 0.82634753
vt 0.30499998 0.82634753
vt 0.30499998 0.83720946
vt 0.30499998 0.83720946
vt 0.30499998 0.84776026
vt 0.30499998 0.84776026
vt 0.30499998 0.85767943
vt 0.30499998 0.85767943
vt 0.48499995 0.83034843
vt 0.30499998 0.86666548
vt 0.48499995 0.82142425
vt 0.48499995 0.82142425
vt 0.48499995 0.81155050
vt 0.48499995 0.81155050
vt 0.48499995 0.80102724
vt 0.48499995 0.80102724
vt 0.48499995 0.79017425
vt 0.48499995 0.79017425
vt 0.48499995 0.77932125
vt 0.48499995 0.77932125
vt 0.48499995 0.76879799
vt 0.48499995 0.76879799
vt 0.48499995 0.75892425
vt 0.48499995 0.75892425
vt 0.48499995 0.75000000
vt 0.30499998 0.86666548
vt 0.30499998 0.85767943
vt 0.30499998 0.85767943
vt 0.30499998 0.84776032
vt 0.30499998 0.84776032
vt 0.30499998 0.83720946
vt 0.30499998 0.83720946
vt 0.30499998 0.82634753
vt 0.30499998 0.82634753
vt 0.30499998 0.81550449
vt 0.30499998 0.81550449
vt 0.30499998 0.79092884
vt 0.30499998 0.79092884
vt 0.30499998 0.79092884
vt 0.30499998 0.79092884
vt 0.05999997 0.77118248
vt 0.05999997 0.77118248
vt 0.00000000 0.00000000
vt 0.05999997 0.77960104
vt 0.05999997 0.77960104
vt 0.30499998 0.76512420
vt 0.30499998 0.76512420
vt 0.30499998 0.77356488
vt 0.30499998 0.77356488
vt 0.30499998 0.78225440
vt 0.30499998 0.78225440
vt 0.30499998 0.78225440
vt 0.30499998 0.78225440
vt 0.30499998 0.77356488
vt 0.30499998 0.77356488
vt 0.30499998 0.76512420
vt 0.30499998 0.76512420
vt 0.05999997 0.97881764
vt 0.05999997 0.97881764
vt 0.00000000 0.00000000
vt 0.05999997 0.97039908
vt 0.05999997 0.97039908
vt 0.05999997 0.96250004
vt 0.05999997 0.96250004
vt 0.05999997 0.95536065
vt 0.30499998 0.75000000
vt 0.30499998 0.75718886
vt 0.30499998 0.75718886
vt 0.30499998 0.75718886
vt 0.30499998 0.75718886
vt 0.05999997 0.79463947
vt 0.30499998 0.75000000
vt 0.00000000 0.00000000
vt 0.05999997 0.78750008
vt 0.05999997 0.78750008
f 1/1 4/4 7/7
f 10/10 13/13 16/16
f 16/16 13/13 19/19
f 16/16 19/19 7/7
f 7/7 19/19 22/22
f 7/7 22/22 1/1
f 6/6 3/3 27/27
f 30/30 33/33 36/36
f 36/36 39/39 42/42
f 42/42 45/45 36/36
f 36/36 45/45 48/48
f 36/36 48/48 3/3
f 3/3 48/48 51/51
f 3/3 51/51 27/27
f 54/54 57/57 60/60
f 33/33 63/63 36/36
f 36/36 63/63 66/66
f 36/36 66/66 39/39
f 69/69 72/72 54/54
f 54/54 72/72 75/75
f 54/54 75/75 57/57
f 60/60 78/78 54/54
f 54/54 78/78 81/81
f 54/54 81/81 36/36
f 36/36 81/81 84/84
f 36/36 84/84 30/30
f 12/12 87/87 15/15
f 15/15 87/87 90/90
f 15/15 90/90 54/54
f 54/54 90/90 93/93
f 54/54 93/93 69/69
f 97/97 100/100 103/103
f 27/27 106/106 6/6
f 6/6 106/106 100/100
f 6/6 100/100 109/109
f 109/109 100/100 97/97
f 103/103 112/112 97/97
f 97/97 112/112 116/116
f 96/96 115/115 119/119
f 123/123 126/126 129/129
f 12/12 132/132 87/87
f 87/87 132/132 126/126
f 87/87 126/126 135/135
f 135/135 126/126 123/123
f 129/129 138/138 123/123
f 123/123 138/138 142/142
f 122/122 141/141 145/145
f 146/146 149/149 152/152
f 155/155 158/158 161/161
f 161/161 158/158 163/163
f 161/161 163/163 152/152
f 152/152 163/163 166/166
f 152/152 166/166 146/146
f 168/168 165/165 171/171
f 171/171 165/165 174/174
f 147/147 167/167 176/176
f 176/176 167/167 170/170
f 176/176 170/170 53/53
f 53/53 170/170 179/179
f 53/53 179/179 14/14
f 14/14 179/179 20/20
f 24/24 21/21 183/183
f 183/183 21/21 180/180
f 2/2 23/23 35/35
f 35/35 23/23 182/182
f 35/35 182/182 185/185
f 185/185 182/182 173/173
f 185/185 173/173 159/159
f 159/159 173/173 164/164
f 181/181 178/178 172/172
f 172/172 178/178 169/169
f 151/151 148/148 189/189
f 192/192 195/195 157/157
f 198/198 186/186 201/201
f 201/201 186/186 204/204
f 204/204 186/186 195/195
f 195/195 186/186 160/160
f 195/195 160/160 157/157
f 198/198 207/207 186/186
f 186/186 207/207 210/210
f 186/186 210/210 213/213
f 213/213 216/216 186/186
f 186/186 216/216 219/219
f 186/186 219/219 177/177
f 177/177 219/219 222/222
f 225/225 228/228 177/177
f 177/177 228/228 231/231
f 177/177 231/231 148/148
f 148/148 231/231 234/234
f 148/148 234/234 189/189
f 222/222 237/237 177/177
f 177/177 237/237 240/240
f 177/177 240/240 243/243
f 246/246 249/249 252/252
f 157/157 255/255 192/192
f 192/192 255/255 249/249
f 192/192 249/249 258/258
f 258/258 249/249 246/246
f 243/243 261/261 177/177
f 177/177 261/261 264/264
f 177/177 264/264 225/225
f 252/252 267/267 246/246
f 246/246 267/267 270/270
f 246/246 270/270 273/273
f 277/277 280/280 283/283
f 189/189 286/286 151/151
f 151/151 286/286 280/280
f 151/151 280/280 289/289
f 289/289 280/280 277/277
f 283/283 292/292 277/277
f 277/277 292/292 296/296
f 276/276 295/295 299/299
f 34/34 184/184 52/52
f 52/52 184/184 175/175
f 300/300 232/232 303/303
f 303/303 232/232 230/230
f 302/302 229/229 305/305
f 305/305 229/229 227/227
f 304/304 226/226 307/307
f 307/307 226/226 224/224
f 306/306 223/223 309/309
f 309/309 223/223 263/263
f 308/308 262/262 311/311
f 311/311 262/262 260/260
f 310/310 259/259 313/313
f 313/313 259/259 242/242
f 312/312 241/241 315/315
f 315/315 241/241 239/239
f 314/314 238/238 317/317
f 317/317 238/238 236/236
f 316/316 235/235 318/318
f 318/318 235/235 220/220
f 319/319 221/221 320/320
f 320/320 221/221 217/217
f 321/321 218/218 322/322
f 322/322 218/218 214/214
f 323/323 215/215 324/324
f 324/324 215/215 211/211
f 325/325 212/212 326/326
f 326/326 212/212 208/208
f 327/327 209/209 328/328
f 328/328 209/209 205/205
f 329/329 206/206 330/330
f 330/330 206/206 196/196
f 331/331 197/197 332/332
f 332/332 197/197 199/199
f 333/333 200/200 334/334
f 334/334 200/200 202/202
f 335/335 203/203 336/336
f 336/336 203/203 193/193
f 188/188 233/233 339/339
f 339/339 233/233 301/301
f 341/341 337/337 191/191
f 191/191 337/337 194/194
f 344/344 154/154 347/347
f 376/376 49/49 379/379
f 379/379 49/49 47/47
f 378/378 46/46 381/381
f 381/381 46/46 44/44
f 380/380 43/43 383/383
f 383/383 43/43 41/41
f 382/382 40/40 385/385
f 385/385 40/40 38/38
f 384/384 37/37 387/387
f 387/387 37/37 65/65
f 386/386 64/64 389/389
f 389/389 64/64 62/62
f 388/388 61/61 391/391
f 391/391 61/61 32/32
f 390/390 31/31 393/393
f 393/393 31/31 29/29
f 392/392 28/28 395/395
f 395/395 28/28 83/83
f 394/394 82/82 396/396
f 396/396 82/82 79/79
f 397/397 80/80 398/398
f 398/398 80/80 76/76
f 399/399 77/77 400/400
f 400/400 77/77 58/58
f 401/401 59/59 402/402
f 402/402 59/59 55/55
f 403/403 56/56 404/404
f 404/404 56/56 73/73
f 405/405 74/74 406/406
f 406/406 74/74 70/70
f 407/407 71/71 408/408
f 408/408 71/71 67/67
f 409/409 68/68 410/410
f 410/410 68/68 91/91
f 411/411 92/92 412/412
f 412/412 92/92 88/88
f 26/26 50/50 415/415
f 415/415 50/50 377/377
f 417/417 413/413 86/86
f 86/86 413/413 89/89
f 420/420 18/18 9/9
f 437/437 450/450 9/9
f 11/11 17/17 418/418
f 11/11 418/418 130/130
f 131/131 419/419 421/421
f 131/131 421/421 124/124
f 125/125 422/422 451/451
f 125/125 451/451 127/127
f 128/128 452/452 448/448
f 128/128 448/448 136/136
f 137/137 449/449 446/446
f 137/137 446/446 139/139
f 140/140 447/447 433/433
f 140/140 433/433 143/143
f 144/144 434/434 431/431
f 144/144 431/431 120/120
f 121/121 432/432 427/427
f 121/121 427/427 133/133
f 134/134 428/428 416/416
f 134/134 416/416 85/85
f 25/25 414/414 430/430
f 25/25 430/430 105/105
f 104/104 429/429 426/426
f 104/104 426/426 99/99
f 98/98 425/425 424/424
f 98/98 424/424 102/102
f 101/101 423/423 445/445
f 101/101 445/445 111/111
f 110/110 444/444 443/443
f 110/110 443/443 114/114
f 113/113 442/442 441/441
f 113/113 441/441 118/118
f 117/117 440/440 439/439
f 117/117 439/439 95/95
f 94/94 438/438 436/436
f 94/94 436/436 108/108
f 107/107 435/435 8/8
f 107/107 8/8 5/5
f 153/153 150/150 287/287
f 153/153 287/287 345/345
f 346/346 288/288 274/274
f 346/346 274/274 348/348
f 349/349 275/275 297/297
f 349/349 297/297 350/350
f 351/351 298/298 293/293
f 351/351 293/293 352/352
f 353/353 294/294 290/290
f 353/353 290/290 354/354
f 355/355 291/291 281/281
f 355/355 281/281 372/372
f 373/373 282/282 278/278
f 373/373 278/278 360/360
f 361/361 279/279 284/284
f 361/361 284/284 358/358
f 359/359 285/285 187/187
f 359/359 187/187 338/338
f 340/340 190/190 257/257
f 340/340 257/257 357/357
f 356/356 256/256 245/245
f 356/356 245/245 363/363
f 362/362 244/244 272/272
f 362/362 272/272 365/365
f 364/364 271/271 269/269
f 364/364 269/269 367/367
f 366/366 268/268 266/266
f 366/366 266/266 369/369
f 368/368 265/265 251/251
f 368/368 251/251 371/371
f 370/370 250/250 248/248
f 370/370 248/248 375/375
f 374/374 247/247 254/254
f 374/374 254/254 343/343
f 342/342 253/253 156/156
f 342/342 156/156 162/162

