# https://github.com/mikedh/trimesh
mtllib material.mtl
usemtl wallpaper
v 0.36442629 10.29004323 4.59871951
v 0.36442629 10.43398640 4.59871951
v -0.35529015 10.29004323 4.59871951
v -0.35529015 10.29004323 4.59871951
v 0.36442629 10.43398640 4.59871951
v -0.35529015 10.43398640 4.59871951
v 0.36442629 10.29004323 2.89548987
v -0.35529015 10.29004323 2.89548987
v 0.36442629 10.43398640 2.89548987
v 0.36442629 10.43398640 2.89548987
v -0.35529015 10.29004323 2.89548987
v -0.35529015 10.43398640 2.89548987
v 0.36442629 10.29004323 2.89548987
v 0.36442629 10.43398640 2.89548987
v 0.36442629 10.29004323 4.59871951
v 0.36442629 10.29004323 4.59871951
v 0.36442629 10.43398640 2.89548987
v 0.36442629 10.43398640 4.59871951
v -0.35529015 10.29004323 4.59871951
v -0.35529015 10.43398640 4.59871951
v -0.35529015 10.29004323 2.89548987
v -0.35529015 10.29004323 2.89548987
v -0.35529015 10.43398640 4.59871951
v -0.35529015 10.43398640 2.89548987
v -0.35529015 10.43398640 4.59871951
v 0.36442629 10.43398640 4.59871951
v -0.35529015 10.43398640 2.89548987
v -0.35529015 10.43398640 2.89548987
v 0.36442629 10.43398640 4.59871951
v 0.36442629 10.43398640 2.89548987
v -2.51443979 10.43398640 5.67743123
v -2.51443979 -3.96034339 5.67743123
v -2.51443979 10.43398640 0.00000000
v -2.51443979 10.43398640 0.00000000
v -2.51443979 -3.96034339 5.67743123
v -2.51443979 -3.96034339 0.00000000
v -2.65838295 10.43398640 5.67743123
v -2.51443979 10.43398640 5.67743123
v -2.65838295 10.43398640 0.00000000
v -2.65838295 10.43398640 0.00000000
v -2.51443979 10.43398640 5.67743123
v -2.51443979 10.43398640 0.00000000
v -2.65838295 -4.10428655 5.67743123
v -2.65838295 10.43398640 5.67743123
v -2.65838295 -4.10428655 0.00000000
v -2.65838295 -4.10428655 0.00000000
v -2.65838295 10.43398640 5.67743123
v -2.65838295 10.43398640 0.00000000
v 11.87988999 -4.10428655 5.67743123
v -2.65838295 -4.10428655 5.67743123
v 11.87988999 -4.10428655 0.00000000
v 11.87988999 -4.10428655 0.00000000
v -2.65838295 -4.10428655 5.67743123
v -2.65838295 -4.10428655 0.00000000
v 11.87988999 -3.96034339 5.67743123
v 11.87988999 -4.10428655 5.67743123
v 11.87988999 -3.96034339 0.00000000
v 11.87988999 -3.96034339 0.00000000
v 11.87988999 -4.10428655 5.67743123
v 11.87988999 -4.10428655 0.00000000
v -2.51443979 -3.96034339 5.67743123
v 11.87988999 -3.96034339 5.67743123
v -2.51443979 -3.96034339 0.00000000
v -2.51443979 -3.96034339 0.00000000
v 11.87988999 -3.96034339 5.67743123
v 11.87988999 -3.96034339 0.00000000
v -2.51443979 10.43398640 5.67743123
v -2.65838295 10.43398640 5.67743123
v -2.51443979 -3.96034339 5.67743123
v -2.51443979 -3.96034339 5.67743123
v -2.65838295 10.43398640 5.67743123
v -2.65838295 -4.10428655 5.67743123
v -2.51443979 -3.96034339 5.67743123
v -2.65838295 -4.10428655 5.67743123
v 11.87988999 -3.96034339 5.67743123
v 11.87988999 -3.96034339 5.67743123
v -2.65838295 -4.10428655 5.67743123
v 11.87988999 -4.10428655 5.67743123
v 11.87988999 -3.96034339 0.00000000
v 11.87988999 -4.10428655 0.00000000
v -2.51443979 -3.96034339 0.00000000
v -2.51443979 -3.96034339 0.00000000
v 11.87988999 -4.10428655 0.00000000
v -2.65838295 -4.10428655 0.00000000
v -2.51443979 -3.96034339 0.00000000
v -2.65838295 -4.10428655 0.00000000
v -2.51443979 10.43398640 0.00000000
v -2.51443979 10.43398640 0.00000000
v -2.65838295 -4.10428655 0.00000000
v -2.65838295 10.43398640 0.00000000
v 0.36442629 10.43398640 4.59871951
v 0.36442629 10.29004323 4.59871951
v -0.35529015 10.43398640 4.59871951
v -0.35529015 10.43398640 4.59871951
v 0.36442629 10.29004323 4.59871951
v -0.35529015 10.29004323 4.59871951
v 0.36442629 10.43398640 2.89548987
v 0.36442629 10.29004323 2.89548987
v 0.36442629 10.43398640 4.59871951
v 0.36442629 10.43398640 4.59871951
v 0.36442629 10.29004323 2.89548987
v 0.36442629 10.29004323 4.59871951
v -0.35529015 10.43398640 4.59871951
v -0.35529015 10.29004323 4.59871951
v -0.35529015 10.43398640 2.89548987
v -0.35529015 10.43398640 2.89548987
v -0.35529015 10.29004323 4.59871951
v -0.35529015 10.29004323 2.89548987
v 11.87988999 -3.96034339 5.67743123
v 11.73594683 -3.96034339 5.67743123
v 11.87988999 -3.96034339 0.00000000
v 11.87988999 -3.96034339 0.00000000
v 11.73594683 -3.96034339 5.67743123
v 11.73594683 -3.96034339 0.00000000
v 11.87988999 0.21401238 0.00000000
v 11.87988999 -3.96034339 0.00000000
v 11.73594683 0.21401238 0.00000000
v 11.73594683 0.21401238 0.00000000
v 11.87988999 -3.96034339 0.00000000
v 11.73594683 -3.96034339 0.00000000
v 11.87988999 0.21401238 2.27097249
v 11.87988999 0.21401238 0.00000000
v 11.73594683 0.21401238 2.27097249
v 11.73594683 0.21401238 2.27097249
v 11.87988999 0.21401238 0.00000000
v 11.73594683 0.21401238 0.00000000
v 11.87988999 2.01330361 2.27097249
v 11.87988999 0.21401238 2.27097249
v 11.73594683 2.01330361 2.27097249
v 11.73594683 2.01330361 2.27097249
v 11.87988999 0.21401238 2.27097249
v 11.73594683 0.21401238 2.27097249
v 11.87988999 2.01330361 0.00000000
v 11.87988999 2.01330361 2.27097249
v 11.73594683 2.01330361 0.00000000
v 11.73594683 2.01330361 0.00000000
v 11.87988999 2.01330361 2.27097249
v 11.73594683 2.01330361 2.27097249
v 11.87988999 3.45273659 0.00000000
v 11.87988999 2.01330361 0.00000000
v 11.73594683 3.45273659 0.00000000
v 11.73594683 3.45273659 0.00000000
v 11.87988999 2.01330361 0.00000000
v 11.73594683 2.01330361 0.00000000
v 11.87988999 3.45273659 2.27097249
v 11.87988999 3.45273659 0.00000000
v 11.73594683 3.45273659 2.27097249
v 11.73594683 3.45273659 2.27097249
v 11.87988999 3.45273659 0.00000000
v 11.73594683 3.45273659 0.00000000
v 11.87988999 5.25202781 2.27097249
v 11.87988999 3.45273659 2.27097249
v 11.73594683 5.25202781 2.27097249
v 11.73594683 5.25202781 2.27097249
v 11.87988999 3.45273659 2.27097249
v 11.73594683 3.45273659 2.27097249
v 11.87988999 5.25202781 0.00000000
v 11.87988999 5.25202781 2.27097249
v 11.73594683 5.25202781 0.00000000
v 11.73594683 5.25202781 0.00000000
v 11.87988999 5.25202781 2.27097249
v 11.73594683 5.25202781 2.27097249
v 11.87988999 6.69146079 0.00000000
v 11.87988999 5.25202781 0.00000000
v 11.73594683 6.69146079 0.00000000
v 11.73594683 6.69146079 0.00000000
v 11.87988999 5.25202781 0.00000000
v 11.73594683 5.25202781 0.00000000
v 11.87988999 6.69146079 2.27097249
v 11.87988999 6.69146079 0.00000000
v 11.73594683 6.69146079 2.27097249
v 11.73594683 6.69146079 2.27097249
v 11.87988999 6.69146079 0.00000000
v 11.73594683 6.69146079 0.00000000
v 11.87988999 8.49075201 2.27097249
v 11.87988999 6.69146079 2.27097249
v 11.73594683 8.49075201 2.27097249
v 11.73594683 8.49075201 2.27097249
v 11.87988999 6.69146079 2.27097249
v 11.73594683 6.69146079 2.27097249
v 11.87988999 8.49075201 0.00000000
v 11.87988999 8.49075201 2.27097249
v 11.73594683 8.49075201 0.00000000
v 11.73594683 8.49075201 0.00000000
v 11.87988999 8.49075201 2.27097249
v 11.73594683 8.49075201 2.27097249
v -0.35529015 10.29004323 1.70322937
v -1.07500664 10.29004323 1.70322937
v -0.35529015 10.43398640 1.70322937
v -0.35529015 10.43398640 1.70322937
v -1.07500664 10.29004323 1.70322937
v -1.07500664 10.43398640 1.70322937
v -0.35529015 10.29004323 0.00000000
v -0.35529015 10.29004323 1.70322937
v -0.35529015 10.43398640 0.00000000
v -0.35529015 10.43398640 0.00000000
v -0.35529015 10.29004323 1.70322937
v -0.35529015 10.43398640 1.70322937
v -0.35529015 10.29004323 0.00000000
v -0.35529015 10.43398640 0.00000000
v 11.73594683 10.29004323 0.00000000
v 11.73594683 10.29004323 0.00000000
v -0.35529015 10.43398640 0.00000000
v 11.87988999 10.43398640 0.00000000
v 11.73594683 10.29004323 0.00000000
v 11.87988999 10.43398640 0.00000000
v 11.73594683 8.49075201 0.00000000
v 11.73594683 8.49075201 0.00000000
v 11.87988999 10.43398640 0.00000000
v 11.87988999 8.49075201 0.00000000
v 11.87988999 2.01330361 2.27097249
v 11.87988999 2.01330361 0.00000000
v 11.87988999 3.45273659 0.00000000
v 11.87988999 -3.96034339 5.67743123
v 11.87988999 -3.96034339 0.00000000
v 11.87988999 0.21401238 0.00000000
v 11.87988999 5.25202781 0.00000000
v 11.87988999 6.69146079 0.00000000
v 11.87988999 5.25202781 2.27097249
v 11.87988999 5.25202781 2.27097249
v 11.87988999 6.69146079 0.00000000
v 11.87988999 6.69146079 2.27097249
v 11.87988999 3.45273659 0.00000000
v 11.87988999 3.45273659 2.27097249
v 11.87988999 2.01330361 2.27097249
v 11.87988999 2.01330361 2.27097249
v 11.87988999 3.45273659 2.27097249
v 11.87988999 -3.96034339 5.67743123
v 11.87988999 2.01330361 2.27097249
v 11.87988999 -3.96034339 5.67743123
v 11.87988999 0.21401238 2.27097249
v 11.87988999 0.21401238 2.27097249
v 11.87988999 -3.96034339 5.67743123
v 11.87988999 0.21401238 0.00000000
v 11.87988999 8.49075201 0.00000000
v 11.87988999 10.43398640 0.00000000
v 11.87988999 8.49075201 2.27097249
v 11.87988999 8.49075201 2.27097249
v 11.87988999 10.43398640 0.00000000
v 11.87988999 10.43398640 5.67743123
v 11.87988999 8.49075201 2.27097249
v 11.87988999 10.43398640 5.67743123
v 11.87988999 6.69146079 2.27097249
v 11.87988999 6.69146079 2.27097249
v 11.87988999 10.43398640 5.67743123
v 11.87988999 -3.96034339 5.67743123
v 11.87988999 6.69146079 2.27097249
v 11.87988999 -3.96034339 5.67743123
v 11.87988999 5.25202781 2.27097249
v 11.87988999 5.25202781 2.27097249
v 11.87988999 -3.96034339 5.67743123
v 11.87988999 3.45273659 2.27097249
v 11.73594683 -3.96034339 5.67743123
v 11.87988999 -3.96034339 5.67743123
v 11.73594683 10.29004323 5.67743123
v 11.73594683 10.29004323 5.67743123
v 11.87988999 -3.96034339 5.67743123
v 11.87988999 10.43398640 5.67743123
v 11.73594683 10.29004323 5.67743123
v 11.87988999 10.43398640 5.67743123
v -2.51443979 10.29004323 5.67743123
v -2.51443979 10.29004323 5.67743123
v 11.87988999 10.43398640 5.67743123
v -2.51443979 10.43398640 5.67743123
v 3.25048945 9.61834280 3.46470247
v 3.25048945 9.61809777 3.46323299
v 3.25048945 9.63038388 3.46724752
v 3.25048945 9.42638358 3.46323299
v 3.25048945 9.42638358 3.45187814
v 3.25048945 9.61809777 3.46323299
v 3.25048945 9.61809777 3.46323299
v 3.25048945 9.42638358 3.45187814
v 3.25048945 9.61809777 3.45187814
v 3.25048945 9.61809777 3.46323299
v 3.25048945 9.61809777 3.45187814
v 3.25048945 9.63249243 3.46323299
v 3.25048945 9.61809777 2.89548987
v 3.25048945 9.42638358 2.89548987
v 3.25048945 9.42638358 2.83871561
v 3.25048945 10.29004323 2.78194135
v 3.25048945 10.17227979 2.89548987
v 3.25048945 9.63249243 2.89548987
v 3.25048945 9.63249243 3.45187814
v 3.25048945 10.17227979 3.45187814
v 3.25048945 10.17227979 3.46323299
v 3.25048945 9.63249243 3.46323299
v 3.25048945 9.63224671 3.46470247
v 3.25048945 9.61809777 3.46323299
v 3.25048945 9.61809777 3.46323299
v 3.25048945 9.63224671 3.46470247
v 3.25048945 9.63152807 3.46607177
v 3.25048945 9.61809777 3.46323299
v 3.25048945 9.63152807 3.46607177
v 3.25048945 9.63038388 3.46724752
v 3.25048945 10.17252483 3.46470247
v 3.25048945 10.17227979 3.46323299
v 3.25048945 10.18456591 3.46724752
v 3.25048945 10.29004323 2.78194135
v 3.25048945 10.29004323 2.89548987
v 3.25048945 10.18667377 2.89548987
v 3.25048945 10.18456591 3.46724752
v 3.25048945 10.17227979 3.46323299
v 3.25048945 10.18570941 3.46607177
v 3.25048945 10.17227979 3.46323299
v 3.25048945 9.63249243 3.46323299
v 3.25048945 9.63249243 3.45187814
v 3.25048945 9.63249243 3.45187814
v 3.25048945 9.63249243 3.46323299
v 3.25048945 9.61809777 3.45187814
v 3.25048945 9.63249243 3.45187814
v 3.25048945 9.61809777 3.45187814
v 3.25048945 9.63249243 2.89548987
v 3.25048945 9.63249243 2.89548987
v 3.25048945 9.61809777 3.45187814
v 3.25048945 9.61809777 2.89548987
v 3.25048945 9.63249243 2.89548987
v 3.25048945 9.61809777 2.89548987
v 3.25048945 10.29004323 2.78194135
v 3.25048945 10.29004323 2.78194135
v 3.25048945 9.61809777 2.89548987
v 3.25048945 9.42638358 2.83871561
v 3.25048945 10.29004323 2.78194135
v 3.25048945 9.42638358 2.83871561
v 3.25048945 9.42638358 2.78194135
v 3.25048945 10.29004323 3.45187814
v 3.25048945 10.29004323 3.46323299
v 3.25048945 10.18667377 3.45187814
v 3.25048945 10.18667377 3.45187814
v 3.25048945 10.29004323 3.46323299
v 3.25048945 10.18667377 3.46323299
v 3.25048945 9.62529510 3.46891055
v 3.25048945 9.62343228 3.46871699
v 3.25048945 9.62715792 3.46871699
v 3.25048945 9.62715792 3.46871699
v 3.25048945 9.62343228 3.46871699
v 3.25048945 9.62169643 3.46814983
v 3.25048945 9.62715792 3.46871699
v 3.25048945 9.62169643 3.46814983
v 3.25048945 9.62889376 3.46814983
v 3.25048945 9.62889376 3.46814983
v 3.25048945 9.62169643 3.46814983
v 3.25048945 9.62020563 3.46724752
v 3.25048945 9.62889376 3.46814983
v 3.25048945 9.62020563 3.46724752
v 3.25048945 9.63038388 3.46724752
v 3.25048945 9.63038388 3.46724752
v 3.25048945 9.62020563 3.46724752
v 3.25048945 9.61906213 3.46607177
v 3.25048945 9.63038388 3.46724752
v 3.25048945 9.61906213 3.46607177
v 3.25048945 9.61834280 3.46470247
v 3.25048945 10.29004323 2.78194135
v 3.25048945 10.18667377 2.89548987
v 3.25048945 10.17227979 2.89548987
v 3.25048945 10.17227979 2.89548987
v 3.25048945 10.18667377 2.89548987
v 3.25048945 10.18667377 3.45187814
v 3.25048945 10.17227979 2.89548987
v 3.25048945 10.18667377 3.45187814
v 3.25048945 10.17227979 3.45187814
v 3.25048945 10.17227979 3.45187814
v 3.25048945 10.18667377 3.45187814
v 3.25048945 10.18667377 3.46323299
v 3.25048945 10.17227979 3.45187814
v 3.25048945 10.18667377 3.46323299
v 3.25048945 10.17227979 3.46323299
v 3.25048945 10.17227979 3.46323299
v 3.25048945 10.18667377 3.46323299
v 3.25048945 10.18642873 3.46470247
v 3.25048945 10.17227979 3.46323299
v 3.25048945 10.18642873 3.46470247
v 3.25048945 10.18570941 3.46607177
v 3.25048945 10.17947644 3.46891055
v 3.25048945 10.17761362 3.46871699
v 3.25048945 10.18133926 3.46871699
v 3.25048945 10.18133926 3.46871699
v 3.25048945 10.17761362 3.46871699
v 3.25048945 10.17587777 3.46814983
v 3.25048945 10.18133926 3.46871699
v 3.25048945 10.17587777 3.46814983
v 3.25048945 10.18307510 3.46814983
v 3.25048945 10.18307510 3.46814983
v 3.25048945 10.17587777 3.46814983
v 3.25048945 10.17438765 3.46724752
v 3.25048945 10.18307510 3.46814983
v 3.25048945 10.17438765 3.46724752
v 3.25048945 10.18456591 3.46724752
v 3.25048945 10.18456591 3.46724752
v 3.25048945 10.17438765 3.46724752
v 3.25048945 10.17324347 3.46607177
v 3.25048945 10.18456591 3.46724752
v 3.25048945 10.17324347 3.46607177
v 3.25048945 10.17252483 3.46470247
v 3.24862663 9.42638358 3.46871699
v 3.25048945 9.42638358 3.46891055
v 3.25048945 9.42638358 3.46323299
v 3.24329229 9.42638358 2.89548987
v 3.24329229 9.42638358 3.45187814
v 3.25048945 9.42638358 2.89548987
v 3.25048945 9.42638358 2.89548987
v 3.24329229 9.42638358 3.45187814
v 3.25048945 9.42638358 3.45187814
v 6.85602351 9.42638358 3.46470247
v 6.85626923 9.42638358 3.46323299
v 6.84907190 9.42638358 3.46891055
v 6.85626923 9.42638358 2.89548987
v 6.84907190 9.42638358 3.46891055
v 6.85626923 9.42638358 3.45187814
v 6.85626923 9.42638358 3.45187814
v 6.84907190 9.42638358 3.46891055
v 6.85626923 9.42638358 3.46323299
v 6.85626923 9.42638358 3.45187814
v 6.85626923 9.42638358 3.46323299
v 7.56159106 9.42638358 3.45187814
v 7.56159106 9.42638358 3.45187814
v 6.85626923 9.42638358 3.46323299
v 7.56159106 9.42638358 3.46323299
v 7.56159106 9.42638358 3.45187814
v 7.56159106 9.42638358 3.46323299
v 7.57598572 9.42638358 3.46323299
v 7.57598572 9.42638358 3.46323299
v 7.56159106 9.42638358 3.46323299
v 7.56183609 9.42638358 3.46470247
v 7.57598572 9.42638358 3.46323299
v 7.56183609 9.42638358 3.46470247
v 7.56255542 9.42638358 3.46607177
v 6.85093472 9.42638358 3.46871699
v 6.85267056 9.42638358 3.46814983
v 6.85416137 9.42638358 3.46724752
v 6.85093472 9.42638358 3.46871699
v 6.85416137 9.42638358 3.46724752
v 6.84907190 9.42638358 3.46891055
v 6.84907190 9.42638358 3.46891055
v 6.85416137 9.42638358 3.46724752
v 6.85530487 9.42638358 3.46607177
v 6.84907190 9.42638358 3.46891055
v 6.85530487 9.42638358 3.46607177
v 6.85602351 9.42638358 3.46470247
v 7.56369892 9.42638358 3.46724752
v 7.57502136 9.42638358 3.46607177
v 7.56255542 9.42638358 3.46607177
v 7.56255542 9.42638358 3.46607177
v 7.57502136 9.42638358 3.46607177
v 7.57574000 9.42638358 3.46470247
v 7.56255542 9.42638358 3.46607177
v 7.57574000 9.42638358 3.46470247
v 7.57598572 9.42638358 3.46323299
v 7.56369892 9.42638358 3.46724752
v 7.56518972 9.42638358 3.46814983
v 7.57502136 9.42638358 3.46607177
v 7.57502136 9.42638358 3.46607177
v 7.56518972 9.42638358 3.46814983
v 7.56692557 9.42638358 3.46871699
v 7.57502136 9.42638358 3.46607177
v 7.56692557 9.42638358 3.46871699
v 7.56878839 9.42638358 3.46891055
v 7.56878839 9.42638358 3.46891055
v 7.57065121 9.42638358 3.46871699
v 7.57502136 9.42638358 3.46607177
v 7.57502136 9.42638358 3.46607177
v 7.57065121 9.42638358 3.46871699
v 7.57238705 9.42638358 3.46814983
v 7.57502136 9.42638358 3.46607177
v 7.57238705 9.42638358 3.46814983
v 7.57387786 9.42638358 3.46724752
v 6.13655240 9.42638358 2.89548987
v 6.84187457 9.42638358 2.89548987
v 6.84907190 9.42638358 2.83871561
v 7.57598572 9.42638358 3.46323299
v 7.57598572 9.42638358 2.89548987
v 7.56159106 9.42638358 3.45187814
v 7.56159106 9.42638358 3.45187814
v 7.57598572 9.42638358 2.89548987
v 7.56878839 9.42638358 2.89548987
v 7.56159106 9.42638358 3.45187814
v 7.56878839 9.42638358 2.89548987
v 7.56159106 9.42638358 2.89548987
v 7.56159106 9.42638358 2.89548987
v 7.56878839 9.42638358 2.89548987
v 7.56878839 9.42638358 2.83871561
v 7.56159106 9.42638358 2.89548987
v 7.56878839 9.42638358 2.83871561
v 6.85626923 9.42638358 2.89548987
v 6.85626923 9.42638358 2.89548987
v 7.56878839 9.42638358 2.83871561
v 6.84907190 9.42638358 2.83871561
v 6.85626923 9.42638358 2.89548987
v 6.84907190 9.42638358 2.83871561
v 6.84907190 9.42638358 3.46891055
v 6.84907190 9.42638358 3.46891055
v 6.84907190 9.42638358 2.83871561
v 6.84187457 9.42638358 2.89548987
v 6.84907190 9.42638358 3.46891055
v 6.84187457 9.42638358 2.89548987
v 6.84187457 9.42638358 3.45187814
v 6.13295407 9.42638358 3.46814983
v 6.13444454 9.42638358 3.46724752
v 6.13558838 9.42638358 3.46607177
v 6.84907190 9.42638358 2.83871561
v 6.12935541 9.42638358 2.83871561
v 6.13655240 9.42638358 2.89548987
v 6.13655240 9.42638358 2.89548987
v 6.12935541 9.42638358 2.83871561
v 6.12935541 9.42638358 3.46891055
v 6.13655240 9.42638358 2.89548987
v 6.12935541 9.42638358 3.46891055
v 6.13655240 9.42638358 3.45187814
v 6.13655240 9.42638358 3.45187814
v 6.12935541 9.42638358 3.46891055
v 6.13655240 9.42638358 3.46323299
v 6.13655240 9.42638358 3.45187814
v 6.13655240 9.42638358 3.46323299
v 6.84187457 9.42638358 3.45187814
v 6.84187457 9.42638358 3.45187814
v 6.13655240 9.42638358 3.46323299
v 6.84187457 9.42638358 3.46323299
v 6.84187457 9.42638358 3.45187814
v 6.84187457 9.42638358 3.46323299
v 6.84907190 9.42638358 3.46891055
v 6.84907190 9.42638358 3.46891055
v 6.84187457 9.42638358 3.46323299
v 6.84211961 9.42638358 3.46470247
v 6.12935541 9.42638358 3.46891055
v 6.13121823 9.42638358 3.46871699
v 6.13655240 9.42638358 3.46323299
v 6.13655240 9.42638358 3.46323299
v 6.13121823 9.42638358 3.46871699
v 6.13295407 9.42638358 3.46814983
v 6.13655240 9.42638358 3.46323299
v 6.13295407 9.42638358 3.46814983
v 6.13630736 9.42638358 3.46470247
v 6.13630736 9.42638358 3.46470247
v 6.13295407 9.42638358 3.46814983
v 6.13558838 9.42638358 3.46607177
v 6.84211961 9.42638358 3.46470247
v 6.84283893 9.42638358 3.46607177
v 6.84907190 9.42638358 3.46891055
v 6.84907190 9.42638358 3.46891055
v 6.84283893 9.42638358 3.46607177
v 6.84398243 9.42638358 3.46724752
v 6.84907190 9.42638358 3.46891055
v 6.84398243 9.42638358 3.46724752
v 6.84720908 9.42638358 3.46871699
v 6.84720908 9.42638358 3.46871699
v 6.84398243 9.42638358 3.46724752
v 6.84547323 9.42638358 3.46814983
v 5.41683591 9.42638358 2.89548987
v 5.40963892 9.42638358 3.46891055
v 5.41683591 9.42638358 3.45187814
v 5.41683591 9.42638358 3.45187814
v 5.40963892 9.42638358 3.46891055
v 5.41683591 9.42638358 3.46323299
v 5.41683591 9.42638358 3.45187814
v 5.41683591 9.42638358 3.46323299
v 6.12215808 9.42638358 3.45187814
v 5.41323759 9.42638358 3.46814983
v 5.41472805 9.42638358 3.46724752
v 5.41587189 9.42638358 3.46607177
v 5.40963892 9.42638358 3.46891055
v 5.41150174 9.42638358 3.46871699
v 5.41683591 9.42638358 3.46323299
v 5.41683591 9.42638358 3.46323299
v 5.41150174 9.42638358 3.46871699
v 5.41323759 9.42638358 3.46814983
v 5.41683591 9.42638358 3.46323299
v 5.41323759 9.42638358 3.46814983
v 5.41659087 9.42638358 3.46470247
v 5.41659087 9.42638358 3.46470247
v 5.41323759 9.42638358 3.46814983
v 5.41587189 9.42638358 3.46607177
v 6.12312244 9.42638358 3.46607177
v 6.12426628 9.42638358 3.46724752
v 6.12575674 9.42638358 3.46814983
v 6.12215808 9.42638358 3.46323299
v 6.12240346 9.42638358 3.46470247
v 6.12935541 9.42638358 3.46891055
v 6.12935541 9.42638358 3.46891055
v 6.12240346 9.42638358 3.46470247
v 6.12312244 9.42638358 3.46607177
v 6.12935541 9.42638358 3.46891055
v 6.12312244 9.42638358 3.46607177
v 6.12749259 9.42638358 3.46871699
v 6.12749259 9.42638358 3.46871699
v 6.12312244 9.42638358 3.46607177
v 6.12575674 9.42638358 3.46814983
v 4.69711942 9.42638358 2.89548987
v 5.40244159 9.42638358 2.89548987
v 5.40963892 9.42638358 2.83871561
v 5.41683591 9.42638358 3.46323299
v 6.12215808 9.42638358 3.46323299
v 6.12215808 9.42638358 3.45187814
v 6.12215808 9.42638358 3.45187814
v 6.12215808 9.42638358 3.46323299
v 6.12935541 9.42638358 3.46891055
v 6.12215808 9.42638358 3.45187814
v 6.12935541 9.42638358 3.46891055
v 6.12215808 9.42638358 2.89548987
v 6.12215808 9.42638358 2.89548987
v 6.12935541 9.42638358 3.46891055
v 6.12935541 9.42638358 2.83871561
v 6.12215808 9.42638358 2.89548987
v 6.12935541 9.42638358 2.83871561
v 5.41683591 9.42638358 2.89548987
v 5.41683591 9.42638358 2.89548987
v 6.12935541 9.42638358 2.83871561
v 5.40963892 9.42638358 2.83871561
v 5.41683591 9.42638358 2.89548987
v 5.40963892 9.42638358 2.83871561
v 5.40963892 9.42638358 3.46891055
v 5.40963892 9.42638358 3.46891055
v 5.40963892 9.42638358 2.83871561
v 5.40244159 9.42638358 2.89548987
v 5.40963892 9.42638358 3.46891055
v 5.40244159 9.42638358 2.89548987
v 5.40244159 9.42638358 3.45187814
v 5.40963892 9.42638358 2.83871561
v 4.68992243 9.42638358 2.83871561
v 4.69711942 9.42638358 2.89548987
v 4.69711942 9.42638358 2.89548987
v 4.68992243 9.42638358 2.83871561
v 4.68992243 9.42638358 3.46891055
v 4.69711942 9.42638358 2.89548987
v 4.68992243 9.42638358 3.46891055
v 4.69711942 9.42638358 3.45187814
v 4.69711942 9.42638358 3.45187814
v 4.68992243 9.42638358 3.46891055
v 4.69711942 9.42638358 3.46323299
v 4.69711942 9.42638358 3.45187814
v 4.69711942 9.42638358 3.46323299
v 5.40244159 9.42638358 3.45187814
v 5.40244159 9.42638358 3.45187814
v 4.69711942 9.42638358 3.46323299
v 5.40244159 9.42638358 3.46323299
v 5.40244159 9.42638358 3.45187814
v 5.40244159 9.42638358 3.46323299
v 5.40963892 9.42638358 3.46891055
v 4.69352110 9.42638358 3.46814983
v 4.69501156 9.42638358 3.46724752
v 4.69615540 9.42638358 3.46607177
v 4.68992243 9.42638358 3.46891055
v 4.69178525 9.42638358 3.46871699
v 4.69711942 9.42638358 3.46323299
v 4.69711942 9.42638358 3.46323299
v 4.69178525 9.42638358 3.46871699
v 4.69352110 9.42638358 3.46814983
v 4.69711942 9.42638358 3.46323299
v 4.69352110 9.42638358 3.46814983
v 4.69687438 9.42638358 3.46470247
v 4.69687438 9.42638358 3.46470247
v 4.69352110 9.42638358 3.46814983
v 4.69615540 9.42638358 3.46607177
v 5.40340595 9.42638358 3.46607177
v 5.40454979 9.42638358 3.46724752
v 5.40604026 9.42638358 3.46814983
v 5.40244159 9.42638358 3.46323299
v 5.40268697 9.42638358 3.46470247
v 5.40963892 9.42638358 3.46891055
v 5.40963892 9.42638358 3.46891055
v 5.40268697 9.42638358 3.46470247
v 5.40340595 9.42638358 3.46607177
v 5.40963892 9.42638358 3.46891055
v 5.40340595 9.42638358 3.46607177
v 5.40777610 9.42638358 3.46871699
v 5.40777610 9.42638358 3.46871699
v 5.40340595 9.42638358 3.46607177
v 5.40604026 9.42638358 3.46814983
v 3.97740293 9.42638358 2.89548987
v 3.97020594 9.42638358 3.46891055
v 3.97740293 9.42638358 3.45187814
v 3.97740293 9.42638358 3.45187814
v 3.97020594 9.42638358 3.46891055
v 3.97740293 9.42638358 3.46323299
v 3.97740293 9.42638358 3.45187814
v 3.97740293 9.42638358 3.46323299
v 4.68272510 9.42638358 3.45187814
v 3.97380461 9.42638358 3.46814983
v 3.97529507 9.42638358 3.46724752
v 3.97643891 9.42638358 3.46607177
v 3.97020594 9.42638358 3.46891055
v 3.97206876 9.42638358 3.46871699
v 3.97740293 9.42638358 3.46323299
v 3.97740293 9.42638358 3.46323299
v 3.97206876 9.42638358 3.46871699
v 3.97380461 9.42638358 3.46814983
v 3.97740293 9.42638358 3.46323299
v 3.97380461 9.42638358 3.46814983
v 3.97715789 9.42638358 3.46470247
v 3.97715789 9.42638358 3.46470247
v 3.97380461 9.42638358 3.46814983
v 3.97643891 9.42638358 3.46607177
v 4.68368946 9.42638358 3.46607177
v 4.68483330 9.42638358 3.46724752
v 4.68632377 9.42638358 3.46814983
v 4.68272510 9.42638358 3.46323299
v 4.68297048 9.42638358 3.46470247
v 4.68992243 9.42638358 3.46891055
v 4.68992243 9.42638358 3.46891055
v 4.68297048 9.42638358 3.46470247
v 4.68368946 9.42638358 3.46607177
v 4.68992243 9.42638358 3.46891055
v 4.68368946 9.42638358 3.46607177
v 4.68805961 9.42638358 3.46871699
v 4.68805961 9.42638358 3.46871699
v 4.68368946 9.42638358 3.46607177
v 4.68632377 9.42638358 3.46814983
v 3.25768661 9.42638358 2.89548987
v 3.96300861 9.42638358 2.89548987
v 3.97020594 9.42638358 2.83871561
v 3.97740293 9.42638358 3.46323299
v 4.68272510 9.42638358 3.46323299
v 4.68272510 9.42638358 3.45187814
v 4.68272510 9.42638358 3.45187814
v 4.68272510 9.42638358 3.46323299
v 4.68992243 9.42638358 3.46891055
v 4.68272510 9.42638358 3.45187814
v 4.68992243 9.42638358 3.46891055
v 4.68272510 9.42638358 2.89548987
v 4.68272510 9.42638358 2.89548987
v 4.68992243 9.42638358 3.46891055
v 4.68992243 9.42638358 2.83871561
v 4.68272510 9.42638358 2.89548987
v 4.68992243 9.42638358 2.83871561
v 3.97740293 9.42638358 2.89548987
v 3.97740293 9.42638358 2.89548987
v 4.68992243 9.42638358 2.83871561
v 3.97020594 9.42638358 2.83871561
v 3.97740293 9.42638358 2.89548987
v 3.97020594 9.42638358 2.83871561
v 3.97020594 9.42638358 3.46891055
v 3.97020594 9.42638358 3.46891055
v 3.97020594 9.42638358 2.83871561
v 3.96300861 9.42638358 2.89548987
v 3.97020594 9.42638358 3.46891055
v 3.96300861 9.42638358 2.89548987
v 3.96300861 9.42638358 3.45187814
v 3.25048945 9.42638358 3.45187814
v 3.25768661 9.42638358 3.45187814
v 3.25048945 9.42638358 2.89548987
v 3.25048945 9.42638358 2.89548987
v 3.25768661 9.42638358 3.45187814
v 3.25768661 9.42638358 2.89548987
v 3.25048945 9.42638358 2.89548987
v 3.25768661 9.42638358 2.89548987
v 3.25048945 9.42638358 2.83871561
v 3.25048945 9.42638358 2.83871561
v 3.25768661 9.42638358 2.89548987
v 3.97020594 9.42638358 2.83871561
v 3.25048945 9.42638358 3.45187814
v 3.25048945 9.42638358 3.46323299
v 3.25768661 9.42638358 3.45187814
v 3.25768661 9.42638358 3.45187814
v 3.25048945 9.42638358 3.46323299
v 3.25768661 9.42638358 3.46323299
v 3.25768661 9.42638358 3.45187814
v 3.25768661 9.42638358 3.46323299
v 3.96300861 9.42638358 3.45187814
v 3.96300861 9.42638358 3.45187814
v 3.25768661 9.42638358 3.46323299
v 3.96300861 9.42638358 3.46323299
v 3.96300861 9.42638358 3.45187814
v 3.96300861 9.42638358 3.46323299
v 3.97020594 9.42638358 3.46891055
v 3.96397297 9.42638358 3.46607177
v 3.96511681 9.42638358 3.46724752
v 3.96660728 9.42638358 3.46814983
v 3.96300861 9.42638358 3.46323299
v 3.96325399 9.42638358 3.46470247
v 3.97020594 9.42638358 3.46891055
v 3.97020594 9.42638358 3.46891055
v 3.96325399 9.42638358 3.46470247
v 3.96397297 9.42638358 3.46607177
v 3.97020594 9.42638358 3.46891055
v 3.96397297 9.42638358 3.46607177
v 3.96834312 9.42638358 3.46871699
v 3.96834312 9.42638358 3.46871699
v 3.96397297 9.42638358 3.46607177
v 3.96660728 9.42638358 3.46814983
v 3.25048945 9.42638358 3.46891055
v 3.25235210 9.42638358 3.46871699
v 3.25048945 9.42638358 3.46323299
v 3.25048945 9.42638358 3.46323299
v 3.25235210 9.42638358 3.46871699
v 3.25408795 9.42638358 3.46814983
v 3.25048945 9.42638358 3.46323299
v 3.25408795 9.42638358 3.46814983
v 3.25557858 9.42638358 3.46724752
v 3.25557858 9.42638358 3.46724752
v 3.25672243 9.42638358 3.46607177
v 3.25048945 9.42638358 3.46323299
v 3.25048945 9.42638358 3.46323299
v 3.25672243 9.42638358 3.46607177
v 3.25744140 9.42638358 3.46470247
v 3.25048945 9.42638358 3.46323299
v 3.25744140 9.42638358 3.46470247
v 3.25768661 9.42638358 3.46323299
v 3.24425648 9.42638358 3.46607177
v 3.25048945 9.42638358 3.46323299
v 3.24353750 9.42638358 3.46470247
v 3.24353750 9.42638358 3.46470247
v 3.25048945 9.42638358 3.46323299
v 3.24329229 9.42638358 3.46323299
v 3.24425648 9.42638358 3.46607177
v 3.24540032 9.42638358 3.46724752
v 3.25048945 9.42638358 3.46323299
v 3.25048945 9.42638358 3.46323299
v 3.24540032 9.42638358 3.46724752
v 3.24689079 9.42638358 3.46814983
v 3.25048945 9.42638358 3.46323299
v 3.24689079 9.42638358 3.46814983
v 3.24862663 9.42638358 3.46871699
v 3.25048945 9.42638358 2.78194135
v 3.25048945 9.42638358 2.83871561
v 3.97020594 9.42638358 2.78194135
v 3.97020594 9.42638358 2.78194135
v 3.25048945 9.42638358 2.83871561
v 3.97020594 9.42638358 2.83871561
v 3.97020594 9.42638358 2.78194135
v 3.97020594 9.42638358 2.83871561
v 4.68992243 9.42638358 2.78194135
v 4.68992243 9.42638358 2.78194135
v 3.97020594 9.42638358 2.83871561
v 4.68992243 9.42638358 2.83871561
v 4.68992243 9.42638358 2.78194135
v 4.68992243 9.42638358 2.83871561
v 5.40963892 9.42638358 2.78194135
v 5.40963892 9.42638358 2.78194135
v 4.68992243 9.42638358 2.83871561
v 5.40963892 9.42638358 2.83871561
v 5.40963892 9.42638358 2.78194135
v 5.40963892 9.42638358 2.83871561
v 6.12935541 9.42638358 2.78194135
v 6.12935541 9.42638358 2.78194135
v 5.40963892 9.42638358 2.83871561
v 6.12935541 9.42638358 2.83871561
v 6.12935541 9.42638358 2.78194135
v 6.12935541 9.42638358 2.83871561
v 6.84907190 9.42638358 2.78194135
v 6.84907190 9.42638358 2.78194135
v 6.12935541 9.42638358 2.83871561
v 6.84907190 9.42638358 2.83871561
v 6.84907190 9.42638358 2.78194135
v 6.84907190 9.42638358 2.83871561
v 7.56878839 9.42638358 2.78194135
v 7.56878839 9.42638358 2.78194135
v 6.84907190 9.42638358 2.83871561
v 7.56878839 9.42638358 2.83871561
v 7.56878839 9.42638358 2.89548987
v 7.56878839 10.29004323 2.89548987
v 7.56878839 9.42638358 2.83871561
v 7.56878839 9.42638358 2.83871561
v 7.56878839 10.29004323 2.89548987
v 7.56878839 10.29004323 2.78194135
v 7.56878839 9.42638358 2.83871561
v 7.56878839 10.29004323 2.78194135
v 7.56878839 9.42638358 2.78194135
v -2.51443979 10.29004323 5.67743123
v -2.51443979 10.29004323 2.89548987
v -0.35529015 10.29004323 2.89548987
v 0.36442629 10.29004323 4.59871951
v 3.23609514 10.29004323 3.45187814
v 3.23609514 10.29004323 3.46323299
v -0.35529015 10.29004323 2.89548987
v -0.35529015 10.29004323 4.59871951
v -2.51443979 10.29004323 5.67743123
v -2.51443979 10.29004323 5.67743123
v -0.35529015 10.29004323 4.59871951
v 0.36442629 10.29004323 4.59871951
v -2.51443979 10.29004323 5.67743123
v 0.36442629 10.29004323 4.59871951
v 11.73594683 10.29004323 5.67743123
v 11.73594683 10.29004323 5.67743123
v 0.36442629 10.29004323 4.59871951
v 3.23609514 10.29004323 3.46323299
v 0.36442629 10.29004323 4.59871951
v 0.36442629 10.29004323 2.89548987
v 3.23609514 10.29004323 3.45187814
v 3.23609514 10.29004323 3.45187814
v 0.36442629 10.29004323 2.89548987
v 3.25048945 10.29004323 2.89548987
v 3.23609514 10.29004323 3.45187814
v 3.25048945 10.29004323 2.89548987
v 3.25048945 10.29004323 3.45187814
v 3.25048945 10.29004323 3.45187814
v 3.25048945 10.29004323 2.89548987
v 11.73594683 10.29004323 5.67743123
v 3.25048945 10.29004323 3.45187814
v 11.73594683 10.29004323 5.67743123
v 3.25048945 10.29004323 3.46323299
v 3.25048945 10.29004323 3.46323299
v 11.73594683 10.29004323 5.67743123
v 3.23609514 10.29004323 3.46323299
v 11.73594683 10.29004323 0.00000000
v 11.73594683 10.29004323 2.78194135
v 7.56878839 10.29004323 2.78194135
v -2.51443979 10.29004323 0.00000000
v -1.07500664 10.29004323 0.00000000
v -2.51443979 10.29004323 2.78194135
v -2.51443979 10.29004323 2.78194135
v -1.07500664 10.29004323 0.00000000
v -1.07500664 10.29004323 1.70322937
v -2.51443979 10.29004323 2.78194135
v -1.07500664 10.29004323 1.70322937
v 3.25048945 10.29004323 2.78194135
v 3.25048945 10.29004323 2.78194135
v -1.07500664 10.29004323 1.70322937
v -0.35529015 10.29004323 1.70322937
v 11.73594683 10.29004323 2.89548987
v 11.73594683 10.29004323 5.67743123
v 7.56878839 10.29004323 2.89548987
v 7.56878839 10.29004323 2.89548987
v 11.73594683 10.29004323 5.67743123
v 3.25048945 10.29004323 2.89548987
v 7.56878839 10.29004323 2.89548987
v 3.25048945 10.29004323 2.89548987
v 7.56878839 10.29004323 2.78194135
v 7.56878839 10.29004323 2.78194135
v 3.25048945 10.29004323 2.89548987
v 3.25048945 10.29004323 2.78194135
v 7.56878839 10.29004323 2.78194135
v 3.25048945 10.29004323 2.78194135
v 11.73594683 10.29004323 0.00000000
v 11.73594683 10.29004323 0.00000000
v 3.25048945 10.29004323 2.78194135
v -0.35529015 10.29004323 1.70322937
v 11.73594683 10.29004323 0.00000000
v -0.35529015 10.29004323 1.70322937
v -0.35529015 10.29004323 0.00000000
v 11.73594683 -3.96034339 5.67743123
v 11.73594683 10.29004323 5.67743123
v 11.73594683 8.85061026 2.89548987
v 11.73594683 8.85061026 2.89548987
v 11.73594683 10.29004323 5.67743123
v 11.73594683 10.29004323 2.89548987
v 11.73594683 10.29004323 0.00000000
v 11.73594683 8.49075201 0.00000000
v 11.73594683 8.49075201 2.27097249
v 11.73594683 6.69146079 0.00000000
v 11.73594683 5.25202781 0.00000000
v 11.73594683 6.69146079 2.27097249
v 11.73594683 6.69146079 2.27097249
v 11.73594683 5.25202781 0.00000000
v 11.73594683 5.25202781 2.27097249
v 11.73594683 3.45273659 2.27097249
v 11.73594683 -3.96034339 5.67743123
v 11.73594683 5.25202781 2.27097249
v 11.73594683 5.25202781 2.27097249
v 11.73594683 -3.96034339 5.67743123
v 11.73594683 8.85061026 2.89548987
v 11.73594683 5.25202781 2.27097249
v 11.73594683 8.85061026 2.89548987
v 11.73594683 6.69146079 2.27097249
v 11.73594683 6.69146079 2.27097249
v 11.73594683 8.85061026 2.89548987
v 11.73594683 8.85061026 2.78194135
v 11.73594683 6.69146079 2.27097249
v 11.73594683 8.85061026 2.78194135
v 11.73594683 8.49075201 2.27097249
v 11.73594683 8.49075201 2.27097249
v 11.73594683 8.85061026 2.78194135
v 11.73594683 10.29004323 2.78194135
v 11.73594683 8.49075201 2.27097249
v 11.73594683 10.29004323 2.78194135
v 11.73594683 10.29004323 0.00000000
v 11.73594683 0.21401238 0.00000000
v 11.73594683 -3.96034339 0.00000000
v 11.73594683 0.21401238 2.27097249
v 11.73594683 0.21401238 2.27097249
v 11.73594683 -3.96034339 0.00000000
v 11.73594683 -3.96034339 5.67743123
v 11.73594683 0.21401238 2.27097249
v 11.73594683 -3.96034339 5.67743123
v 11.73594683 2.01330361 2.27097249
v 11.73594683 2.01330361 2.27097249
v 11.73594683 -3.96034339 5.67743123
v 11.73594683 3.45273659 2.27097249
v 11.73594683 2.01330361 2.27097249
v 11.73594683 3.45273659 2.27097249
v 11.73594683 2.01330361 0.00000000
v 11.73594683 2.01330361 0.00000000
v 11.73594683 3.45273659 2.27097249
v 11.73594683 3.45273659 0.00000000
v -2.51443979 10.43398640 5.67743123
v -2.51443979 10.43398640 0.00000000
v -2.51443979 10.29004323 2.78194135
v -2.51443979 10.29004323 2.78194135
v -2.51443979 10.43398640 0.00000000
v -2.51443979 10.29004323 0.00000000
v -2.51443979 10.29004323 5.67743123
v -2.51443979 10.43398640 5.67743123
v -2.51443979 10.29004323 2.89548987
v -2.51443979 10.29004323 2.89548987
v -2.51443979 10.43398640 5.67743123
v -2.51443979 10.29004323 2.78194135
v -2.51443979 10.29004323 2.89548987
v -2.51443979 10.29004323 2.78194135
v -2.51443979 8.85061026 2.89548987
v -2.51443979 8.85061026 2.89548987
v -2.51443979 10.29004323 2.78194135
v -2.51443979 8.85061026 2.78194135
v -1.07500664 10.29004323 0.00000000
v -2.51443979 10.29004323 0.00000000
v -1.07500664 10.43398640 0.00000000
v -1.07500664 10.43398640 0.00000000
v -2.51443979 10.29004323 0.00000000
v -2.51443979 10.43398640 0.00000000
v -1.07500664 10.29004323 1.70322937
v -1.07500664 10.29004323 0.00000000
v -1.07500664 10.43398640 1.70322937
v -1.07500664 10.43398640 1.70322937
v -1.07500664 10.29004323 0.00000000
v -1.07500664 10.43398640 0.00000000
v 11.87988999 10.43398640 0.00000000
v -0.35529015 10.43398640 0.00000000
v -0.35529015 10.43398640 1.70322937
v -1.07500664 10.43398640 0.00000000
v -2.51443979 10.43398640 0.00000000
v -1.07500664 10.43398640 1.70322937
v -1.07500664 10.43398640 1.70322937
v -2.51443979 10.43398640 0.00000000
v -2.51443979 10.43398640 5.67743123
v 11.87988999 10.43398640 5.67743123
v 11.87988999 10.43398640 0.00000000
v 0.36442629 10.43398640 2.89548987
v 0.36442629 10.43398640 2.89548987
v 11.87988999 10.43398640 0.00000000
v -0.35529015 10.43398640 1.70322937
v 0.36442629 10.43398640 2.89548987
v -0.35529015 10.43398640 1.70322937
v -0.35529015 10.43398640 2.89548987
v -0.35529015 10.43398640 2.89548987
v -0.35529015 10.43398640 1.70322937
v -1.07500664 10.43398640 1.70322937
v -0.35529015 10.43398640 2.89548987
v -1.07500664 10.43398640 1.70322937
v -0.35529015 10.43398640 4.59871951
v -0.35529015 10.43398640 4.59871951
v -1.07500664 10.43398640 1.70322937
v -2.51443979 10.43398640 5.67743123
v -0.35529015 10.43398640 4.59871951
v -2.51443979 10.43398640 5.67743123
v 0.36442629 10.43398640 4.59871951
v 0.36442629 10.43398640 4.59871951
v -2.51443979 10.43398640 5.67743123
v 11.87988999 10.43398640 5.67743123
v 0.36442629 10.43398640 4.59871951
v 11.87988999 10.43398640 5.67743123
v 0.36442629 10.43398640 2.89548987
vt 0.03673599 0.98308766
vt 0.03673599 0.97647977
vt 0.00369653 0.98308766
vt 0.00369653 0.98308766
vt 0.03673599 0.97647977
vt 0.00369653 0.97647977
vt 0.03673599 0.97647977
vt 0.00369653 0.97647977
vt 0.03673599 0.98308766
vt 0.03673599 0.98308766
vt 0.00369653 0.97647977
vt 0.00369653 0.98308766
vt 0.01004385 0.94370091
vt 0.01004385 0.93709302
vt 0.10916222 0.94370091
vt 0.10916222 0.94370091
vt 0.01004385 0.93709302
vt 0.10916222 0.93709302
vt 0.10916222 0.94370091
vt 0.10916222 0.93709302
vt 0.01004385 0.94370091
vt 0.01004385 0.94370091
vt 0.10916222 0.93709302
vt 0.01004385 0.93709302
vt 0.04616823 0.98687124
vt 0.07920768 0.98687124
vt 0.04616823 0.88775289
vt 0.04616823 0.88775289
vt 0.07920768 0.98687124
vt 0.07920768 0.88775289
vt 0.60846800 0.22633475
vt 0.60846800 0.88712376
vt 0.27807349 0.22633475
vt 0.27807349 0.22633475
vt 0.60846800 0.88712376
vt 0.27807349 0.88712376
vt 0.19497241 0.96692091
vt 0.20158030 0.96692091
vt 0.19497241 0.63652641
vt 0.19497241 0.63652641
vt 0.20158030 0.96692091
vt 0.20158030 0.63652641
vt 0.61201769 0.88687801
vt 0.61201769 0.21948117
vt 0.28162318 0.88687801
vt 0.28162318 0.88687801
vt 0.61201769 0.21948117
vt 0.28162318 0.21948117
vt 0.78051883 0.38798231
vt 0.11312196 0.38798231
vt 0.78051883 0.71837682
vt 0.78051883 0.71837682
vt 0.11312196 0.38798231
vt 0.11312196 0.71837682
vt 0.36347359 0.79841971
vt 0.36347359 0.80502760
vt 0.03307909 0.79841971
vt 0.03307909 0.79841971
vt 0.36347359 0.80502760
vt 0.03307909 0.80502760
vt 0.11287623 0.72192645
vt 0.77366525 0.72192645
vt 0.11287623 0.39153200
vt 0.11287623 0.39153200
vt 0.77366525 0.72192645
vt 0.77366525 0.39153200
vt 0.23921447 0.09999651
vt 0.23260659 0.09999651
vt 0.23921447 0.76078552
vt 0.23921447 0.76078552
vt 0.23260659 0.09999651
vt 0.23260659 0.76739341
vt 0.23921447 0.76078552
vt 0.23260659 0.76739341
vt 0.90000349 0.76078552
vt 0.90000349 0.76078552
vt 0.23260659 0.76739341
vt 0.90000349 0.76739341
vt 0.90000349 0.10660440
vt 0.90000349 0.09999651
vt 0.23921447 0.10660440
vt 0.23921447 0.10660440
vt 0.90000349 0.09999651
vt 0.23260659 0.09999651
vt 0.23921447 0.10660440
vt 0.23260659 0.09999651
vt 0.23921447 0.76739335
vt 0.23921447 0.76739335
vt 0.23260659 0.09999651
vt 0.23260659 0.76739335
vt 0.03673599 0.98308766
vt 0.03673599 0.97647977
vt 0.00369653 0.98308766
vt 0.00369653 0.98308766
vt 0.03673599 0.97647977
vt 0.00369653 0.97647977
vt 0.01004385 0.93709302
vt 0.01004385 0.94370091
vt 0.10916222 0.93709302
vt 0.10916222 0.93709302
vt 0.01004385 0.94370091
vt 0.10916222 0.94370091
vt 0.10916222 0.93709302
vt 0.10916222 0.94370091
vt 0.01004385 0.93709302
vt 0.01004385 0.93709302
vt 0.10916222 0.94370091
vt 0.01004385 0.94370091
vt 0.20158030 0.63652641
vt 0.19497241 0.63652641
vt 0.20158030 0.96692091
vt 0.20158030 0.96692091
vt 0.19497241 0.63652641
vt 0.19497241 0.96692091
vt 0.11834957 0.98076880
vt 0.11834957 0.78913999
vt 0.11174169 0.98076880
vt 0.11174169 0.98076880
vt 0.11834957 0.78913999
vt 0.11174169 0.78913999
vt 0.08269769 0.98668516
vt 0.08269769 0.85452735
vt 0.07608981 0.98668516
vt 0.07608981 0.98668516
vt 0.08269769 0.85452735
vt 0.07608981 0.85452735
vt 0.05302146 0.99158180
vt 0.05302146 0.90898317
vt 0.04641358 0.99158180
vt 0.04641358 0.99158180
vt 0.05302146 0.90898317
vt 0.04641358 0.90898317
vt 0.08269769 0.98668516
vt 0.08269769 0.85452735
vt 0.07608981 0.98668516
vt 0.07608981 0.98668516
vt 0.08269769 0.85452735
vt 0.07608981 0.85452735
vt 0.04314901 0.99319434
vt 0.04314901 0.92711544
vt 0.03654113 0.99319434
vt 0.03654113 0.99319434
vt 0.04314901 0.92711544
vt 0.03654113 0.92711544
vt 0.08269769 0.98668516
vt 0.08269769 0.85452735
vt 0.07608981 0.98668516
vt 0.07608981 0.98668516
vt 0.08269769 0.85452735
vt 0.07608981 0.85452735
vt 0.05302146 0.99158180
vt 0.05302146 0.90898317
vt 0.04641358 0.99158180
vt 0.04641358 0.99158180
vt 0.05302146 0.90898317
vt 0.04641358 0.90898317
vt 0.08269769 0.98668516
vt 0.08269769 0.85452735
vt 0.07608981 0.98668516
vt 0.07608981 0.98668516
vt 0.08269769 0.85452735
vt 0.07608981 0.85452735
vt 0.04314901 0.99319434
vt 0.04314901 0.92711544
vt 0.03654113 0.99319434
vt 0.03654113 0.99319434
vt 0.04314901 0.92711544
vt 0.03654113 0.92711544
vt 0.08269769 0.98668516
vt 0.08269769 0.85452735
vt 0.07608981 0.98668516
vt 0.07608981 0.98668516
vt 0.08269769 0.85452735
vt 0.07608981 0.85452735
vt 0.05302146 0.99158180
vt 0.05302146 0.90898317
vt 0.04641358 0.99158180
vt 0.04641358 0.99158180
vt 0.05302146 0.90898317
vt 0.04641358 0.90898317
vt 0.08269769 0.98668516
vt 0.08269769 0.85452735
vt 0.07608981 0.98668516
vt 0.07608981 0.98668516
vt 0.08269769 0.85452735
vt 0.07608981 0.85452735
vt 0.03673599 0.97647977
vt 0.00369653 0.97647977
vt 0.03673599 0.98308766
vt 0.03673599 0.98308766
vt 0.00369653 0.97647977
vt 0.00369653 0.98308766
vt 0.01004385 0.94370091
vt 0.10916220 0.94370091
vt 0.01004385 0.93709302
vt 0.01004385 0.93709302
vt 0.10916220 0.94370091
vt 0.10916220 0.93709302
vt 0.06039102 0.69676900
vt 0.06039102 0.70337689
vt 0.61545378 0.69676900
vt 0.61545378 0.69676900
vt 0.06039102 0.70337689
vt 0.62206173 0.70337689
vt 0.61545378 0.69676900
vt 0.62206173 0.70337689
vt 0.61545378 0.61417043
vt 0.61545378 0.61417043
vt 0.62206173 0.70337689
vt 0.62206173 0.61417043
vt 0.41023129 0.61289632
vt 0.27807349 0.61289632
vt 0.27807349 0.54681742
vt 0.60846800 0.88712376
vt 0.27807349 0.88712376
vt 0.27807349 0.69549495
vt 0.27807349 0.46421880
vt 0.27807349 0.39813989
vt 0.41023129 0.46421880
vt 0.41023129 0.46421880
vt 0.27807349 0.39813989
vt 0.41023129 0.39813989
vt 0.27807349 0.54681742
vt 0.41023129 0.54681742
vt 0.41023129 0.61289632
vt 0.41023129 0.61289632
vt 0.41023129 0.54681742
vt 0.60846800 0.88712376
vt 0.41023129 0.61289632
vt 0.60846800 0.88712376
vt 0.41023129 0.69549495
vt 0.41023129 0.69549495
vt 0.60846800 0.88712376
vt 0.27807349 0.69549495
vt 0.27807349 0.31554127
vt 0.27807349 0.22633475
vt 0.41023129 0.31554127
vt 0.41023129 0.31554127
vt 0.27807349 0.22633475
vt 0.60846800 0.22633475
vt 0.41023129 0.31554127
vt 0.60846800 0.22633475
vt 0.41023129 0.39813989
vt 0.41023129 0.39813989
vt 0.60846800 0.22633475
vt 0.60846800 0.88712376
vt 0.41023129 0.39813989
vt 0.60846800 0.88712376
vt 0.41023129 0.46421880
vt 0.41023129 0.46421880
vt 0.60846800 0.88712376
vt 0.41023129 0.54681742
vt 0.88448471 0.76969641
vt 0.89109254 0.76969641
vt 0.88448471 0.11551529
vt 0.88448471 0.11551529
vt 0.89109254 0.76969641
vt 0.89109254 0.10890746
vt 0.88448471 0.11551529
vt 0.89109254 0.10890746
vt 0.23030357 0.11551529
vt 0.23030357 0.11551529
vt 0.89109254 0.10890746
vt 0.23030357 0.10890746
vt 0.05352633 0.97722918
vt 0.05344082 0.97724044
vt 0.05367444 0.97667646
vt 0.05344082 0.98604131
vt 0.05278003 0.98604131
vt 0.05344082 0.97724044
vt 0.05344082 0.97724044
vt 0.05278003 0.98604131
vt 0.05278003 0.97724044
vt 0.05344082 0.97724044
vt 0.05278003 0.97724044
vt 0.05344082 0.97657967
vt 0.02040137 0.97724044
vt 0.02040137 0.98604131
vt 0.01709742 0.98604131
vt 0.01379348 0.94639397
vt 0.02040137 0.95180005
vt 0.02040137 0.97657967
vt 0.05278003 0.97657967
vt 0.05278003 0.95180005
vt 0.05344082 0.95180005
vt 0.05344082 0.97657967
vt 0.05352633 0.97659093
vt 0.05344082 0.97724044
vt 0.05344082 0.97724044
vt 0.05352633 0.97659093
vt 0.05360602 0.97662389
vt 0.05344082 0.97724044
vt 0.05360602 0.97662389
vt 0.05367444 0.97667646
vt 0.05352633 0.95178878
vt 0.05344082 0.95180005
vt 0.05367444 0.95123607
vt 0.01379348 0.94639397
vt 0.02040137 0.94639397
vt 0.02040137 0.95113927
vt 0.05367444 0.95123607
vt 0.05344082 0.95180005
vt 0.05360602 0.95118356
vt 0.05344082 0.95180005
vt 0.05344082 0.97657967
vt 0.05278003 0.97657967
vt 0.05278003 0.97657967
vt 0.05344082 0.97657967
vt 0.05278003 0.97724044
vt 0.05278003 0.97657967
vt 0.05278003 0.97724044
vt 0.02040137 0.97657967
vt 0.02040137 0.97657967
vt 0.05278003 0.97724044
vt 0.02040137 0.97724044
vt 0.02040137 0.97657967
vt 0.02040137 0.97724044
vt 0.01379348 0.94639397
vt 0.01379348 0.94639397
vt 0.02040137 0.97724044
vt 0.01709742 0.98604131
vt 0.01379348 0.94639397
vt 0.01709742 0.98604131
vt 0.01379348 0.98604131
vt 0.05278003 0.94639397
vt 0.05344082 0.94639397
vt 0.05278003 0.95113927
vt 0.05278003 0.95113927
vt 0.05344082 0.94639397
vt 0.05344082 0.95113927
vt 0.05377122 0.97691005
vt 0.05375995 0.97699559
vt 0.05375995 0.97682452
vt 0.05375995 0.97682452
vt 0.05375995 0.97699559
vt 0.05372695 0.97707522
vt 0.05375995 0.97682452
vt 0.05372695 0.97707522
vt 0.05372695 0.97674483
vt 0.05372695 0.97674483
vt 0.05372695 0.97707522
vt 0.05367444 0.97714370
vt 0.05372695 0.97674483
vt 0.05367444 0.97714370
vt 0.05367444 0.97667646
vt 0.05367444 0.97667646
vt 0.05367444 0.97714370
vt 0.05360602 0.97719616
vt 0.05367444 0.97667646
vt 0.05360602 0.97719616
vt 0.05352633 0.97722918
vt 0.01379348 0.94639397
vt 0.02040137 0.95113927
vt 0.02040137 0.95180005
vt 0.02040137 0.95180005
vt 0.02040137 0.95113927
vt 0.05278003 0.95113927
vt 0.02040137 0.95180005
vt 0.05278003 0.95113927
vt 0.05278003 0.95180005
vt 0.05278003 0.95180005
vt 0.05278003 0.95113927
vt 0.05344082 0.95113927
vt 0.05278003 0.95180005
vt 0.05344082 0.95113927
vt 0.05344082 0.95180005
vt 0.05344082 0.95180005
vt 0.05344082 0.95113927
vt 0.05352633 0.95115054
vt 0.05344082 0.95180005
vt 0.05352633 0.95115054
vt 0.05360602 0.95118356
vt 0.05377122 0.95146966
vt 0.05375995 0.95155519
vt 0.05375995 0.95138419
vt 0.05375995 0.95138419
vt 0.05375995 0.95155519
vt 0.05372695 0.95163488
vt 0.05375995 0.95138419
vt 0.05372695 0.95163488
vt 0.05372695 0.95130450
vt 0.05372695 0.95130450
vt 0.05372695 0.95163488
vt 0.05367444 0.95170331
vt 0.05372695 0.95130450
vt 0.05367444 0.95170331
vt 0.05367444 0.95123607
vt 0.05367444 0.95123607
vt 0.05367444 0.95170331
vt 0.05360602 0.95175582
vt 0.05367444 0.95123607
vt 0.05360602 0.95175582
vt 0.05352633 0.95178878
vt 0.02252138 0.89825237
vt 0.02260689 0.89826363
vt 0.02260689 0.89793324
vt 0.02227650 0.86489379
vt 0.02227650 0.89727241
vt 0.02260689 0.86489379
vt 0.02260689 0.86489379
vt 0.02227650 0.89727241
vt 0.02260689 0.89727241
vt 0.18812327 0.89801872
vt 0.18813455 0.89793324
vt 0.18780415 0.89826363
vt 0.18813455 0.86489379
vt 0.18780415 0.89826363
vt 0.18813455 0.89727241
vt 0.18813455 0.89727241
vt 0.18780415 0.89826363
vt 0.18813455 0.89793324
vt 0.18813455 0.89727241
vt 0.18813455 0.89793324
vt 0.22051319 0.89727241
vt 0.22051319 0.89727241
vt 0.18813455 0.89793324
vt 0.22051319 0.89793324
vt 0.22051319 0.89727241
vt 0.22051319 0.89793324
vt 0.22117400 0.89793324
vt 0.22117400 0.89793324
vt 0.22051319 0.89793324
vt 0.22052445 0.89801872
vt 0.22117400 0.89793324
vt 0.22052445 0.89801872
vt 0.22055747 0.89809841
vt 0.18788967 0.89825237
vt 0.18796934 0.89821935
vt 0.18803778 0.89816684
vt 0.18788967 0.89825237
vt 0.18803778 0.89816684
vt 0.18780415 0.89826363
vt 0.18780415 0.89826363
vt 0.18803778 0.89816684
vt 0.18809028 0.89809841
vt 0.18780415 0.89826363
vt 0.18809028 0.89809841
vt 0.18812327 0.89801872
vt 0.22060996 0.89816684
vt 0.22112973 0.89809841
vt 0.22055747 0.89809841
vt 0.22055747 0.89809841
vt 0.22112973 0.89809841
vt 0.22116272 0.89801872
vt 0.22055747 0.89809841
vt 0.22116272 0.89801872
vt 0.22117400 0.89793324
vt 0.22060996 0.89816684
vt 0.22067839 0.89821935
vt 0.22112973 0.89809841
vt 0.22112973 0.89809841
vt 0.22067839 0.89821935
vt 0.22075808 0.89825237
vt 0.22112973 0.89809841
vt 0.22075808 0.89825237
vt 0.22084360 0.89826363
vt 0.22084360 0.89826363
vt 0.22092912 0.89825237
vt 0.22112973 0.89809841
vt 0.22112973 0.89809841
vt 0.22092912 0.89825237
vt 0.22100879 0.89821935
vt 0.22112973 0.89809841
vt 0.22100879 0.89821935
vt 0.22107723 0.89816684
vt 0.15509509 0.86489379
vt 0.18747374 0.86489379
vt 0.18780415 0.86158985
vt 0.22117400 0.89793324
vt 0.22117400 0.86489379
vt 0.22051319 0.89727241
vt 0.22051319 0.89727241
vt 0.22117400 0.86489379
vt 0.22084360 0.86489379
vt 0.22051319 0.89727241
vt 0.22084360 0.86489379
vt 0.22051319 0.86489379
vt 0.22051319 0.86489379
vt 0.22084360 0.86489379
vt 0.22084360 0.86158985
vt 0.22051319 0.86489379
vt 0.22084360 0.86158985
vt 0.18813455 0.86489379
vt 0.18813455 0.86489379
vt 0.22084360 0.86158985
vt 0.18780415 0.86158985
vt 0.18813455 0.86489379
vt 0.18780415 0.86158985
vt 0.18780415 0.89826363
vt 0.18780415 0.89826363
vt 0.18780415 0.86158985
vt 0.18747374 0.86489379
vt 0.18780415 0.89826363
vt 0.18747374 0.86489379
vt 0.18747374 0.89727241
vt 0.15492989 0.89821935
vt 0.15499832 0.89816684
vt 0.15505083 0.89809841
vt 0.18780415 0.86158985
vt 0.15476470 0.86158985
vt 0.15509509 0.86489379
vt 0.15509509 0.86489379
vt 0.15476470 0.86158985
vt 0.15476470 0.89826363
vt 0.15509509 0.86489379
vt 0.15476470 0.89826363
vt 0.15509509 0.89727241
vt 0.15509509 0.89727241
vt 0.15476470 0.89826363
vt 0.15509509 0.89793324
vt 0.15509509 0.89727241
vt 0.15509509 0.89793324
vt 0.18747374 0.89727241
vt 0.18747374 0.89727241
vt 0.15509509 0.89793324
vt 0.18747374 0.89793324
vt 0.18747374 0.89727241
vt 0.18747374 0.89793324
vt 0.18780415 0.89826363
vt 0.18780415 0.89826363
vt 0.18747374 0.89793324
vt 0.18748499 0.89801872
vt 0.15476470 0.89826363
vt 0.15485021 0.89825237
vt 0.15509509 0.89793324
vt 0.15509509 0.89793324
vt 0.15485021 0.89825237
vt 0.15492989 0.89821935
vt 0.15509509 0.89793324
vt 0.15492989 0.89821935
vt 0.15508384 0.89801872
vt 0.15508384 0.89801872
vt 0.15492989 0.89821935
vt 0.15505083 0.89809841
vt 0.18748499 0.89801872
vt 0.18751802 0.89809841
vt 0.18780415 0.89826363
vt 0.18780415 0.89826363
vt 0.18751802 0.89809841
vt 0.18757051 0.89816684
vt 0.18780415 0.89826363
vt 0.18757051 0.89816684
vt 0.18771863 0.89825237
vt 0.18771863 0.89825237
vt 0.18757051 0.89816684
vt 0.18763894 0.89821935
vt 0.12205563 0.86489379
vt 0.12172525 0.89826363
vt 0.12205563 0.89727241
vt 0.12205563 0.89727241
vt 0.12172525 0.89826363
vt 0.12205563 0.89793324
vt 0.12205563 0.89727241
vt 0.12205563 0.89793324
vt 0.15443429 0.89727241
vt 0.12189045 0.89821935
vt 0.12195887 0.89816684
vt 0.12201138 0.89809841
vt 0.12172525 0.89826363
vt 0.12181076 0.89825237
vt 0.12205563 0.89793324
vt 0.12205563 0.89793324
vt 0.12181076 0.89825237
vt 0.12189045 0.89821935
vt 0.12205563 0.89793324
vt 0.12189045 0.89821935
vt 0.12204438 0.89801872
vt 0.12204438 0.89801872
vt 0.12189045 0.89821935
vt 0.12201138 0.89809841
vt 0.15447856 0.89809841
vt 0.15453108 0.89816684
vt 0.15459949 0.89821935
vt 0.15443429 0.89793324
vt 0.15444556 0.89801872
vt 0.15476470 0.89826363
vt 0.15476470 0.89826363
vt 0.15444556 0.89801872
vt 0.15447856 0.89809841
vt 0.15476470 0.89826363
vt 0.15447856 0.89809841
vt 0.15467918 0.89825237
vt 0.15467918 0.89825237
vt 0.15447856 0.89809841
vt 0.15459949 0.89821935
vt 0.08901618 0.86489379
vt 0.12139484 0.86489379
vt 0.12172525 0.86158985
vt 0.12205563 0.89793324
vt 0.15443429 0.89793324
vt 0.15443429 0.89727241
vt 0.15443429 0.89727241
vt 0.15443429 0.89793324
vt 0.15476470 0.89826363
vt 0.15443429 0.89727241
vt 0.15476470 0.89826363
vt 0.15443429 0.86489379
vt 0.15443429 0.86489379
vt 0.15476470 0.89826363
vt 0.15476470 0.86158985
vt 0.15443429 0.86489379
vt 0.15476470 0.86158985
vt 0.12205563 0.86489379
vt 0.12205563 0.86489379
vt 0.15476470 0.86158985
vt 0.12172525 0.86158985
vt 0.12205563 0.86489379
vt 0.12172525 0.86158985
vt 0.12172525 0.89826363
vt 0.12172525 0.89826363
vt 0.12172525 0.86158985
vt 0.12139484 0.86489379
vt 0.12172525 0.89826363
vt 0.12139484 0.86489379
vt 0.12139484 0.89727241
vt 0.12172525 0.86158985
vt 0.08868580 0.86158985
vt 0.08901618 0.86489379
vt 0.08901618 0.86489379
vt 0.08868580 0.86158985
vt 0.08868580 0.89826363
vt 0.08901618 0.86489379
vt 0.08868580 0.89826363
vt 0.08901618 0.89727241
vt 0.08901618 0.89727241
vt 0.08868580 0.89826363
vt 0.08901618 0.89793324
vt 0.08901618 0.89727241
vt 0.08901618 0.89793324
vt 0.12139484 0.89727241
vt 0.12139484 0.89727241
vt 0.08901618 0.89793324
vt 0.12139484 0.89793324
vt 0.12139484 0.89727241
vt 0.12139484 0.89793324
vt 0.12172525 0.89826363
vt 0.08885100 0.89821935
vt 0.08891942 0.89816684
vt 0.08897193 0.89809841
vt 0.08868580 0.89826363
vt 0.08877131 0.89825237
vt 0.08901618 0.89793324
vt 0.08901618 0.89793324
vt 0.08877131 0.89825237
vt 0.08885100 0.89821935
vt 0.08901618 0.89793324
vt 0.08885100 0.89821935
vt 0.08900493 0.89801872
vt 0.08900493 0.89801872
vt 0.08885100 0.89821935
vt 0.08897193 0.89809841
vt 0.12143911 0.89809841
vt 0.12149163 0.89816684
vt 0.12156004 0.89821935
vt 0.12139484 0.89793324
vt 0.12140611 0.89801872
vt 0.12172525 0.89826363
vt 0.12172525 0.89826363
vt 0.12140611 0.89801872
vt 0.12143911 0.89809841
vt 0.12172525 0.89826363
vt 0.12143911 0.89809841
vt 0.12163973 0.89825237
vt 0.12163973 0.89825237
vt 0.12143911 0.89809841
vt 0.12156004 0.89821935
vt 0.05597673 0.86489379
vt 0.05564635 0.89826363
vt 0.05597673 0.89727241
vt 0.05597673 0.89727241
vt 0.05564635 0.89826363
vt 0.05597673 0.89793324
vt 0.05597673 0.89727241
vt 0.05597673 0.89793324
vt 0.08835539 0.89727241
vt 0.05581155 0.89821935
vt 0.05587997 0.89816684
vt 0.05593248 0.89809841
vt 0.05564635 0.89826363
vt 0.05573186 0.89825237
vt 0.05597673 0.89793324
vt 0.05597673 0.89793324
vt 0.05573186 0.89825237
vt 0.05581155 0.89821935
vt 0.05597673 0.89793324
vt 0.05581155 0.89821935
vt 0.05596548 0.89801872
vt 0.05596548 0.89801872
vt 0.05581155 0.89821935
vt 0.05593248 0.89809841
vt 0.08839966 0.89809841
vt 0.08845218 0.89816684
vt 0.08852059 0.89821935
vt 0.08835539 0.89793324
vt 0.08836666 0.89801872
vt 0.08868580 0.89826363
vt 0.08868580 0.89826363
vt 0.08836666 0.89801872
vt 0.08839966 0.89809841
vt 0.08868580 0.89826363
vt 0.08839966 0.89809841
vt 0.08860028 0.89825237
vt 0.08860028 0.89825237
vt 0.08839966 0.89809841
vt 0.08852059 0.89821935
vt 0.02293729 0.86489379
vt 0.05531594 0.86489379
vt 0.05564635 0.86158985
vt 0.05597673 0.89793324
vt 0.08835539 0.89793324
vt 0.08835539 0.89727241
vt 0.08835539 0.89727241
vt 0.08835539 0.89793324
vt 0.08868580 0.89826363
vt 0.08835539 0.89727241
vt 0.08868580 0.89826363
vt 0.08835539 0.86489379
vt 0.08835539 0.86489379
vt 0.08868580 0.89826363
vt 0.08868580 0.86158985
vt 0.08835539 0.86489379
vt 0.08868580 0.86158985
vt 0.05597673 0.86489379
vt 0.05597673 0.86489379
vt 0.08868580 0.86158985
vt 0.05564635 0.86158985
vt 0.05597673 0.86489379
vt 0.05564635 0.86158985
vt 0.05564635 0.89826363
vt 0.05564635 0.89826363
vt 0.05564635 0.86158985
vt 0.05531594 0.86489379
vt 0.05564635 0.89826363
vt 0.05531594 0.86489379
vt 0.05531594 0.89727241
vt 0.02260689 0.89727241
vt 0.02293729 0.89727241
vt 0.02260689 0.86489379
vt 0.02260689 0.86489379
vt 0.02293729 0.89727241
vt 0.02293729 0.86489379
vt 0.02260689 0.86489379
vt 0.02293729 0.86489379
vt 0.02260689 0.86158985
vt 0.02260689 0.86158985
vt 0.02293729 0.86489379
vt 0.05564635 0.86158985
vt 0.02260689 0.89727241
vt 0.02260689 0.89793324
vt 0.02293729 0.89727241
vt 0.02293729 0.89727241
vt 0.02260689 0.89793324
vt 0.02293729 0.89793324
vt 0.02293729 0.89727241
vt 0.02293729 0.89793324
vt 0.05531594 0.89727241
vt 0.05531594 0.89727241
vt 0.02293729 0.89793324
vt 0.05531594 0.89793324
vt 0.05531594 0.89727241
vt 0.05531594 0.89793324
vt 0.05564635 0.89826363
vt 0.05536021 0.89809841
vt 0.05541272 0.89816684
vt 0.05548114 0.89821935
vt 0.05531594 0.89793324
vt 0.05532721 0.89801872
vt 0.05564635 0.89826363
vt 0.05564635 0.89826363
vt 0.05532721 0.89801872
vt 0.05536021 0.89809841
vt 0.05564635 0.89826363
vt 0.05536021 0.89809841
vt 0.05556083 0.89825237
vt 0.05556083 0.89825237
vt 0.05536021 0.89809841
vt 0.05548114 0.89821935
vt 0.02260689 0.89826363
vt 0.02269240 0.89825237
vt 0.02260689 0.89793324
vt 0.02260689 0.89793324
vt 0.02269240 0.89825237
vt 0.02277209 0.89821935
vt 0.02260689 0.89793324
vt 0.02277209 0.89821935
vt 0.02284052 0.89816684
vt 0.02284052 0.89816684
vt 0.02289303 0.89809841
vt 0.02260689 0.89793324
vt 0.02260689 0.89793324
vt 0.02289303 0.89809841
vt 0.02292603 0.89801872
vt 0.02260689 0.89793324
vt 0.02292603 0.89801872
vt 0.02293729 0.89793324
vt 0.02232076 0.89809841
vt 0.02260689 0.89793324
vt 0.02228776 0.89801872
vt 0.02228776 0.89801872
vt 0.02260689 0.89793324
vt 0.02227650 0.89793324
vt 0.02232076 0.89809841
vt 0.02237327 0.89816684
vt 0.02260689 0.89793324
vt 0.02260689 0.89793324
vt 0.02237327 0.89816684
vt 0.02244169 0.89821935
vt 0.02260689 0.89793324
vt 0.02244169 0.89821935
vt 0.02252138 0.89825237
vt 0.02260689 0.85828590
vt 0.02260689 0.86158985
vt 0.05564635 0.85828590
vt 0.05564635 0.85828590
vt 0.02260689 0.86158985
vt 0.05564635 0.86158985
vt 0.05564635 0.85828590
vt 0.05564635 0.86158985
vt 0.08868580 0.85828590
vt 0.08868580 0.85828590
vt 0.05564635 0.86158985
vt 0.08868580 0.86158985
vt 0.08868580 0.85828590
vt 0.08868580 0.86158985
vt 0.12172525 0.85828590
vt 0.12172525 0.85828590
vt 0.08868580 0.86158985
vt 0.12172525 0.86158985
vt 0.12172525 0.85828590
vt 0.12172525 0.86158985
vt 0.15476470 0.85828590
vt 0.15476470 0.85828590
vt 0.12172525 0.86158985
vt 0.15476470 0.86158985
vt 0.15476470 0.85828590
vt 0.15476470 0.86158985
vt 0.18780415 0.85828590
vt 0.18780415 0.85828590
vt 0.15476470 0.86158985
vt 0.18780415 0.86158985
vt 0.18780415 0.85828590
vt 0.18780415 0.86158985
vt 0.22084360 0.85828590
vt 0.22084360 0.85828590
vt 0.18780415 0.86158985
vt 0.22084360 0.86158985
vt 0.02742047 0.99570715
vt 0.02742047 0.95605981
vt 0.02411653 0.99570715
vt 0.02411653 0.99570715
vt 0.02742047 0.95605981
vt 0.02081259 0.95605981
vt 0.02411653 0.99570715
vt 0.02081259 0.95605981
vt 0.02081259 0.99570715
vt 0.11263758 0.39507461
vt 0.11263758 0.55696785
vt 0.21175593 0.55696785
vt 0.24479538 0.45784950
vt 0.37662283 0.52458924
vt 0.37662283 0.52392840
vt 0.21175593 0.55696785
vt 0.21175593 0.45784950
vt 0.11263758 0.39507461
vt 0.11263758 0.39507461
vt 0.21175593 0.45784950
vt 0.24479538 0.45784950
vt 0.11263758 0.39507461
vt 0.24479538 0.45784950
vt 0.76681870 0.39507461
vt 0.76681870 0.39507461
vt 0.24479538 0.45784950
vt 0.37662283 0.52392840
vt 0.24479538 0.45784950
vt 0.24479538 0.55696785
vt 0.37662283 0.52458924
vt 0.37662283 0.52458924
vt 0.24479538 0.55696785
vt 0.37728360 0.55696785
vt 0.37662283 0.52458924
vt 0.37728360 0.55696785
vt 0.37728360 0.52458924
vt 0.37728360 0.52458924
vt 0.37728360 0.55696785
vt 0.76681870 0.39507461
vt 0.37728360 0.52458924
vt 0.76681870 0.39507461
vt 0.37728360 0.52392840
vt 0.37728360 0.52392840
vt 0.76681870 0.39507461
vt 0.37662283 0.52392840
vt 0.76681870 0.72546911
vt 0.76681870 0.56357580
vt 0.57552034 0.56357580
vt 0.11263758 0.72546911
vt 0.17871648 0.72546911
vt 0.11263758 0.56357580
vt 0.11263758 0.56357580
vt 0.17871648 0.72546911
vt 0.17871648 0.62635076
vt 0.11263758 0.56357580
vt 0.17871648 0.62635076
vt 0.37728360 0.56357580
vt 0.37728360 0.56357580
vt 0.17871648 0.62635076
vt 0.21175593 0.62635076
vt 0.76681870 0.55696785
vt 0.76681870 0.39507461
vt 0.57552034 0.55696785
vt 0.57552034 0.55696785
vt 0.76681870 0.39507461
vt 0.37728360 0.55696785
vt 0.57552034 0.55696785
vt 0.37728360 0.55696785
vt 0.57552034 0.56357580
vt 0.57552034 0.56357580
vt 0.37728360 0.55696785
vt 0.37728360 0.56357580
vt 0.57552034 0.56357580
vt 0.37728360 0.56357580
vt 0.76681870 0.72546911
vt 0.76681870 0.72546911
vt 0.37728360 0.56357580
vt 0.21175593 0.62635076
vt 0.76681870 0.72546911
vt 0.21175593 0.62635076
vt 0.21175593 0.72546911
vt 0.60492539 0.88736242
vt 0.60492539 0.23318130
vt 0.44303212 0.29926020
vt 0.44303212 0.29926020
vt 0.60492539 0.23318130
vt 0.44303212 0.23318130
vt 0.27453092 0.23318130
vt 0.27453092 0.31577992
vt 0.40668872 0.31577992
vt 0.27453092 0.39837855
vt 0.27453092 0.46445745
vt 0.40668872 0.39837855
vt 0.40668872 0.39837855
vt 0.27453092 0.46445745
vt 0.40668872 0.46445745
vt 0.40668872 0.54705608
vt 0.60492539 0.88736242
vt 0.40668872 0.46445745
vt 0.40668872 0.46445745
vt 0.60492539 0.88736242
vt 0.44303212 0.29926020
vt 0.40668872 0.46445745
vt 0.44303212 0.29926020
vt 0.40668872 0.39837855
vt 0.40668872 0.39837855
vt 0.44303212 0.29926020
vt 0.43642420 0.29926020
vt 0.40668872 0.39837855
vt 0.43642420 0.29926020
vt 0.40668872 0.31577992
vt 0.40668872 0.31577992
vt 0.43642420 0.29926020
vt 0.43642420 0.23318130
vt 0.40668872 0.31577992
vt 0.43642420 0.23318130
vt 0.27453092 0.23318130
vt 0.27453092 0.69573361
vt 0.27453092 0.88736242
vt 0.40668872 0.69573361
vt 0.40668872 0.69573361
vt 0.27453092 0.88736242
vt 0.60492539 0.88736242
vt 0.40668872 0.69573361
vt 0.60492539 0.88736242
vt 0.40668872 0.61313498
vt 0.40668872 0.61313498
vt 0.60492539 0.88736242
vt 0.40668872 0.54705608
vt 0.40668872 0.61313498
vt 0.40668872 0.54705608
vt 0.27453092 0.61313498
vt 0.27453092 0.61313498
vt 0.40668872 0.54705608
vt 0.27453092 0.54705608
vt 0.36817458 0.76067924
vt 0.03778009 0.76067924
vt 0.19967341 0.76728714
vt 0.19967341 0.76728714
vt 0.03778009 0.76067924
vt 0.03778009 0.76728714
vt 0.36817458 0.76728714
vt 0.36817458 0.76067924
vt 0.20628130 0.76728714
vt 0.20628130 0.76728714
vt 0.36817458 0.76067924
vt 0.19967341 0.76728714
vt 0.20628130 0.76728714
vt 0.19967341 0.76728714
vt 0.20628130 0.83336604
vt 0.20628130 0.83336604
vt 0.19967341 0.76728714
vt 0.19967341 0.83336604
vt 0.07288454 0.95685095
vt 0.00680563 0.95685095
vt 0.07288454 0.96345884
vt 0.07288454 0.96345884
vt 0.00680563 0.95685095
vt 0.00680563 0.96345884
vt 0.10916220 0.94370091
vt 0.01004385 0.94370091
vt 0.10916220 0.93709302
vt 0.10916220 0.93709302
vt 0.01004385 0.94370091
vt 0.01004385 0.93709302
vt 0.77366525 0.39153200
vt 0.21199459 0.39153200
vt 0.21199459 0.49065036
vt 0.17895514 0.39153200
vt 0.11287623 0.39153200
vt 0.17895514 0.49065036
vt 0.17895514 0.49065036
vt 0.11287623 0.39153200
vt 0.11287623 0.72192645
vt 0.77366525 0.72192645
vt 0.77366525 0.39153200
vt 0.24503404 0.56003320
vt 0.24503404 0.56003320
vt 0.77366525 0.39153200
vt 0.21199459 0.49065036
vt 0.24503404 0.56003320
vt 0.21199459 0.49065036
vt 0.21199459 0.56003320
vt 0.21199459 0.56003320
vt 0.21199459 0.49065036
vt 0.17895514 0.49065036
vt 0.21199459 0.56003320
vt 0.17895514 0.49065036
vt 0.21199459 0.65915155
vt 0.21199459 0.65915155
vt 0.17895514 0.49065036
vt 0.11287623 0.72192645
vt 0.21199459 0.65915155
vt 0.11287623 0.72192645
vt 0.24503404 0.65915155
vt 0.24503404 0.65915155
vt 0.11287623 0.72192645
vt 0.77366525 0.72192645
vt 0.24503404 0.65915155
vt 0.77366525 0.72192645
vt 0.24503404 0.56003320
f 1/1 2/2 3/3
f 4/4 5/5 6/6
f 7/7 8/8 9/9
f 10/10 11/11 12/12
f 13/13 14/14 15/15
f 16/16 17/17 18/18
f 19/19 20/20 21/21
f 22/22 23/23 24/24
f 25/25 26/26 27/27
f 28/28 29/29 30/30
f 31/31 32/32 33/33
f 34/34 35/35 36/36
f 37/37 38/38 39/39
f 40/40 41/41 42/42
f 43/43 44/44 45/45
f 46/46 47/47 48/48
f 49/49 50/50 51/51
f 52/52 53/53 54/54
f 55/55 56/56 57/57
f 58/58 59/59 60/60
f 61/61 62/62 63/63
f 64/64 65/65 66/66
f 67/67 68/68 69/69
f 70/70 71/71 72/72
f 73/73 74/74 75/75
f 76/76 77/77 78/78
f 79/79 80/80 81/81
f 82/82 83/83 84/84
f 85/85 86/86 87/87
f 88/88 89/89 90/90
f 91/91 92/92 93/93
f 94/94 95/95 96/96
f 97/97 98/98 99/99
f 100/100 101/101 102/102
f 103/103 104/104 105/105
f 106/106 107/107 108/108
f 109/109 110/110 111/111
f 112/112 113/113 114/114
f 115/115 116/116 117/117
f 118/118 119/119 120/120
f 121/121 122/122 123/123
f 124/124 125/125 126/126
f 127/127 128/128 129/129
f 130/130 131/131 132/132
f 133/133 134/134 135/135
f 136/136 137/137 138/138
f 139/139 140/140 141/141
f 142/142 143/143 144/144
f 145/145 146/146 147/147
f 148/148 149/149 150/150
f 151/151 152/152 153/153
f 154/154 155/155 156/156
f 157/157 158/158 159/159
f 160/160 161/161 162/162
f 163/163 164/164 165/165
f 166/166 167/167 168/168
f 169/169 170/170 171/171
f 172/172 173/173 174/174
f 175/175 176/176 177/177
f 178/178 179/179 180/180
f 181/181 182/182 183/183
f 184/184 185/185 186/186
f 187/187 188/188 189/189
f 190/190 191/191 192/192
f 193/193 194/194 195/195
f 196/196 197/197 198/198
f 199/199 200/200 201/201
f 202/202 203/203 204/204
f 205/205 206/206 207/207
f 208/208 209/209 210/210
f 211/211 212/212 213/213
f 214/214 215/215 216/216
f 217/217 218/218 219/219
f 220/220 221/221 222/222
f 223/223 224/224 225/225
f 226/226 227/227 228/228
f 229/229 230/230 231/231
f 232/232 233/233 234/234
f 235/235 236/236 237/237
f 238/238 239/239 240/240
f 241/241 242/242 243/243
f 244/244 245/245 246/246
f 247/247 248/248 249/249
f 250/250 251/251 252/252
f 253/253 254/254 255/255
f 256/256 257/257 258/258
f 259/259 260/260 261/261
f 262/262 263/263 264/264
f 265/265 266/266 267/267
f 268/268 269/269 270/270
f 271/271 272/272 273/273
f 274/274 275/275 276/276
f 277/277 278/278 279/279
f 280/280 281/281 282/282
f 283/283 284/284 285/285
f 286/286 287/287 288/288
f 289/289 290/290 291/291
f 292/292 293/293 294/294
f 295/295 296/296 297/297
f 298/298 299/299 300/300
f 301/301 302/302 303/303
f 304/304 305/305 306/306
f 307/307 308/308 309/309
f 310/310 311/311 312/312
f 313/313 314/314 315/315
f 316/316 317/317 318/318
f 319/319 320/320 321/321
f 322/322 323/323 324/324
f 325/325 326/326 327/327
f 328/328 329/329 330/330
f 331/331 332/332 333/333
f 334/334 335/335 336/336
f 337/337 338/338 339/339
f 340/340 341/341 342/342
f 343/343 344/344 345/345
f 346/346 347/347 348/348
f 349/349 350/350 351/351
f 352/352 353/353 354/354
f 355/355 356/356 357/357
f 358/358 359/359 360/360
f 361/361 362/362 363/363
f 364/364 365/365 366/366
f 367/367 368/368 369/369
f 370/370 371/371 372/372
f 373/373 374/374 375/375
f 376/376 377/377 378/378
f 379/379 380/380 381/381
f 382/382 383/383 384/384
f 385/385 386/386 387/387
f 388/388 389/389 390/390
f 391/391 392/392 393/393
f 394/394 395/395 396/396
f 397/397 398/398 399/399
f 400/400 401/401 402/402
f 403/403 404/404 405/405
f 406/406 407/407 408/408
f 409/409 410/410 411/411
f 412/412 413/413 414/414
f 415/415 416/416 417/417
f 418/418 419/419 420/420
f 421/421 422/422 423/423
f 424/424 425/425 426/426
f 427/427 428/428 429/429
f 430/430 431/431 432/432
f 433/433 434/434 435/435
f 436/436 437/437 438/438
f 439/439 440/440 441/441
f 442/442 443/443 444/444
f 445/445 446/446 447/447
f 448/448 449/449 450/450
f 451/451 452/452 453/453
f 454/454 455/455 456/456
f 457/457 458/458 459/459
f 460/460 461/461 462/462
f 463/463 464/464 465/465
f 466/466 467/467 468/468
f 469/469 470/470 471/471
f 472/472 473/473 474/474
f 475/475 476/476 477/477
f 478/478 479/479 480/480
f 481/481 482/482 483/483
f 484/484 485/485 486/486
f 487/487 488/488 489/489
f 490/490 491/491 492/492
f 493/493 494/494 495/495
f 496/496 497/497 498/498
f 499/499 500/500 501/501
f 502/502 503/503 504/504
f 505/505 506/506 507/507
f 508/508 509/509 510/510
f 511/511 512/512 513/513
f 514/514 515/515 516/516
f 517/517 518/518 519/519
f 520/520 521/521 522/522
f 523/523 524/524 525/525
f 526/526 527/527 528/528
f 529/529 530/530 531/531
f 532/532 533/533 534/534
f 535/535 536/536 537/537
f 538/538 539/539 540/540
f 541/541 542/542 543/543
f 544/544 545/545 546/546
f 547/547 548/548 549/549
f 550/550 551/551 552/552
f 553/553 554/554 555/555
f 556/556 557/557 558/558
f 559/559 560/560 561/561
f 562/562 563/563 564/564
f 565/565 566/566 567/567
f 568/568 569/569 570/570
f 571/571 572/572 573/573
f 574/574 575/575 576/576
f 577/577 578/578 579/579
f 580/580 581/581 582/582
f 583/583 584/584 585/585
f 586/586 587/587 588/588
f 589/589 590/590 591/591
f 592/592 593/593 594/594
f 595/595 596/596 597/597
f 598/598 599/599 600/600
f 601/601 602/602 603/603
f 604/604 605/605 606/606
f 607/607 608/608 609/609
f 610/610 611/611 612/612
f 613/613 614/614 615/615
f 616/616 617/617 618/618
f 619/619 620/620 621/621
f 622/622 623/623 624/624
f 625/625 626/626 627/627
f 628/628 629/629 630/630
f 631/631 632/632 633/633
f 634/634 635/635 636/636
f 637/637 638/638 639/639
f 640/640 641/641 642/642
f 643/643 644/644 645/645
f 646/646 647/647 648/648
f 649/649 650/650 651/651
f 652/652 653/653 654/654
f 655/655 656/656 657/657
f 658/658 659/659 660/660
f 661/661 662/662 663/663
f 664/664 665/665 666/666
f 667/667 668/668 669/669
f 670/670 671/671 672/672
f 673/673 674/674 675/675
f 676/676 677/677 678/678
f 679/679 680/680 681/681
f 682/682 683/683 684/684
f 685/685 686/686 687/687
f 688/688 689/689 690/690
f 691/691 692/692 693/693
f 694/694 695/695 696/696
f 697/697 698/698 699/699
f 700/700 701/701 702/702
f 703/703 704/704 705/705
f 706/706 707/707 708/708
f 709/709 710/710 711/711
f 712/712 713/713 714/714
f 715/715 716/716 717/717
f 718/718 719/719 720/720
f 721/721 722/722 723/723
f 724/724 725/725 726/726
f 727/727 728/728 729/729
f 730/730 731/731 732/732
f 733/733 734/734 735/735
f 736/736 737/737 738/738
f 739/739 740/740 741/741
f 742/742 743/743 744/744
f 745/745 746/746 747/747
f 748/748 749/749 750/750
f 751/751 752/752 753/753
f 754/754 755/755 756/756
f 757/757 758/758 759/759
f 760/760 761/761 762/762
f 763/763 764/764 765/765
f 766/766 767/767 768/768
f 769/769 770/770 771/771
f 772/772 773/773 774/774
f 775/775 776/776 777/777
f 778/778 779/779 780/780
f 781/781 782/782 783/783
f 784/784 785/785 786/786
f 787/787 788/788 789/789
f 790/790 791/791 792/792
f 793/793 794/794 795/795
f 796/796 797/797 798/798
f 799/799 800/800 801/801
f 802/802 803/803 804/804
f 805/805 806/806 807/807
f 808/808 809/809 810/810
f 811/811 812/812 813/813
f 814/814 815/815 816/816
f 817/817 818/818 819/819
f 820/820 821/821 822/822
f 823/823 824/824 825/825
f 826/826 827/827 828/828
f 829/829 830/830 831/831
f 832/832 833/833 834/834
f 835/835 836/836 837/837
f 838/838 839/839 840/840
f 841/841 842/842 843/843
f 844/844 845/845 846/846
f 847/847 848/848 849/849
f 850/850 851/851 852/852
f 853/853 854/854 855/855
f 856/856 857/857 858/858
f 859/859 860/860 861/861
f 862/862 863/863 864/864
f 865/865 866/866 867/867
f 868/868 869/869 870/870
f 871/871 872/872 873/873
f 874/874 875/875 876/876
f 877/877 878/878 879/879
f 880/880 881/881 882/882
f 883/883 884/884 885/885
f 886/886 887/887 888/888
f 889/889 890/890 891/891
f 892/892 893/893 894/894
f 895/895 896/896 897/897
f 898/898 899/899 900/900
f 901/901 902/902 903/903
f 904/904 905/905 906/906
f 907/907 908/908 909/909
f 910/910 911/911 912/912
f 913/913 914/914 915/915
f 916/916 917/917 918/918
f 919/919 920/920 921/921
f 922/922 923/923 924/924
f 925/925 926/926 927/927
f 928/928 929/929 930/930
f 931/931 932/932 933/933
f 934/934 935/935 936/936
f 937/937 938/938 939/939
f 940/940 941/941 942/942
f 943/943 944/944 945/945
f 946/946 947/947 948/948
f 949/949 950/950 951/951
f 952/952 953/953 954/954
f 955/955 956/956 957/957
f 958/958 959/959 960/960
f 961/961 962/962 963/963
f 964/964 965/965 966/966
f 967/967 968/968 969/969
f 970/970 971/971 972/972
f 973/973 974/974 975/975
f 976/976 977/977 978/978
f 979/979 980/980 981/981
f 982/982 983/983 984/984
f 985/985 986/986 987/987
f 988/988 989/989 990/990
f 991/991 992/992 993/993
f 994/994 995/995 996/996
f 997/997 998/998 999/999
f 1000/1000 1001/1001 1002/1002
f 1003/1003 1004/1004 1005/1005
f 1006/1006 1007/1007 1008/1008
f 1009/1009 1010/1010 1011/1011
f 1012/1012 1013/1013 1014/1014
f 1015/1015 1016/1016 1017/1017
f 1018/1018 1019/1019 1020/1020
f 1021/1021 1022/1022 1023/1023
f 1024/1024 1025/1025 1026/1026
f 1027/1027 1028/1028 1029/1029
f 1030/1030 1031/1031 1032/1032
f 1033/1033 1034/1034 1035/1035
f 1036/1036 1037/1037 1038/1038
f 1039/1039 1040/1040 1041/1041
f 1042/1042 1043/1043 1044/1044
f 1045/1045 1046/1046 1047/1047

