# https://github.com/mikedh/trimesh
mtllib material.mtl
usemtl material_0
v -1.80600015 -0.30000002 1.67399995
v -1.77400015 0.29999993 1.67399998
v -1.80600015 0.29999993 1.67399998
v -1.77400015 -0.30000002 1.67399995
v -1.77400015 0.29999993 1.62599998
v -1.77400015 0.29999993 1.67399998
v -1.77400015 -0.30000002 1.62599995
v -1.80600015 0.29999993 1.62599998
v -1.77400015 0.29999993 1.62599998
v -1.80600015 -0.30000002 1.62599995
v -1.80600015 0.29999993 1.67399998
v -1.80600015 0.29999993 1.62599998
v -1.77400015 0.29999993 1.62599998
v -1.80600015 0.29999993 1.67399998
v -1.77400015 0.29999993 1.67399998
v -1.77400015 -0.30000002 1.67399995
v -1.80600015 -0.30000002 1.62599995
v -1.77400015 -0.30000002 1.62599995
v -1.80600015 0.32099994 1.79999997
v -1.77400015 0.32100002 0.00000001
v -1.80600015 0.32100002 0.00000001
v -1.77400015 0.32099994 1.79999997
v -1.77400015 0.27300001 0.00000001
v -1.77400015 0.32100002 0.00000001
v -1.77400015 0.27300002 1.79999997
v -1.80600015 0.27300001 0.00000001
v -1.77400015 0.27300001 0.00000001
v -1.80600015 0.27300002 1.79999997
v -1.80600015 0.32100002 0.00000001
v -1.80600015 0.27300001 0.00000001
v -1.77400015 0.27300001 0.00000001
v -1.80600015 0.32100002 0.00000001
v -1.77400015 0.32100002 0.00000001
v -1.77400015 0.32099994 1.79999997
v -1.80600015 0.27300002 1.79999997
v -1.77400015 0.27300002 1.79999997
v -1.80600015 -0.27300000 1.79999995
v -1.77400015 -0.27300001 -0.00000001
v -1.80600015 -0.27300001 -0.00000001
v -1.77400015 -0.27300000 1.79999995
v -1.77400015 -0.32100002 -0.00000001
v -1.77400015 -0.27300001 -0.00000001
v -1.77400015 -0.32100009 1.79999995
v -1.80600015 -0.32100002 -0.00000001
v -1.77400015 -0.32100002 -0.00000001
v -1.80600015 -0.32100009 1.79999995
v -1.80600015 -0.27300001 -0.00000001
v -1.80600015 -0.32100002 -0.00000001
v -1.77400015 -0.32100002 -0.00000001
v -1.80600015 -0.27300001 -0.00000001
v -1.77400015 -0.27300001 -0.00000001
v -1.77400015 -0.27300000 1.79999995
v -1.80600015 -0.32100009 1.79999995
v -1.77400015 -0.32100009 1.79999995
v -1.80600015 -0.28112891 0.49614718
v -1.77400015 0.30866071 0.08317201
v -1.80600015 0.30866071 0.08317201
v -1.77400015 0.30866071 0.08317201
v -1.77400015 -0.30866073 0.45682798
v -1.77400015 0.28112892 0.04385286
v -1.77400015 -0.30866073 0.45682798
v -1.80600015 0.28112892 0.04385286
v -1.77400015 0.28112892 0.04385286
v -1.80600015 -0.30866073 0.45682798
v -1.80600015 0.30866071 0.08317201
v -1.80600015 0.28112892 0.04385286
v -1.77400015 0.28112892 0.04385286
v -1.80600015 0.30866071 0.08317201
v -1.77400015 0.30866071 0.08317201
v -1.77400015 -0.28112891 0.49614718
v -1.80600015 -0.30866073 0.45682798
v -1.77400015 -0.30866073 0.45682798
v -1.80600015 0.30866067 0.93682772
v -1.77400015 -0.28112895 0.52385277
v -1.80600015 -0.28112895 0.52385277
v -1.77400015 0.30866067 0.93682772
v -1.77400015 -0.30866073 0.56317220
v -1.77400015 -0.28112895 0.52385277
v -1.77400015 0.28112894 0.97614715
v -1.80600015 -0.30866073 0.56317220
v -1.77400015 -0.30866073 0.56317220
v -1.80600015 -0.30866073 0.56317220
v -1.80600015 0.30866067 0.93682772
v -1.80600015 -0.28112895 0.52385277
v -1.77400015 -0.30866073 0.56317220
v -1.80600015 -0.28112895 0.52385277
v -1.77400015 -0.28112895 0.52385277
v -1.77400015 0.30866067 0.93682772
v -1.80600015 0.28112894 0.97614715
v -1.77400015 0.28112894 0.97614715
v -1.80600015 -0.28112892 1.42614711
v -1.77400015 0.30866067 1.01317199
v -1.80600015 0.30866067 1.01317199
v -1.77400015 0.30866067 1.01317199
v -1.77400015 -0.30866045 1.38682796
v -1.77400015 0.28112890 0.97385283
v -1.77400015 -0.30866045 1.38682796
v -1.80600015 0.28112890 0.97385283
v -1.77400015 0.28112890 0.97385283
v -1.80600015 -0.30866045 1.38682796
v -1.80600015 0.30866067 1.01317199
v -1.80600015 0.28112890 0.97385283
v -1.77400015 0.28112890 0.97385283
v -1.80600015 0.30866067 1.01317199
v -1.77400015 0.30866067 1.01317199
v -1.77400015 -0.28112892 1.42614711
v -1.80600015 -0.30866045 1.38682796
v -1.77400015 -0.30866045 1.38682796
v 1.77399977 -0.30000002 1.67399995
v 1.80599977 0.29999993 1.67399998
v 1.77399977 0.29999993 1.67399998
v 1.80599977 -0.30000002 1.67399995
v 1.80599977 0.29999993 1.62599998
v 1.80599977 0.29999993 1.67399998
v 1.80599977 -0.30000002 1.62599995
v 1.77399977 0.29999993 1.62599998
v 1.80599977 0.29999993 1.62599998
v 1.77399977 -0.30000002 1.62599995
v 1.77399977 0.29999993 1.67399998
v 1.77399977 0.29999993 1.62599998
v 1.80599977 0.29999993 1.62599998
v 1.77399977 0.29999993 1.67399998
v 1.80599977 0.29999993 1.67399998
v 1.80599977 -0.30000002 1.67399995
v 1.77399977 -0.30000002 1.62599995
v 1.80599977 -0.30000002 1.62599995
v 1.77399977 0.32099994 1.79999997
v 1.80599977 0.32100002 0.00000001
v 1.77399977 0.32100002 0.00000001
v 1.80599977 0.32099994 1.79999997
v 1.80599977 0.27300001 0.00000001
v 1.80599977 0.32100002 0.00000001
v 1.80599977 0.27300002 1.79999997
v 1.77399977 0.27300001 0.00000001
v 1.80599977 0.27300001 0.00000001
v 1.77399977 0.27300002 1.79999997
v 1.77399977 0.32100002 0.00000001
v 1.77399977 0.27300001 0.00000001
v 1.80599977 0.27300001 0.00000001
v 1.77399977 0.32100002 0.00000001
v 1.80599977 0.32100002 0.00000001
v 1.80599977 0.32099994 1.79999997
v 1.77399977 0.27300002 1.79999997
v 1.80599977 0.27300002 1.79999997
v 1.77399977 -0.27300000 1.79999995
v 1.80599977 -0.27300001 -0.00000001
v 1.77399977 -0.27300001 -0.00000001
v 1.80599977 -0.27300000 1.79999995
v 1.80599977 -0.32100002 -0.00000001
v 1.80599977 -0.27300001 -0.00000001
v 1.80599977 -0.32100009 1.79999995
v 1.77399977 -0.32100002 -0.00000001
v 1.80599977 -0.32100002 -0.00000001
v 1.77399977 -0.32100009 1.79999995
v 1.77399977 -0.27300001 -0.00000001
v 1.77399977 -0.32100002 -0.00000001
v 1.80599977 -0.32100002 -0.00000001
v 1.77399977 -0.27300001 -0.00000001
v 1.80599977 -0.27300001 -0.00000001
v 1.80599977 -0.27300000 1.79999995
v 1.77399977 -0.32100009 1.79999995
v 1.80599977 -0.32100009 1.79999995
v 1.77399977 -0.28112891 0.49614718
v 1.80599977 0.30866071 0.08317201
v 1.77399977 0.30866071 0.08317201
v 1.80599977 0.30866071 0.08317201
v 1.80599977 -0.30866073 0.45682798
v 1.80599977 0.28112892 0.04385286
v 1.80599977 -0.30866073 0.45682798
v 1.77399977 0.28112892 0.04385286
v 1.80599977 0.28112892 0.04385286
v 1.77399977 -0.30866073 0.45682798
v 1.77399977 0.30866071 0.08317201
v 1.77399977 0.28112892 0.04385286
v 1.80599977 0.28112892 0.04385286
v 1.77399977 0.30866071 0.08317201
v 1.80599977 0.30866071 0.08317201
v 1.80599977 -0.28112891 0.49614718
v 1.77399977 -0.30866073 0.45682798
v 1.80599977 -0.30866073 0.45682798
v 1.77399977 0.30866067 0.93682772
v 1.80599977 -0.28112895 0.52385277
v 1.77399977 -0.28112895 0.52385277
v 1.80599977 0.30866067 0.93682772
v 1.80599977 -0.30866073 0.56317220
v 1.80599977 -0.28112895 0.52385277
v 1.80599977 0.28112894 0.97614715
v 1.77399977 -0.30866073 0.56317220
v 1.80599977 -0.30866073 0.56317220
v 1.77399977 -0.30866073 0.56317220
v 1.77399977 0.30866067 0.93682772
v 1.77399977 -0.28112895 0.52385277
v 1.80599977 -0.30866073 0.56317220
v 1.77399977 -0.28112895 0.52385277
v 1.80599977 -0.28112895 0.52385277
v 1.80599977 0.30866067 0.93682772
v 1.77399977 0.28112894 0.97614715
v 1.80599977 0.28112894 0.97614715
v 1.77399977 -0.28112892 1.42614711
v 1.80599977 0.30866067 1.01317199
v 1.77399977 0.30866067 1.01317199
v 1.80599977 0.30866067 1.01317199
v 1.80599977 -0.30866045 1.38682796
v 1.80599977 0.28112890 0.97385283
v 1.80599977 -0.30866045 1.38682796
v 1.77399977 0.28112890 0.97385283
v 1.80599977 0.28112890 0.97385283
v 1.77399977 -0.30866045 1.38682796
v 1.77399977 0.30866067 1.01317199
v 1.77399977 0.28112890 0.97385283
v 1.80599977 0.28112890 0.97385283
v 1.77399977 0.30866067 1.01317199
v 1.80599977 0.30866067 1.01317199
v 1.80599977 -0.28112892 1.42614711
v 1.77399977 -0.30866045 1.38682796
v 1.80599977 -0.30866045 1.38682796
v -0.91200017 -0.30000002 1.67399995
v -0.88000017 0.29999993 1.67399998
v -0.91200017 0.29999993 1.67399998
v -0.88000017 -0.30000002 1.67399995
v -0.88000017 0.29999993 1.62599998
v -0.88000017 0.29999993 1.67399998
v -0.88000017 -0.30000002 1.62599995
v -0.91200017 0.29999993 1.62599998
v -0.88000017 0.29999993 1.62599998
v -0.91200017 -0.30000002 1.62599995
v -0.91200017 0.29999993 1.67399998
v -0.91200017 0.29999993 1.62599998
v -0.88000017 0.29999993 1.62599998
v -0.91200017 0.29999993 1.67399998
v -0.88000017 0.29999993 1.67399998
v -0.88000017 -0.30000002 1.67399995
v -0.91200017 -0.30000002 1.62599995
v -0.88000017 -0.30000002 1.62599995
v -0.91200035 0.32099994 1.79999997
v -0.88000035 0.32100002 0.00000001
v -0.91200035 0.32100002 0.00000001
v -0.88000035 0.32099994 1.79999997
v -0.88000035 0.27300001 0.00000001
v -0.88000035 0.32100002 0.00000001
v -0.88000035 0.27300002 1.79999997
v -0.91200035 0.27300001 0.00000001
v -0.88000035 0.27300001 0.00000001
v -0.91200035 0.27300002 1.79999997
v -0.91200035 0.32100002 0.00000001
v -0.91200035 0.27300001 0.00000001
v -0.88000035 0.27300001 0.00000001
v -0.91200035 0.32100002 0.00000001
v -0.88000035 0.32100002 0.00000001
v -0.88000035 0.32099994 1.79999997
v -0.91200035 0.27300002 1.79999997
v -0.88000035 0.27300002 1.79999997
v -0.91200035 -0.27300000 1.79999995
v -0.88000035 -0.27300001 -0.00000001
v -0.91200035 -0.27300001 -0.00000001
v -0.88000035 -0.27300000 1.79999995
v -0.88000035 -0.32100002 -0.00000001
v -0.88000035 -0.27300001 -0.00000001
v -0.88000035 -0.32100009 1.79999995
v -0.91200035 -0.32100002 -0.00000001
v -0.88000035 -0.32100002 -0.00000001
v -0.91200035 -0.32100009 1.79999995
v -0.91200035 -0.27300001 -0.00000001
v -0.91200035 -0.32100002 -0.00000001
v -0.88000035 -0.32100002 -0.00000001
v -0.91200035 -0.27300001 -0.00000001
v -0.88000035 -0.27300001 -0.00000001
v -0.88000035 -0.27300000 1.79999995
v -0.91200035 -0.32100009 1.79999995
v -0.88000035 -0.32100009 1.79999995
v -0.91200035 -0.28112891 0.49614718
v -0.88000035 0.30866071 0.08317201
v -0.91200035 0.30866071 0.08317201
v -0.88000035 0.30866071 0.08317201
v -0.88000035 -0.30866073 0.45682798
v -0.88000035 0.28112892 0.04385286
v -0.88000035 -0.30866073 0.45682798
v -0.91200035 0.28112892 0.04385286
v -0.88000035 0.28112892 0.04385286
v -0.91200035 -0.30866073 0.45682798
v -0.91200035 0.30866071 0.08317201
v -0.91200035 0.28112892 0.04385286
v -0.88000035 0.28112892 0.04385286
v -0.91200035 0.30866071 0.08317201
v -0.88000035 0.30866071 0.08317201
v -0.88000035 -0.28112891 0.49614718
v -0.91200035 -0.30866073 0.45682798
v -0.88000035 -0.30866073 0.45682798
v -0.91200035 0.30866067 0.93682772
v -0.88000035 -0.28112895 0.52385277
v -0.91200035 -0.28112895 0.52385277
v -0.88000035 0.30866067 0.93682772
v -0.88000035 -0.30866073 0.56317220
v -0.88000035 -0.28112895 0.52385277
v -0.88000035 0.28112894 0.97614715
v -0.91200035 -0.30866073 0.56317220
v -0.88000035 -0.30866073 0.56317220
v -0.91200035 -0.30866073 0.56317220
v -0.91200035 0.30866067 0.93682772
v -0.91200035 -0.28112895 0.52385277
v -0.88000035 -0.30866073 0.56317220
v -0.91200035 -0.28112895 0.52385277
v -0.88000035 -0.28112895 0.52385277
v -0.88000035 0.30866067 0.93682772
v -0.91200035 0.28112894 0.97614715
v -0.88000035 0.28112894 0.97614715
v -0.91200035 -0.28112892 1.42614711
v -0.88000035 0.30866067 1.01317199
v -0.91200035 0.30866067 1.01317199
v -0.88000035 0.30866067 1.01317199
v -0.88000035 -0.30866045 1.38682796
v -0.88000035 0.28112890 0.97385283
v -0.88000035 -0.30866045 1.38682796
v -0.91200035 0.28112890 0.97385283
v -0.88000035 0.28112890 0.97385283
v -0.91200035 -0.30866045 1.38682796
v -0.91200035 0.30866067 1.01317199
v -0.91200035 0.28112890 0.97385283
v -0.88000035 0.28112890 0.97385283
v -0.91200035 0.30866067 1.01317199
v -0.88000035 0.30866067 1.01317199
v -0.88000035 -0.28112892 1.42614711
v -0.91200035 -0.30866045 1.38682796
v -0.88000035 -0.30866045 1.38682796
v 0.85999997 -0.30000002 1.67399995
v 0.89199997 0.29999993 1.67399998
v 0.85999997 0.29999993 1.67399998
v 0.89199997 -0.30000002 1.67399995
v 0.89199997 0.29999993 1.62599998
v 0.89199997 0.29999993 1.67399998
v 0.89199997 -0.30000002 1.62599995
v 0.85999997 0.29999993 1.62599998
v 0.89199997 0.29999993 1.62599998
v 0.85999997 -0.30000002 1.62599995
v 0.85999997 0.29999993 1.67399998
v 0.85999997 0.29999993 1.62599998
v 0.89199997 0.29999993 1.62599998
v 0.85999997 0.29999993 1.67399998
v 0.89199997 0.29999993 1.67399998
v 0.89199997 -0.30000002 1.67399995
v 0.85999997 -0.30000002 1.62599995
v 0.89199997 -0.30000002 1.62599995
v 0.85999997 0.32099994 1.79999997
v 0.89199997 0.32100002 0.00000001
v 0.85999997 0.32100002 0.00000001
v 0.89199997 0.32099994 1.79999997
v 0.89199997 0.27300001 0.00000001
v 0.89199997 0.32100002 0.00000001
v 0.89199997 0.27300002 1.79999997
v 0.85999997 0.27300001 0.00000001
v 0.89199997 0.27300001 0.00000001
v 0.85999997 0.27300002 1.79999997
v 0.85999997 0.32100002 0.00000001
v 0.85999997 0.27300001 0.00000001
v 0.89199997 0.27300001 0.00000001
v 0.85999997 0.32100002 0.00000001
v 0.89199997 0.32100002 0.00000001
v 0.89199997 0.32099994 1.79999997
v 0.85999997 0.27300002 1.79999997
v 0.89199997 0.27300002 1.79999997
v 0.85999997 -0.27300000 1.79999995
v 0.89199997 -0.27300001 -0.00000001
v 0.85999997 -0.27300001 -0.00000001
v 0.89199997 -0.27300000 1.79999995
v 0.89199997 -0.32100002 -0.00000001
v 0.89199997 -0.27300001 -0.00000001
v 0.89199997 -0.32100009 1.79999995
v 0.85999997 -0.32100002 -0.00000001
v 0.89199997 -0.32100002 -0.00000001
v 0.85999997 -0.32100009 1.79999995
v 0.85999997 -0.27300001 -0.00000001
v 0.85999997 -0.32100002 -0.00000001
v 0.89199997 -0.32100002 -0.00000001
v 0.85999997 -0.27300001 -0.00000001
v 0.89199997 -0.27300001 -0.00000001
v 0.89199997 -0.27300000 1.79999995
v 0.85999997 -0.32100009 1.79999995
v 0.89199997 -0.32100009 1.79999995
v 0.85999997 -0.28112891 0.49614718
v 0.89199997 0.30866071 0.08317201
v 0.85999997 0.30866071 0.08317201
v 0.89199997 0.30866071 0.08317201
v 0.89199997 -0.30866073 0.45682798
v 0.89199997 0.28112892 0.04385286
v 0.89199997 -0.30866073 0.45682798
v 0.85999997 0.28112892 0.04385286
v 0.89199997 0.28112892 0.04385286
v 0.85999997 -0.30866073 0.45682798
v 0.85999997 0.30866071 0.08317201
v 0.85999997 0.28112892 0.04385286
v 0.89199997 0.28112892 0.04385286
v 0.85999997 0.30866071 0.08317201
v 0.89199997 0.30866071 0.08317201
v 0.89199997 -0.28112891 0.49614718
v 0.85999997 -0.30866073 0.45682798
v 0.89199997 -0.30866073 0.45682798
v 0.85999997 0.30866067 0.93682772
v 0.89199997 -0.28112895 0.52385277
v 0.85999997 -0.28112895 0.52385277
v 0.89199997 0.30866067 0.93682772
v 0.89199997 -0.30866073 0.56317220
v 0.89199997 -0.28112895 0.52385277
v 0.89199997 0.28112894 0.97614715
v 0.85999997 -0.30866073 0.56317220
v 0.89199997 -0.30866073 0.56317220
v 0.85999997 -0.30866073 0.56317220
v 0.85999997 0.30866067 0.93682772
v 0.85999997 -0.28112895 0.52385277
v 0.89199997 -0.30866073 0.56317220
v 0.85999997 -0.28112895 0.52385277
v 0.89199997 -0.28112895 0.52385277
v 0.89199997 0.30866067 0.93682772
v 0.85999997 0.28112894 0.97614715
v 0.89199997 0.28112894 0.97614715
v 0.85999997 -0.28112892 1.42614711
v 0.89199997 0.30866067 1.01317199
v 0.85999997 0.30866067 1.01317199
v 0.89199997 0.30866067 1.01317199
v 0.89199997 -0.30866045 1.38682796
v 0.89199997 0.28112890 0.97385283
v 0.89199997 -0.30866045 1.38682796
v 0.85999997 0.28112890 0.97385283
v 0.89199997 0.28112890 0.97385283
v 0.85999997 -0.30866045 1.38682796
v 0.85999997 0.30866067 1.01317199
v 0.85999997 0.28112890 0.97385283
v 0.89199997 0.28112890 0.97385283
v 0.85999997 0.30866067 1.01317199
v 0.89199997 0.30866067 1.01317199
v 0.89199997 -0.28112892 1.42614711
v 0.85999997 -0.30866045 1.38682796
v 0.89199997 -0.30866045 1.38682796
v -0.03599824 -0.30000002 1.67399995
v -0.00399824 0.29999993 1.67399998
v -0.03599824 0.29999993 1.67399998
v -0.00399824 -0.30000002 1.67399995
v -0.00399824 0.29999993 1.62599998
v -0.00399824 0.29999993 1.67399998
v -0.00399824 -0.30000002 1.62599995
v -0.03599824 0.29999993 1.62599998
v -0.00399824 0.29999993 1.62599998
v -0.03599824 -0.30000002 1.62599995
v -0.03599824 0.29999993 1.67399998
v -0.03599824 0.29999993 1.62599998
v -0.00399824 0.29999993 1.62599998
v -0.03599824 0.29999993 1.67399998
v -0.00399824 0.29999993 1.67399998
v -0.00399824 -0.30000002 1.67399995
v -0.03599824 -0.30000002 1.62599995
v -0.00399824 -0.30000002 1.62599995
v -0.03599837 0.32099994 1.79999997
v -0.00399836 0.32100002 0.00000001
v -0.03599837 0.32100002 0.00000001
v -0.00399836 0.32099994 1.79999997
v -0.00399836 0.27300001 0.00000001
v -0.00399836 0.32100002 0.00000001
v -0.00399836 0.27300002 1.79999997
v -0.03599837 0.27300001 0.00000001
v -0.00399836 0.27300001 0.00000001
v -0.03599837 0.27300002 1.79999997
v -0.03599837 0.32100002 0.00000001
v -0.03599837 0.27300001 0.00000001
v -0.00399836 0.27300001 0.00000001
v -0.03599837 0.32100002 0.00000001
v -0.00399836 0.32100002 0.00000001
v -0.00399836 0.32099994 1.79999997
v -0.03599837 0.27300002 1.79999997
v -0.00399836 0.27300002 1.79999997
v -0.03599837 -0.27300000 1.79999995
v -0.00399836 -0.27300001 -0.00000001
v -0.03599837 -0.27300001 -0.00000001
v -0.00399836 -0.27300000 1.79999995
v -0.00399836 -0.32100002 -0.00000001
v -0.00399836 -0.27300001 -0.00000001
v -0.00399836 -0.32100009 1.79999995
v -0.03599837 -0.32100002 -0.00000001
v -0.00399836 -0.32100002 -0.00000001
v -0.03599837 -0.32100009 1.79999995
v -0.03599837 -0.27300001 -0.00000001
v -0.03599837 -0.32100002 -0.00000001
v -0.00399836 -0.32100002 -0.00000001
v -0.03599837 -0.27300001 -0.00000001
v -0.00399836 -0.27300001 -0.00000001
v -0.00399836 -0.27300000 1.79999995
v -0.03599837 -0.32100009 1.79999995
v -0.00399836 -0.32100009 1.79999995
v -0.03599837 -0.28112891 0.49614718
v -0.00399836 0.30866071 0.08317201
v -0.03599837 0.30866071 0.08317201
v -0.00399836 0.30866071 0.08317201
v -0.00399836 -0.30866073 0.45682798
v -0.00399836 0.28112892 0.04385286
v -0.00399836 -0.30866073 0.45682798
v -0.03599837 0.28112892 0.04385286
v -0.00399836 0.28112892 0.04385286
v -0.03599837 -0.30866073 0.45682798
v -0.03599837 0.30866071 0.08317201
v -0.03599837 0.28112892 0.04385286
v -0.00399836 0.28112892 0.04385286
v -0.03599837 0.30866071 0.08317201
v -0.00399836 0.30866071 0.08317201
v -0.00399836 -0.28112891 0.49614718
v -0.03599837 -0.30866073 0.45682798
v -0.00399836 -0.30866073 0.45682798
v -0.03599837 0.30866067 0.93682772
v -0.00399836 -0.28112895 0.52385277
v -0.03599837 -0.28112895 0.52385277
v -0.00399836 0.30866067 0.93682772
v -0.00399836 -0.30866073 0.56317220
v -0.00399836 -0.28112895 0.52385277
v -0.00399836 0.28112894 0.97614715
v -0.03599837 -0.30866073 0.56317220
v -0.00399836 -0.30866073 0.56317220
v -0.03599837 -0.30866073 0.56317220
v -0.03599837 0.30866067 0.93682772
v -0.03599837 -0.28112895 0.52385277
v -0.00399836 -0.30866073 0.56317220
v -0.03599837 -0.28112895 0.52385277
v -0.00399836 -0.28112895 0.52385277
v -0.00399836 0.30866067 0.93682772
v -0.03599837 0.28112894 0.97614715
v -0.00399836 0.28112894 0.97614715
v -0.03599837 -0.28112892 1.42614711
v -0.00399836 0.30866067 1.01317199
v -0.03599837 0.30866067 1.01317199
v -0.00399836 0.30866067 1.01317199
v -0.00399836 -0.30866045 1.38682796
v -0.00399836 0.28112890 0.97385283
v -0.00399836 -0.30866045 1.38682796
v -0.03599837 0.28112890 0.97385283
v -0.00399836 0.28112890 0.97385283
v -0.03599837 -0.30866045 1.38682796
v -0.03599837 0.30866067 1.01317199
v -0.03599837 0.28112890 0.97385283
v -0.00399836 0.28112890 0.97385283
v -0.03599837 0.30866067 1.01317199
v -0.00399836 0.30866067 1.01317199
v -0.00399836 -0.28112892 1.42614711
v -0.03599837 -0.30866045 1.38682796
v -0.00399836 -0.30866045 1.38682796
v -1.77400015 -0.30000002 1.67399995
v -1.77400015 -0.30000002 1.62599995
v -1.80600015 -0.30000002 1.62599995
v -1.80600015 -0.30000002 1.67399995
v -1.80600015 0.29999993 1.62599998
v -1.80600015 -0.30000002 1.67399995
v -1.77400015 0.32099994 1.79999997
v -1.77400015 0.27300002 1.79999997
v -1.80600015 0.27300002 1.79999997
v -1.80600015 0.32099994 1.79999997
v -1.80600015 0.27300001 0.00000001
v -1.80600015 0.32099994 1.79999997
v -1.77400015 -0.27300000 1.79999995
v -1.77400015 -0.32100009 1.79999995
v -1.80600015 -0.32100009 1.79999995
v -1.80600015 -0.27300000 1.79999995
v -1.80600015 -0.32100002 -0.00000001
v -1.80600015 -0.27300000 1.79999995
v -1.77400015 -0.28112891 0.49614718
v -1.77400015 -0.28112891 0.49614718
v -1.80600015 -0.30866073 0.45682798
v -1.80600015 -0.28112891 0.49614718
v -1.80600015 0.28112892 0.04385286
v -1.80600015 -0.28112891 0.49614718
v -1.77400015 0.30866067 0.93682772
v -1.77400015 0.28112894 0.97614715
v -1.80600015 0.28112894 0.97614715
v -1.80600015 0.28112894 0.97614715
v -1.80600015 -0.30866073 0.56317220
v -1.80600015 0.30866067 0.93682772
v -1.77400015 -0.28112892 1.42614711
v -1.77400015 -0.28112892 1.42614711
v -1.80600015 -0.30866045 1.38682796
v -1.80600015 -0.28112892 1.42614711
v -1.80600015 0.28112890 0.97385283
v -1.80600015 -0.28112892 1.42614711
v 1.80599977 -0.30000002 1.67399995
v 1.80599977 -0.30000002 1.62599995
v 1.77399977 -0.30000002 1.62599995
v 1.77399977 -0.30000002 1.67399995
v 1.77399977 0.29999993 1.62599998
v 1.77399977 -0.30000002 1.67399995
v 1.80599977 0.32099994 1.79999997
v 1.80599977 0.27300002 1.79999997
v 1.77399977 0.27300002 1.79999997
v 1.77399977 0.32099994 1.79999997
v 1.77399977 0.27300001 0.00000001
v 1.77399977 0.32099994 1.79999997
v 1.80599977 -0.27300000 1.79999995
v 1.80599977 -0.32100009 1.79999995
v 1.77399977 -0.32100009 1.79999995
v 1.77399977 -0.27300000 1.79999995
v 1.77399977 -0.32100002 -0.00000001
v 1.77399977 -0.27300000 1.79999995
v 1.80599977 -0.28112891 0.49614718
v 1.80599977 -0.28112891 0.49614718
v 1.77399977 -0.30866073 0.45682798
v 1.77399977 -0.28112891 0.49614718
v 1.77399977 0.28112892 0.04385286
v 1.77399977 -0.28112891 0.49614718
v 1.80599977 0.30866067 0.93682772
v 1.80599977 0.28112894 0.97614715
v 1.77399977 0.28112894 0.97614715
v 1.77399977 0.28112894 0.97614715
v 1.77399977 -0.30866073 0.56317220
v 1.77399977 0.30866067 0.93682772
v 1.80599977 -0.28112892 1.42614711
v 1.80599977 -0.28112892 1.42614711
v 1.77399977 -0.30866045 1.38682796
v 1.77399977 -0.28112892 1.42614711
v 1.77399977 0.28112890 0.97385283
v 1.77399977 -0.28112892 1.42614711
v -0.88000017 -0.30000002 1.67399995
v -0.88000017 -0.30000002 1.62599995
v -0.91200017 -0.30000002 1.62599995
v -0.91200017 -0.30000002 1.67399995
v -0.91200017 0.29999993 1.62599998
v -0.91200017 -0.30000002 1.67399995
v -0.88000035 0.32099994 1.79999997
v -0.88000035 0.27300002 1.79999997
v -0.91200035 0.27300002 1.79999997
v -0.91200035 0.32099994 1.79999997
v -0.91200035 0.27300001 0.00000001
v -0.91200035 0.32099994 1.79999997
v -0.88000035 -0.27300000 1.79999995
v -0.88000035 -0.32100009 1.79999995
v -0.91200035 -0.32100009 1.79999995
v -0.91200035 -0.27300000 1.79999995
v -0.91200035 -0.32100002 -0.00000001
v -0.91200035 -0.27300000 1.79999995
v -0.88000035 -0.28112891 0.49614718
v -0.88000035 -0.28112891 0.49614718
v -0.91200035 -0.30866073 0.45682798
v -0.91200035 -0.28112891 0.49614718
v -0.91200035 0.28112892 0.04385286
v -0.91200035 -0.28112891 0.49614718
v -0.88000035 0.30866067 0.93682772
v -0.88000035 0.28112894 0.97614715
v -0.91200035 0.28112894 0.97614715
v -0.91200035 0.28112894 0.97614715
v -0.91200035 -0.30866073 0.56317220
v -0.91200035 0.30866067 0.93682772
v -0.88000035 -0.28112892 1.42614711
v -0.88000035 -0.28112892 1.42614711
v -0.91200035 -0.30866045 1.38682796
v -0.91200035 -0.28112892 1.42614711
v -0.91200035 0.28112890 0.97385283
v -0.91200035 -0.28112892 1.42614711
v 0.89199997 -0.30000002 1.67399995
v 0.89199997 -0.30000002 1.62599995
v 0.85999997 -0.30000002 1.62599995
v 0.85999997 -0.30000002 1.67399995
v 0.85999997 0.29999993 1.62599998
v 0.85999997 -0.30000002 1.67399995
v 0.89199997 0.32099994 1.79999997
v 0.89199997 0.27300002 1.79999997
v 0.85999997 0.27300002 1.79999997
v 0.85999997 0.32099994 1.79999997
v 0.85999997 0.27300001 0.00000001
v 0.85999997 0.32099994 1.79999997
v 0.89199997 -0.27300000 1.79999995
v 0.89199997 -0.32100009 1.79999995
v 0.85999997 -0.32100009 1.79999995
v 0.85999997 -0.27300000 1.79999995
v 0.85999997 -0.32100002 -0.00000001
v 0.85999997 -0.27300000 1.79999995
v 0.89199997 -0.28112891 0.49614718
v 0.89199997 -0.28112891 0.49614718
v 0.85999997 -0.30866073 0.45682798
v 0.85999997 -0.28112891 0.49614718
v 0.85999997 0.28112892 0.04385286
v 0.85999997 -0.28112891 0.49614718
v 0.89199997 0.30866067 0.93682772
v 0.89199997 0.28112894 0.97614715
v 0.85999997 0.28112894 0.97614715
v 0.85999997 0.28112894 0.97614715
v 0.85999997 -0.30866073 0.56317220
v 0.85999997 0.30866067 0.93682772
v 0.89199997 -0.28112892 1.42614711
v 0.89199997 -0.28112892 1.42614711
v 0.85999997 -0.30866045 1.38682796
v 0.85999997 -0.28112892 1.42614711
v 0.85999997 0.28112890 0.97385283
v 0.85999997 -0.28112892 1.42614711
v -0.00399824 -0.30000002 1.67399995
v -0.00399824 -0.30000002 1.62599995
v -0.03599824 -0.30000002 1.62599995
v -0.03599824 -0.30000002 1.67399995
v -0.03599824 0.29999993 1.62599998
v -0.03599824 -0.30000002 1.67399995
v -0.00399836 0.32099994 1.79999997
v -0.00399836 0.27300002 1.79999997
v -0.03599837 0.27300002 1.79999997
v -0.03599837 0.32099994 1.79999997
v -0.03599837 0.27300001 0.00000001
v -0.03599837 0.32099994 1.79999997
v -0.00399836 -0.27300000 1.79999995
v -0.00399836 -0.32100009 1.79999995
v -0.03599837 -0.32100009 1.79999995
v -0.03599837 -0.27300000 1.79999995
v -0.03599837 -0.32100002 -0.00000001
v -0.03599837 -0.27300000 1.79999995
v -0.00399836 -0.28112891 0.49614718
v -0.00399836 -0.28112891 0.49614718
v -0.03599837 -0.30866073 0.45682798
v -0.03599837 -0.28112891 0.49614718
v -0.03599837 0.28112892 0.04385286
v -0.03599837 -0.28112891 0.49614718
v -0.00399836 0.30866067 0.93682772
v -0.00399836 0.28112894 0.97614715
v -0.03599837 0.28112894 0.97614715
v -0.03599837 0.28112894 0.97614715
v -0.03599837 -0.30866073 0.56317220
v -0.03599837 0.30866067 0.93682772
v -0.00399836 -0.28112892 1.42614711
v -0.00399836 -0.28112892 1.42614711
v -0.03599837 -0.30866045 1.38682796
v -0.03599837 -0.28112892 1.42614711
v -0.03599837 0.28112890 0.97385283
v -0.03599837 -0.28112892 1.42614711
vt 0.62500000 0.00000000
vt 0.37500000 0.25000000
vt 0.37500000 0.00000000
vt 0.62500000 0.25000000
vt 0.37500000 0.50000000
vt 0.37500000 0.25000000
vt 0.62500000 0.50000000
vt 0.37500000 0.75000000
vt 0.37500000 0.50000000
vt 0.62500000 0.75000000
vt 0.37500000 1.00000000
vt 0.37500000 0.75000000
vt 0.37500000 0.50000000
vt 0.12500000 0.75000000
vt 0.12500000 0.50000000
vt 0.87500000 0.50000000
vt 0.62500000 0.75000000
vt 0.62500000 0.50000000
vt 0.62500000 0.00000000
vt 0.37500000 0.25000000
vt 0.37500000 0.00000000
vt 0.62500000 0.25000000
vt 0.37500000 0.50000000
vt 0.37500000 0.25000000
vt 0.62500000 0.50000000
vt 0.37500000 0.75000000
vt 0.37500000 0.50000000
vt 0.62500000 0.75000000
vt 0.37500000 1.00000000
vt 0.37500000 0.75000000
vt 0.37500000 0.50000000
vt 0.12500000 0.75000000
vt 0.12500000 0.50000000
vt 0.87500000 0.50000000
vt 0.62500000 0.75000000
vt 0.62500000 0.50000000
vt 0.62500000 0.00000000
vt 0.37500000 0.25000000
vt 0.37500000 0.00000000
vt 0.62500000 0.25000000
vt 0.37500000 0.50000000
vt 0.37500000 0.25000000
vt 0.62500000 0.50000000
vt 0.37500000 0.75000000
vt 0.37500000 0.50000000
vt 0.62500000 0.75000000
vt 0.37500000 1.00000000
vt 0.37500000 0.75000000
vt 0.37500000 0.50000000
vt 0.12500000 0.75000000
vt 0.12500000 0.50000000
vt 0.87500000 0.50000000
vt 0.62500000 0.75000000
vt 0.62500000 0.50000000
vt 0.62500000 0.00000000
vt 0.37500000 0.25000000
vt 0.37500000 0.00000000
vt 0.37500000 0.25000000
vt 0.62500000 0.50000000
vt 0.37500000 0.50000000
vt 0.62500000 0.50000000
vt 0.37500000 0.75000000
vt 0.37500000 0.50000000
vt 0.62500000 0.75000000
vt 0.37500000 1.00000000
vt 0.37500000 0.75000000
vt 0.37500000 0.50000000
vt 0.12500000 0.75000000
vt 0.12500000 0.50000000
vt 0.87500000 0.50000000
vt 0.62500000 0.75000000
vt 0.62500000 0.50000000
vt 0.62500000 0.00000000
vt 0.37500000 0.25000000
vt 0.37500000 0.00000000
vt 0.62500000 0.25000000
vt 0.37500000 0.50000000
vt 0.37500000 0.25000000
vt 0.62500000 0.50000000
vt 0.37500000 0.75000000
vt 0.37500000 0.50000000
vt 0.37500000 0.75000000
vt 0.62500000 1.00000000
vt 0.37500000 1.00000000
vt 0.37500000 0.50000000
vt 0.12500000 0.75000000
vt 0.12500000 0.50000000
vt 0.87500000 0.50000000
vt 0.62500000 0.75000000
vt 0.62500000 0.50000000
vt 0.62500000 0.00000000
vt 0.37500000 0.25000000
vt 0.37500000 0.00000000
vt 0.37500000 0.25000000
vt 0.62500000 0.50000000
vt 0.37500000 0.50000000
vt 0.62500000 0.50000000
vt 0.37500000 0.75000000
vt 0.37500000 0.50000000
vt 0.62500000 0.75000000
vt 0.37500000 1.00000000
vt 0.37500000 0.75000000
vt 0.37500000 0.50000000
vt 0.12500000 0.75000000
vt 0.12500000 0.50000000
vt 0.87500000 0.50000000
vt 0.62500000 0.75000000
vt 0.62500000 0.50000000
vt 0.62500000 0.00000000
vt 0.37500000 0.25000000
vt 0.37500000 0.00000000
vt 0.62500000 0.25000000
vt 0.37500000 0.50000000
vt 0.37500000 0.25000000
vt 0.62500000 0.50000000
vt 0.37500000 0.75000000
vt 0.37500000 0.50000000
vt 0.62500000 0.75000000
vt 0.37500000 1.00000000
vt 0.37500000 0.75000000
vt 0.37500000 0.50000000
vt 0.12500000 0.75000000
vt 0.12500000 0.50000000
vt 0.87500000 0.50000000
vt 0.62500000 0.75000000
vt 0.62500000 0.50000000
vt 0.62500000 0.00000000
vt 0.37500000 0.25000000
vt 0.37500000 0.00000000
vt 0.62500000 0.25000000
vt 0.37500000 0.50000000
vt 0.37500000 0.25000000
vt 0.62500000 0.50000000
vt 0.37500000 0.75000000
vt 0.37500000 0.50000000
vt 0.62500000 0.75000000
vt 0.37500000 1.00000000
vt 0.37500000 0.75000000
vt 0.37500000 0.50000000
vt 0.12500000 0.75000000
vt 0.12500000 0.50000000
vt 0.87500000 0.50000000
vt 0.62500000 0.75000000
vt 0.62500000 0.50000000
vt 0.62500000 0.00000000
vt 0.37500000 0.25000000
vt 0.37500000 0.00000000
vt 0.62500000 0.25000000
vt 0.37500000 0.50000000
vt 0.37500000 0.25000000
vt 0.62500000 0.50000000
vt 0.37500000 0.75000000
vt 0.37500000 0.50000000
vt 0.62500000 0.75000000
vt 0.37500000 1.00000000
vt 0.37500000 0.75000000
vt 0.37500000 0.50000000
vt 0.12500000 0.75000000
vt 0.12500000 0.50000000
vt 0.87500000 0.50000000
vt 0.62500000 0.75000000
vt 0.62500000 0.50000000
vt 0.62500000 0.00000000
vt 0.37500000 0.25000000
vt 0.37500000 0.00000000
vt 0.37500000 0.25000000
vt 0.62500000 0.50000000
vt 0.37500000 0.50000000
vt 0.62500000 0.50000000
vt 0.37500000 0.75000000
vt 0.37500000 0.50000000
vt 0.62500000 0.75000000
vt 0.37500000 1.00000000
vt 0.37500000 0.75000000
vt 0.37500000 0.50000000
vt 0.12500000 0.75000000
vt 0.12500000 0.50000000
vt 0.87500000 0.50000000
vt 0.62500000 0.75000000
vt 0.62500000 0.50000000
vt 0.62500000 0.00000000
vt 0.37500000 0.25000000
vt 0.37500000 0.00000000
vt 0.62500000 0.25000000
vt 0.37500000 0.50000000
vt 0.37500000 0.25000000
vt 0.62500000 0.50000000
vt 0.37500000 0.75000000
vt 0.37500000 0.50000000
vt 0.37500000 0.75000000
vt 0.62500000 1.00000000
vt 0.37500000 1.00000000
vt 0.37500000 0.50000000
vt 0.12500000 0.75000000
vt 0.12500000 0.50000000
vt 0.87500000 0.50000000
vt 0.62500000 0.75000000
vt 0.62500000 0.50000000
vt 0.62500000 0.00000000
vt 0.37500000 0.25000000
vt 0.37500000 0.00000000
vt 0.37500000 0.25000000
vt 0.62500000 0.50000000
vt 0.37500000 0.50000000
vt 0.62500000 0.50000000
vt 0.37500000 0.75000000
vt 0.37500000 0.50000000
vt 0.62500000 0.75000000
vt 0.37500000 1.00000000
vt 0.37500000 0.75000000
vt 0.37500000 0.50000000
vt 0.12500000 0.75000000
vt 0.12500000 0.50000000
vt 0.87500000 0.50000000
vt 0.62500000 0.75000000
vt 0.62500000 0.50000000
vt 0.62500000 0.00000000
vt 0.37500000 0.25000000
vt 0.37500000 0.00000000
vt 0.62500000 0.25000000
vt 0.37500000 0.50000000
vt 0.37500000 0.25000000
vt 0.62500000 0.50000000
vt 0.37500000 0.75000000
vt 0.37500000 0.50000000
vt 0.62500000 0.75000000
vt 0.37500000 1.00000000
vt 0.37500000 0.75000000
vt 0.37500000 0.50000000
vt 0.12500000 0.75000000
vt 0.12500000 0.50000000
vt 0.87500000 0.50000000
vt 0.62500000 0.75000000
vt 0.62500000 0.50000000
vt 0.62500000 0.00000000
vt 0.37500000 0.25000000
vt 0.37500000 0.00000000
vt 0.62500000 0.25000000
vt 0.37500000 0.50000000
vt 0.37500000 0.25000000
vt 0.62500000 0.50000000
vt 0.37500000 0.75000000
vt 0.37500000 0.50000000
vt 0.62500000 0.75000000
vt 0.37500000 1.00000000
vt 0.37500000 0.75000000
vt 0.37500000 0.50000000
vt 0.12500000 0.75000000
vt 0.12500000 0.50000000
vt 0.87500000 0.50000000
vt 0.62500000 0.75000000
vt 0.62500000 0.50000000
vt 0.62500000 0.00000000
vt 0.37500000 0.25000000
vt 0.37500000 0.00000000
vt 0.62500000 0.25000000
vt 0.37500000 0.50000000
vt 0.37500000 0.25000000
vt 0.62500000 0.50000000
vt 0.37500000 0.75000000
vt 0.37500000 0.50000000
vt 0.62500000 0.75000000
vt 0.37500000 1.00000000
vt 0.37500000 0.75000000
vt 0.37500000 0.50000000
vt 0.12500000 0.75000000
vt 0.12500000 0.50000000
vt 0.87500000 0.50000000
vt 0.62500000 0.75000000
vt 0.62500000 0.50000000
vt 0.62500000 0.00000000
vt 0.37500000 0.25000000
vt 0.37500000 0.00000000
vt 0.37500000 0.25000000
vt 0.62500000 0.50000000
vt 0.37500000 0.50000000
vt 0.62500000 0.50000000
vt 0.37500000 0.75000000
vt 0.37500000 0.50000000
vt 0.62500000 0.75000000
vt 0.37500000 1.00000000
vt 0.37500000 0.75000000
vt 0.37500000 0.50000000
vt 0.12500000 0.75000000
vt 0.12500000 0.50000000
vt 0.87500000 0.50000000
vt 0.62500000 0.75000000
vt 0.62500000 0.50000000
vt 0.62500000 0.00000000
vt 0.37500000 0.25000000
vt 0.37500000 0.00000000
vt 0.62500000 0.25000000
vt 0.37500000 0.50000000
vt 0.37500000 0.25000000
vt 0.62500000 0.50000000
vt 0.37500000 0.75000000
vt 0.37500000 0.50000000
vt 0.37500000 0.75000000
vt 0.62500000 1.00000000
vt 0.37500000 1.00000000
vt 0.37500000 0.50000000
vt 0.12500000 0.75000000
vt 0.12500000 0.50000000
vt 0.87500000 0.50000000
vt 0.62500000 0.75000000
vt 0.62500000 0.50000000
vt 0.62500000 0.00000000
vt 0.37500000 0.25000000
vt 0.37500000 0.00000000
vt 0.37500000 0.25000000
vt 0.62500000 0.50000000
vt 0.37500000 0.50000000
vt 0.62500000 0.50000000
vt 0.37500000 0.75000000
vt 0.37500000 0.50000000
vt 0.62500000 0.75000000
vt 0.37500000 1.00000000
vt 0.37500000 0.75000000
vt 0.37500000 0.50000000
vt 0.12500000 0.75000000
vt 0.12500000 0.50000000
vt 0.87500000 0.50000000
vt 0.62500000 0.75000000
vt 0.62500000 0.50000000
vt 0.62500000 0.00000000
vt 0.37500000 0.25000000
vt 0.37500000 0.00000000
vt 0.62500000 0.25000000
vt 0.37500000 0.50000000
vt 0.37500000 0.25000000
vt 0.62500000 0.50000000
vt 0.37500000 0.75000000
vt 0.37500000 0.50000000
vt 0.62500000 0.75000000
vt 0.37500000 1.00000000
vt 0.37500000 0.75000000
vt 0.37500000 0.50000000
vt 0.12500000 0.75000000
vt 0.12500000 0.50000000
vt 0.87500000 0.50000000
vt 0.62500000 0.75000000
vt 0.62500000 0.50000000
vt 0.62500000 0.00000000
vt 0.37500000 0.25000000
vt 0.37500000 0.00000000
vt 0.62500000 0.25000000
vt 0.37500000 0.50000000
vt 0.37500000 0.25000000
vt 0.62500000 0.50000000
vt 0.37500000 0.75000000
vt 0.37500000 0.50000000
vt 0.62500000 0.75000000
vt 0.37500000 1.00000000
vt 0.37500000 0.75000000
vt 0.37500000 0.50000000
vt 0.12500000 0.75000000
vt 0.12500000 0.50000000
vt 0.87500000 0.50000000
vt 0.62500000 0.75000000
vt 0.62500000 0.50000000
vt 0.62500000 0.00000000
vt 0.37500000 0.25000000
vt 0.37500000 0.00000000
vt 0.62500000 0.25000000
vt 0.37500000 0.50000000
vt 0.37500000 0.25000000
vt 0.62500000 0.50000000
vt 0.37500000 0.75000000
vt 0.37500000 0.50000000
vt 0.62500000 0.75000000
vt 0.37500000 1.00000000
vt 0.37500000 0.75000000
vt 0.37500000 0.50000000
vt 0.12500000 0.75000000
vt 0.12500000 0.50000000
vt 0.87500000 0.50000000
vt 0.62500000 0.75000000
vt 0.62500000 0.50000000
vt 0.62500000 0.00000000
vt 0.37500000 0.25000000
vt 0.37500000 0.00000000
vt 0.37500000 0.25000000
vt 0.62500000 0.50000000
vt 0.37500000 0.50000000
vt 0.62500000 0.50000000
vt 0.37500000 0.75000000
vt 0.37500000 0.50000000
vt 0.62500000 0.75000000
vt 0.37500000 1.00000000
vt 0.37500000 0.75000000
vt 0.37500000 0.50000000
vt 0.12500000 0.75000000
vt 0.12500000 0.50000000
vt 0.87500000 0.50000000
vt 0.62500000 0.75000000
vt 0.62500000 0.50000000
vt 0.62500000 0.00000000
vt 0.37500000 0.25000000
vt 0.37500000 0.00000000
vt 0.62500000 0.25000000
vt 0.37500000 0.50000000
vt 0.37500000 0.25000000
vt 0.62500000 0.50000000
vt 0.37500000 0.75000000
vt 0.37500000 0.50000000
vt 0.37500000 0.75000000
vt 0.62500000 1.00000000
vt 0.37500000 1.00000000
vt 0.37500000 0.50000000
vt 0.12500000 0.75000000
vt 0.12500000 0.50000000
vt 0.87500000 0.50000000
vt 0.62500000 0.75000000
vt 0.62500000 0.50000000
vt 0.62500000 0.00000000
vt 0.37500000 0.25000000
vt 0.37500000 0.00000000
vt 0.37500000 0.25000000
vt 0.62500000 0.50000000
vt 0.37500000 0.50000000
vt 0.62500000 0.50000000
vt 0.37500000 0.75000000
vt 0.37500000 0.50000000
vt 0.62500000 0.75000000
vt 0.37500000 1.00000000
vt 0.37500000 0.75000000
vt 0.37500000 0.50000000
vt 0.12500000 0.75000000
vt 0.12500000 0.50000000
vt 0.87500000 0.50000000
vt 0.62500000 0.75000000
vt 0.62500000 0.50000000
vt 0.62500000 0.00000000
vt 0.37500000 0.25000000
vt 0.37500000 0.00000000
vt 0.62500000 0.25000000
vt 0.37500000 0.50000000
vt 0.37500000 0.25000000
vt 0.62500000 0.50000000
vt 0.37500000 0.75000000
vt 0.37500000 0.50000000
vt 0.62500000 0.75000000
vt 0.37500000 1.00000000
vt 0.37500000 0.75000000
vt 0.37500000 0.50000000
vt 0.12500000 0.75000000
vt 0.12500000 0.50000000
vt 0.87500000 0.50000000
vt 0.62500000 0.75000000
vt 0.62500000 0.50000000
vt 0.62500000 0.00000000
vt 0.37500000 0.25000000
vt 0.37500000 0.00000000
vt 0.62500000 0.25000000
vt 0.37500000 0.50000000
vt 0.37500000 0.25000000
vt 0.62500000 0.50000000
vt 0.37500000 0.75000000
vt 0.37500000 0.50000000
vt 0.62500000 0.75000000
vt 0.37500000 1.00000000
vt 0.37500000 0.75000000
vt 0.37500000 0.50000000
vt 0.12500000 0.75000000
vt 0.12500000 0.50000000
vt 0.87500000 0.50000000
vt 0.62500000 0.75000000
vt 0.62500000 0.50000000
vt 0.62500000 0.00000000
vt 0.37500000 0.25000000
vt 0.37500000 0.00000000
vt 0.62500000 0.25000000
vt 0.37500000 0.50000000
vt 0.37500000 0.25000000
vt 0.62500000 0.50000000
vt 0.37500000 0.75000000
vt 0.37500000 0.50000000
vt 0.62500000 0.75000000
vt 0.37500000 1.00000000
vt 0.37500000 0.75000000
vt 0.37500000 0.50000000
vt 0.12500000 0.75000000
vt 0.12500000 0.50000000
vt 0.87500000 0.50000000
vt 0.62500000 0.75000000
vt 0.62500000 0.50000000
vt 0.62500000 0.00000000
vt 0.37500000 0.25000000
vt 0.37500000 0.00000000
vt 0.37500000 0.25000000
vt 0.62500000 0.50000000
vt 0.37500000 0.50000000
vt 0.62500000 0.50000000
vt 0.37500000 0.75000000
vt 0.37500000 0.50000000
vt 0.62500000 0.75000000
vt 0.37500000 1.00000000
vt 0.37500000 0.75000000
vt 0.37500000 0.50000000
vt 0.12500000 0.75000000
vt 0.12500000 0.50000000
vt 0.87500000 0.50000000
vt 0.62500000 0.75000000
vt 0.62500000 0.50000000
vt 0.62500000 0.00000000
vt 0.37500000 0.25000000
vt 0.37500000 0.00000000
vt 0.62500000 0.25000000
vt 0.37500000 0.50000000
vt 0.37500000 0.25000000
vt 0.62500000 0.50000000
vt 0.37500000 0.75000000
vt 0.37500000 0.50000000
vt 0.37500000 0.75000000
vt 0.62500000 1.00000000
vt 0.37500000 1.00000000
vt 0.37500000 0.50000000
vt 0.12500000 0.75000000
vt 0.12500000 0.50000000
vt 0.87500000 0.50000000
vt 0.62500000 0.75000000
vt 0.62500000 0.50000000
vt 0.62500000 0.00000000
vt 0.37500000 0.25000000
vt 0.37500000 0.00000000
vt 0.37500000 0.25000000
vt 0.62500000 0.50000000
vt 0.37500000 0.50000000
vt 0.62500000 0.50000000
vt 0.37500000 0.75000000
vt 0.37500000 0.50000000
vt 0.62500000 0.75000000
vt 0.37500000 1.00000000
vt 0.37500000 0.75000000
vt 0.37500000 0.50000000
vt 0.12500000 0.75000000
vt 0.12500000 0.50000000
vt 0.87500000 0.50000000
vt 0.62500000 0.75000000
vt 0.62500000 0.50000000
vt 0.62500000 0.25000000
vt 0.62500000 0.50000000
vt 0.62500000 0.75000000
vt 0.62500000 1.00000000
vt 0.37500000 0.75000000
vt 0.87500000 0.75000000
vt 0.62500000 0.25000000
vt 0.62500000 0.50000000
vt 0.62500000 0.75000000
vt 0.62500000 1.00000000
vt 0.37500000 0.75000000
vt 0.87500000 0.75000000
vt 0.62500000 0.25000000
vt 0.62500000 0.50000000
vt 0.62500000 0.75000000
vt 0.62500000 1.00000000
vt 0.37500000 0.75000000
vt 0.87500000 0.75000000
vt 0.62500000 0.25000000
vt 0.62500000 0.25000000
vt 0.62500000 0.75000000
vt 0.62500000 1.00000000
vt 0.37500000 0.75000000
vt 0.87500000 0.75000000
vt 0.62500000 0.25000000
vt 0.62500000 0.50000000
vt 0.62500000 0.75000000
vt 0.62500000 0.75000000
vt 0.37500000 0.75000000
vt 0.87500000 0.75000000
vt 0.62500000 0.25000000
vt 0.62500000 0.25000000
vt 0.62500000 0.75000000
vt 0.62500000 1.00000000
vt 0.37500000 0.75000000
vt 0.87500000 0.75000000
vt 0.62500000 0.25000000
vt 0.62500000 0.50000000
vt 0.62500000 0.75000000
vt 0.62500000 1.00000000
vt 0.37500000 0.75000000
vt 0.87500000 0.75000000
vt 0.62500000 0.25000000
vt 0.62500000 0.50000000
vt 0.62500000 0.75000000
vt 0.62500000 1.00000000
vt 0.37500000 0.75000000
vt 0.87500000 0.75000000
vt 0.62500000 0.25000000
vt 0.62500000 0.50000000
vt 0.62500000 0.75000000
vt 0.62500000 1.00000000
vt 0.37500000 0.75000000
vt 0.87500000 0.75000000
vt 0.62500000 0.25000000
vt 0.62500000 0.25000000
vt 0.62500000 0.75000000
vt 0.62500000 1.00000000
vt 0.37500000 0.75000000
vt 0.87500000 0.75000000
vt 0.62500000 0.25000000
vt 0.62500000 0.50000000
vt 0.62500000 0.75000000
vt 0.62500000 0.75000000
vt 0.37500000 0.75000000
vt 0.87500000 0.75000000
vt 0.62500000 0.25000000
vt 0.62500000 0.25000000
vt 0.62500000 0.75000000
vt 0.62500000 1.00000000
vt 0.37500000 0.75000000
vt 0.87500000 0.75000000
vt 0.62500000 0.25000000
vt 0.62500000 0.50000000
vt 0.62500000 0.75000000
vt 0.62500000 1.00000000
vt 0.37500000 0.75000000
vt 0.87500000 0.75000000
vt 0.62500000 0.25000000
vt 0.62500000 0.50000000
vt 0.62500000 0.75000000
vt 0.62500000 1.00000000
vt 0.37500000 0.75000000
vt 0.87500000 0.75000000
vt 0.62500000 0.25000000
vt 0.62500000 0.50000000
vt 0.62500000 0.75000000
vt 0.62500000 1.00000000
vt 0.37500000 0.75000000
vt 0.87500000 0.75000000
vt 0.62500000 0.25000000
vt 0.62500000 0.25000000
vt 0.62500000 0.75000000
vt 0.62500000 1.00000000
vt 0.37500000 0.75000000
vt 0.87500000 0.75000000
vt 0.62500000 0.25000000
vt 0.62500000 0.50000000
vt 0.62500000 0.75000000
vt 0.62500000 0.75000000
vt 0.37500000 0.75000000
vt 0.87500000 0.75000000
vt 0.62500000 0.25000000
vt 0.62500000 0.25000000
vt 0.62500000 0.75000000
vt 0.62500000 1.00000000
vt 0.37500000 0.75000000
vt 0.87500000 0.75000000
vt 0.62500000 0.25000000
vt 0.62500000 0.50000000
vt 0.62500000 0.75000000
vt 0.62500000 1.00000000
vt 0.37500000 0.75000000
vt 0.87500000 0.75000000
vt 0.62500000 0.25000000
vt 0.62500000 0.50000000
vt 0.62500000 0.75000000
vt 0.62500000 1.00000000
vt 0.37500000 0.75000000
vt 0.87500000 0.75000000
vt 0.62500000 0.25000000
vt 0.62500000 0.50000000
vt 0.62500000 0.75000000
vt 0.62500000 1.00000000
vt 0.37500000 0.75000000
vt 0.87500000 0.75000000
vt 0.62500000 0.25000000
vt 0.62500000 0.25000000
vt 0.62500000 0.75000000
vt 0.62500000 1.00000000
vt 0.37500000 0.75000000
vt 0.87500000 0.75000000
vt 0.62500000 0.25000000
vt 0.62500000 0.50000000
vt 0.62500000 0.75000000
vt 0.62500000 0.75000000
vt 0.37500000 0.75000000
vt 0.87500000 0.75000000
vt 0.62500000 0.25000000
vt 0.62500000 0.25000000
vt 0.62500000 0.75000000
vt 0.62500000 1.00000000
vt 0.37500000 0.75000000
vt 0.87500000 0.75000000
vt 0.62500000 0.25000000
vt 0.62500000 0.50000000
vt 0.62500000 0.75000000
vt 0.62500000 1.00000000
vt 0.37500000 0.75000000
vt 0.87500000 0.75000000
vt 0.62500000 0.25000000
vt 0.62500000 0.50000000
vt 0.62500000 0.75000000
vt 0.62500000 1.00000000
vt 0.37500000 0.75000000
vt 0.87500000 0.75000000
vt 0.62500000 0.25000000
vt 0.62500000 0.50000000
vt 0.62500000 0.75000000
vt 0.62500000 1.00000000
vt 0.37500000 0.75000000
vt 0.87500000 0.75000000
vt 0.62500000 0.25000000
vt 0.62500000 0.25000000
vt 0.62500000 0.75000000
vt 0.62500000 1.00000000
vt 0.37500000 0.75000000
vt 0.87500000 0.75000000
vt 0.62500000 0.25000000
vt 0.62500000 0.50000000
vt 0.62500000 0.75000000
vt 0.62500000 0.75000000
vt 0.37500000 0.75000000
vt 0.87500000 0.75000000
vt 0.62500000 0.25000000
vt 0.62500000 0.25000000
vt 0.62500000 0.75000000
vt 0.62500000 1.00000000
vt 0.37500000 0.75000000
vt 0.87500000 0.75000000
f 1/1 2/2 3/3
f 4/4 5/5 6/6
f 7/7 8/8 9/9
f 10/10 11/11 12/12
f 13/13 14/14 15/15
f 16/16 17/17 18/18
f 19/19 20/20 21/21
f 22/22 23/23 24/24
f 25/25 26/26 27/27
f 28/28 29/29 30/30
f 31/31 32/32 33/33
f 34/34 35/35 36/36
f 37/37 38/38 39/39
f 40/40 41/41 42/42
f 43/43 44/44 45/45
f 46/46 47/47 48/48
f 49/49 50/50 51/51
f 52/52 53/53 54/54
f 55/55 56/56 57/57
f 58/58 59/59 60/60
f 61/61 62/62 63/63
f 64/64 65/65 66/66
f 67/67 68/68 69/69
f 70/70 71/71 72/72
f 73/73 74/74 75/75
f 76/76 77/77 78/78
f 79/79 80/80 81/81
f 82/82 83/83 84/84
f 85/85 86/86 87/87
f 88/88 89/89 90/90
f 91/91 92/92 93/93
f 94/94 95/95 96/96
f 97/97 98/98 99/99
f 100/100 101/101 102/102
f 103/103 104/104 105/105
f 106/106 107/107 108/108
f 109/109 110/110 111/111
f 112/112 113/113 114/114
f 115/115 116/116 117/117
f 118/118 119/119 120/120
f 121/121 122/122 123/123
f 124/124 125/125 126/126
f 127/127 128/128 129/129
f 130/130 131/131 132/132
f 133/133 134/134 135/135
f 136/136 137/137 138/138
f 139/139 140/140 141/141
f 142/142 143/143 144/144
f 145/145 146/146 147/147
f 148/148 149/149 150/150
f 151/151 152/152 153/153
f 154/154 155/155 156/156
f 157/157 158/158 159/159
f 160/160 161/161 162/162
f 163/163 164/164 165/165
f 166/166 167/167 168/168
f 169/169 170/170 171/171
f 172/172 173/173 174/174
f 175/175 176/176 177/177
f 178/178 179/179 180/180
f 181/181 182/182 183/183
f 184/184 185/185 186/186
f 187/187 188/188 189/189
f 190/190 191/191 192/192
f 193/193 194/194 195/195
f 196/196 197/197 198/198
f 199/199 200/200 201/201
f 202/202 203/203 204/204
f 205/205 206/206 207/207
f 208/208 209/209 210/210
f 211/211 212/212 213/213
f 214/214 215/215 216/216
f 217/217 218/218 219/219
f 220/220 221/221 222/222
f 223/223 224/224 225/225
f 226/226 227/227 228/228
f 229/229 230/230 231/231
f 232/232 233/233 234/234
f 235/235 236/236 237/237
f 238/238 239/239 240/240
f 241/241 242/242 243/243
f 244/244 245/245 246/246
f 247/247 248/248 249/249
f 250/250 251/251 252/252
f 253/253 254/254 255/255
f 256/256 257/257 258/258
f 259/259 260/260 261/261
f 262/262 263/263 264/264
f 265/265 266/266 267/267
f 268/268 269/269 270/270
f 271/271 272/272 273/273
f 274/274 275/275 276/276
f 277/277 278/278 279/279
f 280/280 281/281 282/282
f 283/283 284/284 285/285
f 286/286 287/287 288/288
f 289/289 290/290 291/291
f 292/292 293/293 294/294
f 295/295 296/296 297/297
f 298/298 299/299 300/300
f 301/301 302/302 303/303
f 304/304 305/305 306/306
f 307/307 308/308 309/309
f 310/310 311/311 312/312
f 313/313 314/314 315/315
f 316/316 317/317 318/318
f 319/319 320/320 321/321
f 322/322 323/323 324/324
f 325/325 326/326 327/327
f 328/328 329/329 330/330
f 331/331 332/332 333/333
f 334/334 335/335 336/336
f 337/337 338/338 339/339
f 340/340 341/341 342/342
f 343/343 344/344 345/345
f 346/346 347/347 348/348
f 349/349 350/350 351/351
f 352/352 353/353 354/354
f 355/355 356/356 357/357
f 358/358 359/359 360/360
f 361/361 362/362 363/363
f 364/364 365/365 366/366
f 367/367 368/368 369/369
f 370/370 371/371 372/372
f 373/373 374/374 375/375
f 376/376 377/377 378/378
f 379/379 380/380 381/381
f 382/382 383/383 384/384
f 385/385 386/386 387/387
f 388/388 389/389 390/390
f 391/391 392/392 393/393
f 394/394 395/395 396/396
f 397/397 398/398 399/399
f 400/400 401/401 402/402
f 403/403 404/404 405/405
f 406/406 407/407 408/408
f 409/409 410/410 411/411
f 412/412 413/413 414/414
f 415/415 416/416 417/417
f 418/418 419/419 420/420
f 421/421 422/422 423/423
f 424/424 425/425 426/426
f 427/427 428/428 429/429
f 430/430 431/431 432/432
f 433/433 434/434 435/435
f 436/436 437/437 438/438
f 439/439 440/440 441/441
f 442/442 443/443 444/444
f 445/445 446/446 447/447
f 448/448 449/449 450/450
f 451/451 452/452 453/453
f 454/454 455/455 456/456
f 457/457 458/458 459/459
f 460/460 461/461 462/462
f 463/463 464/464 465/465
f 466/466 467/467 468/468
f 469/469 470/470 471/471
f 472/472 473/473 474/474
f 475/475 476/476 477/477
f 478/478 479/479 480/480
f 481/481 482/482 483/483
f 484/484 485/485 486/486
f 487/487 488/488 489/489
f 490/490 491/491 492/492
f 493/493 494/494 495/495
f 496/496 497/497 498/498
f 499/499 500/500 501/501
f 502/502 503/503 504/504
f 505/505 506/506 507/507
f 508/508 509/509 510/510
f 511/511 512/512 513/513
f 514/514 515/515 516/516
f 517/517 518/518 519/519
f 520/520 521/521 522/522
f 523/523 524/524 525/525
f 526/526 527/527 528/528
f 529/529 530/530 531/531
f 532/532 533/533 534/534
f 535/535 536/536 537/537
f 538/538 539/539 540/540
f 1/1 541/541 2/2
f 4/4 542/542 5/5
f 7/7 543/543 8/8
f 10/10 544/544 11/11
f 13/13 545/545 14/14
f 16/16 546/546 17/17
f 19/19 547/547 20/20
f 22/22 548/548 23/23
f 25/25 549/549 26/26
f 28/28 550/550 29/29
f 31/31 551/551 32/32
f 34/34 552/552 35/35
f 37/37 553/553 38/38
f 40/40 554/554 41/41
f 43/43 555/555 44/44
f 46/46 556/556 47/47
f 49/49 557/557 50/50
f 52/52 558/558 53/53
f 55/55 559/559 56/56
f 58/58 560/560 59/59
f 61/61 561/561 62/62
f 64/64 562/562 65/65
f 67/67 563/563 68/68
f 70/70 564/564 71/71
f 73/73 565/565 74/74
f 76/76 566/566 77/77
f 79/79 567/567 80/80
f 82/82 568/568 83/83
f 85/85 569/569 86/86
f 88/88 570/570 89/89
f 91/91 571/571 92/92
f 94/94 572/572 95/95
f 97/97 573/573 98/98
f 100/100 574/574 101/101
f 103/103 575/575 104/104
f 106/106 576/576 107/107
f 109/109 577/577 110/110
f 112/112 578/578 113/113
f 115/115 579/579 116/116
f 118/118 580/580 119/119
f 121/121 581/581 122/122
f 124/124 582/582 125/125
f 127/127 583/583 128/128
f 130/130 584/584 131/131
f 133/133 585/585 134/134
f 136/136 586/586 137/137
f 139/139 587/587 140/140
f 142/142 588/588 143/143
f 145/145 589/589 146/146
f 148/148 590/590 149/149
f 151/151 591/591 152/152
f 154/154 592/592 155/155
f 157/157 593/593 158/158
f 160/160 594/594 161/161
f 163/163 595/595 164/164
f 166/166 596/596 167/167
f 169/169 597/597 170/170
f 172/172 598/598 173/173
f 175/175 599/599 176/176
f 178/178 600/600 179/179
f 181/181 601/601 182/182
f 184/184 602/602 185/185
f 187/187 603/603 188/188
f 190/190 604/604 191/191
f 193/193 605/605 194/194
f 196/196 606/606 197/197
f 199/199 607/607 200/200
f 202/202 608/608 203/203
f 205/205 609/609 206/206
f 208/208 610/610 209/209
f 211/211 611/611 212/212
f 214/214 612/612 215/215
f 217/217 613/613 218/218
f 220/220 614/614 221/221
f 223/223 615/615 224/224
f 226/226 616/616 227/227
f 229/229 617/617 230/230
f 232/232 618/618 233/233
f 235/235 619/619 236/236
f 238/238 620/620 239/239
f 241/241 621/621 242/242
f 244/244 622/622 245/245
f 247/247 623/623 248/248
f 250/250 624/624 251/251
f 253/253 625/625 254/254
f 256/256 626/626 257/257
f 259/259 627/627 260/260
f 262/262 628/628 263/263
f 265/265 629/629 266/266
f 268/268 630/630 269/269
f 271/271 631/631 272/272
f 274/274 632/632 275/275
f 277/277 633/633 278/278
f 280/280 634/634 281/281
f 283/283 635/635 284/284
f 286/286 636/636 287/287
f 289/289 637/637 290/290
f 292/292 638/638 293/293
f 295/295 639/639 296/296
f 298/298 640/640 299/299
f 301/301 641/641 302/302
f 304/304 642/642 305/305
f 307/307 643/643 308/308
f 310/310 644/644 311/311
f 313/313 645/645 314/314
f 316/316 646/646 317/317
f 319/319 647/647 320/320
f 322/322 648/648 323/323
f 325/325 649/649 326/326
f 328/328 650/650 329/329
f 331/331 651/651 332/332
f 334/334 652/652 335/335
f 337/337 653/653 338/338
f 340/340 654/654 341/341
f 343/343 655/655 344/344
f 346/346 656/656 347/347
f 349/349 657/657 350/350
f 352/352 658/658 353/353
f 355/355 659/659 356/356
f 358/358 660/660 359/359
f 361/361 661/661 362/362
f 364/364 662/662 365/365
f 367/367 663/663 368/368
f 370/370 664/664 371/371
f 373/373 665/665 374/374
f 376/376 666/666 377/377
f 379/379 667/667 380/380
f 382/382 668/668 383/383
f 385/385 669/669 386/386
f 388/388 670/670 389/389
f 391/391 671/671 392/392
f 394/394 672/672 395/395
f 397/397 673/673 398/398
f 400/400 674/674 401/401
f 403/403 675/675 404/404
f 406/406 676/676 407/407
f 409/409 677/677 410/410
f 412/412 678/678 413/413
f 415/415 679/679 416/416
f 418/418 680/680 419/419
f 421/421 681/681 422/422
f 424/424 682/682 425/425
f 427/427 683/683 428/428
f 430/430 684/684 431/431
f 433/433 685/685 434/434
f 436/436 686/686 437/437
f 439/439 687/687 440/440
f 442/442 688/688 443/443
f 445/445 689/689 446/446
f 448/448 690/690 449/449
f 451/451 691/691 452/452
f 454/454 692/692 455/455
f 457/457 693/693 458/458
f 460/460 694/694 461/461
f 463/463 695/695 464/464
f 466/466 696/696 467/467
f 469/469 697/697 470/470
f 472/472 698/698 473/473
f 475/475 699/699 476/476
f 478/478 700/700 479/479
f 481/481 701/701 482/482
f 484/484 702/702 485/485
f 487/487 703/703 488/488
f 490/490 704/704 491/491
f 493/493 705/705 494/494
f 496/496 706/706 497/497
f 499/499 707/707 500/500
f 502/502 708/708 503/503
f 505/505 709/709 506/506
f 508/508 710/710 509/509
f 511/511 711/711 512/512
f 514/514 712/712 515/515
f 517/517 713/713 518/518
f 520/520 714/714 521/521
f 523/523 715/715 524/524
f 526/526 716/716 527/527
f 529/529 717/717 530/530
f 532/532 718/718 533/533
f 535/535 719/719 536/536
f 538/538 720/720 539/539

