# https://github.com/mikedh/trimesh
mtllib material.mtl
usemtl red
v -1.50000000 2.48000002 0.00200000
v -1.50000000 2.51999998 0.00200000
v -2.74673557 2.48000002 0.00200000
v -2.74673557 2.48000002 0.00200000
v -1.50000000 2.51999998 0.00200000
v -2.74673557 2.51999998 0.00200000
v -2.74673557 2.48000002 0.00200000
v -2.74673557 2.51999998 0.00200000
v -2.89503503 2.52707863 0.00200000
v -1.50000000 2.48000002 0.00200000
v -1.49482358 2.48068142 0.00200000
v -1.50000000 2.51999998 0.00200000
v -1.50000000 2.51999998 0.00200000
v -1.49482358 2.48068142 0.00200000
v -1.49000001 2.48267961 0.00200000
v -1.50000000 2.51999998 0.00200000
v -1.49000001 2.48267961 0.00200000
v -1.48585784 2.48585796 0.00200000
v -1.48267949 2.50999999 0.00200000
v -1.48585784 2.51414204 0.00200000
v -1.49000001 2.51732039 0.00200000
v -4.48068142 5.00517654 0.00200000
v -4.48267937 5.01000023 0.00200000
v -4.51999998 5.00000000 0.00200000
v -1.48585784 2.48585796 0.00200000
v -1.48267949 2.49000001 0.00200000
v -1.50000000 2.51999998 0.00200000
v -1.50000000 2.51999998 0.00200000
v -1.48267949 2.49000001 0.00200000
v -1.48068154 2.49482369 0.00200000
v -1.50000000 2.51999998 0.00200000
v -1.48068154 2.49482369 0.00200000
v -1.48000002 2.50000000 0.00200000
v -1.48000002 2.50000000 0.00200000
v -1.48068154 2.50517631 0.00200000
v -1.50000000 2.51999998 0.00200000
v -1.50000000 2.51999998 0.00200000
v -1.48068154 2.50517631 0.00200000
v -1.48267949 2.50999999 0.00200000
v -1.50000000 2.51999998 0.00200000
v -1.48267949 2.50999999 0.00200000
v -1.49482358 2.51931858 0.00200000
v -1.49482358 2.51931858 0.00200000
v -1.48267949 2.50999999 0.00200000
v -1.49000001 2.51732039 0.00200000
v -1.50000000 2.13000011 0.00200000
v -1.50000000 2.17000008 0.00200000
v -2.00000000 2.13000011 0.00200000
v -2.00000000 2.13000011 0.00200000
v -1.50000000 2.17000008 0.00200000
v -2.00000000 2.17000008 0.00200000
v -2.00000000 2.13000011 0.00200000
v -2.00000000 2.17000008 0.00200000
v -2.11033559 2.13744068 0.00200000
v -2.11033559 2.13744068 0.00200000
v -2.00000000 2.17000008 0.00200000
v -2.10496497 2.17707849 0.00200000
v -2.11033559 2.13744068 0.00200000
v -2.10496497 2.17707849 0.00200000
v -2.21867323 2.15962791 0.00200000
v -2.21867323 2.15962791 0.00200000
v -2.10496497 2.17707849 0.00200000
v -2.20802927 2.19818592 0.00200000
v -2.21867323 2.15962791 0.00200000
v -2.20802927 2.19818592 0.00200000
v -2.32305098 2.19616032 0.00200000
v -2.32305098 2.19616032 0.00200000
v -2.20802927 2.19818592 0.00200000
v -2.30732656 2.23293996 0.00200000
v -2.32305098 2.19616032 0.00200000
v -2.30732656 2.23293996 0.00200000
v -2.42157865 2.24637580 0.00200000
v -2.42157865 2.24637580 0.00200000
v -2.30732656 2.23293996 0.00200000
v -2.40105844 2.28071117 0.00200000
v -2.42157865 2.24637580 0.00200000
v -2.40105844 2.28071117 0.00200000
v -2.51247215 2.30936527 0.00200000
v -2.51247215 2.30936527 0.00200000
v -2.40105844 2.28071117 0.00200000
v -2.48752785 2.34063482 0.00200000
v -2.51247215 2.30936527 0.00200000
v -2.48752785 2.34063482 0.00200000
v -2.59894156 2.36928868 0.00200000
v -2.59894156 2.36928868 0.00200000
v -2.48752785 2.34063482 0.00200000
v -2.56813335 2.39737296 0.00200000
v -2.59894156 2.36928868 0.00200000
v -2.56813335 2.39737296 0.00200000
v -2.69267344 2.41706014 0.00200000
v -2.69267344 2.41706014 0.00200000
v -2.56813335 2.39737296 0.00200000
v -2.65495229 2.44405198 0.00200000
v -2.69267344 2.41706014 0.00200000
v -2.65495229 2.44405198 0.00200000
v -2.79197073 2.45181417 0.00200000
v -2.79197073 2.45181417 0.00200000
v -2.65495229 2.44405198 0.00200000
v -2.74673557 2.48000002 0.00200000
v -2.79197073 2.45181417 0.00200000
v -2.74673557 2.48000002 0.00200000
v -2.89503503 2.47292137 0.00200000
v -2.89503503 2.47292137 0.00200000
v -2.74673557 2.48000002 0.00200000
v -2.89503503 2.52707863 0.00200000
v -2.89503503 2.47292137 0.00200000
v -2.89503503 2.52707863 0.00200000
v -3.00000000 2.48000002 0.00200000
v -3.00000000 2.48000002 0.00200000
v -2.89503503 2.52707863 0.00200000
v -3.00000000 2.51999998 0.00200000
v -3.00000000 2.48000002 0.00200000
v -3.00000000 2.51999998 0.00200000
v -3.50000000 2.48000002 0.00200000
v -3.50000000 2.48000002 0.00200000
v -3.00000000 2.51999998 0.00200000
v -3.50000000 2.51999998 0.00200000
v -3.50000000 2.48000002 0.00200000
v -3.50000000 2.51999998 0.00200000
v -3.63313675 2.48872614 0.00200000
v -3.63313675 2.48872614 0.00200000
v -3.50000000 2.51999998 0.00200000
v -3.63946843 2.52997494 0.00200000
v -3.63313675 2.48872614 0.00200000
v -3.63946843 2.52997494 0.00200000
v -3.76399541 2.51475573 0.00200000
v -3.76399541 2.51475573 0.00200000
v -3.63946843 2.52997494 0.00200000
v -3.77609801 2.55969691 0.00200000
v -3.76399541 2.51475573 0.00200000
v -3.77609801 2.55969691 0.00200000
v -3.89033699 2.55764294 0.00200000
v -3.89033699 2.55764294 0.00200000
v -3.77609801 2.55969691 0.00200000
v -3.90710664 2.60856056 0.00200000
v -3.89033699 2.55764294 0.00200000
v -3.90710664 2.60856056 0.00200000
v -4.01000023 2.61665416 0.00200000
v -4.01000023 2.61665416 0.00200000
v -3.90710664 2.60856056 0.00200000
v -4.02982807 2.67557144 0.00200000
v -4.01000023 2.61665416 0.00200000
v -4.02982807 2.67557144 0.00200000
v -4.12093687 2.69077969 0.00200000
v -4.12093687 2.69077969 0.00200000
v -4.02982807 2.67557144 0.00200000
v -4.14176369 2.75936532 0.00200000
v -4.12093687 2.69077969 0.00200000
v -4.14176369 2.75936532 0.00200000
v -4.22124910 2.77875113 0.00200000
v -4.22124910 2.77875113 0.00200000
v -4.14176369 2.75936532 0.00200000
v -4.30922031 2.87906337 0.00200000
v -4.30922031 2.87906337 0.00200000
v -4.14176369 2.75936532 0.00200000
v -4.24063444 2.85823655 0.00200000
v -4.30922031 2.87906337 0.00200000
v -4.24063444 2.85823655 0.00200000
v -4.38334608 2.99000001 0.00200000
v -4.38334608 2.99000001 0.00200000
v -4.24063444 2.85823655 0.00200000
v -4.32442856 2.97017193 0.00200000
v -4.38334608 2.99000001 0.00200000
v -4.32442856 2.97017193 0.00200000
v -4.44235706 3.10966301 0.00200000
v -4.44235706 3.10966301 0.00200000
v -4.32442856 2.97017193 0.00200000
v -4.39143944 3.09289336 0.00200000
v -4.44235706 3.10966301 0.00200000
v -4.39143944 3.09289336 0.00200000
v -4.48524427 3.23600459 0.00200000
v -4.48524427 3.23600459 0.00200000
v -4.39143944 3.09289336 0.00200000
v -4.44030333 3.22390199 0.00200000
v -4.48524427 3.23600459 0.00200000
v -4.44030333 3.22390199 0.00200000
v -4.51127386 3.36686325 0.00200000
v -4.51127386 3.36686325 0.00200000
v -4.44030333 3.22390199 0.00200000
v -4.47002506 3.36053157 0.00200000
v -4.51127386 3.36686325 0.00200000
v -4.47002506 3.36053157 0.00200000
v -4.51999998 3.50000000 0.00200000
v -4.51999998 3.50000000 0.00200000
v -4.47002506 3.36053157 0.00200000
v -4.48000002 3.50000000 0.00200000
v -4.51999998 3.50000000 0.00200000
v -4.48000002 3.50000000 0.00200000
v -4.51999998 5.00000000 0.00200000
v -4.51999998 5.00000000 0.00200000
v -4.48000002 3.50000000 0.00200000
v -4.48000002 5.00000000 0.00200000
v -4.51999998 5.00000000 0.00200000
v -4.48000002 5.00000000 0.00200000
v -4.48068142 5.00517654 0.00200000
v -1.50000000 2.82999992 0.00200000
v -1.50000000 2.86999989 0.00200000
v -2.00000000 2.82999992 0.00200000
v -2.00000000 2.82999992 0.00200000
v -1.50000000 2.86999989 0.00200000
v -2.00000000 2.86999989 0.00200000
v -2.00000000 2.82999992 0.00200000
v -2.00000000 2.86999989 0.00200000
v -2.10496497 2.82292151 0.00200000
v -2.10496497 2.82292151 0.00200000
v -2.00000000 2.86999989 0.00200000
v -2.11033559 2.86255932 0.00200000
v -2.10496497 2.82292151 0.00200000
v -2.11033559 2.86255932 0.00200000
v -2.20802927 2.80181408 0.00200000
v -2.20802927 2.80181408 0.00200000
v -2.11033559 2.86255932 0.00200000
v -2.21867323 2.84037209 0.00200000
v -2.20802927 2.80181408 0.00200000
v -2.21867323 2.84037209 0.00200000
v -2.30732656 2.76706004 0.00200000
v -2.30732656 2.76706004 0.00200000
v -2.21867323 2.84037209 0.00200000
v -2.32305098 2.80383968 0.00200000
v -2.30732656 2.76706004 0.00200000
v -2.32305098 2.80383968 0.00200000
v -2.40105844 2.71928883 0.00200000
v -2.40105844 2.71928883 0.00200000
v -2.32305098 2.80383968 0.00200000
v -2.42157865 2.75362420 0.00200000
v -2.40105844 2.71928883 0.00200000
v -2.42157865 2.75362420 0.00200000
v -2.48752785 2.65936518 0.00200000
v -2.48752785 2.65936518 0.00200000
v -2.42157865 2.75362420 0.00200000
v -2.51247215 2.69063473 0.00200000
v -2.48752785 2.65936518 0.00200000
v -2.51247215 2.69063473 0.00200000
v -2.56813335 2.60262704 0.00200000
v -2.56813335 2.60262704 0.00200000
v -2.51247215 2.69063473 0.00200000
v -2.59894156 2.63071132 0.00200000
v -2.56813335 2.60262704 0.00200000
v -2.59894156 2.63071132 0.00200000
v -2.65495229 2.55594802 0.00200000
v -2.65495229 2.55594802 0.00200000
v -2.59894156 2.63071132 0.00200000
v -2.69267344 2.58293986 0.00200000
v -2.65495229 2.55594802 0.00200000
v -2.69267344 2.58293986 0.00200000
v -2.74673557 2.51999998 0.00200000
v -2.74673557 2.51999998 0.00200000
v -2.69267344 2.58293986 0.00200000
v -2.79197073 2.54818583 0.00200000
v -2.74673557 2.51999998 0.00200000
v -2.79197073 2.54818583 0.00200000
v -2.89503503 2.52707863 0.00200000
v -1.50000000 2.13000011 0.00200000
v -1.49482358 2.13068151 0.00200000
v -1.50000000 2.17000008 0.00200000
v -1.50000000 2.17000008 0.00200000
v -1.49482358 2.13068151 0.00200000
v -1.49000001 2.13267946 0.00200000
v -1.50000000 2.17000008 0.00200000
v -1.49000001 2.13267946 0.00200000
v -1.48585784 2.13585782 0.00200000
v -1.48267949 2.16000009 0.00200000
v -1.48585784 2.16414213 0.00200000
v -1.49000001 2.16732049 0.00200000
v -1.50000000 2.82999992 0.00200000
v -1.49482358 2.83068156 0.00200000
v -1.50000000 2.86999989 0.00200000
v -1.50000000 2.86999989 0.00200000
v -1.49482358 2.83068156 0.00200000
v -1.49000001 2.83267951 0.00200000
v -1.50000000 2.86999989 0.00200000
v -1.49000001 2.83267951 0.00200000
v -1.48585784 2.83585787 0.00200000
v -1.48267949 2.85999990 0.00200000
v -1.48585784 2.86414218 0.00200000
v -1.49000001 2.86732054 0.00200000
v -1.48585784 2.13585782 0.00200000
v -1.48267949 2.14000010 0.00200000
v -1.50000000 2.17000008 0.00200000
v -1.50000000 2.17000008 0.00200000
v -1.48267949 2.14000010 0.00200000
v -1.48068154 2.14482355 0.00200000
v -1.50000000 2.17000008 0.00200000
v -1.48068154 2.14482355 0.00200000
v -1.48000002 2.15000010 0.00200000
v -1.48000002 2.15000010 0.00200000
v -1.48068154 2.15517640 0.00200000
v -1.50000000 2.17000008 0.00200000
v -1.50000000 2.17000008 0.00200000
v -1.48068154 2.15517640 0.00200000
v -1.48267949 2.16000009 0.00200000
v -1.50000000 2.17000008 0.00200000
v -1.48267949 2.16000009 0.00200000
v -1.49482358 2.16931844 0.00200000
v -1.49482358 2.16931844 0.00200000
v -1.48267949 2.16000009 0.00200000
v -1.49000001 2.16732049 0.00200000
v -1.48585784 2.83585787 0.00200000
v -1.48267949 2.83999991 0.00200000
v -1.50000000 2.86999989 0.00200000
v -1.50000000 2.86999989 0.00200000
v -1.48267949 2.83999991 0.00200000
v -1.48068154 2.84482360 0.00200000
v -1.50000000 2.86999989 0.00200000
v -1.48068154 2.84482360 0.00200000
v -1.48000002 2.84999990 0.00200000
v -1.48000002 2.84999990 0.00200000
v -1.48068154 2.85517645 0.00200000
v -1.50000000 2.86999989 0.00200000
v -1.50000000 2.86999989 0.00200000
v -1.48068154 2.85517645 0.00200000
v -1.48267949 2.85999990 0.00200000
v -1.50000000 2.86999989 0.00200000
v -1.48267949 2.85999990 0.00200000
v -1.49482358 2.86931849 0.00200000
v -1.49482358 2.86931849 0.00200000
v -1.48267949 2.85999990 0.00200000
v -1.49000001 2.86732054 0.00200000
v -4.49482346 5.01931858 0.00200000
v -4.50000000 5.01999998 0.00200000
v -4.48999977 5.01732063 0.00200000
v -4.48999977 5.01732063 0.00200000
v -4.50000000 5.01999998 0.00200000
v -4.50517654 5.01931858 0.00200000
v -4.50517654 5.01931858 0.00200000
v -4.51000023 5.01732063 0.00200000
v -4.48999977 5.01732063 0.00200000
v -4.48999977 5.01732063 0.00200000
v -4.51000023 5.01732063 0.00200000
v -4.51414204 5.01414204 0.00200000
v -4.48999977 5.01732063 0.00200000
v -4.51414204 5.01414204 0.00200000
v -4.51732063 5.01000023 0.00200000
v -4.48267937 5.01000023 0.00200000
v -4.48585796 5.01414204 0.00200000
v -4.51999998 5.00000000 0.00200000
v -4.51999998 5.00000000 0.00200000
v -4.48585796 5.01414204 0.00200000
v -4.48999977 5.01732063 0.00200000
v -4.51999998 5.00000000 0.00200000
v -4.48999977 5.01732063 0.00200000
v -4.51931858 5.00517654 0.00200000
v -4.51931858 5.00517654 0.00200000
v -4.48999977 5.01732063 0.00200000
v -4.51732063 5.01000023 0.00200000
vt -2.48000002 -0.50000000
vt -2.51999998 -0.50000000
vt -2.48000002 -1.74673557
vt -2.48000002 -1.74673557
vt -2.51999998 -0.50000000
vt -2.51999998 -1.74673557
vt -2.48000002 -1.74673557
vt -2.51999998 -1.74673557
vt -2.52707863 -1.89503503
vt -2.48000002 -0.50000000
vt -2.48068142 -0.49482358
vt -2.51999998 -0.50000000
vt -2.51999998 -0.50000000
vt -2.48068142 -0.49482358
vt -2.48267961 -0.49000001
vt -2.51999998 -0.50000000
vt -2.48267961 -0.49000001
vt -2.48585796 -0.48585784
vt -2.50999999 -0.48267949
vt -2.51414204 -0.48585784
vt -2.51732039 -0.49000001
vt -5.00517654 -3.48068142
vt -5.01000023 -3.48267937
vt -5.00000000 -3.51999998
vt -2.48585796 -0.48585784
vt -2.49000001 -0.48267949
vt -2.51999998 -0.50000000
vt -2.51999998 -0.50000000
vt -2.49000001 -0.48267949
vt -2.49482369 -0.48068154
vt -2.51999998 -0.50000000
vt -2.49482369 -0.48068154
vt -2.50000000 -0.48000002
vt -2.50000000 -0.48000002
vt -2.50517631 -0.48068154
vt -2.51999998 -0.50000000
vt -2.51999998 -0.50000000
vt -2.50517631 -0.48068154
vt -2.50999999 -0.48267949
vt -2.51999998 -0.50000000
vt -2.50999999 -0.48267949
vt -2.51931858 -0.49482358
vt -2.51931858 -0.49482358
vt -2.50999999 -0.48267949
vt -2.51732039 -0.49000001
vt -2.13000011 -0.50000000
vt -2.17000008 -0.50000000
vt -2.13000011 -1.00000000
vt -2.13000011 -1.00000000
vt -2.17000008 -0.50000000
vt -2.17000008 -1.00000000
vt -2.13000011 -1.00000000
vt -2.17000008 -1.00000000
vt -2.13744068 -1.11033559
vt -2.13744068 -1.11033559
vt -2.17000008 -1.00000000
vt -2.17707849 -1.10496497
vt -2.13744068 -1.11033559
vt -2.17707849 -1.10496497
vt -2.15962791 -1.21867323
vt -2.15962791 -1.21867323
vt -2.17707849 -1.10496497
vt -2.19818592 -1.20802927
vt -2.15962791 -1.21867323
vt -2.19818592 -1.20802927
vt -2.19616032 -1.32305098
vt -2.19616032 -1.32305098
vt -2.19818592 -1.20802927
vt -2.23293996 -1.30732656
vt -2.19616032 -1.32305098
vt -2.23293996 -1.30732656
vt -2.24637580 -1.42157865
vt -2.24637580 -1.42157865
vt -2.23293996 -1.30732656
vt -2.28071117 -1.40105844
vt -2.24637580 -1.42157865
vt -2.28071117 -1.40105844
vt -2.30936527 -1.51247215
vt -2.30936527 -1.51247215
vt -2.28071117 -1.40105844
vt -2.34063482 -1.48752785
vt -2.30936527 -1.51247215
vt -2.34063482 -1.48752785
vt -2.36928868 -1.59894156
vt -2.36928868 -1.59894156
vt -2.34063482 -1.48752785
vt -2.39737296 -1.56813335
vt -2.36928868 -1.59894156
vt -2.39737296 -1.56813335
vt -2.41706014 -1.69267344
vt -2.41706014 -1.69267344
vt -2.39737296 -1.56813335
vt -2.44405198 -1.65495229
vt -2.41706014 -1.69267344
vt -2.44405198 -1.65495229
vt -2.45181417 -1.79197073
vt -2.45181417 -1.79197073
vt -2.44405198 -1.65495229
vt -2.48000002 -1.74673557
vt -2.45181417 -1.79197073
vt -2.48000002 -1.74673557
vt -2.47292137 -1.89503503
vt -2.47292137 -1.89503503
vt -2.48000002 -1.74673557
vt -2.52707863 -1.89503503
vt -2.47292137 -1.89503503
vt -2.52707863 -1.89503503
vt -2.48000002 -2.00000000
vt -2.48000002 -2.00000000
vt -2.52707863 -1.89503503
vt -2.51999998 -2.00000000
vt -2.48000002 -2.00000000
vt -2.51999998 -2.00000000
vt -2.48000002 -2.50000000
vt -2.48000002 -2.50000000
vt -2.51999998 -2.00000000
vt -2.51999998 -2.50000000
vt -2.48000002 -2.50000000
vt -2.51999998 -2.50000000
vt -2.48872614 -2.63313675
vt -2.48872614 -2.63313675
vt -2.51999998 -2.50000000
vt -2.52997494 -2.63946843
vt -2.48872614 -2.63313675
vt -2.52997494 -2.63946843
vt -2.51475573 -2.76399541
vt -2.51475573 -2.76399541
vt -2.52997494 -2.63946843
vt -2.55969691 -2.77609801
vt -2.51475573 -2.76399541
vt -2.55969691 -2.77609801
vt -2.55764294 -2.89033699
vt -2.55764294 -2.89033699
vt -2.55969691 -2.77609801
vt -2.60856056 -2.90710664
vt -2.55764294 -2.89033699
vt -2.60856056 -2.90710664
vt -2.61665416 -3.01000023
vt -2.61665416 -3.01000023
vt -2.60856056 -2.90710664
vt -2.67557144 -3.02982807
vt -2.61665416 -3.01000023
vt -2.67557144 -3.02982807
vt -2.69077969 -3.12093687
vt -2.69077969 -3.12093687
vt -2.67557144 -3.02982807
vt -2.75936532 -3.14176369
vt -2.69077969 -3.12093687
vt -2.75936532 -3.14176369
vt -2.77875113 -3.22124910
vt -2.77875113 -3.22124910
vt -2.75936532 -3.14176369
vt -2.87906337 -3.30922031
vt -2.87906337 -3.30922031
vt -2.75936532 -3.14176369
vt -2.85823655 -3.24063444
vt -2.87906337 -3.30922031
vt -2.85823655 -3.24063444
vt -2.99000001 -3.38334608
vt -2.99000001 -3.38334608
vt -2.85823655 -3.24063444
vt -2.97017193 -3.32442856
vt -2.99000001 -3.38334608
vt -2.97017193 -3.32442856
vt -3.10966301 -3.44235706
vt -3.10966301 -3.44235706
vt -2.97017193 -3.32442856
vt -3.09289336 -3.39143944
vt -3.10966301 -3.44235706
vt -3.09289336 -3.39143944
vt -3.23600459 -3.48524427
vt -3.23600459 -3.48524427
vt -3.09289336 -3.39143944
vt -3.22390199 -3.44030333
vt -3.23600459 -3.48524427
vt -3.22390199 -3.44030333
vt -3.36686325 -3.51127386
vt -3.36686325 -3.51127386
vt -3.22390199 -3.44030333
vt -3.36053157 -3.47002506
vt -3.36686325 -3.51127386
vt -3.36053157 -3.47002506
vt -3.50000000 -3.51999998
vt -3.50000000 -3.51999998
vt -3.36053157 -3.47002506
vt -3.50000000 -3.48000002
vt -3.50000000 -3.51999998
vt -3.50000000 -3.48000002
vt -5.00000000 -3.51999998
vt -5.00000000 -3.51999998
vt -3.50000000 -3.48000002
vt -5.00000000 -3.48000002
vt -5.00000000 -3.51999998
vt -5.00000000 -3.48000002
vt -5.00517654 -3.48068142
vt -2.82999992 -0.50000000
vt -2.86999989 -0.50000000
vt -2.82999992 -1.00000000
vt -2.82999992 -1.00000000
vt -2.86999989 -0.50000000
vt -2.86999989 -1.00000000
vt -2.82999992 -1.00000000
vt -2.86999989 -1.00000000
vt -2.82292151 -1.10496497
vt -2.82292151 -1.10496497
vt -2.86999989 -1.00000000
vt -2.86255932 -1.11033559
vt -2.82292151 -1.10496497
vt -2.86255932 -1.11033559
vt -2.80181408 -1.20802927
vt -2.80181408 -1.20802927
vt -2.86255932 -1.11033559
vt -2.84037209 -1.21867323
vt -2.80181408 -1.20802927
vt -2.84037209 -1.21867323
vt -2.76706004 -1.30732656
vt -2.76706004 -1.30732656
vt -2.84037209 -1.21867323
vt -2.80383968 -1.32305098
vt -2.76706004 -1.30732656
vt -2.80383968 -1.32305098
vt -2.71928883 -1.40105844
vt -2.71928883 -1.40105844
vt -2.80383968 -1.32305098
vt -2.75362420 -1.42157865
vt -2.71928883 -1.40105844
vt -2.75362420 -1.42157865
vt -2.65936518 -1.48752785
vt -2.65936518 -1.48752785
vt -2.75362420 -1.42157865
vt -2.69063473 -1.51247215
vt -2.65936518 -1.48752785
vt -2.69063473 -1.51247215
vt -2.60262704 -1.56813335
vt -2.60262704 -1.56813335
vt -2.69063473 -1.51247215
vt -2.63071132 -1.59894156
vt -2.60262704 -1.56813335
vt -2.63071132 -1.59894156
vt -2.55594802 -1.65495229
vt -2.55594802 -1.65495229
vt -2.63071132 -1.59894156
vt -2.58293986 -1.69267344
vt -2.55594802 -1.65495229
vt -2.58293986 -1.69267344
vt -2.51999998 -1.74673557
vt -2.51999998 -1.74673557
vt -2.58293986 -1.69267344
vt -2.54818583 -1.79197073
vt -2.51999998 -1.74673557
vt -2.54818583 -1.79197073
vt -2.52707863 -1.89503503
vt -2.13000011 -0.50000000
vt -2.13068151 -0.49482358
vt -2.17000008 -0.50000000
vt -2.17000008 -0.50000000
vt -2.13068151 -0.49482358
vt -2.13267946 -0.49000001
vt -2.17000008 -0.50000000
vt -2.13267946 -0.49000001
vt -2.13585782 -0.48585784
vt -2.16000009 -0.48267949
vt -2.16414213 -0.48585784
vt -2.16732049 -0.49000001
vt -2.82999992 -0.50000000
vt -2.83068156 -0.49482358
vt -2.86999989 -0.50000000
vt -2.86999989 -0.50000000
vt -2.83068156 -0.49482358
vt -2.83267951 -0.49000001
vt -2.86999989 -0.50000000
vt -2.83267951 -0.49000001
vt -2.83585787 -0.48585784
vt -2.85999990 -0.48267949
vt -2.86414218 -0.48585784
vt -2.86732054 -0.49000001
vt -2.13585782 -0.48585784
vt -2.14000010 -0.48267949
vt -2.17000008 -0.50000000
vt -2.17000008 -0.50000000
vt -2.14000010 -0.48267949
vt -2.14482355 -0.48068154
vt -2.17000008 -0.50000000
vt -2.14482355 -0.48068154
vt -2.15000010 -0.48000002
vt -2.15000010 -0.48000002
vt -2.15517640 -0.48068154
vt -2.17000008 -0.50000000
vt -2.17000008 -0.50000000
vt -2.15517640 -0.48068154
vt -2.16000009 -0.48267949
vt -2.17000008 -0.50000000
vt -2.16000009 -0.48267949
vt -2.16931844 -0.49482358
vt -2.16931844 -0.49482358
vt -2.16000009 -0.48267949
vt -2.16732049 -0.49000001
vt -2.83585787 -0.48585784
vt -2.83999991 -0.48267949
vt -2.86999989 -0.50000000
vt -2.86999989 -0.50000000
vt -2.83999991 -0.48267949
vt -2.84482360 -0.48068154
vt -2.86999989 -0.50000000
vt -2.84482360 -0.48068154
vt -2.84999990 -0.48000002
vt -2.84999990 -0.48000002
vt -2.85517645 -0.48068154
vt -2.86999989 -0.50000000
vt -2.86999989 -0.50000000
vt -2.85517645 -0.48068154
vt -2.85999990 -0.48267949
vt -2.86999989 -0.50000000
vt -2.85999990 -0.48267949
vt -2.86931849 -0.49482358
vt -2.86931849 -0.49482358
vt -2.85999990 -0.48267949
vt -2.86732054 -0.49000001
vt -5.01931858 -3.49482346
vt -5.01999998 -3.50000000
vt -5.01732063 -3.48999977
vt -5.01732063 -3.48999977
vt -5.01999998 -3.50000000
vt -5.01931858 -3.50517654
vt -5.01931858 -3.50517654
vt -5.01732063 -3.51000023
vt -5.01732063 -3.48999977
vt -5.01732063 -3.48999977
vt -5.01732063 -3.51000023
vt -5.01414204 -3.51414204
vt -5.01732063 -3.48999977
vt -5.01414204 -3.51414204
vt -5.01000023 -3.51732063
vt -5.01000023 -3.48267937
vt -5.01414204 -3.48585796
vt -5.00000000 -3.51999998
vt -5.00000000 -3.51999998
vt -5.01414204 -3.48585796
vt -5.01732063 -3.48999977
vt -5.00000000 -3.51999998
vt -5.01732063 -3.48999977
vt -5.00517654 -3.51931858
vt -5.00517654 -3.51931858
vt -5.01732063 -3.48999977
vt -5.01000023 -3.51732063
f 1/1 2/2 3/3
f 4/4 5/5 6/6
f 7/7 8/8 9/9
f 10/10 11/11 12/12
f 13/13 14/14 15/15
f 16/16 17/17 18/18
f 19/19 20/20 21/21
f 22/22 23/23 24/24
f 25/25 26/26 27/27
f 28/28 29/29 30/30
f 31/31 32/32 33/33
f 34/34 35/35 36/36
f 37/37 38/38 39/39
f 40/40 41/41 42/42
f 43/43 44/44 45/45
f 46/46 47/47 48/48
f 49/49 50/50 51/51
f 52/52 53/53 54/54
f 55/55 56/56 57/57
f 58/58 59/59 60/60
f 61/61 62/62 63/63
f 64/64 65/65 66/66
f 67/67 68/68 69/69
f 70/70 71/71 72/72
f 73/73 74/74 75/75
f 76/76 77/77 78/78
f 79/79 80/80 81/81
f 82/82 83/83 84/84
f 85/85 86/86 87/87
f 88/88 89/89 90/90
f 91/91 92/92 93/93
f 94/94 95/95 96/96
f 97/97 98/98 99/99
f 100/100 101/101 102/102
f 103/103 104/104 105/105
f 106/106 107/107 108/108
f 109/109 110/110 111/111
f 112/112 113/113 114/114
f 115/115 116/116 117/117
f 118/118 119/119 120/120
f 121/121 122/122 123/123
f 124/124 125/125 126/126
f 127/127 128/128 129/129
f 130/130 131/131 132/132
f 133/133 134/134 135/135
f 136/136 137/137 138/138
f 139/139 140/140 141/141
f 142/142 143/143 144/144
f 145/145 146/146 147/147
f 148/148 149/149 150/150
f 151/151 152/152 153/153
f 154/154 155/155 156/156
f 157/157 158/158 159/159
f 160/160 161/161 162/162
f 163/163 164/164 165/165
f 166/166 167/167 168/168
f 169/169 170/170 171/171
f 172/172 173/173 174/174
f 175/175 176/176 177/177
f 178/178 179/179 180/180
f 181/181 182/182 183/183
f 184/184 185/185 186/186
f 187/187 188/188 189/189
f 190/190 191/191 192/192
f 193/193 194/194 195/195
f 196/196 197/197 198/198
f 199/199 200/200 201/201
f 202/202 203/203 204/204
f 205/205 206/206 207/207
f 208/208 209/209 210/210
f 211/211 212/212 213/213
f 214/214 215/215 216/216
f 217/217 218/218 219/219
f 220/220 221/221 222/222
f 223/223 224/224 225/225
f 226/226 227/227 228/228
f 229/229 230/230 231/231
f 232/232 233/233 234/234
f 235/235 236/236 237/237
f 238/238 239/239 240/240
f 241/241 242/242 243/243
f 244/244 245/245 246/246
f 247/247 248/248 249/249
f 250/250 251/251 252/252
f 253/253 254/254 255/255
f 256/256 257/257 258/258
f 259/259 260/260 261/261
f 262/262 263/263 264/264
f 265/265 266/266 267/267
f 268/268 269/269 270/270
f 271/271 272/272 273/273
f 274/274 275/275 276/276
f 277/277 278/278 279/279
f 280/280 281/281 282/282
f 283/283 284/284 285/285
f 286/286 287/287 288/288
f 289/289 290/290 291/291
f 292/292 293/293 294/294
f 295/295 296/296 297/297
f 298/298 299/299 300/300
f 301/301 302/302 303/303
f 304/304 305/305 306/306
f 307/307 308/308 309/309
f 310/310 311/311 312/312
f 313/313 314/314 315/315
f 316/316 317/317 318/318
f 319/319 320/320 321/321
f 322/322 323/323 324/324
f 325/325 326/326 327/327
f 328/328 329/329 330/330
f 331/331 332/332 333/333
f 334/334 335/335 336/336
f 337/337 338/338 339/339
f 340/340 341/341 342/342
f 343/343 344/344 345/345

