# https://github.com/mikedh/trimesh
mtllib material.mtl
usemtl redlowglossplastic.001
v 1.89999998 0.30000001 0.41999999
v 2.02500010 0.30000001 0.41999999
v 2.02500010 0.50000000 0.41999999
v 1.89133978 0.29499999 0.41999999
v 1.88999999 0.30000001 0.41999999
v 1.88999999 0.30000001 0.41999999
v 1.89034069 0.29258820 0.41999999
v 1.89034069 0.29258820 0.41999999
v 1.88999999 0.28999999 0.41999999
v 1.89999998 0.50000000 0.41999999
v 1.89741182 0.50034076 0.41999999
v 1.88999999 0.50000000 0.41999999
v 1.89499998 0.50133973 0.41999999
v 1.89292896 0.50292891 0.41999999
v 1.89292896 0.50292891 0.41999999
v 1.89133978 0.50500000 0.41999999
v 1.89133978 0.50500000 0.41999999
v 1.88999999 0.50000000 0.41999999
v 1.88999999 0.50000000 0.41999999
v 1.88999999 0.50000000 0.41999999
v 1.89034069 0.50741184 0.41999999
v 1.89034069 0.50741184 0.41999999
v 1.88999999 0.50999999 0.41999999
v 0.00000000 0.10000000 0.41999999
v 0.00000000 -0.10000000 0.41999999
v 0.60000002 0.10000000 0.41999999
v 0.80000001 -0.10000000 0.41999999
v 0.60000002 0.50000000 0.41999999
v 0.80000001 0.30000001 0.41999999
v 1.88999999 0.50000000 0.41999999
v 1.88999999 0.30000001 0.41999999
v 1.89999998 0.50000000 0.41999999
v 2.02500010 0.50000000 0.41999999
v 1.89133978 0.29499999 0.41999999
v 1.89292896 0.29707107 0.41999999
v 1.88999999 0.30000001 0.41999999
v 1.89499998 0.29866025 0.41999999
v 2.02500010 0.50000000 0.41999999
v 1.89741182 0.29965925 0.41999999
v 1.89999998 0.30000001 0.41999999
v 0.00000000 -0.08000000 0.40000001
v 0.00000000 -0.10000000 0.40000001
v -0.00258819 -0.10000000 0.40034074
v 0.00000000 -0.10000000 0.41999999
v 0.00000000 0.10000000 0.41999999
v -0.00258819 0.10000000 0.41965926
v -0.00258819 0.10000000 0.40034074
v 0.00000000 0.10000000 0.40000001
v 0.00000000 0.08000000 0.40000001
v 0.00000000 -0.10000000 0.41999999
v -0.00258819 0.10000000 0.41965926
v -0.00258819 -0.10000000 0.41965926
v -0.00500000 0.10000000 0.41866025
v -0.00500000 -0.10000000 0.41866025
v -0.00707107 0.10000000 0.41707107
v -0.00707107 -0.10000000 0.41707107
v -0.00866025 0.10000000 0.41499999
v -0.00866025 -0.10000000 0.41499999
v -0.00965926 0.10000000 0.41258818
v -0.00965926 -0.10000000 0.41258818
v -0.01000000 0.10000000 0.41000000
v -0.01000000 -0.10000000 0.41000000
v -0.00965926 0.10000000 0.40741181
v -0.00965926 -0.10000000 0.40741181
v -0.00866025 0.10000000 0.40500000
v -0.00866025 -0.10000000 0.40500000
v -0.00707107 0.10000000 0.40292892
v -0.00707107 -0.10000000 0.40292892
v -0.00500000 0.10000000 0.40133974
v -0.00500000 -0.10000000 0.40133974
v -0.00258819 0.10000000 0.40034074
v -0.00258819 -0.10000000 0.40034074
v 0.00000000 0.08000000 0.40000001
v 0.00000000 -0.08000000 0.40000001
vt 0.93145972 0.44939518
vt 0.98572505 0.44939518
vt 0.98572505 0.53621960
vt 0.92770016 0.44722450
vt 0.92711854 0.44939518
vt 0.92711854 0.44939518
vt 0.92726648 0.44617748
vt 0.92726648 0.44617748
vt 0.92711854 0.44505388
vt 0.93145972 0.53621960
vt 0.93033612 0.53636754
vt 0.92711854 0.53621960
vt 0.92928910 0.53680128
vt 0.92839003 0.53749114
vt 0.92839003 0.53749114
vt 0.92770016 0.53839022
vt 0.92770016 0.53839022
vt 0.92711854 0.53621960
vt 0.92711854 0.53621960
vt 0.92711854 0.53621960
vt 0.92726648 0.53943729
vt 0.92726648 0.53943729
vt 0.92711854 0.54056090
vt 0.10662693 0.36257064
vt 0.10662693 0.27574611
vt 0.36710042 0.36257064
vt 0.45392495 0.27574611
vt 0.36710042 0.53621960
vt 0.45392495 0.44939518
vt 0.92711854 0.53621960
vt 0.92711854 0.44939518
vt 0.93145972 0.53621960
vt 0.98572505 0.53621960
vt 0.92770016 0.44722450
vt 0.92839003 0.44812363
vt 0.92711854 0.44939518
vt 0.92928910 0.44881350
vt 0.98572505 0.53621960
vt 0.93033612 0.44924718
vt 0.93145972 0.44939518
vt 0.10662693 0.28442860
vt 0.10662693 0.27574611
vt 0.10550332 0.27574611
vt 0.10662693 0.27574611
vt 0.10662693 0.36257064
vt 0.10550332 0.36257064
vt 0.10550332 0.36257064
vt 0.10662693 0.36257064
vt 0.10662693 0.35388815
vt 0.10662693 0.27574611
vt 0.10550332 0.36257064
vt 0.10550332 0.27574611
vt 0.10445634 0.36257064
vt 0.10445634 0.27574611
vt 0.10355720 0.36257064
vt 0.10355720 0.27574611
vt 0.10286734 0.36257064
vt 0.10286734 0.27574611
vt 0.10243365 0.36257064
vt 0.10243365 0.27574611
vt 0.10228568 0.36257064
vt 0.10228568 0.27574611
vt 0.10243365 0.36257064
vt 0.10243365 0.27574611
vt 0.10286734 0.36257064
vt 0.10286734 0.27574611
vt 0.10355720 0.36257064
vt 0.10355720 0.27574611
vt 0.10445634 0.36257064
vt 0.10445634 0.27574611
vt 0.10550332 0.36257064
vt 0.10550332 0.27574611
vt 0.10662693 0.35388815
vt 0.10662693 0.28442860
f 1/1 2/2 3/3
f 4/4 5/5 7/7
f 8/8 6/6 9/9
f 10/10 11/11 12/12
f 12/12 11/11 13/13
f 12/12 13/13 14/14
f 15/15 16/16 18/18
f 19/19 17/17 21/21
f 20/20 22/22 23/23
f 24/24 25/25 26/26
f 26/26 25/25 27/27
f 26/26 27/27 28/28
f 28/28 27/27 29/29
f 28/28 29/29 30/30
f 30/30 29/29 31/31
f 30/30 31/31 32/32
f 32/32 31/31 33/33
f 34/34 35/35 36/36
f 36/36 35/35 37/37
f 36/36 37/37 38/38
f 38/38 37/37 39/39
f 38/38 39/39 40/40
f 41/41 42/42 43/43
f 44/44 45/45 46/46
f 47/47 48/48 49/49
f 50/50 51/51 52/52
f 52/52 51/51 53/53
f 52/52 53/53 54/54
f 54/54 53/53 55/55
f 54/54 55/55 56/56
f 56/56 55/55 57/57
f 56/56 57/57 58/58
f 58/58 57/57 59/59
f 58/58 59/59 60/60
f 60/60 59/59 61/61
f 60/60 61/61 62/62
f 62/62 61/61 63/63
f 62/62 63/63 64/64
f 64/64 63/63 65/65
f 64/64 65/65 66/66
f 66/66 65/65 67/67
f 66/66 67/67 68/68
f 68/68 67/67 69/69
f 68/68 69/69 70/70
f 70/70 69/69 71/71
f 70/70 71/71 72/72
f 72/72 71/71 73/73
f 72/72 73/73 74/74

