# https://github.com/mikedh/trimesh
mtllib material.mtl
usemtl red
v 0.67500001 -0.12000000 0.74000001
v 0.67500001 -0.12000000 0.48401171
v 0.63499999 -0.12000000 0.74000001
v 0.63499999 -0.12000000 0.48401171
v 0.63499999 0.12000000 0.71598828
v 0.63499999 0.12000000 0.46000001
v 0.67500001 0.12000000 0.71598828
v 0.67500001 0.12000000 0.46000001
v -0.67500001 0.12000000 0.41499999
v -0.67500001 0.12000000 0.15901172
v -0.63499999 0.12000000 0.41499999
v -0.63499999 0.12000000 0.15901172
v -0.63499999 -0.12000000 0.39098829
v -0.63499999 -0.12000000 0.13500001
v -0.67500001 -0.12000000 0.39098829
v -0.67500001 -0.12000000 0.13500001
v -0.67500001 -0.12000000 0.10000000
v -0.67500001 -0.12000000 0.00000000
v -0.67500001 -0.15000001 0.00000000
v -0.67500001 0.12000000 0.46000001
v -0.67500001 0.12000000 0.41499999
v -0.67500001 0.11000000 0.44999999
v -0.67500001 0.11000000 0.42500001
v -0.67500001 -0.09079063 0.44999999
v -0.67500001 -0.09367605 0.42500001
v -0.67500001 0.11555555 0.15456727
v -0.67500001 0.12000000 0.15901172
v -0.67500001 0.12000000 0.10000000
v -0.67500001 0.15000001 0.00000000
v -0.67500001 0.12000000 0.00000000
v -0.67500001 -0.11000000 0.75000000
v -0.67500001 -0.15000001 0.77499998
v -0.67500001 0.09079063 0.75000000
v -0.67500001 0.15000001 0.77499998
v -0.67500001 0.09634618 0.74444443
v -0.67500001 0.12000000 0.15901172
v -0.67500001 0.12000000 0.41499999
v -0.67500001 0.15000001 0.00000000
v -0.67500001 0.12000000 0.46000001
v -0.67500001 0.15000001 0.77499998
v -0.67500001 0.12000000 0.71887368
v -0.67500001 0.09634618 0.74444443
v -0.67500001 0.11375305 0.71817958
v -0.67500001 -0.11375305 0.48182040
v -0.67500001 -0.11000000 0.75000000
v -0.67500001 -0.12000000 0.74000001
v -0.67500001 -0.15000001 0.77499998
v -0.67500001 -0.12000000 0.48112631
v -0.67500001 -0.15000001 0.00000000
v -0.67500001 0.11375305 0.71817958
v -0.67500001 -0.09634618 0.45555556
v -0.67500001 -0.11375305 0.48182040
v -0.67500001 -0.11555555 0.39543274
v -0.67500001 -0.12000000 0.48112631
v -0.67500001 -0.12000000 0.39098829
v -0.67500001 -0.15000001 0.00000000
v -0.67500001 -0.12000000 0.13500001
v -0.67500001 -0.12000000 0.10000000
v -0.67500001 -0.11000000 0.12500000
v -0.67500001 0.12000000 0.10000000
v -0.67500001 0.09367605 0.12500000
v -0.67500001 0.11555555 0.15456727
v -0.67500001 0.09454367 0.13280869
v -0.67500001 -0.09454367 0.41719133
v -0.67500001 -0.11555555 0.39543274
v -0.67500001 -0.09367605 0.42500001
v -0.67500001 -0.09634618 0.45555556
v -0.67500001 -0.09079063 0.44999999
v -0.63499999 0.12000000 0.10000000
v -0.67500001 0.12000000 0.10000000
v -0.63499999 0.12000000 0.00000000
v -0.67500001 0.12000000 0.00000000
v -0.63499999 0.15000001 0.10000000
v -0.63499999 0.12000000 0.10000000
v -0.63499999 0.15000001 0.00000000
v -0.63499999 0.12000000 0.00000000
v 0.67500001 0.15000001 0.77499998
v 0.67500001 0.15000001 0.00000000
v 0.63499999 0.15000001 0.10000000
v 0.63499999 0.15000001 0.00000000
v -0.63499999 0.15000001 0.13500001
v -0.62500000 0.15000001 0.12500000
v -0.63499999 0.15000001 0.10000000
v -0.63499999 0.15000001 0.10000000
v -0.62500000 0.15000001 0.12500000
v 0.63499999 0.15000001 0.10000000
v -0.63499999 0.15000001 0.00000000
v -0.67500001 0.15000001 0.00000000
v -0.63499999 0.15000001 0.10000000
v -0.67500001 0.15000001 0.77499998
v -0.63499999 0.15000001 0.13500001
v -0.63499999 0.15000001 0.41499999
v 0.63499999 0.15000001 0.41499999
v 0.67500001 0.15000001 0.77499998
v 0.63499999 0.15000001 0.13500001
v 0.63499999 0.15000001 0.10000000
v 0.62500000 0.15000001 0.12500000
v -0.62500000 0.15000001 0.12500000
v -0.62500000 0.15000001 0.42500001
v -0.63499999 0.15000001 0.41499999
v -0.62500000 0.15000001 0.44999999
v -0.62500000 0.15000001 0.44999999
v -0.63499999 0.15000001 0.41499999
v -0.63499999 0.15000001 0.46000001
v -0.67500001 0.15000001 0.77499998
v -0.63499999 0.15000001 0.74000001
v -0.62500000 0.15000001 0.42500001
v -0.62500000 0.15000001 0.44999999
v 0.62500000 0.15000001 0.42500001
v 0.62500000 0.15000001 0.44999999
v 0.63499999 0.15000001 0.41499999
v 0.63499999 0.15000001 0.46000001
v 0.67500001 0.15000001 0.77499998
v 0.63499999 0.15000001 0.46000001
v 0.63499999 0.15000001 0.74000001
v 0.67500001 0.15000001 0.77499998
v 0.62500000 0.15000001 0.75000000
v -0.67500001 0.15000001 0.77499998
v -0.62500000 0.15000001 0.75000000
v -0.63499999 0.15000001 0.74000001
v -0.63499999 0.15000001 0.00000000
v -0.63499999 0.12000000 0.00000000
v -0.67500001 0.15000001 0.00000000
v -0.67500001 0.12000000 0.00000000
v -0.67500001 -0.15000001 0.77499998
v -0.67500001 -0.15000001 0.00000000
v -0.63499999 -0.15000001 0.10000000
v -0.63499999 -0.15000001 0.00000000
v 0.63499999 -0.15000001 0.00000000
v 0.67500001 -0.15000001 0.00000000
v 0.63499999 -0.15000001 0.10000000
v 0.67500001 -0.15000001 0.77499998
v 0.67500001 -0.15000001 0.77499998
v 0.63499999 -0.15000001 0.41499999
v 0.63499999 -0.15000001 0.13500001
v 0.67500001 -0.15000001 0.77499998
v 0.63499999 -0.15000001 0.13500001
v 0.63499999 -0.15000001 0.10000000
v 0.62500000 -0.15000001 0.12500000
v -0.63499999 -0.15000001 0.10000000
v 0.62500000 -0.15000001 0.42500001
v 0.63499999 -0.15000001 0.46000001
v 0.62500000 -0.15000001 0.44999999
v -0.63499999 -0.15000001 0.46000001
v -0.63499999 -0.15000001 0.74000001
v -0.67500001 -0.15000001 0.77499998
v -0.62500000 -0.15000001 0.75000000
v 0.67500001 -0.15000001 0.77499998
v 0.62500000 -0.15000001 0.75000000
v 0.62500000 -0.15000001 0.42500001
v 0.62500000 -0.15000001 0.44999999
v -0.62500000 -0.15000001 0.42500001
v 0.62500000 -0.15000001 0.75000000
v 0.63499999 -0.15000001 0.74000001
v 0.67500001 -0.15000001 0.77499998
v 0.63499999 -0.15000001 0.46000001
v 0.63499999 -0.15000001 0.41499999
v 0.62500000 -0.15000001 0.42500001
v 0.62500000 -0.15000001 0.44999999
v -0.62500000 -0.15000001 0.44999999
v -0.62500000 -0.15000001 0.42500001
v -0.63499999 -0.15000001 0.46000001
v -0.63499999 -0.15000001 0.41499999
v -0.67500001 -0.15000001 0.77499998
v -0.63499999 -0.15000001 0.13500001
v -0.63499999 -0.15000001 0.10000000
v -0.62500000 -0.15000001 0.12500000
v 0.62500000 -0.15000001 0.12500000
v 0.67500001 0.11555555 0.72043276
v 0.67500001 0.12000000 0.71598828
v 0.67500001 0.15000001 0.77499998
v 0.67500001 -0.15000001 0.00000000
v 0.67500001 -0.12000000 0.00000000
v 0.67500001 -0.12000000 0.10000000
v 0.67500001 0.12000000 0.10000000
v 0.67500001 0.09634618 0.13055556
v 0.67500001 0.09079063 0.12500000
v 0.67500001 -0.15000001 0.00000000
v 0.67500001 -0.12000000 0.10000000
v 0.67500001 -0.12000000 0.10000000
v 0.67500001 -0.15000001 0.77499998
v 0.67500001 -0.15000001 0.77499998
v 0.67500001 -0.12000000 0.13500001
v 0.67500001 -0.12000000 0.13500001
v 0.67500001 -0.12000000 0.39387369
v 0.67500001 0.12000000 0.10000000
v 0.67500001 0.09079063 0.12500000
v 0.67500001 -0.12000000 0.10000000
v 0.67500001 -0.11000000 0.12500000
v 0.67500001 -0.12000000 0.13500001
v 0.67500001 0.12000000 0.46000001
v 0.67500001 0.11000000 0.44999999
v 0.67500001 0.12000000 0.41499999
v 0.67500001 -0.09367605 0.44999999
v 0.67500001 -0.09454367 0.45780867
v 0.67500001 -0.11555555 0.47956726
v 0.67500001 -0.11555555 0.47956726
v 0.67500001 -0.09454367 0.45780867
v 0.67500001 0.09454367 0.74219131
v 0.67500001 0.11555555 0.72043276
v 0.67500001 0.09367605 0.75000000
v 0.67500001 0.15000001 0.77499998
v 0.67500001 -0.11000000 0.75000000
v 0.67500001 -0.15000001 0.77499998
v 0.67500001 -0.12000000 0.74000001
v 0.67500001 -0.12000000 0.74000001
v 0.67500001 -0.15000001 0.77499998
v 0.67500001 -0.12000000 0.48401171
v 0.67500001 -0.12000000 0.39387369
v 0.67500001 -0.11555555 0.47956726
v 0.67500001 -0.11375305 0.39317960
v 0.67500001 -0.09367605 0.44999999
v 0.67500001 0.12000000 0.15612631
v 0.67500001 0.15000001 0.00000000
v 0.67500001 0.12000000 0.41499999
v 0.67500001 0.15000001 0.77499998
v 0.67500001 0.12000000 0.46000001
v 0.67500001 0.12000000 0.71598828
v 0.67500001 0.12000000 0.00000000
v 0.67500001 0.15000001 0.00000000
v 0.67500001 0.12000000 0.10000000
v 0.67500001 0.12000000 0.15612631
v 0.67500001 0.09634618 0.13055556
v 0.67500001 0.11375305 0.15682040
v 0.67500001 -0.11375305 0.39317960
v 0.67500001 -0.09634618 0.41944444
v 0.67500001 -0.09367605 0.44999999
v 0.67500001 -0.09079063 0.42500001
v 0.67500001 0.11000000 0.44999999
v 0.67500001 0.11000000 0.42500001
v 0.67500001 0.12000000 0.41499999
v -0.63499999 -0.12000000 0.10000000
v -0.63499999 -0.15000001 0.10000000
v -0.63499999 -0.12000000 0.00000000
v -0.63499999 -0.15000001 0.00000000
v -0.67500001 -0.12000000 0.10000000
v -0.63499999 -0.12000000 0.10000000
v -0.67500001 -0.12000000 0.00000000
v -0.63499999 -0.12000000 0.00000000
v -0.63499999 -0.12000000 0.00000000
v -0.63499999 -0.15000001 0.00000000
v -0.67500001 -0.12000000 0.00000000
v -0.67500001 -0.15000001 0.00000000
v 0.63499999 -0.12000000 0.10000000
v 0.67500001 -0.12000000 0.10000000
v 0.63499999 -0.12000000 0.00000000
v 0.67500001 -0.12000000 0.00000000
v 0.63499999 -0.15000001 0.10000000
v 0.63499999 -0.12000000 0.10000000
v 0.63499999 -0.15000001 0.00000000
v 0.63499999 -0.12000000 0.00000000
v 0.63499999 -0.12000000 0.00000000
v 0.67500001 -0.12000000 0.00000000
v 0.63499999 -0.15000001 0.00000000
v 0.67500001 -0.15000001 0.00000000
v 0.63499999 0.12000000 0.10000000
v 0.63499999 0.15000001 0.10000000
v 0.63499999 0.12000000 0.00000000
v 0.63499999 0.15000001 0.00000000
v 0.67500001 0.12000000 0.10000000
v 0.63499999 0.12000000 0.10000000
v 0.67500001 0.12000000 0.00000000
v 0.63499999 0.12000000 0.00000000
v 0.63499999 0.12000000 0.00000000
v 0.63499999 0.15000001 0.00000000
v 0.67500001 0.12000000 0.00000000
v 0.67500001 0.15000001 0.00000000
v -0.63499999 0.15000001 0.13500001
v -0.63499999 0.15000001 0.41499999
v -0.63499999 0.12000000 0.41499999
v -0.63499999 0.12000000 0.41499999
v -0.63499999 0.12000000 0.15901172
v -0.63499999 0.15000001 0.13500001
v -0.63499999 0.11555555 0.15456727
v -0.63499999 0.09279063 0.13500001
v -0.63499999 -0.11555555 0.39543274
v -0.63499999 -0.15000001 0.41499999
v -0.63499999 -0.15000001 0.13500001
v -0.63499999 -0.12000000 0.13500001
v -0.63499999 -0.12000000 0.13500001
v -0.63499999 -0.12000000 0.39098829
v -0.63499999 -0.15000001 0.41499999
v -0.63499999 -0.11555555 0.39543274
v -0.63499999 -0.09279063 0.41499999
v -0.63499999 0.11555555 0.15456727
v 0.63499999 -0.12000000 0.13500001
v 0.63499999 -0.12000000 0.39387369
v 0.67500001 -0.12000000 0.13500001
v 0.67500001 -0.12000000 0.39387369
v 0.63499999 0.12000000 0.41499999
v 0.63499999 0.15000001 0.41499999
v 0.63499999 0.12000000 0.15612631
v 0.63499999 0.15000001 0.13500001
v 0.63499999 0.11375305 0.15682040
v 0.63499999 0.09279063 0.13500001
v 0.63499999 -0.09279063 0.41499999
v 0.63499999 -0.11375305 0.39317960
v 0.63499999 -0.15000001 0.41499999
v 0.63499999 -0.12000000 0.39387369
v 0.63499999 -0.15000001 0.13500001
v 0.63499999 -0.12000000 0.13500001
v 0.63499999 0.12000000 0.41499999
v 0.63499999 0.12000000 0.15612631
v 0.67500001 0.12000000 0.41499999
v 0.67500001 0.12000000 0.15612631
v 0.67500001 0.11375305 0.15682040
v 0.63499999 0.11375305 0.15682040
v 0.67500001 -0.09634618 0.41944444
v 0.63499999 -0.09279063 0.41499999
v 0.63055557 -0.09634618 0.41944444
v 0.67500001 -0.11375305 0.39317960
v 0.63499999 -0.11375305 0.39317960
v 0.67500001 0.09634618 0.13055556
v 0.63499999 0.09279063 0.13500001
v 0.63055557 0.09634618 0.13055556
v -0.63499999 -0.11555555 0.39543274
v -0.67500001 -0.11555555 0.39543274
v -0.63499999 0.09279063 0.13500001
v -0.67500001 0.09454367 0.13280869
v -0.63280869 0.09454367 0.13280869
v -0.63499999 0.11555555 0.15456727
v -0.67500001 0.11555555 0.15456727
v -0.63499999 -0.09279063 0.41499999
v -0.67500001 -0.09454367 0.41719133
v -0.63280869 -0.09454367 0.41719133
v -0.67500001 0.12000000 0.71887368
v -0.67500001 0.12000000 0.46000001
v -0.63499999 0.12000000 0.71887368
v -0.63499999 0.12000000 0.46000001
v -0.67500001 -0.12000000 0.48112631
v -0.67500001 -0.12000000 0.74000001
v -0.63499999 -0.12000000 0.48112631
v -0.63499999 -0.12000000 0.74000001
v -0.63499999 0.12000000 0.46000001
v -0.63499999 0.15000001 0.46000001
v -0.63499999 0.12000000 0.71887368
v -0.63499999 0.15000001 0.74000001
v -0.63499999 0.11375305 0.71817958
v -0.63499999 0.09279063 0.74000001
v -0.63499999 -0.09279063 0.46000001
v -0.63499999 -0.11375305 0.48182040
v -0.63499999 -0.15000001 0.46000001
v -0.63499999 -0.12000000 0.48112631
v -0.63499999 -0.15000001 0.74000001
v -0.63499999 -0.12000000 0.74000001
v 0.63499999 0.15000001 0.74000001
v 0.63499999 0.15000001 0.46000001
v 0.63499999 0.12000000 0.46000001
v 0.63499999 0.12000000 0.46000001
v 0.63499999 0.12000000 0.71598828
v 0.63499999 0.15000001 0.74000001
v 0.63499999 0.11555555 0.72043276
v 0.63499999 0.09279063 0.74000001
v 0.63499999 -0.11555555 0.47956726
v 0.63499999 -0.15000001 0.46000001
v 0.63499999 -0.15000001 0.74000001
v 0.63499999 -0.12000000 0.74000001
v 0.63499999 -0.12000000 0.74000001
v 0.63499999 -0.12000000 0.48401171
v 0.63499999 -0.15000001 0.46000001
v 0.63499999 -0.11555555 0.47956726
v 0.63499999 -0.09279063 0.46000001
v 0.63499999 0.11555555 0.72043276
v 0.63499999 -0.11555555 0.47956726
v 0.67500001 -0.11555555 0.47956726
v 0.63499999 0.09279063 0.74000001
v 0.67500001 0.09454367 0.74219131
v 0.63280869 0.09454367 0.74219131
v 0.63499999 0.11555555 0.72043276
v 0.67500001 0.11555555 0.72043276
v 0.63499999 -0.09279063 0.46000001
v 0.67500001 -0.09454367 0.45780867
v 0.63280869 -0.09454367 0.45780867
v -0.67500001 0.11375305 0.71817958
v -0.63499999 0.11375305 0.71817958
v -0.67500001 -0.09634618 0.45555556
v -0.63499999 -0.09279063 0.46000001
v -0.63055557 -0.09634618 0.45555556
v -0.67500001 -0.11375305 0.48182040
v -0.63499999 -0.11375305 0.48182040
v -0.67500001 0.09634618 0.74444443
v -0.63499999 0.09279063 0.74000001
v -0.63055557 0.09634618 0.74444443
v -0.67500001 -0.11375305 0.48182040
v -0.67500001 -0.12000000 0.48112631
v -0.63499999 -0.11375305 0.48182040
v -0.63499999 -0.12000000 0.48112631
v -0.62500000 0.09079063 0.75000000
v -0.67500001 0.09079063 0.75000000
v -0.63055557 0.09634618 0.74444443
v -0.67500001 0.09634618 0.74444443
v -0.63499999 0.09279063 0.74000001
v -0.63499999 0.15000001 0.74000001
v -0.63055557 0.09634618 0.74444443
v -0.62500000 0.15000001 0.75000000
v -0.62500000 0.09079063 0.75000000
v -0.67500001 0.11375305 0.71817958
v -0.67500001 0.12000000 0.71887368
v -0.63499999 0.11375305 0.71817958
v -0.63499999 0.12000000 0.71887368
v -0.62500000 -0.11000000 0.75000000
v -0.63499999 -0.12000000 0.74000001
v -0.67500001 -0.11000000 0.75000000
v -0.67500001 -0.12000000 0.74000001
v -0.62500000 -0.15000001 0.75000000
v -0.63499999 -0.15000001 0.74000001
v -0.62500000 -0.11000000 0.75000000
v -0.63499999 -0.12000000 0.74000001
v -0.63499999 -0.09279063 0.46000001
v -0.63499999 -0.15000001 0.46000001
v -0.63055557 -0.09634618 0.45555556
v -0.62500000 -0.15000001 0.44999999
v -0.62500000 -0.09079063 0.44999999
v -0.67500001 -0.09079063 0.44999999
v -0.67500001 -0.09634618 0.45555556
v -0.62500000 -0.09079063 0.44999999
v -0.63055557 -0.09634618 0.45555556
v -0.63499999 0.12000000 0.46000001
v -0.62500000 0.11000000 0.44999999
v -0.63499999 0.15000001 0.46000001
v -0.62500000 0.15000001 0.44999999
v -0.62500000 0.11000000 0.44999999
v -0.63499999 0.12000000 0.46000001
v -0.67500001 0.11000000 0.44999999
v -0.67500001 0.12000000 0.46000001
v -0.67500001 -0.12000000 0.39098829
v -0.67500001 -0.11555555 0.39543274
v -0.63499999 -0.12000000 0.39098829
v -0.63499999 -0.11555555 0.39543274
v -0.63499999 0.12000000 0.41499999
v -0.62500000 0.11000000 0.42500001
v -0.67500001 0.12000000 0.41499999
v -0.67500001 0.11000000 0.42500001
v -0.63499999 0.15000001 0.41499999
v -0.62500000 0.15000001 0.42500001
v -0.63499999 0.12000000 0.41499999
v -0.62500000 0.11000000 0.42500001
v -0.67500001 0.12000000 0.15901172
v -0.67500001 0.11555555 0.15456727
v -0.63499999 0.12000000 0.15901172
v -0.63499999 0.11555555 0.15456727
v -0.62500000 0.09367605 0.12500000
v -0.62500000 0.15000001 0.12500000
v -0.63280869 0.09454367 0.13280869
v -0.63499999 0.15000001 0.13500001
v -0.63499999 0.09279063 0.13500001
v -0.67500001 0.09454367 0.13280869
v -0.67500001 0.09367605 0.12500000
v -0.63280869 0.09454367 0.13280869
v -0.62500000 0.09367605 0.12500000
v -0.62500000 -0.09367605 0.42500001
v -0.63280869 -0.09454367 0.41719133
v -0.67500001 -0.09367605 0.42500001
v -0.67500001 -0.09454367 0.41719133
v -0.62500000 -0.09367605 0.42500001
v -0.62500000 -0.15000001 0.42500001
v -0.63280869 -0.09454367 0.41719133
v -0.63499999 -0.15000001 0.41499999
v -0.63499999 -0.09279063 0.41499999
v -0.63499999 -0.12000000 0.13500001
v -0.62500000 -0.11000000 0.12500000
v -0.67500001 -0.12000000 0.13500001
v -0.67500001 -0.11000000 0.12500000
v -0.63499999 -0.15000001 0.13500001
v -0.62500000 -0.15000001 0.12500000
v -0.63499999 -0.12000000 0.13500001
v -0.62500000 -0.11000000 0.12500000
v 0.62500000 0.09079063 0.12500000
v 0.67500001 0.09079063 0.12500000
v 0.63055557 0.09634618 0.13055556
v 0.67500001 0.09634618 0.13055556
v 0.63499999 0.09279063 0.13500001
v 0.63499999 0.15000001 0.13500001
v 0.63055557 0.09634618 0.13055556
v 0.62500000 0.15000001 0.12500000
v 0.62500000 0.09079063 0.12500000
v 0.63499999 -0.12000000 0.13500001
v 0.62500000 -0.11000000 0.12500000
v 0.63499999 -0.15000001 0.13500001
v 0.62500000 -0.15000001 0.12500000
v 0.67500001 -0.12000000 0.13500001
v 0.67500001 -0.11000000 0.12500000
v 0.63499999 -0.12000000 0.13500001
v 0.62500000 -0.11000000 0.12500000
v 0.62500000 -0.09079063 0.42500001
v 0.67500001 -0.09079063 0.42500001
v 0.63055557 -0.09634618 0.41944444
v 0.67500001 -0.09634618 0.41944444
v 0.63499999 -0.09279063 0.41499999
v 0.63499999 -0.15000001 0.41499999
v 0.63055557 -0.09634618 0.41944444
v 0.62500000 -0.15000001 0.42500001
v 0.62500000 -0.09079063 0.42500001
v 0.63499999 0.12000000 0.41499999
v 0.62500000 0.11000000 0.42500001
v 0.63499999 0.15000001 0.41499999
v 0.62500000 0.15000001 0.42500001
v 0.67500001 0.12000000 0.41499999
v 0.67500001 0.11000000 0.42500001
v 0.63499999 0.12000000 0.41499999
v 0.62500000 0.11000000 0.42500001
v 0.62500000 0.09367605 0.75000000
v 0.63280869 0.09454367 0.74219131
v 0.67500001 0.09367605 0.75000000
v 0.67500001 0.09454367 0.74219131
v 0.62500000 0.09367605 0.75000000
v 0.62500000 0.15000001 0.75000000
v 0.63280869 0.09454367 0.74219131
v 0.63499999 0.15000001 0.74000001
v 0.63499999 0.09279063 0.74000001
v 0.62500000 -0.11000000 0.75000000
v 0.63499999 -0.12000000 0.74000001
v 0.62500000 -0.15000001 0.75000000
v 0.63499999 -0.15000001 0.74000001
v 0.67500001 -0.11000000 0.75000000
v 0.67500001 -0.12000000 0.74000001
v 0.62500000 -0.11000000 0.75000000
v 0.63499999 -0.12000000 0.74000001
v 0.67500001 0.11375305 0.15682040
v 0.67500001 0.12000000 0.15612631
v 0.63499999 0.11375305 0.15682040
v 0.63499999 0.12000000 0.15612631
v 0.67500001 -0.11375305 0.39317960
v 0.67500001 -0.12000000 0.39387369
v 0.63499999 -0.11375305 0.39317960
v 0.63499999 -0.12000000 0.39387369
v 0.67500001 -0.12000000 0.48401171
v 0.67500001 -0.11555555 0.47956726
v 0.63499999 -0.12000000 0.48401171
v 0.63499999 -0.11555555 0.47956726
v 0.62500000 -0.09367605 0.44999999
v 0.63280869 -0.09454367 0.45780867
v 0.67500001 -0.09367605 0.44999999
v 0.67500001 -0.09454367 0.45780867
v 0.62500000 -0.09367605 0.44999999
v 0.62500000 -0.15000001 0.44999999
v 0.63280869 -0.09454367 0.45780867
v 0.63499999 -0.15000001 0.46000001
v 0.63499999 -0.09279063 0.46000001
v 0.67500001 0.12000000 0.71598828
v 0.67500001 0.11555555 0.72043276
v 0.63499999 0.12000000 0.71598828
v 0.63499999 0.11555555 0.72043276
v 0.63499999 0.12000000 0.46000001
v 0.62500000 0.11000000 0.44999999
v 0.67500001 0.12000000 0.46000001
v 0.67500001 0.11000000 0.44999999
v 0.62500000 0.11000000 0.44999999
v 0.63499999 0.12000000 0.46000001
v 0.62500000 0.15000001 0.44999999
v 0.63499999 0.15000001 0.46000001
f 1 2 3
f 3 2 4
f 5 6 7
f 7 6 8
f 9 10 11
f 11 10 12
f 13 14 15
f 15 14 16
f 17 18 19
f 20 21 22
f 22 21 23
f 22 23 24
f 24 23 25
f 26 27 28
f 28 27 29
f 28 29 30
f 31 32 33
f 33 32 34
f 33 34 35
f 36 37 38
f 38 37 39
f 38 39 40
f 40 39 41
f 40 41 42
f 42 41 43
f 42 43 44
f 45 46 47
f 47 46 48
f 47 48 49
f 50 51 52
f 52 51 53
f 52 53 54
f 54 53 55
f 54 55 56
f 56 55 57
f 56 57 58
f 58 57 59
f 58 59 60
f 60 59 61
f 60 61 62
f 62 61 63
f 62 63 64
f 64 63 65
f 64 65 66
f 66 65 67
f 66 67 68
f 69 70 71
f 71 70 72
f 73 74 75
f 75 74 76
f 77 78 79
f 79 78 80
f 81 82 83
f 84 85 86
f 87 88 89
f 89 88 90
f 89 90 91
f 91 90 92
f 93 94 95
f 95 94 96
f 95 96 97
f 97 96 98
f 99 100 101
f 102 103 104
f 104 103 105
f 104 105 106
f 107 108 109
f 109 108 110
f 109 110 111
f 111 110 112
f 111 112 113
f 114 115 116
f 116 115 117
f 116 117 118
f 118 117 119
f 118 119 120
f 121 122 123
f 123 122 124
f 125 126 127
f 127 126 128
f 129 130 131
f 131 130 132
f 133 134 135
f 136 137 138
f 138 137 139
f 138 139 140
f 141 142 143
f 144 145 146
f 146 145 147
f 146 147 148
f 148 147 149
f 150 151 152
f 153 154 155
f 155 154 156
f 155 156 157
f 157 156 158
f 159 160 161
f 161 160 162
f 161 162 163
f 163 162 164
f 163 164 165
f 165 164 166
f 165 166 167
f 167 166 168
f 169 170 171
f 172 173 174
f 175 176 177
f 178 180 182
f 181 179 183
f 182 184 185
f 186 187 188
f 188 187 189
f 188 189 190
f 191 192 193
f 194 195 196
f 197 198 199
f 199 198 200
f 199 200 201
f 201 200 202
f 201 202 203
f 203 202 204
f 203 204 205
f 206 207 208
f 208 207 209
f 208 209 210
f 210 209 211
f 210 211 212
f 213 214 215
f 215 214 216
f 215 216 217
f 217 216 218
f 219 220 221
f 221 220 222
f 221 222 223
f 223 222 224
f 223 224 225
f 225 224 226
f 225 226 227
f 227 226 228
f 227 228 229
f 229 228 230
f 229 230 231
f 232 233 234
f 234 233 235
f 236 237 238
f 238 237 239
f 240 241 242
f 242 241 243
f 244 245 246
f 246 245 247
f 248 249 250
f 250 249 251
f 252 253 254
f 254 253 255
f 256 257 258
f 258 257 259
f 260 261 262
f 262 261 263
f 264 265 266
f 266 265 267
f 268 269 270
f 271 272 273
f 273 272 274
f 273 274 275
f 275 274 276
f 277 278 279
f 280 281 282
f 282 281 283
f 282 283 284
f 284 283 285
f 286 287 288
f 288 287 289
f 290 291 292
f 292 291 293
f 292 293 294
f 294 293 295
f 294 295 296
f 296 295 297
f 296 297 298
f 298 297 299
f 298 299 300
f 300 299 301
f 302 303 304
f 304 303 305
f 306 307 308
f 308 307 309
f 308 309 310
f 311 312 313
f 313 312 314
f 313 314 315
f 316 317 318
f 318 317 319
f 318 319 320
f 321 322 323
f 323 322 324
f 323 324 325
f 326 327 328
f 328 327 329
f 330 331 332
f 332 331 333
f 334 335 336
f 336 335 337
f 336 337 338
f 338 337 339
f 338 339 340
f 340 339 341
f 340 341 342
f 342 341 343
f 342 343 344
f 344 343 345
f 346 347 348
f 349 350 351
f 351 350 352
f 351 352 353
f 353 352 354
f 355 356 357
f 358 359 360
f 360 359 361
f 360 361 362
f 362 361 363
f 364 365 366
f 366 365 367
f 366 367 368
f 369 370 371
f 371 370 372
f 371 372 373
f 374 375 376
f 376 375 377
f 376 377 378
f 379 380 381
f 381 380 382
f 381 382 383
f 384 385 386
f 386 385 387
f 388 389 390
f 390 389 391
f 392 393 394
f 394 393 395
f 394 395 396
f 397 398 399
f 399 398 400
f 401 402 403
f 403 402 404
f 405 406 407
f 407 406 408
f 409 410 411
f 411 410 412
f 411 412 413
f 414 415 416
f 416 415 417
f 418 419 420
f 420 419 421
f 422 423 424
f 424 423 425
f 426 427 428
f 428 427 429
f 430 431 432
f 432 431 433
f 434 435 436
f 436 435 437
f 438 439 440
f 440 439 441
f 442 443 444
f 444 443 445
f 444 445 446
f 447 448 449
f 449 448 450
f 451 452 453
f 453 452 454
f 455 456 457
f 457 456 458
f 457 458 459
f 460 461 462
f 462 461 463
f 464 465 466
f 466 465 467
f 468 469 470
f 470 469 471
f 472 473 474
f 474 473 475
f 474 475 476
f 477 478 479
f 479 478 480
f 481 482 483
f 483 482 484
f 485 486 487
f 487 486 488
f 489 490 491
f 491 490 492
f 491 492 493
f 494 495 496
f 496 495 497
f 498 499 500
f 500 499 501
f 502 503 504
f 504 503 505
f 506 507 508
f 508 507 509
f 508 509 510
f 511 512 513
f 513 512 514
f 515 516 517
f 517 516 518
f 519 520 521
f 521 520 522
f 523 524 525
f 525 524 526
f 527 528 529
f 529 528 530
f 531 532 533
f 533 532 534
f 535 536 537
f 537 536 538
f 537 538 539
f 540 541 542
f 542 541 543
f 544 545 546
f 546 545 547
f 548 549 550
f 550 549 551

