# https://github.com/mikedh/trimesh
mtllib material.mtl
usemtl sealed
v -0.15137700 0.12826050 0.29134800
v -0.15137700 0.12826050 0.29134800
v -0.10872600 0.12826050 0.29134800
v -0.10872600 0.12826050 0.29134800
v -0.10872600 -0.12826050 0.29134800
v -0.10872600 -0.12826050 0.29134800
v -0.15137700 -0.12826050 0.29134800
v -0.15137700 -0.12826050 0.29134800
v -0.15137700 -0.12826050 0.62402025
v -0.15137700 -0.12826050 0.62402025
v -0.10872600 -0.12826050 0.62402025
v -0.10872600 -0.12826050 0.62402025
v -0.15137700 0.12826050 0.62402025
v -0.15137700 0.12826050 0.62402025
v -0.10872600 0.12826050 0.62402025
v -0.10872600 0.12826050 0.62402025
v -0.25800300 -0.12826050 0.29134800
v -0.25800300 -0.12826050 0.29134800
v -0.25800300 -0.12826050 0.29134800
v -0.15137700 -0.12826050 0.29134800
v -0.15137700 -0.12826050 0.29134800
v -0.15137700 -0.12826050 0.62402025
v -0.15137700 -0.12826050 0.62402025
v -0.25800300 -0.12826050 0.62402025
v -0.25800300 -0.12826050 0.62402025
v -0.25800300 -0.12826050 0.62402025
v -0.00210150 0.12826050 0.62402025
v -0.00210150 0.12826050 0.62402025
v -0.00210150 0.12826050 0.62402025
v -0.00210150 0.12826050 0.29134800
v -0.00210150 0.12826050 0.29134800
v -0.00210150 0.12826050 0.29134800
v -0.10872600 0.12826050 0.29134800
v -0.10872600 0.12826050 0.29134800
v -0.10872600 0.12826050 0.62402025
v -0.10872600 0.12826050 0.62402025
v -0.00210150 -0.12826050 0.62402025
v -0.00210150 -0.12826050 0.62402025
v -0.00210150 -0.12826050 0.62402025
v -0.00210150 -0.12826050 0.29134800
v -0.00210150 -0.12826050 0.29134800
v -0.00210150 -0.12826050 0.29134800
v -0.25800300 0.12826050 0.29134800
v -0.25800300 0.12826050 0.29134800
v -0.25800300 0.12826050 0.29134800
v -0.15137700 0.12826050 0.29134800
v -0.15137700 0.12826050 0.29134800
v -0.10872600 -0.12826050 0.62402025
v -0.10872600 -0.12826050 0.62402025
v -0.25800300 0.12826050 0.62402025
v -0.25800300 0.12826050 0.62402025
v -0.25800300 0.12826050 0.62402025
v -0.10872600 -0.12826050 0.29134800
v -0.10872600 -0.12826050 0.29134800
v -0.15137700 0.12826050 0.62402025
v -0.15137700 0.12826050 0.62402025
vt 0.35962300 0.06195200
vt 0.67571300 0.06232000
vt 0.67571300 0.11480300
vt 0.35962300 0.00946900
vt 0.67452000 0.00946900
vt 0.67571300 0.00973400
vt 0.67571300 0.06221700
vt 0.67452000 0.06195200
vt 0.99061000 0.06221700
vt 0.35962300 0.11453800
vt 0.35962300 0.06205500
vt 0.99061000 0.00973400
vt 0.99061000 0.06232000
vt 0.67452100 0.11453800
vt 0.67452000 0.06205500
vt 0.99061000 0.11480300
vt 0.85133700 0.99564400
vt 0.23155200 0.50590600
vt 0.23138400 0.90736200
vt 0.23155200 0.59649400
vt 0.85133700 0.90505600
vt 0.01405300 0.59649400
vt 0.54781800 0.80948400
vt 0.01405300 0.50590600
vt 0.54781800 0.90007300
vt 0.01397200 0.90736200
vt 0.01471100 0.00236600
vt 0.23629500 0.90013700
vt 0.01353600 0.40496300
vt 0.23094700 0.40496300
vt 0.54438400 0.99573500
vt 0.23221000 0.00236600
vt 0.54438400 0.90514700
vt 0.23221000 0.09295500
vt 0.01471100 0.09295500
vt 0.23629500 0.80954900
vt 0.54429500 0.90013700
vt 0.01353600 0.09696300
vt 0.01493600 0.49856900
vt 0.23243400 0.49856900
vt 0.23094700 0.09696300
vt 0.23638400 0.99573500
vt 0.23138400 0.59936200
vt 0.23095700 0.99870000
vt 0.54333800 0.99564400
vt 0.23095700 0.90811200
vt 0.54333800 0.90505600
vt 0.01493600 0.40798100
vt 0.54429500 0.80954900
vt 0.01397200 0.59936200
vt 0.01345900 0.99870000
vt 0.85581800 0.90007300
vt 0.23243400 0.40798100
vt 0.23638400 0.90514700
vt 0.85581800 0.80948400
vt 0.01345900 0.90811200
f 1/1 4/4 5/5
f 9/9 7/7 6/6
f 3/3 2/2 13/13
f 15/15 14/14 10/10
f 18/18 20/20 22/22
f 27/27 32/32 34/34
f 38/38 41/41 30/30
f 45/45 47/47 21/21
f 28/28 36/36 49/49
f 50/50 43/43 19/19
f 33/33 31/31 42/42
f 40/40 39/39 48/48
f 55/55 52/52 25/25
f 44/44 51/51 56/56
f 5/5 8/8 1/1
f 6/6 12/12 9/9
f 13/13 16/16 3/3
f 10/10 11/11 15/15
f 22/22 24/24 18/18
f 34/34 35/35 27/27
f 30/30 29/29 38/38
f 21/21 17/17 45/45
f 49/49 37/37 28/28
f 19/19 26/26 50/50
f 42/42 54/54 33/33
f 48/48 53/53 40/40
f 25/25 23/23 55/55
f 56/56 46/46 44/44

