# https://github.com/mikedh/trimesh
mtllib material.mtl
usemtl yellow
v -0.67500001 0.03500000 0.34999999
v -0.67500001 -0.01855122 0.34999999
v -0.62500000 0.03500000 0.34999999
v -0.62500000 -0.01855122 0.34999999
v -0.62500000 -0.07500000 0.34999999
v 0.62500000 -0.07500000 0.34999999
v -0.62500000 -0.01855122 0.34999999
v 0.62500000 -0.02098856 0.34999999
v 0.67500001 -0.02098856 0.34999999
v 0.67500001 0.03500000 0.34999999
v 0.62500000 -0.02098856 0.34999999
v 0.62500000 0.03500000 0.34999999
v -0.62500000 -0.01855122 0.34999999
v 0.62500000 0.07500000 0.34999999
v -0.62500000 0.03500000 0.34999999
v -0.62500000 0.07500000 0.34999999
v -0.62500000 0.01855122 0.55000001
v -0.62500000 0.07500000 0.55000001
v 0.62500000 0.07500000 0.55000001
v 0.62500000 -0.03500000 0.55000001
v 0.62500000 -0.07500000 0.55000001
v -0.62500000 -0.07500000 0.55000001
v -0.62500000 -0.03500000 0.55000001
v -0.67500001 -0.03500000 0.55000001
v -0.67500001 0.01855122 0.55000001
v 0.62500000 0.02098856 0.55000001
v 0.67500001 0.02098856 0.55000001
v 0.67500001 -0.03500000 0.55000001
v 0.67500001 -0.03500000 0.55000001
v 0.62500000 -0.03500000 0.55000001
v 0.62500000 0.02098856 0.55000001
v -0.62500000 -0.07500000 0.55000001
v 0.62500000 0.07500000 0.55000001
v -0.62500000 -0.03500000 0.55000001
v -0.62500000 0.01855122 0.55000001
v -0.67500001 0.01855122 0.55000001
v -0.67500001 -0.02098856 0.32499999
v -0.67500001 0.03500000 0.32499999
v -0.62500000 -0.02098856 0.32499999
v -0.62500000 0.03500000 0.32499999
v -0.62500000 0.07500000 0.32499999
v 0.62500000 0.07500000 0.32499999
v -0.62500000 0.03500000 0.32499999
v 0.62500000 0.03500000 0.32499999
v 0.67500001 0.03500000 0.32499999
v 0.67500001 -0.01855122 0.32499999
v 0.62500000 0.03500000 0.32499999
v 0.62500000 -0.01855122 0.32499999
v -0.62500000 0.03500000 0.32499999
v 0.62500000 -0.07500000 0.32499999
v -0.62500000 -0.02098856 0.32499999
v -0.62500000 -0.07500000 0.32499999
v 0.67500001 -0.07500000 0.57499999
v 0.67500001 0.07500000 0.57499999
v -0.67500001 -0.07500000 0.57499999
v -0.67500001 0.07500000 0.57499999
v -0.62500000 -0.03500000 0.12500000
v -0.62500000 -0.07500000 0.12500000
v 0.62500000 -0.07500000 0.12500000
v 0.62500000 0.01855122 0.12500000
v 0.62500000 0.07500000 0.12500000
v -0.62500000 0.07500000 0.12500000
v -0.62500000 0.02098856 0.12500000
v -0.67500001 0.02098856 0.12500000
v -0.67500001 -0.03500000 0.12500000
v 0.62500000 -0.03500000 0.12500000
v 0.67500001 -0.03500000 0.12500000
v 0.67500001 0.01855122 0.12500000
v 0.67500001 0.01855122 0.12500000
v 0.62500000 0.01855122 0.12500000
v 0.62500000 -0.03500000 0.12500000
v -0.62500000 0.07500000 0.12500000
v 0.62500000 -0.07500000 0.12500000
v -0.62500000 0.02098856 0.12500000
v -0.62500000 -0.03500000 0.12500000
v -0.67500001 -0.03500000 0.12500000
v 0.63499999 -0.04500000 0.10000000
v 0.63499999 -0.07500000 0.10000000
v -0.63499999 -0.07500000 0.10000000
v -0.63499999 0.04500000 0.10000000
v -0.63499999 0.07500000 0.10000000
v 0.63499999 0.07500000 0.10000000
v 0.63499999 0.04500000 0.10000000
v 0.67500001 0.04500000 0.10000000
v 0.67500001 -0.04500000 0.10000000
v -0.63499999 -0.04500000 0.10000000
v -0.67500001 -0.04500000 0.10000000
v -0.67500001 0.04500000 0.10000000
v -0.67500001 0.04500000 0.10000000
v -0.63499999 0.04500000 0.10000000
v -0.63499999 -0.04500000 0.10000000
v 0.63499999 0.07500000 0.10000000
v -0.63499999 -0.07500000 0.10000000
v 0.63499999 0.04500000 0.10000000
v 0.63499999 -0.04500000 0.10000000
v 0.67500001 -0.04500000 0.10000000
f 1 2 3
f 3 2 4
f 5 6 7
f 7 6 8
f 9 10 11
f 11 10 12
f 11 12 13
f 13 12 14
f 13 14 15
f 15 14 16
f 17 18 19
f 20 21 22
f 23 24 25
f 26 27 28
f 29 30 31
f 31 30 32
f 31 32 33
f 33 32 34
f 33 34 35
f 35 34 36
f 37 38 39
f 39 38 40
f 41 42 43
f 43 42 44
f 45 46 47
f 47 46 48
f 47 48 49
f 49 48 50
f 49 50 51
f 51 50 52
f 53 54 55
f 55 54 56
f 57 58 59
f 60 61 62
f 63 64 65
f 66 67 68
f 69 70 71
f 71 70 72
f 71 72 73
f 73 72 74
f 73 74 75
f 75 74 76
f 77 78 79
f 80 81 82
f 83 84 85
f 86 87 88
f 89 90 91
f 91 90 92
f 91 92 93
f 93 92 94
f 93 94 95
f 95 94 96

