# https://github.com/mikedh/trimesh
mtllib material.mtl
usemtl yellow
v 0.33750001 -0.09367605 0.44999999
v 0.33750001 0.11000000 0.44999999
v 0.28749999 -0.09367605 0.44999999
v 0.28749999 0.11000000 0.44999999
v 0.28749999 0.15000001 0.44999999
v -0.28749999 0.15000001 0.44999999
v 0.28749999 0.11000000 0.44999999
v -0.28749999 0.11000000 0.44999999
v 0.28749999 -0.15000001 0.44999999
v 0.28749999 -0.09367605 0.44999999
v -0.28749999 -0.15000001 0.44999999
v 0.28749999 0.11000000 0.44999999
v -0.28749999 -0.09079063 0.44999999
v -0.28749999 0.11000000 0.44999999
v -0.33750001 -0.09079063 0.44999999
v -0.33750001 0.11000000 0.44999999
v -0.33750001 -0.11000000 0.75000000
v -0.33750001 0.09079063 0.75000000
v -0.28749999 -0.11000000 0.75000000
v -0.28749999 0.09079063 0.75000000
v -0.28749999 0.15000001 0.75000000
v 0.28749999 0.15000001 0.75000000
v -0.28749999 0.09079063 0.75000000
v 0.28749999 0.09367605 0.75000000
v 0.33750001 0.09367605 0.75000000
v 0.33750001 -0.11000000 0.75000000
v 0.28749999 0.09367605 0.75000000
v 0.28749999 -0.11000000 0.75000000
v -0.28749999 0.09079063 0.75000000
v 0.28749999 -0.15000001 0.75000000
v -0.28749999 -0.11000000 0.75000000
v -0.28749999 -0.15000001 0.75000000
v 0.28749999 -0.15000001 0.42500001
v -0.28749999 -0.15000001 0.42500001
v -0.28749999 -0.09367605 0.42500001
v -0.33750001 -0.09367605 0.42500001
v -0.33750001 0.11000000 0.42500001
v -0.28749999 -0.09367605 0.42500001
v -0.28749999 0.11000000 0.42500001
v 0.28749999 -0.15000001 0.42500001
v 0.28749999 -0.09079063 0.42500001
v -0.28749999 0.15000001 0.42500001
v 0.28749999 0.15000001 0.42500001
v 0.28749999 0.11000000 0.42500001
v 0.33750001 0.11000000 0.42500001
v 0.33750001 -0.09079063 0.42500001
v 0.28749999 0.11000000 0.42500001
v 0.28749999 -0.09079063 0.42500001
v -0.28749999 0.15000001 0.42500001
v -0.28749999 0.11000000 0.42500001
v 0.33750001 -0.15000001 0.77499998
v 0.33750001 0.15000001 0.77499998
v -0.33750001 -0.15000001 0.77499998
v -0.33750001 0.15000001 0.77499998
v 0.33750001 -0.11000000 0.12500000
v 0.33750001 0.09079063 0.12500000
v 0.28749999 -0.11000000 0.12500000
v 0.28749999 0.09079063 0.12500000
v -0.28749999 -0.15000001 0.12500000
v 0.28749999 -0.15000001 0.12500000
v -0.28749999 -0.11000000 0.12500000
v -0.28749999 0.09367605 0.12500000
v -0.33750001 -0.11000000 0.12500000
v -0.33750001 0.09367605 0.12500000
v 0.28749999 0.15000001 0.12500000
v -0.28749999 0.15000001 0.12500000
v 0.28749999 0.09079063 0.12500000
v -0.28749999 0.09367605 0.12500000
v 0.28749999 -0.11000000 0.12500000
v 0.28749999 -0.15000001 0.12500000
v -0.29750001 0.12000000 0.10000000
v -0.29750001 0.15000001 0.10000000
v 0.29750001 0.15000001 0.10000000
v 0.29750001 -0.12000000 0.10000000
v 0.29750001 -0.15000001 0.10000000
v -0.29750001 -0.15000001 0.10000000
v -0.29750001 -0.12000000 0.10000000
v -0.33750001 -0.12000000 0.10000000
v -0.33750001 0.12000000 0.10000000
v 0.29750001 0.12000000 0.10000000
v 0.33750001 0.12000000 0.10000000
v 0.33750001 -0.12000000 0.10000000
v 0.33750001 -0.12000000 0.10000000
v 0.29750001 -0.12000000 0.10000000
v 0.29750001 0.12000000 0.10000000
v -0.29750001 -0.15000001 0.10000000
v 0.29750001 0.15000001 0.10000000
v -0.29750001 -0.12000000 0.10000000
v -0.29750001 0.12000000 0.10000000
v -0.33750001 0.12000000 0.10000000
f 1 2 3
f 3 2 4
f 5 6 7
f 7 6 8
f 9 10 11
f 11 10 12
f 11 12 13
f 13 12 14
f 13 14 15
f 15 14 16
f 17 18 19
f 19 18 20
f 21 22 23
f 23 22 24
f 25 26 27
f 27 26 28
f 27 28 29
f 29 28 30
f 29 30 31
f 31 30 32
f 33 34 35
f 36 37 38
f 38 37 39
f 38 39 40
f 40 39 41
f 42 43 44
f 45 46 47
f 47 46 48
f 47 48 49
f 49 48 50
f 51 52 53
f 53 52 54
f 55 56 57
f 57 56 58
f 59 60 61
f 61 60 62
f 61 62 63
f 63 62 64
f 65 66 67
f 67 66 68
f 67 68 69
f 69 68 70
f 71 72 73
f 74 75 76
f 77 78 79
f 80 81 82
f 83 84 85
f 85 84 86
f 85 86 87
f 87 86 88
f 87 88 89
f 89 88 90

