# https://github.com/mikedh/trimesh
mtllib material.mtl
usemtl cart
v -0.33966375 -0.20099250 0.64554225
v -0.33966375 -0.20099250 0.64554225
v -0.33966375 -0.20099250 0.64554225
v -0.33966375 -0.20099250 0.64554225
v -0.33425025 -0.21337875 0.63066825
v -0.33425025 -0.21337875 0.63066825
v -0.33425025 -0.21337875 0.63066825
v -0.33425025 -0.21337875 0.63066825
v -0.31924350 -0.21337875 0.63613050
v -0.31924350 -0.21337875 0.63613050
v -0.31924350 -0.21337875 0.63613050
v -0.31924350 -0.21337875 0.63613050
v -0.32465700 -0.20099250 0.65100450
v -0.32465700 -0.20099250 0.65100450
v -0.32465700 -0.20099250 0.65100450
v -0.32465700 -0.20099250 0.65100450
v 0.33750000 -0.22500525 0.12397275
v 0.33750000 -0.22500525 0.12397275
v 0.33750000 -0.22500525 0.12397275
v 0.33750000 -0.22500525 0.07498200
v 0.33750000 -0.22500525 0.07498200
v 0.33750000 -0.22500525 0.07498200
v 0.33750000 -0.21337950 0.07498200
v 0.33750000 -0.21337950 0.07498200
v 0.33750000 -0.21337950 0.12397275
v 0.33750000 -0.21337950 0.12397275
v -0.26250075 -0.21337875 0.07498200
v -0.28453875 -0.21337875 0.07498200
v -0.28453875 -0.20099250 0.07498200
v -0.26250075 -0.20099250 0.07498200
v -0.20622300 -0.19583250 0.03759300
v -0.20622300 -0.19583250 0.03759300
v -0.20622300 -0.19918200 0.03757500
v -0.20622300 -0.19918200 0.03757500
v -0.20622300 -0.19918200 0.03757500
v -0.20622300 -0.19918200 0.03757500
v -0.21377775 -0.19918200 0.03757500
v -0.21377775 -0.19918200 0.03757500
v -0.21377775 -0.19918200 0.03757500
v -0.21377775 -0.19918200 0.03757500
v -0.21377775 -0.19583250 0.03759300
v -0.21377775 -0.19583250 0.03759300
v 0.33750000 0.22500525 0.07498200
v 0.33750000 0.22500525 0.07498200
v 0.33750000 0.22500525 0.07498200
v -0.26250075 0.22500525 0.07498200
v -0.26250075 0.22500525 0.07498200
v -0.26250075 0.22500525 0.12397275
v -0.26250075 0.22500525 0.12397275
v -0.26250075 0.22500525 0.12397275
v -0.26250075 0.22500525 0.12397275
v 0.33750000 0.22500525 0.12397275
v 0.33750000 0.22500525 0.12397275
v 0.33750000 0.22500525 0.12397275
v -0.28453875 0.20099250 0.42705225
v -0.28453875 0.20099250 0.42705225
v -0.28453875 0.20099250 0.42705225
v -0.28453875 0.20099250 0.42705225
v -0.28453875 0.21337875 0.42705225
v -0.28453875 0.21337875 0.42705225
v -0.28453875 0.21337875 0.53996550
v -0.28453875 0.21337875 0.53996550
v -0.28453875 0.21337875 0.53996550
v -0.28453875 0.21337875 0.53996550
v -0.28453875 0.20099250 0.53996550
v -0.28453875 0.20099250 0.53996550
v -0.28453875 0.20099250 0.53996550
v -0.28453875 0.20099250 0.53996550
v -0.33743775 -0.21337875 0.07498200
v -0.33743775 -0.21337875 0.07498200
v -0.30050850 -0.21337875 0.07498200
v -0.30050850 -0.22500525 0.07498200
v -0.30050850 -0.22500525 0.07498200
v -0.33743775 -0.22500525 0.07498200
v -0.33743775 -0.22500525 0.07498200
v -0.33743775 -0.22500525 0.07498200
v -0.17258325 -0.20099250 0.05299875
v -0.17258325 -0.20099250 0.05299875
v -0.17258325 -0.20099250 0.05299875
v -0.17258325 -0.20099250 0.02200125
v -0.17258325 -0.20099250 0.02200125
v -0.17258325 -0.20099250 0.02200125
v -0.17258250 -0.17851200 0.02200125
v -0.17258250 -0.17851200 0.02200125
v -0.17258250 -0.17851200 0.02200125
v -0.17258250 -0.17851200 0.05299875
v -0.17258250 -0.17851200 0.05299875
v -0.17258250 -0.17851200 0.05299875
v -0.28453875 0.20099250 0.12397275
v -0.28453875 0.20099250 0.12397275
v -0.28453875 0.20099250 0.15756750
v -0.28453875 0.20099250 0.15756750
v -0.28453875 0.20099250 0.15756750
v -0.28453875 0.20099250 0.15756750
v -0.30050850 0.20099250 0.15756750
v -0.30050850 0.20099250 0.15756750
v -0.30050850 0.20099250 0.15756750
v -0.30050850 0.20099250 0.15756750
v -0.30050850 0.20099250 0.12397275
v -0.30050850 0.20099250 0.12397275
v -0.30050850 -0.22500525 0.12397275
v -0.30050850 -0.22500525 0.12397275
v -0.28453875 -0.22500525 0.07498200
v -0.28453875 -0.22500525 0.07498200
v -0.28453875 -0.22500525 0.12397275
v -0.28453875 -0.22500525 0.12397275
v -0.30050850 0.20099250 0.33402375
v -0.30050850 0.20099250 0.33402375
v -0.30050850 0.20099250 0.33402375
v -0.30050850 0.20099250 0.33402375
v -0.30050850 0.21337875 0.33402375
v -0.30050850 0.21337875 0.33402375
v -0.30050850 0.21337875 0.15756750
v -0.30050850 0.21337875 0.15756750
v -0.30050850 0.21337875 0.15756750
v -0.20622300 0.19583250 0.03759300
v -0.20622300 0.19583250 0.03759300
v -0.21377775 0.19583250 0.03759300
v -0.21377775 0.19583250 0.03759300
v -0.21377775 0.19918200 0.03757500
v -0.21377775 0.19918200 0.03757500
v -0.21377775 0.19918200 0.03757500
v -0.21377775 0.19918200 0.03757500
v -0.20622300 0.19918200 0.03757500
v -0.20622300 0.19918200 0.03757500
v -0.20622300 0.19918200 0.03757500
v -0.20622300 0.19918200 0.03757500
v -0.26250075 -0.21337875 0.12397275
v -0.26250075 -0.21337875 0.12397275
v -0.26250075 -0.20099250 0.12397275
v -0.26250075 -0.20099250 0.12397275
v -0.26250075 -0.20099250 0.12397275
v -0.28453875 -0.20099250 0.15756750
v -0.28453875 -0.20099250 0.15756750
v -0.28453875 -0.20099250 0.15756750
v -0.28453875 -0.20099250 0.15756750
v -0.28453875 -0.21337875 0.15756750
v -0.28453875 -0.21337875 0.15756750
v -0.28453875 -0.21337875 0.15756750
v -0.28453875 -0.21337875 0.15756750
v 0.33750000 0.20099250 0.07498200
v 0.33750000 0.20099250 0.07498200
v 0.33750000 -0.20099250 0.07498200
v 0.33750000 -0.20099250 0.07498200
v -0.26250075 0.20099250 0.07498200
v -0.22549875 -0.20099250 0.00008325
v -0.22549875 -0.20099250 0.00008325
v -0.22549875 -0.20099250 0.00008325
v -0.22549875 -0.17851200 0.00008325
v -0.22549875 -0.17851200 0.00008325
v -0.22549875 -0.17851200 0.00008325
v -0.19450125 -0.17851200 0.00008325
v -0.19450125 -0.17851200 0.00008325
v -0.19450125 -0.17851200 0.00008325
v -0.19450125 -0.20099250 0.00008325
v -0.19450125 -0.20099250 0.00008325
v -0.19450125 -0.20099250 0.00008325
v -0.26250075 -0.22500525 0.12397275
v -0.26250075 -0.22500525 0.12397275
v -0.26250075 -0.22500525 0.12397275
v -0.26250075 -0.22500525 0.12397275
v -0.26250075 -0.22500525 0.07498200
v -0.26250075 -0.22500525 0.07498200
v -0.28453875 0.21337875 0.15756750
v -0.28453875 0.21337875 0.15756750
v -0.28453875 0.21337875 0.15756750
v -0.28453875 0.21337875 0.15756750
v -0.28453875 0.21337875 0.33402375
v -0.28453875 0.21337875 0.33402375
v -0.28453875 0.20099250 0.33402375
v -0.28453875 0.20099250 0.33402375
v -0.28453875 0.20099250 0.33402375
v -0.28453875 0.20099250 0.33402375
v 0.33750000 -0.20099250 0.12397275
v 0.33750000 -0.20099250 0.12397275
v 0.33750000 0.20099250 0.12397275
v 0.33750000 0.20099250 0.12397275
v -0.26250075 0.20099250 0.12397275
v -0.26250075 0.20099250 0.12397275
v -0.26250075 0.20099250 0.12397275
v -0.17258250 0.17851200 0.02200125
v -0.17258250 0.17851200 0.02200125
v -0.17258250 0.17851200 0.02200125
v -0.17258325 0.20099250 0.02200125
v -0.17258325 0.20099250 0.02200125
v -0.17258325 0.20099250 0.02200125
v -0.17258325 0.20099250 0.05299875
v -0.17258325 0.20099250 0.05299875
v -0.17258325 0.20099250 0.05299875
v -0.17258250 0.17851200 0.05299875
v -0.17258250 0.17851200 0.05299875
v -0.17258250 0.17851200 0.05299875
v -0.33425025 0.21337875 0.63066825
v -0.33425025 0.21337875 0.63066825
v -0.33425025 0.21337875 0.63066825
v -0.33425025 0.21337875 0.63066825
v -0.33015375 0.20099250 0.61965675
v -0.33015375 0.20099250 0.61965675
v -0.33015375 0.20099250 0.61965675
v -0.33015375 0.20099250 0.61965675
v -0.33425025 0.19176150 0.63163650
v -0.33425025 0.19176150 0.63163650
v -0.33425025 0.19176150 0.63163650
v -0.33425025 0.19176150 0.63163650
v -0.33966375 0.20099250 0.64554225
v -0.33966375 0.20099250 0.64554225
v -0.33966375 0.20099250 0.64554225
v -0.33966375 0.20099250 0.64554225
v -0.30050850 -0.20099250 0.42705225
v -0.30050850 -0.20099250 0.42705225
v -0.30050850 -0.20099250 0.42705225
v -0.30050850 -0.20099250 0.42705225
v -0.28453875 -0.20099250 0.42705225
v -0.28453875 -0.20099250 0.42705225
v -0.28453875 -0.20099250 0.42705225
v -0.28453875 -0.20099250 0.42705225
v -0.30050850 0.20099250 0.42705225
v -0.30050850 0.20099250 0.42705225
v -0.30050850 0.20099250 0.42705225
v -0.30050850 0.20099250 0.42705225
v -0.30050850 0.21337875 0.42705225
v -0.30050850 0.21337875 0.42705225
v -0.28453875 -0.22500525 0.15756750
v -0.28453875 -0.22500525 0.15756750
v -0.28453875 -0.22500525 0.15756750
v -0.30050850 0.21337875 0.07498200
v -0.30050850 0.22500525 0.07498200
v -0.30050850 0.22500525 0.07498200
v -0.28453875 0.22500525 0.07498200
v -0.28453875 0.22500525 0.07498200
v -0.28453875 0.21337875 0.07498200
v -0.28453875 0.22500525 0.15756750
v -0.28453875 0.22500525 0.15756750
v -0.28453875 0.22500525 0.15756750
v -0.30050850 0.22500525 0.15756750
v -0.30050850 0.22500525 0.15756750
v -0.28453875 -0.21337875 0.33402375
v -0.28453875 -0.21337875 0.33402375
v -0.28453875 -0.21337875 0.42705225
v -0.28453875 -0.21337875 0.42705225
v -0.30050850 -0.21337875 0.42705225
v -0.30050850 -0.21337875 0.42705225
v -0.30050850 -0.21337875 0.33402375
v -0.30050850 -0.21337875 0.33402375
v -0.28453875 0.20099250 0.07498200
v -0.30050850 0.20099250 0.07498200
v -0.28453875 -0.20099250 0.12397275
v -0.28453875 -0.20099250 0.12397275
v 0.33750000 0.21337950 0.07498200
v 0.33750000 0.21337950 0.07498200
v -0.26250075 0.21337875 0.07498200
v -0.33743775 0.20099250 0.07498200
v -0.33743775 0.20099250 0.07498200
v -0.33743775 0.21337875 0.07498200
v -0.33743775 0.21337875 0.07498200
v 0.21206250 -0.20099250 0.00008325
v 0.21206250 -0.20099250 0.00008325
v 0.21206250 -0.20099250 0.00008325
v 0.21206250 -0.17851200 0.00008325
v 0.21206250 -0.17851200 0.00008325
v 0.21206250 -0.17851200 0.00008325
v 0.24306000 -0.17851200 0.00008325
v 0.24306000 -0.17851200 0.00008325
v 0.24306000 -0.17851200 0.00008325
v 0.24306000 -0.20099250 0.00008325
v 0.24306000 -0.20099250 0.00008325
v 0.24306000 -0.20099250 0.00008325
v 0.19014450 0.20099250 0.05299875
v 0.19014450 0.20099250 0.05299875
v 0.19014450 0.20099250 0.05299875
v 0.19014450 0.20099250 0.02200125
v 0.19014450 0.20099250 0.02200125
v 0.19014450 0.20099250 0.02200125
v 0.19014450 0.17851200 0.02200125
v 0.19014450 0.17851200 0.02200125
v 0.19014450 0.17851200 0.02200125
v 0.19014450 0.17851200 0.05299875
v 0.19014450 0.17851200 0.05299875
v 0.19014450 0.17851200 0.05299875
v 0.33750000 0.21337950 0.12397275
v 0.33750000 0.21337950 0.12397275
v -0.30050850 -0.21337875 0.53996550
v -0.30050850 -0.21337875 0.53996550
v -0.30050850 -0.21337875 0.53996550
v -0.30050850 -0.21337875 0.53996550
v -0.28453875 -0.21337875 0.53996550
v -0.28453875 -0.21337875 0.53996550
v -0.28453875 -0.21337875 0.53996550
v -0.28453875 -0.21337875 0.53996550
v -0.26250075 0.21337875 0.12397275
v -0.26250075 0.21337875 0.12397275
v -0.30050850 -0.21337875 0.15756750
v -0.30050850 -0.21337875 0.15756750
v -0.30050850 -0.21337875 0.15756750
v -0.30050850 -0.22500525 0.15756750
v -0.30050850 -0.22500525 0.15756750
v -0.22551450 -0.20099250 0.07498200
v -0.22551450 -0.20099250 0.07498200
v -0.22551450 -0.20099250 0.07498200
v -0.22334625 -0.20099250 0.06968700
v -0.22334625 -0.20099250 0.06968700
v -0.22334625 -0.20099250 0.06968700
v -0.22334625 -0.20099250 0.06968700
v -0.22334625 -0.20099250 0.06968700
v -0.22334625 -0.20589975 0.06969150
v -0.22334625 -0.20589975 0.06969150
v -0.22334625 -0.20589975 0.06969150
v -0.22334625 -0.20589975 0.06969150
v -0.22551450 -0.20589975 0.07498200
v -0.22551450 -0.20589975 0.07498200
v -0.33425025 -0.19176150 0.63163650
v -0.33425025 -0.19176150 0.63163650
v -0.33425025 -0.19176150 0.63163650
v -0.33425025 -0.19176150 0.63163650
v -0.33015375 -0.20099250 0.61965675
v -0.33015375 -0.20099250 0.61965675
v -0.33015375 -0.20099250 0.61965675
v -0.33015375 -0.20099250 0.61965675
v -0.24741750 -0.20099250 0.02200125
v -0.24741750 -0.20099250 0.02200125
v -0.24741750 -0.20099250 0.02200125
v -0.24741750 -0.17851200 0.02200125
v -0.24741750 -0.17851200 0.02200125
v -0.24741750 -0.17851200 0.02200125
v 0.23133900 -0.19583250 0.03759300
v 0.23133900 -0.19583250 0.03759300
v 0.23133900 -0.19918200 0.03757500
v 0.23133900 -0.19918200 0.03757500
v 0.23133900 -0.19918200 0.03757500
v 0.23133900 -0.19918200 0.03757500
v 0.22378425 -0.19918200 0.03757500
v 0.22378425 -0.19918200 0.03757500
v 0.22378425 -0.19918200 0.03757500
v 0.22378425 -0.19918200 0.03757500
v 0.22378425 -0.19583250 0.03759300
v 0.22378425 -0.19583250 0.03759300
v -0.31525575 -0.20099250 0.62508000
v -0.31525575 -0.20099250 0.62508000
v -0.31525575 -0.20099250 0.62508000
v -0.31525575 -0.20099250 0.62508000
v -0.28453875 -0.20099250 0.53996550
v -0.28453875 -0.20099250 0.53996550
v -0.28453875 -0.20099250 0.53996550
v -0.28453875 -0.20099250 0.53996550
v -0.30050850 -0.20099250 0.07498200
v -0.33743775 -0.20099250 0.07498200
v -0.33743775 -0.20099250 0.07498200
v 0.23133900 0.19583250 0.03759300
v 0.23133900 0.19583250 0.03759300
v 0.22378425 0.19583250 0.03759300
v 0.22378425 0.19583250 0.03759300
v 0.22378425 0.19918200 0.03757500
v 0.22378425 0.19918200 0.03757500
v 0.22378425 0.19918200 0.03757500
v 0.22378425 0.19918200 0.03757500
v 0.23133900 0.19918200 0.03757500
v 0.23133900 0.19918200 0.03757500
v 0.23133900 0.19918200 0.03757500
v 0.23133900 0.19918200 0.03757500
v -0.30050850 -0.20099250 0.15756750
v -0.30050850 -0.20099250 0.15756750
v -0.30050850 -0.20099250 0.15756750
v -0.30050850 -0.20099250 0.15756750
v -0.30050850 -0.20099250 0.33402375
v -0.30050850 -0.20099250 0.33402375
v -0.30050850 -0.20099250 0.33402375
v -0.30050850 -0.20099250 0.33402375
v -0.28453875 -0.20099250 0.33402375
v -0.28453875 -0.20099250 0.33402375
v -0.28453875 -0.20099250 0.33402375
v -0.28453875 -0.20099250 0.33402375
v 0.26497875 -0.20099250 0.05299875
v 0.26497875 -0.20099250 0.05299875
v 0.26497875 -0.20099250 0.05299875
v 0.26497875 -0.20099250 0.02200125
v 0.26497875 -0.20099250 0.02200125
v 0.26497875 -0.20099250 0.02200125
v 0.26497875 -0.17851200 0.02200125
v 0.26497875 -0.17851200 0.02200125
v 0.26497875 -0.17851200 0.02200125
v 0.26497875 -0.17851200 0.05299875
v 0.26497875 -0.17851200 0.05299875
v 0.26497875 -0.17851200 0.05299875
v -0.33743775 0.20099250 0.12397275
v -0.33743775 0.20099250 0.12397275
v -0.33743775 0.20099250 0.12397275
v -0.33743775 0.20099250 0.12397275
v -0.33743775 0.21337875 0.12397275
v -0.33743775 0.21337875 0.12397275
v 0.26497875 0.17851200 0.02200125
v 0.26497875 0.17851200 0.02200125
v 0.26497875 0.17851200 0.02200125
v 0.26497875 0.20099250 0.02200125
v 0.26497875 0.20099250 0.02200125
v 0.26497875 0.20099250 0.02200125
v 0.26497875 0.20099250 0.05299875
v 0.26497875 0.20099250 0.05299875
v 0.26497875 0.20099250 0.05299875
v 0.26497875 0.17851200 0.05299875
v 0.26497875 0.17851200 0.05299875
v 0.26497875 0.17851200 0.05299875
v -0.30050850 0.20099250 0.53996550
v -0.30050850 0.20099250 0.53996550
v -0.30050850 0.20099250 0.53996550
v -0.30050850 0.20099250 0.53996550
v -0.30050850 0.21337875 0.53996550
v -0.30050850 0.21337875 0.53996550
v -0.30050850 0.21337875 0.53996550
v -0.30050850 0.21337875 0.53996550
v 0.24307575 0.20099250 0.07498200
v 0.24307575 0.20099250 0.07498200
v 0.24307575 0.20099250 0.07498200
v 0.24307575 0.17851200 0.07498200
v 0.24307575 0.17851200 0.07498200
v -0.32249775 0.20099250 0.15756750
v -0.32249775 0.20099250 0.15756750
v -0.32249775 0.20099250 0.15756750
v -0.19665450 -0.17851200 0.06968700
v -0.19665450 -0.17851200 0.06968700
v -0.19665450 -0.17851200 0.06968700
v -0.22334625 -0.17851200 0.06968700
v -0.22334625 -0.17851200 0.06968700
v -0.22334625 -0.17851200 0.06968700
v -0.22551450 -0.17851200 0.07498200
v -0.22551450 -0.17851200 0.07498200
v -0.19448550 -0.17851200 0.07498200
v -0.19448550 -0.17851200 0.07498200
v 0.21422925 -0.17851200 0.00531300
v 0.21422925 -0.17851200 0.00531300
v 0.21422925 -0.17851200 0.00531300
v 0.24089325 -0.17851200 0.00531300
v 0.24089325 -0.17851200 0.00531300
v 0.24089325 -0.17851200 0.00531300
v -0.30050850 -0.20099250 0.12397275
v -0.30050850 -0.20099250 0.12397275
v -0.17781300 0.20099250 0.05083200
v -0.17781300 0.20099250 0.05083200
v -0.17781300 0.20099250 0.05083200
v -0.19665450 0.20099250 0.06968700
v -0.19665450 0.20099250 0.06968700
v -0.19665450 0.20099250 0.06968700
v -0.19665450 0.20099250 0.06968700
v -0.19665450 0.20099250 0.06968700
v -0.19448550 0.20099250 0.07498200
v -0.19448550 0.20099250 0.07498200
v -0.19448550 0.20099250 0.07498200
v -0.19666800 0.20099250 0.00531300
v -0.19666800 0.20099250 0.00531300
v -0.19666800 0.20099250 0.00531300
v -0.17781300 0.20099250 0.02416800
v -0.17781300 0.20099250 0.02416800
v -0.17781300 0.20099250 0.02416800
v -0.19450125 0.20099250 0.00008325
v -0.19450125 0.20099250 0.00008325
v -0.19450125 0.20099250 0.00008325
v -0.19448550 0.17851200 0.07498200
v -0.19448550 0.17851200 0.07498200
v 0.24090750 0.17851200 0.06968700
v 0.24090750 0.17851200 0.06968700
v 0.24090750 0.17851200 0.06968700
v 0.25974825 0.17851200 0.05083200
v 0.25974825 0.17851200 0.05083200
v 0.25974825 0.17851200 0.05083200
v -0.19666800 -0.20099250 0.00531300
v -0.19666800 -0.20099250 0.00531300
v -0.19666800 -0.20099250 0.00531300
v -0.22333200 -0.20099250 0.00531300
v -0.22333200 -0.20099250 0.00531300
v -0.22333200 -0.20099250 0.00531300
v -0.24741750 0.17851200 0.05299875
v -0.24741750 0.17851200 0.05299875
v -0.24741750 0.17851200 0.05299875
v -0.24218700 0.17851200 0.05083200
v -0.24218700 0.17851200 0.05083200
v -0.24218700 0.17851200 0.05083200
v -0.22334625 0.17851200 0.06968700
v -0.22334625 0.17851200 0.06968700
v -0.22334625 0.17851200 0.06968700
v -0.22551450 0.17851200 0.07498200
v -0.22551450 0.17851200 0.07498200
v -0.24218700 -0.20099250 0.02416800
v -0.24218700 -0.20099250 0.02416800
v -0.24218700 -0.20099250 0.02416800
v -0.24218700 -0.20099250 0.05083200
v -0.24218700 -0.20099250 0.05083200
v -0.24218700 -0.20099250 0.05083200
v -0.24741750 -0.20099250 0.05299875
v -0.24741750 -0.20099250 0.05299875
v -0.24741750 -0.20099250 0.05299875
v 0.19537500 0.17851200 0.02416800
v 0.19537500 0.17851200 0.02416800
v 0.19537500 0.17851200 0.02416800
v 0.19537500 0.17851200 0.05083200
v 0.19537500 0.17851200 0.05083200
v 0.19537500 0.17851200 0.05083200
v -0.24741750 -0.17851200 0.05299875
v -0.24741750 -0.17851200 0.05299875
v -0.24741750 -0.17851200 0.05299875
v -0.24218700 -0.17851200 0.05083200
v -0.24218700 -0.17851200 0.05083200
v -0.24218700 -0.17851200 0.05083200
v -0.24218700 -0.17851200 0.02416800
v -0.24218700 -0.17851200 0.02416800
v -0.24218700 -0.17851200 0.02416800
v 0.21206250 0.20099250 0.00008325
v 0.21206250 0.20099250 0.00008325
v 0.21206250 0.20099250 0.00008325
v 0.21206250 0.17851200 0.00008325
v 0.21206250 0.17851200 0.00008325
v 0.21206250 0.17851200 0.00008325
v -0.22333200 0.17851200 0.00531300
v -0.22333200 0.17851200 0.00531300
v -0.22333200 0.17851200 0.00531300
v -0.22549875 0.17851200 0.00008325
v -0.22549875 0.17851200 0.00008325
v -0.22549875 0.17851200 0.00008325
v -0.19450125 0.17851200 0.00008325
v -0.19450125 0.17851200 0.00008325
v -0.19450125 0.17851200 0.00008325
v -0.19666800 0.17851200 0.00531300
v -0.19666800 0.17851200 0.00531300
v -0.19666800 0.17851200 0.00531300
v -0.22333200 0.20099250 0.00531300
v -0.22333200 0.20099250 0.00531300
v -0.22333200 0.20099250 0.00531300
v -0.22549875 0.20099250 0.00008325
v -0.22549875 0.20099250 0.00008325
v -0.22549875 0.20099250 0.00008325
v 0.25974825 0.20099250 0.05083200
v 0.25974825 0.20099250 0.05083200
v 0.25974825 0.20099250 0.05083200
v 0.24090750 0.20099250 0.06968700
v 0.24090750 0.20099250 0.06968700
v 0.24090750 0.20099250 0.06968700
v 0.24090750 0.20099250 0.06968700
v 0.24090750 0.20099250 0.06968700
v -0.22234650 0.19583250 0.06727575
v -0.22234650 0.19583250 0.06727575
v -0.22234650 0.19583250 0.06727575
v -0.22334625 0.20099250 0.06968700
v -0.22334625 0.20099250 0.06968700
v -0.22334625 0.20099250 0.06968700
v -0.22334625 0.20099250 0.06968700
v -0.22334625 0.20099250 0.06968700
v 0.24090750 0.20589975 0.06969150
v 0.24090750 0.20589975 0.06969150
v 0.24090750 0.20589975 0.06969150
v 0.24090750 0.20589975 0.06969150
v 0.24307575 0.20589975 0.07498200
v 0.24307575 0.20589975 0.07498200
v -0.17781300 0.17851200 0.05083200
v -0.17781300 0.17851200 0.05083200
v -0.17781300 0.17851200 0.05083200
v -0.17781300 0.17851200 0.02416800
v -0.17781300 0.17851200 0.02416800
v -0.17781300 0.17851200 0.02416800
v 0.19537500 0.20099250 0.02416800
v 0.19537500 0.20099250 0.02416800
v 0.19537500 0.20099250 0.02416800
v 0.21422925 0.20099250 0.00531300
v 0.21422925 0.20099250 0.00531300
v 0.21422925 0.20099250 0.00531300
v 0.19014450 -0.20099250 0.05299875
v 0.19014450 -0.20099250 0.05299875
v 0.19014450 -0.20099250 0.05299875
v 0.19537500 -0.20099250 0.05083200
v 0.19537500 -0.20099250 0.05083200
v 0.19537500 -0.20099250 0.05083200
v 0.21421575 -0.20099250 0.06968700
v 0.21421575 -0.20099250 0.06968700
v 0.21421575 -0.20099250 0.06968700
v 0.21421575 -0.20099250 0.06968700
v 0.21421575 -0.20099250 0.06968700
v 0.21204675 -0.20099250 0.07498200
v 0.21204675 -0.20099250 0.07498200
v 0.21204675 -0.20099250 0.07498200
v 0.25974825 -0.17851200 0.05083200
v 0.25974825 -0.17851200 0.05083200
v 0.25974825 -0.17851200 0.05083200
v 0.25733700 -0.18367275 0.04983375
v 0.25733700 -0.18367275 0.04983375
v 0.25733700 -0.18367275 0.04983375
v 0.23990775 -0.18367275 0.06727575
v 0.23990775 -0.18367275 0.06727575
v 0.23990775 -0.18367275 0.06727575
v 0.24090750 -0.17851200 0.06968700
v 0.24090750 -0.17851200 0.06968700
v 0.24090750 -0.17851200 0.06968700
v 0.25733700 0.19583250 0.04983375
v 0.25733700 0.19583250 0.04983375
v 0.25733700 0.19583250 0.04983375
v 0.23990775 0.19583250 0.06727575
v 0.23990775 0.19583250 0.06727575
v 0.23990775 0.19583250 0.06727575
v 0.21521550 -0.18367275 0.06727575
v 0.21521550 -0.18367275 0.06727575
v 0.21521550 -0.18367275 0.06727575
v 0.21421575 -0.17851200 0.06968700
v 0.21421575 -0.17851200 0.06968700
v 0.21421575 -0.17851200 0.06968700
v -0.23977575 0.18367200 0.04983375
v -0.23977575 0.18367200 0.04983375
v -0.23977575 0.18367200 0.04983375
v -0.24218700 0.17851200 0.02416800
v -0.24218700 0.17851200 0.02416800
v -0.24218700 0.17851200 0.02416800
v -0.23977575 0.18367200 0.02516625
v -0.23977575 0.18367200 0.02516625
v -0.23977575 0.18367200 0.02516625
v 0.21422925 0.17851200 0.00531300
v 0.21422925 0.17851200 0.00531300
v 0.21422925 0.17851200 0.00531300
v 0.21522750 0.18367275 0.00772425
v 0.21522750 0.18367275 0.00772425
v 0.21522750 0.18367275 0.00772425
v 0.19778550 0.18367275 0.02516625
v 0.19778550 0.18367275 0.02516625
v 0.19778550 0.18367275 0.02516625
v -0.17781300 -0.17851200 0.02416800
v -0.17781300 -0.17851200 0.02416800
v -0.17781300 -0.17851200 0.02416800
v -0.19666800 -0.17851200 0.00531300
v -0.19666800 -0.17851200 0.00531300
v -0.19666800 -0.17851200 0.00531300
v -0.19766625 -0.18367200 0.00772425
v -0.19766625 -0.18367200 0.00772425
v -0.19766625 -0.18367200 0.00772425
v -0.18022425 -0.18367200 0.02516625
v -0.18022425 -0.18367200 0.02516625
v -0.18022425 -0.18367200 0.02516625
v -0.19766625 0.19583250 0.00772425
v -0.19766625 0.19583250 0.00772425
v -0.19766625 0.19583250 0.00772425
v -0.18022425 0.19583250 0.02516625
v -0.18022425 0.19583250 0.02516625
v -0.18022425 0.19583250 0.02516625
v -0.17781300 -0.20099250 0.05083200
v -0.17781300 -0.20099250 0.05083200
v -0.17781300 -0.20099250 0.05083200
v -0.19665450 -0.20099250 0.06968700
v -0.19665450 -0.20099250 0.06968700
v -0.19665450 -0.20099250 0.06968700
v -0.19665450 -0.20099250 0.06968700
v -0.19665450 -0.20099250 0.06968700
v -0.19765350 -0.19583250 0.06727575
v -0.19765350 -0.19583250 0.06727575
v -0.19765350 -0.19583250 0.06727575
v -0.18022425 -0.19583250 0.04983375
v -0.18022425 -0.19583250 0.04983375
v -0.18022425 -0.19583250 0.04983375
v -0.23977575 -0.18367200 0.04983375
v -0.23977575 -0.18367200 0.04983375
v -0.23977575 -0.18367200 0.04983375
v -0.23977575 -0.18367200 0.02516625
v -0.23977575 -0.18367200 0.02516625
v -0.23977575 -0.18367200 0.02516625
v -0.22234650 -0.18367200 0.06727575
v -0.22234650 -0.18367200 0.06727575
v -0.22234650 -0.18367200 0.06727575
v 0.21422925 -0.20099250 0.00531300
v 0.21422925 -0.20099250 0.00531300
v 0.21422925 -0.20099250 0.00531300
v 0.21522750 -0.19583250 0.00772425
v 0.21522750 -0.19583250 0.00772425
v 0.21522750 -0.19583250 0.00772425
v 0.19778550 -0.19583250 0.02516625
v 0.19778550 -0.19583250 0.02516625
v 0.19778550 -0.19583250 0.02516625
v 0.19537500 -0.20099250 0.02416800
v 0.19537500 -0.20099250 0.02416800
v 0.19537500 -0.20099250 0.02416800
v -0.22233375 0.18367200 0.00772425
v -0.22233375 0.18367200 0.00772425
v -0.22233375 0.18367200 0.00772425
v 0.24089325 0.20099250 0.00531300
v 0.24089325 0.20099250 0.00531300
v 0.24089325 0.20099250 0.00531300
v 0.23989500 0.19583250 0.00772425
v 0.23989500 0.19583250 0.00772425
v 0.23989500 0.19583250 0.00772425
v 0.25733700 0.19583250 0.02516625
v 0.25733700 0.19583250 0.02516625
v 0.25733700 0.19583250 0.02516625
v 0.25974825 0.20099250 0.02416800
v 0.25974825 0.20099250 0.02416800
v 0.25974825 0.20099250 0.02416800
v 0.24307575 -0.20099250 0.07498200
v 0.24307575 -0.20099250 0.07498200
v 0.24307575 -0.20099250 0.07498200
v 0.24307575 -0.20589975 0.07498200
v 0.24307575 -0.20589975 0.07498200
v 0.24090750 -0.20589975 0.06969150
v 0.24090750 -0.20589975 0.06969150
v 0.24090750 -0.20589975 0.06969150
v 0.24090750 -0.20589975 0.06969150
v 0.24090750 -0.20099250 0.06968700
v 0.24090750 -0.20099250 0.06968700
v 0.24090750 -0.20099250 0.06968700
v 0.24090750 -0.20099250 0.06968700
v 0.24090750 -0.20099250 0.06968700
v -0.23977575 0.19583250 0.04983375
v -0.23977575 0.19583250 0.04983375
v -0.23977575 0.19583250 0.04983375
v -0.23977575 0.19583250 0.02516625
v -0.23977575 0.19583250 0.02516625
v -0.23977575 0.19583250 0.02516625
v -0.24218700 0.20099250 0.02416800
v -0.24218700 0.20099250 0.02416800
v -0.24218700 0.20099250 0.02416800
v -0.24218700 0.20099250 0.05083200
v -0.24218700 0.20099250 0.05083200
v -0.24218700 0.20099250 0.05083200
v 0.25974825 -0.17851200 0.02416800
v 0.25974825 -0.17851200 0.02416800
v 0.25974825 -0.17851200 0.02416800
v 0.23989500 -0.18367275 0.00772425
v 0.23989500 -0.18367275 0.00772425
v 0.23989500 -0.18367275 0.00772425
v 0.25733700 -0.18367275 0.02516625
v 0.25733700 -0.18367275 0.02516625
v 0.25733700 -0.18367275 0.02516625
v -0.22234650 -0.19583250 0.06727575
v -0.22234650 -0.19583250 0.06727575
v -0.22234650 -0.19583250 0.06727575
v -0.23977575 -0.19583250 0.04983375
v -0.23977575 -0.19583250 0.04983375
v -0.23977575 -0.19583250 0.04983375
v -0.21000000 -0.19583250 0.03750000
v -0.23977575 -0.19583250 0.02516625
v -0.23977575 -0.19583250 0.02516625
v -0.23977575 -0.19583250 0.02516625
v -0.22233375 -0.19583250 0.00772425
v -0.22233375 -0.19583250 0.00772425
v -0.22233375 -0.19583250 0.00772425
v -0.18022425 -0.19583250 0.02516625
v -0.18022425 -0.19583250 0.02516625
v -0.18022425 -0.19583250 0.02516625
v -0.19766625 -0.19583250 0.00772425
v -0.19766625 -0.19583250 0.00772425
v -0.19766625 -0.19583250 0.00772425
v -0.21000000 -0.18367200 0.03750000
v -0.22233375 -0.18367200 0.00772425
v -0.22233375 -0.18367200 0.00772425
v -0.22233375 -0.18367200 0.00772425
v -0.19765350 -0.18367200 0.06727575
v -0.19765350 -0.18367200 0.06727575
v -0.19765350 -0.18367200 0.06727575
v -0.18022425 -0.18367200 0.04983375
v -0.18022425 -0.18367200 0.04983375
v -0.18022425 -0.18367200 0.04983375
v 0.21421575 -0.20589975 0.06969150
v 0.21421575 -0.20589975 0.06969150
v 0.21421575 -0.20589975 0.06969150
v 0.21421575 -0.20589975 0.06969150
v -0.19665450 -0.20589975 0.06969150
v -0.19665450 -0.20589975 0.06969150
v -0.19665450 -0.20589975 0.06969150
v -0.19665450 -0.20589975 0.06969150
v 0.21421575 0.20589975 0.06969150
v 0.21421575 0.20589975 0.06969150
v 0.21421575 0.20589975 0.06969150
v 0.21421575 0.20589975 0.06969150
v 0.21204675 0.20589975 0.07498200
v 0.21204675 0.20589975 0.07498200
v -0.28453875 0.22500525 0.12397275
v -0.28453875 0.22500525 0.12397275
v -0.30050850 0.22500525 0.12397275
v -0.30050850 0.22500525 0.12397275
v 0.19014450 -0.20099250 0.02200125
v 0.19014450 -0.20099250 0.02200125
v 0.19014450 -0.20099250 0.02200125
v -0.17781300 -0.20099250 0.02416800
v -0.17781300 -0.20099250 0.02416800
v -0.17781300 -0.20099250 0.02416800
v -0.19665450 0.17851200 0.06968700
v -0.19665450 0.17851200 0.06968700
v -0.19665450 0.17851200 0.06968700
v -0.32465700 0.20099250 0.65100450
v -0.32465700 0.20099250 0.65100450
v -0.32465700 0.20099250 0.65100450
v -0.32465700 0.20099250 0.65100450
v -0.31924350 -0.19176150 0.63709875
v -0.31924350 -0.19176150 0.63709875
v -0.31924350 -0.19176150 0.63709875
v -0.31924350 -0.19176150 0.63709875
v -0.31924350 0.19176150 0.63709875
v -0.31924350 0.19176150 0.63709875
v -0.31924350 0.19176150 0.63709875
v -0.31924350 0.19176150 0.63709875
v 0.19537500 -0.17851200 0.02416800
v 0.19537500 -0.17851200 0.02416800
v 0.19537500 -0.17851200 0.02416800
v 0.19014450 -0.17851200 0.02200125
v 0.19014450 -0.17851200 0.02200125
v 0.19014450 -0.17851200 0.02200125
v -0.24741750 0.20099250 0.02200125
v -0.24741750 0.20099250 0.02200125
v -0.24741750 0.20099250 0.02200125
v -0.24741750 0.20099250 0.05299875
v -0.24741750 0.20099250 0.05299875
v -0.24741750 0.20099250 0.05299875
v 0.19537500 0.20099250 0.05083200
v 0.19537500 0.20099250 0.05083200
v 0.19537500 0.20099250 0.05083200
v -0.32249775 -0.21337875 0.15756750
v -0.32249775 -0.21337875 0.15756750
v -0.32249775 -0.22500525 0.15756750
v -0.32249775 -0.22500525 0.15756750
v -0.32249775 -0.22500525 0.15756750
v 0.25974825 -0.20099250 0.05083200
v 0.25974825 -0.20099250 0.05083200
v 0.25974825 -0.20099250 0.05083200
v 0.25974825 -0.20099250 0.02416800
v 0.25974825 -0.20099250 0.02416800
v 0.25974825 -0.20099250 0.02416800
v 0.24089325 0.17851200 0.00531300
v 0.24089325 0.17851200 0.00531300
v 0.24089325 0.17851200 0.00531300
v 0.24306000 0.17851200 0.00008325
v 0.24306000 0.17851200 0.00008325
v 0.24306000 0.17851200 0.00008325
v -0.30050850 -0.20099250 0.53996550
v -0.30050850 -0.20099250 0.53996550
v -0.30050850 -0.20099250 0.53996550
v -0.30050850 -0.20099250 0.53996550
v 0.19014450 -0.17851200 0.05299875
v 0.19014450 -0.17851200 0.05299875
v 0.19014450 -0.17851200 0.05299875
v 0.21204675 -0.17851200 0.07498200
v 0.21204675 -0.17851200 0.07498200
v 0.19537500 -0.17851200 0.05083200
v 0.19537500 -0.17851200 0.05083200
v 0.19537500 -0.17851200 0.05083200
v 0.21521550 0.19583250 0.06727575
v 0.21521550 0.19583250 0.06727575
v 0.21521550 0.19583250 0.06727575
v 0.21421575 0.20099250 0.06968700
v 0.21421575 0.20099250 0.06968700
v 0.21421575 0.20099250 0.06968700
v 0.21421575 0.20099250 0.06968700
v 0.21421575 0.20099250 0.06968700
v -0.19665450 0.20589975 0.06969150
v -0.19665450 0.20589975 0.06969150
v -0.19665450 0.20589975 0.06969150
v -0.19665450 0.20589975 0.06969150
v -0.19448550 0.20589975 0.07498200
v -0.19448550 0.20589975 0.07498200
v 0.21204675 -0.20589975 0.07498200
v 0.21204675 -0.20589975 0.07498200
v 0.19778550 -0.18367275 0.04983375
v 0.19778550 -0.18367275 0.04983375
v 0.19778550 -0.18367275 0.04983375
v 0.25733700 -0.19583250 0.04983375
v 0.25733700 -0.19583250 0.04983375
v 0.25733700 -0.19583250 0.04983375
v 0.25733700 -0.19583250 0.02516625
v 0.25733700 -0.19583250 0.02516625
v 0.25733700 -0.19583250 0.02516625
v -0.31525575 0.20099250 0.62508000
v -0.31525575 0.20099250 0.62508000
v -0.31525575 0.20099250 0.62508000
v -0.31525575 0.20099250 0.62508000
v -0.19766625 0.18367200 0.00772425
v -0.19766625 0.18367200 0.00772425
v -0.19766625 0.18367200 0.00772425
v 0.21522750 -0.18367275 0.00772425
v 0.21522750 -0.18367275 0.00772425
v 0.21522750 -0.18367275 0.00772425
v -0.17781300 -0.17851200 0.05083200
v -0.17781300 -0.17851200 0.05083200
v -0.17781300 -0.17851200 0.05083200
v 0.19778550 -0.18367275 0.02516625
v 0.19778550 -0.18367275 0.02516625
v 0.19778550 -0.18367275 0.02516625
v 0.23990775 0.18367275 0.06727575
v 0.23990775 0.18367275 0.06727575
v 0.23990775 0.18367275 0.06727575
v 0.25733700 0.18367275 0.04983375
v 0.25733700 0.18367275 0.04983375
v 0.25733700 0.18367275 0.04983375
v 0.23989500 0.18367275 0.00772425
v 0.23989500 0.18367275 0.00772425
v 0.23989500 0.18367275 0.00772425
v -0.22333200 -0.17851200 0.00531300
v -0.22333200 -0.17851200 0.00531300
v -0.22333200 -0.17851200 0.00531300
v -0.18022425 0.18367200 0.04983375
v -0.18022425 0.18367200 0.04983375
v -0.18022425 0.18367200 0.04983375
v -0.18022425 0.18367200 0.02516625
v -0.18022425 0.18367200 0.02516625
v -0.18022425 0.18367200 0.02516625
v -0.22233375 0.19583250 0.00772425
v -0.22233375 0.19583250 0.00772425
v -0.22233375 0.19583250 0.00772425
v 0.21521550 -0.19583250 0.06727575
v 0.21521550 -0.19583250 0.06727575
v 0.21521550 -0.19583250 0.06727575
v 0.19778550 -0.19583250 0.04983375
v 0.19778550 -0.19583250 0.04983375
v 0.19778550 -0.19583250 0.04983375
v 0.22756125 -0.19583250 0.03750000
v 0.23989500 -0.19583250 0.00772425
v 0.23989500 -0.19583250 0.00772425
v 0.23989500 -0.19583250 0.00772425
v 0.23990775 -0.19583250 0.06727575
v 0.23990775 -0.19583250 0.06727575
v 0.23990775 -0.19583250 0.06727575
v 0.22756125 -0.18367275 0.03750000
v 0.24306000 0.20099250 0.00008325
v 0.24306000 0.20099250 0.00008325
v 0.24306000 0.20099250 0.00008325
v -0.19765350 0.19583250 0.06727575
v -0.19765350 0.19583250 0.06727575
v -0.19765350 0.19583250 0.06727575
v 0.19778550 0.18367275 0.04983375
v 0.19778550 0.18367275 0.04983375
v 0.19778550 0.18367275 0.04983375
v 0.21521550 0.18367275 0.06727575
v 0.21521550 0.18367275 0.06727575
v 0.21521550 0.18367275 0.06727575
v 0.21421575 0.17851200 0.06968700
v 0.21421575 0.17851200 0.06968700
v 0.21421575 0.17851200 0.06968700
v -0.32249775 0.21337875 0.15756750
v -0.32249775 0.21337875 0.15756750
v -0.32249775 0.22500525 0.15756750
v -0.32249775 0.22500525 0.15756750
v -0.32249775 0.22500525 0.15756750
v -0.33743775 0.22500525 0.12397275
v -0.33743775 0.22500525 0.12397275
v -0.33743775 0.22500525 0.12397275
v -0.33743775 0.22500525 0.12397275
v -0.24741750 0.17851200 0.02200125
v -0.24741750 0.17851200 0.02200125
v -0.24741750 0.17851200 0.02200125
v -0.33743775 -0.22500525 0.12397275
v -0.33743775 -0.22500525 0.12397275
v -0.33743775 -0.22500525 0.12397275
v -0.33743775 -0.22500525 0.12397275
v -0.32249775 -0.20099250 0.15756750
v -0.32249775 -0.20099250 0.15756750
v -0.32249775 -0.20099250 0.15756750
v -0.33743775 -0.20099250 0.12397275
v -0.33743775 -0.20099250 0.12397275
v -0.33743775 -0.20099250 0.12397275
v -0.33743775 -0.20099250 0.12397275
v -0.33743775 -0.21337875 0.12397275
v -0.33743775 -0.21337875 0.12397275
v -0.33743775 0.22500525 0.07498200
v -0.33743775 0.22500525 0.07498200
v -0.33743775 0.22500525 0.07498200
v -0.31924350 0.21337875 0.63613050
v -0.31924350 0.21337875 0.63613050
v -0.31924350 0.21337875 0.63613050
v -0.31924350 0.21337875 0.63613050
v -0.22551450 0.20099250 0.07498200
v -0.22551450 0.20099250 0.07498200
v -0.22551450 0.20099250 0.07498200
v -0.22551450 0.20589975 0.07498200
v -0.22551450 0.20589975 0.07498200
v -0.22334625 0.20589975 0.06969150
v -0.22334625 0.20589975 0.06969150
v -0.22334625 0.20589975 0.06969150
v -0.22334625 0.20589975 0.06969150
v 0.24307575 -0.17851200 0.07498200
v 0.24307575 -0.17851200 0.07498200
v -0.19448550 -0.20589975 0.07498200
v -0.19448550 -0.20589975 0.07498200
v -0.19448550 -0.20099250 0.07498200
v -0.19448550 -0.20099250 0.07498200
v -0.19448550 -0.20099250 0.07498200
v 0.24089325 -0.20099250 0.00531300
v 0.24089325 -0.20099250 0.00531300
v 0.24089325 -0.20099250 0.00531300
v 0.21204675 0.20099250 0.07498200
v 0.21204675 0.20099250 0.07498200
v 0.21204675 0.20099250 0.07498200
v -0.22234650 0.18367200 0.06727575
v -0.22234650 0.18367200 0.06727575
v -0.22234650 0.18367200 0.06727575
v -0.19765350 0.18367200 0.06727575
v -0.19765350 0.18367200 0.06727575
v -0.19765350 0.18367200 0.06727575
v 0.21522750 0.19583250 0.00772425
v 0.21522750 0.19583250 0.00772425
v 0.21522750 0.19583250 0.00772425
v 0.19778550 0.19583250 0.04983375
v 0.19778550 0.19583250 0.04983375
v 0.19778550 0.19583250 0.04983375
v 0.19778550 0.19583250 0.02516625
v 0.19778550 0.19583250 0.02516625
v 0.19778550 0.19583250 0.02516625
v -0.21000000 0.19583250 0.03750000
v -0.18022425 0.19583250 0.04983375
v -0.18022425 0.19583250 0.04983375
v -0.18022425 0.19583250 0.04983375
v -0.21000000 0.18367200 0.03750000
v 0.21204675 0.17851200 0.07498200
v 0.21204675 0.17851200 0.07498200
v 0.25974825 0.17851200 0.02416800
v 0.25974825 0.17851200 0.02416800
v 0.25974825 0.17851200 0.02416800
v 0.25733700 0.18367275 0.02516625
v 0.25733700 0.18367275 0.02516625
v 0.25733700 0.18367275 0.02516625
v 0.22756125 0.19583250 0.03750000
v 0.22756125 0.18367275 0.03750000
vt 0.82228800 0.48703500
vt 0.46589000 0.65140200
vt 0.36575700 0.50300400
vt 0.36575400 0.57012600
vt 0.45309000 0.66776300
vt 0.82228800 0.50780900
vt 0.45309000 0.66776300
vt 0.82228800 0.50780900
vt 0.80578300 0.50780800
vt 0.54451500 0.66212100
vt 0.80578300 0.50780800
vt 0.54451500 0.66212100
vt 0.36576200 0.50232400
vt 0.53171700 0.64575800
vt 0.36575900 0.55362000
vt 0.80578300 0.48703500
vt 0.00353300 0.25697700
vt 0.25532700 0.33992600
vt 0.00353300 0.25662400
vt 0.38150000 0.38247800
vt 0.25532700 0.36733800
vt 0.00353300 0.28438900
vt 0.24882200 0.36733800
vt 0.38800600 0.38247800
vt 0.24882200 0.33992600
vt 0.00353500 0.25011900
vt 0.38800600 0.04675900
vt 0.38800600 0.03442800
vt 0.39493600 0.03442900
vt 0.39493600 0.04675900
vt 0.89059100 0.68313100
vt 0.47917100 0.64506000
vt 0.99507300 0.49169900
vt 0.48263300 0.64507700
vt 0.48263300 0.64507700
vt 0.89405300 0.68313100
vt 0.79542100 0.51323500
vt 0.99507300 0.48389100
vt 0.79542100 0.51323500
vt 0.89405300 0.69093900
vt 0.89059100 0.69093900
vt 0.79881900 0.51389900
vt 0.00353300 0.28462700
vt 0.63329600 0.38247700
vt 0.00353300 0.36733800
vt 0.33925100 0.28462700
vt 0.63329500 0.04675900
vt 0.33925100 0.31203900
vt 0.32108700 0.91447800
vt 0.00663800 0.91447900
vt 0.33933700 0.00494500
vt 0.00353300 0.31203900
vt 0.00362000 0.00483000
vt 0.00353300 0.33992600
vt 0.78122800 0.53643400
vt 0.40840400 0.71427400
vt 0.85621900 0.55124300
vt 0.99504000 0.99280100
vt 0.56170100 0.71427400
vt 0.39560200 0.71427400
vt 0.49914300 0.76778700
vt 0.39560200 0.59757200
vt 0.56170100 0.59757200
vt 0.92849400 0.60612200
vt 0.82836100 0.55124400
vt 0.40840400 0.59757200
vt 0.85621900 0.43454100
vt 0.51194500 0.76778700
vt 0.24882200 0.31227600
vt 0.38800600 0.00483000
vt 0.38800600 0.02549300
vt 0.36051700 0.28438900
vt 0.38150100 0.02549300
vt 0.38118000 0.28438900
vt 0.38150100 0.00483000
vt 0.25532700 0.31227600
vt 0.52059900 0.80054000
vt 0.75907000 0.58827800
vt 0.52059900 0.80054000
vt 0.52059900 0.83257800
vt 0.52059900 0.83257800
vt 0.73028800 0.58827800
vt 0.49736400 0.83257800
vt 0.88991000 0.67302500
vt 0.49736400 0.83257800
vt 0.88991000 0.63882100
vt 0.49736400 0.80054000
vt 0.49736400 0.80054000
vt 0.25109600 0.59401400
vt 0.35166400 0.01838600
vt 0.40840400 0.99280100
vt 0.25109600 0.70070600
vt 0.08289900 0.78687800
vt 0.89509100 0.69093900
vt 0.20037900 0.70070600
vt 0.08289900 0.73616100
vt 0.91159600 0.69093900
vt 0.42256700 0.99280100
vt 0.36060000 0.01838900
vt 0.20037900 0.59401400
vt 0.20037900 0.48712800
vt 0.36051700 0.25697700
vt 0.38150100 0.03442800
vt 0.35158200 0.28438900
vt 0.35158200 0.25697700
vt 0.25109600 0.48712800
vt 0.91159600 0.50856300
vt 0.99504000 0.89582700
vt 0.78122800 0.57109200
vt 0.42256700 0.81042400
vt 0.54519600 0.81042400
vt 0.43536900 0.81042400
vt 0.54519600 0.99280100
vt 0.43536900 0.99280100
vt 0.04356100 0.73616100
vt 0.67170100 0.79471100
vt 0.59124700 0.69831300
vt 0.66389300 0.79471100
vt 0.58084700 0.65708800
vt 0.52457600 0.64507700
vt 0.58430900 0.65710500
vt 0.58430900 0.65710500
vt 0.66389300 0.79124900
vt 0.58778500 0.69833000
vt 0.53238400 0.64507700
vt 0.67170100 0.79124900
vt 0.58778500 0.69833000
vt 0.33925300 0.25023400
vt 0.00663800 0.95401000
vt 0.08309300 0.70090000
vt 0.33925500 0.24330400
vt 0.00663800 0.91467300
vt 0.40908500 0.99280100
vt 0.13423800 0.91467300
vt 0.15308400 0.80759200
vt 0.80503900 0.69696200
vt 0.42188700 0.99280100
vt 0.56238100 0.99280100
vt 0.13423800 0.95401100
vt 0.13423800 0.95401100
vt 0.61986000 0.38247700
vt 0.01696900 0.36733800
vt 0.24189200 0.36733800
vt 0.39493700 0.38247800
vt 0.61985900 0.04675900
vt 0.52059900 0.89665300
vt 0.69250500 0.63666100
vt 0.52059900 0.89665300
vt 0.49736400 0.89665300
vt 0.49736400 0.89665300
vt 0.83110100 0.69696200
vt 0.49736400 0.86461500
vt 0.86560000 0.69684900
vt 0.49736400 0.86461500
vt 0.52059900 0.86461500
vt 0.52059900 0.86461500
vt 0.70469800 0.60568600
vt 0.33925100 0.25697700
vt 0.33925100 0.25674000
vt 0.32108700 0.48712800
vt 0.00663800 0.99093400
vt 0.33925100 0.28438900
vt 0.38150100 0.04675900
vt 0.56170100 0.99280100
vt 0.04356100 0.78687800
vt 0.04356100 0.78687800
vt 0.39560200 0.99280100
vt 0.56170100 0.81042400
vt 0.39560200 0.81042400
vt 0.89509100 0.50856300
vt 0.99507300 0.89665100
vt 0.78122300 0.58759700
vt 0.40840400 0.81042400
vt 0.24189200 0.33992600
vt 0.00353800 0.24318800
vt 0.01696900 0.33992600
vt 0.00361500 0.01826500
vt 0.08289900 0.91447900
vt 0.32108700 0.59401400
vt 0.33933300 0.01838200
vt 0.96958600 0.69093900
vt 0.52128000 0.92869000
vt 0.52128000 0.92869000
vt 0.54451500 0.92869000
vt 0.96155800 0.79885400
vt 0.54451500 0.92869000
vt 0.54451500 0.96072700
vt 0.54451500 0.96072700
vt 0.98535500 0.78266500
vt 0.52128000 0.96072700
vt 0.93539500 0.69003300
vt 0.52128000 0.96072700
vt 0.49846200 0.66776300
vt 0.91227600 0.50045700
vt 0.91227600 0.50045700
vt 0.49846200 0.66776300
vt 0.84502900 0.45781500
vt 0.84502900 0.45781500
vt 0.48566000 0.67990600
vt 0.48566000 0.67990600
vt 0.47611600 0.66682300
vt 0.78122800 0.51924800
vt 0.84486600 0.44162100
vt 0.77168200 0.51856800
vt 0.78122300 0.57026900
vt 0.78122800 0.50314800
vt 0.91227600 0.47968300
vt 0.48566200 0.65140200
vt 0.36575900 0.55293900
vt 0.44885200 0.71427400
vt 0.57960000 0.79953400
vt 0.87340500 0.55124400
vt 0.88991000 0.55124400
vt 0.36575900 0.53643400
vt 0.40908400 0.71427400
vt 0.57956700 0.99265700
vt 0.78122800 0.55293900
vt 0.42256700 0.71427400
vt 0.87272400 0.55124400
vt 0.99507300 0.79967800
vt 0.43536900 0.71427400
vt 0.54519600 0.71427400
vt 0.13423800 0.99093400
vt 0.25109600 0.59382000
vt 0.13423800 0.99093400
vt 0.62679000 0.02549300
vt 0.63329500 0.02549300
vt 0.36051700 0.28462700
vt 0.63329500 0.03442800
vt 0.35158200 0.28462700
vt 0.62679000 0.03442800
vt 0.00663800 0.78687800
vt 0.25109600 0.80778700
vt 0.00663800 0.78687800
vt 0.20037900 0.80778700
vt 0.00663800 0.73616100
vt 0.56238100 0.81042400
vt 0.42188700 0.81042400
vt 0.42188700 0.71427400
vt 0.56238100 0.71427400
vt 0.57888600 0.71427400
vt 0.43605000 0.71427400
vt 0.43605000 0.81042400
vt 0.57888600 0.81042400
vt 0.61985900 0.03442900
vt 0.61985900 0.02549300
vt 0.35158600 0.24330800
vt 0.15308400 0.70090000
vt 0.01003800 0.36733800
vt 0.62679000 0.38247700
vt 0.62679000 0.04675900
vt 0.61985900 0.00483000
vt 0.01696900 0.31227700
vt 0.01003800 0.31227700
vt 0.62679000 0.00483000
vt 0.47276800 0.89665300
vt 0.47276800 0.89665300
vt 0.85141200 0.69764200
vt 0.44953200 0.89665300
vt 0.44953200 0.89665300
vt 0.61300600 0.78156100
vt 0.64665600 0.78156100
vt 0.44953200 0.86461500
vt 0.44953200 0.86461500
vt 0.87770600 0.71557500
vt 0.47276800 0.86461500
vt 0.47276800 0.86461500
vt 0.47344800 0.96072700
vt 0.47344800 0.96072700
vt 0.67933000 0.72007400
vt 0.47344800 0.92869000
vt 0.47344800 0.92869000
vt 0.67238200 0.75138700
vt 0.66717400 0.61431500
vt 0.49668300 0.92869000
vt 0.49668300 0.92869000
vt 0.49668300 0.96072700
vt 0.63220400 0.61510000
vt 0.49668300 0.96072700
vt 0.01003800 0.33992600
vt 0.00361800 0.01133500
vt 0.82157900 0.60782900
vt 0.43605000 0.59757200
vt 0.57888600 0.59757200
vt 0.45309000 0.76778700
vt 0.80606900 0.61347400
vt 0.42188700 0.59757200
vt 0.54451500 0.76778600
vt 0.56238100 0.59757200
vt 0.04356100 0.91447900
vt 0.33933500 0.01145100
vt 0.43605000 0.99280100
vt 0.18495500 0.95401100
vt 0.57888600 0.99280100
vt 0.20037900 0.59382000
vt 0.18495500 0.99093400
vt 0.75916200 0.69833000
vt 0.80155500 0.47311300
vt 0.52059900 0.99280000
vt 0.80039300 0.47891100
vt 0.75753500 0.69232700
vt 0.80039300 0.47891100
vt 0.80039300 0.47891100
vt 0.75753500 0.69232700
vt 0.79542100 0.47791000
vt 0.96116000 0.47400200
vt 0.96116000 0.47400200
vt 0.79542100 0.47791000
vt 0.95569200 0.47176000
vt 0.79658200 0.47211500
vt 0.59209700 0.58870800
vt 0.37529200 0.51843100
vt 0.47543600 0.66682300
vt 0.38483700 0.51924800
vt 0.59193400 0.60490200
vt 0.46589200 0.67990600
vt 0.59193400 0.60490200
vt 0.46589200 0.67990600
vt 0.52059900 0.92869000
vt 0.70026400 0.67031300
vt 0.52059900 0.92869000
vt 0.80578300 0.67153800
vt 0.49736400 0.92869000
vt 0.49736400 0.92869000
vt 0.78190900 0.68915400
vt 0.50135800 0.64506000
vt 0.50482000 0.64507700
vt 0.50482000 0.64507700
vt 0.94238300 0.54389200
vt 0.78537100 0.68915400
vt 0.78505900 0.51323500
vt 0.95019100 0.54389200
vt 0.78537100 0.69696200
vt 0.78505900 0.51323500
vt 0.78190900 0.69696200
vt 0.78845700 0.51389900
vt 0.53171300 0.67426300
vt 0.60832000 0.60480800
vt 0.60832000 0.60480800
vt 0.53171300 0.67426300
vt 0.53171300 0.76778700
vt 0.60860200 0.69833000
vt 0.88991000 0.43454100
vt 0.40908500 0.59757200
vt 0.39493700 0.02549300
vt 0.39493600 0.00483000
vt 0.24189100 0.31227600
vt 0.84925500 0.55124400
vt 0.67170100 0.79885400
vt 0.66389300 0.79885400
vt 0.49026400 0.64506000
vt 0.49372600 0.64507700
vt 0.66389300 0.79539100
vt 0.97513300 0.54389200
vt 0.49372600 0.64507700
vt 0.67170100 0.79539100
vt 0.84585700 0.55058000
vt 0.84585700 0.55058000
vt 0.98294200 0.54389200
vt 0.20380100 0.80759200
vt 0.44885200 0.99280100
vt 0.78853400 0.69695600
vt 0.18495500 0.91467300
vt 0.57956700 0.89568400
vt 0.44885200 0.81042400
vt 0.36575900 0.57094900
vt 0.78859700 0.51457900
vt 0.57960000 0.89650800
vt 0.80510200 0.51458500
vt 0.36575300 0.58745500
vt 0.40908400 0.81042400
vt 0.88235800 0.77821100
vt 0.47276800 0.80054000
vt 0.47276800 0.80054000
vt 0.47276700 0.83257800
vt 0.88991000 0.74617200
vt 0.47276700 0.83257800
vt 0.44953200 0.83257800
vt 0.44953200 0.83257800
vt 0.67170100 0.75825500
vt 0.67146200 0.72317300
vt 0.44953200 0.80054000
vt 0.44953200 0.80054000
vt 0.38126300 0.01839600
vt 0.01696900 0.33968900
vt 0.08309300 0.59401400
vt 0.08289900 0.54955800
vt 0.04356100 0.54955800
vt 0.01003800 0.33968900
vt 0.49668300 0.83257800
vt 0.49668300 0.83257800
vt 0.66778600 0.69833000
vt 0.74356400 0.79885400
vt 0.47344800 0.83257800
vt 0.47344800 0.83257800
vt 0.47344800 0.80054000
vt 0.77052500 0.77996900
vt 0.47344800 0.80054000
vt 0.63271000 0.69765200
vt 0.49668300 0.80054000
vt 0.49668300 0.80054000
vt 0.48566100 0.76778700
vt 0.84390300 0.54568800
vt 0.42256700 0.59757200
vt 0.87272400 0.43454100
vt 0.43536900 0.59757200
vt 0.54519600 0.59757200
vt 0.91298400 0.60047700
vt 0.49846300 0.76778700
vt 0.85199200 0.51045700
vt 0.78122800 0.75108700
vt 0.47344800 0.76846700
vt 0.49668300 0.76846700
vt 0.60928300 0.67219300
vt 0.08289900 0.66632500
vt 0.08289900 0.66632500
vt 0.13054300 0.70070600
vt 0.86275700 0.62078600
vt 0.86275700 0.62078600
vt 0.86275700 0.62078600
vt 0.83389800 0.61972100
vt 0.83389800 0.61972100
vt 0.83389800 0.61972100
vt 0.83178200 0.61415400
vt 0.49736400 0.99280100
vt 0.49736400 0.76846700
vt 0.86516400 0.61503900
vt 0.61532900 0.77587800
vt 0.61532900 0.77587800
vt 0.61532900 0.77587800
vt 0.64450300 0.77613600
vt 0.64450300 0.77613600
vt 0.64450300 0.77613600
vt 0.36052200 0.24331100
vt 0.20380100 0.70090000
vt 0.98156500 0.77962900
vt 0.98156500 0.77962900
vt 0.98156500 0.77962900
vt 0.58591200 0.66369900
vt 0.58591200 0.66369900
vt 0.58591200 0.66369900
vt 0.99011000 0.75770100
vt 0.99011000 0.75770100
vt 0.99507300 0.75755500
vt 0.58591300 0.65778500
vt 0.54451500 0.99280000
vt 0.93223500 0.79344900
vt 0.93223500 0.79344900
vt 0.93223500 0.79344900
vt 0.95997900 0.79385000
vt 0.95997900 0.79385000
vt 0.95997900 0.79385000
vt 0.54451500 0.89665300
vt 0.93060800 0.79885400
vt 0.54451500 0.89665300
vt 0.91227600 0.66466500
vt 0.52128000 0.99280100
vt 0.61511000 0.66990500
vt 0.61511000 0.66990500
vt 0.61511000 0.66990500
vt 0.63518600 0.69195800
vt 0.63518600 0.69195800
vt 0.63518600 0.69195800
vt 0.70908400 0.60924000
vt 0.70908400 0.60924000
vt 0.70908400 0.60924000
vt 0.69865600 0.63707700
vt 0.69865600 0.63707700
vt 0.69865600 0.63707700
vt 0.52128000 0.80054000
vt 0.52128000 0.80054000
vt 0.93522400 0.60757500
vt 0.93750400 0.61297900
vt 0.93750400 0.61297900
vt 0.93750400 0.61297900
vt 0.91778500 0.63353500
vt 0.91778500 0.63353500
vt 0.91778500 0.63353500
vt 0.91227600 0.63127200
vt 0.52128000 0.76846700
vt 0.70546800 0.66714000
vt 0.70546800 0.66714000
vt 0.70546800 0.66714000
vt 0.72825000 0.68841400
vt 0.72825000 0.68841400
vt 0.72825000 0.68841400
vt 0.72573100 0.69382900
vt 0.52059900 0.96072700
vt 0.52059900 0.96072700
vt 0.66469200 0.62027200
vt 0.66469200 0.62027200
vt 0.66469200 0.62027200
vt 0.63448100 0.62048800
vt 0.63448100 0.62048800
vt 0.63448100 0.62048800
vt 0.49736400 0.96072800
vt 0.80748500 0.63646600
vt 0.49736400 0.96072800
vt 0.81282700 0.63888900
vt 0.81282700 0.63888900
vt 0.81282700 0.63888900
vt 0.81183500 0.66917500
vt 0.81183500 0.66917500
vt 0.81183500 0.66917500
vt 0.68422400 0.78107500
vt 0.47344800 0.89665300
vt 0.47344800 0.89665300
vt 0.49668300 0.89665300
vt 0.69182500 0.63993100
vt 0.49668300 0.89665300
vt 0.98922200 0.63499900
vt 0.98922200 0.63499900
vt 0.98922200 0.63499900
vt 0.52128000 0.86461500
vt 0.99507300 0.63278600
vt 0.52128000 0.86461500
vt 0.99404600 0.66726900
vt 0.52128000 0.89665300
vt 0.52128000 0.89665300
vt 0.98863400 0.66489900
vt 0.98863400 0.66489900
vt 0.98863400 0.66489900
vt 0.90795500 0.77629800
vt 0.90795500 0.77629800
vt 0.90795500 0.77629800
vt 0.54451500 0.86461500
vt 0.54451500 0.86461500
vt 0.90310400 0.78010100
vt 0.76614100 0.77655800
vt 0.76614100 0.77655800
vt 0.76614100 0.77655800
vt 0.85082900 0.51625600
vt 0.85082900 0.51625600
vt 0.77555400 0.75133500
vt 0.85082900 0.51625600
vt 0.77555400 0.75133500
vt 0.92873200 0.70247500
vt 0.09422300 0.40089600
vt 0.58084100 0.62515600
vt 0.92556100 0.69749900
vt 0.58618200 0.62247300
vt 0.92556100 0.69749900
vt 0.58618200 0.62247300
vt 0.58618200 0.62247300
vt 0.99283100 0.50997900
vt 0.84585700 0.51525400
vt 0.84585700 0.51525400
vt 0.99283100 0.50997900
vt 0.84701900 0.50946000
vt 0.99507300 0.50451100
vt 0.93788300 0.68446000
vt 0.93788300 0.68446000
vt 0.93788300 0.68446000
vt 0.96732200 0.68530500
vt 0.96732200 0.68530500
vt 0.96732200 0.68530500
vt 0.67801100 0.75105400
vt 0.67801100 0.75105400
vt 0.67801100 0.75105400
vt 0.68867200 0.77764100
vt 0.68867200 0.77764100
vt 0.68867200 0.77764100
vt 0.47276800 0.96072700
vt 0.47276800 0.96072700
vt 0.79293800 0.71569700
vt 0.79729500 0.71909600
vt 0.79729500 0.71909600
vt 0.79729500 0.71909600
vt 0.78766000 0.74468100
vt 0.78766000 0.74468100
vt 0.79003000 0.47891100
vt 0.79003000 0.47891100
vt 0.79003000 0.47891100
vt 0.79119300 0.47311300
vt 0.78190900 0.74489600
vt 0.47276800 0.99280100
vt 0.66573800 0.72557800
vt 0.66573800 0.72557800
vt 0.66573800 0.72557800
vt 0.13777100 0.39113700
vt 0.65980000 0.72841400
vt 0.65980000 0.72841400
vt 0.64161900 0.71124600
vt 0.14752300 0.40089600
vt 0.64161900 0.71124600
vt 0.64393800 0.70522800
vt 0.64393800 0.70522800
vt 0.64393800 0.70522800
vt 0.76141500 0.77278700
vt 0.00353300 0.39113300
vt 0.76141500 0.77278700
vt 0.01328200 0.40089600
vt 0.85553900 0.51993600
vt 0.77027900 0.75031800
vt 0.61713500 0.71000000
vt 0.16133900 0.40089600
vt 0.61713500 0.71000000
vt 0.61505400 0.70454800
vt 0.61505400 0.70454800
vt 0.61505400 0.70454800
vt 0.94015300 0.61887400
vt 0.94015300 0.61887400
vt 0.99507300 0.56260000
vt 0.96780600 0.61279000
vt 0.96780600 0.61279000
vt 0.96780600 0.61279000
vt 0.99507300 0.58809400
vt 0.96498700 0.61938600
vt 0.96498700 0.61938600
vt 0.68611300 0.64218300
vt 0.68611300 0.64218300
vt 0.68611300 0.64218300
vt 0.82836100 0.59544600
vt 0.67999300 0.64453500
vt 0.67999300 0.64453500
vt 0.66192000 0.62684300
vt 0.66192000 0.62684300
vt 0.84638800 0.61347400
vt 0.88433800 0.67061200
vt 0.88433800 0.67061200
vt 0.88433800 0.67061200
vt 0.86337400 0.69137600
vt 0.86337400 0.69137600
vt 0.86337400 0.69137600
vt 0.11397200 0.36757500
vt 0.86073100 0.68541900
vt 0.86073100 0.68541900
vt 0.87830400 0.66833800
vt 0.87830400 0.66833800
vt 0.10421300 0.37733500
vt 0.93414600 0.78768900
vt 0.08041400 0.36757500
vt 0.93414600 0.78768900
vt 0.07065500 0.37733500
vt 0.95843600 0.78841900
vt 0.95843600 0.78841900
vt 0.75764500 0.59292000
vt 0.75764500 0.59292000
vt 0.75764500 0.59292000
vt 0.48450500 0.61044600
vt 0.48450500 0.61044600
vt 0.48450500 0.61044600
vt 0.77704300 0.60624400
vt 0.77704300 0.60624400
vt 0.77378000 0.60962000
vt 0.47916400 0.61312800
vt 0.19489800 0.40089600
vt 0.75615600 0.59799100
vt 0.75615600 0.59799100
vt 0.20465000 0.39113700
vt 0.81864900 0.64169300
vt 0.81864900 0.64169300
vt 0.13753400 0.39113700
vt 0.81850400 0.66653200
vt 0.13753400 0.37733500
vt 0.81850400 0.66653200
vt 0.83590700 0.62520000
vt 0.83590700 0.62520000
vt 0.12778100 0.40089600
vt 0.84987000 0.70304600
vt 0.84987000 0.70304600
vt 0.84987000 0.70304600
vt 0.84803900 0.70878800
vt 0.84803900 0.70878800
vt 0.04685700 0.36757500
vt 0.82295800 0.70880200
vt 0.82295800 0.70880200
vt 0.03709700 0.37733400
vt 0.82122600 0.70299400
vt 0.82122600 0.70299400
vt 0.82122600 0.70299400
vt 0.97704500 0.60612200
vt 0.98296100 0.63727500
vt 0.98296100 0.63727500
vt 0.71236700 0.79342600
vt 0.71236700 0.79342600
vt 0.71236700 0.79342600
vt 0.71400500 0.78777100
vt 0.71400500 0.78777100
vt 0.01330000 0.36757500
vt 0.73982900 0.78702200
vt 0.00353800 0.37733100
vt 0.73982900 0.78702200
vt 0.74176300 0.79314100
vt 0.74176300 0.79314100
vt 0.74176300 0.79314100
vt 0.85949700 0.79885400
vt 0.50669200 0.60453200
vt 0.47276700 0.76846700
vt 0.93025100 0.50451100
vt 0.51176400 0.60453200
vt 0.93249300 0.50997900
vt 0.51176400 0.61044100
vt 0.51176400 0.61044100
vt 0.93249300 0.50997900
vt 0.50669200 0.61044600
vt 0.50669200 0.61044600
vt 0.85762500 0.79349100
vt 0.85762500 0.79349100
vt 0.50669200 0.61044600
vt 0.90939200 0.72056800
vt 0.90939200 0.72056800
vt 0.10397500 0.39113700
vt 0.90320500 0.74708700
vt 0.90320500 0.74708700
vt 0.10397500 0.37733500
vt 0.89667900 0.74760900
vt 0.89667900 0.74760900
vt 0.89667900 0.74760900
vt 0.90354800 0.71720600
vt 0.90354800 0.71720600
vt 0.90354800 0.71720600
vt 0.66603900 0.75578000
vt 0.66603900 0.75578000
vt 0.66603900 0.75578000
vt 0.14753000 0.36757500
vt 0.64226500 0.77055200
vt 0.64226500 0.77055200
vt 0.65956400 0.75307000
vt 0.65956400 0.75307000
vt 0.13777100 0.37733500
vt 0.18108100 0.40089600
vt 0.75735700 0.68642900
vt 0.80510200 0.48259200
vt 0.73119000 0.68234700
vt 0.73119000 0.68234700
vt 0.17132900 0.39113700
vt 0.18798900 0.38423600
vt 0.17132900 0.37733500
vt 0.71115800 0.66390100
vt 0.71115800 0.66390100
vt 0.70501700 0.63750800
vt 0.18108800 0.36757500
vt 0.70501700 0.63750800
vt 0.73357700 0.59866100
vt 0.20465000 0.37733500
vt 0.73357700 0.59866100
vt 0.19489000 0.36757500
vt 0.71390400 0.61292700
vt 0.71390400 0.61292700
vt 0.12087300 0.38423600
vt 0.12777400 0.36757500
vt 0.83591000 0.68497300
vt 0.83591000 0.68497300
vt 0.86039100 0.62676100
vt 0.86039100 0.62676100
vt 0.11396500 0.40089600
vt 0.10421300 0.39113700
vt 0.87844200 0.64395200
vt 0.87844200 0.64395200
vt 0.78505900 0.47791000
vt 0.78505900 0.47791000
vt 0.96008100 0.50997900
vt 0.96008100 0.50997900
vt 0.48957700 0.61044100
vt 0.48957700 0.61044100
vt 0.96116000 0.50158900
vt 0.96116000 0.50158900
vt 0.50067100 0.61044200
vt 0.96524400 0.50997900
vt 0.96524400 0.50997900
vt 0.50067100 0.61044200
vt 0.96300300 0.50451100
vt 0.50067100 0.60453200
vt 0.35158200 0.31203900
vt 0.25109600 0.91447900
vt 0.36051700 0.31203900
vt 0.20037900 0.91447900
vt 0.81944900 0.69764200
vt 0.47276800 0.92869000
vt 0.47276800 0.92869000
vt 0.73179800 0.59330400
vt 0.73179800 0.59330400
vt 0.73179800 0.59330400
vt 0.91808500 0.66241200
vt 0.91808500 0.66241200
vt 0.91808500 0.66241200
vt 0.51194100 0.64575800
vt 0.78122800 0.50232400
vt 0.92878100 0.47968300
vt 0.78122800 0.55376300
vt 0.52216900 0.66117700
vt 0.38483700 0.53575300
vt 0.60860200 0.58861300
vt 0.37530300 0.48690000
vt 0.82836100 0.44152700
vt 0.77168700 0.48690100
vt 0.78122800 0.53575300
vt 0.52148900 0.66117700
vt 0.59368800 0.75418400
vt 0.59368800 0.75418400
vt 0.59368800 0.75418400
vt 0.44953200 0.92869000
vt 0.44953200 0.92869000
vt 0.58770000 0.75659100
vt 0.54451500 0.83257800
vt 0.54451500 0.83257800
vt 0.89059100 0.74791300
vt 0.54451500 0.80054000
vt 0.54451500 0.80054000
vt 0.89842100 0.71414500
vt 0.68410100 0.72286100
vt 0.68410100 0.72286100
vt 0.68410100 0.72286100
vt 0.25479100 0.95401100
vt 0.25479100 0.95401100
vt 0.13054300 0.59382000
vt 0.25479100 0.99093400
vt 0.25479100 0.99093400
vt 0.87756600 0.77540300
vt 0.87756600 0.77540300
vt 0.87756600 0.77540300
vt 0.88393700 0.74661600
vt 0.88393700 0.74661600
vt 0.88393700 0.74661600
vt 0.68600600 0.67135800
vt 0.68600600 0.67135800
vt 0.68600600 0.67135800
vt 0.49668300 0.86461500
vt 0.49668300 0.86461500
vt 0.69140400 0.67357800
vt 0.59306000 0.69277400
vt 0.44885200 0.59757200
vt 0.46589200 0.76778600
vt 0.87340500 0.43454100
vt 0.44953200 0.96072700
vt 0.44953200 0.96072700
vt 0.58892300 0.72163400
vt 0.44953200 0.99280000
vt 0.61286300 0.69901100
vt 0.59428200 0.72397900
vt 0.59428200 0.72397900
vt 0.59428200 0.72397900
vt 0.70727300 0.70900900
vt 0.49025800 0.61312900
vt 0.02709800 0.40090100
vt 0.70429500 0.70443300
vt 0.49559900 0.61044600
vt 0.49559900 0.61044600
vt 0.49559900 0.61044600
vt 0.70429500 0.70443300
vt 0.58084100 0.66369500
vt 0.54227400 0.61116500
vt 0.58084100 0.66369500
vt 0.54227400 0.61116500
vt 0.54451500 0.60569700
vt 0.58084100 0.65778500
vt 0.78622000 0.47211500
vt 0.96232200 0.50451100
vt 0.60012600 0.72669900
vt 0.60012600 0.72669900
vt 0.17109200 0.39113700
vt 0.87231200 0.77241000
vt 0.87231200 0.77241000
vt 0.07041600 0.39113800
vt 0.07041700 0.37733600
vt 0.87753700 0.74708700
vt 0.87753700 0.74708700
vt 0.82864300 0.45772100
vt 0.51194500 0.67426300
vt 0.51194500 0.67426300
vt 0.82864300 0.45772100
vt 0.98274900 0.66209900
vt 0.95155100 0.60612200
vt 0.98274900 0.66209900
vt 0.61775700 0.76978800
vt 0.61775700 0.76978800
vt 0.16133200 0.36757500
vt 0.88427300 0.64116200
vt 0.88427300 0.64116200
vt 0.88427300 0.64116200
vt 0.17109200 0.37733500
vt 0.60029300 0.75149500
vt 0.60029300 0.75149500
vt 0.62115700 0.66766200
vt 0.62115700 0.66766200
vt 0.88991000 0.56993800
vt 0.63809700 0.68605600
vt 0.87188300 0.55192400
vt 0.63809700 0.68605600
vt 0.68045000 0.66905000
vt 0.82836100 0.56995100
vt 0.68045000 0.66905000
vt 0.83346900 0.69117200
vt 0.83346900 0.69117200
vt 0.83346900 0.69117200
vt 0.93352300 0.56260000
vt 0.94082700 0.67870500
vt 0.94082700 0.67870500
vt 0.96520900 0.67921300
vt 0.93352300 0.58809400
vt 0.96520900 0.67921300
vt 0.09421600 0.36757500
vt 0.91297200 0.77236400
vt 0.91297200 0.77236400
vt 0.79301400 0.74575100
vt 0.79474000 0.48259200
vt 0.04684700 0.40089600
vt 0.80215100 0.72301300
vt 0.03709600 0.39113600
vt 0.80215100 0.72301300
vt 0.05375600 0.38423600
vt 0.86866500 0.72282300
vt 0.06065900 0.36757600
vt 0.86866500 0.72282300
vt 0.06066400 0.40089700
vt 0.50135100 0.61312900
vt 0.85472600 0.78896900
vt 0.15443100 0.38423600
vt 0.47344800 0.86461500
vt 0.71062200 0.79885400
vt 0.47344800 0.86461500
vt 0.98551300 0.75674500
vt 0.59125400 0.66638200
vt 0.08040700 0.40089600
vt 0.63712900 0.62636600
vt 0.87188300 0.61347400
vt 0.63712900 0.62636600
vt 0.62021700 0.64316400
vt 0.88991000 0.59545900
vt 0.62021700 0.64316400
vt 0.61479200 0.64101600
vt 0.61479200 0.64101600
vt 0.61479200 0.64101600
vt 0.04356100 0.66632500
vt 0.04356100 0.66632500
vt 0.00663800 0.66632500
vt 0.13054300 0.80778700
vt 0.00663800 0.66632500
vt 0.08309300 0.91447900
vt 0.00353300 0.33968900
vt 0.00663800 0.54955800
vt 0.38118000 0.31203900
vt 0.52128000 0.83257800
vt 0.97032900 0.60680200
vt 0.52128000 0.83257800
vt 0.08309300 0.48712800
vt 0.25532700 0.33968900
vt 0.37155900 0.99093400
vt 0.38118000 0.25697700
vt 0.25479100 0.91467300
vt 0.27363700 0.80759300
vt 0.25479100 0.91467300
vt 0.24189100 0.33968900
vt 0.32108700 0.70090000
vt 0.38118500 0.24331800
vt 0.37155900 0.91467300
vt 0.37155900 0.95401100
vt 0.24882200 0.33968900
vt 0.63329500 0.00483000
vt 0.00353300 0.31227700
vt 0.38118000 0.28462700
vt 0.92878200 0.50045700
vt 0.92878200 0.50045700
vt 0.49914300 0.66212100
vt 0.49914300 0.66212100
vt 0.92353000 0.69162000
vt 0.58618200 0.61655900
vt 0.54451500 0.76846700
vt 0.51244500 0.60569700
vt 0.59125400 0.61655900
vt 0.51468600 0.61116500
vt 0.59125400 0.62246900
vt 0.59125400 0.62246900
vt 0.51468600 0.61116500
vt 0.44953200 0.76846700
vt 0.64629800 0.69942900
vt 0.95569200 0.50383000
vt 0.48957700 0.60453200
vt 0.78122800 0.60357300
vt 0.48450500 0.60453200
vt 0.52059900 0.76846700
vt 0.87331100 0.71920600
vt 0.87331100 0.71920600
vt 0.87331100 0.71920600
vt 0.70236400 0.69901100
vt 0.47344800 0.99280000
vt 0.49559900 0.60453200
vt 0.97705800 0.54457200
vt 0.92320900 0.63568800
vt 0.92320900 0.63568800
vt 0.95153800 0.54457200
vt 0.92412100 0.66020500
vt 0.92412100 0.66020500
vt 0.69332600 0.77381300
vt 0.69332600 0.77381300
vt 0.02710200 0.36758000
vt 0.68953800 0.72592000
vt 0.03685400 0.39114500
vt 0.68953800 0.72592000
vt 0.03685800 0.37734300
vt 0.68404700 0.75051100
vt 0.68404700 0.75051100
vt 0.08731500 0.38423600
vt 0.97748200 0.77627300
vt 0.97748200 0.77627300
vt 0.07065500 0.39113700
vt 0.96429800 0.57534700
vt 0.49668300 0.99280100
vt 0.60928300 0.63875500
vt 0.66538200 0.69263800
vt 0.66538200 0.69263800
vt 0.66538200 0.69263800
vt 0.66275300 0.68612900
vt 0.84638800 0.55192400
vt 0.66275300 0.68612900
vt 0.02019600 0.38423800
vt 0.85913600 0.58269900
f 1/1 8/8 11/11
f 11/11 16/16 1/1
f 18/18 21/21 23/23
f 23/23 25/25 18/18
f 27/27 28/28 29/29
f 29/29 30/30 27/27
f 31/31 36/36 40/40
f 40/40 41/41 31/31
f 43/43 46/46 48/48
f 48/48 52/52 43/43
f 56/56 60/60 62/62
f 62/62 66/66 56/56
f 70/70 71/71 73/73
f 73/73 75/75 70/70
f 77/77 80/80 83/83
f 83/83 87/87 77/77
f 89/89 92/92 95/95
f 95/95 100/100 89/89
f 102/102 72/72 104/104
f 104/104 105/105 102/102
f 110/110 112/112 114/114
f 114/114 98/98 110/110
f 116/116 118/118 123/123
f 123/123 126/126 116/116
f 129/129 132/132 134/134
f 134/134 139/139 129/129
f 141/141 144/144 30/30
f 30/30 145/145 141/141
f 148/148 150/150 152/152
f 152/152 156/156 148/148
f 158/158 105/105 104/104
f 104/104 162/162 158/158
f 167/167 169/169 173/173
f 173/173 91/91 167/167
f 131/131 175/175 177/177
f 177/177 180/180 131/131
f 163/163 27/27 24/24
f 24/24 20/20 163/163
f 182/182 184/184 188/188
f 188/188 192/192 182/182
f 193/193 200/200 201/201
f 201/201 208/208 193/193
f 209/209 214/214 55/55
f 55/55 217/217 209/209
f 218/218 221/221 112/112
f 112/112 110/110 218/218
f 160/160 224/224 106/106
f 26/26 128/128 159/159
f 159/159 19/19 26/26
f 226/226 227/227 229/229
f 229/229 231/231 226/226
f 234/234 236/236 115/115
f 115/115 166/166 234/234
f 237/237 240/240 241/241
f 241/241 244/244 237/237
f 111/111 168/168 164/164
f 164/164 113/113 111/111
f 231/231 245/245 246/246
f 246/246 226/226 231/231
f 248/248 135/135 130/130
f 250/250 251/251 47/47
f 47/47 44/44 250/250
f 246/246 252/252 255/255
f 255/255 226/226 246/246
f 97/97 94/94 170/170
f 170/170 107/107 97/97
f 256/256 260/260 263/263
f 263/263 267/267 256/256
f 269/269 272/272 276/276
f 276/276 277/277 269/269
f 280/280 176/176 142/142
f 142/142 249/249 280/280
f 282/282 286/286 9/9
f 9/9 6/6 282/282
f 281/281 53/53 51/51
f 51/51 291/291 281/281
f 293/293 296/296 223/223
f 223/223 140/140 293/293
f 298/298 300/300 305/305
f 305/305 310/310 298/298
f 5/5 2/2 313/313
f 313/313 316/316 5/5
f 174/174 143/143 142/142
f 142/142 176/176 174/174
f 319/319 323/323 149/149
f 149/149 146/146 319/319
f 325/325 330/330 333/333
f 333/333 335/335 325/325
f 340/340 288/288 341/341
f 246/246 345/345 346/346
f 346/346 252/252 246/246
f 349/349 350/350 353/353
f 353/353 356/356 349/349
f 362/362 367/367 369/369
f 369/369 136/136 362/362
f 374/374 375/375 379/379
f 379/379 382/382 374/374
f 295/295 101/101 106/106
f 106/106 224/224 295/295
f 385/385 389/389 254/254
f 254/254 253/253 385/385
f 391/391 395/395 396/396
f 396/396 401/401 391/391
f 218/218 404/404 406/406
f 406/406 221/221 218/218
f 398/398 412/412 413/413
f 413/413 400/400 398/398
f 417/417 386/386 100/100
f 100/100 95/95 417/417
f 54/54 280/280 249/249
f 249/249 45/45 54/54
f 419/419 422/422 424/424
f 424/424 427/427 419/419
f 261/261 428/428 431/431
f 431/431 262/262 261/261
f 434/434 247/247 90/90
f 90/90 99/99 434/434
f 189/189 436/436 442/442
f 442/442 444/444 189/189
f 447/447 452/452 185/185
f 185/185 454/454 447/447
f 457/457 190/190 187/187
f 187/187 446/446 457/457
f 458/458 461/461 399/399
f 399/399 414/414 458/458
f 157/157 466/466 467/467
f 467/467 147/147 157/157
f 365/365 361/361 292/292
f 292/292 243/243 365/365
f 472/472 474/474 477/477
f 477/477 479/479 472/472
f 483/483 485/485 487/487
f 487/487 320/320 483/483
f 81/81 155/155 154/154
f 154/154 85/85 81/81
f 491/491 494/494 278/278
f 278/278 274/274 491/491
f 497/497 499/499 503/503
f 503/503 322/322 497/497
f 271/271 506/506 508/508
f 508/508 275/275 271/271
f 513/513 515/515 517/517
f 517/517 522/522 513/513
f 523/523 447/447 454/454
f 454/454 528/528 523/523
f 488/488 299/299 425/425
f 425/425 498/498 488/488
f 397/397 530/530 536/536
f 536/536 411/411 397/397
f 122/122 119/119 539/539
f 539/539 544/544 122/122
f 547/547 549/549 410/410
f 410/410 532/532 547/547
f 308/308 303/303 39/39
f 552/552 556/556 181/181
f 181/181 191/191 552/552
f 559/559 560/560 505/505
f 505/505 273/273 559/559
f 565/565 568/568 570/570
f 570/570 575/575 565/565
f 578/578 581/581 585/585
f 585/585 588/588 578/578
f 529/529 589/589 594/594
f 594/594 534/534 529/529
f 586/586 583/583 595/595
f 595/595 598/598 586/586
f 602/602 475/475 605/605
f 605/605 608/608 602/602
f 611/611 614/614 617/617
f 617/617 490/490 611/611
f 619/619 623/623 627/627
f 627/627 629/629 619/619
f 449/449 633/633 635/635
f 635/635 451/451 449/449
f 637/637 644/644 645/645
f 645/645 649/649 637/637
f 651/651 654/654 504/504
f 504/504 501/501 651/651
f 500/500 421/421 657/657
f 657/657 652/652 500/500
f 660/660 664/664 666/666
f 666/666 671/671 660/660
f 512/512 674/674 609/609
f 609/609 606/606 512/512
f 677/677 678/678 683/683
f 683/683 685/685 677/677
f 688/688 691/691 693/693
f 693/693 700/700 688/688
f 702/702 704/704 708/708
f 708/708 711/711 702/702
f 713/713 432/432 717/717
f 717/717 720/720 713/713
f 722/722 727/727 728/728
f 729/729 733/733 728/728
f 736/736 650/650 728/728
f 727/727 729/729 728/728
f 733/733 738/738 728/728
f 650/650 647/647 728/728
f 738/738 736/736 728/728
f 655/655 653/653 741/741
f 742/742 655/655 741/741
f 747/747 748/748 741/741
f 630/630 625/625 741/741
f 625/625 742/742 741/741
f 653/653 659/659 741/741
f 659/659 747/747 741/741
f 748/748 630/630 741/741
f 37/37 302/302 724/724
f 724/724 42/42 37/37
f 527/527 453/453 518/518
f 518/518 516/516 527/527
f 332/332 329/329 695/695
f 695/695 753/753 332/332
f 640/640 756/756 34/34
f 129/129 139/139 225/225
f 225/225 161/161 129/129
f 548/548 760/760 763/763
f 763/763 550/550 548/548
f 262/262 431/431 715/715
f 715/715 380/380 262/262
f 235/235 233/233 766/766
f 766/766 768/768 235/235
f 258/258 661/661 669/669
f 669/669 769/769 258/258
f 78/78 638/638 772/772
f 772/772 82/82 78/78
f 290/290 50/50 232/232
f 232/232 165/165 290/290
f 775/775 552/552 191/191
f 191/191 456/456 775/775
f 556/556 522/522 517/517
f 517/517 181/181 556/556
f 172/172 370/370 366/366
f 366/366 109/109 172/172
f 779/779 13/13 785/785
f 785/785 787/787 779/779
f 792/792 428/428 261/261
f 261/261 795/795 792/792
f 210/210 365/365 243/243
f 243/243 242/242 210/210
f 707/707 798/798 801/801
f 801/801 710/710 707/707
f 559/559 273/273 270/270
f 270/270 804/804 559/559
f 805/805 809/809 296/296
f 296/296 293/293 805/805
f 372/372 812/812 815/815
f 815/815 376/376 372/372
f 817/817 610/610 509/509
f 509/509 821/821 817/817
f 212/212 825/825 343/343
f 343/343 213/213 212/212
f 828/828 830/830 599/599
f 599/599 831/831 828/828
f 352/352 351/351 835/835
f 835/835 840/840 352/352
f 844/844 847/847 445/445
f 445/445 441/441 844/844
f 752/752 571/571 334/334
f 849/849 754/754 692/692
f 692/692 690/690 849/849
f 147/147 467/467 483/483
f 483/483 320/320 147/147
f 372/372 687/687 699/699
f 699/699 812/812 372/372
f 832/832 600/600 597/597
f 597/597 850/850 832/832
f 854/854 857/857 813/813
f 813/813 811/811 854/854
f 403/403 65/65 862/862
f 862/862 198/198 403/403
f 648/648 735/735 773/773
f 773/773 639/639 648/648
f 468/468 734/734 731/731
f 731/731 481/481 468/468
f 865/865 673/673 511/511
f 511/511 521/521 865/865
f 429/429 867/867 718/718
f 718/718 433/433 429/429
f 870/870 750/750 745/745
f 745/745 420/420 870/870
f 851/851 874/874 791/791
f 791/791 833/833 851/851
f 875/875 880/880 463/463
f 463/463 460/460 875/875
f 883/883 615/615 612/612
f 612/612 818/818 883/883
f 430/430 790/790 873/873
f 873/873 866/866 430/430
f 885/885 743/743 626/626
f 626/626 622/622 885/885
f 859/859 786/786 203/203
f 203/203 197/197 859/859
f 888/888 890/890 555/555
f 555/555 551/551 888/888
f 631/631 448/448 525/525
f 525/525 895/895 631/631
f 898/898 900/900 902/902
f 668/668 665/665 902/902
f 856/856 855/855 902/902
f 900/900 668/668 902/902
f 665/665 904/904 902/902
f 855/855 906/906 902/902
f 904/904 856/856 902/902
f 872/872 852/852 909/909
f 868/868 872/872 909/909
f 584/584 580/580 909/909
f 721/721 716/716 909/909
f 716/716 868/868 909/909
f 852/852 596/596 909/909
f 596/596 584/584 909/909
f 580/580 721/721 909/909
f 775/775 456/456 479/479
f 479/479 477/477 775/775
f 819/819 910/910 394/394
f 394/394 390/390 819/819
f 124/124 440/440 914/914
f 914/914 117/117 124/124
f 696/696 694/694 328/328
f 33/33 758/758 307/307
f 307/307 38/38 33/33
f 238/238 371/371 215/215
f 215/215 239/239 238/238
f 493/493 916/916 919/919
f 919/919 924/924 493/493
f 30/30 144/144 24/24
f 24/24 27/27 30/30
f 782/782 14/14 12/12
f 12/12 337/337 782/782
f 388/388 926/926 929/929
f 929/929 932/932 388/388
f 800/800 796/796 934/934
f 934/934 470/470 800/800
f 940/940 74/74 72/72
f 72/72 102/102 940/940
f 28/28 71/71 345/345
f 345/345 29/29 28/28
f 90/90 247/247 131/131
f 131/131 180/180 90/90
f 251/251 145/145 245/245
f 245/245 231/231 251/251
f 387/387 415/415 926/926
f 926/926 388/388 387/387
f 158/158 162/162 22/22
f 22/22 17/17 158/158
f 287/287 239/239 215/215
f 215/215 344/344 287/287
f 108/108 364/364 211/211
f 211/211 220/220 108/108
f 230/230 765/765 48/48
f 48/48 46/46 230/230
f 363/363 941/941 805/805
f 805/805 293/293 363/363
f 289/289 284/284 241/241
f 241/241 240/240 289/289
f 245/245 29/29 345/345
f 345/345 246/246 245/245
f 93/93 178/178 290/290
f 290/290 165/165 93/93
f 128/128 26/26 175/175
f 175/175 131/131 128/128
f 253/253 347/347 944/944
f 944/944 385/385 253/253
f 949/949 69/69 76/76
f 76/76 938/938 949/949
f 948/948 939/939 808/808
f 808/808 806/806 948/948
f 145/145 251/251 250/250
f 250/250 141/141 145/145
f 28/28 27/27 163/163
f 163/163 103/103 28/28
f 101/101 295/295 807/807
f 807/807 937/937 101/101
f 255/255 950/950 227/227
f 227/227 226/226 255/255
f 944/944 347/347 69/69
f 69/69 949/949 944/944
f 49/49 766/766 233/233
f 507/507 912/912 820/820
f 820/820 510/510 507/507
f 770/770 793/793 259/259
f 259/259 257/257 770/770
f 788/788 783/783 314/314
f 314/314 202/202 788/788
f 283/283 823/823 210/210
f 210/210 242/242 283/283
f 89/89 179/179 92/92
f 291/291 180/180 177/177
f 177/177 281/281 291/291
f 71/71 28/28 103/103
f 103/103 73/73 71/71
f 933/933 767/767 228/228
f 228/228 952/952 933/933
f 137/137 133/133 371/371
f 371/371 238/238 137/137
f 25/25 23/23 143/143
f 143/143 174/174 25/25
f 408/408 195/195 953/953
f 953/953 64/64 408/408
f 958/958 961/961 964/964
f 964/964 543/543 958/958
f 435/435 945/945 942/942
f 942/942 360/360 435/435
f 70/70 346/346 345/345
f 345/345 71/71 70/70
f 797/797 526/526 514/514
f 514/514 936/936 797/797
f 861/861 61/61 955/955
f 946/946 434/434 99/99
f 99/99 384/384 946/946
f 248/248 435/435 360/360
f 360/360 135/135 248/248
f 231/231 229/229 47/47
f 47/47 251/251 231/231
f 373/373 383/383 966/966
f 966/966 689/689 373/373
f 219/219 57/57 67/67
f 67/67 405/405 219/219
f 377/377 266/266 264/264
f 264/264 378/378 377/377
f 207/207 780/780 954/954
f 954/954 194/194 207/207
f 285/285 318/318 824/824
f 768/768 930/930 928/928
f 928/928 235/235 768/768
f 145/145 30/30 29/29
f 29/29 245/245 145/145
f 309/309 306/306 757/757
f 757/757 968/968 309/309
f 676/676 911/911 505/505
f 505/505 560/560 676/676
f 576/576 829/829 827/827
f 827/827 563/563 576/576
f 542/542 710/710 801/801
f 801/801 957/957 542/542
f 604/604 935/935 515/515
f 515/515 513/513 604/604
f 519/519 455/455 186/186
f 186/186 183/183 519/519
f 78/78 970/970 643/643
f 643/643 638/638 78/78
f 265/265 376/376 815/815
f 815/815 975/975 265/265
f 806/806 943/943 947/947
f 947/947 948/948 806/806
f 86/86 871/871 419/419
f 419/419 427/427 86/86
f 669/669 568/568 565/565
f 565/565 769/769 669/669
f 480/480 959/959 799/799
f 799/799 471/471 480/480
f 503/503 886/886 151/151
f 151/151 322/322 503/503
f 828/828 831/831 792/792
f 792/792 795/795 828/828
f 389/389 931/931 951/951
f 951/951 254/254 389/389
f 911/911 676/676 686/686
f 686/686 393/393 911/911
f 886/886 624/624 153/153
f 153/153 151/151 886/886
f 426/426 972/972 79/79
f 79/79 88/88 426/426
f 487/487 485/485 304/304
f 304/304 297/297 487/487
f 907/907 697/697 327/327
f 327/327 326/326 907/907
f 978/978 764/764 762/762
f 762/762 838/838 978/978
f 963/963 121/121 541/541
f 845/845 962/962 960/960
f 960/960 846/846 845/845
f 491/491 274/274 509/509
f 509/509 610/610 491/491
f 837/837 804/804 270/270
f 270/270 976/976 837/837
f 473/473 601/601 981/981
f 981/981 478/478 473/473
f 984/984 889/889 553/553
f 553/553 777/777 984/984
f 822/822 317/317 338/338
f 338/338 342/342 822/822
f 679/679 675/675 561/561
f 561/561 985/985 679/679
f 921/921 876/876 459/459
f 459/459 922/922 921/921
f 714/714 719/719 582/582
f 582/582 577/577 714/714
f 990/990 992/992 558/558
f 558/558 803/803 990/990
f 810/810 698/698 908/908
f 908/908 853/853 810/810
f 620/620 628/628 749/749
f 749/749 869/869 620/620
f 484/484 725/725 723/723
f 723/723 301/301 484/484
f 465/465 774/774 737/737
f 737/737 739/739 465/465
f 993/993 986/986 562/562
f 562/562 557/557 993/993
f 973/973 814/814 858/858
f 858/858 905/905 973/973
f 971/971 969/969 755/755
f 755/755 641/641 971/971
f 918/918 495/495 492/492
f 492/492 616/616 918/918
f 554/554 892/892 863/863
f 863/863 520/520 554/554
f 538/538 994/994 703/703
f 706/706 994/994 893/893
f 634/634 994/994 997/997
f 703/703 994/994 706/706
f 893/893 994/994 632/632
f 997/997 994/994 915/915
f 632/632 994/994 634/634
f 607/607 998/998 603/603
f 672/672 998/998 607/607
f 982/982 998/998 887/887
f 891/891 998/998 864/864
f 864/864 998/998 672/672
f 603/603 998/998 979/979
f 979/979 998/998 982/982
f 887/887 998/998 891/891
f 331/331 573/573 897/897
f 897/897 336/336 331/331
f 977/977 268/268 279/279
f 279/279 999/999 977/977
f 125/125 120/120 965/965
f 965/965 843/843 125/125
f 439/439 127/127 842/842
f 489/489 496/496 324/324
f 324/324 321/321 489/489
f 458/458 414/414 1000/1000
f 1000/1000 923/923 458/458
f 1003/1003 817/817 821/821
f 821/821 392/392 1003/1003
f 96/96 115/115 925/925
f 925/925 416/416 96/96
f 380/380 715/715 579/579
f 579/579 381/381 380/380
f 707/707 523/523 528/528
f 528/528 798/798 707/707
f 63/63 59/59 222/222
f 222/222 407/407 63/63
f 381/381 579/579 587/587
f 587/587 967/967 381/381
f 153/153 624/624 621/621
f 621/621 84/84 153/153
f 767/767 765/765 230/230
f 230/230 228/228 767/767
f 204/204 312/312 3/3
f 3/3 206/206 204/204
f 461/461 1003/1003 392/392
f 392/392 399/399 461/461
f 222/222 59/59 168/168
f 168/168 111/111 222/222
f 452/452 436/436 189/189
f 189/189 185/185 452/452
f 82/82 772/772 466/466
f 466/466 157/157 82/82
f 205/205 4/4 15/15
f 15/15 781/781 205/205
f 686/686 530/530 397/397
f 397/397 393/393 686/686
f 975/975 661/661 258/258
f 258/258 265/265 975/975
f 564/564 826/826 794/794
f 794/794 771/771 564/564
f 278/278 494/494 923/923
f 923/923 1000/1000 278/278
f 646/646 642/642 35/35
f 35/35 32/32 646/646
f 574/574 572/572 751/751
f 751/751 848/848 574/574
f 759/759 355/355 839/839
f 84/84 621/621 871/871
f 871/871 86/86 84/84
f 604/604 474/474 472/472
f 472/472 935/935 604/604
f 497/497 424/424 422/422
f 422/422 499/499 497/497
f 537/537 701/701 712/712
f 712/712 540/540 537/537
f 903/903 663/663 662/662
f 662/662 974/974 903/903
f 980/980 983/983 776/776
f 776/776 476/476 980/980
f 591/591 531/531 684/684
f 684/684 681/681 591/591
f 705/705 894/894 524/524
f 524/524 709/709 705/705
f 878/878 1004/1004 1001/1001
f 1001/1001 462/462 878/878
f 482/482 730/730 726/726
f 726/726 486/486 482/482
f 437/437 995/995 913/913
f 913/913 443/443 437/437
f 1002/1002 1006/1006 881/881
f 881/881 816/816 1002/1002
f 834/834 988/988 802/802
f 802/802 841/841 834/834
f 996/996 438/438 450/450
f 450/450 636/636 996/996
f 418/418 746/746 658/658
f 658/658 423/423 418/418
f 884/884 502/502 656/656
f 656/656 744/744 884/884
f 339/339 315/315 311/311
f 311/311 784/784 339/339
f 670/670 667/667 901/901
f 901/901 567/567 670/670
f 740/740 732/732 469/469
f 469/469 464/464 740/740
f 836/836 1007/1007 989/989
f 991/991 1007/1007 987/987
f 682/682 1007/1007 590/590
f 989/989 1007/1007 991/991
f 987/987 1007/1007 680/680
f 590/590 1007/1007 592/592
f 680/680 1007/1007 682/682
f 618/618 1008/1008 917/917
f 613/613 1008/1008 618/618
f 877/877 1008/1008 879/879
f 1005/1005 1008/1008 882/882
f 882/882 1008/1008 613/613
f 917/917 1008/1008 920/920
f 920/920 1008/1008 877/877
f 879/879 1008/1008 1005/1005
f 587/587 599/599 830/830
f 830/830 967/967 587/587
f 925/925 115/115 236/236
f 236/236 927/927 925/925
f 357/357 535/535 593/593
f 593/593 348/348 357/357
f 533/533 358/358 546/546
f 545/545 359/359 354/354
f 354/354 761/761 545/545
f 566/566 899/899 896/896
f 896/896 569/569 566/566
f 956/956 778/778 789/789
f 789/789 860/860 956/956
f 58/58 216/216 368/368
f 368/368 171/171 58/58
f 169/169 60/60 56/56
f 56/56 173/173 169/169
f 409/409 199/199 196/196
f 340/340 10/10 288/288
f 861/861 68/68 61/61
f 285/285 7/7 318/318
f 409/409 402/402 199/199
f 138/138 237/237 244/244
f 244/244 294/294 138/138

