# https://github.com/mikedh/trimesh
mtllib material.mtl
usemtl open
v 0.04009650 -0.07752825 0.54625425
v 0.04009650 -0.07752825 0.54625425
v 0.04009650 -0.07752825 0.54625425
v 0.04009650 -0.07752825 0.54625425
v 0.04009650 -0.07752825 0.54625425
v 0.04009650 -0.07752825 0.54625425
v 0.15345525 -0.08089500 0.55054350
v 0.15345525 -0.08089500 0.55054350
v 0.15345525 -0.08089500 0.55054350
v 0.16027725 0.14882775 0.55054350
v 0.16027725 0.14882775 0.55054350
v 0.16027725 0.14882775 0.55054350
v 0.04691925 0.15221475 0.54625425
v 0.04691925 0.15221475 0.54625425
v 0.04691925 0.15221475 0.54625425
v 0.04691925 0.15221475 0.54625425
v 0.04691925 0.15221475 0.54625425
v 0.04691925 0.15221475 0.54625425
v 0.16033875 0.14882625 0.54889350
v 0.16033875 0.14882625 0.54889350
v 0.16033875 0.14882625 0.54889350
v 0.15351600 -0.08089650 0.54889350
v 0.15351600 -0.08089650 0.54889350
v 0.15351600 -0.08089650 0.54889350
v 0.04003575 -0.07752600 0.36614250
v 0.04003575 -0.07752600 0.36614250
v 0.04003575 -0.07752600 0.36614250
v 0.04688850 0.15219525 0.36614250
v 0.04688850 0.15219525 0.36614250
v 0.04688850 0.15219525 0.36614250
v 0.26703450 -0.08426775 0.54625425
v 0.26703450 -0.08426775 0.54625425
v 0.26703450 -0.08426775 0.54625425
v 0.27385650 0.14545500 0.54625425
v 0.27385650 0.14545500 0.54625425
v 0.27385650 0.14545500 0.54625425
v 0.27385650 0.14545500 0.36614250
v 0.27385650 0.14545500 0.36614250
v 0.27385650 0.14545500 0.36614250
v 0.26703450 -0.08426775 0.36614250
v 0.26703450 -0.08426775 0.36614250
v 0.26703450 -0.08426775 0.36614250
v 0.14219625 0.14937450 0.41451525
v 0.17850150 0.14830650 0.36614250
v 0.17850150 0.14830650 0.36614250
v 0.17167950 -0.08141625 0.36614250
v 0.17167950 -0.08141625 0.36614250
v 0.17169450 -0.08141625 0.41451525
v 0.14217300 0.14937525 0.36614250
v 0.14217300 0.14937525 0.36614250
v 0.17851650 0.14830650 0.41451525
v 0.13537425 -0.08034750 0.41451525
v 0.13535025 -0.08034675 0.36614250
v 0.13535025 -0.08034675 0.36614250
v 0.13535025 -0.08034675 0.36614250
v 0.13535025 -0.08034675 0.36614250
v 0.17167950 -0.08141625 0.36614250
v 0.17167950 -0.08141625 0.36614250
v 0.17169450 -0.08141625 0.41451525
v 0.13537425 -0.08034750 0.41451525
v 0.14217300 0.14937525 0.36614250
v 0.14217300 0.14937525 0.36614250
v 0.17850150 0.14830650 0.36614250
v 0.17850150 0.14830650 0.36614250
v 0.14219625 0.14937450 0.41451525
v 0.17851650 0.14830650 0.41451525
v 0.16290000 -0.08117550 0.59143050
v 0.16290000 -0.08117550 0.59143050
v 0.16290000 -0.08117550 0.59143050
v 0.26703450 -0.08426775 0.54625425
v 0.26703450 -0.08426775 0.54625425
v 0.26703450 -0.08426775 0.54625425
v 0.27385650 0.14545500 0.54625425
v 0.27385650 0.14545500 0.54625425
v 0.27385650 0.14545500 0.54625425
v 0.16972200 0.14854725 0.59143050
v 0.16972200 0.14854725 0.59143050
v 0.16972200 0.14854725 0.59143050
v 0.16235250 -0.08115900 0.59016300
v 0.16235250 -0.08115900 0.59016300
v 0.16235250 -0.08115900 0.59016300
v 0.16917525 0.14856375 0.59016300
v 0.16917525 0.14856375 0.59016300
v 0.16917525 0.14856375 0.59016300
vt 0.01948700 0.51126400
vt 0.73496800 0.28512600
vt 0.36732100 0.95552300
vt 0.16449400 0.51147400
vt 0.96075000 0.28512600
vt 0.52737100 0.52985100
vt 0.75444000 0.97198400
vt 0.75434300 0.96227800
vt 0.14430900 0.51126400
vt 0.15459000 0.97198400
vt 0.14430900 0.21152900
vt 0.20613100 0.96146300
vt 0.16449400 0.21171300
vt 0.01948700 0.21150300
vt 0.73496800 0.01423400
vt 0.59321000 0.96039900
vt 0.77742400 0.73606700
vt 0.96075000 0.01423400
vt 0.62215600 0.01425800
vt 0.20613100 0.95470700
vt 0.15451000 0.98245300
vt 0.75444000 0.95552300
vt 0.75436000 0.98245300
vt 0.62215600 0.28512600
vt 0.52730300 0.33259900
vt 0.36415200 0.51261900
vt 0.36142300 0.51147400
vt 0.36418600 0.21288400
vt 0.77745800 0.53881500
vt 0.36142300 0.21173900
vt 0.16471700 0.51887600
vt 0.73508800 0.28512600
vt 0.77749200 0.52985100
vt 0.73508800 0.01425800
vt 0.52730300 0.73606700
vt 0.16471700 0.81861100
vt 0.52730300 0.53881500
vt 0.36379900 0.81886600
vt 0.36164600 0.81861100
vt 0.36164600 0.51887600
vt 0.36379900 0.51913100
vt 0.77749200 0.33259900
vt 0.67241400 0.59179100
vt 0.63240100 0.53881500
vt 0.46872400 0.81889200
vt 0.46872400 0.51915700
vt 0.67239400 0.33259900
vt 0.67241200 0.38557500
vt 0.67244000 0.53881500
vt 0.46903300 0.21287100
vt 0.63238400 0.59179100
vt 0.63238100 0.38557500
vt 0.46903300 0.51260600
vt 0.63235600 0.33259900
vt 0.65702300 0.84825200
vt 0.76298200 0.84833300
vt 0.76295600 0.92833600
vt 0.65699800 0.76825000
vt 0.55114500 0.76825000
vt 0.55117000 0.84823500
vt 0.65710400 0.84825200
vt 0.16308900 0.84833300
vt 0.16306300 0.92833600
vt 0.65712900 0.76825000
vt 0.76295700 0.84823500
vt 0.76298200 0.76825000
vt 0.14396600 0.51902200
vt 0.75436400 0.97191500
vt 0.40066900 0.94920900
vt 0.75444000 0.94303400
vt 0.50942200 0.28502800
vt 0.01907600 0.51902200
vt 0.50942200 0.01416000
vt 0.01907600 0.81875700
vt 0.40059000 0.94927800
vt 0.20620600 0.97191400
vt 0.14396600 0.81875700
vt 0.75436600 0.95545300
vt 0.75444000 0.96234800
vt 0.62229200 0.28502800
vt 0.40058900 0.94303400
vt 0.20628200 0.96234800
vt 0.62229200 0.01416000
vt 0.75444000 0.94927800
f 1/1 9/9 11/11
f 11/11 14/14 1/1
f 2/2 15/15 19/19
f 19/19 24/24 2/2
f 7/7 23/23 21/21
f 21/21 10/10 7/7
f 12/12 20/20 16/16
f 3/3 22/22 8/8
f 27/27 4/4 13/13
f 13/13 30/30 27/27
f 5/5 32/32 34/34
f 34/34 18/18 5/5
f 39/39 36/36 31/31
f 31/31 40/40 39/39
f 43/43 29/29 17/17
f 45/45 38/38 41/41
f 41/41 46/46 45/45
f 48/48 42/42 33/33
f 33/33 6/6 48/48
f 47/47 42/42 48/48
f 49/49 29/29 43/43
f 37/37 44/44 51/51
f 52/52 48/48 6/6
f 37/37 51/51 17/17
f 17/17 35/35 37/37
f 28/28 50/50 53/53
f 53/53 26/26 28/28
f 25/25 52/52 6/6
f 25/25 54/54 52/52
f 51/51 43/43 17/17
f 55/55 58/58 59/59
f 59/59 60/60 55/55
f 62/62 63/63 57/57
f 57/57 56/56 62/62
f 64/64 61/61 65/65
f 65/65 66/66 64/64
f 67/67 72/72 74/74
f 74/74 77/77 67/67
f 80/80 83/83 73/73
f 73/73 71/71 80/80
f 75/75 84/84 78/78
f 76/76 82/82 79/79
f 79/79 68/68 76/76
f 69/69 81/81 70/70

