# https://github.com/mikedh/trimesh
mtllib material.mtl
usemtl orange
v -3.00000000 2.51999998 0.00200000
v -3.08335114 2.52729225 0.00200000
v -3.20000005 2.51999998 0.00200000
v -3.20000005 2.51999998 0.00200000
v -3.08335114 2.52729225 0.00200000
v -3.16416955 2.54894757 0.00200000
v -3.20000005 2.51999998 0.00200000
v -3.16416955 2.54894757 0.00200000
v -3.27744579 2.56020021 0.00200000
v -3.27744579 2.56020021 0.00200000
v -3.16416955 2.54894757 0.00200000
v -3.24000001 2.58430791 0.00200000
v -3.27744579 2.56020021 0.00200000
v -3.24000001 2.58430791 0.00200000
v -3.34707928 2.61278439 0.00200000
v -3.34707928 2.61278439 0.00200000
v -3.24000001 2.58430791 0.00200000
v -3.30853796 2.63229871 0.00200000
v -3.34707928 2.61278439 0.00200000
v -3.30853796 2.63229871 0.00200000
v -3.40693974 2.67627144 0.00200000
v -3.40693974 2.67627144 0.00200000
v -3.30853796 2.63229871 0.00200000
v -3.36770129 2.69146204 0.00200000
v -3.40693974 2.67627144 0.00200000
v -3.36770129 2.69146204 0.00200000
v -3.45534158 2.74887443 0.00200000
v -3.45534158 2.74887443 0.00200000
v -3.36770129 2.69146204 0.00200000
v -3.41569209 2.75999999 0.00200000
v -3.45534158 2.74887443 0.00200000
v -3.41569209 2.75999999 0.00200000
v -3.49092197 2.82854819 0.00200000
v -3.49092197 2.82854819 0.00200000
v -3.41569209 2.75999999 0.00200000
v -3.45105243 2.83583045 0.00200000
v -3.49092197 2.82854819 0.00200000
v -3.45105243 2.83583045 0.00200000
v -3.51267886 2.91304994 0.00200000
v -3.51267886 2.91304994 0.00200000
v -3.45105243 2.83583045 0.00200000
v -3.47270775 2.91664886 0.00200000
v -3.51267886 2.91304994 0.00200000
v -3.47270775 2.91664886 0.00200000
v -3.51999998 3.00000000 0.00200000
v -3.51999998 3.00000000 0.00200000
v -3.47270775 2.91664886 0.00200000
v -3.48000002 3.00000000 0.00200000
v -3.48000002 4.90000010 0.00200000
v -3.47285914 4.99073219 0.00200000
v -3.48000002 5.11908913 0.00200000
v -3.48000002 5.11908913 0.00200000
v -3.47285914 4.99073219 0.00200000
v -3.45161271 5.07922983 0.00200000
v -3.48000002 5.11908913 0.00200000
v -3.45161271 5.07922983 0.00200000
v -3.44038153 5.20395327 0.00200000
v -3.44038153 5.20395327 0.00200000
v -3.45161271 5.07922983 0.00200000
v -3.41678381 5.16331434 0.00200000
v -3.44038153 5.20395327 0.00200000
v -3.41678381 5.16331434 0.00200000
v -3.38843226 5.28188181 0.00200000
v -3.38843226 5.28188181 0.00200000
v -3.41678381 5.16331434 0.00200000
v -3.36922979 5.24091530 0.00200000
v -3.38843226 5.28188181 0.00200000
v -3.36922979 5.24091530 0.00200000
v -3.32533765 5.35109615 0.00200000
v -3.32533765 5.35109615 0.00200000
v -3.36922979 5.24091530 0.00200000
v -3.31012201 5.31012201 0.00200000
v -3.32533765 5.35109615 0.00200000
v -3.31012201 5.31012201 0.00200000
v -3.25253701 5.41001701 0.00200000
v -3.25253701 5.41001701 0.00200000
v -3.31012201 5.31012201 0.00200000
v -3.24091554 5.36922979 0.00200000
v -3.25253701 5.41001701 0.00200000
v -3.24091554 5.36922979 0.00200000
v -3.17169213 5.45730019 0.00200000
v -3.17169213 5.45730019 0.00200000
v -3.24091554 5.36922979 0.00200000
v -3.16331458 5.41678381 0.00200000
v -3.17169213 5.45730019 0.00200000
v -3.16331458 5.41678381 0.00200000
v -3.08464742 5.49186611 0.00200000
v -3.08464742 5.49186611 0.00200000
v -3.16331458 5.41678381 0.00200000
v -3.07922983 5.45161295 0.00200000
v -3.08464742 5.49186611 0.00200000
v -3.07922983 5.45161295 0.00200000
v -2.99338913 5.51292610 0.00200000
v -2.99338913 5.51292610 0.00200000
v -3.07922983 5.45161295 0.00200000
v -2.99073195 5.47285938 0.00200000
v -2.99338913 5.51292610 0.00200000
v -2.99073195 5.47285938 0.00200000
v -2.90000010 5.51999998 0.00200000
v -2.90000010 5.51999998 0.00200000
v -2.99073195 5.47285938 0.00200000
v -2.90000010 5.48000002 0.00200000
v -2.90000010 5.51999998 0.00200000
v -2.90000010 5.48000002 0.00200000
v -2.09999990 5.51999998 0.00200000
v -2.09999990 5.51999998 0.00200000
v -2.90000010 5.48000002 0.00200000
v -2.09999990 5.48000002 0.00200000
v -2.09999990 5.51999998 0.00200000
v -2.09999990 5.48000002 0.00200000
v -2.01180029 5.52817297 0.00200000
v -2.01180029 5.52817297 0.00200000
v -2.09999990 5.48000002 0.00200000
v -2.00970292 5.48789978 0.00200000
v -2.01180029 5.52817297 0.00200000
v -2.00970292 5.48789978 0.00200000
v -1.92660403 5.55241346 0.00200000
v -1.92660403 5.55241346 0.00200000
v -2.00970292 5.48789978 0.00200000
v -1.92214954 5.51135969 0.00200000
v -1.92660403 5.55241346 0.00200000
v -1.92214954 5.51135969 0.00200000
v -1.84731257 5.59189558 0.00200000
v -1.84731257 5.59189558 0.00200000
v -1.92214954 5.51135969 0.00200000
v -1.84000003 5.54966688 0.00200000
v -1.84731257 5.59189558 0.00200000
v -1.84000003 5.54966688 0.00200000
v -1.77662611 5.64527559 0.00200000
v -1.77662611 5.64527559 0.00200000
v -1.84000003 5.54966688 0.00200000
v -1.76575041 5.60165691 0.00200000
v -1.77662611 5.64527559 0.00200000
v -1.76575041 5.60165691 0.00200000
v -1.71695173 5.71073532 0.00200000
v -1.71695173 5.71073532 0.00200000
v -1.76575041 5.60165691 0.00200000
v -1.70165694 5.66575050 0.00200000
v -1.71695173 5.71073532 0.00200000
v -1.70165694 5.66575050 0.00200000
v -1.67032158 5.78604555 0.00200000
v -1.67032158 5.78604555 0.00200000
v -1.70165694 5.66575050 0.00200000
v -1.64966679 5.73999977 0.00200000
v -1.67032158 5.78604555 0.00200000
v -1.64966679 5.73999977 0.00200000
v -1.63832366 5.86864185 0.00200000
v -1.63832366 5.86864185 0.00200000
v -1.64966679 5.73999977 0.00200000
v -1.61135983 5.82214975 0.00200000
v -1.63832366 5.86864185 0.00200000
v -1.61135983 5.82214975 0.00200000
v -1.62204754 5.95571136 0.00200000
v -1.62204754 5.95571136 0.00200000
v -1.61135983 5.82214975 0.00200000
v -1.58789992 5.90970278 0.00200000
v -1.62204754 5.95571136 0.00200000
v -1.58789992 5.90970278 0.00200000
v -1.62204754 6.04428864 0.00200000
v -1.58789992 5.90970278 0.00200000
v -1.58000004 6.00000000 0.00200000
v -1.62204754 6.04428864 0.00200000
v -1.62204754 6.04428864 0.00200000
v -1.58000004 6.00000000 0.00200000
v -1.58789992 6.09029722 0.00200000
v -1.62204754 6.04428864 0.00200000
v -1.58789992 6.09029722 0.00200000
v -1.63832366 6.13135815 0.00200000
v -1.63832366 6.13135815 0.00200000
v -1.58789992 6.09029722 0.00200000
v -1.61135983 6.17785025 0.00200000
v -1.63832366 6.13135815 0.00200000
v -1.61135983 6.17785025 0.00200000
v -1.67032158 6.21395445 0.00200000
v -1.67032158 6.21395445 0.00200000
v -1.61135983 6.17785025 0.00200000
v -1.64966679 6.26000023 0.00200000
v -1.67032158 6.21395445 0.00200000
v -1.64966679 6.26000023 0.00200000
v -1.71695173 6.28926468 0.00200000
v -1.71695173 6.28926468 0.00200000
v -1.64966679 6.26000023 0.00200000
v -1.70165694 6.33424950 0.00200000
v -1.71695173 6.28926468 0.00200000
v -1.70165694 6.33424950 0.00200000
v -1.77662611 6.35472441 0.00200000
v -1.77662611 6.35472441 0.00200000
v -1.70165694 6.33424950 0.00200000
v -1.76575041 6.39834309 0.00200000
v -1.77662611 6.35472441 0.00200000
v -1.76575041 6.39834309 0.00200000
v -1.84731257 6.40810442 0.00200000
v -1.84731257 6.40810442 0.00200000
v -1.76575041 6.39834309 0.00200000
v -1.84000003 6.45033312 0.00200000
v -1.84731257 6.40810442 0.00200000
v -1.84000003 6.45033312 0.00200000
v -1.92660403 6.44758654 0.00200000
v -1.92660403 6.44758654 0.00200000
v -1.84000003 6.45033312 0.00200000
v -1.92214954 6.48864031 0.00200000
v -1.92660403 6.44758654 0.00200000
v -1.92214954 6.48864031 0.00200000
v -2.01180029 6.47182703 0.00200000
v -2.01180029 6.47182703 0.00200000
v -1.92214954 6.48864031 0.00200000
v -2.00970292 6.51210022 0.00200000
v -2.01180029 6.47182703 0.00200000
v -2.00970292 6.51210022 0.00200000
v -2.09999990 6.48000002 0.00200000
v -2.09999990 6.48000002 0.00200000
v -2.00970292 6.51210022 0.00200000
v -2.09999990 6.51999998 0.00200000
v -2.09999990 6.48000002 0.00200000
v -2.09999990 6.51999998 0.00200000
v -3.00000000 6.48000002 0.00200000
v -3.00000000 6.48000002 0.00200000
v -2.09999990 6.51999998 0.00200000
v -3.00000000 6.51999998 0.00200000
v -3.00000000 6.48000002 0.00200000
v -3.00000000 6.51999998 0.00200000
v -3.08335114 6.47270775 0.00200000
v -3.08335114 6.47270775 0.00200000
v -3.00000000 6.51999998 0.00200000
v -3.09029698 6.51210022 0.00200000
v -3.08335114 6.47270775 0.00200000
v -3.09029698 6.51210022 0.00200000
v -3.16416955 6.45105267 0.00200000
v -3.16416955 6.45105267 0.00200000
v -3.09029698 6.51210022 0.00200000
v -3.17785048 6.48864031 0.00200000
v -3.16416955 6.45105267 0.00200000
v -3.17785048 6.48864031 0.00200000
v -3.24000001 6.41569233 0.00200000
v -3.24000001 6.41569233 0.00200000
v -3.17785048 6.48864031 0.00200000
v -3.25999999 6.45033312 0.00200000
v -3.24000001 6.41569233 0.00200000
v -3.25999999 6.45033312 0.00200000
v -3.30853796 6.36770153 0.00200000
v -3.30853796 6.36770153 0.00200000
v -3.25999999 6.45033312 0.00200000
v -3.33424950 6.39834309 0.00200000
v -3.30853796 6.36770153 0.00200000
v -3.33424950 6.39834309 0.00200000
v -3.36770129 6.30853796 0.00200000
v -3.36770129 6.30853796 0.00200000
v -3.33424950 6.39834309 0.00200000
v -3.39834309 6.33424950 0.00200000
v -3.36770129 6.30853796 0.00200000
v -3.39834309 6.33424950 0.00200000
v -3.41569209 6.23999977 0.00200000
v -3.41569209 6.23999977 0.00200000
v -3.39834309 6.33424950 0.00200000
v -3.45033312 6.26000023 0.00200000
v -3.41569209 6.23999977 0.00200000
v -3.45033312 6.26000023 0.00200000
v -3.45105243 6.16416979 0.00200000
v -3.45105243 6.16416979 0.00200000
v -3.45033312 6.26000023 0.00200000
v -3.48864007 6.17785025 0.00200000
v -3.45105243 6.16416979 0.00200000
v -3.48864007 6.17785025 0.00200000
v -3.47270775 6.08335114 0.00200000
v -3.47270775 6.08335114 0.00200000
v -3.48864007 6.17785025 0.00200000
v -3.51209998 6.09029722 0.00200000
v -3.47270775 6.08335114 0.00200000
v -3.51209998 6.09029722 0.00200000
v -3.48000002 6.00000000 0.00200000
v -3.48000002 6.00000000 0.00200000
v -3.51209998 6.09029722 0.00200000
v -3.51999998 6.00000000 0.00200000
v -3.48000002 6.00000000 0.00200000
v -3.51999998 6.00000000 0.00200000
v -3.48000002 5.11908913 0.00200000
v -3.48000002 5.11908913 0.00200000
v -3.51999998 6.00000000 0.00200000
v -3.51999998 3.00000000 0.00200000
v -3.48000002 5.11908913 0.00200000
v -3.51999998 3.00000000 0.00200000
v -3.48000002 4.90000010 0.00200000
v -3.48000002 4.90000010 0.00200000
v -3.51999998 3.00000000 0.00200000
v -3.48000002 3.00000000 0.00200000
vt 0.33543283 0.05973721
vt 0.31612766 0.06142646
vt 0.28911027 0.05973721
vt 0.28911027 0.05973721
vt 0.31612766 0.06142646
vt 0.29740903 0.06644189
vt 0.28911027 0.05973721
vt 0.29740903 0.06644189
vt 0.27117297 0.06904817
vt 0.27117297 0.06904817
vt 0.29740903 0.06644189
vt 0.27984610 0.07463169
vt 0.27117297 0.06904817
vt 0.27984610 0.07463169
vt 0.25504512 0.08122742
vt 0.25504512 0.08122742
vt 0.27984610 0.07463169
vt 0.26397160 0.08574730
vt 0.25504512 0.08122742
vt 0.26397160 0.08574730
vt 0.24118039 0.09593141
vt 0.24118039 0.09593141
vt 0.26397160 0.08574730
vt 0.25026864 0.09944987
vt 0.24118039 0.09593141
vt 0.25026864 0.09944987
vt 0.22996995 0.11274731
vt 0.22996995 0.11274731
vt 0.25026864 0.09944987
vt 0.23915344 0.11532438
vt 0.22996995 0.11274731
vt 0.23915344 0.11532438
vt 0.22172934 0.13120103
vt 0.22172934 0.13120103
vt 0.23915344 0.11532438
vt 0.23096347 0.13288772
vt 0.22172934 0.13120103
vt 0.23096347 0.13288772
vt 0.21669005 0.15077281
vt 0.21669005 0.15077281
vt 0.23096347 0.13288772
vt 0.22594801 0.15160608
vt 0.21669005 0.15077281
vt 0.22594801 0.15160608
vt 0.21499456 0.17091107
vt 0.21499456 0.17091107
vt 0.22594801 0.15160608
vt 0.22425874 0.17091107
vt 0.22425874 0.61097479
vt 0.22591282 0.63198966
vt 0.22425874 0.66171855
vt 0.22425874 0.66171855
vt 0.22591282 0.63198966
vt 0.23083389 0.65248656
vt 0.22425874 0.66171855
vt 0.23083389 0.65248656
vt 0.23343495 0.68137407
vt 0.23343495 0.68137407
vt 0.23083389 0.65248656
vt 0.23890050 0.67196190
vt 0.23343495 0.68137407
vt 0.23890050 0.67196190
vt 0.24546708 0.69942313
vt 0.24546708 0.69942313
vt 0.23890050 0.67196190
vt 0.24991466 0.68993497
vt 0.24546708 0.69942313
vt 0.24991466 0.68993497
vt 0.26008052 0.71545428
vt 0.26008052 0.71545428
vt 0.24991466 0.68993497
vt 0.26360473 0.70596439
vt 0.26008052 0.71545428
vt 0.26360473 0.70596439
vt 0.27694210 0.72910100
vt 0.27694210 0.72910100
vt 0.26360473 0.70596439
vt 0.27963370 0.71965408
vt 0.27694210 0.72910100
vt 0.27963370 0.71965408
vt 0.29566675 0.74005234
vt 0.29566675 0.74005234
vt 0.27963370 0.71965408
vt 0.29760724 0.73066843
vt 0.29566675 0.74005234
vt 0.29760724 0.73066843
vt 0.31582752 0.74805844
vt 0.31582752 0.74805844
vt 0.29760724 0.73066843
vt 0.31708235 0.73873508
vt 0.31582752 0.74805844
vt 0.31708235 0.73873508
vt 0.33696377 0.75293612
vt 0.33696377 0.75293612
vt 0.31708235 0.73873508
vt 0.33757928 0.74365610
vt 0.33696377 0.75293612
vt 0.33757928 0.74365610
vt 0.35859391 0.75457436
vt 0.35859391 0.75457436
vt 0.33757928 0.74365610
vt 0.35859391 0.74531019
vt 0.35859391 0.75457436
vt 0.35859391 0.74531019
vt 0.54388398 0.75457436
vt 0.54388398 0.75457436
vt 0.35859391 0.74531019
vt 0.54388398 0.74531019
vt 0.54388398 0.75457436
vt 0.54388398 0.74531019
vt 0.56431180 0.75646746
vt 0.56431180 0.75646746
vt 0.54388398 0.74531019
vt 0.56479776 0.74713981
vt 0.56431180 0.75646746
vt 0.56479776 0.74713981
vt 0.58404458 0.76208192
vt 0.58404458 0.76208192
vt 0.56479776 0.74713981
vt 0.58507633 0.75257313
vt 0.58404458 0.76208192
vt 0.58507633 0.75257313
vt 0.60240942 0.77122635
vt 0.60240942 0.77122635
vt 0.58507633 0.75257313
vt 0.60410321 0.76144558
vt 0.60240942 0.77122635
vt 0.60410321 0.76144558
vt 0.61878127 0.78358972
vt 0.61878127 0.78358972
vt 0.60410321 0.76144558
vt 0.62130058 0.77348715
vt 0.61878127 0.78358972
vt 0.62130058 0.77348715
vt 0.63260281 0.79875112
vt 0.63260281 0.79875112
vt 0.62130058 0.77348715
vt 0.63614511 0.78833234
vt 0.63260281 0.79875112
vt 0.63614511 0.78833234
vt 0.64340270 0.81619394
vt 0.64340270 0.81619394
vt 0.63614511 0.78833234
vt 0.64818686 0.80552924
vt 0.64340270 0.81619394
vt 0.64818686 0.80552924
vt 0.65081370 0.83532423
vt 0.65081370 0.83532423
vt 0.64818686 0.80552924
vt 0.65705907 0.82455575
vt 0.65081370 0.83532423
vt 0.65705907 0.82455575
vt 0.65458333 0.85549033
vt 0.65458333 0.85549033
vt 0.65705907 0.82455575
vt 0.66249287 0.84483427
vt 0.65458333 0.85549033
vt 0.66249287 0.84483427
vt 0.65458333 0.87600619
vt 0.66249287 0.84483427
vt 0.66432226 0.86574829
vt 0.65458333 0.87600619
vt 0.65458333 0.87600619
vt 0.66432226 0.86574829
vt 0.66249287 0.88666224
vt 0.65458333 0.87600619
vt 0.66249287 0.88666224
vt 0.65081370 0.89617276
vt 0.65081370 0.89617276
vt 0.66249287 0.88666224
vt 0.65705907 0.90694034
vt 0.65081370 0.89617276
vt 0.65705907 0.90694034
vt 0.64340270 0.91530311
vt 0.64340270 0.91530311
vt 0.65705907 0.90694034
vt 0.64818686 0.92596769
vt 0.64340270 0.91530311
vt 0.64818686 0.92596769
vt 0.63260281 0.93274581
vt 0.63260281 0.93274581
vt 0.64818686 0.92596769
vt 0.63614511 0.94316471
vt 0.63260281 0.93274581
vt 0.63614511 0.94316471
vt 0.61878127 0.94790685
vt 0.61878127 0.94790685
vt 0.63614511 0.94316471
vt 0.62130058 0.95800984
vt 0.61878127 0.94790685
vt 0.62130058 0.95800984
vt 0.60240942 0.96027017
vt 0.60240942 0.96027017
vt 0.62130058 0.95800984
vt 0.60410321 0.97005093
vt 0.60240942 0.96027017
vt 0.60410321 0.97005093
vt 0.58404458 0.96941507
vt 0.58404458 0.96941507
vt 0.60410321 0.97005093
vt 0.58507633 0.97892344
vt 0.58404458 0.96941507
vt 0.58507633 0.97892344
vt 0.56431180 0.97502911
vt 0.56431180 0.97502911
vt 0.58507633 0.97892344
vt 0.56479776 0.98435724
vt 0.56431180 0.97502911
vt 0.56479776 0.98435724
vt 0.54388398 0.97692215
vt 0.54388398 0.97692215
vt 0.56479776 0.98435724
vt 0.54388398 0.98618674
vt 0.54388398 0.97692215
vt 0.54388398 0.98618674
vt 0.33543283 0.97692215
vt 0.33543283 0.97692215
vt 0.54388398 0.98618674
vt 0.33543283 0.98618674
vt 0.33543283 0.97692215
vt 0.33543283 0.98618674
vt 0.31612766 0.97523332
vt 0.31612766 0.97523332
vt 0.33543283 0.98618674
vt 0.31451905 0.98435724
vt 0.31612766 0.97523332
vt 0.31451905 0.98435724
vt 0.29740903 0.97021747
vt 0.29740903 0.97021747
vt 0.31451905 0.98435724
vt 0.29424050 0.97892344
vt 0.29740903 0.97021747
vt 0.29424050 0.97892344
vt 0.27984610 0.96202767
vt 0.27984610 0.96202767
vt 0.29424050 0.97892344
vt 0.27521357 0.97005093
vt 0.27984610 0.96202767
vt 0.27521357 0.97005093
vt 0.26397160 0.95091248
vt 0.26397160 0.95091248
vt 0.27521357 0.97005093
vt 0.25801668 0.95800984
vt 0.26397160 0.95091248
vt 0.25801668 0.95800984
vt 0.25026864 0.93720949
vt 0.25026864 0.93720949
vt 0.25801668 0.95800984
vt 0.24317153 0.94316471
vt 0.25026864 0.93720949
vt 0.24317153 0.94316471
vt 0.23915344 0.92133546
vt 0.23915344 0.92133546
vt 0.24317153 0.94316471
vt 0.23113038 0.92596769
vt 0.23915344 0.92133546
vt 0.23113038 0.92596769
vt 0.23096347 0.90377212
vt 0.23096347 0.90377212
vt 0.23113038 0.92596769
vt 0.22225796 0.90694034
vt 0.23096347 0.90377212
vt 0.22225796 0.90694034
vt 0.22594801 0.88505328
vt 0.22594801 0.88505328
vt 0.22225796 0.90694034
vt 0.21682435 0.88666224
vt 0.22594801 0.88505328
vt 0.21682435 0.88666224
vt 0.22425874 0.86574829
vt 0.22425874 0.86574829
vt 0.21682435 0.88666224
vt 0.21499456 0.86574829
vt 0.22425874 0.86574829
vt 0.21499456 0.86574829
vt 0.22425874 0.66171855
vt 0.22425874 0.66171855
vt 0.21499456 0.86574829
vt 0.21499456 0.17091107
vt 0.22425874 0.66171855
vt 0.21499456 0.17091107
vt 0.22425874 0.61097479
vt 0.22425874 0.61097479
vt 0.21499456 0.17091107
vt 0.22425874 0.17091107
f 1/1 2/2 3/3
f 4/4 5/5 6/6
f 7/7 8/8 9/9
f 10/10 11/11 12/12
f 13/13 14/14 15/15
f 16/16 17/17 18/18
f 19/19 20/20 21/21
f 22/22 23/23 24/24
f 25/25 26/26 27/27
f 28/28 29/29 30/30
f 31/31 32/32 33/33
f 34/34 35/35 36/36
f 37/37 38/38 39/39
f 40/40 41/41 42/42
f 43/43 44/44 45/45
f 46/46 47/47 48/48
f 49/49 50/50 51/51
f 52/52 53/53 54/54
f 55/55 56/56 57/57
f 58/58 59/59 60/60
f 61/61 62/62 63/63
f 64/64 65/65 66/66
f 67/67 68/68 69/69
f 70/70 71/71 72/72
f 73/73 74/74 75/75
f 76/76 77/77 78/78
f 79/79 80/80 81/81
f 82/82 83/83 84/84
f 85/85 86/86 87/87
f 88/88 89/89 90/90
f 91/91 92/92 93/93
f 94/94 95/95 96/96
f 97/97 98/98 99/99
f 100/100 101/101 102/102
f 103/103 104/104 105/105
f 106/106 107/107 108/108
f 109/109 110/110 111/111
f 112/112 113/113 114/114
f 115/115 116/116 117/117
f 118/118 119/119 120/120
f 121/121 122/122 123/123
f 124/124 125/125 126/126
f 127/127 128/128 129/129
f 130/130 131/131 132/132
f 133/133 134/134 135/135
f 136/136 137/137 138/138
f 139/139 140/140 141/141
f 142/142 143/143 144/144
f 145/145 146/146 147/147
f 148/148 149/149 150/150
f 151/151 152/152 153/153
f 154/154 155/155 156/156
f 157/157 158/158 159/159
f 160/160 161/161 162/162
f 163/163 164/164 165/165
f 166/166 167/167 168/168
f 169/169 170/170 171/171
f 172/172 173/173 174/174
f 175/175 176/176 177/177
f 178/178 179/179 180/180
f 181/181 182/182 183/183
f 184/184 185/185 186/186
f 187/187 188/188 189/189
f 190/190 191/191 192/192
f 193/193 194/194 195/195
f 196/196 197/197 198/198
f 199/199 200/200 201/201
f 202/202 203/203 204/204
f 205/205 206/206 207/207
f 208/208 209/209 210/210
f 211/211 212/212 213/213
f 214/214 215/215 216/216
f 217/217 218/218 219/219
f 220/220 221/221 222/222
f 223/223 224/224 225/225
f 226/226 227/227 228/228
f 229/229 230/230 231/231
f 232/232 233/233 234/234
f 235/235 236/236 237/237
f 238/238 239/239 240/240
f 241/241 242/242 243/243
f 244/244 245/245 246/246
f 247/247 248/248 249/249
f 250/250 251/251 252/252
f 253/253 254/254 255/255
f 256/256 257/257 258/258
f 259/259 260/260 261/261
f 262/262 263/263 264/264
f 265/265 266/266 267/267
f 268/268 269/269 270/270
f 271/271 272/272 273/273
f 274/274 275/275 276/276
f 277/277 278/278 279/279
f 280/280 281/281 282/282
f 283/283 284/284 285/285


# MuJoCo 3.2.3 compatibility tetrahedron
v -3.51999998 2.51999998 0.002
v -3.50999998 2.51999998 0.002
v -3.51999998 2.52999998 0.002
v -3.51999998 2.51999998 0.012
f 286 288 287
f 286 287 289
f 286 289 288
f 287 288 289
