# https://github.com/mikedh/trimesh
mtllib material.mtl
usemtl green
v -9.67029953 -0.11500000 0.00000000
v -9.57030010 -0.01500000 0.00000000
v -10.32999992 -0.11500000 0.00000000
v -10.32999992 -0.11500000 0.00000000
v -9.57030010 -0.01500000 0.00000000
v -10.43000031 -0.01500000 0.00000000
v -10.32999992 -0.11500000 0.00000000
v -10.43000031 -0.01500000 0.00000000
v -10.32999992 -2.00000000 0.00000000
v -10.32999992 -2.00000000 0.00000000
v -10.43000031 -0.01500000 0.00000000
v -10.43000031 -2.09999990 0.00000000
v -10.32999992 -2.00000000 0.00000000
v -10.43000031 -2.09999990 0.00000000
v 3.00000000 -2.00000000 0.00000000
v 3.00000000 -2.00000000 0.00000000
v -10.43000031 -2.09999990 0.00000000
v 3.09999990 -2.09999990 0.00000000
v 3.00000000 -2.00000000 0.00000000
v 3.09999990 -2.09999990 0.00000000
v 3.00000000 11.77999973 0.00000000
v 3.00000000 11.77999973 0.00000000
v 3.09999990 -2.09999990 0.00000000
v 3.09999990 11.88000011 0.00000000
v 3.00000000 11.77999973 0.00000000
v 3.09999990 11.88000011 0.00000000
v 2.20000005 11.77999973 0.00000000
v 2.20000005 11.77999973 0.00000000
v 3.09999990 11.88000011 0.00000000
v 2.09999990 11.88000011 0.00000000
v 2.20000005 11.77999973 0.00000000
v 2.09999990 11.88000011 0.00000000
v 2.20000005 7.67000008 0.00000000
v 2.20000005 7.67000008 0.00000000
v 2.09999990 11.88000011 0.00000000
v 2.09999990 7.76999998 0.00000000
v 2.20000005 7.67000008 0.00000000
v 2.09999990 7.76999998 0.00000000
v -3.29999995 7.67000008 0.00000000
v -3.29999995 7.67000008 0.00000000
v 2.09999990 7.76999998 0.00000000
v -3.40000010 7.76999998 0.00000000
v -3.29999995 7.67000008 0.00000000
v -3.40000010 7.76999998 0.00000000
v -3.29999995 6.86999989 0.00000000
v -3.29999995 6.86999989 0.00000000
v -3.40000010 7.76999998 0.00000000
v -3.40000010 6.76999998 0.00000000
v -3.29999995 6.86999989 0.00000000
v -3.40000010 6.76999998 0.00000000
v 2.20000005 6.86999989 0.00000000
v 2.20000005 6.86999989 0.00000000
v -3.40000010 6.76999998 0.00000000
v 2.09999990 6.76999998 0.00000000
v 2.20000005 6.86999989 0.00000000
v 2.09999990 6.76999998 0.00000000
v 2.20000005 -1.20000005 0.00000000
v 2.20000005 -1.20000005 0.00000000
v 2.09999990 6.76999998 0.00000000
v 2.09999990 -1.10000002 0.00000000
v 2.20000005 -1.20000005 0.00000000
v 2.09999990 -1.10000002 0.00000000
v -6.86999989 -1.20000005 0.00000000
v -6.86999989 -1.20000005 0.00000000
v 2.09999990 -1.10000002 0.00000000
v -6.76999998 -1.10000002 0.00000000
v -6.86999989 -1.20000005 0.00000000
v -6.76999998 -1.10000002 0.00000000
v -6.86999989 1.79999995 0.00000000
v -6.86999989 1.79999995 0.00000000
v -6.76999998 -1.10000002 0.00000000
v -6.76999998 1.89999998 0.00000000
v -6.86999989 1.79999995 0.00000000
v -6.76999998 1.89999998 0.00000000
v -7.67000008 1.79999995 0.00000000
v -7.67000008 1.79999995 0.00000000
v -6.76999998 1.89999998 0.00000000
v -7.76999998 1.89999998 0.00000000
v -7.67000008 1.79999995 0.00000000
v -7.76999998 1.89999998 0.00000000
v -7.67000008 -1.20000005 0.00000000
v -7.67000008 -1.20000005 0.00000000
v -7.76999998 1.89999998 0.00000000
v -7.76999998 -1.10000002 0.00000000
v -7.67000008 -1.20000005 0.00000000
v -7.76999998 -1.10000002 0.00000000
v -9.67029953 -1.20000005 0.00000000
v -9.67029953 -1.20000005 0.00000000
v -7.76999998 -1.10000002 0.00000000
v -9.57030010 -1.10000002 0.00000000
v -9.67029953 -1.20000005 0.00000000
v -9.57030010 -1.10000002 0.00000000
v -9.67029953 -0.11500000 0.00000000
v -9.67029953 -0.11500000 0.00000000
v -9.57030010 -1.10000002 0.00000000
v -9.57030010 -0.01500000 0.00000000
vt 0.11500000 -8.67029953
vt 0.01500000 -8.57030010
vt 0.11500000 -9.32999992
vt 0.11500000 -9.32999992
vt 0.01500000 -8.57030010
vt 0.01500000 -9.43000031
vt 0.11500000 -9.32999992
vt 0.01500000 -9.43000031
vt 2.00000000 -9.32999992
vt 2.00000000 -9.32999992
vt 0.01500000 -9.43000031
vt 2.09999990 -9.43000031
vt 2.00000000 -9.32999992
vt 2.09999990 -9.43000031
vt 2.00000000 4.00000000
vt 2.00000000 4.00000000
vt 2.09999990 -9.43000031
vt 2.09999990 4.09999990
vt 2.00000000 4.00000000
vt 2.09999990 4.09999990
vt -11.77999973 4.00000000
vt -11.77999973 4.00000000
vt 2.09999990 4.09999990
vt -11.88000011 4.09999990
vt -11.77999973 4.00000000
vt -11.88000011 4.09999990
vt -11.77999973 3.20000005
vt -11.77999973 3.20000005
vt -11.88000011 4.09999990
vt -11.88000011 3.09999990
vt -11.77999973 3.20000005
vt -11.88000011 3.09999990
vt -7.67000008 3.20000005
vt -7.67000008 3.20000005
vt -11.88000011 3.09999990
vt -7.76999998 3.09999990
vt -7.67000008 3.20000005
vt -7.76999998 3.09999990
vt -7.67000008 -2.29999995
vt -7.67000008 -2.29999995
vt -7.76999998 3.09999990
vt -7.76999998 -2.40000010
vt -7.67000008 -2.29999995
vt -7.76999998 -2.40000010
vt -6.86999989 -2.29999995
vt -6.86999989 -2.29999995
vt -7.76999998 -2.40000010
vt -6.76999998 -2.40000010
vt -6.86999989 -2.29999995
vt -6.76999998 -2.40000010
vt -6.86999989 3.20000005
vt -6.86999989 3.20000005
vt -6.76999998 -2.40000010
vt -6.76999998 3.09999990
vt -6.86999989 3.20000005
vt -6.76999998 3.09999990
vt 1.20000005 3.20000005
vt 1.20000005 3.20000005
vt -6.76999998 3.09999990
vt 1.10000002 3.09999990
vt 1.20000005 3.20000005
vt 1.10000002 3.09999990
vt 1.20000005 -5.86999989
vt 1.20000005 -5.86999989
vt 1.10000002 3.09999990
vt 1.10000002 -5.76999998
vt 1.20000005 -5.86999989
vt 1.10000002 -5.76999998
vt -1.79999995 -5.86999989
vt -1.79999995 -5.86999989
vt 1.10000002 -5.76999998
vt -1.89999998 -5.76999998
vt -1.79999995 -5.86999989
vt -1.89999998 -5.76999998
vt -1.79999995 -6.67000008
vt -1.79999995 -6.67000008
vt -1.89999998 -5.76999998
vt -1.89999998 -6.76999998
vt -1.79999995 -6.67000008
vt -1.89999998 -6.76999998
vt 1.20000005 -6.67000008
vt 1.20000005 -6.67000008
vt -1.89999998 -6.76999998
vt 1.10000002 -6.76999998
vt 1.20000005 -6.67000008
vt 1.10000002 -6.76999998
vt 1.20000005 -8.67029953
vt 1.20000005 -8.67029953
vt 1.10000002 -6.76999998
vt 1.10000002 -8.57030010
vt 1.20000005 -8.67029953
vt 1.10000002 -8.57030010
vt 0.11500000 -8.67029953
vt 0.11500000 -8.67029953
vt 1.10000002 -8.57030010
vt 0.01500000 -8.57030010
f 1/1 2/2 3/3
f 4/4 5/5 6/6
f 7/7 8/8 9/9
f 10/10 11/11 12/12
f 13/13 14/14 15/15
f 16/16 17/17 18/18
f 19/19 20/20 21/21
f 22/22 23/23 24/24
f 25/25 26/26 27/27
f 28/28 29/29 30/30
f 31/31 32/32 33/33
f 34/34 35/35 36/36
f 37/37 38/38 39/39
f 40/40 41/41 42/42
f 43/43 44/44 45/45
f 46/46 47/47 48/48
f 49/49 50/50 51/51
f 52/52 53/53 54/54
f 55/55 56/56 57/57
f 58/58 59/59 60/60
f 61/61 62/62 63/63
f 64/64 65/65 66/66
f 67/67 68/68 69/69
f 70/70 71/71 72/72
f 73/73 74/74 75/75
f 76/76 77/77 78/78
f 79/79 80/80 81/81
f 82/82 83/83 84/84
f 85/85 86/86 87/87
f 88/88 89/89 90/90
f 91/91 92/92 93/93
f 94/94 95/95 96/96


# MuJoCo 3.2.3 compatibility tetrahedron
v -10.4300003 -2.0999999 0
v -10.4200003 -2.0999999 0
v -10.4300003 -2.0899999 0
v -10.4300003 -2.0999999 0.01
f 97 99 98
f 97 98 100
f 97 100 99
f 98 99 100
