# https://github.com/mikedh/trimesh
mtllib material.mtl
usemtl darkgreylowglossplastic
v 0.30000001 -0.20000000 0.43000001
v 0.30000001 0.20000000 0.43000001
v -0.30000001 -0.20000000 0.43000001
v -0.30000001 0.20000000 0.43000001
vt 0.00000010 0.00000000
vt 0.66666669 0.00000006
vt 0.00000002 0.99999988
vt 0.66666657 0.99999994
f 1/1 2/2 3/3
f 3/3 2/2 4/4


# MuJoCo 3.2.3 compatibility tetrahedron
v -0.30000001 -0.2 0.43000001
v -0.29000001 -0.2 0.43000001
v -0.30000001 -0.19 0.43000001
v -0.30000001 -0.2 0.44000001
f 5 7 6
f 5 6 8
f 5 8 7
f 6 7 8
