# https://github.com/mikedh/trimesh
mtllib material.mtl
usemtl blue
v -3.07508850 2.47409034 0.00200000
v -3.00000000 2.48000002 0.00200000
v -3.20000005 2.48000002 0.00200000
v -6.50000000 1.01999998 0.00200000
v -6.50000000 0.98000002 0.00200000
v -4.00000000 1.01999998 0.00200000
v -4.00000000 1.01999998 0.00200000
v -6.50000000 0.98000002 0.00200000
v -4.00000000 0.98000002 0.00200000
v -4.00000000 1.01999998 0.00200000
v -4.00000000 0.98000002 0.00200000
v -3.92491150 1.02590954 0.00200000
v -3.92491150 1.02590954 0.00200000
v -4.00000000 0.98000002 0.00200000
v -3.91865396 0.98640203 0.00200000
v -3.92491150 1.02590954 0.00200000
v -3.91865396 0.98640203 0.00200000
v -3.85167193 1.04349291 0.00200000
v -3.85167193 1.04349291 0.00200000
v -3.91865396 0.98640203 0.00200000
v -3.83931112 1.00545061 0.00200000
v -3.85167193 1.04349291 0.00200000
v -3.83931112 1.00545061 0.00200000
v -3.78208447 1.07231688 0.00200000
v -3.78208447 1.07231688 0.00200000
v -3.83931112 1.00545061 0.00200000
v -3.76392484 1.03667665 0.00200000
v -3.78208447 1.07231688 0.00200000
v -3.76392484 1.03667665 0.00200000
v -3.71786308 1.11167181 0.00200000
v -3.71786308 1.11167181 0.00200000
v -3.76392484 1.03667665 0.00200000
v -3.69435167 1.07931113 0.00200000
v -3.71786308 1.11167181 0.00200000
v -3.69435167 1.07931113 0.00200000
v -3.66058874 1.16058874 0.00200000
v -3.66058874 1.16058874 0.00200000
v -3.69435167 1.07931113 0.00200000
v -3.63230443 1.13230443 0.00200000
v -3.66058874 1.16058874 0.00200000
v -3.63230443 1.13230443 0.00200000
v -3.61167192 1.21786308 0.00200000
v -3.61167192 1.21786308 0.00200000
v -3.63230443 1.13230443 0.00200000
v -3.57931113 1.19435167 0.00200000
v -3.61167192 1.21786308 0.00200000
v -3.57931113 1.19435167 0.00200000
v -3.57231688 1.28208458 0.00200000
v -3.57231688 1.28208458 0.00200000
v -3.57931113 1.19435167 0.00200000
v -3.53667665 1.26392496 0.00200000
v -3.57231688 1.28208458 0.00200000
v -3.53667665 1.26392496 0.00200000
v -3.54349279 1.35167181 0.00200000
v -3.54349279 1.35167181 0.00200000
v -3.53667665 1.26392496 0.00200000
v -3.50545073 1.33931112 0.00200000
v -3.54349279 1.35167181 0.00200000
v -3.50545073 1.33931112 0.00200000
v -3.52590966 1.42491150 0.00200000
v -3.52590966 1.42491150 0.00200000
v -3.50545073 1.33931112 0.00200000
v -3.48640203 1.41865408 0.00200000
v -3.52590966 1.42491150 0.00200000
v -3.48640203 1.41865408 0.00200000
v -3.51999998 1.50000000 0.00200000
v -3.51999998 1.50000000 0.00200000
v -3.48640203 1.41865408 0.00200000
v -3.48000002 1.50000000 0.00200000
v -3.51999998 1.50000000 0.00200000
v -3.48000002 1.50000000 0.00200000
v -3.51999998 2.00000000 0.00200000
v -3.51999998 2.00000000 0.00200000
v -3.48000002 1.50000000 0.00200000
v -3.48000002 2.00000000 0.00200000
v -3.51999998 2.00000000 0.00200000
v -3.48000002 2.00000000 0.00200000
v -3.51439166 2.07616544 0.00200000
v -3.51439166 2.07616544 0.00200000
v -3.48000002 2.00000000 0.00200000
v -3.47409034 2.07508850 0.00200000
v -3.51439166 2.07616544 0.00200000
v -3.47409034 2.07508850 0.00200000
v -3.49768782 2.15068769 0.00200000
v -3.49768782 2.15068769 0.00200000
v -3.47409034 2.07508850 0.00200000
v -3.45650721 2.14832807 0.00200000
v -3.49768782 2.15068769 0.00200000
v -3.45650721 2.14832807 0.00200000
v -3.47024870 2.22195983 0.00200000
v -3.47024870 2.22195983 0.00200000
v -3.45650721 2.14832807 0.00200000
v -3.42768312 2.21791553 0.00200000
v -3.47024870 2.22195983 0.00200000
v -3.42768312 2.21791553 0.00200000
v -3.43266606 2.28844404 0.00200000
v -3.43266606 2.28844404 0.00200000
v -3.42768312 2.21791553 0.00200000
v -3.38832808 2.28213692 0.00200000
v -3.43266606 2.28844404 0.00200000
v -3.38832808 2.28213692 0.00200000
v -3.38575077 2.34870648 0.00200000
v -3.38575077 2.34870648 0.00200000
v -3.38832808 2.28213692 0.00200000
v -3.33941126 2.33941126 0.00200000
v -3.38575077 2.34870648 0.00200000
v -3.33941126 2.33941126 0.00200000
v -3.33051491 2.40144730 0.00200000
v -3.33051491 2.40144730 0.00200000
v -3.33941126 2.33941126 0.00200000
v -3.28213692 2.38832808 0.00200000
v -3.33051491 2.40144730 0.00200000
v -3.28213692 2.38832808 0.00200000
v -3.26814938 2.44552875 0.00200000
v -3.26814938 2.44552875 0.00200000
v -3.28213692 2.38832808 0.00200000
v -3.21791553 2.42768312 0.00200000
v -3.26814938 2.44552875 0.00200000
v -3.21791553 2.42768312 0.00200000
v -3.20000005 2.48000002 0.00200000
v -3.20000005 2.48000002 0.00200000
v -3.21791553 2.42768312 0.00200000
v -3.14832807 2.45650721 0.00200000
v -3.20000005 2.48000002 0.00200000
v -3.14832807 2.45650721 0.00200000
v -3.07508850 2.47409034 0.00200000
v -6.50517654 1.01931846 0.00200000
v -6.51000023 1.01732051 0.00200000
v -6.51999998 1.00000000 0.00200000
v -6.51000023 1.01732051 0.00200000
v -6.51414204 1.01414216 0.00200000
v -6.51999998 1.00000000 0.00200000
v -6.51999998 1.00000000 0.00200000
v -6.51414204 1.01414216 0.00200000
v -6.51732063 1.00999999 0.00200000
v -6.51999998 1.00000000 0.00200000
v -6.51732063 1.00999999 0.00200000
v -6.51931858 1.00517642 0.00200000
v -6.51732063 0.99000001 0.00200000
v -6.51414204 0.98585784 0.00200000
v -6.50000000 1.01999998 0.00200000
v -6.51414204 0.98585784 0.00200000
v -6.51000023 0.98267949 0.00200000
v -6.50000000 1.01999998 0.00200000
v -6.50000000 1.01999998 0.00200000
v -6.51000023 0.98267949 0.00200000
v -6.50517654 0.98068148 0.00200000
v -6.50000000 1.01999998 0.00200000
v -6.50517654 0.98068148 0.00200000
v -6.50000000 0.98000002 0.00200000
v -6.50517654 1.01931846 0.00200000
v -6.51999998 1.00000000 0.00200000
v -6.50000000 1.01999998 0.00200000
v -6.50000000 1.01999998 0.00200000
v -6.51999998 1.00000000 0.00200000
v -6.51931858 0.99482363 0.00200000
v -6.50000000 1.01999998 0.00200000
v -6.51931858 0.99482363 0.00200000
v -6.51732063 0.99000001 0.00200000
vt 0.96279848 0.75702131
vt 0.98367643 0.75866443
vt 0.92806816 0.75866443
vt 0.01053306 0.35272461
vt 0.01053306 0.34160286
vt 0.70563543 0.35272461
vt 0.70563543 0.35272461
vt 0.01053306 0.34160286
vt 0.70563543 0.34160286
vt 0.70563543 0.35272461
vt 0.70563543 0.34160286
vt 0.72651315 0.35436773
vt 0.72651315 0.35436773
vt 0.70563543 0.34160286
vt 0.72825265 0.34338295
vt 0.72651315 0.35436773
vt 0.72825265 0.34338295
vt 0.74687672 0.35925639
vt 0.74687672 0.35925639
vt 0.72825265 0.34338295
vt 0.75031328 0.34867907
vt 0.74687672 0.35925639
vt 0.75031328 0.34867907
vt 0.76622456 0.36727071
vt 0.76622456 0.36727071
vt 0.75031328 0.34867907
vt 0.77127397 0.35736144
vt 0.76622456 0.36727071
vt 0.77127397 0.35736144
vt 0.78408110 0.37821317
vt 0.78408110 0.37821317
vt 0.77127397 0.35736144
vt 0.79061830 0.36921567
vt 0.78408110 0.37821317
vt 0.79061830 0.36921567
vt 0.80000591 0.39181405
vt 0.80000591 0.39181405
vt 0.79061830 0.36921567
vt 0.80786967 0.38395023
vt 0.80000591 0.39181405
vt 0.80786967 0.38395023
vt 0.81360644 0.40773851
vt 0.81360644 0.40773851
vt 0.80786967 0.38395023
vt 0.82260406 0.40120155
vt 0.81360644 0.40773851
vt 0.82260406 0.40120155
vt 0.82454872 0.42559505
vt 0.82454872 0.42559505
vt 0.82260406 0.40120155
vt 0.83445817 0.42054564
vt 0.82454872 0.42559505
vt 0.83445817 0.42054564
vt 0.83256328 0.44494325
vt 0.83256328 0.44494325
vt 0.83445817 0.42054564
vt 0.84314024 0.44150609
vt 0.83256328 0.44494325
vt 0.84314024 0.44150609
vt 0.83745199 0.46530676
vt 0.83745199 0.46530676
vt 0.84314024 0.44150609
vt 0.84843677 0.46356678
vt 0.83745199 0.46530676
vt 0.84843677 0.46356678
vt 0.83909506 0.48618430
vt 0.83909506 0.48618430
vt 0.84843677 0.46356678
vt 0.85021651 0.48618430
vt 0.83909506 0.48618430
vt 0.85021651 0.48618430
vt 0.83909506 0.62520480
vt 0.83909506 0.62520480
vt 0.85021651 0.48618430
vt 0.85021651 0.62520480
vt 0.83909506 0.62520480
vt 0.85021651 0.62520480
vt 0.84065449 0.64638156
vt 0.84065449 0.64638156
vt 0.85021651 0.62520480
vt 0.85185969 0.64608228
vt 0.84065449 0.64638156
vt 0.85185969 0.64608228
vt 0.84529883 0.66710192
vt 0.84529883 0.66710192
vt 0.85185969 0.64608228
vt 0.85674870 0.66644573
vt 0.84529883 0.66710192
vt 0.85674870 0.66644573
vt 0.85292774 0.68691850
vt 0.85292774 0.68691850
vt 0.85674870 0.66644573
vt 0.86476302 0.68579453
vt 0.85292774 0.68691850
vt 0.86476302 0.68579453
vt 0.86337733 0.70540386
vt 0.86337733 0.70540386
vt 0.86476302 0.68579453
vt 0.87570536 0.70365047
vt 0.86337733 0.70540386
vt 0.87570536 0.70365047
vt 0.87642193 0.72215915
vt 0.87642193 0.72215915
vt 0.87570536 0.70365047
vt 0.88930613 0.71957487
vt 0.87642193 0.72215915
vt 0.88930613 0.71957487
vt 0.89177942 0.73682368
vt 0.89177942 0.73682368
vt 0.88930613 0.71957487
vt 0.90523052 0.73317587
vt 0.89177942 0.73682368
vt 0.90523052 0.73317587
vt 0.90911973 0.74908012
vt 0.90911973 0.74908012
vt 0.90523052 0.73317587
vt 0.92308688 0.74411786
vt 0.90911973 0.74908012
vt 0.92308688 0.74411786
vt 0.92806816 0.75866443
vt 0.92806816 0.75866443
vt 0.92308688 0.74411786
vt 0.94243491 0.75213259
vt 0.92806816 0.75866443
vt 0.94243491 0.75213259
vt 0.96279848 0.75702131
vt 0.00909364 0.35253501
vt 0.00775239 0.35197926
vt 0.00497216 0.34716374
vt 0.00775239 0.35197926
vt 0.00660089 0.35109591
vt 0.00497216 0.34716374
vt 0.00497216 0.34716374
vt 0.00660089 0.35109591
vt 0.00571707 0.34994417
vt 0.00497216 0.34716374
vt 0.00571707 0.34994417
vt 0.00516152 0.34860283
vt 0.00571707 0.34438330
vt 0.00660089 0.34323156
vt 0.01053306 0.35272461
vt 0.00660089 0.34323156
vt 0.00775239 0.34234816
vt 0.01053306 0.35272461
vt 0.01053306 0.35272461
vt 0.00775239 0.34234816
vt 0.00909364 0.34179240
vt 0.01053306 0.35272461
vt 0.00909364 0.34179240
vt 0.01053306 0.34160286
vt 0.00909364 0.35253501
vt 0.00497216 0.34716374
vt 0.01053306 0.35272461
vt 0.01053306 0.35272461
vt 0.00497216 0.34716374
vt 0.00516152 0.34572458
vt 0.01053306 0.35272461
vt 0.00516152 0.34572458
vt 0.00571707 0.34438330
f 1/1 2/2 3/3
f 4/4 5/5 6/6
f 7/7 8/8 9/9
f 10/10 11/11 12/12
f 13/13 14/14 15/15
f 16/16 17/17 18/18
f 19/19 20/20 21/21
f 22/22 23/23 24/24
f 25/25 26/26 27/27
f 28/28 29/29 30/30
f 31/31 32/32 33/33
f 34/34 35/35 36/36
f 37/37 38/38 39/39
f 40/40 41/41 42/42
f 43/43 44/44 45/45
f 46/46 47/47 48/48
f 49/49 50/50 51/51
f 52/52 53/53 54/54
f 55/55 56/56 57/57
f 58/58 59/59 60/60
f 61/61 62/62 63/63
f 64/64 65/65 66/66
f 67/67 68/68 69/69
f 70/70 71/71 72/72
f 73/73 74/74 75/75
f 76/76 77/77 78/78
f 79/79 80/80 81/81
f 82/82 83/83 84/84
f 85/85 86/86 87/87
f 88/88 89/89 90/90
f 91/91 92/92 93/93
f 94/94 95/95 96/96
f 97/97 98/98 99/99
f 100/100 101/101 102/102
f 103/103 104/104 105/105
f 106/106 107/107 108/108
f 109/109 110/110 111/111
f 112/112 113/113 114/114
f 115/115 116/116 117/117
f 118/118 119/119 120/120
f 121/121 122/122 123/123
f 124/124 125/125 126/126
f 127/127 128/128 129/129
f 130/130 131/131 132/132
f 133/133 134/134 135/135
f 136/136 137/137 138/138
f 139/139 140/140 141/141
f 142/142 143/143 144/144
f 145/145 146/146 147/147
f 148/148 149/149 150/150
f 151/151 152/152 153/153
f 154/154 155/155 156/156
f 157/157 158/158 159/159


# MuJoCo 3.2.3 compatibility tetrahedron
v -6.51999998 0.98000002 0.002
v -6.50999998 0.98000002 0.002
v -6.51999998 0.99000002 0.002
v -6.51999998 0.98000002 0.012
f 160 162 161
f 160 161 163
f 160 163 162
f 161 162 163
